<?xml version="1.0" encoding="utf-8"?>
<!-- Generator: Adobe Illustrator 16.0.0, SVG Export Plug-In . SVG Version: 6.00 Build 0)  -->
<!DOCTYPE svg PUBLIC "-//W3C//DTD SVG 1.1//EN" "http://www.w3.org/Graphics/SVG/1.1/DTD/svg11.dtd">
<svg version="1.1" id="Layer_1" xmlns="http://www.w3.org/2000/svg" xmlns:xlink="http://www.w3.org/1999/xlink" x="0px" y="0px"
	 width="552px" height="859px" viewBox="0 0 552 859" enable-background="new 0 0 552 859" xml:space="preserve">
<rect fill="#FFFFFF" stroke="#000000" stroke-miterlimit="10" width="552" height="859"/>
<path fill="none" stroke="#010101" stroke-width="2" stroke-miterlimit="10" d="M236.597,145.144
	c12.012,2.009,18.853,16.507,15.28,32.38c-3.575,15.874-16.209,27.112-28.223,25.104c-12.011-2.011-18.853-16.508-15.277-32.381
	C211.95,154.375,224.585,143.134,236.597,145.144z"/>
<path fill="none" stroke="#010101" stroke-width="2" stroke-miterlimit="10" d="M326.17,160.351
	c12.377,1.877,19.663,16.715,16.268,33.14c-3.4,16.422-16.189,28.212-28.568,26.333c-12.383-1.878-19.665-16.715-16.269-33.137
	C300.998,170.259,313.787,158.471,326.17,160.351z"/>
<line fill="none" stroke="#010101" stroke-miterlimit="10" x1="232.752" y1="133.764" x2="233.395" y2="144.923"/>
<line fill="none" stroke="#010101" stroke-miterlimit="10" x1="241.569" y1="134.05" x2="239.451" y2="145.886"/>
<line fill="none" stroke="#010101" stroke-miterlimit="10" x1="243.1" y1="147.72" x2="250.456" y2="137.906"/>
<line fill="none" stroke="#010101" stroke-miterlimit="10" x1="247.874" y1="152.35" x2="258.109" y2="143.103"/>
<line fill="none" stroke="#010101" stroke-miterlimit="10" x1="228.715" y1="145.658" x2="224.428" y2="137.005"/>
<line fill="none" stroke="#010101" stroke-miterlimit="10" x1="222.902" y1="148.32" x2="217.249" y2="140.674"/>
<line fill="none" stroke="#010101" stroke-miterlimit="10" x1="217.909" y1="152.372" x2="210.063" y2="146.674"/>
<g>
	<path fill="#010101" d="M205.187,142.588c0,0,0.729-0.699,2.107-1.81c1.376-1.11,3.41-2.622,5.997-4.225
		c1.291-0.805,2.719-1.634,4.276-2.429c1.554-0.798,3.22-1.6,5.001-2.3c1.777-0.708,3.644-1.384,5.597-1.897
		c1.945-0.539,3.966-0.934,6.007-1.215c1.021-0.126,2.054-0.189,3.079-0.253c1.03,0.006,2.054-0.077,3.071,0.015
		c0.508,0.029,1.015,0.058,1.519,0.087c0.503,0.046,1,0.136,1.494,0.203c0.994,0.112,1.956,0.343,2.901,0.563
		c1.892,0.44,3.651,1.119,5.263,1.855c1.599,0.767,3.049,1.608,4.292,2.517c0.647,0.416,1.221,0.877,1.749,1.337
		c0.526,0.46,1.053,0.861,1.494,1.298c0.867,0.891,1.649,1.633,2.212,2.318c1.104,1.381,1.735,2.171,1.735,2.171
		s-0.734-0.688-2.019-1.892c-0.634-0.604-1.503-1.229-2.424-2.014c-0.472-0.38-1.026-0.718-1.579-1.108
		c-0.278-0.193-0.563-0.392-0.854-0.594c-0.294-0.197-0.62-0.363-0.938-0.552c-1.265-0.771-2.712-1.46-4.264-2.111
		c-1.571-0.609-3.265-1.14-5.058-1.507c-0.898-0.176-1.809-0.363-2.75-0.435c-0.934-0.125-1.886-0.172-2.848-0.206
		c-0.958-0.078-1.932,0.016-2.905,0.019c-0.972,0.072-1.951,0.146-2.922,0.273c-1.947,0.246-3.886,0.6-5.764,1.098
		c-0.945,0.221-1.862,0.528-2.784,0.772c-0.904,0.305-1.811,0.571-2.679,0.901c-1.746,0.635-3.419,1.305-4.983,1.999
		c-1.56,0.702-3.024,1.398-4.357,2.083c-2.662,1.375-4.835,2.631-6.332,3.553C206.021,142.02,205.187,142.588,205.187,142.588z"/>
</g>
<g>
	<path fill="#010101" d="M298.341,150.531c0,0,0.206-0.183,0.615-0.499c0.409-0.313,1.01-0.783,1.826-1.3
		c1.623-1.044,4.029-2.452,7.151-3.654c1.565-0.581,3.293-1.15,5.173-1.566c1.879-0.392,3.89-0.767,6-0.837
		c2.103-0.104,4.299-0.079,6.496,0.249c2.208,0.256,4.396,0.839,6.555,1.484c2.12,0.762,4.206,1.625,6.144,2.693
		c0.971,0.529,1.938,1.046,2.822,1.671c0.903,0.595,1.804,1.167,2.62,1.826c1.704,1.224,3.189,2.601,4.602,3.887
		c1.349,1.355,2.635,2.621,3.687,3.911c0.537,0.634,1.072,1.222,1.544,1.813c0.452,0.605,0.882,1.18,1.285,1.72
		c0.401,0.539,0.778,1.043,1.126,1.509c0.324,0.483,0.622,0.926,0.891,1.327c1.065,1.609,1.647,2.54,1.647,2.54
		s-0.729-0.831-1.957-2.305c-0.307-0.368-0.646-0.776-1.015-1.221c-0.392-0.425-0.814-0.885-1.267-1.376
		c-0.451-0.49-0.931-1.012-1.437-1.562c-0.526-0.528-1.08-1.083-1.657-1.662c-1.127-1.186-2.478-2.329-3.85-3.589
		c-1.443-1.178-2.958-2.425-4.63-3.565c-0.808-0.611-1.692-1.133-2.577-1.676c-0.87-0.567-1.808-1.039-2.736-1.542
		c-1.861-1.002-3.855-1.796-5.871-2.503c-2.039-0.63-4.105-1.208-6.194-1.471c-1.037-0.185-2.08-0.236-3.106-0.345
		c-1.03-0.033-2.052-0.108-3.055-0.059c-2.011,0.018-3.948,0.258-5.777,0.541c-1.824,0.318-3.53,0.741-5.093,1.189
		c-1.547,0.493-2.965,0.972-4.193,1.477c-1.228,0.504-2.284,0.989-3.133,1.431C299.266,149.928,298.341,150.531,298.341,150.531z"/>
</g>
<line fill="none" stroke="#010101" stroke-miterlimit="10" x1="315.787" y1="161.83" x2="309.829" y2="150.668"/>
<line fill="none" stroke="#010101" stroke-miterlimit="10" x1="321.921" y1="160.236" x2="319.296" y2="149.598"/>
<line fill="none" stroke="#010101" stroke-miterlimit="10" x1="326.146" y1="160.355" x2="328.936" y2="148.715"/>
<path fill="none" stroke="#010101" stroke-miterlimit="10" d="M330.414,161.592c0.068,0.029,5.407-8.062,5.407-8.062"/>
<line fill="none" stroke="#010101" stroke-miterlimit="10" x1="335.756" y1="165.237" x2="343.694" y2="157.35"/>
<line fill="none" stroke="#010101" stroke-miterlimit="10" x1="339.136" y1="169.531" x2="349.254" y2="163.317"/>
<line fill="none" stroke="#010101" stroke-miterlimit="10" x1="310.186" y1="165.219" x2="302.564" y2="156.53"/>
<path fill="none" stroke="#010101" stroke-width="2" stroke-miterlimit="10" d="M419.409,207.517c0,0,18.867,3.917,13.196,19.674
	c-1.249,4.71-11.979,16.822-21.882,12.932C411.774,234.264,420.688,214.05,419.409,207.517z"/>
<path fill="none" stroke="#010101" stroke-width="2" stroke-miterlimit="10" d="M138.32,204.646c0,0-13.838-8.235-8.28-25.977
	c1.352-4.135,8.367-13.727,20.502-6.364C149.222,175.134,138.826,201.149,138.32,204.646z"/>
<path fill="#010101" d="M237.188,168.137c3.87,0.9,5.158,7.731,2.881,15.255c-2.276,7.524-7.257,12.894-11.127,11.994
	c-3.868-0.903-5.158-7.73-2.879-15.256C228.34,172.603,233.32,167.234,237.188,168.137z"/>
<path fill="#FFFFFF" stroke="#010101" stroke-width="2" stroke-miterlimit="10" d="M236.545,174.263
	c1.934,0.485,2.617,3.717,1.527,7.223c-1.089,3.502-3.539,5.947-5.471,5.463c-1.935-0.486-2.621-3.719-1.533-7.223
	C232.161,176.222,234.609,173.778,236.545,174.263z"/>
<path fill="#030303" d="M326.688,183.139c3.858,0.826,5.209,7.866,3.01,15.723c-2.203,7.861-7.118,13.562-10.979,12.735
	c-3.86-0.826-5.207-7.867-3.006-15.723C317.912,188.016,322.825,182.314,326.688,183.139z"/>
<path fill="#FFFFFF" stroke="#010101" stroke-width="2" stroke-miterlimit="10" d="M325.141,190.195
	c1.712,0.377,2.438,3.746,1.614,7.524c-0.823,3.78-2.872,6.537-4.585,6.161c-1.711-0.377-2.433-3.748-1.61-7.527
	C321.377,192.574,323.434,189.816,325.141,190.195z"/>
<g>
	<path fill="#010101" d="M247.896,231.99c0,0,1.757,1.682,4.529,3.942c0.696,0.561,1.459,1.154,2.275,1.763
		c0.814,0.611,1.704,1.207,2.619,1.818c0.926,0.595,1.904,1.171,2.917,1.7c1.008,0.541,2.066,1.011,3.146,1.388
		c1.071,0.408,2.175,0.686,3.27,0.869c1.096,0.132,2.185,0.248,3.229,0.125c0.26-0.028,0.522-0.04,0.777-0.078
		c0.251-0.055,0.501-0.104,0.751-0.149c0.507-0.065,0.969-0.256,1.438-0.389c0.915-0.327,1.764-0.718,2.51-1.165
		c0.391-0.196,0.723-0.451,1.051-0.68c0.323-0.235,0.662-0.425,0.927-0.667c0.534-0.478,1.061-0.848,1.426-1.223
		c0.748-0.731,1.199-1.148,1.199-1.148s-0.313,0.514-0.9,1.41c-0.288,0.453-0.724,0.936-1.2,1.519
		c-0.233,0.297-0.544,0.552-0.841,0.857c-0.303,0.299-0.627,0.608-1.013,0.878c-0.731,0.591-1.604,1.149-2.602,1.603
		c-0.508,0.203-1.017,0.464-1.583,0.599c-0.28,0.078-0.563,0.157-0.849,0.236c-0.289,0.062-0.587,0.096-0.885,0.145
		c-1.194,0.193-2.454,0.192-3.705,0.039c-1.245-0.182-2.491-0.47-3.677-0.9c-1.184-0.438-2.32-0.973-3.389-1.572
		c-1.084-0.577-2.058-1.283-2.999-1.953c-1.859-1.376-3.42-2.854-4.671-4.188C249.133,234.1,247.896,231.99,247.896,231.99z"/>
</g>
<path fill="none" stroke="#010101" stroke-width="2" stroke-miterlimit="10" d="M225.945,271.138c0,0,48.811,12.751,69.072,8.854
	C291.668,285.058,253.837,329.414,225.945,271.138z"/>
<path fill="none" stroke="#010101" stroke-width="2" stroke-miterlimit="10" d="M154.55,162.827c0,0-12.269-142.617,158.26-115.847
	c38.004,5.099,170.586,40.979,107.83,146.833c32.093,9.733,21.527,34.604,19.546,38.846c-9.188,17.181-27.253,20.174-32.622,19.796
	c-48.872,72.664-126.611,69.694-147.258,69.043c-109.927-18.086-122.479-98.621-123.875-106.294
	c-12.111-8.545-14.332-16.824-15.457-25.721C116.32,148.66,154.55,162.827,154.55,162.827l-0.262,16.406
	c0,0,38.402,8.923,47.062-54.494c6.024,1.593,6.95,3.505,15.899-0.638c7.443-2.23,28.669-9.858,54.88,8.286
	c12.048,2.23,17.319,5.736,27.86-0.956c15.06,2.23,36.503-11.797,58.535,5.575c12.998,7.491,14.309,2.706,16.1,0"/>
<path fill="none" stroke="#010101" stroke-width="2" stroke-miterlimit="10" d="M157.349,128.401c0,0,159.592-47.135,274.792,41.208
	"/>
<path fill="none" stroke="#010101" stroke-width="2" stroke-miterlimit="10" d="M387.79,142.722c0,0,10.536,45.01,34.406,48.408"/>
<path fill="none" stroke="#010101" stroke-width="2" stroke-miterlimit="10" d="M192.252,296.752c0,0-92.178,24.933-120.791,150.494
	c7.53,3.187,55.282,16.571,60.394,5.735c5.868-10.834,26.198-38.241,37.493-53.538c-4.518,15.297-30.119,155.518-43.672,200.133
	c11.294,5.1,134.03,49.715,235.681-9.56c3.766-5.1-3.389-10.198-3.389-29.001c-0.752-19.12,1.131-128.641-8.911-156.685
	c8.032,5.95,50.198,55.025,60.238,54.281c10.041-0.743,51.202-26.236,37.648-46.208c-12.548-12.748-64.364-89.956-97.689-108.078"/>
<polyline fill="none" stroke="#010101" stroke-width="2" stroke-miterlimit="10" points="223.066,311.899 198.965,339.744 
	232.347,351.217 210.51,378.41 265.353,417.29 317.308,383.191 300.742,350.366 335.003,343.037 318.826,315.727 "/>
<path fill="none" stroke="#010101" stroke-width="2" stroke-miterlimit="10" d="M247.941,319.112c0,0,20.869,94.872,43.423,1.557"/>
<path fill="none" stroke="#010101" stroke-width="2" stroke-miterlimit="10" d="M211.663,344.108c0,0,10.393,47.475,51.054,51.086
	c10.793-0.425,43.444,0.736,49.709-47.328"/>
<path fill="none" stroke="#010101" stroke-width="2" stroke-miterlimit="10" d="M206.63,342.377c0,0,9.186,51.012,55.413,58.022
	c8.58,0,44.346,1.009,54.135-35.804c1.505-5.943,1.383-17.828,1.383-17.828"/>
<path fill="none" stroke="#010101" stroke-width="2" stroke-miterlimit="10" d="M250.271,397.443c0,0,16.587,76.079,33.53,0"/>
<path fill="none" stroke="#010101" stroke-width="2" stroke-miterlimit="10" d="M244.874,395.195c0,0,18.735,100.939,44.894,0.648"
	/>
<path fill="none" stroke="#010101" stroke-width="2" stroke-miterlimit="10" d="M266.983,440.232c0,0-6.275,97.519-33.884,150.208
	c-9.036,11.899-19.076,28.47-21.585-20.819c0.501-14.022,1.842-65.383-16.23-37.763"/>
<path fill="none" stroke="#010101" stroke-width="2" stroke-miterlimit="10" d="M162.319,514.383c0,0,53.21,33.568,66.262,22.097
	c-3.012,14.446-1.004,74.837-31.625,66.524c-24.597-8.736-43.171-5.592-42.167-43.918
	C158.806,535.629,162.319,514.383,162.319,514.383z"/>
<path fill="none" stroke="#010101" stroke-width="2" stroke-miterlimit="10" d="M73.082,447.867c0,0-24.712,2.777-16.179,11.913
	c4.77,2.125,9.516,4.463,16.179,1.063c-3.378,5.523-19.692,30.592-5.637,37.179c3.765,0.214,5.02,3.187,14.055-18.271
	c-2.259,7.011-13.554,30.593,0,29.743c5.271-1.911,9.789-12.535,13.302-25.281c-2.76,10.197-5.019,37.179,7.028,20.819
	c5.02-12.321,8.033-14.021,8.535-22.52c1.506,9.136,16.064,28.258,11.294-7.011c-1.004-5.524-4.292-16.563-1.518-18.374"/>
<path fill="none" stroke="#010101" stroke-width="2" stroke-miterlimit="10" d="M447.885,428.657c0,0,40.725-5.282,8.348,11.593
	c-0.377,2.534,4.895-0.971,18.071,19.743c1.505,4.78,13.177,25.813-19.201,1.594c5.271,6.373,32.002,31.549,2.259,23.901
	c-11.671-13.704-14.307-17.209-14.307-17.209s17.318,20.396,12.801,24.856c-3.765,1.912-15.06,2.868-27.107-20.714
	c0,5.737,0.377,23.901-8.282,15.297c-6.777-10.197-9.383-23.443-8.268-29.728"/>
<ellipse fill="none" stroke="#010101" stroke-width="2" stroke-miterlimit="10" cx="270.906" cy="450.832" rx="7.249" ry="6.772"/>
<ellipse fill="none" stroke="#010101" stroke-width="2" stroke-miterlimit="10" cx="267.379" cy="485.25" rx="6.821" ry="7.729"/>
<ellipse fill="none" stroke="#010101" stroke-width="2" stroke-miterlimit="10" cx="263.376" cy="521.818" rx="7.625" ry="6.533"/>
<ellipse fill="none" stroke="#010101" stroke-width="2" stroke-miterlimit="10" cx="262.905" cy="557.829" rx="7.154" ry="7.011"/>
<ellipse fill="none" stroke="#010101" stroke-width="2" stroke-miterlimit="10" cx="261.463" cy="595.116" rx="6.776" ry="7.011"/>
<path fill="none" stroke="#010101" stroke-width="2" stroke-miterlimit="10" d="M145.769,606.527c0,0-0.613,29.38,0,43.72
	c-6.916,0.638-62.636,37.604-5.034,42.385c33.131,1.912,91.487,10.836,66.262-31.868c0.753-6.692,7.13-29.754,8.272-41.327"/>
<path fill="none" stroke="#010101" stroke-width="2" stroke-miterlimit="10" d="M145.769,650.247c0,0,44.663,14.66,61.228,10.517"/>
<path fill="none" stroke="#010101" stroke-width="2" stroke-miterlimit="10" d="M278.931,617.87c0,0,10.518,31.624,5.999,43.634
	c-4.518,6.909-22.589,36.229,38.025,30.492c32.001,0.319,86.593,2.654,27.107-41.377c0.753-7.7,1.779-34.945-4.946-52.075"/>
<path fill="none" stroke="#010101" stroke-width="2" stroke-miterlimit="10" d="M285.79,657.866c0,0,49.589,7.145,64.272-7.248"/>
</svg>
