<?xml version="1.0" encoding="utf-8"?>
<!-- Generator: Adobe Illustrator 16.0.0, SVG Export Plug-In . SVG Version: 6.00 Build 0)  -->
<!DOCTYPE svg PUBLIC "-//W3C//DTD SVG 1.1//EN" "http://www.w3.org/Graphics/SVG/1.1/DTD/svg11.dtd">
<svg version="1.1" id="Layer_1" xmlns="http://www.w3.org/2000/svg" xmlns:xlink="http://www.w3.org/1999/xlink" x="0px" y="0px"
	 width="552px" height="859px" viewBox="0 0 552 859" enable-background="new 0 0 552 859" xml:space="preserve">
<rect fill="#FFFFFF" stroke="#000000" stroke-miterlimit="10" width="552" height="859"/>
<path fill="#010101" d="M295.36,222.662c5.521-1.521,12.003,4.81,14.477,14.143c2.475,9.333,0.006,18.132-5.516,19.654
	c-5.521,1.523-12.003-4.809-14.478-14.141C287.37,232.985,289.839,224.185,295.36,222.662z"/>
<ellipse fill="#FFFFFF" stroke="#010101" stroke-width="2" stroke-miterlimit="10" cx="295.411" cy="231.178" rx="3.658" ry="3.207"/>
<ellipse fill="#010101" cx="217.55" cy="251.697" rx="10.823" ry="17.312"/>
<ellipse fill="#FFFEFE" cx="219.445" cy="243.269" rx="3.363" ry="3.549"/>
<path fill="none" stroke="#010101" stroke-width="2" stroke-miterlimit="10" d="M146.082,157.212c0,0-10.103-56.986,36.289-108.083
	c11.134-8.833,54.638-43.528,116.699,0c9.486,7.57,32.372,35.958,45.362,68.13"/>
<path fill="none" stroke="#010101" stroke-width="2" stroke-miterlimit="10" d="M175.566,143.124c0,0-6.804-42.897,17.319-81.378
	c5.567-8.202,34.021-44.159,77.319-6.309c7.423,6.939,24.742,24.603,37.732,58.667"/>
<path fill="none" stroke="#010101" stroke-width="2" stroke-miterlimit="10" d="M88.351,219.455c0,0,11.647-63.715,156.442-98.411
	c14.897-2.523,94.691-17.664,149.124,10.724c9.896,4.416,37.731,15.163,4.948,35.338c-9.278,5.666-25.36,21.438-39.278,7.559
	c-2.164-1.577-38.249-19.976-102.989-6.097c-11.546,1.681-80.412,18.083-113.505,55.618c-4.021,2.208-11.907,3.312-24.124,2.523
	C107.989,225.763,89.433,220.086,88.351,219.455z"/>
<path fill="none" stroke="#010101" stroke-width="2" stroke-miterlimit="10" d="M143.092,224.186c0,0,17.835,28.073,19.073,10.198
	c0-14.929,1.215-24.633,2.876-29.244"/>
<path fill="none" stroke="#010101" stroke-width="2" stroke-miterlimit="10" d="M166.754,203.978c0,0,9.431,17.877,13.967,22.985
	c4.537,5.108,17.338,14.83,23.505-15.078c0.825-5.889,2.062-11.18,0-27.459c0,0,17.114,12.04,15.219,39.656
	c1.275,5.467,11.997,31.983,28.905-15.552c3.711-9.262,8.817-23.611,10.388-40.408c2.808,15.165,5.282,26.942,21.983,47.759
	c6.804,5.678,19.071,13.457,14.69-10.094c-1.905-9.462-1.496-26.073,3.661-35.747c0.823-1.892,1.65,16.822,15.258,31.332
	c4.535,4.415,14.019,12.406,14.846-8.832c0.41-8.201-0.857-20.773-3.919-24.417c-0.411-1.026,9.074-1.868,17.114,24.627
	c3.093,7.15,10.928,32.173,18.969,3.996c2.68-8.831,3.089-13.41,2.986-18.48"/>
<g>
	<path fill="#010101" d="M219.537,217.584c0,0-0.158,0.002-0.452,0.035c-0.293,0.019-0.72,0.087-1.26,0.159
		c-0.539,0.078-1.189,0.205-1.924,0.359c-0.734,0.174-1.555,0.373-2.429,0.663c-0.888,0.234-1.789,0.673-2.766,1.025
		c-0.923,0.491-1.941,0.902-2.88,1.538c-0.473,0.308-0.985,0.571-1.445,0.924c-0.454,0.363-0.914,0.726-1.386,1.079
		c-0.491,0.331-0.898,0.77-1.327,1.186c-0.424,0.421-0.863,0.83-1.279,1.261l-1.142,1.394c-0.368,0.472-0.796,0.897-1.082,1.423
		c-0.592,1.031-1.351,1.944-1.84,2.977c-0.491,1.03-1.011,2.008-1.483,2.951c-0.362,0.989-0.73,1.92-1.074,2.783
		c-0.171,0.433-0.335,0.847-0.492,1.241c-0.121,0.407-0.234,0.792-0.342,1.155c-0.223,0.728-0.417,1.362-0.578,1.884
		c-0.334,1.046-0.544,1.647-0.544,1.647s0.043-0.625,0.154-1.723c0.062-0.55,0.138-1.218,0.224-1.984
		c0.047-0.384,0.098-0.793,0.151-1.224c0.093-0.423,0.213-0.862,0.326-1.325c0.23-0.925,0.484-1.931,0.781-2.99
		c0.396-1.023,0.831-2.104,1.307-3.213c0.207-0.57,0.543-1.088,0.85-1.631c0.308-0.542,0.629-1.087,0.961-1.631
		c0.298-0.566,0.747-1.04,1.136-1.556l1.212-1.527c0.46-0.461,0.944-0.9,1.414-1.348c0.474-0.443,0.928-0.906,1.467-1.261
		c0.516-0.383,1.036-0.751,1.551-1.11c0.519-0.352,1.089-0.612,1.617-0.913c1.042-0.639,2.188-0.972,3.209-1.396
		c1.071-0.297,2.067-0.624,3.027-0.747c0.943-0.195,1.824-0.257,2.599-0.307c0.776-0.042,1.454-0.029,2.008,0
		c0.554,0.027,0.988,0.083,1.282,0.128C219.384,217.548,219.537,217.584,219.537,217.584z"/>
</g>
<g>
	<path fill="#010101" d="M295.286,205.142c0,0,0.417-0.166,1.188-0.329c0.385-0.071,0.857-0.169,1.405-0.211
		c0.548-0.057,1.17-0.097,1.851-0.07c0.684-0.012,1.417,0.083,2.196,0.178c0.766,0.156,1.599,0.259,2.409,0.55
		c0.83,0.231,1.663,0.545,2.483,0.931c0.838,0.349,1.601,0.871,2.411,1.306c0.742,0.539,1.485,1.082,2.182,1.651
		c0.661,0.61,1.298,1.229,1.882,1.848c0.552,0.65,1.056,1.303,1.533,1.913c0.454,0.629,0.81,1.277,1.159,1.852
		c0.357,0.571,0.654,1.109,0.855,1.622c0.226,0.498,0.403,0.94,0.552,1.3c0.293,0.724,0.44,1.141,0.44,1.141
		s-0.298-0.341-0.785-0.943c-0.241-0.303-0.538-0.666-0.855-1.091c-0.306-0.435-0.712-0.879-1.145-1.365
		c-0.426-0.485-0.888-1.011-1.376-1.568c-0.529-0.515-1.089-1.049-1.637-1.627c-0.581-0.544-1.247-1.028-1.855-1.593
		c-0.654-0.506-1.351-0.981-2.037-1.462c-0.729-0.41-1.412-0.914-2.168-1.248c-0.374-0.173-0.739-0.359-1.101-0.546
		c-0.363-0.18-0.745-0.305-1.109-0.458c-0.727-0.314-1.463-0.519-2.155-0.758c-0.706-0.167-1.372-0.387-2.005-0.496
		C297.084,205.141,295.286,205.142,295.286,205.142z"/>
</g>
<path fill="none" stroke="#010101" stroke-width="2" stroke-miterlimit="10" d="M259.512,257.492
	c9.818-2.106,18.599,0.166,19.612,5.077c1.013,4.912-6.125,10.601-15.943,12.708c-9.819,2.106-18.6-0.167-19.613-5.079
	C242.555,265.288,249.692,259.6,259.512,257.492z"/>
<g>
	<path fill="#010101" d="M245.875,287.796c0,0,2.535,0.866,6.378,1.742c0.962,0.215,2.007,0.421,3.112,0.618
		c1.105,0.198,2.278,0.343,3.486,0.485c1.21,0.132,2.463,0.196,3.731,0.222c1.269,0.045,2.552-0.036,3.825-0.156
		c1.271-0.132,2.537-0.318,3.747-0.639c1.215-0.3,2.388-0.68,3.481-1.152c1.094-0.47,2.114-1.012,3.048-1.591
		c0.914-0.605,1.768-1.212,2.496-1.851c0.385-0.298,0.715-0.625,1.03-0.938c0.315-0.312,0.637-0.592,0.903-0.888
		c0.512-0.607,1.012-1.105,1.364-1.563c0.704-0.915,1.129-1.438,1.129-1.438s-0.275,0.603-0.798,1.659
		c-0.267,0.524-0.661,1.12-1.098,1.821c-0.492,0.656-1.013,1.445-1.732,2.172c-0.68,0.768-1.504,1.523-2.438,2.249
		c-0.946,0.71-1.995,1.408-3.166,1.967c-0.585,0.277-1.178,0.572-1.809,0.791c-0.313,0.117-0.627,0.236-0.943,0.354l-0.978,0.276
		c-1.31,0.37-2.672,0.6-4.037,0.76c-1.369,0.106-2.741,0.166-4.082,0.096c-1.344-0.036-2.652-0.218-3.908-0.409
		c-1.256-0.198-2.452-0.473-3.572-0.774c-1.123-0.289-2.163-0.632-3.112-0.973C248.128,289.274,245.875,287.796,245.875,287.796z"/>
</g>
<path fill="none" stroke="#010101" stroke-width="2" stroke-miterlimit="10" d="M353.491,209.818c0,0,6.714,48.409-18.957,66.243
	c-8.968,5.532-24.846,12.471-35.465,12.471c-1.338,0.211-24.695,26.18-70.696,7.254c-3.631,0.315-39.199,2.839-54.972-17.978
	c-15.773-20.818-13.608-33.619-14.227-37.47"/>
<path fill="none" stroke="#010101" stroke-width="2" stroke-miterlimit="10" d="M141.202,225.031c0,0-15.809,15.873,0,39.844
	c2.818,4.731,19.21,22.079,32.2,12.933"/>
<path fill="none" stroke="#010101" stroke-width="2" stroke-miterlimit="10" d="M362.827,191.343c0,0,23.253,10.237,11.706,45.039
	c-2.475,7.885-12.345,22.744-23.902,15.316"/>
<path fill="none" stroke="#010101" stroke-width="2" stroke-miterlimit="10" d="M398.027,304.194
	c16.126-7.001,35.944,3.485,44.268,23.421c8.321,19.937,1.995,41.775-14.132,48.776c-16.126,7-35.944-3.485-44.266-23.422
	C375.574,333.033,381.901,311.195,398.027,304.194z"/>
<path fill="none" stroke="#010101" stroke-width="2" stroke-miterlimit="10" d="M193.813,291.765c0,0-25.354,13.484-27.059,24.208
	c-8.508,1.262-40.054,6.939-38.816,29.65c-8.66,8.831-35.876,30.279-7.423,61.822c8.042,6.309,42.526,39.228,42.526,39.228"/>
<path fill="none" stroke="#010101" stroke-width="2" stroke-miterlimit="10" d="M231.924,297.171c0,0,0.549,38.043-43.986,66.115
	c3.093,1.893,5.433,2.676,5.433,2.676"/>
<path fill="none" stroke="#010101" stroke-width="2" stroke-miterlimit="10" d="M217.55,360.763c0,0,46.88-10.093,75.334-3.365
	c14.846,2.523,41.254,5.072,46.202-0.078"/>
<path fill="none" stroke="#010101" stroke-width="2" stroke-miterlimit="10" d="M294.719,291.85c0,0,7.96,9.614,9.197,17.184
	c2.475,2.523,20.722,19.62,23.196,31.258c3.402,1.861,24.161,36.161,30.655,50.985"/>
<path fill="none" stroke="#010101" stroke-width="2" stroke-miterlimit="10" d="M316.474,284.716c0,0,20.122,30.626,22.183,59.645
	c1.137-0.946,3.402-2.418,3.402-2.418"/>
<path fill="none" stroke="#010101" stroke-width="2" stroke-miterlimit="10" d="M385.126,315.891c0,0-3.272-25.111-28.014,2.921
	c-8.66,1.578-27.217,6.308-9.278,36.273c3.711,6.939,32.474,66.869,61.855,56.775c8.041-2.523,14.535-6.309,12.68-16.087
	c2.784,1.262,2.784,1.262,2.784,1.262l1.237-1.681"/>
<path fill="none" stroke="#010101" stroke-width="2" stroke-miterlimit="10" d="M383.338,310.39c0,0-1.423-28.401,37.96-34.499"/>
<path fill="none" stroke="#010101" stroke-width="2" stroke-miterlimit="10" d="M415.428,302.868c0,0,9.225-5.171,11.08-4.751"/>
<path fill="none" stroke="#010101" stroke-width="2" stroke-miterlimit="10" d="M423.813,262.142c0,0,23.918-4.117,27.011-5.423
	c-1.445,3.11-6.804,31.003,6.804,45.97c-4.537,0.668-27.217,4.663-27.217,4.663S415.36,277.072,423.813,262.142z"/>
<line fill="none" stroke="#010101" stroke-width="2" stroke-miterlimit="10" x1="449.608" y1="261.61" x2="484.508" y2="261.61"/>
<line fill="none" stroke="#010101" stroke-width="2" stroke-miterlimit="10" x1="454.921" y1="299.167" x2="487.249" y2="290.862"/>
<path fill="none" stroke="#010101" stroke-width="2" stroke-miterlimit="10" d="M484.844,258.567c0,0-4.126,31.214,5.151,34.532
	c5.982-0.047,18.354-2.359,18.354-2.359s3.711-24.724-4.949-34.021C499.274,258.567,484.844,258.567,484.844,258.567z"/>
<path fill="none" stroke="#010101" stroke-width="2" stroke-miterlimit="10" d="M436.756,370.389c0,0,35.098,33.271,6.025,57.558
	c-12.062,9.777-36.494,27.125-85.669-10.409c-19.175-12.302-71.213-49.336-97.501-14.639"/>
<path fill="none" stroke="#010101" stroke-width="2" stroke-miterlimit="10" d="M240.164,388.271c0,0,29.686-43.415,91.277-11.172
	c0,0,24.948,12.684,45.155,25.301c20.204,12.196,51.545,29.3,53.195,3.084c-0.308-4.241-4.609-16.681-19.005-27.757"/>
<path fill="none" stroke="#010101" stroke-width="2" stroke-miterlimit="10" d="M171.237,401.768c0,0,32.164-72.85,49.484-31.378
	c6.804-1.425,24.124,2.359,18.248,13.084c-5.876,7.57-30.928,32.804-26.598,70.023c0.928,11.04,4.021,22.71-10.516,17.664
	c-8.969-2.84-12.989-2.208-12.371-9.147c-4.948,3.785-27.526,14.51-26.598-22.711C165.051,416.591,171.237,401.768,171.237,401.768z
	"/>
<path fill="none" stroke="#010101" stroke-width="2" stroke-miterlimit="10" d="M235.429,387.771c0,0,29.209-0.829,28.282,37.022
	c-0.928,11.67-1.237,27.755-22.578,37.85c-7.113,3.785-20.43,6.618-27.843,1.89"/>
<polyline fill="none" stroke="#010101" stroke-width="2" stroke-miterlimit="10" points="263.732,302.599 274.332,355.172 
	275.315,355.209 277.567,366.078 "/>
<path fill="none" stroke="#010101" stroke-width="2" stroke-miterlimit="10" d="M197.567,469.92c0,0-104.269,7.548-127.155,80.725
	c-6.186,25.234-17.938,71.917,14.227,94.625c10.515,11.356,25.979,32.175-11.753,29.65c-4.948,4.416-9.758,21.449-9.758,21.449
	s37.593,15.14,51.819-18.295c6.186-18.925,4.33-38.481-14.845-47.942c-11.134-11.987-30.309-60.562,19.794-110.397
	c11.134-9.463,70.515-22.08,84.123-29.019c13.608-6.939,25.18-10.26,28.981-25.001"/>
<path fill="none" stroke="#010101" stroke-width="2" stroke-miterlimit="10" d="M214.577,485.54c0,0,11.092,0.758,22.845,6.856
	c7.216,3.155,36.082,6.181,40.411-3.429c2.063,0.906,18.557,6.583,30.929-1.197c5.566-1.05,22.68-9.251,37.525-0.209
	c8.247,1.261,46.184-2.523,40.825-22.71c-2.683-8.831-10.104-25.232-22.476-34.277c-1.237-3.153-1.363-8.527-1.363-8.527"/>
<path fill="none" stroke="#010101" stroke-width="2" stroke-miterlimit="10" d="M278.317,389.83c0,0-0.961,24.765,0,36.12
	c0.961,11.356,1.791,60.298-0.483,63.019"/>
<line fill="none" stroke="#010101" stroke-width="2" stroke-miterlimit="10" x1="261.118" y1="406.398" x2="277.833" y2="408.076"/>
<path fill="none" stroke="#010101" stroke-width="2" stroke-miterlimit="10" d="M277.931,405.483c0,0,20.314,1.542,32.48,4.696
	c2.679,0.84,23.876,1.749,33.999-0.809"/>
<path fill="none" stroke="#010101" stroke-width="2" stroke-miterlimit="10" d="M184.742,497.431c0,0,39.095-1.087,51.145-5.794"/>
<path fill="none" stroke="#010101" stroke-width="2" stroke-miterlimit="10" d="M148.065,432.497c0,0-32.269,49.992-19.703,56.471"
	/>
<path fill="none" stroke="#010101" stroke-width="2" stroke-miterlimit="10" d="M136.76,511.853v8.513
	c0,0,67.259,19.555,130.662,6.623c5.257-3.153,9.447-18.271,2.557-32.792"/>
<path fill="none" stroke="#010101" stroke-width="2" stroke-miterlimit="10" d="M271.411,493.771c0,0,63.749-1.307,73.643-6.912"/>
<path fill="none" stroke="#010101" stroke-width="2" stroke-miterlimit="10" d="M271.411,521.696c0,0,40.546,3.4,56.011-2.593
	c7.423-2.208,28.762-5.977,38.35-6.301c5.567-0.954,14.932-1.101-4.905-25.943"/>
<path fill="none" stroke="#010101" stroke-width="2" stroke-miterlimit="10" d="M118.35,579.664c0,0-12.371-17.663,0-26.495
	c10.516-7.256,48.248-24.604,104.845-16.087c12.989,0.946,72.37,15.456,53.195,34.696c2.784,4.416,7.067,29.333-2.808,34.696
	c-0.285,5.362-0.285,22.395-9.254,13.879c-8.969-8.517-18.557-16.087-35.567-13.563c-11.443,1.261-64.639-0.316-76.392,9.462
	c-7.113,2.838-10.206,7.254-13.299,13.246c-3.093,5.362-20.413,21.45-21.031,0c-3.711-6.308-6.804-19.239,0-29.017
	C120.515,592.911,120.482,583.311,118.35,579.664z"/>
<path fill="none" stroke="#010101" stroke-width="2" stroke-miterlimit="10" d="M130.361,638.09c0,0,19.535,45.978,73.349,55.44
	c31.546,4.417,87.854,11.354,82.278-34.696c-1.557-16.401-13.635-30.071-17.803-36.168"/>
<path fill="none" stroke="#010101" stroke-width="2" stroke-miterlimit="10" d="M284.338,676.904c0,0,41.847,34.289,83.908,16.312
	c24.433-8.517,30.309-17.512,34.02-33.517c0.929-7.173-4.522-26.959-17.202-39.261"/>
<path fill="none" stroke="#010101" stroke-width="2" stroke-miterlimit="10" d="M273.264,612.272c0,0,75.495-18.729,101.269,1.456
	c4.538,3.365,13.298,13.248,14.435,0c0.205-8.516-0.723-8.937-0.723-8.937s12.681-7.042,4.847-33.959
	c2.68-6.308,12.991-18.716-25.154-29.86c-10.311-2.943-65.379-12.854-92.184-4.022"/>
<path fill="none" stroke="#010101" stroke-width="2" stroke-miterlimit="10" d="M273.583,521.859l-2.174,6.076
	c0,0,9.501,11.588,3.117,26.928"/>
<path fill="none" stroke="#010101" stroke-width="2" stroke-miterlimit="10" d="M368.226,512.382c0,0,1.99,9.561,0,14.765
	c1.721,4.259,6.104,11.825,5.846,15.77"/>
<path fill="none" stroke="#010101" stroke-width="2" stroke-miterlimit="10" d="M140.258,521.306c0,0,1.246,17.159,2.71,20.779"/>
</svg>
