<?xml version="1.0" encoding="utf-8"?>
<!-- Generator: Adobe Illustrator 16.0.0, SVG Export Plug-In . SVG Version: 6.00 Build 0)  -->
<!DOCTYPE svg PUBLIC "-//W3C//DTD SVG 1.1//EN" "http://www.w3.org/Graphics/SVG/1.1/DTD/svg11.dtd">
<svg version="1.1" id="Layer_1" xmlns="http://www.w3.org/2000/svg" xmlns:xlink="http://www.w3.org/1999/xlink" x="0px" y="0px"
	 width="552px" height="859px" viewBox="0 0 552 859" enable-background="new 0 0 552 859" xml:space="preserve">
<rect fill="#FFFFFF" stroke="#000000" stroke-miterlimit="10" width="552" height="859"/>
<path fill="none" stroke="#010101" stroke-width="2" stroke-miterlimit="10" d="M201.834,169.951
	c9.445,0.451,16.646,13.532,16.084,29.218c-0.561,15.685-8.67,28.034-18.114,27.583c-9.444-0.451-16.646-13.532-16.085-29.22
	C184.281,181.85,192.39,169.498,201.834,169.951z"/>
<path fill="none" stroke="#010101" stroke-width="2" stroke-miterlimit="10" d="M272.285,173.527
	c9.709,0.28,17.294,13.635,16.942,29.825c-0.351,16.192-8.503,29.09-18.21,28.81c-9.708-0.282-17.294-13.634-16.941-29.826
	C254.425,186.146,262.579,173.247,272.285,173.527z"/>
<path fill="none" stroke="#010101" stroke-width="2" stroke-miterlimit="10" d="M348.97,194.039
	c-17.426,5.396-21.471-15.833-22.403-20.508c-0.933-12.59-6.95-30.589-8.61-32.029c-7.052,15.953-14.962,11.274-16.285,10.795
	c-5.911-35.263-60.835,9.177-62.858,9.896c-6.067-2.339,2.542-21.41,1.866-21.41c-65.659,19.433-73.127-9.716-73.127-9.716
	c-0.505-0.72-6.847,52.056-25.934,65.969c0,0,0.414-24.709-5.809-59.253c-2.075-12.955-3.734-51.816,36.514-63.331
	c8.299-2.4,56.999-14.874,100.486-10.076c3.657-3.358,15.004-10.554,7.464-23.508c4.491-0.479,20.26-0.96,22.747,32.146
	c2.073-4.317,15.353-27.348,36.513-13.915c-5.809,2.878-16.6,17.272-13.693,26.387c4.563,1.918,31.946,37.284,26.555,68.779
	C350.735,164.65,345.961,190.321,348.97,194.039z"/>
<line fill="none" stroke="#010101" stroke-miterlimit="10" x1="197.348" y1="159.493" x2="199.36" y2="170.136"/>
<line fill="none" stroke="#010101" stroke-miterlimit="10" x1="204.114" y1="158.686" x2="204.114" y2="170.312"/>
<line fill="none" stroke="#010101" stroke-miterlimit="10" x1="207.149" y1="171.623" x2="211.427" y2="161.293"/>
<line fill="none" stroke="#010101" stroke-miterlimit="10" x1="211.427" y1="175.483" x2="217.978" y2="165.343"/>
<line fill="none" stroke="#010101" stroke-miterlimit="10" x1="195.888" y1="171.414" x2="191.435" y2="163.633"/>
<line fill="none" stroke="#010101" stroke-miterlimit="10" x1="191.814" y1="174.686" x2="186.456" y2="168.042"/>
<line fill="none" stroke="#010101" stroke-miterlimit="10" x1="188.556" y1="179.193" x2="181.787" y2="174.686"/>
<g>
	<path fill="#010101" d="M177.508,171.364c0,0,0.412-0.712,1.243-1.891c0.831-1.177,2.084-2.82,3.771-4.64
		c0.834-0.919,1.789-1.87,2.837-2.837c1.067-0.947,2.199-1.95,3.477-2.855c1.257-0.932,2.621-1.822,4.076-2.614
		c1.466-0.771,3.002-1.488,4.617-2.023c0.801-0.28,1.638-0.466,2.459-0.674c0.841-0.135,1.665-0.342,2.511-0.384
		c0.42-0.036,0.838-0.072,1.254-0.108c0.418,0.008,0.835,0.016,1.249,0.023c0.828-0.021,1.638,0.143,2.435,0.222
		c0.792,0.123,1.558,0.327,2.306,0.502c0.725,0.262,1.439,0.5,2.117,0.767c0.655,0.316,1.292,0.625,1.909,0.922
		c0.576,0.364,1.131,0.715,1.665,1.052c0.536,0.329,0.986,0.736,1.44,1.08c0.445,0.357,0.875,0.683,1.228,1.05
		c0.72,0.714,1.386,1.287,1.834,1.859c0.922,1.107,1.449,1.739,1.449,1.739s-0.627-0.528-1.724-1.452
		c-0.518-0.49-1.267-0.944-2.04-1.551c-0.383-0.31-0.839-0.572-1.308-0.859c-0.478-0.273-0.936-0.628-1.479-0.887
		c-0.534-0.268-1.09-0.546-1.666-0.835c-0.595-0.234-1.21-0.476-1.843-0.724c-0.646-0.201-1.32-0.372-1.999-0.567
		c-0.702-0.098-1.401-0.278-2.128-0.352c-1.456-0.134-2.97-0.17-4.495,0.038c-0.767,0.045-1.522,0.252-2.289,0.383
		c-0.753,0.204-1.517,0.385-2.258,0.652c-1.5,0.473-2.949,1.125-4.343,1.832c-1.376,0.742-2.731,1.494-3.97,2.348
		c-2.507,1.662-4.7,3.458-6.521,5.07c-1.818,1.618-3.272,3.05-4.268,4.077C178.056,170.75,177.508,171.364,177.508,171.364z"/>
</g>
<g>
	<path fill="#010101" d="M249.702,167.524c0,0,0.481-0.774,1.532-1.977c1.045-1.203,2.674-2.833,4.945-4.422
		c1.144-0.778,2.438-1.557,3.893-2.225c1.463-0.646,3.063-1.229,4.79-1.592c1.727-0.325,3.552-0.56,5.41-0.461
		c1.849,0.102,3.73,0.36,5.531,0.896c1.815,0.492,3.533,1.254,5.171,2.07c1.634,0.833,3.138,1.825,4.536,2.843
		c0.722,0.48,1.354,1.049,1.999,1.573c0.318,0.266,0.633,0.529,0.944,0.789c0.294,0.278,0.584,0.553,0.87,0.825
		c0.567,0.547,1.138,1.058,1.652,1.589c0.499,0.545,0.98,1.072,1.443,1.578c0.951,0.985,1.692,2.001,2.394,2.859
		c0.711,0.851,1.257,1.649,1.711,2.302c0.898,1.309,1.411,2.056,1.411,2.056s-0.625-0.656-1.719-1.804
		c-0.536-0.58-1.188-1.283-1.978-2.047c-0.79-0.762-1.628-1.671-2.639-2.56c-0.495-0.453-1.012-0.925-1.546-1.413
		c-0.553-0.463-1.125-0.942-1.713-1.435c-0.294-0.245-0.592-0.493-0.894-0.744c-0.316-0.231-0.637-0.465-0.961-0.701
		c-0.659-0.455-1.276-0.999-1.989-1.424c-0.703-0.437-1.385-0.938-2.132-1.342c-0.753-0.389-1.479-0.857-2.262-1.218
		c-1.551-0.747-3.166-1.437-4.847-1.871c-1.659-0.52-3.382-0.774-5.077-0.892c-1.7-0.1-3.379,0.011-4.988,0.26
		c-1.603,0.29-3.128,0.718-4.544,1.239c-1.402,0.553-2.695,1.176-3.859,1.82c-2.304,1.331-4.087,2.704-5.275,3.735
		C250.316,166.853,249.702,167.524,249.702,167.524z"/>
</g>
<line fill="none" stroke="#010101" stroke-miterlimit="10" x1="264.563" y1="176.226" x2="258.493" y2="166.242"/>
<line fill="none" stroke="#010101" stroke-miterlimit="10" x1="269.031" y1="173.942" x2="265.574" y2="164.048"/>
<line fill="none" stroke="#010101" stroke-miterlimit="10" x1="272.271" y1="173.535" x2="272.808" y2="162.012"/>
<path fill="none" stroke="#010101" stroke-miterlimit="10" d="M275.7,174.199c0.055,0.019,3.023-8.409,3.023-8.409"/>
<line fill="none" stroke="#010101" stroke-miterlimit="10" x1="280.271" y1="177.043" x2="285.256" y2="168.49"/>
<line fill="none" stroke="#010101" stroke-miterlimit="10" x1="283.438" y1="180.751" x2="290.312" y2="173.535"/>
<line fill="none" stroke="#010101" stroke-miterlimit="10" x1="260.75" y1="180.174" x2="253.747" y2="172.766"/>
<path fill="none" stroke="#010101" stroke-width="2" stroke-miterlimit="10" d="M244.018,336.412
	c15.848-1.918,75.596-8.635,102.98-84.441c4.148-0.299,17.531-5.399,22.198-23.03c0.933-4.317,5.602-29.507-20.229-34.903"/>
<path fill="none" stroke="#010101" stroke-width="2" stroke-miterlimit="10" d="M141.618,197.037c0,0-31.117-8.9-21.989,29.734
	c2.075,8.409,4.902,16.084,15.312,22.802c2.113,7.197,22.692,83.001,109.078,86.841"/>
<path fill="none" stroke="#010101" stroke-width="2" stroke-miterlimit="10" d="M349.902,207.352c0,0,14.936,1.44,12.759,17.272
	c-0.311,4.679-6.847,17.633-14.937,15.114C347.726,233.981,351.771,213.469,349.902,207.352z"/>
<path fill="none" stroke="#010101" stroke-width="2" stroke-miterlimit="10" d="M134.939,239.199c0,0-11.687-6.205-9.865-23.929
	c0.466-4.138,4.513-14.213,14.781-8.636C139.232,209.511,134.85,235.779,134.939,239.199z"/>
<path fill="#010101" d="M205.426,191.961c3.076,0.387,4.991,6.79,4.282,14.296c-0.713,7.507-3.779,13.278-6.856,12.889
	c-3.076-0.389-4.992-6.79-4.282-14.298C199.281,197.341,202.352,191.572,205.426,191.961z"/>
<path fill="#FFFFFF" stroke="#010101" stroke-width="2" stroke-miterlimit="10" d="M205.078,200.253
	c1.296,0.183,2.099,2.669,1.794,5.549c-0.306,2.882-1.603,5.07-2.901,4.886c-1.295-0.184-2.097-2.667-1.792-5.55
	C202.484,202.257,203.783,200.069,205.078,200.253z"/>
<path fill="#030303" d="M275.795,195.353c3.06,0.319,5.051,6.914,4.445,14.733c-0.609,7.818-3.582,13.9-6.642,13.581
	c-3.062-0.318-5.051-6.913-4.443-14.732C269.763,201.117,272.734,195.035,275.795,195.353z"/>
<path fill="#FFFFFF" stroke="#010101" stroke-width="2" stroke-miterlimit="10" d="M276.028,204.831
	c1.27,0.097,2.158,2.629,1.988,5.658c-0.172,3.027-1.338,5.406-2.604,5.31c-1.267-0.096-2.155-2.627-1.985-5.657
	C273.597,207.114,274.762,204.735,276.028,204.831z"/>
<g>
	<path fill="#010101" d="M222.318,251.971c0,0,1.561,1.303,3.942,3.086c0.604,0.429,1.259,0.893,1.952,1.384
		c0.694,0.483,1.454,0.944,2.227,1.425c0.78,0.472,1.613,0.903,2.46,1.31c0.843,0.425,1.735,0.739,2.626,1.012
		c0.893,0.252,1.797,0.442,2.683,0.468c0.877-0.008,1.754-0.024,2.545-0.301c0.807-0.221,1.53-0.612,2.205-1.024
		c0.317-0.245,0.625-0.482,0.923-0.712c0.279-0.264,0.549-0.519,0.808-0.764c0.256-0.253,0.458-0.537,0.684-0.782
		c0.227-0.245,0.43-0.489,0.596-0.739c0.338-0.493,0.689-0.899,0.902-1.28c0.467-0.738,0.756-1.163,0.756-1.163
		s-0.131,0.485-0.399,1.338c-0.118,0.434-0.351,0.923-0.604,1.499c-0.236,0.583-0.624,1.188-1.045,1.852
		c-0.241,0.316-0.492,0.645-0.752,0.986c-0.297,0.314-0.625,0.622-0.958,0.948c-0.375,0.276-0.748,0.59-1.171,0.85
		c-0.437,0.238-0.879,0.506-1.38,0.66c-0.972,0.394-2.063,0.56-3.148,0.564c-1.09-0.008-2.166-0.205-3.205-0.479
		c-1.016-0.334-2.011-0.717-2.921-1.201c-0.927-0.456-1.765-1.021-2.563-1.567c-0.795-0.552-1.52-1.141-2.181-1.722
		c-0.671-0.569-1.259-1.156-1.794-1.701C223.375,253.72,222.318,251.971,222.318,251.971z"/>
</g>
<path fill="none" stroke="#010101" stroke-width="2" stroke-miterlimit="10" d="M210.908,292.273c0,0,39.001,6.237,53.938,0
	C262.98,297.551,240.16,344.808,210.908,292.273z"/>
<path fill="none" stroke="#010101" stroke-width="2" stroke-miterlimit="10" d="M132.367,226.766c0,0-9.411,73.289,99.931,137.163
	c6.863,3.635,30.621,15.478,56.942-12.84c12.138-14.932,60.207-63.295,63.852-118.918c-1.731-0.275-2.875-0.79-2.875-0.79l1.03-7.7
	l8.006-0.538c0,0,1.372,65.132-66.565,132.709c0,0-28.822,32.886-63.992,13.643c-4.118-2.445-102.535-56.506-99.79-146.353
	c0.457-5.406,6.977-6.05,6.977-6.05l-0.943,9.01L132.367,226.766z"/>
<line fill="none" stroke="#010101" stroke-width="2" stroke-miterlimit="10" x1="206.945" y1="329.451" x2="200.452" y2="342.693"/>
<polyline fill="none" stroke="#010101" stroke-width="2" stroke-miterlimit="10" points="197.938,348.508 195.927,356.429 
	212.366,359.189 "/>
<polyline fill="none" stroke="#010101" stroke-width="2" stroke-miterlimit="10" points="223.349,366.332 211.196,388.673 
	248.939,427.481 294.746,383.074 283.553,363.929 "/>
<polyline fill="none" stroke="#010101" stroke-width="2" stroke-miterlimit="10" points="292.112,356.471 307.784,351.344 
	304.371,343.514 "/>
<line fill="none" stroke="#010101" stroke-width="2" stroke-miterlimit="10" x1="289.559" y1="322.791" x2="300.709" y2="337.722"/>
<line fill="none" stroke="#010101" stroke-width="2" stroke-miterlimit="10" x1="239.74" y1="336.159" x2="246.252" y2="368.208"/>
<polyline fill="none" stroke="#010101" stroke-width="2" stroke-miterlimit="10" points="248.288,375.426 252.313,387 
	257.904,375.049 "/>
<path fill="none" stroke="#010101" stroke-width="2" stroke-miterlimit="10" d="M259.402,368.957c0,0,3.907-18.425,2.984-35.751"/>
<path fill="none" stroke="#010101" stroke-width="2" stroke-miterlimit="10" d="M236.839,373.099c0,0,3.465,33.081,14.674,32.051
	c4.118-0.515,13.195-7.209,14.604-32.051"/>
<path fill="none" stroke="#010101" stroke-width="2" stroke-miterlimit="10" d="M230.652,370.51c0,0,2.79,33.352,15.599,38.243
	c0.457,3.861,6.149,27.287,11.652,0c3.903-4.891,11.301-8.815,13.32-37.618"/>
<path fill="none" stroke="#010101" stroke-width="2" stroke-miterlimit="10" d="M252.971,421.557c0,0-1.032,61.852-48.825,98.923
	c-14.853,10.813-46.876,31.407-72.953-12.357c-5.49-10.812-40.46-70.865-45.035-87.501"/>
<ellipse fill="none" stroke="#010101" stroke-width="2" stroke-miterlimit="10" cx="79.496" cy="398.492" rx="16.927" ry="17.47"/>
<ellipse fill="none" stroke="#010101" stroke-width="2" stroke-miterlimit="10" cx="78.581" cy="398.418" rx="24.248" ry="23.369"/>
<path fill="none" stroke="#010101" stroke-width="2" stroke-miterlimit="10" d="M303.7,313.724c0,0,13.076,0.281,14.413,2.09"/>
<path fill="none" stroke="#010101" stroke-width="2" stroke-miterlimit="10" d="M193.601,323.708c0,0-11.094,0.273-13.22,1.872"/>
<path fill="none" stroke="#010101" stroke-width="2" stroke-miterlimit="10" d="M175.986,328.849c0,0-32.213,28.545-49.026,26.614
	c-3.945-0.965,3.089,45.052,18.643,60.499c5.719,5.664,12.662,22.912,35.38-7.208c0,0-3.243,85.338-15.252,132.449
	c10.637,1.545,94.358,19.308,126.953,13.901"/>
<path fill="none" stroke="#010101" stroke-width="2" stroke-miterlimit="10" d="M127.423,372.346c0,0-35.542,4.97-41.264,3.875
	c-0.458-2.415-5.434-6.806-7.577-1.858c-1.373-2.196-8.2-5.432-8.407,2.131c-1.631-1.334-7.256-2.75-5.43,2.735"/>
<path fill="none" stroke="#010101" stroke-width="2" stroke-miterlimit="10" d="M98.29,412.019c0,0,32.398,4.221,43.549-0.588"/>
<path fill="none" stroke="#010101" stroke-width="2" stroke-miterlimit="10" d="M325.196,316.84c0,0,79.578,50.887,57.16,78.865
	c-9.606,10.989-29.462,29.395-34.631,31.776c-4.257-4.313-15.236-26.378-15.694-28.989c1.831,14.895,9.356,89.351,9.699,106.34"/>
<path fill="none" stroke="#010101" stroke-width="2" stroke-miterlimit="10" d="M378.502,399.935c0,0,11.974,57.474,19.522,64.425
	c5.49,7.336,4.633,35.333-8.063,25.1c-0.858,4.634-8.063,13.322-12.182,3.669c-1.716,4.633-7.033,15.06-11.322,0.965
	c-3.946-2.51-10.864-10.168-6.292-24.584c2.06-2.575-3.572-33.69-7.162-45.678"/>
<path fill="none" stroke="#010101" stroke-width="2" stroke-miterlimit="10" d="M360.194,486.442c0,0-10.863,12.478-7.189,22.71
	c3.676,3.283,7.278,2.897,8.65-3.475c1.373-6.371,1.549-12.363,2.919-13.036"/>
<path fill="none" stroke="#010101" stroke-width="2" stroke-miterlimit="10" d="M399.615,487.761c0,0,7.502,5.493,8.188,13.441
	c2.575,2.157,7.55,0.998,4.461-9.428c-2.401-7.53-7.071-9.429-11.083-11.762"/>
<path fill="none" stroke="#010101" stroke-width="2" stroke-miterlimit="10" d="M362.472,501.205c0,0,25.635,4.405,42.518-7.628"/>
<path fill="none" stroke="#010101" stroke-width="2" stroke-miterlimit="10" d="M412.74,493.575l53.737-7.133
	c0,0,9.95,4.368,14.41,21.552C485.349,525.179,496.5,616.89,496.5,616.89s-86.299,36.686-171.304,37.071
	c-7.462-4.248-20.5-5.792-24.617-45.952c-4.118-40.161-19.215-128.589,4.117-79.162c7.206,24.328,20.018,110.824,21.048,125.111"/>
<path fill="none" stroke="#010101" stroke-width="2" stroke-miterlimit="10" d="M295.39,514.403c0,0,53.098-10.459,57.05-12.295"/>
<polygon fill="none" stroke="#010101" stroke-width="2" stroke-miterlimit="10" points="396.31,573.641 412.093,568.621 
	415.867,589.087 400.256,593.721 "/>
<line fill="none" stroke="#010101" stroke-width="2" stroke-miterlimit="10" x1="318.013" y1="598.174" x2="397.474" y2="579.57"/>
<line fill="none" stroke="#010101" stroke-width="2" stroke-miterlimit="10" x1="413.647" y1="577.053" x2="489.533" y2="562.679"/>
<ellipse fill="none" stroke="#010101" stroke-width="2" stroke-miterlimit="10" cx="350.331" cy="624.357" rx="19.901" ry="20.724"/>
<polyline fill="none" stroke="#010101" stroke-width="2" stroke-miterlimit="10" points="351.961,607.527 354.534,620.366 
	365.429,618.533 366.715,626.931 356.68,629.346 357.743,639.385 347.844,640.832 346.472,631.949 338.15,633.979 336.178,623.647 
	345.356,621.621 342.697,609.553 351.961,607.527 "/>
<path fill="none" stroke="#010101" stroke-width="2" stroke-miterlimit="10" d="M172.811,542.449c0,0-6.394,29.521-12.34,40.075
	c-5.719,13.643,2.288,24.454,27.907,28.831c15.783,3.089,100.875,2.059,112.199-3.347"/>
<path fill="none" stroke="#010101" stroke-width="2" stroke-miterlimit="10" d="M181.854,610.012"/>
<path fill="none" stroke="#010101" stroke-width="2" stroke-miterlimit="10" d="M177.902,608.924l-3.336,35.983
	c0,0-25.293,10.487-29.858,29.076c0.535,6.902-2.404,16.118,61.369,12.519c6.349-0.793,36.632,0.291,12.582-41.118
	c1.241-5.296,5.611-26.204,5.491-32.621"/>
<path fill="none" stroke="#010101" stroke-width="2" stroke-miterlimit="10" d="M174.565,644.907c0,0,21.149,6.6,44.092,0.476"/>
<path fill="none" stroke="#010101" stroke-width="2" stroke-miterlimit="10" d="M276.656,611.539c0,0,5.28,27.725,3.909,31.534
	c0,0,18.49,5.112,30.044,0"/>
<path fill="none" stroke="#010101" stroke-width="2" stroke-miterlimit="10" d="M280.564,643.073c0,0-21.334,32.899,11.406,42.939
	c19.244,3.862,60.343,1.771,59.476-15.703c-0.2-5.665-2.456-13.949-9.334-16.886"/>
<ellipse fill="none" stroke="#010101" stroke-width="2" stroke-miterlimit="10" cx="253.096" cy="456.233" rx="4.808" ry="5.423"/>
<ellipse fill="none" stroke="#010101" stroke-width="2" stroke-miterlimit="10" cx="255.858" cy="494.753" rx="4.919" ry="6.452"/>
<ellipse fill="none" stroke="#010101" stroke-width="2" stroke-miterlimit="10" cx="258.824" cy="536.999" rx="5.728" ry="5.449"/>
</svg>
