<?xml version="1.0" encoding="utf-8"?>
<!-- Generator: Adobe Illustrator 16.0.0, SVG Export Plug-In . SVG Version: 6.00 Build 0)  -->
<!DOCTYPE svg PUBLIC "-//W3C//DTD SVG 1.1//EN" "http://www.w3.org/Graphics/SVG/1.1/DTD/svg11.dtd">
<svg version="1.1" id="Layer_1" xmlns="http://www.w3.org/2000/svg" xmlns:xlink="http://www.w3.org/1999/xlink" x="0px" y="0px"
	 width="552px" height="859px" viewBox="0 0 552 859" enable-background="new 0 0 552 859" xml:space="preserve">
<rect x="0" fill="#FFFFFF" stroke="#000000" stroke-miterlimit="10" width="552" height="859"/>
<path fill="none" stroke="#000000" stroke-width="2" stroke-miterlimit="10" d="M333.698,315.132
	c1.668,5.485,4.912,7.047,4.912,7.047c16.395,19.827,24.593,7.107,26.319,8.229c28.474,2.993,26.315-22.446,26.315-22.446
	s15.103-8.23,16.826-10.474c33.222-25.064,10.786-44.144,12.512-45.266c3.453-36.662-39.691-43.021-40.122-43.021
	c-5.178-8.23,1.294-35.914,1.726-37.41c4.746-10.101,6.04-24.69,4.746-29.18c-2.157-16.085-27.613-24.69-28.044-24.316
	c-12.943,0.749-45.731-32.547-46.596-34.791c-76.364-43.77-94.92,16.831-94.92,16.831s-32.783-26.932-62.984,2.996
	c-1.295,2.619-47.889,23.942-39.693,45.641c0.431,3.741,1.295,22.446,8.198,34.417c2.157,1.871,1.949,7.107-9.165,9.727
	c-0.328,0.374-24.918,2.245-16.721,29.554c0.431,2.618-74.638,5.611-26.318,38.158c0-1.496-26.316,71.079,34.083,47.51
	c0,0.749,19.846,43.396,65.579,27.684l2.424-1"/>
<path fill="none" stroke="#000000" stroke-width="2" stroke-miterlimit="10" d="M334.295,316.567"/>
<path fill="none" stroke="#000000" stroke-width="2" stroke-miterlimit="10" d="M170.351,333.776c0,0,48.418,27.187,111.741,11.224
	c5.177-0.749,48.753-5.239,65.578-57.426c1.295-3.367,44.93-83.245-11.001-150.387c-2.589-2.806-52.419,85.294-100.309,36.475
	c-1.941,0-20.709-24.129-38.83,38.158c-1.294,6.734-6.471,47.136-40.77,42.647c-2.589-1.123-34.299,12.345-27.828,34.791
	c1.941,4.489,4.53,21.324,21.355,15.151C153.524,304.409,170.351,333.776,170.351,333.776z"/>
<path fill="none" stroke="#000000" stroke-width="2" stroke-miterlimit="10" d="M306.398,337.745c0,0,60.255,58.131,93.906,22.218
	c0.865-4.489-7.763-22.981,18.986-20.468c1.722-0.482,7.108,15.216,7.108,15.216l7.558-16.965l6.041-4.717
	c0,0,31.926,15.712,10.354,44.892c-1.727,5.238-6.04,20.95-39.691,11.223"/>
<path fill="none" stroke="#000000" stroke-width="2" stroke-miterlimit="10" d="M400.304,359.963c0,0,12.944,9.726,10.355,26.187
	c0,2.993-5.175,47.136-84.562,26.187l9.491,66.964l-5.609,12.345l-39.69,13.836l-16.394-20.943l-26.318,24.317l-39.945-6.479"/>
<polyline fill="none" stroke="#000000" stroke-width="2" stroke-miterlimit="10" points="419.29,339.495 484.005,173.662 
	494.25,177.029 439.997,333.028 "/>
<path fill="none" stroke="#000000" stroke-width="2" stroke-miterlimit="10" d="M165.095,254.661c0,0,20.14,3.562,53.792,0"/>
<path fill="none" stroke="#000000" stroke-width="2" stroke-miterlimit="10" d="M181.249,338.724l-1.408,0.771
	c0,0-69.676,51.331-61.263,129.892c1.941,0,1.294,17.396,25.239,13.467c5.177-1.122,13.316-7.855,5.04-26.935
	c3.373,0,5.314,8.417,13.079,8.979c1.942,0,5.825-10.662-5.824-28.058c1.942-1.122-9.785-17.957,35.878-53.87
	c-1.579-0.561,12.875,99.697-4.384,121.021l-0.968,1.243"/>
<path fill="none" stroke="#000000" stroke-width="2" stroke-miterlimit="10" d="M135.091,392.253c0,0,29.983,6.906,47.505-1.469"/>
<path fill="none" stroke="#000000" stroke-width="2" stroke-miterlimit="10" d="M119.657,435.448c0,0,18.336,6.815,36.456,1.392"/>
<polyline fill="none" stroke="#000000" stroke-width="2" stroke-miterlimit="10" points="249.642,349.826 265.482,386.898 
	285.162,344.549 "/>
<line fill="none" stroke="#000000" stroke-width="2" stroke-miterlimit="10" x1="357.747" y1="369.307" x2="343.787" y2="415.517"/>
<path fill="none" stroke="#000000" stroke-width="2" stroke-miterlimit="10" d="M129.231,404.062l-53.688-1.452
	c0,0-7.874,98.014,22.327,99.137c1.294-0.375,83.554,6.731,98.293,2.243c1.799-0.374,45.375,8.605,27.254-95.394
	c0-0.749-55.835-2.448-55.835-2.448"/>
<path fill="none" stroke="#000000" stroke-width="2" stroke-miterlimit="10" d="M179.41,505.481c0,0-5.177,8.61,3.883,68.466
	c0.863,1.87,6.902,10.848,6.902,10.848h40.987l39.692-2.244l3.45,2.244l37.104-1.869l9.059-3.742l8.002-87.02"/>
<path fill="none" stroke="#000000" stroke-width="2" stroke-miterlimit="10" d="M191.06,586.105c0,0,2.912,80.524,0,81.927
	c0.323,0.842,15.531,10.101,36.24,0c0.647-1.402,3.56-33.949,2.588-45.172c0.648-4.209,0-8.231,1.295-38.065"/>
<path fill="none" stroke="#000000" stroke-width="2" stroke-miterlimit="10" d="M271.452,582.926l0.718,1.869
	c0,0,12.081,60.23-2.158,115.223c0.863,1.871,31.065,26.935,69.46,14.964c1.727,0-6.904-32.547-37.103-47.137
	c0-0.373,6.9-3.366,7.767-34.791c0.43-3.366,1.294-50.128,1.294-50.128"/>
<path fill="none" stroke="#000000" stroke-width="2" stroke-miterlimit="10" d="M305.799,669.627l-0.953,0.65
	c0,0-12.451,10.044-29.953,3.899"/>
<path fill="none" stroke="#000000" stroke-width="2" stroke-miterlimit="10" d="M227.3,668.032c0,0,29.77,10.382,32.035,36.756
	c-0.647,1.122-5.501,16.272-32.035,8.417c-1.618-0.842-18.121-5.051-26.209-20.201c-0.971,1.402-13.914,2.806-17.149-3.929
	c0-2.524-1.51-1.963,0-9.632c0.216-0.188,3.236-6.36,7.119-11.411"/>
<path fill="none" stroke="#000000" stroke-width="2" stroke-miterlimit="10" d="M256.421,306.935c0,0,12.62,38.719,36.888,0
	c0,0.28,1.458-2.245,1.295,2.385c0,0.982-22.813,46.435-40.933,0.842C253.671,310.021,253.025,305.111,256.421,306.935z"/>
<ellipse fill="none" stroke="#000000" stroke-width="2" stroke-miterlimit="10" cx="263.338" cy="252.822" rx="43.756" ry="39.842"/>
<ellipse fill="none" stroke="#000000" stroke-width="2" stroke-miterlimit="10" cx="265.633" cy="252.461" rx="6.633" ry="6.502"/>
<path fill="none" stroke="#000000" stroke-width="2" stroke-miterlimit="10" d="M364.833,207.611c0,0-24.605-20.482-46.284,12.345
	c-0.972,2.245-9.922,19.873,6.472,51.345c0.97,1.122,17.096,24.722,30.55-2.509"/>
<ellipse fill="none" stroke="#000000" stroke-width="2" stroke-miterlimit="10" cx="339.743" cy="239.691" rx="5.662" ry="6.267"/>
<path fill="none" stroke="#000000" stroke-width="2" stroke-miterlimit="10" d="M302.989,235.953c0,0,3.591-3.026,12.285-1.269"/>
</svg>
