<?xml version="1.0" encoding="utf-8"?>
<!-- Generator: Adobe Illustrator 16.0.0, SVG Export Plug-In . SVG Version: 6.00 Build 0)  -->
<!DOCTYPE svg PUBLIC "-//W3C//DTD SVG 1.1//EN" "http://www.w3.org/Graphics/SVG/1.1/DTD/svg11.dtd">
<svg version="1.1" id="Layer_1" xmlns="http://www.w3.org/2000/svg" xmlns:xlink="http://www.w3.org/1999/xlink" x="0px" y="0px"
	 width="552px" height="859px" viewBox="0 0 552 859" enable-background="new 0 0 552 859" xml:space="preserve">
<rect fill="#FFFFFF" stroke="#000000" stroke-miterlimit="10" width="552" height="859"/>
<ellipse fill="none" stroke="#010101" stroke-width="2" stroke-miterlimit="10" cx="192.534" cy="208.716" rx="25.54" ry="28.128"/>
<ellipse fill="none" stroke="#010101" stroke-width="2" stroke-miterlimit="10" cx="289.387" cy="204.179" rx="25.539" ry="27.22"/>
<ellipse fill="none" stroke="#010101" stroke-width="2" stroke-miterlimit="10" cx="287.688" cy="217.185" rx="9.246" ry="13.005"/>
<ellipse fill="none" stroke="#010101" stroke-width="2" stroke-miterlimit="10" cx="286.842" cy="219" rx="4.644" ry="5.747"/>
<ellipse fill="none" stroke="#010101" stroke-width="2" stroke-miterlimit="10" cx="189.715" cy="220.512" rx="9.951" ry="14.215"/>
<ellipse fill="none" stroke="#010101" stroke-width="2" stroke-miterlimit="10" cx="190.046" cy="222.403" rx="3.981" ry="5.823"/>
<g>
	<path fill="#010101" d="M224.266,247.33c0,0,2.108,1.841,5.584,4.018c1.745,1.073,3.827,2.234,6.166,3.19
		c1.159,0.505,2.402,0.891,3.66,1.274c1.267,0.349,2.57,0.646,3.89,0.797c0.655,0.117,1.32,0.132,1.978,0.205
		c0.66,0.009,1.319,0.048,1.971,0.019c1.302-0.066,2.592-0.145,3.815-0.402c0.616-0.105,1.216-0.24,1.797-0.402
		c0.586-0.145,1.16-0.292,1.701-0.496c1.104-0.346,2.104-0.798,3.049-1.182c0.895-0.479,1.776-0.831,2.483-1.274
		c0.714-0.429,1.38-0.75,1.873-1.099c1.015-0.654,1.614-1.019,1.614-1.019s-0.487,0.491-1.374,1.336
		c-0.431,0.438-1.025,0.884-1.692,1.421c-0.651,0.562-1.485,1.054-2.364,1.649c-0.924,0.517-1.918,1.111-3.059,1.564
		c-0.554,0.264-1.148,0.472-1.761,0.68c-0.604,0.235-1.246,0.391-1.901,0.546c-1.304,0.327-2.691,0.537-4.107,0.609
		c-0.708,0.042-1.423,0.015-2.14,0.015c-0.713-0.064-1.438-0.07-2.147-0.188c-1.428-0.188-2.825-0.531-4.176-0.929
		c-1.344-0.418-2.629-0.94-3.828-1.521c-1.212-0.556-2.314-1.222-3.341-1.868c-1.024-0.652-1.947-1.332-2.769-1.993
		c-1.653-1.311-2.881-2.568-3.703-3.47C224.67,247.899,224.266,247.33,224.266,247.33z"/>
</g>
<ellipse fill="none" stroke="#010101" stroke-width="2" stroke-miterlimit="10" cx="242.397" cy="292.897" rx="29.63" ry="18.55"/>
<g>
	<path fill="#010101" d="M274.792,159.417c0,0,0.924-0.354,2.593-0.821c1.67-0.456,4.087-1.026,7.043-1.426
		c1.479-0.186,3.087-0.379,4.8-0.439c1.711-0.088,3.523-0.105,5.396,0.003c1.872,0.11,3.811,0.289,5.756,0.646
		c0.975,0.165,1.946,0.399,2.925,0.616c0.963,0.279,1.951,0.488,2.9,0.833l1.43,0.494c0.471,0.178,0.933,0.382,1.398,0.572
		c0.939,0.361,1.829,0.827,2.722,1.265c0.898,0.427,1.725,0.979,2.567,1.467c0.811,0.542,1.6,1.097,2.365,1.651
		c0.727,0.608,1.474,1.166,2.141,1.785c0.647,0.641,1.302,1.245,1.895,1.873c0.568,0.651,1.12,1.284,1.655,1.896
		c0.478,0.655,0.939,1.288,1.383,1.895c0.462,0.591,0.795,1.235,1.16,1.81c0.34,0.592,0.707,1.125,0.958,1.68
		c0.53,1.093,1.036,2.018,1.342,2.832c0.619,1.616,0.974,2.54,0.974,2.54s-0.483-0.859-1.329-2.361
		c-0.399-0.759-1.024-1.603-1.643-2.617c-0.3-0.514-0.716-0.998-1.105-1.536c-0.413-0.521-0.774-1.122-1.273-1.656
		c-0.475-0.549-0.969-1.122-1.48-1.713c-0.55-0.555-1.117-1.128-1.7-1.717c-0.603-0.567-1.264-1.105-1.912-1.678
		c-0.676-0.543-1.393-1.063-2.105-1.611c-0.747-0.499-1.515-0.998-2.299-1.485c-0.822-0.426-1.612-0.93-2.467-1.331
		c-0.853-0.405-1.7-0.838-2.598-1.17c-0.445-0.174-0.885-0.364-1.335-0.528l-1.366-0.456c-0.898-0.341-1.842-0.549-2.758-0.829
		c-0.934-0.217-1.861-0.454-2.795-0.623c-1.866-0.351-3.72-0.633-5.53-0.791c-1.81-0.151-3.568-0.259-5.241-0.268
		c-1.673-0.026-3.257,0.031-4.722,0.09C278.68,158.628,274.792,159.417,274.792,159.417z"/>
</g>
<g>
	<path fill="#010101" d="M215.421,165.164c0,0-0.973-0.426-2.729-0.981c-1.746-0.581-4.305-1.208-7.399-1.675
		c-1.547-0.242-3.237-0.375-5.018-0.487c-1.785-0.065-3.667-0.055-5.604,0.077c-1.937,0.137-3.927,0.4-5.922,0.799
		c-2.004,0.357-3.993,0.94-5.96,1.572c-0.978,0.335-1.95,0.691-2.912,1.058c-0.942,0.418-1.903,0.787-2.817,1.24
		c-1.834,0.891-3.617,1.824-5.283,2.837c-0.823,0.523-1.633,1.038-2.425,1.541c-0.772,0.538-1.527,1.064-2.263,1.577
		c-0.731,0.52-1.399,1.084-2.076,1.592c-0.336,0.257-0.667,0.509-0.992,0.757c-0.312,0.265-0.617,0.524-0.916,0.779
		c-1.201,1.014-2.307,1.944-3.236,2.829c-0.95,0.862-1.777,1.619-2.411,2.29c-1.303,1.307-2.073,2.04-2.073,2.04
		s0.633-0.846,1.784-2.302c0.563-0.74,1.308-1.583,2.168-2.551c0.432-0.481,0.876-1.012,1.375-1.54
		c0.515-0.514,1.057-1.054,1.622-1.618c0.284-0.282,0.573-0.569,0.869-0.862c0.31-0.277,0.626-0.56,0.948-0.847
		c0.649-0.567,1.308-1.172,2.023-1.748c0.724-0.566,1.468-1.148,2.228-1.744c0.774-0.578,1.608-1.109,2.434-1.683
		c1.689-1.088,3.478-2.161,5.384-3.087c0.944-0.479,1.938-0.875,2.914-1.32c0.998-0.393,2.005-0.778,3.022-1.134
		c2.059-0.638,4.14-1.22,6.235-1.571c2.084-0.407,4.174-0.569,6.188-0.658c2.018-0.087,3.968,0.028,5.804,0.194
		c1.834,0.201,3.557,0.475,5.119,0.847c3.134,0.705,5.627,1.69,7.327,2.437c0.854,0.367,1.494,0.727,1.931,0.96
		C215.197,165.021,215.421,165.164,215.421,165.164z"/>
</g>
<path fill="none" stroke="#010101" stroke-width="2" stroke-miterlimit="10" d="M85.4,189.662c0,0,32.283,12.905,38.917-49.199
	c4.865,4.436,14.153,12.098,26.535,7.259c3.096-6.452,9.287-27.423,79.163,7.662c10.171,2.419,17.689,2.017,12.382-7.259
	c-5.307-9.276-12.863-15.323,1.749-10.484c12.403,4.437,78.297,15.325,88.026-6.452c5.308-2.823,6.636-2.42,10.172,12.098
	c3.539,14.518,20.785,44.568,30.959,47.488c1.769-10.792,35.821-102.736-45.109-121.488c-31.18-6.654-148.927,2.722-145.942-14.82
	c3.317-11.493,6.634-15.728,7.629-15.728s-32.837-2.117-41.461,26.918c-10.282-7.561-33.832-14.518-48.094-8.469
	c7.628,3.629,26.867,12.401,11.277,30.245C98.667,95.298,63.287,134.818,85.4,189.662z"/>
<path fill="none" stroke="#010101" stroke-width="2" stroke-miterlimit="10" d="M85.4,189.662c0,0-41.13,10.283-27.199,38.562
	c6.302,10.435,18.907,22.23,29.521,21.928c1.879,7.662,49.862,86.703,147.158,81.863c20.343-0.807,103.885-0.403,147.026-84.686
	c8.204-3.629,26.556-16.837,23.57-38.613c-1.104-10.788-14.594-28.928-32.173-17.942"/>
<path fill="none" stroke="#010101" stroke-width="2" stroke-miterlimit="10" d="M375.956,200.853c0,0,16.107-7.746,19.57,12.4
	c-1.99,10.586-5.971,20.869-11.941,23.591C380.932,228.678,379.938,201.155,375.956,200.853z"/>
<path fill="none" stroke="#010101" stroke-width="2" stroke-miterlimit="10" d="M85.842,201.357c0,0-3.98,26.414,2.653,33.37
	c-7.519,1.31-25.721-3.347-21.229-21.474C73.018,204.583,85.842,201.357,85.842,201.357z"/>
<ellipse fill="none" stroke="#010101" stroke-width="2" stroke-miterlimit="10" cx="225.813" cy="366.09" rx="30.736" ry="26.817"/>
<path fill="none" stroke="#010101" stroke-width="2" stroke-miterlimit="10" d="M180.363,325.488c0,0-11.157,16.003-10.272,21.649
	c3.758,1.21,28.864,5.833,29.465,5.007"/>
<path fill="none" stroke="#010101" stroke-width="2" stroke-miterlimit="10" d="M225.039,332.222c0,0,3.557,6.063,3.547,7.162"/>
<path fill="none" stroke="#010101" stroke-width="2" stroke-miterlimit="10" d="M254.854,330.893c0,0-1.72,12.987-5.319,18.144"/>
<path fill="none" stroke="#010101" stroke-width="2" stroke-miterlimit="10" d="M293.712,323.075c0,0,13.918,13.545,12.591,25.961
	c-15.922-0.287-34.273,3.207-34.273,3.207l17.182,13.848c0,0-49.908,54.643-50.903,55.248c-0.995,0.605-14.837-16.642-14.837-16.642
	"/>
<line fill="none" stroke="#010101" stroke-width="2" stroke-miterlimit="10" x1="228.586" y1="392.796" x2="214.757" y2="424.968"/>
<line fill="none" stroke="#010101" stroke-width="2" stroke-miterlimit="10" x1="202.943" y1="384.004" x2="189.549" y2="414.987"/>
<polyline fill="none" stroke="#010101" stroke-width="2" stroke-miterlimit="10" points="195.771,360.413 190.544,369.922 
	202.266,385.571 "/>
<path fill="none" stroke="#010101" stroke-width="2" stroke-miterlimit="10" d="M154.004,314.691c0,0-60.201,24.986-72.585,63.296
	c-2.653,14.92-3.98,22.986,24.767,24.196c13.709-0.403,36.707,0,36.707,0s15.338-28.137,10.417,7.508"/>
<path fill="none" stroke="#010101" stroke-width="2" stroke-miterlimit="10" d="M138.913,402.125c0,0,27.64,17.6,37.812,10.14
	c8.624-5.444,10.907-9.005,13.821-7.662c2.913,1.343,0,8.082,0,8.082"/>
<path fill="none" stroke="#010101" stroke-width="2" stroke-miterlimit="10" d="M189.93,414.108c0,0-7.58,2.996,0,5.264
	c5.258,0.908,36.168,3.781,31.743,14.215c-2.602,3.176-3.265,4.688-5.919,5.444c3.649,0.756,7.463,8.166-2.322,11.04
	c1.824,1.663,0,13.005-8.292,12.249c1.437,3.781-2.653,5.443-6.855,4.486c0,0-17.579-6.151-22.223-11.796
	c-6.192-3.63-100.299-32.395-87.74-55.515"/>
<path fill="none" stroke="#010101" stroke-width="2" stroke-miterlimit="10" d="M173.258,453.78l-14.556,33.189
	c0,0-11.277,15.728,20.565,12.703l14.465-34.598"/>
<path fill="none" stroke="#010101" stroke-width="2" stroke-miterlimit="10" d="M152.596,446.015c0,0-11.473,68.78-17.111,82.693
	c-1.659,10.283,15.92,15.727,66.005,15.122c39.803-0.604,93.536-11.493,128.364-7.562c15.256-0.302,22.222,2.723,11.608-14.819
	c-3.981-13.309-8.405-98.024-6.634-121.954c0-13.847,3.534-15.46,13.707-6.588c8.848,6.453,24.327,19.76,27.864,10.888
	c3.538-8.871,24.308-32.262,29.401-37.706s-51.114-51.575-82.272-56.133"/>
<path fill="none" stroke="#010101" stroke-width="2" stroke-miterlimit="10" d="M403.401,368.712c0,0,27.615,11.493,52.159,36.899
	c7.962-1.21,24.546-14.215,27.198-3.629c0,5.142-5.639,9.678-9.95,11.493c3.98,1.814,34.164,16.635,30.517,26.615
	c-6.636,2.723-18.576-4.536-24.546-7.562c-0.664,0.605,24.047,12.703,20.73,20.567c-3.483,3.78-24.876-4.688-29.023-10.435
	c-0.829,1.059,20.897,13.912,16.75,21.02c-5.141,4.083-20.841-5.443-33.723-14.971c-0.938,1.059,10.506,13.762,1.716,18.298
	c-2.155,0.756-19.735-11.795-18.739-28.884c-3.815-3.024-55.493-34.387-58.594-37.306"/>
<path fill="none" stroke="#010101" stroke-width="2" stroke-miterlimit="10" d="M139.712,536.722l-9.203,54.996
	c0,0,72.971,31.051,165.844,10.888c33.168-3.225,52.186-8.469,60.587-6.451c0.443-5.242-8.414-51.576-17.254-59.864"/>
<path fill="none" stroke="#010101" stroke-width="3" stroke-miterlimit="10" d="M165.398,499.598
	c0,0-64.079,169.951-121.571,183.661"/>
<path fill="none" stroke="#010101" stroke-width="2" stroke-miterlimit="10" d="M210.965,608.665"/>
<path fill="none" stroke="#010101" stroke-width="2" stroke-miterlimit="10" d="M142.394,595.947c0,0,3.152,42.146,3.152,54.647
	c-7.075,4.032-74.289,41.133-10.167,46.375c30.953,1.21,103.481,13.31,71.198-37.906c-3.097-8.873-3.097-5.243-3.097-5.243"/>
<path fill="none" stroke="#010101" stroke-width="2" stroke-miterlimit="10" d="M143.875,651.543c0,0,48.548,5.906,59.604,2.277"/>
<path fill="none" stroke="#010101" stroke-width="2" stroke-miterlimit="10" d="M268.087,607.322c0,0,3.057,40.331,10.574,44.221
	c-1.327,5.101-28.744,44.216,20.788,45.83c32.724,1.613,80.044,4.839,73.854-18.55c-7.519-12.501-17.247-22.47-38.033-25.552
	c0.44-16.791,0.37-45.001-3.131-55.294"/>
<path fill="none" stroke="#010101" stroke-width="2" stroke-miterlimit="10" d="M278.661,651.543c0,0,41.132,12.875,56.609,1.729"/>
<path fill="none" stroke="#010101" stroke-width="2" stroke-miterlimit="10" d="M515.372,609.413"/>
<path fill="none" stroke="#010101" stroke-width="2" stroke-miterlimit="10" d="M201.635,654.278c0,0,6.155-12.117,10.136-45.555"/>
</svg>
