<?xml version="1.0" encoding="utf-8"?>
<!-- Generator: Adobe Illustrator 16.0.0, SVG Export Plug-In . SVG Version: 6.00 Build 0)  -->
<!DOCTYPE svg PUBLIC "-//W3C//DTD SVG 1.1//EN" "http://www.w3.org/Graphics/SVG/1.1/DTD/svg11.dtd">
<svg version="1.1" id="Layer_1" xmlns="http://www.w3.org/2000/svg" xmlns:xlink="http://www.w3.org/1999/xlink" x="0px" y="0px"
	 width="552px" height="859px" viewBox="0 0 552 859" enable-background="new 0 0 552 859" xml:space="preserve">
<rect fill="#FFFFFF" stroke="#000000" stroke-miterlimit="10" width="552" height="859"/>
<ellipse fill="none" stroke="#010101" stroke-width="2" stroke-miterlimit="10" cx="296.188" cy="234.015" rx="18.402" ry="26.3"/>
<ellipse fill="none" stroke="#010101" stroke-width="2" stroke-miterlimit="10" cx="222.095" cy="232.261" rx="18.886" ry="24.546"/>
<ellipse fill="none" stroke="#010101" stroke-width="2" stroke-miterlimit="10" cx="226.696" cy="231.385" rx="6.295" ry="11.396"/>
<ellipse fill="none" stroke="#010101" stroke-width="2" stroke-miterlimit="10" cx="226.453" cy="229.882" rx="2.906" ry="4.133"/>
<ellipse fill="none" stroke="#010101" stroke-width="2" stroke-miterlimit="10" cx="300.303" cy="233.137" rx="7.508" ry="11.898"/>
<ellipse fill="none" stroke="#010101" stroke-width="2" stroke-miterlimit="10" cx="300.788" cy="231.885" rx="3.391" ry="5.135"/>
<ellipse fill="none" stroke="#010101" stroke-width="2" stroke-miterlimit="10" cx="443.89" cy="150.855" rx="43.102" ry="44.335"/>
<ellipse fill="none" stroke="#010101" stroke-width="2" stroke-miterlimit="10" cx="444.616" cy="150.354" rx="53.513" ry="57.361"/>
<ellipse fill="none" stroke="#010101" stroke-width="2" stroke-miterlimit="10" cx="170.066" cy="159.278" rx="5.903" ry="4.979"/>
<path fill="none" stroke="#010101" stroke-width="2" stroke-miterlimit="10" d="M165.459,162.384l-30.291,25.291
	c0,0-35.11-32.061,3.389-56.107c18.887-14.277,32.689-37.571,45.764-64.623c7.991-12.774,47.942-51.098,111.865-12.774
	c18.888,14.277,33.414,31.059,45.765,38.823c12.348,7.765,37.046,23.546,13.075,46.84c-14.527-4.508-125.668-24.797-181.602,16.532"
	/>
<path fill="none" stroke="#010101" stroke-width="2" stroke-miterlimit="10" d="M174.239,162.799c0,0,84.66,12.354,173.281,5.841
	c14.527-2.003,48.874-6.856,5.065-29.478"/>
<polygon fill="none" stroke="#010101" stroke-width="2" stroke-miterlimit="10" points="244.613,55.673 254.42,68.072 
	272.216,68.072 266.406,83.477 274.162,99.632 257.688,102.638 251.151,118.793 240.255,102.638 224.638,106.52 231.538,87.234 
	220.279,72.581 237.713,71.454 "/>
<g>
	<path fill="#010101" d="M196.428,209.718c0,0,2.212-2.477,6.175-5.49c1.975-1.508,4.378-3.158,7.119-4.665
		c1.38-0.732,2.809-1.502,4.339-2.121c1.514-0.656,3.106-1.206,4.718-1.698c1.634-0.422,3.285-0.81,4.954-0.977
		c1.658-0.235,3.324-0.18,4.919-0.086c1.595,0.175,3.125,0.474,4.512,0.966c0.689,0.255,1.373,0.461,1.979,0.799
		c0.613,0.315,1.222,0.582,1.742,0.955c0.524,0.361,1.066,0.643,1.502,1.024c0.44,0.369,0.858,0.719,1.251,1.049
		c0.739,0.704,1.335,1.365,1.817,1.904c0.881,1.163,1.359,1.827,1.359,1.827s-0.598-0.563-1.644-1.549
		c-0.551-0.456-1.229-0.996-2.013-1.587c-0.827-0.538-1.743-1.152-2.829-1.663c-0.517-0.302-1.115-0.492-1.709-0.728
		c-0.586-0.26-1.233-0.414-1.884-0.601c-1.309-0.363-2.735-0.521-4.205-0.639c-1.481-0.034-3.011,0.023-4.559,0.246
		c-1.552,0.174-3.105,0.568-4.646,0.983c-1.536,0.446-3.063,0.948-4.527,1.558c-1.472,0.586-2.9,1.231-4.265,1.896
		c-1.354,0.686-2.666,1.355-3.881,2.046c-1.216,0.69-2.359,1.36-3.402,2.002c-2.085,1.286-3.789,2.428-4.972,3.244
		C197.094,209.228,196.428,209.718,196.428,209.718z"/>
</g>
<g>
	<path fill="#010101" d="M274.162,207.715c0,0,0.698-0.623,2.025-1.585c1.328-0.958,3.295-2.246,5.815-3.526
		c1.265-0.628,2.653-1.288,4.184-1.841c1.519-0.585,3.168-1.095,4.913-1.484c1.744-0.391,3.588-0.655,5.481-0.74
		c1.892-0.017,3.837,0.031,5.741,0.435c0.48,0.069,0.949,0.198,1.416,0.333c0.466,0.134,0.938,0.25,1.396,0.4
		c0.896,0.369,1.829,0.636,2.666,1.105c0.428,0.214,0.853,0.428,1.275,0.641c0.405,0.244,0.794,0.511,1.188,0.763
		c0.805,0.48,1.506,1.079,2.21,1.646c1.393,1.152,2.583,2.432,3.597,3.718c0.543,0.617,0.982,1.281,1.409,1.919
		c0.422,0.641,0.855,1.242,1.178,1.876c0.342,0.62,0.669,1.214,0.98,1.779c0.311,0.564,0.523,1.14,0.767,1.658
		c0.474,1.042,0.866,1.956,1.113,2.741c0.523,1.548,0.822,2.434,0.822,2.434s-0.432-0.826-1.187-2.272
		c-0.344-0.735-0.86-1.578-1.429-2.549c-0.537-0.991-1.264-2.031-2.034-3.169c-0.362-0.585-0.833-1.127-1.291-1.706
		c-0.46-0.577-0.909-1.192-1.465-1.742c-1.04-1.163-2.242-2.282-3.565-3.315c-0.675-0.501-1.344-1.034-2.104-1.445
		c-0.371-0.218-0.736-0.451-1.115-0.661c-0.391-0.189-0.783-0.38-1.177-0.571c-0.77-0.424-1.632-0.65-2.451-0.981
		c-0.422-0.132-0.856-0.231-1.284-0.349c-0.428-0.121-0.857-0.231-1.3-0.292c-1.739-0.395-3.54-0.458-5.304-0.468
		c-1.767,0.073-3.514,0.21-5.187,0.533c-1.668,0.325-3.281,0.695-4.781,1.17c-1.505,0.455-2.905,0.973-4.192,1.474
		c-1.275,0.528-2.445,1.024-3.461,1.513c-1.018,0.485-1.898,0.927-2.617,1.308C274.959,207.227,274.162,207.715,274.162,207.715z"/>
</g>
<path fill="none" stroke="#010101" stroke-width="2" stroke-miterlimit="10" d="M359.256,166.673c0,0-6.408,43.045-9.799,49.557
	c-4.841,3.505-25.166,10.875-22.268-46.412"/>
<path fill="none" stroke="#010101" stroke-width="2" stroke-miterlimit="10" d="M322.339,170.013c0,0-17.433,9.647-41.648,10.649
	c2.906,4.509,6.297,11.408,0,11.966c-6.295-1.446-14.527-14.972-19.854-14.472c-2.42,4.008-5.327,14.472-5.327,14.472
	s-17.433-15.975-31.961-17.478c-11.139-3.505-31.478-7.701-30.509,6.169c-2.906-0.158-12.591-10.785-12.591-10.785
	s-9.687,73.246-35.837,55.213c0-15.529-2.665-17.784-9.443-18.034l-0.746-20.76"/>
<path fill="none" stroke="#010101" stroke-width="2" stroke-miterlimit="10" d="M135.169,187.675"/>
<g>
	<path fill="#010101" d="M245.704,275.093c0,0,0.356,0.303,0.999,0.787c0.646,0.48,1.57,1.15,2.726,1.846
		c1.156,0.694,2.539,1.415,4.079,1.964c1.539,0.536,3.233,0.919,4.933,0.909c0.849,0.014,1.7-0.048,2.524-0.209
		c0.824-0.158,1.631-0.365,2.398-0.635c0.756-0.295,1.49-0.595,2.166-0.944c0.35-0.151,0.652-0.37,0.972-0.536
		c0.318-0.17,0.625-0.34,0.901-0.532c1.14-0.717,2.065-1.396,2.704-1.885c0.639-0.491,1.022-0.765,1.022-0.765
		s-0.257,0.385-0.741,1.046c-0.235,0.337-0.552,0.72-0.937,1.142c-0.368,0.441-0.825,0.899-1.353,1.375
		c-0.514,0.491-1.127,0.969-1.804,1.436c-0.348,0.221-0.695,0.467-1.073,0.685c-0.382,0.209-0.78,0.414-1.192,0.608
		c-0.839,0.354-1.727,0.712-2.681,0.897c-0.947,0.209-1.937,0.312-2.926,0.315c-0.988-0.027-1.974-0.14-2.913-0.366
		c-0.948-0.196-1.83-0.555-2.662-0.914c-0.835-0.358-1.58-0.82-2.271-1.264c-0.682-0.458-1.296-0.93-1.824-1.406
		c-1.075-0.93-1.831-1.839-2.328-2.487C245.931,275.502,245.704,275.093,245.704,275.093z"/>
</g>
<ellipse fill="none" stroke="#010101" stroke-width="2" stroke-miterlimit="10" cx="255.873" cy="312.289" rx="24.698" ry="13.526"/>
<path fill="none" stroke="#010101" stroke-width="2" stroke-miterlimit="10" d="M135.169,207.715c0,0-25.661,5.01-14.646,32.562
	c2.298,10.02,13.92,20.538,24.09,20.038c1.935,8.516,13.072,74.142,88.378,82.157c20.582,2.504,102.909,7.514,118.889-74.142
	c6.958-2.254,18.582-13.338,18.22-28.555c-0.364-12.398-8.595-28.867-20.644-23.545"/>
<path fill="none" stroke="#010101" stroke-width="2" stroke-miterlimit="10" d="M347.582,226.75c0,0,5.811,20.789,2.724,30.058
	c6.174-2.754,16.162-11.647,11.985-22.794C359.567,225.873,353.938,222.18,347.582,226.75z"/>
<path fill="none" stroke="#010101" stroke-width="2" stroke-miterlimit="10" d="M139.527,219.987c0,0-3.875,19.287,0,25.048
	c-5.084-1.503-12.833-2.505-13.075-15.153C128.146,219.235,131.053,215.729,139.527,219.987z"/>
<polyline fill="none" stroke="#010101" stroke-width="2" stroke-miterlimit="10" points="231.175,342.258 243.942,367.019 
	222.095,479.733 240.981,512.297 263.743,488.251 251.635,367.519 266.632,342.815 "/>
<rect x="179.964" y="381.421" fill="none" stroke="#010101" stroke-width="2" stroke-miterlimit="10" width="46.853" height="8.641"/>
<path fill="none" stroke="#010101" stroke-width="2" stroke-miterlimit="10" d="M178.067,320.375c0,0-71.148,35.122-60.292,58.667
	c5.529,12.523,17.635,48.591,31.679,34.064c9.686-9.518,17.434-16.532,17.434-16.532s-9.443,91.174,13.076,110.712
	c12.349,9.017,76.999,42.08,124.215-3.758c7.264-10.521,16.707-59.364,14.528-103.698c0,0,51.212-34.942,56.66-43.208
	c-0.365-5.26-11.178-64.999-19.937-60.866c-8.759,4.133-20.042,11.824-20.042,11.824"/>
<path fill="none" stroke="#010101" stroke-width="2" stroke-miterlimit="10" d="M360.113,298.763l46.852-36.821
	c0,0,3.632-25.779,11.623-21.155c-0.727,9.508-7.627,62.485-7.627,62.485s11.259,18.034,16.707,0
	c1.816-8.266,0.907-9.205,0.907-9.205"/>
<path fill="none" stroke="#010101" stroke-width="2" stroke-miterlimit="10" d="M410.961,303.271c0,0-27.696,28.602-38.727,35.529"
	/>
<line fill="none" stroke="#010101" stroke-width="2" stroke-miterlimit="10" x1="424.734" y1="203.612" x2="417.028" y2="255.073"/>
<line fill="none" stroke="#010101" stroke-width="2" stroke-miterlimit="10" x1="444.616" y1="207.715" x2="436.747" y2="253.16"/>
<path fill="none" stroke="#010101" stroke-width="2" stroke-miterlimit="10" d="M425.942,284.861c0,0-12.491,3.476-1.205,8.641
	c7.472,1.973,12.465-4.04,7.109-7.421c3.178-1.41,7.207-7.514,2.241-9.863c4.206-2.537,6.929-10.991,1.753-11.459
	c2.815-2.819,6.357-10.427-0.544-12.118c-5.267-0.94-18.705,2.817-6.901,10.99c-2.999,0.282-14.802,5.542-1.182,10.427
	C422.129,274.812,414.774,282.514,425.942,284.861z"/>
<path fill="none" stroke="#010101" stroke-width="2" stroke-miterlimit="10" d="M117.059,377.021l-34.434,30.325
	c0,0-25.181-2.504-24.214,8.768c1.453,2.503,7.748,4.257,14.286,2.003c0.211,0.688-27.846,14.275-17.191,21.29
	c6.054,0.751,12.106-2.506,19.37-7.515c0.727,1.503-22.67,9.268-14.498,19.129c2.724,0.94,11.078,2.163,22.336-12.305
	c-0.272,1.314-17.645,13.087-9.897,20.979c3.512,1.627,17.071-6.012,25.304-20.54c2.663,6.263,15.497,28.807,9.443-8.266
	c3.632-3.757,25.078-21.405,25.078-21.405"/>
<path fill="none" stroke="#010101" stroke-width="2" stroke-miterlimit="10" d="M178.832,506.213l-1.047,15.352
	c0,0,32.205,21.541,52.786,21.541"/>
<polyline fill="none" stroke="#010101" stroke-width="2" stroke-miterlimit="10" points="230.57,526.21 230.085,545.86 
	255.752,546.736 255.752,526.67 "/>
<path fill="none" stroke="#010101" stroke-width="2" stroke-miterlimit="10" d="M301.887,505.679l1.021,11.751
	c0,0-19.25,20.918-46.489,25.676"/>
<line fill="none" stroke="#010101" stroke-width="2" stroke-miterlimit="10" x1="198.426" y1="517.154" x2="197.506" y2="532.861"/>
<line fill="none" stroke="#010101" stroke-width="2" stroke-miterlimit="10" x1="205.301" y1="519.849" x2="204.177" y2="536.005"/>
<line fill="none" stroke="#010101" stroke-width="2" stroke-miterlimit="10" x1="279.662" y1="520.251" x2="281.508" y2="533.813"/>
<line fill="none" stroke="#010101" stroke-width="2" stroke-miterlimit="10" x1="285.133" y1="517.577" x2="288.409" y2="529.503"/>
<path fill="none" stroke="#010101" stroke-width="2" stroke-miterlimit="10" d="M302.907,517.43c0,0,19.673,98.065,20.158,122.862
	c6.053,6.261,38.98,36.82-3.15,36.318c-20.339,1.502-68.28,8.515-46.972-28.055c-0.969-20.038-5.327-68.131-31.962-93.679
	c-6.294,8.516-19.37,30.059-29.056,91.676c1.453,10.019,12.106,27.6-10.653,31.584c-11.139-0.024-97.338,9.994-41.648-37.095
	c1.453-12.023,9.201-88.667,18.16-119.478"/>
<path fill="none" stroke="#010101" stroke-width="2" stroke-miterlimit="10" d="M159.624,641.042c0,0,36.943,13.741,52.854,8.248"/>
<path fill="none" stroke="#010101" stroke-width="2" stroke-miterlimit="10" d="M272.943,648.556c0,0,36.803-1.75,50.122-8.264"/>
<polygon fill="none" stroke="#010101" stroke-width="2" stroke-miterlimit="10" points="284.321,368.02 292.798,379.542 
	302.24,379.542 297.882,388.059 302.24,399.33 291.83,399.33 286.26,408.848 280.571,400.582 268.101,400.582 275.123,390.062 
	268.101,380.544 280.571,379.291 "/>
</svg>
