<?xml version="1.0" encoding="utf-8"?>
<!-- Generator: Adobe Illustrator 16.0.0, SVG Export Plug-In . SVG Version: 6.00 Build 0)  -->
<!DOCTYPE svg PUBLIC "-//W3C//DTD SVG 1.1//EN" "http://www.w3.org/Graphics/SVG/1.1/DTD/svg11.dtd">
<svg version="1.1" id="Layer_1" xmlns="http://www.w3.org/2000/svg" xmlns:xlink="http://www.w3.org/1999/xlink" x="0px" y="0px"
	 width="552px" height="859px" viewBox="0 0 552 859" enable-background="new 0 0 552 859" xml:space="preserve">
<rect x="0" fill="#FFFFFF" stroke="#000000" stroke-miterlimit="10" width="552" height="859"/>
<path fill="none" stroke="#000000" stroke-width="2" stroke-miterlimit="10" d="M294.574,272.969
	c8.435-20.982-0.533-52.822-0.533-52.822c-7.784-20.375-52.949-23.395-63.461-22.262c-51.782-8.301-59.957-39.243-59.957-39.243
	s5.645,32.167-48.667,57.354c-11.096,5.659-31.536,17.734-20.635,46.411c1.167,6.037,17.131,49.807,39.323,64.523
	c0,0-91.103-44.147-70.08-140.366c5.84-29.432,32.704-66.787,53.729-72.447c-5.84-3.396-20.245-19.244-1.947-16.603
	c9.733,0.377,19.467-0.295,19.467-0.295s10.123-41.425,14.016,0c7.787-4.232,31.146-21.211,74.362,0.674
	c23.75,15.469,22.97,16.224,54.117,19.621c6.62-0.755,19.466,3.772,6.229,18.489c4.672,1.887,12.456,6.037,17.519,32.072
	c2.336,7.924,5.453,14.339,17.133,32.451c3.114,4.905,12.458,22.263-15.965,8.301c0.391,9.811,4.674,41.129-14.793,64.146
	c-8.953,34.337-37.376,58.109-45.551,61.127c-67.746,30.564-108.235-7.169-108.235-7.169s-47.304,32.262-55.479,49.242
	c2.92,9.056,1.751,18.678,30.367,38.488c8.176-2.831,36.792-8.49,46.72-34.526"/>
<path fill="none" stroke="#000000" stroke-width="2" stroke-miterlimit="10" d="M294.041,281.274"/>
<g>
	<path d="M225.52,263.162c0,0,1.056,1.592,2.079,4.262c0.259,0.666,0.516,1.399,0.741,2.191c0.217,0.795,0.455,1.638,0.582,2.545
		c0.139,0.901,0.267,1.853,0.218,2.852c-0.036,0.992-0.16,2.042-0.608,3.075c-0.441,1.021-1.296,1.979-2.342,2.46
		c-0.512,0.285-1.056,0.367-1.58,0.472c-0.514,0.017-1.037,0.091-1.509,0.017c-0.483-0.042-0.955-0.078-1.386-0.206
		c-0.439-0.104-0.869-0.198-1.26-0.349c-0.396-0.142-0.789-0.255-1.148-0.409c-0.354-0.163-0.696-0.32-1.024-0.471
		c-0.665-0.279-1.214-0.646-1.723-0.922c-0.511-0.272-0.92-0.574-1.266-0.803c-0.686-0.47-1.064-0.752-1.064-0.752
		s0.459,0.135,1.24,0.396c0.39,0.13,0.857,0.301,1.402,0.462c0.548,0.152,1.145,0.382,1.814,0.546
		c0.665,0.184,1.383,0.366,2.139,0.508c0.377,0.095,0.765,0.126,1.157,0.169c0.396,0.058,0.785,0.073,1.18,0.072
		c0.403,0.037,0.769-0.066,1.155-0.096c0.347-0.116,0.722-0.18,1.014-0.362c0.62-0.313,1.075-0.839,1.371-1.534
		c0.325-0.681,0.463-1.522,0.511-2.363c0.05-0.842,0.045-1.707-0.035-2.545c-0.14-1.681-0.417-3.271-0.677-4.635
		c-0.271-1.363-0.519-2.508-0.698-3.311C225.623,263.623,225.52,263.162,225.52,263.162z"/>
</g>
<g>
	<path d="M245.764,247.691c0,0,0.488-0.468,1.458-1.146c0.967-0.68,2.422-1.567,4.308-2.368c0.946-0.387,1.986-0.796,3.13-1.087
		c1.138-0.31,2.362-0.584,3.651-0.712c1.286-0.156,2.634-0.206,3.998-0.132c1.362,0.094,2.746,0.266,4.099,0.587
		c0.683,0.134,1.335,0.381,2.001,0.567c0.653,0.223,1.294,0.475,1.93,0.721c1.256,0.531,2.429,1.181,3.533,1.847
		c0.537,0.357,1.076,0.69,1.58,1.049c0.487,0.379,0.964,0.75,1.428,1.112c0.892,0.761,1.737,1.48,2.427,2.231
		c0.353,0.367,0.689,0.718,1.011,1.052c0.309,0.345,0.581,0.691,0.847,1.005c0.533,0.627,0.977,1.189,1.309,1.678
		c0.684,0.962,1.055,1.52,1.055,1.52s-0.504-0.452-1.352-1.255c-0.411-0.414-0.954-0.873-1.561-1.408
		c-0.595-0.548-1.306-1.118-2.076-1.737c-0.377-0.32-0.786-0.63-1.225-0.931c-0.436-0.303-0.858-0.654-1.33-0.959
		c-0.471-0.305-0.954-0.618-1.448-0.937c-0.507-0.293-1.025-0.593-1.552-0.898c-0.531-0.294-1.093-0.549-1.648-0.832
		c-0.57-0.247-1.148-0.497-1.73-0.75c-0.594-0.216-1.192-0.44-1.8-0.636c-0.619-0.159-1.225-0.378-1.856-0.493
		c-1.242-0.318-2.515-0.498-3.772-0.608c-1.258-0.074-2.506-0.139-3.713-0.042c-1.207,0.072-2.375,0.211-3.474,0.412
		c-1.101,0.194-2.129,0.458-3.079,0.714c-1.888,0.551-3.434,1.158-4.495,1.635C246.351,247.36,245.764,247.691,245.764,247.691z"/>
</g>
<g>
	<path d="M156.218,228.824c0,0,0.576-0.435,1.673-1.064c1.099-0.62,2.715-1.455,4.776-2.174c1.025-0.376,2.165-0.709,3.389-0.996
		c1.227-0.271,2.538-0.521,3.916-0.627c1.375-0.104,2.812-0.177,4.267-0.042c1.457,0.091,2.924,0.361,4.373,0.7
		c1.43,0.412,2.85,0.883,4.163,1.534c0.675,0.289,1.303,0.653,1.917,1.023c0.631,0.342,1.192,0.775,1.767,1.163
		c1.129,0.805,2.142,1.686,3.027,2.584c0.461,0.431,0.879,0.878,1.257,1.334c0.375,0.458,0.775,0.866,1.088,1.316
		c0.652,0.878,1.253,1.674,1.693,2.443c0.466,0.75,0.87,1.401,1.141,1.974c0.572,1.127,0.878,1.774,0.878,1.774
		s-0.44-0.566-1.211-1.558c-0.36-0.51-0.875-1.071-1.424-1.738c-0.534-0.679-1.231-1.364-1.942-2.142
		c-0.348-0.397-0.778-0.745-1.184-1.139c-0.407-0.395-0.831-0.795-1.304-1.165c-0.907-0.783-1.932-1.518-3.011-2.23
		c-1.086-0.704-2.264-1.338-3.498-1.886c-1.22-0.584-2.537-0.99-3.857-1.353c-1.33-0.333-2.681-0.607-4.034-0.712
		c-1.349-0.135-2.691-0.175-3.992-0.128c-2.603,0.097-5.033,0.49-7.093,0.967c-2.062,0.474-3.754,1.025-4.933,1.437
		C156.878,228.535,156.218,228.824,156.218,228.824z"/>
</g>
<path fill="none" stroke="#000000" stroke-width="2" stroke-miterlimit="10" d="M162.448,206.563c0,0,15.184-18.867,29.979-4.528
	c3.504,3.019,3.115,11.319-6.619,7.169C181.914,205.808,166.731,202.789,162.448,206.563z"/>
<path fill="none" stroke="#000000" stroke-width="2" stroke-miterlimit="10" d="M286.644,230.712c0,0-7.299-18.678-24.528-13.867
	c-4.671,1.415-10.998,9.905,2.532,10.188C270.292,224.203,282.555,227.599,286.644,230.712z"/>
<path fill="none" stroke="#000000" stroke-width="2" stroke-miterlimit="10" d="M243.039,297.876c0,0-50.613,4.905-67.16-19.621
	c-2.531,6.792-2.141,25.659,9.149,40.751c7.008,6.415,23.36,17.357,46.331-3.396C236.421,309.574,243.039,297.876,243.039,297.876z"
	/>
<path fill="none" stroke="#000000" stroke-width="2" stroke-miterlimit="10" d="M86.412,380.679c0,0-41.543,52.092-39.207,85.486
	c-5.256,4.527-9.344,14.999-8.176,26.035c0.292,6.509,0.292,26.318,5.256,15.564c1.167,3.396,3.503,13.584,7.299,6.793
	c2.336,1.98,7.592,10.187,9.052-1.415c1.46,2.547,10.512,17.546,8.468-17.263c0,0,13.432,6.226,12.848-3.962
	c-2.044-5.661-7.884-10.472-7.884-10.472s-3.504-5.093,2.043-11.32c3.212-6.225,17.587-44.047,36.679-57.398"/>
<path fill="none" stroke="#000000" stroke-width="2" stroke-miterlimit="10" d="M133.163,408.558c0,0-5.658,4.687,9.817,27.326
	c3.211,7.075,6.424,26.036,3.211,45.563c-0.583,5.094-2.043,14.999,20.441,11.887c11.68-0.283,47.011,0.849,79.715-18.679
	c7.885-3.679,22.192-12.452,28.908-17.545c6.717-5.095,4.672-8.773-2.044-14.717c-8.468-7.357-45.552-61.41-45.552-75.56"/>
<path fill="none" stroke="#000000" stroke-width="2" stroke-miterlimit="10" d="M243.039,336.594c0,0,19.661,5.901,15.866,12.127
	c-3.797,6.226-17.813,26.602-14.017,45.562c-2.628-1.415-7.002-2.679-7.002-2.679"/>
<path fill="none" stroke="#000000" stroke-width="2" stroke-miterlimit="10" d="M286.761,408.727c0,0-15.801,12.725-7.374-10.198"/>
<path fill="none" stroke="#000000" stroke-width="2" stroke-miterlimit="10" d="M276.912,409c0,0-20.344,8.773-4.868-14.716
	l7.341,4.246c0,0,5.798,3.396,8.226,5.093c-5.166,23.206,12.757,0,17.43-4.527c17.228-15.848,10.511-24.055,7.006-27.734
	c-16.934-17.545-53.142-22.639-53.142-22.639"/>
<path fill="none" stroke="#000000" stroke-width="2" stroke-miterlimit="10" d="M266.308,406.259c0,0-17.916,4.438-2.439-21.597"/>
<path fill="none" stroke="#000000" stroke-width="2" stroke-miterlimit="10" d="M281.837,369.946c0,0-6.581,1.132-8.041,5.094
	c-3.212-1.132-13.432-5.66-17.52,0c-0.876,3.113-0.292,9.339,11.389,9.622"/>
<path fill="none" stroke="#000000" stroke-width="2" stroke-miterlimit="10" d="M244.888,394.283
	c1.459,0.283,1.128,3.773,12.681,1.321c0,0,1.108-0.324,1.257-0.732"/>
<path fill="none" stroke="#000000" stroke-width="2" stroke-miterlimit="10" d="M158.944,493.926c0,0-1.168,23.933,21.023,33.366
	c9.733,2.265,21.024,11.696,27.644,16.98"/>
<path fill="none" stroke="#000000" stroke-width="2" stroke-miterlimit="10" d="M170.303,521.185c0,0-1.488,9.504,0,16.672
	c1.488,8.679-0.848,16.225-7.467,26.413c5.061,1.887,42.827,10.942,72.805,2.264c17.52-4.527,27.643-10.566,34.651-17.734
	c5.452-4.904,14.016-10.943,19.467-12.452c1.948-2.641,10.123-4.292-2.724-15.165c-3.896-5.211-18.376-34.46-23.399-56.247"/>
<path fill="none" stroke="#000000" stroke-width="2" stroke-miterlimit="10" d="M252.021,561.014c0,0-0.124-14.194-19.98-30.325
	c-4.964-4.245-17.52-16.131-21.899-40.187V489"/>
<path fill="none" stroke="#000000" stroke-width="2" stroke-miterlimit="10" d="M243.223,564.336c0,0,2.541-9.311-21.987-30.252
	c-6.132-5.094-14.852-17.756-19.398-43.403"/>
<path fill="none" stroke="#000000" stroke-width="2" stroke-miterlimit="10" d="M188.56,569.22c0,0,2.601,16.086-31.271,48.631
	c-7.3,10.754-12.556,18.678-19.563,32.545l-0.466,1.147"/>
<path fill="none" stroke="#000000" stroke-width="2" stroke-miterlimit="10" d="M158.933,616.255c0,0,0.817,3.777,25.845,18.482"/>
<path fill="none" stroke="#000000" stroke-width="2" stroke-miterlimit="10" d="M243.298,571l0,1.288
	c0,0,1.299,14.433-25.857,41.884c-11.096,12.169-18.396,21.225-18.396,21.225l-1.269,1.965"/>
<path fill="none" stroke="#000000" stroke-width="2" stroke-miterlimit="10" d="M154.887,663.286
	c-4.391-5.776-10.446-9.212-10.446-9.212c-23.068-12.734-3.212,26.602-3.212,26.602s74.047,9.056,79.947-1.98
	c0.937-4.245-6.071-11.32-8.115-12.452"/>
<path fill="none" stroke="#000000" stroke-width="2" stroke-miterlimit="10" d="M155.245,664.545"/>
<path fill="none" stroke="#000000" stroke-width="2" stroke-miterlimit="10" d="M151.156,680.676
	c0.292,0.283-8.176-25.187,25.988-22.355c-3.503-6.793-12.699-24.339,11.461-24.056c6.059,0.565,21.244,6.792,10.439,16.131
	l-0.676,1.142"/>
<path fill="none" stroke="#000000" stroke-width="2" stroke-miterlimit="10" d="M141.228,680.676c0,0-4.671,15.282,26.572,13.584
	c9.344-0.282,50.686,10.754,53.375-15.564"/>
<path fill="none" stroke="#000000" stroke-width="2" stroke-miterlimit="10" d="M182.401,664.263
	c0-0.426,6.716-11.727,15.185-12.726c3.357-0.434,7.883,3.253,3.649,6.362c-3.942,0.421-12.992,6.08-12.629,8.485
	C187.948,668.224,182.401,669.639,182.401,664.263z"/>
<path fill="none" stroke="#000000" stroke-width="2" stroke-miterlimit="10" d="M194.664,670.913c0,0,3.796-9.413,13.724-11.145
	c3.65-0.883,8.03,2.937,3.941,6.334c-4.379-0.143-10.657,4.386-11.825,7.923C199.337,676.572,192.329,676.148,194.664,670.913z"/>
<path fill="none" stroke="#000000" stroke-width="2" stroke-miterlimit="10" d="M201.753,657.47c0,0,1.285,4.101,2.329,3.652"/>
<path fill="none" stroke="#000000" stroke-width="2" stroke-miterlimit="10" d="M239.679,565.425c0,0,47.16,77.897,57.088,83.557"/>
<path fill="none" stroke="#000000" stroke-width="2" stroke-miterlimit="10" d="M287.855,537.01c0,0,22.537,62.112,40.838,72.799"/>
<path fill="none" stroke="#000000" stroke-width="2" stroke-miterlimit="10" d="M320.259,601.903c0,0-14.135,24.763-37.11,30.92"/>
<path fill="none" stroke="#000000" stroke-width="2" stroke-miterlimit="10" d="M325.189,666.526l-11.68,6.416
	c-5.453-3.019-7.009-4.528-11.804-11.785c-18.81-23.105,18.556-12.176,18.556-12.176l1.087,0.271"/>
<path fill="none" stroke="#000000" stroke-width="2" stroke-miterlimit="10" d="M314.482,672.942c0,0,3.698,18.866,41.074-8.114
	c6.425-3.585,44.19-19.056,33.094-33.771l-1.073-1.337"/>
<path fill="none" stroke="#000000" stroke-width="2" stroke-miterlimit="10" d="M372.491,621.247
	c8.953-2.264,12.849,3.774,15.184,8.679c-7.98,13.961-37.572,26.413-44.772,29.745c-18.298,14.085-18.688,5.158-20.247,0
	c-6.813-17.987,11.68-26.847,11.68-26.847h0.975c0,0-21.219-24.786,4.672-26.672c5.646,0.378,9.149,6.227,10.121,8.49l0.204,1.135"
	/>
<path fill="none" stroke="#000000" stroke-width="2" stroke-miterlimit="10" d="M350.103,616.011c0,0-3.452,6.65-4.621,11.462
	c-0.438,4.669,2.661,8.207,7.098,2.688c0.057-3.254,4.146-9.48,5.896-11.603C359.79,616.719,355.749,609.361,350.103,616.011z"/>
<path fill="none" stroke="#000000" stroke-width="2" stroke-miterlimit="10" d="M364.462,619.489c0,0-5.777,8.924-5.736,13.335
	c0.042,2.854,1.21,7.241,5.736,3.279c0.875-3.114,6.278-14.15,7.737-13.727C372.491,621.246,368.696,614.337,364.462,619.489z"/>
<path fill="none" stroke="#000000" stroke-width="2" stroke-miterlimit="10" d="M358.476,618.559c0,0,2.774,0.009,4.526,2.197"/>
<path fill="none" stroke="#000000" stroke-width="2" stroke-miterlimit="10" d="M457.692,490.05
	c4.914-2.473,12.05,1.406,15.938,8.666c3.89,7.259,3.058,15.148-1.855,17.621c-4.917,2.474-12.051-1.406-15.94-8.666
	C451.947,500.411,452.776,492.523,457.692,490.05z"/>
<ellipse fill="none" stroke="#000000" stroke-width="2" stroke-miterlimit="10" cx="439.475" cy="541.678" rx="72.125" ry="70.728"/>
<path fill="none" stroke="#000000" stroke-width="2" stroke-miterlimit="10" d="M453.377,503.221c0,0-54.046,11.444-82.359,60.773"
	/>
<path fill="none" stroke="#000000" stroke-width="2" stroke-miterlimit="10" d="M461.402,514.368c0,0,2.048,55.821-35.549,96.772"/>
<path fill="none" stroke="#000000" stroke-width="2" stroke-miterlimit="10" d="M476.073,512.293c0,0,27.39,24.957,24.245,67.38"/>
<path fill="none" stroke="#000000" stroke-width="2" stroke-miterlimit="10" d="M474.149,499.809
	c1.71-0.25,9.854-3.053,21.257-2.784"/>
<path fill="none" stroke="#000000" stroke-width="2" stroke-miterlimit="10" d="M465.959,475.872c0,0,1.488,3.513,0,13.458
	l-0.438,1.133"/>
<path fill="none" stroke="#000000" stroke-width="2" stroke-miterlimit="10" d="M453.377,494.748c0,0-11.261-18.245-56.146-10.396"
	/>
<ellipse fill="none" stroke="#000000" stroke-width="2" stroke-miterlimit="10" cx="177.759" cy="236.745" rx="10.862" ry="10.733"/>
<ellipse fill="none" stroke="#000000" stroke-width="2" stroke-miterlimit="10" cx="260.436" cy="253.63" rx="10.5" ry="10.439"/>
<ellipse fill="none" stroke="#000000" stroke-width="2" stroke-miterlimit="10" cx="178.19" cy="231.561" rx="2.313" ry="2.264"/>
<ellipse fill="none" stroke="#000000" stroke-width="2" stroke-miterlimit="10" cx="260.219" cy="250.554" rx="2.335" ry="3.075"/>
</svg>
