<?xml version="1.0" encoding="utf-8"?>
<!-- Generator: Adobe Illustrator 16.0.0, SVG Export Plug-In . SVG Version: 6.00 Build 0)  -->
<!DOCTYPE svg PUBLIC "-//W3C//DTD SVG 1.1//EN" "http://www.w3.org/Graphics/SVG/1.1/DTD/svg11.dtd">
<svg version="1.1" id="Layer_1" xmlns="http://www.w3.org/2000/svg" xmlns:xlink="http://www.w3.org/1999/xlink" x="0px" y="0px"
	 width="552px" height="859px" viewBox="0 0 552 859" enable-background="new 0 0 552 859" xml:space="preserve">
<rect fill="#FFFFFF" stroke="#000000" stroke-miterlimit="10" width="552" height="859"/>
<path fill="none" stroke="#030303" stroke-width="3" stroke-miterlimit="10" d="M206.938,102.008
	c-7.022-14.666-5.319-30.491,3.804-35.348c9.124-4.856,22.212,3.095,29.233,17.761c7.022,14.666,5.319,30.491-3.803,35.348
	C227.048,124.625,213.96,116.674,206.938,102.008z"/>
<path fill="none" stroke="#030303" stroke-width="3" stroke-miterlimit="10" d="M201.792,106.053
	c-8.222-15.297-6.579-32.661,3.669-38.784c10.247-6.123,25.22,1.314,33.44,16.611c8.221,15.297,6.578,32.661-3.669,38.784
	C224.984,128.787,210.013,121.35,201.792,106.053z"/>
<path fill="none" stroke="#030303" stroke-width="3" stroke-miterlimit="10" d="M210.739,66.676c0,0-53.344-33.378-96.97,24.122
	c-5.69,8-25.607,44.5,8.062,93c7.113,7.5,22.287,16.5,37.936,16.5c3.794,3.5,4.109,5,4.109,5s32.878-9.667,63.701-41.5"/>
<path fill="none" stroke="#030303" stroke-width="2" stroke-miterlimit="10" d="M160.931,201.419c0,0,45.465-20.954,63.958-44.288"
	/>
<path fill="none" stroke="#030303" stroke-width="2" stroke-miterlimit="10" d="M148.648,198.874c0,0,7.008-11.576,31.982-29.576
	c0,0,21.813-9,24.184-28.75c0.474-4.25-8.299-41.639-35.802-47.319c-4.504-0.181-20.864-2.681-47.657,22.319
	c-3.319,3.25-18.422,19.084-18.355,19.806"/>
<path fill="none" stroke="#030303" stroke-width="2" stroke-miterlimit="10" d="M104.203,144.016l24.978-27.218
	c0,0,25.606-25,44.1-14.5c5.216,3,26.415,14.936,23.165,41.718c-1.352,5.282-9.414,14.782-26.722,24.782
	c-6.875,4.75-23.388,19.881-27.462,28.065"/>
<path fill="none" stroke="#030303" stroke-width="3" stroke-miterlimit="10" d="M247.434,177.477c0,0-30.29-6.679-21.517-36.679
	c1.66-7.75,5.927-21,38.172-37.75c7.35-3.75,42.361-23.25,65.439,0c13.278,12.917,64.018,81.75,96.262,153.25
	c3.795,8.5,13.278,35.5-16.122,39c-7.113-1.5-24.658-12-57.378-82"/>
<path fill="none" stroke="#030303" stroke-width="2" stroke-miterlimit="10" d="M430.252,276.634c0,0-15.685,26.498-30.226,8.498
	c-10.906-13.167-42.046-66.834-45.365-76.334"/>
<path fill="none" stroke="#030303" stroke-width="3" stroke-miterlimit="10" d="M308.06,92.268c0,0-21.187,6.508-11.859,27.342"/>
<path fill="none" stroke="#030303" stroke-width="3" stroke-miterlimit="10" d="M296.802,92.07c0,0-13.271,9.395-6.789,25.728"/>
<path fill="none" stroke="#030303" stroke-width="2" stroke-miterlimit="10" d="M237.925,118.634c0,0,43.553-12.925,84.334,12.536
	c8.218,5.461,45.68,26.128,32.402,74.128c-4.742,19.5-22.287,72.701-37.937,86.101c0,0-5.689,13.617-12.802,17.258
	c-2.847,8.891-8.063,21.891-16.36,28.891c-4.979,3.5-7.113,5.25-7.351,10.5c-1.423,5.25-8.772,22-13.277,14.5
	c-1.422-5.25,0.711-26.25,0.711-26.25"/>
<path fill="none" stroke="#030303" stroke-width="2" stroke-miterlimit="10" d="M307.048,306.391c0,0,48.213-32.482,90.892,14.018"
	/>
<path fill="none" stroke="#030303" stroke-width="2" stroke-miterlimit="10" d="M297.469,324.421c0,0,53.833-40.247,101.252,11.253"
	/>
<path fill="none" stroke="#030303" stroke-width="2" stroke-miterlimit="10" d="M332.219,267.956c0,0,25.793-12.96,35.499-23.809"/>
<path fill="none" stroke="#030303" stroke-width="3" stroke-miterlimit="10" d="M319.932,288.139c0,0,23.518-7.335,54.493-32.088
	c0,0,50.892,65.247,5.369,152.747c0.948,6.5,0.474,13,0.474,13s6.639,5,8.062,15.5c3.319,1,9.008,4,12.171,12.5
	c4.585,1.833,11.855,5.834,10.274,11.167c3.319,0.5,13.595,6,11.855,14c3.319,0.666,11.697,4.332,10.432,13.166
	c2.688,1.5,8.377,0.834,8.22,9.167c3.477,1.667,6.006,1.167,5.216,5c1.896,1.667,15.095,11.75,16.518,22.25
	c4.506,3,9.011,2.25,4.269,18.75c-2.134,8.25-21.102,69.333-82.748,85.667c-4.741-3.333-10.432-12-10.432-12s3.476-46,9.483-55
	c-3.161-5.666-3.161-5.666-3.161-5.666s-9.168-3.334-7.588-11.334c-2.845,0-12.33-3.334-11.063-12
	c-6.008-2.333-13.277-4.999-12.014-16.666c-5.059-1.667-11.065-1-13.91-13.667c-4.741-1.333-13.91-3.001-12.646-11.667
	c-5.374-3-39.199-25.667-36.354-61.167c-0.948-17,0-80.5,4.268-95.5"/>
<path fill="none" stroke="#030303" stroke-width="2" stroke-miterlimit="10" d="M266.505,359.026c0,0-4.786,12.021-10.951,7.521
	c-2.134-6-3.083-23.5,0-37.25"/>
<path fill="none" stroke="#030303" stroke-width="2" stroke-miterlimit="10" d="M254.526,362.222c0,0-10.353,15.879-14.146,2.229
	c-1.66-12.65,1.186-40.042,3.083-42.971"/>
<path fill="none" stroke="#030303" stroke-width="2" stroke-miterlimit="10" d="M240.062,361.054c0,0-17.465-14.006-7.507-43.756
	c3.794-8.25,22.525-25,25.607-28.25"/>
<path fill="none" stroke="#030303" stroke-width="2" stroke-miterlimit="10" d="M236.544,311.301c0,0-20.586,0.497-9.917-12.753
	c4.031-2.75,9.484-2.049,15.174-7.149c5.453-3.601,27.978-19.101,40.543-12.101c7.351,4.25,18.632,12.012,20.696,32.006"/>
<path fill="none" stroke="#030303" stroke-width="2" stroke-miterlimit="10" d="M258.162,281.933c0,0,1.422-25.82,36.987-13.978
	c10.907,4.342,16.34,7.555,20.171,26.448"/>
<path fill="none" stroke="#030303" stroke-width="2" stroke-miterlimit="10" d="M266.505,267.921c0,0,9.597-73.667,45.004-88.645"/>
<path fill="none" stroke="#030303" stroke-width="2" stroke-miterlimit="10" d="M287.632,202.505c0,0-5.523-15.457,19.136-31.957"/>
<path fill="none" stroke="#030303" stroke-width="2" stroke-miterlimit="10" d="M288.229,191.825c0,0-49.441-1.027-50.304-36.027
	c0.084-8,2.618-29.447,19.963-40.224"/>
<path fill="none" stroke="#030303" stroke-width="2" stroke-miterlimit="10" d="M375.102,618.422c0,0,59.856-11.624,87.913-93.874"
	/>
<path fill="none" stroke="#030303" stroke-width="2" stroke-miterlimit="10" d="M383.587,561.965c0,0,40.938-3.167,62.909-59.667"/>
<path fill="none" stroke="#030303" stroke-width="2" stroke-miterlimit="10" d="M380.426,556.299c0,0,40.92-7.054,60.688-61.527"/>
<path fill="none" stroke="#030303" stroke-width="2" stroke-miterlimit="10" d="M372.838,544.965c0,0,40.94-14.501,60.223-56.834"/>
<path fill="none" stroke="#030303" stroke-width="2" stroke-miterlimit="10" d="M361.774,532.965c0,0,44.417-21.333,60.854-58"/>
<path fill="none" stroke="#030303" stroke-width="2" stroke-miterlimit="10" d="M349.761,516.299c0,0,35.565-8.667,61.014-55.334"/>
<path fill="none" stroke="#030303" stroke-width="2" stroke-miterlimit="10" d="M335.851,502.632c0,0,51.146-16.807,63.193-56.07"/>
<path fill="none" stroke="#030303" stroke-width="2" stroke-miterlimit="10" d="M367.447,480.298c0,0,28.669-22.08,28.805-37.79"/>
<path fill="none" stroke="#030303" stroke-width="2" stroke-miterlimit="10" d="M323.205,490.965c0,0,38.095,4.333,65.124-53.667"/>
<path fill="none" stroke="#030303" stroke-width="2" stroke-miterlimit="10" d="M355.766,399.798c0,0,19.406-0.802,24.502,13.781"/>
<path fill="none" stroke="#030303" stroke-width="2" stroke-miterlimit="10" d="M349.761,413.579c0,0,21.524-0.525,37.285,18.354"/>
<path fill="none" stroke="#030303" stroke-width="3" stroke-miterlimit="10" d="M381.851,626.657c0,0-26.084,29.641-58.646,25.975
	c-4.74-3-9.482-9.667-9.482-14.667c3.161,0.667,46.649-4.681,60.628-24.007"/>
<path fill="none" stroke="#030303" stroke-width="3" stroke-miterlimit="10" d="M313.723,637.965c0,0-4.584-15.667,3.951-26.667
	c5.217-10.5,7.587-19.5,8.535-26c-2.37-1.5-12.733-1.625-13.717-13.813c-3.591-0.938-13.075-2.604-13.075-9.521
	c-6.164-2.417-13.002-6.417-12.902-11.167c-2.509,0.25-11.756-3-12.704-11c-6.639-2-13.041-5.75-12.092-15.25
	c-4.268-4-38.885-30.51-38.885-60.38c-0.474-13.87,5.607-90.491,11.872-109.701"/>
<path fill="none" stroke="#030303" stroke-width="2" stroke-miterlimit="10" d="M261.719,524.548c0,0,37.881,2.916,57.113-36.417"/>
<path fill="none" stroke="#030303" stroke-width="2" stroke-miterlimit="10" d="M273.811,539.798c0,0,31.751-4.553,55.352-39.276"/>
<path fill="none" stroke="#030303" stroke-width="2" stroke-miterlimit="10" d="M290.274,525.535c0,0,26.023-11.79,33.112-30.766"/>
<path fill="none" stroke="#030303" stroke-width="2" stroke-miterlimit="10" d="M286.515,550.798c0,0,41.785-14.586,52.174-40.646"
	/>
<path fill="none" stroke="#030303" stroke-width="2" stroke-miterlimit="10" d="M299.417,561.965c0,0,46.671-29.944,50.246-41.806"
	/>
<path fill="none" stroke="#030303" stroke-width="2" stroke-miterlimit="10" d="M312.492,571.486c0,0,33.959-9.188,50.867-31.688"/>
<path fill="none" stroke="#030303" stroke-width="2" stroke-miterlimit="10" d="M318.832,582.402c0,0,43.517-10.604,56.27-31.604"/>
<path fill="none" stroke="#030303" stroke-width="2" stroke-miterlimit="10" d="M378.03,555.211
	c-16.498,22.044-51.534,30.741-51.534,30.741s-0.13-0.618,1.569,0.052s11.728-0.165,19.12-2.992
	c9.563-3.657,32.462-21.557,34.011-25.297"/>
<path fill="none" stroke="#030303" stroke-width="2" stroke-miterlimit="10" d="M377.909,578.048c0,0-4.405-7.406-2.808-14.459"/>
<path fill="none" stroke="#030303" stroke-width="2" stroke-miterlimit="10" d="M376.331,585.354
	c-0.331-0.556-6.453-12.768-4.904-18.755"/>
<path fill="none" stroke="#030303" stroke-width="2" stroke-miterlimit="10" d="M377.633,585.354c0,0,26.288-21.884,51.211-1.095"/>
<path fill="none" stroke="#030303" stroke-width="2" stroke-miterlimit="10" d="M378.85,578.048c0,0,32.479-22.447,53.462,2.276"/>
<path fill="none" stroke="#030303" stroke-width="2" stroke-miterlimit="10" d="M431.313,530.476c0,0-4.627,23.271,12.35,34.547"/>
<path fill="none" stroke="#030303" stroke-width="2" stroke-miterlimit="10" d="M426.715,536.252c0,0-1.762,27.587,13,34.564"/>
<path fill="none" stroke="#030303" stroke-width="2" stroke-miterlimit="10" d="M321.707,602.096c0,0,32.124-10.386,47.002,17.783"
	/>
<path fill="none" stroke="#030303" stroke-width="2" stroke-miterlimit="10" d="M319.466,607.506c0,0,26.985-8.142,43.894,16.2"/>
<path fill="none" stroke="#030303" stroke-width="2" stroke-miterlimit="10" d="M163.875,205.298c0,0,0.157,47.5,15.331,68.75"/>
<path fill="none" stroke="#030303" stroke-width="2" stroke-miterlimit="10" d="M179.229,269.212c0,0-2.391,32.255,20.845,38.67"/>
<path fill="none" stroke="#030303" stroke-width="2" stroke-miterlimit="10" d="M196.784,280.818c0,0-3.36,41.51,33.395,61.62"/>
<path fill="none" stroke="#030303" stroke-width="2" stroke-miterlimit="10" d="M230.575,344.298c0,0-69.861,61.668-28.605,144.334
	c8.536,17.166,61.892,73.815,64.535,135.074c0.114,29.926-3.364,37.926-4.786,47.259"/>
<path fill="none" stroke="#030303" stroke-width="2" stroke-miterlimit="10" d="M223.56,338.282c0,0-47.354,35.349-41.664,113.349
	c6.955,26.667,17.217,53.336,56.029,104.668c5.3,11.999,25.058,58.666,20.237,103.999c0,0-2.227,12.68,3.747,9.507"/>
<path fill="none" stroke="#030303" stroke-width="2" stroke-miterlimit="10" d="M146.804,198.384c0,0-0.028,32.611,20.692,45.763"/>
<path fill="none" stroke="#030303" stroke-width="2" stroke-miterlimit="10" d="M153.917,228.512c0,0-8.908,59.148-6.378,70.089"/>
<path fill="none" stroke="#030303" stroke-width="2" stroke-miterlimit="10" d="M165.931,287.903c0,0-27.668,9.696-28.143,28.696"/>
<path fill="none" stroke="#030303" stroke-width="2" stroke-miterlimit="10" d="M167.497,304.298c0,0-54.083,12.094-60.722,54.879"
	/>
<path fill="none" stroke="#030303" stroke-width="2" stroke-miterlimit="10" d="M81.96,398.087c0,0-21.618,36.378-13.24,44.378
	c3.478-0.166,5.216,2.834,22.92-28.333"/>
<path fill="none" stroke="#030303" stroke-width="2" stroke-miterlimit="10" d="M70.476,442.467c0,0-6.497,18.666,3.619,13.832
	c9.326-5.167,21.182-19.834,27.662-32.667"/>
<path fill="none" stroke="#030303" stroke-width="2" stroke-miterlimit="10" d="M75.089,455.716c0,0,6.75,5.683,13.705,1.383
	s18.968-22.134,23.235-28.467"/>
<path fill="none" stroke="#030303" stroke-width="2" stroke-miterlimit="10" d="M90.35,455.98c0,0,6.076,6.151,17.75-4.349
	c10.411-9.5,13.098-14.392,16.575-19.696c3.478-4.638,20.838-20.069,22.129-38.972c2.174-2.041,5.216-5.166,5.216-5.166
	s1.106-32.834-45.839-28.167c-2.055,2.834-4.268,11.834-4.268,11.834s-8.536-0.5-15.807,7c-5.849,3.5-11.697,6.499-16.281,5.166
	c-4.426,1.5-10.117,8.501,0,13.501c5.058,2,13.277,1.167,17.071,0c3.793-1.167,4.268-3.167,4.268-3.167s12.487,12.666,25.448,5.5"/>
<path fill="none" stroke="#030303" stroke-width="2" stroke-miterlimit="10" d="M152.021,387.798c0,0,47.591-30.141,55.646-66.32"/>
<path fill="none" stroke="#030303" stroke-width="2" stroke-miterlimit="10" d="M101.914,371.465c0,0,41.414-1.835,44.89,21.499"/>
<path fill="none" stroke="#030303" stroke-width="2" stroke-miterlimit="10" d="M196.784,189.079c0,0,12.983,58.095,50.419,98.824"
	/>
<path fill="none" stroke="#030303" stroke-width="2" stroke-miterlimit="10" d="M192.91,191.509c0,0,19.018,75.657,48.893,99.89"/>
<path fill="none" stroke="#030303" stroke-width="2" stroke-miterlimit="10" d="M195.989,202.505c0,0-15.336,29.063-13.754,43.73"/>
<path fill="none" stroke="#030303" stroke-width="2" stroke-miterlimit="10" d="M202.892,223.598c0,0-5.923,15.033-6.188,30.367"/>
<path fill="none" stroke="#030303" stroke-width="2" stroke-miterlimit="10" d="M200.191,201.419c0,0,24.484-5.483,35.548-1.938"/>
<path fill="none" stroke="#030303" stroke-width="2" stroke-miterlimit="10" d="M207.667,222.501c0,0,20.256-3.221,26.264-0.758"/>
<path fill="none" stroke="#030303" stroke-width="2" stroke-miterlimit="10" d="M235.953,196.863l-2.212,27.206l22.446,12.229
	l6.456-29.045l0.435-1.955C263.077,205.298,248.322,193.849,235.953,196.863z"/>
<path fill="none" stroke="#030303" stroke-width="2" stroke-miterlimit="10" d="M262.643,207.253c0,0,13.988,5.767,17.359,10.573"/>
<path fill="none" stroke="#030303" stroke-width="2" stroke-miterlimit="10" d="M257.305,231.262c0,0,13.009,4.077,15.259,8.26"/>
<path fill="none" stroke="#030303" stroke-width="2" stroke-miterlimit="10" d="M178.497,244.147l21.301,11.904v26.247
	c0,0-19.377-9.088-21.327-14.377C179.367,261.631,178.497,244.147,178.497,244.147z"/>
<path fill="none" stroke="#030303" stroke-width="2" stroke-miterlimit="10" d="M419.752,292.606c0,0-17.628,16.775-23.019,19.021"
	/>
<path fill="none" stroke="#030303" stroke-width="2" stroke-miterlimit="10" d="M427.205,286.403c0,0,10.358,18.228-28.485,46.562"
	/>
<ellipse fill="none" stroke="#030303" stroke-width="2" stroke-miterlimit="10" cx="127.572" cy="613.501" rx="80.094" ry="81.37"/>
<path fill="none" stroke="#030303" stroke-width="2" stroke-miterlimit="10" d="M87.53,576.798
	c-13.899-5.655-15.898,12.718-14.542,22.68c1.356,9.969,12.717,10.249,11.317,21.853c-7.481,0.307-1.587,10.287-3.826,14.65
	c-3.198,6.235-8.792,4.391-10.021,12.969c-1.298,9.067,3.058,12.578,8.885,17.723c3.125,2.759,11.525,13.306,10.235,3.313
	c-0.98-7.581-7.565-8.01,1.73-13.572c6.063-3.629,9.169-6.115,11.328-13.597c2.963-10.269-0.581-11.132-6.3-18.695
	c-5.641-7.461-2.305-8.787,3.872-13.484c10.97-8.343,14.309-14.382,8.043-27.651c-3.119-6.604-15.849-13.194-21.986-6.852"/>
<path fill="none" stroke="#030303" stroke-width="2" stroke-miterlimit="10" d="M136.846,574.131
	c-9.238-1.076-7.383,18.874-6.303,24.617c1.564,8.311,4.317,11.273,10.712,15.218c5.532,3.412,6.81,5.295,10.239,10.778
	c5.316-1.384,6.491-9.549,6.263-14.632c-0.152-3.389-2.388-4.944-0.104-8.484c2.702-4.189,6.322-2.712,7.645-7.982
	c2.711-10.804-19.118-21.594-27.819-20.181L136.846,574.131z"/>
<path fill="none" stroke="#030303" stroke-width="2" stroke-miterlimit="10" d="M178.734,574.798
	c-2.868-0.032-7.722,0.784-9.411,3.602c-2.083,3.477,1.026,7.021,0.436,10.398c-0.643,3.676-4.74,5.849-5.621,9.5
	c-0.887,3.675-0.785,6.906-2.002,10.613c-2.126,6.477-2.813,13.557-0.474,19.887c1.409,3.813,1.424,4.795,4.764,3.498
	c0.3-0.116,1.119-3.14,1.816-3.547c1.264-0.739,5.156,0.018,6.626,0.224c0.155,3.599-1.032,6.943-0.805,10.248
	c2.684-0.15,6.056-2.404,7.657-4.799c2.55-3.813,1.13-5.328,5.524-6.624c4.591-1.354,7.094-0.938,10.492-5.502
	c4.14-5.561,2.851-9.551,3.854-15.974c0.532-3.402,3.299-8.396,1.719-12.051c-1.326-3.065-6.701-6.024-8.95-8.512
	c-2.179-2.41-12.598-16.551-16.101-10.963"/>
<polygon fill="none" stroke="#030303" stroke-width="2" stroke-miterlimit="10" points="442.229,41.465 445.389,70.798 
	480.164,99.723 447.919,92.07 449.815,124.801 430.252,94.959 413.59,115.574 424.524,72.132 396.733,41.465 430.308,60.132 "/>
<polygon fill="none" stroke="#030303" stroke-width="2" stroke-miterlimit="10" points="479.849,191.825 486.488,212.539 
	510.672,231.262 489.333,227.798 496.92,246.235 475.581,231.262 460.881,246.235 469.305,222.501 451.872,205.298 472.736,207.253 
	"/>
<polygon fill="none" stroke="#030303" stroke-width="2" stroke-miterlimit="10" points="475.581,345.733 483.714,364.448 
	506.404,369.988 489.333,376.798 495.023,394.798 475.581,382.298 459.458,391.298 467.046,374.298 451.872,364.448 
	469.305,361.054 "/>
<polygon fill="none" stroke="#030303" stroke-width="2" stroke-miterlimit="10" points="50.701,205.298 58.762,224.37 
	85.317,228.512 64.177,238.781 72.04,259.798 51.175,246.235 36,259.798 41.796,238.491 22.723,228.512 44.536,223.599 "/>
</svg>
