<?xml version="1.0" encoding="utf-8"?>
<!-- Generator: Adobe Illustrator 16.0.0, SVG Export Plug-In . SVG Version: 6.00 Build 0)  -->
<!DOCTYPE svg PUBLIC "-//W3C//DTD SVG 1.1//EN" "http://www.w3.org/Graphics/SVG/1.1/DTD/svg11.dtd">
<svg version="1.1" id="Layer_1" xmlns="http://www.w3.org/2000/svg" xmlns:xlink="http://www.w3.org/1999/xlink" x="0px" y="0px"
	 width="552px" height="859px" viewBox="0 0 552 859" enable-background="new 0 0 552 859" xml:space="preserve">
<rect fill="#FFFFFF" stroke="#000000" stroke-miterlimit="10" width="552" height="859"/>
<path fill="none" stroke="#010101" stroke-width="2" stroke-miterlimit="10" d="M127.39,187.054c0,0-0.333-20.757-4.07-34.1
	c-1.334-5.437-3.738-54.364,30.958-68.694c1.068-5.931-2.899-23.413-15.794-25.081c5.32-2.224,29.139-10.007,43.15,11.367
	c1.468,1.235-2.001-32.865,25.218-30.641c1.251,0.649-1.001,18.718,10.409,23.165c2.203,0.185,126.501-6.98,155.86,30.085
	c4.369,6.794,15.877,19.769,5.869,59.799c-2.803,13.713-5.203,31.875-3.201,36.323c0,0-22.461-6.668-32.027-61.899
	c-2.801,3.336-13.21,24.834-88.47,8.896c-2,0.371,9.607,15.197,3.603,20.016c-1.6,1.112-34.826-28.169-70.455-20.756
	c-4.004,2.965-5.206,7.042-4.404,11.12c-1.6,0.37-11.208,5.189-20.016-10.749c-2.401,2.965-8.006,16.309-9.207,27.058
	C152.811,173.71,147.607,190.019,127.39,187.054z"/>
<path fill="none" stroke="#010101" stroke-width="2" stroke-miterlimit="10" d="M127.39,187.054c0,0-31.824,5.683-23.818,35.583
	c2.668,8.896,12.009,19.273,26.42,19.522c0.268,3.458,29.223,82.408,130.504,79.442c10.008,0,88.017,2.842,122.47-81.667
	c2.829-1.544,22.174-14.826,17.907-40.278c-1.335-4.696-0.267-13.096-25.085-10.379"/>
<path fill="none" stroke="#010101" stroke-width="2" stroke-miterlimit="10" d="M376.055,198.915c0,0,14.942-8.154,18.68,9.638
	c0,5.682,0.482,13.095-11.768,21.25c-1.043-5.189-2.372-24.71-6.912-30.146V198.915z"/>
<path fill="none" stroke="#010101" stroke-width="2" stroke-miterlimit="10" d="M125.989,198.915c0,0-21.853,2.539-14.011,21.869
	c4.405,6.301,8.674,10.377,16.546,10.872c1.602-2.101-2.134-7.537-1.068-15.196C127.723,213.247,125.989,198.915,125.989,198.915z"
	/>
<path fill="none" stroke="#010101" stroke-width="2" stroke-miterlimit="10" d="M218.312,169.783
	c11.341-0.395,21.019,11.227,21.616,25.955s-8.113,26.988-19.454,27.382c-11.34,0.393-21.018-11.228-21.615-25.955
	C198.261,182.436,206.971,170.177,218.312,169.783z"/>
<path fill="none" stroke="#010101" stroke-width="2" stroke-miterlimit="10" d="M301.704,164.626
	c11.713-0.331,21.6,11.344,22.085,26.075c0.486,14.731-8.615,26.941-20.327,27.272c-11.711,0.331-21.599-11.344-22.085-26.075
	C280.892,177.168,289.992,164.958,301.704,164.626z"/>
<path fill="#030303" d="M222.311,193.547c4.331-0.343,8.397,5.386,9.083,12.797c0.686,7.41-2.273,13.697-6.605,14.04
	c-4.334,0.343-8.401-5.387-9.085-12.797C215.02,200.176,217.977,193.89,222.311,193.547z"/>
<path fill="#FFFFFF" stroke="#010101" stroke-width="2" stroke-miterlimit="10" d="M223.162,205.84
	c2.291-0.115,4.308,2.506,4.502,5.852c0.195,3.347-1.502,6.153-3.794,6.267c-2.291,0.115-4.307-2.505-4.501-5.852
	C219.173,208.76,220.873,205.956,223.162,205.84z"/>
<path fill="#010101" d="M305.737,189.396c3.947-0.461,7.937,4.942,8.905,12.069c0.97,7.125-1.445,13.275-5.395,13.736
	c-3.949,0.46-7.934-4.943-8.904-12.069C299.373,196.006,301.789,189.856,305.737,189.396z"/>
<path fill="#FFFFFF" stroke="#010101" stroke-width="2" stroke-miterlimit="10" d="M307.439,200.261
	c2.114-0.297,4.317,2.454,4.924,6.145c0.605,3.691-0.614,6.925-2.729,7.223c-2.112,0.297-4.316-2.454-4.922-6.145
	C304.104,203.791,305.325,200.559,307.439,200.261z"/>
<line fill="none" stroke="#010101" stroke-miterlimit="10" x1="291.621" y1="154.716" x2="295.823" y2="163.24"/>
<line fill="none" stroke="#010101" stroke-miterlimit="10" x1="300.101" y1="152.306" x2="301.93" y2="161.757"/>
<line fill="none" stroke="#010101" stroke-miterlimit="10" x1="308.534" y1="152.768" x2="307.466" y2="161.757"/>
<line fill="none" stroke="#010101" stroke-miterlimit="10" x1="316.941" y1="155.642" x2="312.538" y2="163.24"/>
<line fill="none" stroke="#010101" stroke-miterlimit="10" x1="321.946" y1="160.922" x2="316.44" y2="165.37"/>
<line fill="none" stroke="#010101" stroke-miterlimit="10" x1="327.851" y1="166.297" x2="320.545" y2="170.467"/>
<line fill="none" stroke="#010101" stroke-miterlimit="10" x1="331.653" y1="173.248" x2="323.246" y2="175.471"/>
<g>
	<path fill="#010101" d="M288.919,150.544c0,0,0.767-0.476,2.228-1.079c1.456-0.603,3.616-1.332,6.313-1.769
		c2.689-0.462,5.922-0.586,9.338-0.13c1.694,0.282,3.461,0.583,5.176,1.173c0.874,0.242,1.71,0.614,2.572,0.921
		c0.837,0.368,1.687,0.726,2.506,1.14c1.625,0.855,3.208,1.792,4.666,2.85c0.366,0.262,0.731,0.523,1.094,0.783
		c0.355,0.269,0.688,0.564,1.028,0.843c0.681,0.56,1.349,1.116,1.958,1.716c1.276,1.138,2.368,2.376,3.413,3.531
		c0.993,1.201,1.939,2.328,2.701,3.451c0.393,0.552,0.78,1.071,1.125,1.582c0.327,0.523,0.638,1.019,0.929,1.484
		c0.596,0.921,1.073,1.748,1.437,2.447c0.734,1.388,1.154,2.182,1.154,2.182s-0.541-0.714-1.488-1.965
		c-0.452-0.637-1.044-1.379-1.728-2.223c-0.339-0.423-0.698-0.874-1.078-1.348c-0.396-0.459-0.814-0.942-1.249-1.446
		c-0.848-1.026-1.87-2.039-2.899-3.151c-1.089-1.054-2.229-2.171-3.488-3.229c-0.608-0.555-1.271-1.063-1.944-1.573
		c-0.659-0.528-1.36-1.014-2.067-1.5c-1.403-0.993-2.92-1.857-4.466-2.651c-0.771-0.401-1.567-0.749-2.354-1.108
		c-0.811-0.299-1.596-0.665-2.418-0.901c-1.614-0.566-3.255-0.953-4.854-1.273c-1.61-0.258-3.18-0.468-4.683-0.527
		c-1.5-0.045-2.929-0.053-4.244,0.057c-2.632,0.191-4.816,0.624-6.324,1.009C289.759,150.22,288.919,150.544,288.919,150.544z"/>
</g>
<g>
	<path fill="#010101" d="M236.743,155.642c0,0-0.804-0.604-2.349-1.387c-0.774-0.387-1.737-0.804-2.859-1.215
		c-1.129-0.397-2.431-0.746-3.862-1.025c-1.434-0.278-3.014-0.395-4.673-0.415c-1.664-0.031-3.409,0.208-5.188,0.513
		c-1.783,0.327-3.57,0.904-5.359,1.553c-0.886,0.349-1.772,0.728-2.648,1.132c-0.854,0.456-1.749,0.837-2.576,1.355
		c-1.7,0.946-3.349,1.999-4.901,3.138c-1.564,1.124-3.049,2.313-4.461,3.497c-1.375,1.229-2.728,2.396-3.929,3.596
		c-1.242,1.157-2.332,2.34-3.378,3.396c-1.044,1.059-1.925,2.102-2.758,2.982c-0.829,0.885-1.507,1.694-2.081,2.352
		c-1.156,1.31-1.817,2.058-1.817,2.058s0.546-0.836,1.501-2.3c0.488-0.726,1.057-1.626,1.802-2.592
		c0.738-0.969,1.515-2.112,2.489-3.257c0.963-1.154,1.971-2.441,3.174-3.683c0.594-0.626,1.173-1.302,1.824-1.936
		c0.654-0.632,1.323-1.277,2.003-1.933c1.414-1.254,2.869-2.571,4.49-3.738c1.594-1.197,3.295-2.317,5.066-3.324
		c0.87-0.528,1.818-0.924,2.72-1.39c0.928-0.416,1.867-0.805,2.808-1.162c1.898-0.681,3.83-1.182,5.733-1.476
		c1.903-0.279,3.771-0.401,5.531-0.269c1.758,0.109,3.409,0.373,4.883,0.788c2.963,0.795,5.211,2.034,6.668,3.014
		C236.052,154.91,236.743,155.642,236.743,155.642z"/>
</g>
<line fill="none" stroke="#010101" stroke-miterlimit="10" x1="235.877" y1="159.847" x2="228.871" y2="168.336"/>
<line fill="none" stroke="#010101" stroke-miterlimit="10" x1="227.47" y1="156.475" x2="223.533" y2="165.742"/>
<line fill="none" stroke="#010101" stroke-miterlimit="10" x1="217.962" y1="155.363" x2="217.962" y2="165.185"/>
<line fill="none" stroke="#010101" stroke-miterlimit="10" x1="210.321" y1="157.031" x2="212.958" y2="165.185"/>
<line fill="none" stroke="#010101" stroke-miterlimit="10" x1="203.351" y1="161.108" x2="207.254" y2="167.038"/>
<line fill="none" stroke="#010101" stroke-miterlimit="10" x1="196.645" y1="165.742" x2="204.052" y2="171.671"/>
<line fill="none" stroke="#010101" stroke-miterlimit="10" x1="192.943" y1="172.227" x2="200.349" y2="176.027"/>
<g>
	<path fill="#010101" d="M248.352,242.404c0,0,1.885,1.146,4.728,2.706c1.429,0.768,3.104,1.631,4.931,2.445
		c0.908,0.42,1.875,0.775,2.844,1.146c0.978,0.342,1.978,0.68,2.994,0.893c1.007,0.259,2.027,0.425,3.027,0.488
		c1.001,0.059,1.978,0.037,2.905-0.118c0.915-0.181,1.792-0.425,2.561-0.819c0.385-0.194,0.763-0.384,1.091-0.633
		c0.347-0.221,0.679-0.447,0.958-0.718c0.608-0.485,1.061-1.051,1.511-1.52c0.37-0.528,0.746-0.967,1.002-1.365
		c0.497-0.804,0.806-1.27,0.806-1.27s-0.148,0.523-0.451,1.451c-0.164,0.457-0.428,0.988-0.721,1.61
		c-0.368,0.576-0.739,1.275-1.336,1.906c-0.265,0.345-0.595,0.654-0.951,0.965c-0.337,0.336-0.752,0.597-1.177,0.875
		c-0.41,0.306-0.903,0.486-1.378,0.734c-0.491,0.205-1.017,0.368-1.552,0.506c-1.078,0.24-2.219,0.388-3.362,0.323
		c-1.142-0.049-2.287-0.208-3.395-0.473c-1.113-0.26-2.177-0.645-3.215-1.033c-1.031-0.403-2.005-0.886-2.93-1.371
		c-0.931-0.476-1.786-1.012-2.586-1.526c-0.805-0.509-1.531-1.041-2.194-1.537C249.813,244.071,248.352,242.404,248.352,242.404z"/>
</g>
<path fill="none" stroke="#010101" stroke-width="2" stroke-miterlimit="10" d="M234.275,279.532c0,0,49.239,2.224,56.444,1.112
	c0.602,2.224-22.083,41.946-55.579,1.05c-0.315-0.958-0.342-2.162-0.342-2.162"/>
<path fill="none" stroke="#010101" stroke-width="2" stroke-miterlimit="10" d="M137.142,331.183c0,0,21.108-14.616,53.549-23.279"
	/>
<path fill="none" stroke="#010101" stroke-width="2" stroke-miterlimit="10" d="M189.187,337.538c0,0,5.537-18.411,8.8-26.378"/>
<path fill="none" stroke="#010101" stroke-width="2" stroke-miterlimit="10" d="M236.474,340.559c0,0-5.438-10.655-5.519-20.553"/>
<path fill="none" stroke="#010101" stroke-width="2" stroke-miterlimit="10" d="M250.089,340.943c0,0-9.606-17.327-9.343-19.26"/>
<path fill="none" stroke="#010101" stroke-width="2" stroke-miterlimit="10" d="M275.702,341.066c0,0,5.125-11.347,8.67-21.06"/>
<path fill="none" stroke="#010101" stroke-width="2" stroke-miterlimit="10" d="M291.256,340.753c0,0,4.438-18.967,5.454-23.229"/>
<path fill="none" stroke="#010101" stroke-width="2" stroke-miterlimit="10" d="M338.108,337.979c0,0-7.856-26.605-11.408-32.148"/>
<path fill="none" stroke="#010101" stroke-width="2" stroke-miterlimit="10" d="M330.045,303.919c0,0,45.646,16.348,61.208,27.392"
	/>
<path fill="none" stroke="#010101" stroke-width="2" stroke-miterlimit="10" d="M42.721,404.726c0,0-14.969,10.65-5.881,36.225
	c6.283,8.896,13.89,12.047,21.495,16.309c8.007,3.895,22.018,2.039,7.807-8.896c-4.204-0.369-4.204-0.369-4.204-0.369
	s26.221,2.039,28.622-6.857c0.201-3.336,0.796-8.154-28.325-4.818c5.908-1.668,34.931-6.301,30.328-15.753
	c-2.403-1.668-13.21-5.188-32.025,1.669c9.407-2.595,30.624-5.931,26.42-16.31c-5.204-1.668-34.227,2.965-42.633,3.521
	c0,0-12.01-26.688-5.605-100.817c10.409,5.188,225.78,70.423,448.357,0c1.601,16.309,0,84.509-7.605,98.594"/>
<path fill="none" stroke="#010101" stroke-width="2" stroke-miterlimit="10" d="M482.155,399.135c0,0,11.328,8.334,7.058,32.058
	c-1.069,7.656-1.535,18.098-27.556,27.178c-6.006,0.742-16.612-2.965-1.201-11.674c-2.402-0.557-27.621,2.594-26.421-9.268
	c1.601-2.965,16.665-5.561,28.048-2.223c-5.432-1.854-33.653-4.635-30.65-14.084c0.802-2.596,10.68-5.746,29.257,0
	c-1.435-1.114-27.055-7.043-23.452-13.716c1-2.965,3.403-6.857,42.234,1.113c2-1.298,1.601-2.875,1.601-2.875l-0.586-0.709"/>
<path fill="none" stroke="#010101" stroke-width="2" stroke-miterlimit="10" d="M55.467,455.689l13.943,38.758
	c0,0,27.747,43.244,206.292,36.574c24.023,0,193.284-10.873,214.473-40.527c-0.698-8.895-8.592-31.307-8.916-42.463"/>
<path fill="none" stroke="#010101" stroke-width="2" stroke-miterlimit="10" d="M169.525,528.27l-1.902,5.717
	c0,0,13.345,12.107,80.599,9.637c1.332-2.719,0-11.904,0-11.904"/>
<path fill="none" stroke="#010101" stroke-width="2" stroke-miterlimit="10" d="M277.571,531.002l1.874,10.891
	c0,0,72.553,3.926,79.529-6.918c-0.266-2.473-1.695-9.875-1.695-9.875"/>
<path fill="none" stroke="#010101" stroke-width="2" stroke-miterlimit="10" d="M173.21,536.889c0,0-3.186,25.266-12.792,43.305
	c0,0,33.892,20.016,103.813,15.568c10.144-0.494,85.402-3.459,97.147-9.389c1.601-3.955-3.318-35.721-7.544-48.096"/>
<path fill="none" stroke="#010101" stroke-width="2" stroke-miterlimit="10" d="M177.556,587.189v41.684
	c0,0-46.497,19.77-29.683,39.289c5.071,2.719,88.335,10.379,88.871-7.66c0.531-11.613-3.468-25.127-10.407-30.848
	c2.131-4.486,6.661-33.473,6.661-33.473"/>
<path fill="none" stroke="#010101" stroke-width="2" stroke-miterlimit="10" d="M177.556,628.873c0,0,43.444,4.031,48.78,0.781"/>
<path fill="none" stroke="#010101" stroke-width="2" stroke-miterlimit="10" d="M286.409,594.691c0,0,6.379,31.465,7.445,34.182
	c-1.334,3.459-26.418,39.043,2.938,41.268c13.874,1.234,80.594,6.918,78.726-8.156c-0.8-12.107-4.803-24.385-32.024-32.33
	c-1.066-4.24-4.252-38.969-4.252-38.969"/>
<path fill="none" stroke="#010101" stroke-width="2" stroke-miterlimit="10" d="M293.854,628.873c0,0,37.63,6.748,49.64,0.781"/>
<path fill="none" stroke="#010101" stroke-width="2" stroke-miterlimit="10" d="M137.142,349.153L169.756,519.9
	C169.756,519.9,136.285,404.504,137.142,349.153z"/>
<path fill="none" stroke="#010101" stroke-width="2" stroke-miterlimit="10" d="M260.776,356.072c0,0-6.854,86.487,12.044,165.559
	C269.303,493.955,269.864,452.441,260.776,356.072z"/>
<path fill="none" stroke="#010101" stroke-width="2" stroke-miterlimit="10" d="M379.791,344.21c0,0,1.601,108.973,7.206,165.313
	C386.997,485.799,389.399,379.051,379.791,344.21z"/>
</svg>
