<?xml version="1.0" encoding="utf-8"?>
<!-- Generator: Adobe Illustrator 16.0.0, SVG Export Plug-In . SVG Version: 6.00 Build 0)  -->
<!DOCTYPE svg PUBLIC "-//W3C//DTD SVG 1.1//EN" "http://www.w3.org/Graphics/SVG/1.1/DTD/svg11.dtd">
<svg version="1.1" id="Layer_1" xmlns="http://www.w3.org/2000/svg" xmlns:xlink="http://www.w3.org/1999/xlink" x="0px" y="0px"
	 width="552px" height="859px" viewBox="0 0 552 859" enable-background="new 0 0 552 859" xml:space="preserve">
<rect fill="#FFFFFF" stroke="#000000" stroke-miterlimit="10" width="552" height="859"/>
<ellipse fill="none" stroke="#010101" stroke-width="2" stroke-miterlimit="10" cx="275.668" cy="206.675" rx="143.89" ry="150.989"/>
<ellipse fill="none" stroke="#010101" stroke-width="2" stroke-miterlimit="10" cx="305.38" cy="219.634" rx="19.419" ry="29.409"/>
<ellipse fill="none" stroke="#010101" stroke-width="2" stroke-miterlimit="10" cx="230.894" cy="222.338" rx="19.418" ry="29.409"/>
<ellipse fill="#010101" cx="307.608" cy="220.76" rx="6.366" ry="14.085"/>
<ellipse fill="#FFFFFF" cx="308.086" cy="220.874" rx="2.706" ry="4.732"/>
<ellipse fill="#010101" cx="231.844" cy="224.478" rx="7.003" ry="13.295"/>
<ellipse fill="#FFFFFF" cx="231.844" cy="222.338" rx="2.81" ry="5.916"/>
<path fill="none" stroke="#010101" stroke-width="2" stroke-miterlimit="10" d="M131.821,203.047h26.804
	c0,0,31.197-106.12,113.965-101.387c14.007,0,91.046-6.13,119.06,101.387c5.73,0.023,27.882,0.864,27.882,0.864"/>
<ellipse fill="none" stroke="#010101" stroke-width="2" stroke-miterlimit="10" cx="275.075" cy="227.521" rx="102.823" ry="107.157"/>
<path fill="none" stroke="#010101" stroke-width="2" stroke-miterlimit="10" d="M172.252,216.141c0,0,23.435,1.957,16.046-46.122"/>
<path fill="none" stroke="#010101" stroke-width="2" stroke-miterlimit="10" d="M201.465,152.708c0,0,19.555,26.699,59.029,10.474
	c0,0,3.184,4.056,0,14.197c6.79-0.451,59.529-46.311,67.806-10.817c4.457,0.338,6.367-0.333,7.322-1.519
	c0.956-1.186,10.506-11.327,13.053,6.589c1.272,11.155,13.899,53.743,28.436,42.579"/>
<g>
	<path fill="#010101" d="M204.253,203.911c0,0,0.172-0.815,0.645-2.197c0.488-1.372,1.257-3.33,2.541-5.506
		c1.258-2.185,3.038-4.603,5.443-6.745c1.229-1.032,2.556-2.067,4.078-2.848c1.516-0.772,3.133-1.457,4.837-1.823
		c0.84-0.237,1.711-0.292,2.566-0.423c0.859-0.057,1.721-0.103,2.569-0.087c1.7,0.05,3.355,0.3,4.908,0.678
		c1.566,0.346,3.008,0.897,4.361,1.421c1.328,0.588,2.576,1.15,3.656,1.8c0.545,0.314,1.084,0.583,1.564,0.896
		c0.476,0.316,0.927,0.617,1.352,0.898c0.421,0.284,0.816,0.548,1.181,0.793c0.348,0.27,0.667,0.517,0.955,0.74
		c1.139,0.904,1.79,1.421,1.79,1.421s-0.729-0.396-2.006-1.087c-0.315-0.176-0.665-0.37-1.044-0.582
		c-0.39-0.193-0.811-0.402-1.261-0.625c-0.895-0.454-1.904-0.957-3.038-1.425c-1.111-0.523-2.367-0.944-3.67-1.431
		c-1.33-0.408-2.734-0.822-4.21-1.098c-1.471-0.309-3.013-0.422-4.567-0.469c-0.777-0.003-1.56,0.051-2.339,0.112
		c-0.771,0.132-1.56,0.19-2.314,0.414c-1.542,0.304-3.007,0.906-4.396,1.585c-1.385,0.7-2.662,1.562-3.839,2.481
		c-1.15,0.953-2.211,1.951-3.149,2.974c-0.911,1.043-1.764,2.052-2.468,3.051c-1.437,1.978-2.45,3.772-3.136,5.041
		C204.585,203.147,204.253,203.911,204.253,203.911z"/>
</g>
<g>
	<path fill="#010101" d="M285.961,190.225c0,0,0.509-0.633,1.53-1.622c1.027-0.979,2.56-2.334,4.615-3.679
		c1.017-0.688,2.172-1.359,3.436-1.995c1.268-0.627,2.643-1.228,4.122-1.706c1.482-0.453,3.04-0.902,4.674-1.095
		c0.81-0.142,1.641-0.166,2.47-0.239c0.832-0.009,1.671-0.047,2.506,0.011c0.835,0.063,1.67,0.125,2.49,0.283
		c0.828,0.109,1.634,0.307,2.432,0.509c1.601,0.392,3.099,1.017,4.516,1.659c0.703,0.332,1.368,0.711,2.023,1.07
		c0.651,0.365,1.24,0.8,1.837,1.18c0.603,0.373,1.131,0.817,1.656,1.223c0.52,0.414,1.028,0.802,1.469,1.232
		c0.913,0.821,1.729,1.588,2.383,2.338c0.681,0.723,1.258,1.361,1.685,1.932c0.866,1.121,1.361,1.761,1.361,1.761
		s-0.6-0.541-1.649-1.487c-0.502-0.492-1.174-1.023-1.921-1.649c-0.73-0.646-1.622-1.287-2.576-2
		c-0.466-0.372-0.995-0.696-1.533-1.042c-0.542-0.339-1.07-0.738-1.674-1.048c-1.165-0.691-2.445-1.311-3.782-1.904
		c-0.687-0.251-1.364-0.56-2.083-0.776c-0.725-0.192-1.433-0.474-2.183-0.618c-0.743-0.176-1.491-0.35-2.258-0.438
		c-0.76-0.137-1.532-0.178-2.304-0.23c-0.771-0.066-1.547-0.04-2.317-0.044c-0.769,0.059-1.54,0.066-2.296,0.189
		c-1.52,0.169-3,0.486-4.416,0.863c-2.827,0.792-5.376,1.893-7.483,3.003c-2.113,1.104-3.79,2.204-4.946,3.001
		C286.588,189.71,285.961,190.225,285.961,190.225z"/>
</g>
<g>
	<path fill="#010101" d="M254.764,265.944c0,0,0.321,0.413,0.924,1.08c0.606,0.663,1.488,1.59,2.642,2.557
		c0.573,0.487,1.228,0.965,1.929,1.435c0.7,0.477,1.494,0.872,2.311,1.25c0.82,0.383,1.72,0.605,2.625,0.808
		c0.912,0.187,1.858,0.214,2.798,0.17c0.939-0.08,1.885-0.208,2.787-0.501c0.456-0.125,0.9-0.279,1.337-0.453
		c0.444-0.149,0.868-0.346,1.281-0.55c0.208-0.099,0.415-0.197,0.619-0.294c0.199-0.112,0.396-0.222,0.59-0.332
		c0.39-0.218,0.787-0.41,1.141-0.656c0.726-0.459,1.414-0.904,2.025-1.358c0.628-0.43,1.17-0.874,1.668-1.251
		c0.499-0.376,0.924-0.721,1.268-1.012c0.699-0.572,1.116-0.891,1.116-0.891s-0.29,0.43-0.829,1.167
		c-0.269,0.37-0.597,0.819-1.025,1.289c-0.417,0.48-0.875,1.042-1.456,1.576c-0.283,0.276-0.579,0.563-0.885,0.86
		c-0.331,0.272-0.672,0.554-1.023,0.844c-0.344,0.301-0.742,0.556-1.134,0.838c-0.386,0.292-0.812,0.543-1.258,0.784
		c-0.437,0.254-0.889,0.501-1.375,0.706l-0.723,0.328l-0.766,0.253c-1.022,0.354-2.125,0.542-3.233,0.651
		c-1.117,0.032-2.241-0.032-3.314-0.276c-1.069-0.245-2.085-0.629-2.993-1.114c-1.826-0.962-3.249-2.248-4.282-3.456
		c-1.053-1.199-1.729-2.339-2.163-3.143C254.937,266.437,254.764,265.944,254.764,265.944z"/>
</g>
<path fill="none" stroke="#010101" stroke-width="2" stroke-miterlimit="10" d="M238.847,291.973c0,0,36.291,15.549,66.533,0
	c1.273,2.705-30.561,57.278-66.533,3.456C238.529,294.339,237.037,292.944,238.847,291.973z"/>
<ellipse fill="none" stroke="#010101" stroke-width="2" stroke-miterlimit="10" cx="395.257" cy="253.718" rx="7.854" ry="8.508"/>
<line fill="none" stroke="#010101" stroke-width="2" stroke-miterlimit="10" x1="377.338" y1="238.778" x2="416.298" y2="238.778"/>
<path fill="none" stroke="#010101" stroke-width="2" stroke-miterlimit="10" d="M388.463,293.666l0.8-6.087
	c0,0,0.796-12.676,0-20.789c-29.129,3.719-26.582,45.973-26.582,45.973l13.44-2.873c0,0,3.238-0.389,5.046-4.25"/>
<path fill="none" stroke="#010101" stroke-width="2" stroke-miterlimit="10" d="M382.897,307.354c0,0-13.213-12.001-7.802-18.762
	c2.069-2.028,7.267-2.747,16.049,8.176c0,0,7.509,7.261,15.998,29.571c0,0,0.366,0.599,0.343,1.933"/>
<path fill="none" stroke="#010101" stroke-width="2" stroke-miterlimit="10" d="M382.469,307.857c0,0,5.784,6.087,9.818,15.328
	l0.313,1.092"/>
<path fill="none" stroke="#010101" stroke-width="2" stroke-miterlimit="10" d="M137.948,329.048
	C94.017,242.737,82.436,39.461,82.436,39.461c-2.334-6.591-11.553,7.325-11.553,7.325s10.371,200.093,54.302,286.404"/>
<path fill="none" stroke="#010101" stroke-width="2" stroke-miterlimit="10" d="M179.579,319.061c0,0-50.453,8.856-77.831,24.405
	c0,0-11.672-24.789-19.313-17.352c-2.971,7.437-2.547,11.944,3.184,17.352c-7.428-0.226-40.535-2.028-39.898,12.62
	c1.061,4.057,0.026,7.663,25.163,4.958"/>
<path fill="none" stroke="#010101" stroke-width="2" stroke-miterlimit="10" d="M105.781,386.284
	c10.824,3.38,80.859-4.732,90.409-5.409c-3.819,28.102,14.644,123.044,15.285,131.158c12.739,8.112,56.819,8.112,56.819,8.112
	s-0.16-112.903,0-126.425c-70.513-5.408-75.377-63.513-75.377-63.513s-61.603,6.38-89.404,23.057"/>
<path fill="none" stroke="#010101" stroke-width="2" stroke-miterlimit="10" d="M444.495,357.664c0,0-58.575-23.887-85.952-22.985
	c-2.547,11.043-15.281,53.635-68.761,61.072c-0.638,12.845-3.821,124.396-3.821,124.396s54.755,0.676,61.758-10.141
	c1.91-6.761,7.637-88.033,5.094-121.016c8.277-0.676,70.246-5.183,88.284-4.506C442.371,377.721,444.495,357.664,444.495,357.664z"
	/>
<path fill="none" stroke="#010101" stroke-width="2" stroke-miterlimit="10" d="M211.475,512.033l3.391,16.45
	c0,0-2.123,32.226-12.946,58.593c-5.73,23.662-4.457,29.747-5.093,45.973c9.55,2.027,44.567,2.704,50.935,7.437
	c1.91-6.761,3.183-56.114,31.197-82.48c5.729,6.761,20.373,22.986,29.924,94.649c1.273,3.381,4.774,3.381,4.774,3.381
	s15.389,4.508,46.371-8.563c2.547-3.606-6.366-83.383-13.581-120.792c0.848-6.309,0.126-15.362,0.126-15.362"/>
<path fill="none" stroke="#010101" stroke-width="2" stroke-miterlimit="10" d="M208.293,567.621h7.952
	c0,0-6.991,28.92-7.952,37.032c-4.145,0.677-9.921,0-9.921,0"/>
<path fill="none" stroke="#010101" stroke-width="2" stroke-miterlimit="10" d="M352.911,567.621h-10.922
	c0,0,6.367,22.085,7.958,37.333c3.82-0.302,7.344-1.656,7.344-1.656"/>
<path fill="none" stroke="#010101" stroke-width="2" stroke-miterlimit="10" d="M198.372,633.329c0,0-4.305,8.51-3.669,13.918
	c-1.486,2.253-37.351,24.788-5.729,40.112c15.704,2.931,44.567,4.732,56.451-4.056c6.154-5.633,9.125-20.957,0.849-27.943
	c0.637-3.156,0.309-15.56,0.309-15.56"/>
<path fill="none" stroke="#010101" stroke-width="2" stroke-miterlimit="10" d="M194.703,647.247c0,0,32.684,12.621,51.57,8.113"/>
<path fill="none" stroke="#010101" stroke-width="2" stroke-miterlimit="10" d="M307.308,641.629c0,0,41.965-1.035,52.755-8.3"/>
<path fill="none" stroke="#010101" stroke-width="2" stroke-miterlimit="10" d="M311.296,655.401c0,0-22.151,30.464,12.44,34.366
	c12.097,1.198,56.877,2.775,59.637-13.676c0.423-4.957-7.851-16.677-23.346-28.62"/>
<path fill="none" stroke="#010101" stroke-width="2" stroke-miterlimit="10" d="M301.241,408.932h37.564c0,0,8.595,2.705,0,10.479
	c-3.502,1.352-37.564,1.69-37.564,1.69S293.283,414.003,301.241,408.932z"/>
<ellipse fill="none" stroke="#010101" stroke-width="2" stroke-miterlimit="10" cx="235.346" cy="424.82" rx="16.872" ry="20.282"/>
<ellipse fill="none" stroke="#010101" stroke-width="2" stroke-miterlimit="10" cx="250.785" cy="453.046" rx="6.208" ry="6.254"/>
<ellipse fill="none" stroke="#010101" stroke-width="2" stroke-miterlimit="10" cx="219.269" cy="453.046" rx="5.889" ry="6.254"/>
<ellipse fill="none" stroke="#010101" stroke-width="2" stroke-miterlimit="10" cx="293.124" cy="370.059" rx="7.163" ry="6.761"/>
<ellipse fill="none" stroke="#010101" stroke-width="2" stroke-miterlimit="10" cx="262.643" cy="370.059" rx="5.651" ry="6.761"/>
<ellipse fill="none" stroke="#010101" stroke-width="2" stroke-miterlimit="10" cx="156.292" cy="255.239" rx="9.55" ry="10.705"/>
<line fill="none" stroke="#010101" stroke-width="2" stroke-miterlimit="10" x1="134.834" y1="237.775" x2="172.252" y2="238.675"/>
<path fill="none" stroke="#010101" stroke-width="2" stroke-miterlimit="10" d="M52.696,361.791
	c-0.581-0.063-14.828,8.268-8.885,15.028c1.486,2.254,15.917,2.704,31.41-2.028"/>
<path fill="none" stroke="#010101" stroke-width="2" stroke-miterlimit="10" d="M52.199,378.459c0,0-6.902,7.149-2.021,13.234
	c2.971,3.154,11.886,2.93,32.258-3.606c-2.546,3.38-14.431,14.423-8.064,19.156c3.183,1.128,18.038-2.254,29.711-19.832
	c2.023-1.343,0.873-0.066,2.246-0.979"/>
<path fill="none" stroke="#010101" stroke-width="2" stroke-miterlimit="10" d="M105.607,386.792c0,0-1.046-35.607-3.857-43.327"/>
<path fill="none" stroke="#010101" stroke-width="2" stroke-miterlimit="10" d="M158.247,384.509c0,0,22.418,65.371,46.098,83.6"/>
<path fill="none" stroke="#010101" stroke-width="2" stroke-miterlimit="10" d="M144.281,385.682c0,0,35.256,93.703,63.957,106.139"
	/>
<path fill="none" stroke="#010101" stroke-width="2" stroke-miterlimit="10" d="M407.257,385.44c0,0-14.97,102.592-59.538,124.564"
	/>
<path fill="none" stroke="#010101" stroke-width="2" stroke-miterlimit="10" d="M418.391,384.509c0,0-8.913,112.875-71.944,142.17
	c-37.479,17.42-131.581,1.804-131.581,1.804"/>
<path fill="none" stroke="#010101" stroke-width="2" stroke-miterlimit="10" d="M371.755,319.061c0,0,56.822,13.476,72.74,21.589
	c0,0,0.934,8.588,0,17.014"/>
<path fill="none" stroke="#010101" stroke-width="2" stroke-miterlimit="10" d="M444.495,340.649c0,0,9.072-22.141,19.26-15.549
	c2.705,4.563-1.115,11.324-4.457,17.578c5.729-0.676,39.474-3.718,40.27,10.986c-0.796,5.24-3.467,7.435-4.899,7.772"/>
<path fill="none" stroke="#010101" stroke-width="2" stroke-miterlimit="10" d="M472.667,357.664c0,0,27.06-2.479,28.333,13.578
	c-1.751,6.084-5.889,6.253-8.436,5.916"/>
<path fill="none" stroke="#010101" stroke-width="2" stroke-miterlimit="10" d="M472.667,372.731c0,0,29.925,4.257,25.945,16.257
	c-3.979,6.085-18.623,3.211-34.54-2.028"/>
<path fill="none" stroke="#010101" stroke-width="2" stroke-miterlimit="10" d="M468.029,388.22c0,0,12.119,13.613,2.25,16.825
	c-6.048,0.507-25.255-15.099-29.183-20.563"/>
</svg>
