<?xml version="1.0" encoding="utf-8"?>
<!-- Generator: Adobe Illustrator 16.0.0, SVG Export Plug-In . SVG Version: 6.00 Build 0)  -->
<!DOCTYPE svg PUBLIC "-//W3C//DTD SVG 1.1//EN" "http://www.w3.org/Graphics/SVG/1.1/DTD/svg11.dtd">
<svg version="1.1" id="Layer_1" xmlns="http://www.w3.org/2000/svg" xmlns:xlink="http://www.w3.org/1999/xlink" x="0px" y="0px"
	 width="552px" height="859px" viewBox="0 0 552 859" enable-background="new 0 0 552 859" xml:space="preserve">
<rect fill="#FFFFFF" stroke="#000000" stroke-miterlimit="10" width="552" height="859"/>
<ellipse fill="none" stroke="#010101" stroke-width="2" stroke-miterlimit="10" cx="388.632" cy="298.308" rx="82.18" ry="83.25"/>
<ellipse fill="none" stroke="#010101" stroke-width="2" stroke-miterlimit="10" cx="337.189" cy="313.535" rx="17.301" ry="18.25"/>
<path fill="none" stroke="#010101" stroke-width="2" stroke-miterlimit="10" d="M119.667,85.719
	c20.012-10.551,39.844-12.496,44.296-4.344c4.45,8.152-8.165,23.313-28.177,33.864c-20.013,10.551-39.844,12.496-44.296,4.344
	S99.654,96.27,119.667,85.719z"/>
<polyline fill="#FFFFFF" stroke="#010101" stroke-width="2" stroke-miterlimit="10" points="134.056,167.421 108.208,117.785 
	218.627,66.285 244.579,116.853 193.254,144.209 "/>
<path fill="none" stroke="#010101" stroke-width="2" stroke-miterlimit="10" d="M154.5,152.66
	c20.01-10.551,39.839-12.496,44.291-4.345c4.451,8.151-8.162,23.312-28.172,33.862c-20.01,10.55-39.839,12.496-44.291,4.345
	C121.879,178.371,134.491,163.211,154.5,152.66z"/>
<polyline fill="none" stroke="#010101" stroke-width="2" stroke-miterlimit="10" points="220.678,70.282 244.579,56.785 
	269.804,100.466 243.117,114.005 "/>
<path fill="none" stroke="#010101" stroke-width="2" stroke-miterlimit="10" d="M246.881,60.771c0,0,59.269-26.986,75.043-20.986
	c9.16,6.5,3.213,25.343-53.858,57.671"/>
<polyline fill="none" stroke="#010101" stroke-width="2" stroke-miterlimit="10" points="114.009,128.926 83.273,132.285 
	108.208,181.785 129.98,159.595 "/>
<line fill="none" stroke="#010101" stroke-miterlimit="10" x1="85.594" y1="136.893" x2="59.357" y2="143.278"/>
<line fill="none" stroke="#010101" stroke-miterlimit="10" x1="90.594" y1="146.821" x2="53.76" y2="158.285"/>
<line fill="none" stroke="#010101" stroke-miterlimit="10" x1="94.895" y1="155.355" x2="53.76" y2="176.785"/>
<line fill="none" stroke="#010101" stroke-miterlimit="10" x1="100.972" y1="167.421" x2="64.446" y2="189.285"/>
<line fill="none" stroke="#010101" stroke-miterlimit="10" x1="105.688" y1="176.785" x2="82.708" y2="194.785"/>
<path fill="none" stroke="#010101" stroke-width="2" stroke-miterlimit="10" d="M220.678,129.141c0,0,2.118,5.791,85.774-4.533
	c20.052-2.823,110.117-22.323,146.247,38.177c4.07,16,11.702,53-69.714,36c-22.897-6-89.048-21.763-85.485,4.369
	c-1.019,9.131-12.722,26.131-63.607,20.631c-31.04-3-162.126-4-161.716,40.5c0.919,7,23.818,33.5,73.685,12
	c19.845-3.5,50.406-4.5,74.815,2"/>
<path fill="none" stroke="#010101" stroke-width="2" stroke-miterlimit="10" d="M209.719,134.777c0,0-0.337,10.857,84.727,2.117
	c20.389-2.391,112.109-20.696,148.846,30.527c4.14,13.547-2.962,28.757-85.748,14.364c-32.844-7.166-69.336-6.904-79.125,20.177
	c-9.923,13.096-56.391,10.979-108.131,6.323c-31.563-2.54-116.943,19.824-116.526,57.5c0.935,5.927,3.223,38.667,65.133,37
	c20.179-2.963,69.825-9.981,94.646-4.478"/>
<path fill="none" stroke="#010101" stroke-width="2" stroke-miterlimit="10" d="M351.713,323.447c0,0,9.693,52.727,80.594,45.395"/>
<path fill="none" stroke="#010101" stroke-width="2" stroke-miterlimit="10" d="M352.579,305.203c0,0,5.982-46.918,49.234-49.918
	c13.739-1,52.509-2.5,68.998,40"/>
<path fill="none" stroke="#010101" stroke-width="2" stroke-miterlimit="10" d="M392.009,284.537c0,0-10.378-14.086,7.601-15.752
	c8.819-1,27.739-1.162,32.697,15.752c3.261,7.248,12.344,26.748,0,28.998c-5.219,0.917-28.627,7.583-31.68-6.417
	C398.591,297.785,395.604,286.623,392.009,284.537z"/>
<path fill="none" stroke="#010101" stroke-width="2" stroke-miterlimit="10" d="M206.625,337.714c0,0,13.097-108.429,63.18-99.429
	c24.134,4,40.12,12.328,48.664,16.664"/>
<path fill="none" stroke="#010101" stroke-width="2" stroke-miterlimit="10" d="M307.824,313.535c0,0-116.992-18.604-132.766,84.896
	"/>
<path fill="none" stroke="#010101" stroke-width="2" stroke-miterlimit="10" d="M294.445,376.785c0,0-21.93,5.201-33.433,38.701"/>
<ellipse fill="#FFFFFF" stroke="#010101" stroke-width="2" stroke-miterlimit="10" cx="323.959" cy="411.636" rx="29.514" ry="24.72"/>
<path fill="#FFFFFF" stroke="#010101" stroke-width="2" stroke-miterlimit="10" d="M267.432,401.008c0,0,25.997,33.277,46.351,7.777
	c6.615-2,23.407-10.5,19.337,21.5c-3.563,9-22.887,37.187-76.316,5.187"/>
<ellipse fill="none" stroke="#010101" stroke-width="2" stroke-miterlimit="10" cx="372.946" cy="445.785" rx="21.234" ry="15.5"/>
<path fill="none" stroke="#010101" stroke-width="2" stroke-miterlimit="10" d="M312.536,457.817
	c13.2,4.731,21.173,15.916,17.808,24.979c-3.364,9.064-16.794,12.577-29.994,7.845c-13.201-4.731-21.173-15.915-17.807-24.979
	C285.908,456.598,299.337,453.086,312.536,457.817z"/>
<path fill="none" stroke="#010101" stroke-width="2" stroke-miterlimit="10" d="M417.079,415.486c0,0-40.708,148.799-164.358,60.299
	"/>
<path fill="none" stroke="#010101" stroke-width="2" stroke-miterlimit="10" d="M420.301,375.118c0,0,35.913,41.757,46.768,81.182"
	/>
<path fill="none" stroke="#010101" stroke-width="2" stroke-miterlimit="10" d="M383.563,476.408c0,0,12.741,19.856,20.883,21.19"/>
<path fill="none" stroke="#010101" stroke-width="2" stroke-miterlimit="10" d="M403.34,501.785c0,0,8.82-46.096,56.312-46.048
	c8.821,0.382,13.57-1.999,14.928,23.023c4.408,0.357,35.617,12.357,10.515,32.357c-0.338,4.667,5.428,35.334-26.12,38.667
	c-4.749,1-30.532-1.666-41.895-32C414.535,510.118,407.411,502.452,403.34,501.785z"/>
<ellipse fill="none" stroke="#010101" stroke-width="2" stroke-miterlimit="10" cx="112.533" cy="434.285" rx="11.449" ry="11.5"/>
<path fill="none" stroke="#010101" stroke-width="2" stroke-miterlimit="10" d="M135.57,410.868
	c22.101,9.774,28.359,43.153,13.977,74.555c-14.382,31.402-43.959,48.935-66.06,39.161c-22.102-9.773-28.358-43.153-13.976-74.555
	C83.893,418.628,113.469,401.095,135.57,410.868z"/>
<path fill="#FFFFFF" stroke="#010101" stroke-width="2" stroke-miterlimit="10" d="M169.366,439.305c0,0-54.543-0.52-48.437,61.48
	c0,8.5,6.615,45.332,80.398,49.166c10.177,0.334,33.076-6.656,44.779-22.661c6.106-6.505,12.287-19.505,23.698-20.505"/>
<path fill="none" stroke="#010101" stroke-width="2" stroke-miterlimit="10" d="M169.27,401.008c0,0,51.394-28.223,97.699,20.277
	c2.544,2.5-17.991,22-17.991,22s21.553,21.5,3.744,32.5c-5.597,3-16.792,6.5-22.39-6c-1.526,3-15.774,36.5-46.814,14.5
	c-10.686-10-24.934-22-7.633-66C176.393,415.285,169.27,406.73,169.27,401.008z"/>
<path fill="none" stroke="#010101" stroke-width="2" stroke-miterlimit="10" d="M120.732,484.767c0,0-40.539-22.778-57.572-15.131"
	/>
<path fill="none" stroke="#010101" stroke-width="2" stroke-miterlimit="10" d="M127.988,461.285c0,0-42.268-16.016-58.501-11.258"
	/>
<path fill="none" stroke="#010101" stroke-width="2" stroke-miterlimit="10" d="M173.675,546.472c0,0-11.529,50.646,27.143,54.646
	c7.803,0.667,29.854-0.646,40.369-27.323"/>
<path fill="none" stroke="#010101" stroke-width="2" stroke-miterlimit="10" d="M210.602,548.881c0,0,26.175,46.238,80.451,22.571
	c0,0,54.195-31.429,55.763-70.798"/>
<polygon fill="none" stroke="#010101" stroke-width="2" stroke-miterlimit="10" points="372.946,553.285 383.563,558.785 
	397.742,549.963 397.742,565.785 407.92,573.854 394.181,578.195 388.632,591.285 383.563,578.195 367.721,578.195 376.88,564.785 
	"/>
<polygon fill="none" stroke="#010101" stroke-width="2" stroke-miterlimit="10" points="106.013,340.225 117.814,342.381 
	128.689,329.823 133.467,344.932 145.623,349.67 133.814,357.822 132.468,371.94 123.677,360.917 108.546,365.537 113.242,350.061 
	"/>
<polygon fill="none" stroke="#010101" stroke-width="2" stroke-miterlimit="10" points="46.877,390.824 57.496,396.324 
	71.675,387.502 71.675,403.324 81.852,411.393 68.113,415.734 62.563,428.824 57.496,415.734 41.652,415.734 50.812,402.324 "/>
<polygon fill="none" stroke="#010101" stroke-width="2" stroke-miterlimit="10" points="448.911,50.847 459.53,56.347 
	473.708,47.524 473.708,63.347 483.885,71.415 470.146,75.757 464.597,88.847 459.53,75.757 443.687,75.757 452.846,62.347 "/>
<path fill="none" stroke="#010101" stroke-width="2" stroke-miterlimit="10" d="M55.287,671.119l434.896,6
	c0,0-66.076-70.666-211.475-73.333C246.614,603.786,161.127,610.452,55.287,671.119z"/>
</svg>
