<?xml version="1.0" encoding="utf-8"?>
<!-- Generator: Adobe Illustrator 16.0.0, SVG Export Plug-In . SVG Version: 6.00 Build 0)  -->
<!DOCTYPE svg PUBLIC "-//W3C//DTD SVG 1.1//EN" "http://www.w3.org/Graphics/SVG/1.1/DTD/svg11.dtd">
<svg version="1.1" id="Layer_1" xmlns="http://www.w3.org/2000/svg" xmlns:xlink="http://www.w3.org/1999/xlink" x="0px" y="0px"
	 width="552px" height="859px" viewBox="0 0 552 859" enable-background="new 0 0 552 859" xml:space="preserve">
<rect fill="#FFFFFF" stroke="#000000" stroke-miterlimit="10" width="552" height="859"/>
<ellipse fill="none" stroke="#010101" stroke-width="2" stroke-miterlimit="10" cx="225.101" cy="217.165" rx="22.595" ry="28.003"/>
<ellipse fill="#010101" stroke="#010101" stroke-width="2" stroke-miterlimit="10" cx="215.438" cy="216.306" rx="9.663" ry="13.649"/>
<ellipse fill="#FFFAFA" stroke="#010101" stroke-width="2" stroke-miterlimit="10" cx="215.086" cy="214.4" rx="4.365" ry="6.109"/>
<g>
	<path fill="#080808" d="M189.667,199.534c0,0,0.627-0.852,1.862-2.23c1.248-1.362,3.063-3.297,5.467-5.386
		c1.203-1.042,2.533-2.146,4.015-3.218c1.462-1.099,3.076-2.166,4.79-3.198c1.734-0.998,3.543-2.021,5.488-2.847
		c1.921-0.877,3.96-1.573,6.019-2.204c2.088-0.527,4.2-1.002,6.323-1.186c2.113-0.267,4.222-0.196,6.24-0.061
		c1.009,0.078,1.994,0.253,2.957,0.39c0.954,0.197,1.876,0.44,2.776,0.65c0.885,0.271,1.735,0.566,2.558,0.844
		c0.815,0.298,1.566,0.679,2.303,0.994c0.744,0.304,1.407,0.697,2.042,1.056c0.625,0.376,1.25,0.677,1.775,1.06
		c1.058,0.753,2.018,1.345,2.73,1.939c1.431,1.182,2.223,1.872,2.223,1.872s-0.906-0.554-2.444-1.552
		c-0.762-0.509-1.774-0.991-2.879-1.613c-0.55-0.318-1.194-0.545-1.837-0.845c-0.652-0.282-1.314-0.626-2.059-0.859
		c-0.736-0.249-1.483-0.56-2.287-0.785c-0.809-0.206-1.633-0.456-2.491-0.664c-0.872-0.151-1.76-0.334-2.674-0.471
		c-0.924-0.067-1.857-0.226-2.817-0.26c-1.918-0.077-3.905-0.032-5.905,0.224c-2.008,0.193-4.011,0.673-5.996,1.191
		c-1.97,0.582-3.931,1.223-5.791,2.049c-1.874,0.786-3.673,1.677-5.383,2.601c-1.688,0.963-3.327,1.898-4.814,2.896
		c-1.498,0.979-2.884,1.958-4.146,2.887c-1.248,0.947-2.396,1.817-3.386,2.626c-0.995,0.802-1.838,1.534-2.525,2.144
		C190.426,198.799,189.667,199.534,189.667,199.534z"/>
</g>
<ellipse fill="none" stroke="#010101" stroke-width="2" stroke-miterlimit="10" cx="318.562" cy="212.876" rx="22.595" ry="28.003"/>
<ellipse fill="#010101" stroke="#010101" stroke-width="2" stroke-miterlimit="10" cx="308.898" cy="212.02" rx="9.663" ry="13.649"/>
<ellipse fill="#FFFAFA" stroke="#010101" stroke-width="2" stroke-miterlimit="10" cx="308.548" cy="210.111" rx="4.365" ry="6.108"/>
<g>
	<path fill="#080808" d="M294.083,184.17c0,0,0.742-0.604,2.169-1.482c1.423-0.879,3.531-2.039,6.22-3.097
		c2.676-1.079,5.946-2.026,9.549-2.539c1.803-0.226,3.684-0.408,5.602-0.37c0.958-0.005,1.923,0.078,2.891,0.129
		c0.963,0.125,1.94,0.173,2.897,0.365c0.961,0.167,1.919,0.349,2.855,0.607c0.949,0.214,1.869,0.51,2.78,0.81
		c1.828,0.584,3.547,1.376,5.172,2.192c1.617,0.834,3.121,1.749,4.475,2.713c0.696,0.454,1.338,0.942,1.941,1.438
		c0.6,0.5,1.216,0.934,1.735,1.437c1.066,0.973,2.053,1.849,2.831,2.725c0.803,0.848,1.506,1.58,2.018,2.244
		c1.045,1.302,1.642,2.046,1.642,2.046s-0.701-0.644-1.928-1.77c-0.587-0.586-1.384-1.209-2.254-1.961
		c-0.855-0.771-1.918-1.521-3.027-2.388c-0.546-0.446-1.185-0.816-1.805-1.25c-0.623-0.431-1.267-0.875-1.969-1.269
		c-1.363-0.85-2.866-1.626-4.435-2.382c-1.58-0.736-3.259-1.383-4.995-1.937c-0.869-0.274-1.746-0.546-2.649-0.736
		c-0.892-0.236-1.804-0.394-2.716-0.545c-0.905-0.195-1.833-0.249-2.745-0.381c-0.92-0.058-1.836-0.15-2.748-0.156
		c-1.823-0.045-3.624,0.021-5.36,0.185c-1.731,0.202-3.411,0.417-4.981,0.764c-1.573,0.326-3.05,0.707-4.399,1.11
		c-2.7,0.812-4.897,1.691-6.411,2.367C294.918,183.707,294.083,184.17,294.083,184.17z"/>
</g>
<path fill="none" stroke="#080808" stroke-width="2" stroke-miterlimit="10" d="M150.046,156.179c0,0-78.489-18.873,3.161-24.865
	c22.082-0.461,142.758-8.757,259.841,26.734c14.38,4.149,57.558,14.363,18.786,18.281"/>
<path fill="none" stroke="#080808" stroke-width="2" stroke-miterlimit="10" d="M116.746,138.658c0,0,3.424-10.876,34.749-25.321
	c5.819-3.687,9.927-3.84,17.63-21.511c6.678-9.833,35.094-65.145,152.345-51.317c14.038,2.766,106.985,6.454,117.77,100.485
	c1.541,7.836,5.85,26.954,8.893,30.072"/>
<path fill="none" stroke="#080808" stroke-width="2" stroke-miterlimit="10" d="M148.937,131.652c0,0-1.378,52.185,16.082,66.718
	c6.676-2.525,24.649-8.056,19-57.376c8.217,8.297,35.946,24.43,61.366,17.516c-1.027,7.145,0,14.29,5.905,14.52
	c3.338-3.457,10.014-17.285,22.852-16.824c4.622,1.153-2.054,16.363,4.108,15.903c4.622-3.918,75.488-43.559,76.771-11.293
	c0.257,2.766,0,4.196,0,4.196s16.214-0.878,16.689-9.266c2.567,4.84,16.689,18.644,19.258,42.626
	c4.363,6.233,18.743,17.296,26.702,9.69c0.77-3.918,0.77-18.438,13.865-17.285c0.771-3.918,0-27.574,0-27.574"/>
<path fill="none" stroke="#080808" stroke-width="2" stroke-miterlimit="10" d="M165.019,198.371c0,0-35.946-7.825-31.068,31.585
	c1.541,7.836,8.729,23.508,23.108,25.582c1.283,3.457,27.132,77.821,107.926,83.353c7.019,1.075,80.793,7.683,127.523-41.638
	c8.218-6.453,28.501-43.558,28.501-53.007c3.081-0.231,27.73-4.425,33.636-28.026c0.771-9.541-1.54-24.521-23.108-25.443"/>
<path fill="none" stroke="#080808" stroke-width="2" stroke-miterlimit="10" d="M428.197,204.004c0,0,0.771,24.569-3.337,28.487
	C431.022,232.491,465.942,203.406,428.197,204.004z"/>
<path fill="none" stroke="#080808" stroke-width="2" stroke-miterlimit="10" d="M160.91,208.905c0,0-7.873,25.044-2.911,34.417
	C148.929,237.177,133.864,207.523,160.91,208.905z"/>
<g>
	<path fill="#080808" d="M256.425,260.838c0,0,0.427,0.431,1.207,1.133s1.917,1.671,3.337,2.731
		c0.721,0.515,1.502,1.067,2.358,1.593c0.852,0.534,1.78,1.036,2.755,1.504c0.967,0.491,2.024,0.844,3.086,1.198
		c1.073,0.32,2.185,0.552,3.307,0.653c1.119,0.105,2.249,0.128,3.347-0.026c0.552-0.057,1.093-0.153,1.626-0.274
		c0.54-0.086,1.051-0.271,1.563-0.421c1.01-0.34,1.978-0.732,2.861-1.191c0.455-0.203,0.864-0.466,1.271-0.704
		c0.406-0.24,0.816-0.45,1.17-0.713c0.724-0.501,1.409-0.944,1.969-1.405c0.571-0.445,1.09-0.819,1.476-1.173
		c0.799-0.679,1.275-1.061,1.275-1.061s-0.348,0.491-0.99,1.339c-0.312,0.434-0.738,0.917-1.245,1.461
		c-0.484,0.568-1.1,1.141-1.79,1.754c-0.331,0.323-0.726,0.601-1.119,0.911c-0.396,0.307-0.812,0.618-1.274,0.887
		c-0.897,0.583-1.902,1.127-3.007,1.553c-0.556,0.202-1.114,0.436-1.713,0.572c-0.297,0.079-0.596,0.158-0.896,0.238l-0.925,0.143
		c-1.241,0.196-2.527,0.202-3.796,0.101c-1.269-0.139-2.511-0.425-3.694-0.804c-1.176-0.398-2.291-0.9-3.307-1.475
		c-1.031-0.552-1.956-1.198-2.797-1.843c-0.854-0.629-1.585-1.315-2.251-1.946c-1.317-1.282-2.269-2.477-2.891-3.338
		C256.718,261.37,256.425,260.838,256.425,260.838z"/>
</g>
<path fill="none" stroke="#080808" stroke-width="2" stroke-miterlimit="10" d="M241.277,296.1c0,0,44.419,4.378,62.649,0
	c-0.514,4.378-1.284,14.059-31.198,16.594C272.729,312.694,245.984,313.539,241.277,296.1z"/>
<path fill="none" stroke="#080808" stroke-width="2" stroke-miterlimit="10" d="M205.775,318.746c0,0-79.784,42.27-85.947,61.937
	c0.684,11.676,9.5,43.328,13.352,43.559c4.108-2.304,65.731-29.961,69.583-35.723c0,0-0.771,90.805,20.284,144.734
	c8.729,4.148,48.784,11.523,59.568,10.142c9.757,1.842,59.055,16.593,78.055,4.148c13.352-1.845,19.001-5.992,23.108-9.68
	c1.026-4.61-5.648-21.665,0-66.376c4.622-20.742,8.729-40.563,7.19-59.922c3.08,2.765,13.352,5.07,15.405,64.992
	c12.324,2.766,48.393,0.461,48.393,0.461s18.879-54.391-15.014-107.859c-10.785-16.133-37.801-50.807-68.712-53.981"/>
<polyline fill="none" stroke="#080808" stroke-width="2" stroke-miterlimit="10" points="264.985,338.89 297.507,504.676 
	312.913,337.125 "/>
<path fill="none" stroke="#080808" stroke-width="2" stroke-miterlimit="10" d="M232.513,332.317l-8.953,25.012l26.019,10.141
	l-14.722,20.588c0,0,44.27,50.768,61.932,112.962"/>
<path fill="none" stroke="#080808" stroke-width="2" stroke-miterlimit="10" d="M349.148,326.792l16.657,33.149l-27.218,9.219
	l16.434,16.594c0,0-31.838,25.351-57.515,118.923"/>
<polyline fill="none" stroke="#080808" stroke-width="2" stroke-miterlimit="10" points="272.729,339.561 285.696,355.792 
	278.852,409.586 "/>
<polyline fill="none" stroke="#080808" stroke-width="2" stroke-miterlimit="10" points="306.639,338.068 294.129,355.792 
	306.068,411.552 "/>
<polyline fill="none" stroke="#080808" stroke-width="2" stroke-miterlimit="10" points="290.348,468.183 296.789,481.322 
	300.443,472.731 "/>
<g>
	<path fill="#080808" d="M346.633,486.546c0,0,1.111,2.903,2.693,7.259c0.798,2.172,1.729,4.705,2.727,7.421
		c0.508,1.351,1.032,2.747,1.565,4.165c0.528,1.42,1.089,2.852,1.663,4.276c0.556,1.433,1.134,2.854,1.722,4.245
		c0.607,1.382,1.168,2.758,1.776,4.059c0.609,1.298,1.19,2.559,1.795,3.723c0.297,0.586,0.597,1.149,0.898,1.687
		c0.288,0.547,0.581,1.065,0.881,1.552c0.284,0.498,0.583,0.955,0.872,1.388c0.274,0.444,0.557,0.85,0.839,1.217
		c0.269,0.38,0.536,0.722,0.8,1.023c0.262,0.304,0.483,0.607,0.73,0.829c0.236,0.238,0.447,0.45,0.631,0.636
		c0.194,0.173,0.373,0.305,0.512,0.42c0.284,0.229,0.436,0.351,0.436,0.351s-0.172-0.09-0.494-0.259
		c-0.16-0.088-0.367-0.186-0.597-0.321c-0.219-0.153-0.47-0.33-0.751-0.527c-0.293-0.189-0.563-0.455-0.882-0.724
		c-0.326-0.263-0.64-0.584-0.969-0.933c-0.341-0.34-0.687-0.717-1.027-1.132c-0.357-0.405-0.705-0.851-1.052-1.326
		c-0.72-0.937-1.433-1.996-2.129-3.147c-0.709-1.146-1.409-2.379-2.076-3.683s-1.346-2.655-1.964-4.06s-1.229-2.837-1.81-4.28
		c-0.56-1.451-1.104-2.908-1.616-4.35c-0.524-1.437-0.971-2.875-1.416-4.26c-0.875-2.776-1.601-5.395-2.157-7.654
		C347.098,489.624,346.633,486.546,346.633,486.546z"/>
</g>
<g>
	<path fill="#080808" d="M253.344,478.401c0,0-0.419,2.904-1.509,7.153c-0.275,1.062-0.575,2.212-0.932,3.416
		c-0.367,1.201-0.714,2.482-1.169,3.776c-0.438,1.299-0.867,2.651-1.392,3.995c-0.495,1.353-1.038,2.713-1.591,4.07
		c-0.55,1.358-1.186,2.683-1.775,4c-0.58,1.322-1.291,2.562-1.902,3.793c-0.637,1.221-1.343,2.355-1.975,3.447
		c-0.659,1.078-1.351,2.059-1.965,2.972c-0.621,0.911-1.289,1.683-1.837,2.388c-0.533,0.718-1.091,1.272-1.539,1.734
		c-0.896,0.924-1.415,1.432-1.415,1.432s0.401-0.61,1.104-1.68c0.358-0.524,0.795-1.155,1.226-1.93
		c0.435-0.771,0.971-1.604,1.489-2.556c0.506-0.957,1.054-1.993,1.634-3.09c0.542-1.115,1.113-2.292,1.704-3.509
		c0.557-1.233,1.133-2.508,1.718-3.803c0.561-1.307,1.162-2.619,1.688-3.968c0.567-1.33,1.125-2.664,1.636-3.995
		c0.524-1.325,1.039-2.631,1.538-3.894c0.975-2.54,1.885-4.912,2.665-6.944C252.304,481.125,253.344,478.401,253.344,478.401z"/>
</g>
<ellipse fill="none" stroke="#080808" stroke-width="2" stroke-miterlimit="10" cx="297.699" cy="517.755" rx="3.788" ry="3.63"/>
<ellipse fill="none" stroke="#080808" stroke-width="2" stroke-miterlimit="10" cx="297.699" cy="531.696" rx="3.788" ry="3.744"/>
<path fill="none" stroke="#080808" stroke-width="2" stroke-miterlimit="10" d="M226.641,534.611c0,0-28.073,56.259-29.44,122.635
	c-8.217,6.146-52.721,38.103,3.424,41.177c35.604,0,84.561,8.604,61.452-34.724"/>
<path fill="none" stroke="#080808" stroke-width="2" stroke-miterlimit="10" d="M197.2,657.246c0,0,21.995,2.765,27.644,5.301
	c5.648,2.535,32.095,5.53,38.771,0c1.027-2.305-5.051-59.383,37.873-101.177c5.949,7.988,35.732,49.474,35.389,102.943
	c4.794,0.615,25.335,2.153,39.027-3.687c6.848-2.458,18.142-4.301,26.018-3.688c0,0,0.106-82.97-25.624-113.853"/>
<path fill="none" stroke="#080808" stroke-width="2" stroke-miterlimit="10" d="M340.404,664.653c0,0-21.33,33.387,17.699,32.693
	c24.392,1.845,117.211,8.357,42.835-40.463"/>
<path fill="none" stroke="#080808" stroke-width="2" stroke-miterlimit="10" d="M409.902,477.141c0,0-21.506,10.326-18.253,16.934
	c2.227,4.301,9.93,4.763,17.289-2.459c-0.513,3.994-1.369,26.579,4.108,34.877c4.622,2.766,9.759,4.146,11.127-6.301
	c0.685-6.914,0-16.133,0-16.133s1.882,27.199,10.441,26.736c3.938-0.923,6.673-2.611,3.766-28.425
	c1.539,8.604,4.621,27.04,13.694,23.354c2.225-2.306,3.769-11.831-1.711-31.805c2.737,3.687,34.584,26.827,2.314-16.778"/>
<path fill="none" stroke="#080808" stroke-width="2" stroke-miterlimit="10" d="M119.917,381.85c0,0-8.561-7.851-21.913,2.06
	c-5.393,3.227-16.176,14.059,8.729,7.605c6.162-1.613,7.703-1.498,7.703-1.498l12.837,40.792l5.414-6.761"/>
<path fill="none" stroke="#080808" stroke-width="2" stroke-miterlimit="10" d="M84.739,407.57c0,0-10.271-10.292,4.108-12.291
	c7.703,2.15,25.333,4.761,21.055,12.291c-0.171,1.538-7.189,1.538-15.749,0.769c3.081,0.922,18.946,1.999,17.688,7.683
	c-0.57,1.997-11.013,3.688-17.175,3.227c-1.197,0.461,16.775-0.614,16.262,5.071c-0.171,2.305-2.397,5.376-13.694,4.916
	c-1.541,0.308,11.297-0.638,12.838,4.599c0.171,2.931-5.135,4.93-15.749,4.313c-3.424-1.229-7.019-3.534-4.622-8.604
	c-2.224-1.691-5.478-3.229-1.54-10.449C85.766,418.171,81.657,412.946,84.739,407.57z"/>
<path fill="none" stroke="#080808" stroke-width="2" stroke-miterlimit="10" d="M85.577,396.001L39.719,238.1
	c0,0-6.419-7.913,8.217-13.214c6.162-1.613,18.486-3.227,21.054,11.062c3.082,11.755,42.852,142.971,42.852,142.971"/>
<path fill="none" stroke="#080808" stroke-width="2" stroke-miterlimit="10" d="M96.55,438.236l27.387,87.872
	c0,0,2.824,12.626,17.203,8.503c8.473-2.972,15.149-8.272,9.757-22.331c-4.622-14.52-23.623-81.473-23.623-81.473"/>
</svg>
