<?xml version="1.0" encoding="utf-8"?>
<!-- Generator: Adobe Illustrator 16.0.0, SVG Export Plug-In . SVG Version: 6.00 Build 0)  -->
<!DOCTYPE svg PUBLIC "-//W3C//DTD SVG 1.1//EN" "http://www.w3.org/Graphics/SVG/1.1/DTD/svg11.dtd">
<svg version="1.1" id="Layer_1" xmlns="http://www.w3.org/2000/svg" xmlns:xlink="http://www.w3.org/1999/xlink" x="0px" y="0px"
	 width="552px" height="859px" viewBox="0 0 552 859" enable-background="new 0 0 552 859" xml:space="preserve">
<rect x="0" fill="#FFFFFF" stroke="#000000" stroke-width="0.75" stroke-miterlimit="10" width="552" height="859"/>
<path fill="none" stroke="#000000" stroke-width="2" stroke-miterlimit="10" d="M327.214,134.972l-175.24,68.931
	c0,0-23.086,53.291,32.53,130.91c11.018,14.481,40.924,48.077,83.423,44.602c11.018-4.055,40.923-6.372,69.256-61.979
	c5.247-15.061,36.728-68.351,14.166-151.763C347.677,158.142,347.152,141.343,327.214,134.972z"/>
<path fill="none" stroke="#000000" stroke-width="2" stroke-miterlimit="10" d="M331.1,136.446l-0.214-1.475
	c0,0-12.591-70.089-84.471-56.187c-20.987,5.213-30.956,11.585-51.418,33.596c-5.247,8.109-22.561,27.804-65.06,15.061
	c-3.061,0-11.28-0.965-1.661,13.517c2.449,3.475,13.293,14.577-5.071,12.743c-3.323-0.29-13.817-2.607,2.36,11.681
	c5.334,2.703,14.167,8.593,0.612,10.716c-1.312,0.29-18.713-2.221,0.262,8.496c1.661,1.158,8.045,5.889,2.099,14.674
	c-1.924,1.448-14.428,4.634-2.099,11.585c3.585,1.642,19.675,12.647,19.675,12.647l1.539,0.769"/>
<path fill="none" stroke="#000000" stroke-width="2" stroke-miterlimit="10" d="M174.073,195.21c0,0,13.834,83.614-6.668,112.188"/>
<path fill="none" stroke="#000000" stroke-width="2" stroke-miterlimit="10" d="M282.055,152.735c0,0,1.051,50.585,39.037,66.615
	c7.696,3.088,20.288,6.178,20.288,27.803c-1.751,10.62-8.745,20.297,6.82,42.778"/>
<path fill="none" stroke="#000000" stroke-width="2" stroke-miterlimit="10" d="M354.147,273.605c0,0,8.044-4.634,14.516,17.377
	c-1.047,5.02,0.352,7.144-5.596,11.971c-2.273,2.703-14.986,13.417-24.983,12.115"/>
<path fill="none" stroke="#000000" stroke-width="2" stroke-miterlimit="10" d="M155.613,280.623c0,0-12.82-1.128-2.852,23.2
	c3.935,6.372,4.722,11.704,18.364,11.354"/>
<path fill="none" stroke="#000000" stroke-width="2" stroke-miterlimit="10" d="M121.019,392.737c0,0,0.219-3.089,1.749-3.861
	c16.79-17.377,22.037-12.744,26.198-14.288c22.35,7.722,24.521-0.773,29.672-5.021c16.695-18.922,24.229-3.861,24.229-3.861
	l6.056-5.898"/>
<path fill="none" stroke="#000000" stroke-width="2" stroke-miterlimit="10" d="M122.512,389.035l0.802,0.01
	c0,0,19.479,2.824,17.119,37.579c0.787,10.426-1.049,108.03-2.099,157.266c-0.175,8.882-1.398,28.576,26.058,19.309
	c7.346-1.352,19.063-12.745,35.853,15.832c6.646,5.406,17.314,21.238,39.875,6.951c7.521-4.441,20.461-8.88,17.314-29.733
	c-1.398-9.654-30.01-163.529-43.372-203.51c-1.355-4.924-1.88-16.557-11.194-27.031"/>
<path fill="none" stroke="#000000" stroke-width="2" stroke-miterlimit="10" d="M226.341,370.94l0.661,1.716
	c0,0,8.395,30.7,13.991,64.875c1.399,8.495,9.558,16.467-10.96,19.433"/>
<path fill="none" stroke="#000000" stroke-width="2" stroke-miterlimit="10" d="M128.552,391.235l-27.471,6.135
	c0,0,16.44,51.36,6.646,73.758c1.049,3.089,2.986,3.476,7.089,3.476c4.103,0,25.523-2.697,25.523-2.697"/>
<path fill="none" stroke="#000000" stroke-width="2" stroke-miterlimit="10" d="M104.25,408.618c0,0-17.86-5.069-27.653-4.683
	c-4.198,0.772-16.091-3.476-1.75,12.743c4.197,3.089,14.585,8.882-6.873,12.358c-3.97,0.386-16.912-3.09-8.167,15.833
	c4.198,8.109,12.805,26.452,50.824,13.033"/>
<path fill="none" stroke="#000000" stroke-width="2" stroke-miterlimit="10" d="M120.71,474.604c0,0-16.575,140.918,17.576,113.903"
	/>
<path fill="none" stroke="#000000" stroke-width="2" stroke-miterlimit="10" d="M233.803,474.604c0,0,56.946-5.406,74.784-1.352
	c4.198,1.448,16.004-1.158,16.791,24.328c-0.524,6.951,7.345,36.782-23.873,38.23c-9.181,1.448-55.092,1.283-55.092,1.283"/>
<line fill="none" stroke="#000000" stroke-width="2" stroke-miterlimit="10" x1="238.134" y1="421.491" x2="309.549" y2="421.491"/>
<path fill="none" stroke="#000000" stroke-width="2" stroke-miterlimit="10" d="M311.375,355.03l-0.252,1.793
	c0,0-1.223,70.089-0.698,79.937c0.524,4.055-2.099,22.591,9.269,21.143c4.022-0.677,10.494,1.834,11.544-16.702
	c1.746-6.758,8.395-59.663,8.395-73.951c0.697-6.565,2.344-22.351-20.865-20.636"/>
<path fill="none" stroke="#000000" stroke-width="2" stroke-miterlimit="10" d="M339.959,369.567c0,0,28.966,24.908,41.559,27.514
	c6.82,1.738,41.449,14.605,47.482,17.73c2.623,0.806,10.231,1.385,10.231,1.385"/>
<path fill="none" stroke="#000000" stroke-width="2" stroke-miterlimit="10" d="M429,414.811c0,0-7.521,5.729-6.82,36.623
	c0.349,4.635,3.498,15.447-12.942,13.13c-5.248,0-39.866-4.634-49.84-16.219c-3.326-3.476-12.072-11.585-8.574,5.02"/>
<path fill="none" stroke="#000000" stroke-width="2" stroke-miterlimit="10" d="M422.039,460.506c0,0,9.584,5.858,17.192,4.379
	l1.091-0.349"/>
<path fill="none" stroke="#000000" stroke-width="2" stroke-miterlimit="10" d="M334.283,421.491l8.146,8.317
	c0,0,12.592,13.902,29.382,137.86c1.573,24.329,11.019,77.619-6.821,75.882c0,0-84.473,15.64-100.212,10.426
	c0-0.578-18.364-1.927-71.355,1.064c-2.099-1.064-14.166-7.185-11.018-23.239c0-14.896,1.943-30.281,1.943-30.281"/>
<path fill="none" stroke="#000000" stroke-width="2" stroke-miterlimit="10" d="M203.654,655.041c0,0,2.361,33.113,24.747,30.023
	c7.695-0.772,25.103,0.967,29.516-30.023l0.429-1.699"/>
<path fill="none" stroke="#000000" stroke-width="2" stroke-miterlimit="10" d="M304.941,652.788c0,0,7.016,44.632,35.017,36.138
	c8.417-3.861,23.049-5.257,19.229-44.334"/>
<path fill="none" stroke="#000000" stroke-width="2" stroke-miterlimit="10" d="M208.923,673.908c0,0-71.816,43.594,6.536,41.276
	c18.188,0,41.799,6.952,39.525-14.287c-0.874-8.109-2.956-20.067-6.024-23.261"/>
<path fill="none" stroke="#000000" stroke-width="2" stroke-miterlimit="10" d="M316.795,681.494c0,0-11.618,31.855,19.863,32.146
	c14.69,1.158,14.428,1.448,27.808,0c9.707-1.737,16.002-4.634,24.66-3.765c6.295-2.028,13.116,2.289-2.1-14.785
	c-6.034-6.937-22.949-24.689-27.216-24.936l-1.328-0.21"/>
<path fill="none" stroke="#000000" stroke-width="2" stroke-miterlimit="10" d="M465.728,447.766c0,0-0.524-11.392-11.019-17.957
	c-7.346-1.932-14.166-3.282-15.478,8.979c1.18,7.819-3.411,10.86,12.461,14.48C456.939,454.426,465.859,457.178,465.728,447.766z"/>
<path fill="none" stroke="#000000" stroke-width="2" stroke-miterlimit="10" d="M466.834,429.365l3.497,15.446
	c0,0,15.566,0.386,15.217-15.446c-1.05-3.669-4.542-7.724-9.354-6.951C472.431,424.151,466.156,426.366,466.834,429.365z"/>
<path fill="none" stroke="#000000" stroke-width="2" stroke-miterlimit="10" d="M446.315,396.985c0,0-33.578,66.035,16.79,88.431
	c-0.351-10.427-2.45-29.541-2.45-29.541l-0.172-1.369"/>
<line fill="none" stroke="#000000" stroke-width="2" stroke-miterlimit="10" x1="457.333" y1="406.639" x2="458.871" y2="433.115"/>
<path fill="none" stroke="#000000" stroke-width="2" stroke-miterlimit="10" d="M458.423,405.504l0.448,1.134l22.771,78.777
	c0,0,41.974-42.864-18.537-94.997"/>
<ellipse fill="none" stroke="#000000" stroke-width="2" stroke-miterlimit="10" cx="454.709" cy="395.633" rx="8.396" ry="11.006"/>
<path fill="none" stroke="#000000" stroke-width="2" stroke-miterlimit="10" d="M454.889,384.632l-0.18-2.322l-12.592-131.007
	c0,0,25.534,2.414,31.13,72.31c-0.351,15.061-4.372,50.588-10.143,66.807"/>
<path fill="none" stroke="#000000" stroke-width="2" stroke-miterlimit="10" d="M449.899,386.614l-0.672-1.986L405.74,260.668
	c0,0-21.337,21.625-4.549,64.103c4.549,11.199,28.435,63.734,45.122,68.11"/>
<path fill="none" stroke="#000000" stroke-width="2" stroke-miterlimit="10" d="M241.693,329.02c0,0,27.546,2.606,41.712-7.241
	c3.935-0.579,14.952-4.054,6.82,13.033c-3.935,7.82-19.971,37.941-52.091,19.694c-7.197-6.372-14.542-12.454-18.478-23.749
	c-0.787-3.186-2.098-5.069,3.935-3.983C229.363,327.861,241.693,329.02,241.693,329.02z"/>
<g>
	<path d="M203.567,270.709c0,0,0.251-0.474,0.781-1.25c0.53-0.774,1.343-1.851,2.48-3.011c1.124-1.17,2.596-2.415,4.409-3.453
		c0.921-0.489,1.91-0.967,2.998-1.267c1.089-0.283,2.244-0.462,3.419-0.422c1.165,0.094,2.338,0.318,3.385,0.792
		c0.543,0.192,1.012,0.516,1.501,0.779c0.444,0.328,0.9,0.631,1.303,0.974c0.382,0.365,0.794,0.688,1.125,1.068
		c0.325,0.381,0.643,0.754,0.952,1.117c0.555,0.767,1.072,1.492,1.447,2.217c0.425,0.695,0.729,1.375,0.991,1.977
		c0.286,0.59,0.481,1.126,0.629,1.573c0.308,0.887,0.464,1.396,0.464,1.396s-0.311-0.441-0.819-1.217
		c-0.244-0.394-0.562-0.857-0.94-1.375c-0.367-0.524-0.783-1.11-1.277-1.711c-0.463-0.627-1.049-1.224-1.625-1.883
		c-0.316-0.297-0.641-0.602-0.973-0.914c-0.339-0.301-0.707-0.57-1.065-0.866c-0.371-0.276-0.778-0.503-1.17-0.76
		c-0.429-0.179-0.829-0.44-1.273-0.588c-0.865-0.374-1.808-0.517-2.746-0.583c-1.897-0.105-3.814,0.47-5.521,1.253
		c-0.839,0.426-1.661,0.846-2.401,1.329c-0.74,0.477-1.435,0.952-2.058,1.421c-1.245,0.941-2.25,1.795-2.939,2.414
		C203.952,270.336,203.567,270.709,203.567,270.709z"/>
</g>
<g>
	<path d="M274.922,271.481c0,0,0.163-0.556,0.55-1.493c0.389-0.935,1.003-2.255,1.94-3.737c0.921-1.489,2.182-3.144,3.867-4.647
		c0.865-0.724,1.812-1.443,2.909-1.986c1.104-0.529,2.321-0.912,3.591-1.061c1.279-0.103,2.559,0.076,3.751,0.421
		c1.172,0.394,2.246,0.96,3.168,1.624c0.95,0.635,1.732,1.397,2.444,2.124c0.339,0.377,0.67,0.745,0.989,1.1
		c0.296,0.372,0.561,0.748,0.824,1.098c0.546,0.688,0.941,1.388,1.313,1.988c0.387,0.592,0.66,1.146,0.888,1.599
		c0.456,0.904,0.697,1.426,0.697,1.426s-0.387-0.435-1.028-1.206c-0.315-0.389-0.703-0.856-1.174-1.367
		c-0.468-0.512-0.967-1.111-1.573-1.699c-0.299-0.297-0.599-0.618-0.928-0.927c-0.334-0.3-0.681-0.609-1.036-0.928
		c-0.729-0.605-1.519-1.215-2.38-1.733c-0.848-0.553-1.805-0.921-2.764-1.25c-0.979-0.257-1.995-0.375-3.005-0.28
		c-1.008,0.102-2.004,0.386-2.943,0.81c-0.928,0.452-1.817,0.992-2.63,1.605c-0.794,0.639-1.556,1.286-2.227,1.966
		c-0.665,0.684-1.289,1.349-1.831,1.996c-1.089,1.292-1.939,2.438-2.518,3.255C275.238,270.996,274.922,271.481,274.922,271.481z"/>
</g>
<path d="M210.737,296.292c0,0-1.049-14.771,9.444-14.771c3.673,0.145,8.919-0.869,11.936,9.847c0.394,3.331-0.524,7.965-4.59,3.331
	c-1.443-1.593-6.297-11.585-11.543,1.014C215.721,298.319,212.836,302.374,210.737,296.292z"/>
<path d="M277.37,294.188c0,0,6.994-25.99,23.086-5.716c0.876,5.406,0.701,12.357-4.897,6.95c-1.748-3.281-6.821-10.232-11.367,0.194
	C283.493,298.126,275.971,301.449,277.37,294.188z"/>
</svg>
