<?xml version="1.0" encoding="utf-8"?>
<!-- Generator: Adobe Illustrator 16.0.0, SVG Export Plug-In . SVG Version: 6.00 Build 0)  -->
<!DOCTYPE svg PUBLIC "-//W3C//DTD SVG 1.1//EN" "http://www.w3.org/Graphics/SVG/1.1/DTD/svg11.dtd">
<svg version="1.1" id="Layer_1" xmlns="http://www.w3.org/2000/svg" xmlns:xlink="http://www.w3.org/1999/xlink" x="0px" y="0px"
	 width="552px" height="859px" viewBox="0 0 552 859" enable-background="new 0 0 552 859" xml:space="preserve">
<rect fill="#FFFFFF" stroke="#000000" stroke-miterlimit="10" width="552" height="859"/>
<path fill="none" stroke="#010101" stroke-width="2" stroke-miterlimit="10" d="M206.77,148.534
	c11.777,0.728,20.281,14.94,18.992,31.741c-1.287,16.801-11.88,29.832-23.659,29.104c-11.778-0.729-20.281-14.94-18.992-31.741
	C184.397,160.835,194.99,147.806,206.77,148.534z"/>
<ellipse fill="#010101" cx="211.361" cy="173.383" rx="8.803" ry="13.177"/>
<ellipse fill="#FFFFFF" cx="211.947" cy="171.426" rx="4.36" ry="5.647"/>
<g>
	<path fill="#010101" d="M176.318,155.387c0,0,0.624-0.727,1.829-1.894c1.206-1.165,3.004-2.761,5.334-4.467
		c1.167-0.849,2.457-1.743,3.885-2.588c1.412-0.873,2.965-1.695,4.609-2.473c1.663-0.734,3.394-1.495,5.241-2.029
		c1.83-0.583,3.749-0.999,5.688-1.296c0.978-0.101,1.95-0.241,2.932-0.247c0.49-0.013,0.978-0.044,1.465-0.042
		c0.488,0.02,0.974,0.039,1.458,0.058c0.971-0.001,1.922,0.195,2.865,0.304c0.936,0.163,1.85,0.388,2.747,0.594
		c0.875,0.292,1.756,0.518,2.577,0.852c0.809,0.363,1.62,0.669,2.367,1.056c0.736,0.407,1.462,0.782,2.141,1.182
		c0.649,0.444,1.277,0.874,1.879,1.286c0.603,0.408,1.116,0.886,1.632,1.299c0.505,0.427,0.996,0.815,1.399,1.247
		c0.823,0.841,1.583,1.523,2.103,2.188c1.063,1.295,1.671,2.035,1.671,2.035s-0.709-0.638-1.952-1.753
		c-0.591-0.584-1.438-1.15-2.317-1.888c-0.436-0.375-0.956-0.702-1.489-1.062c-0.542-0.345-1.068-0.772-1.684-1.112
		c-0.61-0.345-1.245-0.705-1.903-1.077c-0.681-0.32-1.384-0.651-2.107-0.991c-0.729-0.323-1.515-0.563-2.294-0.859
		c-0.793-0.257-1.622-0.457-2.452-0.696c-0.85-0.16-1.71-0.34-2.59-0.459c-0.442-0.042-0.887-0.085-1.334-0.128
		c-0.445-0.062-0.896-0.086-1.35-0.089l-1.364-0.039c-0.457,0.004-0.915,0.04-1.374,0.058c-0.919,0.014-1.834,0.164-2.752,0.263
		c-1.83,0.259-3.653,0.627-5.405,1.164c-1.762,0.5-3.461,1.128-5.086,1.788c-1.605,0.708-3.165,1.394-4.589,2.163
		c-1.433,0.749-2.765,1.51-3.979,2.242C179.275,152.937,176.318,155.387,176.318,155.387z"/>
</g>
<path fill="none" stroke="#010101" stroke-width="2" stroke-miterlimit="10" d="M296.754,152.134
	c11.779,0.729,20.283,14.94,18.994,31.741c-1.289,16.802-11.882,29.832-23.658,29.103c-11.78-0.729-20.284-14.939-18.995-31.741
	C274.384,164.435,284.977,151.405,296.754,152.134z"/>
<ellipse fill="#010101" cx="301.35" cy="176.979" rx="8.802" ry="13.177"/>
<ellipse fill="#FFFFFF" cx="301.935" cy="175.022" rx="4.36" ry="5.647"/>
<g>
	<path fill="#010101" d="M274.655,150.417c0,0,0.71-0.548,2.054-1.363c1.348-0.802,3.323-1.897,5.842-2.894
		c1.252-0.518,2.645-0.992,4.14-1.43c1.503-0.404,3.101-0.826,4.794-1.056c1.686-0.264,3.453-0.442,5.256-0.441
		c1.803-0.022,3.637,0.133,5.455,0.398c0.905,0.154,1.805,0.356,2.694,0.567c0.874,0.272,1.771,0.46,2.611,0.803
		c0.853,0.305,1.697,0.612,2.487,1.017c0.4,0.189,0.799,0.376,1.194,0.563c0.38,0.215,0.757,0.428,1.131,0.64
		c0.372,0.215,0.748,0.416,1.106,0.637c0.349,0.238,0.693,0.473,1.034,0.706c0.338,0.235,0.673,0.467,1.004,0.697
		c0.313,0.253,0.621,0.503,0.926,0.75c1.249,0.947,2.273,2.021,3.239,2.972c0.896,1.022,1.759,1.916,2.388,2.82
		c0.657,0.881,1.249,1.628,1.647,2.309c0.825,1.333,1.297,2.094,1.297,2.094s-0.586-0.673-1.612-1.852
		c-0.482-0.61-1.178-1.258-1.909-2.048c-0.716-0.807-1.663-1.579-2.606-2.495c-1.024-0.831-2.097-1.771-3.343-2.607
		c-0.305-0.217-0.614-0.436-0.928-0.658c-0.329-0.198-0.662-0.397-0.999-0.6c-0.335-0.204-0.673-0.41-1.015-0.618
		c-0.348-0.195-0.712-0.371-1.071-0.56c-0.36-0.186-0.724-0.374-1.09-0.563c-0.38-0.161-0.762-0.322-1.146-0.484
		c-0.76-0.346-1.561-0.611-2.362-0.894c-0.791-0.313-1.638-0.475-2.461-0.722c-0.838-0.188-1.685-0.363-2.536-0.501
		c-1.705-0.27-3.432-0.441-5.14-0.442c-0.854-0.023-1.701,0.03-2.54,0.042c-0.836,0.07-1.667,0.095-2.478,0.211
		c-1.626,0.173-3.188,0.46-4.666,0.758c-1.467,0.343-2.859,0.676-4.124,1.066c-2.537,0.754-4.603,1.57-6.04,2.167
		C275.455,150.012,274.655,150.417,274.655,150.417z"/>
</g>
<path fill="none" stroke="#010101" stroke-width="2" stroke-miterlimit="10" d="M97.095,158.7c0,0-14.083-63.852,32.192-89.603
	c2.516-4.066,3.517-18.523-17.104-16.716c7.547-10.392,23.643-17.168,58.351-5.874c6.036,2.259,133.295-20.781,182.589,50.6
	c8.552,17.619,12.912,44.125,1.51,68.671c-12.072-4.97-33.534-31.173-31.187-47.438c-18.443,10.843-52.648,14.759-68.409,9.638
	c-14.754-3.614-10.729,3.012-10.396,10.842c-5.7-0.904-49.63-43.973-76.121-17.77c-2.682,5.12-4.024,19.277-16.766-0.602
	c-5.03,9.338-10.73,60.405-42.588,58.515C105.479,172.555,107.491,156.291,97.095,158.7z"/>
<path fill="none" stroke="#010101" stroke-width="2" stroke-miterlimit="10" d="M97.095,158.7c0,0-49.294,2.711-16.096,45.48
	c5.03,6.626,15.09,11.038,23.808,8.832c0,2.915,15.929,93.723,125.332,94.175c26.408,0.452,97.332,1.355,129.021-81.772
	c5.029-1.355,21.629-6.1,26.408-34.11c-0.252-9.036-4.779-29.14-30.936-25.525"/>
<path fill="none" stroke="#010101" stroke-width="2" stroke-miterlimit="10" d="M357.901,175.943c0,0,6.288,17.168,2.013,34.109
	C370.478,205.31,388.082,172.781,357.901,175.943z"/>
<g>
	<path fill="#010101" d="M232.236,230.383c0,0,0.471,0.394,1.341,1.001c0.866,0.611,2.13,1.434,3.709,2.275
		c0.791,0.417,1.662,0.834,2.597,1.227c0.932,0.404,1.948,0.733,2.994,1.056c1.051,0.316,2.164,0.521,3.29,0.708
		c1.132,0.152,2.29,0.258,3.448,0.216c1.158,0.019,2.314-0.111,3.444-0.284c0.563-0.093,1.116-0.23,1.67-0.327
		c0.545-0.145,1.083-0.289,1.612-0.43c0.521-0.177,1.034-0.352,1.535-0.522c0.5-0.18,0.977-0.39,1.45-0.576
		c0.479-0.174,0.908-0.427,1.349-0.62c0.438-0.2,0.863-0.393,1.251-0.618c0.787-0.428,1.522-0.809,2.142-1.203
		c0.627-0.381,1.192-0.697,1.626-1.001c0.889-0.581,1.416-0.903,1.416-0.903s-0.413,0.448-1.167,1.214
		c-0.37,0.392-0.855,0.827-1.428,1.312c-0.556,0.508-1.231,1.021-1.988,1.561c-0.748,0.551-1.609,1.084-2.548,1.601
		c-0.477,0.244-0.96,0.513-1.471,0.755c-0.517,0.23-1.054,0.446-1.601,0.668c-0.561,0.185-1.132,0.374-1.709,0.564
		c-0.591,0.148-1.187,0.32-1.801,0.426c-1.228,0.212-2.492,0.38-3.764,0.381c-1.272,0.019-2.54-0.119-3.771-0.311
		c-1.23-0.212-2.413-0.55-3.526-0.942c-2.225-0.798-4.147-1.889-5.653-2.983c-1.519-1.082-2.635-2.159-3.366-2.948
		C232.583,230.891,232.236,230.383,232.236,230.383z"/>
</g>
<path fill="none" stroke="#010101" stroke-width="2" stroke-miterlimit="10" d="M209.098,262.008c0,0,41.583,14.457,59.69,4.216
	C258.393,278.272,230.56,299.958,209.098,262.008z"/>
<path fill="none" stroke="#010101" stroke-width="2" stroke-miterlimit="10" d="M190.321,302.383c0,0,59.663,32.243,88.097,0"/>
<path fill="none" stroke="#010101" stroke-width="2" stroke-miterlimit="10" d="M172.883,296.592c0,0-85.345,17.372-89.369,90.561
	c4.527,5.874,34.707,21.686,49.797,14.005c3.018-4.066,14.084-27.107,19.617-30.269c-2.515,10.843,3.857,99.245,12.575,114.904
	c10.73,4.217,72.432,16.264,87.859,12.047"/>
<path fill="none" stroke="#010101" stroke-width="2" stroke-miterlimit="10" d="M165.503,485.792c0,0-40.911,79.516-30.85,136.741
	c-8.048,4.817-65.055,42.771,7.378,41.564c24.814,2.408,70.42,4.817,51.643-30.121c0,0,9.557-72.437,38.731-104.062
	c11.065,11.295,35.713,33.885,37.222,103.911c-3.521,7.68-25.15,33.17,32.192,31.494c24.645-1.225,86.515,2.39,33.196-40.078
	c-1.006-11.295-1.006-46.534-7.042-61.442"/>
<path fill="none" stroke="#010101" stroke-width="2" stroke-miterlimit="10" d="M269.564,631.58c0,0,49.018,1.812,65.282-8.588"/>
<path fill="none" stroke="#010101" stroke-width="2" stroke-miterlimit="10" d="M134.653,622.533c0,0,44.935,14.759,59.018,11.443"
	/>
<path fill="none" stroke="#010101" stroke-width="2" stroke-miterlimit="10" d="M89.75,392.09c0,0-8.249,47.92-10.763,56.504
	c-2.516,6.776,3.018,6.475-16.6,23.493c-6.036,6.928-8.854,28.912,13.681,5.571c-4.291,5.271-12.339,26.502-4.124,31.624
	c5.366,0.453,9.39-7.074,14.923-23.491c-3.185,12.8-9.054,26.202-0.336,28.763c5.869-0.451,10.396-9.788,14.419-26.805
	c-3.018,16.415,8.215,50.449,12.912-12.8c8.047,5.12,41.916,3.916,1.676-11.445c1.006-10.843,13-24.698,12.618-60.69"/>
<path fill="none" stroke="#010101" stroke-width="2" stroke-miterlimit="10" d="M161.46,472.994c0,0,92.788,22.142,141.723,0"/>
<path fill="none" stroke="#010101" stroke-width="2" stroke-miterlimit="10" d="M295.612,548.54c0,0-3.992-37.963,10.412-1.525"/>
<path fill="none" stroke="#010101" stroke-width="2" stroke-miterlimit="10" d="M307.865,546.682c0,0-2.671-50.779,9.599-2.148"/>
<path fill="none" stroke="#010101" stroke-width="2" stroke-miterlimit="10" d="M321.262,543.44c0,0-9.972-47.109,7.549-2.983"/>
<path fill="none" stroke="#010101" stroke-width="2" stroke-miterlimit="10" d="M257.188,492.026l-3.823,0.844
	c0,0-0.002,0.177-0.002,0.517c0,0.236,0.002,0.556,0.005,0.952c0.104,11.133,2.159,81.596,37.381,77.141
	c15.597-0.903,46.948-4.065,44.1-17.619c-5.366-12.65-6.037-13.403-6.037-13.403s-13.413,7.981-54.66,9.789
	c-1.006-40.662,9.474-0.3,9.588-0.563c0,0,2.914-40.563,8.862-0.8"/>
<path fill="none" stroke="#010101" stroke-width="2" stroke-miterlimit="10" d="M275.158,549.684"/>
<path fill="none" stroke="#010101" stroke-width="2" stroke-miterlimit="10" d="M261.074,532.516c0,0,49.667-5.762,57.361-12.086"/>
<path fill="none" stroke="#010101" stroke-width="2" stroke-miterlimit="10" d="M319.526,521.682c0,0-16.872-29.265-18.381-33.932
	c0,0,12.575-88.096,12.575-117.01c13.413-0.603,75.786-27.107,81.82-46.985c-1.341-9.639-22.8-53.614-36.549-37.35
	c-6.371,5.724-52.992,18.563-68.245,11.992"/>
<path fill="none" stroke="#010101" stroke-width="2" stroke-miterlimit="10" d="M301.147,487.75c0,0-19.114-21.234-14.924,2.108
	c3.857,18.975,4.935,20.784,7.16,25.602c8.6-1.355,12.66-2.26,14.235-5.723"/>
<path fill="none" stroke="#010101" stroke-width="2" stroke-miterlimit="10" d="M280.943,516.588c0,0-7.042-36.369-21.63-26.429
	c-4.527,3.162-1.509,13.327,6.036,26.429C269.876,519.073,276.667,519.073,280.943,516.588"/>
<path fill="none" stroke="#010101" stroke-width="2" stroke-miterlimit="10" d="M275.39,499.201c0,0-0.332-28.864,11.79-4.723"/>
<path fill="none" stroke="#010101" stroke-width="2" stroke-miterlimit="10" d="M300.563,487.125c0,0,4.369,13.877,7.055,22.612
	c0,0-0.717,1.28-1.132,1.668"/>
<path fill="none" stroke="#010101" stroke-width="2" stroke-miterlimit="10" d="M371.975,284.985c0,0,40.504-29.076,43.02-32.917
	c-1.259-9.939-1.419-33.056,5.873-25.602"/>
<line fill="none" stroke="#010101" stroke-width="2" stroke-miterlimit="10" x1="394.622" y1="316.713" x2="432.096" y2="282.83"/>
<path fill="none" stroke="#010101" stroke-width="2" stroke-miterlimit="10" d="M462.526,232.98c0,0-31.939-1.919-23.39,10.053
	c3.521,2.937,7.546,4.292,7.546,4.292s-15.735,3.84-9.002,14.683c4.978,0.903,7.743,1.129,8.498,1.129s-17.604,7.681-8.048,14.458
	c7.293-0.226,37.977-11.295,18.611-15.586c7.042-3.163,15.825-14.875,2.012-15.135C466.048,241.903,471.078,234.447,462.526,232.98z
	"/>
<path fill="none" stroke="#010101" stroke-width="2" stroke-miterlimit="10" d="M449.198,274.878c0,0-15.431,19.044-31.524,0
	c-7.838-13.886,10.397-77.475,10.397-77.475s-14.587-11.52-6.287-30.496c6.538-14.457,27.664-26.654,43.257-18.748
	c12.828,8.131,20.372,18.975,14.085,36.368c-5.533,11.973-9.808,15.587-18.359,21.459c0.251,5.421-3.773,26.881-3.773,26.881"/>
<ellipse fill="none" stroke="#010101" stroke-width="2" stroke-miterlimit="10" cx="453.599" cy="164.302" rx="21" ry="16.368"/>
<path fill="none" stroke="#010101" stroke-width="2" stroke-miterlimit="10" d="M97.095,173.383c0,0-0.502,20.406,2.767,24.247
	C90.053,192.208,70.185,177.375,97.095,173.383z"/>
<path fill="none" stroke="#010101" stroke-width="2" stroke-miterlimit="10" d="M280.837,516.076c0,0,0.858,1.073-1.843,1.414"/>
</svg>
