<?xml version="1.0" encoding="utf-8"?>
<!-- Generator: Adobe Illustrator 16.0.0, SVG Export Plug-In . SVG Version: 6.00 Build 0)  -->
<!DOCTYPE svg PUBLIC "-//W3C//DTD SVG 1.1//EN" "http://www.w3.org/Graphics/SVG/1.1/DTD/svg11.dtd">
<svg version="1.1" id="Layer_1" xmlns="http://www.w3.org/2000/svg" xmlns:xlink="http://www.w3.org/1999/xlink" x="0px" y="0px"
	 width="552px" height="859px" viewBox="0 0 552 859" enable-background="new 0 0 552 859" xml:space="preserve">
<rect fill="#FFFFFF" stroke="#000000" stroke-miterlimit="10" width="552" height="859"/>
<ellipse fill="none" stroke="#010101" stroke-width="2" stroke-miterlimit="10" cx="350.204" cy="198.014" rx="22.488" ry="27.192"/>
<ellipse fill="none" stroke="#010101" stroke-width="2" stroke-miterlimit="10" cx="258.993" cy="201.679" rx="22.49" ry="27.192"/>
<ellipse fill="#010101" cx="342.077" cy="206.207" rx="8.127" ry="13.013"/>
<ellipse fill="#FDFEFF" stroke="#010101" stroke-width="2" stroke-miterlimit="10" cx="341.983" cy="211.14" rx="4.768" ry="5.71"/>
<ellipse fill="#010101" cx="250.158" cy="208.344" rx="8.834" ry="15.15"/>
<ellipse fill="#FFFFFF" stroke="#010101" stroke-width="2" stroke-miterlimit="10" cx="247.334" cy="212.714" rx="4.676" ry="6.507"/>
<g>
	<path fill="#010101" d="M224.4,183.871c0,0,2.695-3.013,7.516-6.686c1.196-0.928,2.532-1.882,3.98-2.843
		c1.454-0.952,3.004-1.938,4.679-2.839c1.663-0.921,3.425-1.807,5.269-2.593c0.92-0.397,1.87-0.749,2.817-1.115
		c0.969-0.312,1.919-0.689,2.911-0.947c0.985-0.279,1.976-0.539,2.981-0.73c0.994-0.237,2.008-0.365,3.009-0.514
		c1-0.156,2.012-0.176,3-0.253c0.997,0.023,1.979-0.021,2.944,0.062c0.963,0.106,1.917,0.118,2.829,0.335
		c0.917,0.169,1.813,0.329,2.658,0.608c0.425,0.123,0.844,0.245,1.257,0.364c0.408,0.133,0.797,0.305,1.184,0.459
		c0.772,0.31,1.515,0.61,2.182,1c0.667,0.384,1.354,0.66,1.913,1.086c0.574,0.395,1.119,0.769,1.63,1.12
		c0.971,0.771,1.781,1.482,2.431,2.078c1.204,1.288,1.893,2.023,1.893,2.023s-0.782-0.625-2.15-1.72
		c-0.711-0.505-1.594-1.091-2.601-1.747c-1.063-0.575-2.228-1.263-3.601-1.801c-0.662-0.321-1.393-0.548-2.147-0.781
		c-0.378-0.112-0.751-0.261-1.145-0.362c-0.396-0.09-0.799-0.181-1.208-0.273c-0.808-0.217-1.664-0.316-2.533-0.425
		c-0.864-0.146-1.766-0.144-2.672-0.207c-0.909-0.047-1.838,0.031-2.774,0.039c-0.934,0.116-1.884,0.155-2.832,0.308
		c-0.948,0.153-1.907,0.284-2.854,0.522c-0.955,0.191-1.898,0.455-2.839,0.729c-0.952,0.233-1.872,0.589-2.806,0.876
		c-0.917,0.343-1.837,0.67-2.732,1.044c-1.787,0.753-3.545,1.512-5.193,2.367c-1.655,0.837-3.235,1.696-4.713,2.549
		c-1.466,0.873-2.856,1.701-4.108,2.515c-2.512,1.618-4.557,3.057-5.969,4.094C225.189,183.247,224.4,183.871,224.4,183.871z"/>
</g>
<g>
	<path fill="#010101" d="M327.715,170.822c0,0,0.618-0.694,1.903-1.696c0.647-0.49,1.445-1.083,2.428-1.659
		c0.979-0.578,2.107-1.209,3.409-1.747c1.294-0.549,2.731-1.09,4.306-1.473c1.567-0.408,3.255-0.735,5.022-0.87
		c1.765-0.175,3.603-0.178,5.459-0.053c1.851,0.173,3.731,0.409,5.565,0.852c1.841,0.415,3.637,0.994,5.371,1.635
		c1.735,0.639,3.388,1.406,4.944,2.21c0.789,0.384,1.547,0.793,2.266,1.235c0.722,0.436,1.448,0.825,2.106,1.283
		c0.667,0.441,1.316,0.871,1.944,1.287c0.617,0.429,1.188,0.881,1.748,1.294c1.133,0.812,2.102,1.644,2.961,2.377
		c0.429,0.366,0.831,0.708,1.202,1.025c0.354,0.335,0.681,0.644,0.976,0.922c1.163,1.123,1.828,1.765,1.828,1.765
		s-0.756-0.53-2.079-1.457c-0.647-0.479-1.453-1.032-2.39-1.646c-0.929-0.624-1.972-1.331-3.147-2.04
		c-1.152-0.744-2.445-1.472-3.807-2.245c-0.67-0.405-1.402-0.739-2.13-1.118c-0.729-0.375-1.47-0.764-2.251-1.1
		c-1.532-0.736-3.17-1.367-4.835-1.979c-1.672-0.596-3.398-1.125-5.155-1.501c-1.742-0.446-3.524-0.69-5.278-0.877
		c-1.757-0.125-3.496-0.234-5.176-0.118c-1.679,0.081-3.299,0.271-4.816,0.569c-1.521,0.283-2.938,0.675-4.229,1.09
		c-2.58,0.85-4.633,1.869-6.022,2.665C328.447,170.252,327.715,170.822,327.715,170.822z"/>
</g>
<g>
	<path fill="#010101" d="M288.973,244.275c0,0,1.769,1.669,4.67,3.708c0.734,0.497,1.532,1.024,2.399,1.534
		c0.861,0.52,1.807,0.993,2.784,1.459c0.98,0.467,2.036,0.827,3.104,1.174c1.08,0.299,2.188,0.576,3.313,0.656
		c0.559,0.093,1.122,0.074,1.682,0.112c0.558-0.025,1.119-0.02,1.667-0.095c0.547-0.083,1.096-0.128,1.625-0.261
		c0.267-0.057,0.532-0.112,0.795-0.168c0.258-0.081,0.514-0.162,0.767-0.242c0.517-0.137,0.995-0.353,1.476-0.544
		c0.488-0.173,0.939-0.406,1.379-0.634c0.222-0.112,0.44-0.223,0.656-0.332c0.207-0.126,0.41-0.25,0.61-0.373
		c0.398-0.25,0.811-0.455,1.162-0.719c0.708-0.518,1.396-0.958,1.942-1.432c0.559-0.458,1.074-0.835,1.45-1.2
		c0.782-0.697,1.249-1.089,1.249-1.089s-0.336,0.499-0.958,1.361c-0.3,0.442-0.723,0.928-1.216,1.485
		c-0.471,0.58-1.089,1.151-1.764,1.782c-0.33,0.325-0.729,0.599-1.113,0.919c-0.385,0.324-0.816,0.612-1.274,0.892
		c-0.449,0.292-0.914,0.59-1.428,0.833c-0.5,0.27-1.025,0.517-1.586,0.712c-0.277,0.105-0.557,0.211-0.839,0.317
		c-0.291,0.081-0.584,0.162-0.879,0.243c-0.586,0.189-1.204,0.271-1.824,0.367c-0.619,0.095-1.254,0.105-1.887,0.143
		c-0.633-0.026-1.274,0.003-1.903-0.09c-1.269-0.119-2.496-0.448-3.681-0.804c-1.175-0.39-2.282-0.894-3.309-1.442
		c-2.057-1.101-3.766-2.437-5.115-3.673c-1.35-1.243-2.342-2.4-2.993-3.239C289.286,244.794,288.973,244.275,288.973,244.275z"/>
</g>
<path fill="none" stroke="#010101" stroke-width="2" stroke-miterlimit="10" d="M274.944,277.1c0,0,26.052,5.05,69.692,0
	c1.113,4.467-1.112,26.608-34.848,22.53c-12.357-2.524-21.932-6.021-34.846-20.393C274.944,277.1,274.944,277.1,274.944,277.1z"/>
<path fill="none" stroke="#010101" stroke-width="2" stroke-miterlimit="10" d="M461.757,177.268
	c10.242-59.822-24.938-81.964-31.618-85.071c-21.82-3.107-1.336-17.869,2.672-22.142c-22.266-8.546-49.43-4.273-55.391,1.165
	c-22.882-25.249-40.798-20.976-49.705-18.646c6.234,8.546-1.336,12.819-6.012,15.15c-15.363-1.166-83.497,8.545-109.771,15.926
	C160.274,101.519,195.9,188.144,195.9,188.144s22.711,8.157,23.602-34.961c0-15.927-3.117-25.25-3.117-25.25
	s24.938,20.977,62.344,18.257c-0.891,6.215-2.226,10.1,4.898,12.819c3.563-2.719,13.806-17.869,25.384-15.538
	c-0.891,5.827-3.117,11.265,0.445,14.761c5.344-2.719,79.712-44.672,79.267-12.042c7.126-1.165,15.142,0,15.142-8.935
	c5.789,11.654,8.015,11.533,14.25,37.231c8.017,15.21,20.931,24.921,31.618,18.706c2.672-5.438-5.49-19.682,21.821-14.89
	c6.235,2.331,22.411,9.517,8.16,34.411c-5.935,8.061-10.391,15.447-26.719,16.156c0,0-3.045,70.371-106.245,88.239
	c-11.465,2.331-76.482,13.596-125.022-30.688c-10.243-10.1-28.056-38.263-30.282-46.809c-8.461-2.719-23.824-10.877-24.27-36.32
	c1.559-6.993,6.171-22.35,27.102-19.437"/>
<path fill="none" stroke="#010101" stroke-width="2" stroke-miterlimit="10" d="M460.421,188.921c0,0,24.639-2.072,14.842,15.278
	c-4.747,6.475-10.393,12.948-16.031,13.725C459.53,210.934,465.764,192.805,460.421,188.921z"/>
<path fill="none" stroke="#010101" stroke-width="2" stroke-miterlimit="10" d="M195.455,193.194c0,0-8.339,13.623-3.563,35.677
	C183.431,222.328,164.282,194.748,195.455,193.194z"/>
<path fill="none" stroke="#010101" stroke-width="2" stroke-miterlimit="10" d="M269.436,313.478c0,0-11.636,12.178-9.409,19.559
	c11.579,1.166,32.509,2.719,32.509,2.719l-12.024,23.695l40.079,25.639l40.524-23.307l-12.915-24.862l33.846-4.662
	c0,0-2.078-14.382-11.061-20.786"/>
<polyline fill="none" stroke="#010101" stroke-width="2" stroke-miterlimit="10" points="306.307,319.872 320.893,355.956 
	334.884,318.964 "/>
<ellipse fill="none" stroke="#010101" stroke-width="2" stroke-miterlimit="10" cx="320.995" cy="401.988" rx="5.304" ry="5.244"/>
<ellipse fill="none" stroke="#010101" stroke-width="2" stroke-miterlimit="10" cx="320.995" cy="423.935" rx="5.304" ry="4.273"/>
<path fill="none" stroke="#010101" stroke-width="2" stroke-miterlimit="10" d="M239.133,299.662c0,0-56.815,28.131-63.94,44.64
	c1.781,5.439,29.391,32.63,30.727,40.789c3.34-1.36,28.13-11.654,33.213-18.257c0.854,5.632,19.706,77.95,8.424,142.173
	c14.25,1.555,64.81,1.036,87.327,6.217c20.146,2.59,76.554,4.66,87.834-4.662c1.187-7.252-9.502-69.922-9.502-69.922"/>
<path fill="none" stroke="#010101" stroke-width="2" stroke-miterlimit="10" d="M402.554,298.325c0,0,68.555,18.785,87.259,67.73
	c-8.461,10.1-23.158,16.703-54.329,22.919c-3.563-4.273-15.142-11.654-15.142-17.869c-4.008,8.545-6.295,25.671-6.295,29.556"/>
<path fill="none" stroke="#010101" stroke-width="2" stroke-miterlimit="10" d="M486.563,369.467c0,0,25.293,51.75-34.825,64.18
	c-17.146,4.273-98.861,19.422-69.692,0c-7.571,0.194-17.933-3.884-3.735-9.711c-6.952-0.194-15.859-3.885-3.391-9.129
	c-11.578,0.583-36.294,3.691-33.398-3.69c4.007-7.38,21.598-7.575,39.188-9.129c-6.68-4.467-10.466-8.74-6.012-13.984
	c1.336-1.166,2.895,1.166,20.04,12.236c10.02,1.166,45.118,2.204,44.378-12.009"/>
<path fill="none" stroke="#010101" stroke-width="2" stroke-miterlimit="10" d="M250.499,509.265c0,0-3.535,37.553-18.378,64.485
	c-3.563,12.43-5.344,45.577,0,51.792c1.781,1.555,23.749,3.625,33.25,6.216c9.501,2.59,29.856,3.626,33.631-2.071
	c-0.38-4.662-2.756-69.404,35.839-96.336c8.906,13.983,40.379,65.286,36.222,100.492c12.469-0.013,23.599,2.448,36.515-3.508
	c6.531-1.684,21.227-5.698,27.016-3.497c0.445-4.53,7.077-71.308-16.057-113.992"/>
<path fill="none" stroke="#010101" stroke-width="2" stroke-miterlimit="10" d="M234.625,626.381c0,0-53.421,32.18-13.342,36.842
	c15.586,1.166,70.825,5.05,77.717-4.662c5.112-9.711,4.302-20.405-3.756-26.323"/>
<path fill="none" stroke="#010101" stroke-width="2" stroke-miterlimit="10" d="M373.738,633.876c0,0-21.976,24.297,10.088,29.476
	c15.437,2.33,70.357,8.287,76.296-6.992c0.891-9.323-8.106-22.927-27.356-29.979"/>
<path fill="none" stroke="#010101" stroke-width="2" stroke-miterlimit="10" d="M50.864,373.436l25.69-21.365l47.204,25.25
	c0,0,16.477,41.953,12.024,55.548c-4.899-1.554-16.223-7.802-16.223-7.802"/>
<path fill="none" stroke="#010101" stroke-width="2" stroke-miterlimit="10" d="M50.726,373.436l26.719,23.307
	c-2.003,5.827,9.129,8.935,9.129,8.935s1.559,10.877,10.688,7.963c-0.223,3.108,4.008,12.237,10.911,7.77
	c0.445,2.136,5.566,16.12,13.582-0.194c1.558-9.129-2.227-21.56-11.133-7.576c2.004-9.322,2.227-26.803-11.133-6.214
	c3.563-10.489,3.563-25.638-9.797-7.381c2.895-6.604,5.566-24.861-12.246-3.302"/>
<path fill="none" stroke="#010101" stroke-width="2" stroke-miterlimit="10" d="M76.554,352.071c0,0,8.906-5.309,32.211-5.697
	c12.469-2.202,16.329-2.591,18.406-4.402c3.265,2.202,48.02,26.415,48.02,26.415s12.396,22.789,4.083,54.383
	c-4.156,1.555-10.688,3.366-15.438,3.108c-5.344-0.258-22.266,3.108-28.055,6.992"/>
<path fill="none" stroke="#010101" stroke-width="2" stroke-miterlimit="10" d="M123.758,377.321c0,0,28.798,0.388,34.142-5.567
	c5.344-4.402,12.319-4.145,17.293-3.368"/>
<path fill="none" stroke="#010101" stroke-width="2" stroke-miterlimit="10" d="M155.971,357.948c0,0,19.394-7.585,22.313-8.932"/>
<path fill="none" stroke="#010101" stroke-width="2" stroke-miterlimit="10" d="M180.42,384.061c0,0,13.582-4.513,19.06-9.771"/>
</svg>
