<?xml version="1.0" encoding="utf-8"?>
<!-- Generator: Adobe Illustrator 16.0.0, SVG Export Plug-In . SVG Version: 6.00 Build 0)  -->
<!DOCTYPE svg PUBLIC "-//W3C//DTD SVG 1.1//EN" "http://www.w3.org/Graphics/SVG/1.1/DTD/svg11.dtd">
<svg version="1.1" id="Layer_1" xmlns="http://www.w3.org/2000/svg" xmlns:xlink="http://www.w3.org/1999/xlink" x="0px" y="0px"
	 width="552px" height="859px" viewBox="0 0 552 859" enable-background="new 0 0 552 859" xml:space="preserve">
<rect fill="#FFFFFF" stroke="#000000" stroke-miterlimit="10" width="552" height="859"/>
<ellipse fill="none" stroke="#010101" stroke-width="2" stroke-miterlimit="10" cx="303.675" cy="208.633" rx="18.252" ry="29.05"/>
<ellipse fill="none" stroke="#010101" stroke-width="2" stroke-miterlimit="10" cx="297.437" cy="214.588" rx="6.238" ry="13.799"/>
<ellipse fill="none" stroke="#010101" stroke-width="2" stroke-miterlimit="10" cx="296.859" cy="218.51" rx="2.886" ry="6.1"/>
<ellipse fill="none" stroke="#010101" stroke-width="2" stroke-miterlimit="10" cx="370.79" cy="204.856" rx="16.75" ry="30.21"/>
<ellipse fill="none" stroke="#010101" stroke-width="2" stroke-miterlimit="10" cx="364.09" cy="211.392" rx="7.738" ry="14.67"/>
<ellipse fill="none" stroke="#010101" stroke-width="2" stroke-miterlimit="10" cx="363.628" cy="213.571" rx="2.195" ry="4.938"/>
<g>
	<path fill="#010101" d="M320.078,179.583c0,0-0.505-0.674-1.52-1.718c-0.498-0.529-1.145-1.129-1.896-1.794
		c-0.756-0.661-1.663-1.337-2.674-2.019c-1.019-0.675-2.19-1.284-3.456-1.821c-1.267-0.546-2.679-0.89-4.14-1.105
		c-1.466-0.229-3.005-0.168-4.539,0.052c-1.545,0.182-3.063,0.702-4.546,1.275c-1.468,0.63-2.907,1.359-4.24,2.235
		c-1.343,0.858-2.616,1.795-3.811,2.757c-0.585,0.499-1.161,0.989-1.724,1.468c-0.556,0.491-1.074,1.002-1.594,1.484
		c-1.053,0.95-1.941,1.962-2.829,2.834c-0.861,0.898-1.603,1.769-2.297,2.51c-0.695,0.742-1.248,1.435-1.729,1.985
		c-0.966,1.104-1.518,1.734-1.518,1.734s0.436-0.717,1.197-1.971c0.396-0.618,0.837-1.399,1.447-2.221
		c0.599-0.83,1.236-1.8,2.027-2.785c0.807-0.973,1.613-2.089,2.633-3.13c0.498-0.531,0.993-1.092,1.53-1.639
		c0.56-0.526,1.131-1.063,1.712-1.609c1.209-1.042,2.474-2.122,3.902-3.038c1.403-0.949,2.938-1.763,4.532-2.465
		c1.633-0.608,3.313-1.153,5.045-1.337c1.717-0.237,3.453-0.184,5.074,0.125c1.624,0.289,3.147,0.803,4.478,1.484
		c1.339,0.665,2.519,1.439,3.516,2.253c2.008,1.618,3.354,3.282,4.204,4.485C319.717,178.821,320.078,179.583,320.078,179.583z"/>
</g>
<g>
	<path fill="#010101" d="M354.041,174.646c0,0,0.309-0.671,1.033-1.746c0.724-1.072,1.87-2.554,3.575-4.038
		c0.859-0.731,1.849-1.471,2.995-2.114c1.151-0.627,2.444-1.183,3.857-1.532c1.415-0.341,2.935-0.483,4.467-0.391
		c1.53,0.116,3.055,0.459,4.513,0.965c0.723,0.264,1.416,0.598,2.109,0.913c0.659,0.376,1.343,0.711,1.969,1.118
		c1.273,0.787,2.404,1.716,3.484,2.616c0.513,0.479,1.017,0.95,1.509,1.411c0.491,0.463,0.912,0.97,1.353,1.433
		c0.895,0.916,1.608,1.891,2.306,2.753s1.24,1.726,1.76,2.457c0.528,0.726,0.908,1.415,1.246,1.962
		c0.661,1.105,1.021,1.745,1.021,1.745s-0.488-0.549-1.343-1.509c-0.424-0.48-0.915-1.081-1.527-1.727
		c-0.615-0.643-1.262-1.406-2.027-2.179c-0.777-0.762-1.572-1.629-2.497-2.452c-0.888-0.866-1.903-1.676-2.926-2.54
		c-0.536-0.395-1.082-0.796-1.635-1.203c-0.557-0.397-1.158-0.733-1.734-1.122c-0.587-0.369-1.217-0.662-1.826-1
		c-0.636-0.274-1.271-0.567-1.921-0.797c-1.299-0.474-2.643-0.797-3.983-0.921c-1.34-0.086-2.672-0.071-3.939,0.183
		c-1.26,0.267-2.461,0.651-3.561,1.142c-1.087,0.517-2.082,1.096-2.969,1.692c-1.755,1.223-3.085,2.467-3.968,3.383
		C354.493,174.062,354.041,174.646,354.041,174.646z"/>
</g>
<g>
	<path fill="#010101" d="M325.624,250.754c0,0,1.37,1.25,3.532,2.846c0.544,0.395,1.142,0.805,1.777,1.222
		c0.633,0.424,1.336,0.804,2.046,1.212c1.452,0.748,3.04,1.46,4.7,1.798c0.821,0.203,1.659,0.303,2.484,0.333
		c0.412,0.008,0.82-0.013,1.227-0.015c0.4-0.051,0.806-0.056,1.193-0.14c0.777-0.143,1.531-0.321,2.229-0.57
		c0.701-0.239,1.341-0.542,1.945-0.813c0.563-0.337,1.135-0.583,1.582-0.896c0.452-0.304,0.886-0.53,1.197-0.775
		c0.648-0.46,1.04-0.717,1.04-0.717s-0.268,0.372-0.772,1.011c-0.242,0.33-0.594,0.674-0.992,1.083
		c-0.383,0.427-0.901,0.814-1.447,1.269c-0.582,0.406-1.217,0.858-1.968,1.212c-0.736,0.375-1.561,0.704-2.451,0.92
		c-0.889,0.218-1.837,0.369-2.806,0.362c-0.966-0.01-1.948-0.101-2.9-0.314c-0.948-0.226-1.87-0.537-2.734-0.92
		c-0.879-0.358-1.665-0.855-2.423-1.317c-1.487-0.978-2.728-2.067-3.684-3.088C326.467,252.426,325.624,250.754,325.624,250.754z"/>
</g>
<path fill="none" stroke="#010101" stroke-width="2" stroke-miterlimit="10" d="M320.078,289.68c0,0,12.937-8.715,30.499-5.229
	c8.315,1.163,8.601,1.188,13.051-0.823c0.637,2.13,0,21.085-21.775,23.264c-6.353,0.218-22.468-1.743-21.774-14.598
	C320.078,289.68,320.078,289.68,320.078,289.68z"/>
<path fill="none" stroke="#010101" stroke-width="2" stroke-miterlimit="10" d="M258.161,189.46c0,0,22.641,16.558,19.406-57.226
	c4.621,8.715,28.649,17.429,40.198,16.267c-0.922,8.134,1.155,14.524,5.083,14.524c2.312-1.743,10.397-20.916,17.329-15.978
	c0.23,8.135,0.002,11.754,3.004,14.592c3.236-2.68,53.141-47.416,55.218-11.104c5.313-3.195,12.707-3.195,12.244-9.586
	c1.386,10.458,12.014,71.46,30.496,58.097c-0.46-7.552,2.542-20.29,9.011-19.294c2.313-7.721,8.549-64.947-26.105-89.93
	c-3.695-1.599-5.081-7.699-0.576-12.201c4.505-4.066,6.815-5.373,6.815-5.373s-28.764-15.106-41.817-1.163
	c-4.737-7.698-20.562-26.871-34.424-20.479c1.039,1.598,6.669,15.106-7.625,20.771c-3.38,0.763-51.061-3.051-68.851,10.457
	C264.285,88.806,230.9,113.207,258.161,189.46z"/>
<path fill="none" stroke="#010101" stroke-width="2" stroke-miterlimit="10" d="M257.521,187.625c0,0-25.813-5.862-19.575,30.884
	c1.733,9.731,5.545,22.368,17.328,27.16c0.693,4.793,20.793,85.84,84.558,84.969c20.447-1.308,87.679-7.697,102.927-95.571
	c6.238-1.599,20.561-5.52,25.412-30.21c0.693-8.714-1.155-27.842-18.021-25.105"/>
<path fill="none" stroke="#010101" stroke-width="2" stroke-miterlimit="10" d="M448.763,194.109c0,0,0.235,15.977-2.308,24.401
	c1.386,4.649,1.386,4.649,1.386,4.649s13.398-4.066,13.398-18.301C461.239,195.561,456.617,185.975,448.763,194.109z"/>
<path fill="none" stroke="#010101" stroke-width="2" stroke-miterlimit="10" d="M258.854,199.046c0,0-5.083,22.658-3.234,34.279
	c-4.621-1.452-13.4-13.943-10.396-24.692C248.458,199.338,248.92,194.689,258.854,199.046z"/>
<path fill="none" stroke="#010101" stroke-width="2" stroke-miterlimit="10" d="M288.147,308.489c0,0-43.964,32.171-43.964,45.679
	c2.08,11.329,17.28,37.473,21.981,42.266c4.704-2.179,21.983-21.351,21.983-21.351s3.743,70.297-2.724,115.033
	c-4.622,36.603-12.015,99.929-12.015,99.929s71.207,2.905,90.361,8.135c17.765,3.485,63.048-1.161,73.214-7.553
	c0.461-5.229-13.308-81.919-13.308-85.986"/>
<path fill="none" stroke="#010101" stroke-width="2" stroke-miterlimit="10" d="M416.208,438.336l-0.018-1.67
	c0-2.903-2.776-48.221,2.309-53.45c3.696,6.972,14.326,17.43,14.326,17.43s44.597-14.524,35.467-31.664
	c-7.742-18.301-43.814-65.415-61.359-63.646"/>
<path fill="none" stroke="#010101" stroke-width="2" stroke-miterlimit="10" d="M346.187,368.983l8.547,18.01
	c0,0,5.315,12.49,12.938,5.81c6.006-4.649,19.175-13.944,19.175-13.944s5.084-5.809,1.386-13.363
	c-3.232-8.424-9.933-19.753-9.933-19.753s-6.698-9.295-12.706-2.615c-3.932,2.324-18.254,14.235-18.254,14.235
	S343.77,363.89,346.187,368.983z"/>
<path fill="none" stroke="#010101" stroke-width="2" stroke-miterlimit="10" d="M345.347,367.74c0,0-10.252,2.114-8.633,12.572
	c1.615,4.938,8.633,15.978,8.633,15.978s3.744,5.943,11.995-5.016"/>
<polyline fill="none" stroke="#010101" stroke-width="2" stroke-miterlimit="10" points="376.538,343.771 387.773,335.867 
	398.63,357.654 388.232,365.497 "/>
<polyline fill="none" stroke="#010101" stroke-width="2" stroke-miterlimit="10" points="310.62,324.594 306.909,340.712 
	329.782,346.76 321.925,372.904 338.1,383.595 "/>
<line fill="none" stroke="#010101" stroke-width="2" stroke-miterlimit="10" x1="339.831" y1="330.639" x2="347.34" y2="357.363"/>
<line fill="none" stroke="#010101" stroke-width="2" stroke-miterlimit="10" x1="357.342" y1="328.556" x2="356.352" y2="350.032"/>
<line fill="none" stroke="#010101" stroke-width="2" stroke-miterlimit="10" x1="384.667" y1="319.885" x2="389.581" y2="339.498"/>
<line fill="none" stroke="#010101" stroke-width="2" stroke-miterlimit="10" x1="369.06" y1="391.744" x2="396.321" y2="447.706"/>
<line fill="none" stroke="#010101" stroke-width="2" stroke-miterlimit="10" x1="381.28" y1="382.817" x2="406.933" y2="436.666"/>
<path fill="none" stroke="#010101" stroke-width="2" stroke-miterlimit="10" d="M438.227,399.484c0,0,8.344,36.82-19.9,40.088
	c-7.971-4.794-20.188-10.458-11.394,0.871c1.171,3.703,1.518,2.832-0.735,4.357c-2.254,1.524-23.739,8.932-7.624,12.637
	c-1.388,2.832-2.6,11.547,2.945,8.932c0,2.833-0.088,13.072,5.414,10.458c0.131,2.396-1.083,12.854,6.195,9.368
	c4.679-3.486,11.38-10.604,18.077-12.928c6.701-2.322,44.589-34.095,42.742-63.523c-1.848-13.746-2.514-24.459-7.493-28.398"/>
<path fill="none" stroke="#010101" stroke-width="2" stroke-miterlimit="10" d="M423.676,477.535l8.223,15.487
	c0,0-0.732,11.618-8.223,11.618c-4.254-4.646-10.548-18.445-10.548-18.445"/>
<ellipse fill="none" stroke="#010101" stroke-width="2" stroke-miterlimit="10" cx="347.456" cy="414.732" rx="2.945" ry="4.99"/>
<ellipse fill="none" stroke="#010101" stroke-width="2" stroke-miterlimit="10" cx="349.087" cy="442.187" rx="3.741" ry="4.575"/>
<ellipse fill="none" stroke="#010101" stroke-width="2" stroke-miterlimit="10" cx="350.489" cy="468.112" rx="3.552" ry="4.357"/>
<ellipse fill="none" stroke="#010101" stroke-width="2" stroke-miterlimit="10" cx="350.489" cy="494.256" rx="3.552" ry="5.229"/>
<ellipse fill="none" stroke="#010101" stroke-width="2" stroke-miterlimit="10" cx="349.536" cy="519.312" rx="3.292" ry="5.011"/>
<ellipse fill="none" stroke="#010101" stroke-width="2" stroke-miterlimit="10" cx="350.489" cy="548.397" rx="3.552" ry="4.464"/>
<ellipse fill="none" stroke="#010101" stroke-width="2" stroke-miterlimit="10" cx="352.307" cy="574.977" rx="2.773" ry="4.685"/>
<path fill="none" stroke="#010101" stroke-width="2" stroke-miterlimit="10" d="M370.675,537.395
	c0.033-0.688,35.175,5.446,41.413-1.744c4.505,10.894-0.867,43.793-14.209,45.754C384.885,580.968,369.289,564.627,370.675,537.395z
	"/>
<path fill="none" stroke="#010101" stroke-width="2" stroke-miterlimit="10" d="M291.661,535.65c0,0,27.724,9.369,41.412,2.18
	c0.868,10.24-1.905,42.266-25.124,41.83C298.246,580.313,284.73,563.757,291.661,535.65z"/>
<path fill="none" stroke="#010101" stroke-width="2" stroke-miterlimit="10" d="M284.272,590.553c0,0-3.7,53.813,0.458,59.623
	c-6.701,5.23-42.621,38.056,5.028,38.056c32.168-2.614,58.969-5.521,40.487-32.245c-0.232-9.003,2.896-52.085,8.032-61.627"/>
<path fill="none" stroke="#010101" stroke-width="2" stroke-miterlimit="10" d="M284.086,648.702c0,0,44.188,11.771,46.79,8.222"/>
<path fill="none" stroke="#010101" stroke-width="2" stroke-miterlimit="10" d="M377.245,599.342c0,0,3.48,49.075,8.332,53.805
	c-2.08,6.471-14.902,34.794,19.407,36.973c18.02,0.871,82.479,6.057,24.604-41.417c-0.346-13.922-0.633-54.976-0.633-54.976"/>
<path fill="none" stroke="#010101" stroke-width="2" stroke-miterlimit="10" d="M429.541,646.569c0,0-27.33,7.95-43.964,6.577"/>
<path fill="none" stroke="#010101" stroke-width="2" stroke-miterlimit="10" d="M247.011,362.921c0,0-18.653,20.588-43.374,16.811
	c-5.544-4.648-10.396-10.247-14.323-8.172"/>
<polyline fill="none" stroke="#010101" stroke-width="2" stroke-miterlimit="10" points="258.971,386.079 214.727,414.733 
	212.663,415.862 "/>
<path fill="none" stroke="#010101" stroke-width="2" stroke-miterlimit="10" d="M194.858,380.196c0,0-14.094,2.804-14.094,9.413
	c0.231,2.906,1.155,7.574,3.698,8.29c-0.232,4.203,0,10.883,4.851,9.431c-1.386,5.52-0.288,11.115,4.621,12.396
	c3.7,0.965,3.234,9.101,11.321,4.453c8.087-4.648,10.167-11.91,3.465-12.201c-4.389,3.195-5.197,3.777-5.197,3.777
	s8.548-8.714,5.43-11.329c-2.541-2.034-7.278-0.581-9.589,1.452c2.888-3.195,6.469-9.15,4.273-12.636
	c-0.808-1.163-6.123,0.58-8.548,2.323c3.698-3.921,4.649-7.896,4.129-12.252C198.697,378.954,195.477,380.295,194.858,380.196z"/>
<path fill="none" stroke="#010101" stroke-width="2" stroke-miterlimit="10" d="M192.686,380.727l-5.683-13.923l2.925-3.05
	l-2.925-6.681c0,0-11.783-2.614-15.479,10.893c0.578,2.906,3.465,6.972,3.465,6.972l3.697-2.034l5.269,11.652"/>
<polyline fill="none" stroke="#010101" stroke-width="2" stroke-miterlimit="10" points="211.611,418.442 225.469,450.247 
	225.469,459.398 218.162,455.477 203.081,425.266 "/>
<path fill="none" stroke="#010101" stroke-width="2" stroke-miterlimit="10" d="M126.703,418.442c0,0,90.335,57.731,95.417,73.418
	c-4.159,12.2-21.718,16.266-32.808,15.687c-12.475,0.582-35.58,11.618-38.353,19.172c-4.158-4.066-86.869-86.708-96.572-87.799
	c13.862-3.414,25.356-6.538,32.98-5.23c8.318-0.218,14.209-4.357,19.581-9.368C113.88,420.182,123.583,414.306,126.703,418.442z"/>
<path fill="none" stroke="#010101" stroke-width="2" stroke-miterlimit="10" d="M54.389,438.92c0,0,10.628,143.573,24.027,155.773
	c7.855,5.811,17.559,9.875,32.808,8.714c16.634,0.582,28.186,0.4,33.73,0.2c8.779-0.2,38.89-11.676,51.789-22.203
	c9.667-2.397,24.454-7.626,25.377-14.598s0-74.946,0-74.946"/>
<line fill="none" stroke="#010101" stroke-width="2" stroke-miterlimit="10" x1="147.262" y1="603.374" x2="150.961" y2="526.719"/>
<polyline fill="none" stroke="#010101" stroke-width="2" stroke-miterlimit="10" points="68.435,562.105 40.526,562.105 
	75.182,612.703 261.397,612.703 227.664,563.611 222.314,563.863 "/>
<polyline fill="none" stroke="#010101" stroke-width="2" stroke-miterlimit="10" points="261.397,612.703 261.397,687.068 
	75.846,687.505 75.182,612.703 "/>
<polyline fill="none" stroke="#010101" stroke-width="2" stroke-miterlimit="10" points="75.846,687.505 40.526,630.132 
	40.526,562.105 "/>
</svg>
