<?xml version="1.0" encoding="utf-8"?>
<!-- Generator: Adobe Illustrator 16.0.0, SVG Export Plug-In . SVG Version: 6.00 Build 0)  -->
<!DOCTYPE svg PUBLIC "-//W3C//DTD SVG 1.1//EN" "http://www.w3.org/Graphics/SVG/1.1/DTD/svg11.dtd">
<svg version="1.1" id="Layer_1" xmlns="http://www.w3.org/2000/svg" xmlns:xlink="http://www.w3.org/1999/xlink" x="0px" y="0px"
	 width="552px" height="859px" viewBox="0 0 552 859" enable-background="new 0 0 552 859" xml:space="preserve">
<rect fill="#FFFFFF" stroke="#000000" stroke-miterlimit="10" width="552" height="859"/>
<path fill="none" stroke="#010101" stroke-width="2" stroke-miterlimit="10" d="M175.418,260.352
	c10.299,1.837,16.436,15.208,13.707,29.866c-2.729,14.657-13.29,25.05-23.589,23.212c-10.299-1.837-16.437-15.209-13.708-29.866
	C154.557,268.907,165.117,258.514,175.418,260.352z"/>
<path fill="none" stroke="#010101" stroke-width="2" stroke-miterlimit="10" d="M248.599,263.985
	c10.299,1.838,16.437,15.21,13.708,29.867s-13.291,25.048-23.59,23.211c-10.299-1.837-16.435-15.209-13.707-29.866
	C227.738,272.541,238.3,262.148,248.599,263.985z"/>
<path fill="#010101" d="M171.044,279.083c4.168,0.881,6.336,7.085,4.841,13.856s-6.085,11.545-10.254,10.663
	s-6.337-7.086-4.842-13.856C162.283,282.975,166.876,278.202,171.044,279.083z"/>
<path fill="#010101" d="M243.763,283.798c4.17,0.882,6.337,7.085,4.843,13.856c-1.495,6.771-6.086,11.545-10.254,10.663
	c-4.17-0.882-6.337-7.085-4.843-13.856C235.003,287.689,239.594,282.916,243.763,283.798z"/>
<path fill="#FFFFFF" d="M169.777,288.828c1.768,0.562,2.327,3.649,1.25,6.896c-1.077,3.247-3.383,5.424-5.15,4.861
	c-1.768-0.562-2.325-3.649-1.249-6.896C165.704,290.443,168.009,288.266,169.777,288.828z"/>
<path fill="#FFFFFF" d="M241.871,293.636c1.768,0.562,2.327,3.649,1.249,6.896c-1.076,3.247-3.382,5.424-5.15,4.862
	c-1.766-0.562-2.326-3.65-1.249-6.896C237.798,295.25,240.104,293.074,241.871,293.636z"/>
<path fill="none" stroke="#010101" stroke-width="2" stroke-miterlimit="10" d="M100.673,200.354c0,0,112.096,36.655,227.468,17.869
	"/>
<g>
	<path fill="#010101" d="M224.348,254.763c0,0,0.811-0.456,2.301-1.114c1.491-0.654,3.667-1.503,6.368-2.265
		c2.698-0.758,5.929-1.422,9.456-1.687c1.763-0.096,3.598-0.187,5.46-0.035c0.933,0.031,1.866,0.187,2.807,0.276
		c0.931,0.175,1.879,0.283,2.803,0.522c0.928,0.22,1.85,0.462,2.748,0.781c0.913,0.269,1.782,0.654,2.653,1.01
		c0.872,0.353,1.682,0.829,2.503,1.245c0.778,0.496,1.566,0.956,2.294,1.474c0.701,0.556,1.445,1.034,2.069,1.627
		c0.62,0.596,1.275,1.126,1.818,1.736c0.542,0.61,1.098,1.176,1.579,1.771c0.456,0.613,0.896,1.205,1.318,1.773
		c0.414,0.572,0.745,1.165,1.086,1.708c0.334,0.549,0.655,1.063,0.894,1.585c0.496,1.029,0.983,1.892,1.253,2.667
		c0.578,1.521,0.909,2.39,0.909,2.39s-0.46-0.804-1.264-2.211c-0.365-0.72-0.971-1.501-1.554-2.451
		c-0.287-0.479-0.657-0.946-1.04-1.44c-0.389-0.488-0.748-1.038-1.198-1.551c-0.453-0.509-0.924-1.039-1.412-1.587
		c-0.507-0.528-1.063-1.041-1.615-1.584c-1.146-1.045-2.44-2.037-3.833-2.974c-0.702-0.46-1.458-0.861-2.201-1.299
		c-0.79-0.351-1.553-0.778-2.372-1.104c-0.82-0.322-1.635-0.675-2.497-0.914c-0.844-0.291-1.715-0.502-2.59-0.703
		c-0.865-0.238-1.762-0.348-2.639-0.526c-0.892-0.094-1.773-0.256-2.662-0.295c-1.77-0.154-3.527-0.175-5.229-0.136
		c-1.7,0.083-3.35,0.176-4.906,0.379c-1.559,0.183-3.027,0.426-4.381,0.667C227.869,253.532,224.348,254.763,224.348,254.763z"/>
</g>
<g>
	<path fill="#010101" d="M182.698,250.507c0,0-0.757-0.306-2.11-0.726c-1.353-0.417-3.298-0.961-5.663-1.379
		c-1.18-0.219-2.47-0.372-3.828-0.5c-1.361-0.119-2.798-0.13-4.275-0.1c-1.475,0.076-2.996,0.215-4.507,0.518
		c-0.765,0.108-1.507,0.344-2.266,0.514c-0.737,0.249-1.497,0.439-2.215,0.746c-0.73,0.276-1.458,0.556-2.15,0.912
		c-0.714,0.312-1.379,0.709-2.046,1.094c-0.339,0.182-0.662,0.389-0.972,0.612c-0.319,0.21-0.636,0.42-0.951,0.629
		c-0.626,0.424-1.194,0.916-1.782,1.36c-0.57,0.468-1.081,0.987-1.624,1.45c-0.53,0.478-0.991,1.006-1.473,1.488
		c-0.494,0.474-0.888,1.012-1.314,1.496c-0.42,0.489-0.837,0.956-1.181,1.448c-0.717,0.962-1.394,1.838-1.916,2.67
		c-0.542,0.819-1.039,1.524-1.384,2.143c-0.744,1.214-1.169,1.908-1.169,1.908s0.296-0.76,0.815-2.089
		c0.25-0.673,0.626-1.455,1.077-2.347c0.418-0.911,0.987-1.886,1.634-2.939c0.303-0.541,0.682-1.063,1.065-1.611
		c0.391-0.542,0.771-1.123,1.246-1.657c0.465-0.54,0.91-1.126,1.43-1.669c0.526-0.537,1.061-1.092,1.639-1.62
		c1.177-1.033,2.437-2.072,3.859-2.924c0.71-0.426,1.423-0.862,2.188-1.211c0.743-0.393,1.522-0.711,2.309-1.016
		c0.781-0.318,1.604-0.517,2.402-0.77c0.819-0.174,1.623-0.412,2.444-0.518c1.626-0.315,3.258-0.35,4.82-0.375
		c3.132,0.042,6.013,0.55,8.385,1.243c2.384,0.664,4.27,1.497,5.553,2.126C182.019,250.053,182.698,250.507,182.698,250.507z"/>
</g>
<path fill="none" stroke="#030303" stroke-width="2" stroke-miterlimit="10" d="M107.226,276.413c0,0-56.632,3.207-4.211,50.401
	c4.68,12.371,24.337,76.059,107.65,74.227c17.786-0.917,89.397-2.749,112.797-71.478c5.148-2.292,54.293-32.074,2.81-53.15
	c-10.516-4.305,2.339-49.485,1.869-58.19c0-11.454,0.471-12.371-4.212-16.037c-5.616-9.164-6.551-19.702,6.087-25.659
	c12.17-9.622,18.722-25.2,22.934-57.502c2.106-68.729-56.867-58.419-80.035-54.982c-29.487,12.371-49.847,6.873-67.398,0
	c-44.23-24.055-58.974-15.808-72.313-13.059c-40.018,13.208-32.53,98.969-25.977,104.925c7.489,11.913,6.084,26.117,0,30.24
	c-6.084,3.666-3.745,4.582-6.553,14.204C97.865,221.889,107.226,276.413,107.226,276.413s18.956-1.885,28.785-52.833
	c4.212,4.723,43.761,23.28,78.397,6.098c-3.978,6.186-8.892,13.746-3.978,16.838c4.914-0.688,54.059-33.677,66.696-3.437
	c2.809,1.031,13.34,0.688,18.254-7.216c1.053,6.186,9.479,48.454,30.892,40.55"/>
<path fill="none" stroke="#030303" stroke-width="2" stroke-miterlimit="10" d="M328.141,286.894c0,0,2.575,18.557-3.273,30.383
	C328.846,317.649,360.436,298.749,328.141,286.894z"/>
<path fill="none" stroke="#030303" stroke-width="2" stroke-miterlimit="10" d="M106.173,286.894c0,0-4.914,18.618-3.861,26.749
	C97.396,312.151,79.845,285.691,106.173,286.894z"/>
<path fill="none" stroke="#030303" stroke-width="2" stroke-miterlimit="10" d="M176.37,354.076c0,0,17.561,9.622,61.089,0
	c1.404,3.78-30.793,52.921-61.089,5.269C175.984,358.543,173.069,353.431,176.37,354.076z"/>
<g>
	<path fill="#030303" d="M192,329.333c0,0,0.24,0.454,0.75,1.168c0.506,0.71,1.279,1.699,2.384,2.621
		c0.555,0.453,1.184,0.901,1.898,1.251c0.714,0.353,1.507,0.599,2.34,0.758c0.84,0.151,1.728,0.11,2.625,0.036
		c0.898-0.128,1.813-0.316,2.7-0.659c0.898-0.291,1.778-0.682,2.623-1.117c0.835-0.452,1.682-0.878,2.449-1.389
		c0.784-0.481,1.521-0.99,2.229-1.467c0.696-0.5,1.353-0.973,1.96-1.409c1.185-0.919,2.207-1.666,2.896-2.221
		c0.704-0.541,1.122-0.839,1.122-0.839s-0.296,0.415-0.841,1.121c-0.28,0.347-0.595,0.793-1.015,1.25
		c-0.411,0.465-0.874,0.996-1.403,1.55c-0.548,0.537-1.125,1.14-1.793,1.718c-0.67,0.576-1.366,1.203-2.168,1.755
		c-0.389,0.292-0.791,0.581-1.22,0.846c-0.425,0.271-0.842,0.564-1.311,0.79c-0.909,0.494-1.866,0.952-2.88,1.303
		c-1.008,0.36-2.085,0.565-3.154,0.687c-1.079,0.084-2.162,0.006-3.177-0.236c-1.016-0.246-1.937-0.682-2.727-1.191
		c-0.801-0.5-1.431-1.128-1.957-1.727c-1.054-1.208-1.606-2.411-1.929-3.248C192.081,329.842,192,329.333,192,329.333z"/>
</g>
<path fill="none" stroke="#030303" stroke-width="2" stroke-miterlimit="10" d="M137.688,378.912c0,0-38.886,13.308-53.63,60.731
	c-2.106,12.027-6.318,18.213,15.796,25.773c8.776,3.437,27.731,11.34,33.699,0c3.861-5.498,7.021-11.341,7.021-11.341
	s4.563,89.691-12.286,128.179c7.723,3.437,85.856,4.124,112.783,8.248c13.588,0,34.651,0.688,47.287-6.873
	c0.703-2.062-13.573-98.739,0-134.479c4.681-2.749,32.297-19.244,42.125-21.993v-54.181c0,0-22.691,3.093-35.743,0"/>
<line fill="none" stroke="#030303" stroke-width="2" stroke-miterlimit="10" x1="243.644" y1="397.153" x2="243.644" y2="590.507"/>
<path fill="none" stroke="#030303" stroke-width="2" stroke-miterlimit="10" d="M131.662,583.065c0,0-21.628,54.172-5.48,56.233
	c11.935,2.062,134.797,19.244,169.198-10.996c1.403-3.437-9.899-26.123-11.971-42.271"/>
<path fill="none" stroke="#030303" stroke-width="2" stroke-miterlimit="10" d="M139.978,641.238c0,0-3.265,41.016-2.915,46.515
	c-4.914,1.03-46.687,22.68-24.572,36.082c8.074,4.468,66.696,13.402,75.121-6.186c0.352-7.903-4.212-24.742-8.073-28.179
	c0.702-6.873,8.111-39.02,8.093-44.08"/>
<path fill="none" stroke="#030303" stroke-width="2" stroke-miterlimit="10" d="M137.063,687.753c0,0,30.189,6.528,42.476,1.718"/>
<path fill="none" stroke="#030303" stroke-width="2" stroke-miterlimit="10" d="M232.193,645.492c0,0,1.405,35.731,5.968,42.261
	c-2.458,2.405-18.521,35.738,5.482,39.862c9.963,1.03,55.949,7.903,65.778-8.248c2.105-4.811,2.808-19.192-27.732-29.871
	c-0.702-8.272,3.546-44.606-1.386-52.556"/>
<path fill="none" stroke="#030303" stroke-width="2" stroke-miterlimit="10" d="M238.162,687.753c0,0,24.572,8.642,43.528,1.743"/>
<path fill="none" stroke="#030303" stroke-width="2" stroke-miterlimit="10" d="M85.482,458.056c0,0-4.259,35.081-3.192,41.954
	c-5.253,1.488-22.103,3.894-20.348,12.657c2.984,3.437,6.495,4.811,15.095,0c-1.58,4.811-9.126,28.12-1.872,33.391
	c2.341,0.229,4.187,1.603,7.125-4.124"/>
<path fill="none" stroke="#030303" stroke-width="2" stroke-miterlimit="10" d="M83.941,526.47
	c-0.378,1.342-6.006,21.688,3.744,26.232c4.447,0.572,9.011-4.237,7.84-20.618"/>
<path fill="none" stroke="#030303" stroke-width="2" stroke-miterlimit="10" d="M94.615,546.366c0,0,3.601,16.072,10.856,1.64
	c1.99-3.437,3.745-13.061,2.925-20.161c0,0,7.02,17.41,10.296,8.935c1.872-6.3,1.638-12.715-5.851-24.856
	c0.235-7.79,6.345-20.113,5.629-40.87"/>
<path fill="none" stroke="#030303" stroke-width="2" stroke-miterlimit="10" d="M330.483,378.474c0,0,35.104-14.089,51.953-15.808
	c2.808-5.498,7.371-16.838,10.881-14.433l1.389,0.929"/>
<path fill="none" stroke="#030303" stroke-width="2" stroke-miterlimit="10" d="M330.483,413.87c0,0,36.156-8.935,46.337-18.9
	c5.616-1.375,4.913-2.406,8.074,0L325.568,725.21l9.829,4.581l63.187-333.42"/>
<path fill="none" stroke="#030303" stroke-width="2" stroke-miterlimit="10" d="M388.109,366.447
	c-0.23-0.021-0.426,0.027-0.655-0.024c-0.942-1.678-0.831-4.768,0.008-6.401c1.167-2.273,4.151-2.349,6.491-2.509
	c4.846-0.328,11.716,0.728,14.011,5.274c0.894,1.771,0.862,2.69-0.456,4.278c-0.588,0.706-2.505,1.741-2.786,2.577
	c-0.543,1.62,0.191,1.074,1.642,2.084c1.562,1.089,1.935,2.198,1.874,4.278c-0.088,3.007-1.095,4.365-3.965,5.149
	c1.138,2.382,4.156,2.049,4.667,5.222c0.457,2.843-0.614,3.708-3.275,4.124c-0.717,0.113-2.174-0.056-2.808,0.229
	c-1.928,0.866-0.673,0.45,0.421,2.073c1.637,2.428-0.727,3.071-3.295,3.431c-5.102,0.715-9.815-1.011-14.095-3.269
	c-1.521-0.802-4.438-1.699-5.334-3.14c-0.849-1.372-0.948-4.761,0.279-5.8c1.442-1.222,4.731-0.547,6.534-0.671
	c-3.453-1.063-6.352-1.517-6.277-5.429c0.081-4.145,2.763-3.251,6.272-3.226c-2.821-0.062-5.029-2.469-4.869-5.097
	c0.206-3.317,3.116-2.926,5.851-2.926"/>
<path fill="none" stroke="#030303" stroke-width="2" stroke-miterlimit="10" d="M406.194,360.553l8.186-58.464
	c0,0,50.9,11.438,71.962-48.356c8.426-28.866,17.553-87.972,19.658-108.591c-1.404-18.557,6.317-20.619-54.761-34.364
	c-29.487-4.811-75.122-24.742-82.142,8.935c-4.213,26.117-29.487,129.565,0,159.284c11.935,12.538,21.237,16.513,32.996,21.682
	c-0.966,10.1-8.776,56.878-8.776,56.878"/>
<ellipse fill="none" stroke="#030303" stroke-width="2" stroke-miterlimit="10" cx="228.216" cy="424.866" rx="5.851" ry="6.415"/>
<ellipse fill="none" stroke="#030303" stroke-width="2" stroke-miterlimit="10" cx="228.216" cy="474.841" rx="5.851" ry="6.904"/>
<ellipse fill="none" stroke="#030303" stroke-width="2" stroke-miterlimit="10" cx="228.216" cy="523.835" rx="5.851" ry="6.415"/>
<ellipse fill="none" stroke="#030303" stroke-width="2" stroke-miterlimit="10" cx="228.216" cy="572.86" rx="5.851" ry="5.957"/>
</svg>
