<?xml version="1.0" encoding="utf-8"?>
<!-- Generator: Adobe Illustrator 16.0.0, SVG Export Plug-In . SVG Version: 6.00 Build 0)  -->
<!DOCTYPE svg PUBLIC "-//W3C//DTD SVG 1.1//EN" "http://www.w3.org/Graphics/SVG/1.1/DTD/svg11.dtd">
<svg version="1.1" id="Layer_1" xmlns="http://www.w3.org/2000/svg" xmlns:xlink="http://www.w3.org/1999/xlink" x="0px" y="0px"
	 width="552px" height="859px" viewBox="0 0 552 859" enable-background="new 0 0 552 859" xml:space="preserve">
<rect fill="#FFFFFF" stroke="#000000" stroke-miterlimit="10" width="552" height="859"/>
<path fill="none" stroke="#010101" stroke-width="2" stroke-miterlimit="10" d="M210.935,118.088
	c39.273-5.5,73.135,4.039,75.632,21.305c2.497,17.265-27.314,35.72-66.588,41.219c-39.273,5.5-73.134-4.038-75.631-21.304
	C141.849,142.042,171.662,123.587,210.935,118.088z"/>
<path fill="#FFFFFF" stroke="#010101" stroke-width="2" stroke-miterlimit="10" d="M217.321,160.075c0,0,8.181-7.317,15.417-10.728
	c7.237-3.411,25.486-23.534,8.81-45.514c-4.09-8.979-5.191-12.693-0.472-19.195c-0.157-2.477-8.232-9.288-8.232-9.288
	s-17.201,7.947-24.752-2.993c-3.147,3.508-12.167,14.241-25.591,8.462c-0.629,2.889-5.874,10.526-5.874,10.526
	s9.648,10.733,2.937,23.323c-2.937,11.145-2.937,30.134,14.055,37.357C202.218,155.122,216.273,156.359,217.321,160.075z"/>
<path fill="none" stroke="#010101" stroke-width="2" stroke-miterlimit="10" d="M242.139,140.646c0,0,37.15-4.346,44.002-3.243"/>
<path fill="none" stroke="#010101" stroke-width="2" stroke-miterlimit="10" d="M247.429,129.624c0,0,27.98-1.235,35.277,1.658"/>
<path fill="none" stroke="#010101" stroke-width="2" stroke-miterlimit="10" d="M179.826,137.224c0,0-22.117,7.938-33.923,12.969"/>
<path fill="none" stroke="#010101" stroke-width="2" stroke-miterlimit="10" d="M184.889,145.943c0,0-29.902,6.115-40.584,9.71"/>
<path fill="none" stroke="#010101" stroke-width="2" stroke-miterlimit="10" d="M285.601,135.884c0,0,27.582,8.712,33.455-14.197
	c5.874-18.369,7.343-22.291,7.972-23.529c0.63-1.238-30.101-3.612-50.868-37.977c-11.956-0.62-56.007-8.668-76.773-25.077
	c-9.125,9.597-42.162,42.724-66.705,41.175c-4.72,8.978-13.215,39.317-38.072,50.153c3.776,6.811,18.564,29.22,18.564,29.22
	l31.682-2.726"/>
<path fill="none" stroke="#010101" stroke-width="2" stroke-miterlimit="10" d="M132.028,154.031c0,0-3.437,18.84,2.227,23.174
	c-3.775,6.501-8.495,30.959,16.362,29.101c3.146-7.121,6.167-26.059,6.702-32.068"/>
<g>
	<path fill="#010101" d="M192.15,189.796c0,0-0.9,0.669-2.211,1.579c-0.642,0.46-1.391,0.998-2.193,1.573
		c-0.406,0.272-0.786,0.604-1.198,0.901c-0.409,0.302-0.796,0.638-1.204,0.95c-0.387,0.333-0.773,0.665-1.154,0.993
		c-0.344,0.359-0.758,0.65-1.068,1.008c-0.305,0.36-0.685,0.652-0.946,1c-0.265,0.344-0.583,0.637-0.806,0.951
		c-0.221,0.315-0.446,0.599-0.649,0.855c-0.186,0.263-0.326,0.507-0.46,0.704c-0.263,0.397-0.435,0.629-0.435,0.629
		s0.008-0.273,0.061-0.763c0.035-0.241,0.047-0.551,0.136-0.881c0.093-0.328,0.203-0.702,0.347-1.105
		c0.132-0.41,0.36-0.808,0.584-1.246c0.209-0.45,0.525-0.853,0.833-1.292c0.308-0.439,0.68-0.839,1.055-1.255
		c0.384-0.403,0.814-0.768,1.235-1.145c0.451-0.333,0.883-0.696,1.352-0.985c0.459-0.303,0.929-0.573,1.391-0.813
		c0.916-0.499,1.826-0.849,2.614-1.106C191.016,189.836,192.15,189.796,192.15,189.796z"/>
</g>
<g>
	<path fill="#010101" d="M254.659,182.167c0,0,1.322-0.229,3.299-0.02c0.988,0.093,2.136,0.297,3.335,0.661
		c1.201,0.356,2.461,0.864,3.632,1.576c0.586,0.349,1.147,0.755,1.669,1.192c0.524,0.437,0.985,0.935,1.4,1.44
		c0.417,0.505,0.76,1.043,1.025,1.582c0.285,0.526,0.474,1.066,0.605,1.566c0.151,0.495,0.2,0.968,0.246,1.377
		c0.032,0.412,0.018,0.772,0.011,1.063c-0.063,0.586-0.121,0.907-0.121,0.907s-0.113-0.32-0.274-0.856
		c-0.2-0.529-0.464-1.272-0.927-2.061c-0.101-0.203-0.24-0.397-0.376-0.598c-0.127-0.206-0.273-0.408-0.432-0.609
		c-0.304-0.41-0.681-0.795-1.065-1.191c-0.39-0.395-0.847-0.746-1.307-1.106c-0.477-0.342-0.961-0.693-1.487-0.993
		c-0.511-0.321-1.054-0.598-1.587-0.878c-0.544-0.258-1.074-0.539-1.613-0.759c-1.067-0.467-2.096-0.861-2.99-1.197
		C255.876,182.605,254.659,182.167,254.659,182.167z"/>
</g>
<ellipse fill="none" stroke="#010101" stroke-width="2" stroke-miterlimit="10" cx="253.086" cy="202.798" rx="7.656" ry="9.288"/>
<ellipse fill="none" stroke="#010101" stroke-width="2" stroke-miterlimit="10" cx="195.611" cy="210.951" rx="8.076" ry="10.01"/>
<g>
	<path fill="#010101" d="M214.594,209.402c0,0-0.187,0.61-0.409,1.688c-0.213,1.073-0.497,2.632-0.43,4.442
		c0.042,0.899,0.202,1.857,0.56,2.746c0.351,0.899,0.995,1.648,1.827,2.193c0.837,0.552,1.908,0.831,3.038,0.966
		c1.135,0.127,2.334,0.098,3.536-0.024c0.602-0.064,1.207-0.137,1.809-0.223c0.625-0.096,1.246-0.192,1.808-0.32
		c1.153-0.245,2.312-0.523,3.352-0.926c1.052-0.385,2.017-0.861,2.785-1.452c0.76-0.59,1.362-1.285,1.548-2.067
		c0.199-0.768,0.15-1.578-0.087-2.262c-0.189-0.703-0.534-1.268-0.773-1.758c-0.58-0.919-0.942-1.454-0.942-1.454
		s0.116,0.108,0.333,0.311c0.209,0.21,0.559,0.488,0.933,0.911c0.341,0.448,0.825,0.956,1.162,1.71
		c0.387,0.711,0.649,1.692,0.5,2.778c-0.119,1.112-0.822,2.17-1.699,2.965c-0.88,0.817-1.943,1.472-3.092,1.949
		c-1.147,0.5-2.346,0.913-3.622,1.186c-0.648,0.157-1.263,0.262-1.879,0.369c-0.641,0.104-1.289,0.198-1.94,0.274
		c-1.312,0.108-2.649,0.123-3.982-0.053c-1.328-0.17-2.667-0.626-3.78-1.431c-1.123-0.792-1.902-1.979-2.232-3.141
		c-0.362-1.163-0.383-2.284-0.302-3.272c0.178-1.986,0.766-3.505,1.196-4.535C214.254,209.943,214.594,209.402,214.594,209.402z"/>
</g>
<path fill="none" stroke="#010101" stroke-width="2" stroke-miterlimit="10" d="M226.342,256.047
	c12.795-3.715,16.78-14.241,16.78-14.241"/>
<g>
	<path fill="#010101" d="M212.13,236.956c0,0-0.003,0.84-0.374,1.979c-0.34,1.151-1.074,2.59-2.156,3.815
		c-0.265,0.307-0.559,0.597-0.869,0.862c-0.288,0.282-0.645,0.5-0.963,0.722c-0.324,0.219-0.693,0.37-1.014,0.527
		c-0.339,0.138-0.69,0.212-0.993,0.292c-0.312,0.067-0.618,0.061-0.87,0.073c-0.25,0.03-0.482-0.044-0.66-0.075
		c-0.359-0.08-0.545-0.146-0.545-0.146s0.194-0.104,0.5-0.25c0.152-0.076,0.334-0.139,0.524-0.274
		c0.19-0.131,0.402-0.246,0.62-0.394c0.206-0.163,0.429-0.34,0.665-0.527c0.218-0.216,0.463-0.397,0.692-0.633
		c0.463-0.461,0.953-0.956,1.416-1.502c0.481-0.523,0.938-1.088,1.393-1.607c0.445-0.527,0.875-1.022,1.265-1.445
		C211.517,237.517,212.13,236.956,212.13,236.956z"/>
</g>
<line fill="none" stroke="#010101" stroke-width="2" stroke-miterlimit="10" x1="207.908" y1="243.063" x2="210.398" y2="245.779"/>
<path fill="none" stroke="#010101" stroke-width="2" stroke-miterlimit="10" d="M194.667,264.819
	c0.314-0.619,12.371-23.73,22.969-16.563c5.664,3.096,7.315,5.418,9.518,8.978c-0.708,0.774-6.372,6.811-6.372,6.811
	s3.67,20.278-12.875,18.421c-9.308-4.334-14.342-8.049-14.342-8.049L194.667,264.819z"/>
<path fill="none" stroke="#010101" stroke-width="2" stroke-miterlimit="10" d="M196.006,262.426l11.901,9.204
	c0,0,10.733-19.211,14.242-20.441"/>
<path fill="none" stroke="#010101" stroke-width="2" stroke-miterlimit="10" d="M207.908,271.63c0,0-5.847,9.199,2.491,10.946"/>
<g>
	<path fill="#010101" d="M241.863,235.099c0,0,0.169,0.925,0.431,2.172c0.161,0.618,0.315,1.329,0.59,2.006
		c0.108,0.355,0.299,0.662,0.444,0.996c0.086,0.156,0.203,0.289,0.291,0.441c0.083,0.159,0.194,0.291,0.32,0.404
		c0.12,0.119,0.215,0.266,0.345,0.373c0.141,0.092,0.271,0.197,0.404,0.301c0.256,0.221,0.605,0.307,0.891,0.494
		c0.342,0.108,0.672,0.212,0.986,0.311c0.331,0.076,0.665,0.112,0.973,0.178c0.309,0.066,0.602,0.112,0.866,0.119
		c0.263,0.015,0.5,0.049,0.696,0.072c0.393,0.051,0.63,0.098,0.63,0.098s-0.196,0.118-0.56,0.293
		c-0.183,0.085-0.406,0.194-0.671,0.296c-0.133,0.054-0.274,0.11-0.424,0.17c-0.157,0.031-0.322,0.064-0.495,0.099
		c-0.349,0.061-0.731,0.157-1.149,0.174c-0.421-0.021-0.877-0.033-1.347-0.107c-0.233-0.065-0.469-0.145-0.709-0.227
		c-0.241-0.079-0.487-0.156-0.703-0.317c-0.223-0.142-0.451-0.284-0.669-0.44c-0.208-0.166-0.38-0.376-0.567-0.569
		c-0.19-0.194-0.352-0.404-0.474-0.635c-0.133-0.223-0.269-0.45-0.375-0.679c-0.174-0.468-0.355-0.932-0.411-1.387
		c-0.101-0.453-0.108-0.89-0.119-1.299c0-0.409,0.046-0.791,0.094-1.137C241.365,235.91,241.863,235.099,241.863,235.099z"/>
</g>
<path fill="none" stroke="#010101" stroke-width="2" stroke-miterlimit="10" d="M298.488,137.479c0,0,14.485,11.865,8.822,24.661
	c-0.209,7.43,1.049,17.13-4.826,21.259c-4.614,3.303-9.438,3.303-9.228,6.398c-2.518,1.032-8.568-6.604-7.115-17.13
	c1.029-10.526-0.349-19.477-3.436-20.264"/>
<path fill="none" stroke="#010101" stroke-width="2" stroke-miterlimit="10" d="M293.346,188.954c0,0,20.048,47.075-2.188,67.094
	c-9.229,6.812-25.895,21.266-71.733,21.056"/>
<path fill="none" stroke="#010101" stroke-width="2" stroke-miterlimit="10" d="M195.611,275.796c0,0-40.819-3.026-47.197-36.556
	c0-17.454-0.629-31.076,2.203-32.934"/>
<path fill="none" stroke="#010101" stroke-width="2" stroke-miterlimit="10" d="M304.792,182.167c0,0,9.464,25.378-5.231,27.235"/>
<path fill="none" stroke="#010101" stroke-width="2" stroke-miterlimit="10" d="M142.257,205.766c0,0-18.428,21.015,6.135,27.264"/>
<polyline fill="none" stroke="#010101" stroke-width="2" stroke-miterlimit="10" points="193.565,275.562 228.859,294.437 
	260.534,271.63 "/>
<path fill="none" stroke="#010101" stroke-width="2" stroke-miterlimit="10" d="M184.263,273.625c0,0-68.888-5.813-79.376,56.105
	c-5.873,28.482-20.976,90.813-20.976,90.813l61.671,59.441"/>
<path fill="none" stroke="#010101" stroke-width="2" stroke-miterlimit="10" d="M156.91,422.606l-15.943-21.052
	c0,0,5.034-24.768,7.971-30.547C151.874,365.229,156.91,422.606,156.91,422.606z"/>
<polyline fill="none" stroke="#010101" stroke-width="2" stroke-miterlimit="10" points="267.436,269.821 324.615,282.576 
	368.979,339.121 407.682,332 "/>
<path fill="none" stroke="#010101" stroke-width="2" stroke-miterlimit="10" d="M304.478,408.468l5.035-51.392l40.589,36.841
	l69.223-8.669c0,0-14.998-43.091-13.164-52.969"/>
<line fill="none" stroke="#010101" stroke-width="2" stroke-miterlimit="10" x1="418.498" y1="382.835" x2="423.414" y2="382.835"/>
<path fill="none" stroke="#010101" stroke-width="2" stroke-miterlimit="10" d="M406.009,334.162l5.448-3.71
	c0,0-0.63-30.649,11.957-29.101"/>
<path fill="none" stroke="#010101" stroke-width="2" stroke-miterlimit="10" d="M278.991,272.398c0,0-37.442,38.55-99.742,57.435
	c-0.944,10.526-2.517,95.663-2.517,95.663"/>
<path fill="none" stroke="#010101" stroke-width="2" stroke-miterlimit="10" d="M164.542,274.624c0,0,32.566,19.568,65.169,33.672"
	/>
<ellipse fill="none" stroke="#010101" stroke-width="2" stroke-miterlimit="10" cx="197.459" cy="344.383" rx="8.457" ry="8.668"/>
<ellipse fill="none" stroke="#010101" stroke-width="2" stroke-miterlimit="10" cx="198.246" cy="378.121" rx="7.67" ry="7.747"/>
<ellipse fill="none" stroke="#010101" stroke-width="2" stroke-miterlimit="10" cx="200.33" cy="409.552" rx="8.181" ry="8.204"/>
<path fill="none" stroke="#010101" stroke-width="2" stroke-miterlimit="10" d="M155.793,421.134l-0.772,4.361
	c0,0,123.552,0.205,130.684,0c0,4.748,0,24.561,0,24.561H152.504l2.517-24.561"/>
<path fill="none" stroke="#010101" stroke-width="2" stroke-miterlimit="10" d="M152.504,450.057c0,0-12.061,57.17-11.537,63.981
	c5.245,0.309,82.333-2.167,82.333-2.167l4.562-34.984l4.563,35.293l87.157,1.884c0,0-6.607-48.94-11.328-50.489"/>
<path fill="none" stroke="#010101" stroke-width="2" stroke-miterlimit="10" d="M285.705,425.496v-3.096h40.483v24.768
	c0,0,0.629,15.479-21.711,16.924c-4.929-0.206-17.933-5.571-18.772-14.034"/>
<path fill="none" stroke="#010101" stroke-width="2" stroke-miterlimit="10" d="M292.207,422.399c0,0,6.293-16.408,24.069-18.575
	c8.181-0.465,14.005,0,9.913,7.584s-5.35,9.442-6.608,10.99"/>
<line fill="none" stroke="#010101" stroke-width="2" stroke-miterlimit="10" x1="233.893" y1="425.583" x2="233.893" y2="450.057"/>
<line fill="none" stroke="#010101" stroke-width="2" stroke-miterlimit="10" x1="209.848" y1="425.496" x2="209.848" y2="450.057"/>
<path fill="none" stroke="#010101" stroke-width="2" stroke-miterlimit="10" d="M260.534,313.218c0,0,5.243-12.59,13.844,0
	c5.664,0.207,18.459-3.508,21.815,8.049c-1.68,2.477-7.76,8.875-2.517,15.479c0.629,1.857,1.259,5.779,2.517,6.398
	c1.259,0.619,5.244,19.579-6.712,27.229c-6.713,4.556-21.642,8.604-22.045,12.461c-2.054-2.307-9.421-7.08-15.294-7.493
	c-5.454-2.89-17.201-13.622-12.796-30.959c3.775-8.256,6.083-14.653,3.565-18.163c-2.307-3.509-5.034-9.495,2.098-12.177
	C251.303,311.979,260.534,313.218,260.534,313.218z"/>
<ellipse fill="none" stroke="#010101" stroke-width="2" stroke-miterlimit="10" cx="447.851" cy="166.989" rx="13.636" ry="13.105"/>
<line fill="none" stroke="#010101" stroke-width="2" stroke-miterlimit="10" x1="454.771" y1="178.268" x2="454.771" y2="212.034"/>
<line fill="none" stroke="#010101" stroke-width="2" stroke-miterlimit="10" x1="440.934" y1="178.268" x2="440.934" y2="212.034"/>
<path fill="none" stroke="#010101" stroke-width="2" stroke-miterlimit="10" d="M431.91,250.924v-2.101
	c0,0-0.209-39.421,15.943-39.008c2.936-0.62,14.579-4.231,14.893,39.008"/>
<polygon fill="none" stroke="#010101" stroke-width="2" stroke-miterlimit="10" points="423.414,251.189 499.243,248.823 
	508.892,258.317 508.892,409.552 430.021,409.552 423.414,405.27 "/>
<polyline fill="none" stroke="#010101" stroke-width="2" stroke-miterlimit="10" points="499.243,248.823 499.243,403.699 
	423.414,405.27 "/>
<line fill="none" stroke="#010101" stroke-width="2" stroke-miterlimit="10" x1="499.243" y1="403.699" x2="508.892" y2="409.552"/>
<rect x="431.91" y="267.398" fill="none" stroke="#010101" stroke-width="2" stroke-miterlimit="10" width="30.836" height="24.062"/>
<rect x="468.617" y="264.732" fill="none" stroke="#010101" stroke-width="2" stroke-miterlimit="10" width="18.041" height="29.704"/>
<rect x="437.572" y="301.293" fill="none" stroke="#010101" stroke-width="2" stroke-miterlimit="10" width="19.3" height="27.894"/>
<rect x="468.617" y="301.293" fill="none" stroke="#010101" stroke-width="2" stroke-miterlimit="10" width="18.041" height="25.753"/>
<rect x="431.91" y="345.229" fill="none" stroke="#010101" stroke-width="2" stroke-miterlimit="10" width="59.782" height="43.116"/>
<rect x="438.411" y="349.853" fill="none" stroke="#010101" stroke-width="2" stroke-miterlimit="10" width="8.81" height="6.914"/>
<rect x="450.262" y="349.234" fill="none" stroke="#010101" stroke-width="2" stroke-miterlimit="10" width="7.551" height="8.049"/>
<rect x="460.646" y="349.234" fill="none" stroke="#010101" stroke-width="2" stroke-miterlimit="10" width="9.754" height="7.532"/>
<rect x="473.337" y="349.853" fill="none" stroke="#010101" stroke-width="2" stroke-miterlimit="10" width="7.027" height="6.914"/>
<rect x="437.572" y="360.895" fill="none" stroke="#010101" stroke-width="2" stroke-miterlimit="10" width="8.705" height="9.479"/>
<rect x="450.891" y="361.927" fill="none" stroke="#010101" stroke-width="2" stroke-miterlimit="10" width="6.293" height="8.447"/>
<rect x="461.801" y="361.927" fill="none" stroke="#010101" stroke-width="2" stroke-miterlimit="10" width="8.599" height="8.447"/>
<rect x="475.33" y="361.927" fill="none" stroke="#010101" stroke-width="2" stroke-miterlimit="10" width="6.188" height="8.447"/>
<rect x="438.411" y="374.723" fill="none" stroke="#010101" stroke-width="2" stroke-miterlimit="10" width="6.816" height="8.112"/>
<rect x="449.633" y="374.723" fill="none" stroke="#010101" stroke-width="2" stroke-miterlimit="10" width="7.239" height="8.112"/>
<rect x="460.646" y="375.032" fill="none" stroke="#010101" stroke-width="2" stroke-miterlimit="10" width="9.125" height="7.803"/>
<rect x="475.33" y="374.723" fill="none" stroke="#010101" stroke-width="2" stroke-miterlimit="10" width="5.663" height="7.328"/>
<path fill="none" stroke="#010101" stroke-width="2" stroke-miterlimit="10" d="M156.91,513.81l-4.406,124.683L72.584,700.41
	c0,0-16.781,14.035,25.171,13.209c35.24,0,75.684,2.478,86.507-8.256c2.432,4.127,2.538,6.501,2.538,6.501l24.228-0.928
	c0,0,2.517-3.097,3.461-4.025c0.944-0.929-1.888-63.156-1.888-63.156l15.26-116.096l16.101,114.755l-3.672,1.341l-0.314,62.847
	l3.986,3.715l21.186,0.31c0,0,4.09-6.191,16.99,1.238c9.439,3.097,91.877,0.311,91.877,0.311s16.047,1.237,0-13.313
	c-8.811-9.907-73.627-57.274-73.627-57.274l0.629-127.524"/>
<line fill="none" stroke="#010101" stroke-width="2" stroke-miterlimit="10" x1="243.751" y1="640.927" x2="301.646" y2="640.927"/>
<line fill="none" stroke="#010101" stroke-width="2" stroke-miterlimit="10" x1="152.504" y1="638.492" x2="212.602" y2="643.755"/>
<ellipse fill="none" stroke="#010101" stroke-width="2" stroke-miterlimit="10" cx="255.576" cy="200.527" rx="2.491" ry="2.27"/>
<ellipse fill="none" stroke="#010101" stroke-width="2" stroke-miterlimit="10" cx="198.285" cy="208.087" rx="2.674" ry="2.864"/>
</svg>
