<?xml version="1.0" encoding="utf-8"?>
<!-- Generator: Adobe Illustrator 16.0.0, SVG Export Plug-In . SVG Version: 6.00 Build 0)  -->
<!DOCTYPE svg PUBLIC "-//W3C//DTD SVG 1.1//EN" "http://www.w3.org/Graphics/SVG/1.1/DTD/svg11.dtd">
<svg version="1.1" id="Layer_1" xmlns="http://www.w3.org/2000/svg" xmlns:xlink="http://www.w3.org/1999/xlink" x="0px" y="0px"
	 width="552px" height="859px" viewBox="0 0 552 859" enable-background="new 0 0 552 859" xml:space="preserve">
<rect x="0" fill="#FFFFFF" stroke="#000000" stroke-width="2" stroke-miterlimit="10" width="552" height="859"/>
<path fill="none" stroke="#000000" stroke-width="2" stroke-miterlimit="10" d="M320.356,198.333"/>
<path fill="none" stroke="#000000" stroke-width="2" stroke-miterlimit="10" d="M177.502,251.874l1.412,2.028l22.807,38.986
	l125.834-56.085c0,0-1.572-9.575,5.506-15.73l-13.203-22.293l-0.167-0.277c0,0-24.376,2.738-42.466-11.282
	c0,0,8.652,31.462-12.584,38.985c-0.787,1.368-27.133,8.549-43.649-8.892c0,0.342-6.292,31.804-36.571,33.856
	c-2.359,0.342-41.29,8.549-47.976-23.597c0-1.368-5.898-23.255,17.696-35.566c0.393-0.685-14.942-25.648-3.539-38.986
	c1.18-1.71,5.112-19.151,14.943-25.648c1.967-1.025,13.37-11.285,57.019,19.835c0.393,1.71-3.539-33.856,17.303-38.301
	c1.573,0,27.133-13.679,44.042,26.674c-0.787,0.683,33.419-22.914,49.149-1.369c0.791,1.026,38.932,38.986-12.187,62.582
	l-1.696,1.86"/>
<path fill="none" stroke="#000000" stroke-width="2" stroke-miterlimit="10" d="M333.059,221.071c0,0,44.44-22.739,56.827,63.439"/>
<path fill="none" stroke="#000000" stroke-width="2" stroke-miterlimit="10" d="M328.304,228.442
	c1.31-0.188,4.755,0.155,4.755,0.155s7.869-0.513,22.615,16.928c0,2.564,30.673,22.058,34.212,41.038
	c-0.59,1.026,21.234,52.835,4.129,85.152c-3.539,3.078-24.659,42.576-46.541,45.654c-0.646,1.026-44.296,22.057-119.208-11.285
	c-0.59,0.513-1.573-3.933-10.225-1.368c-0.885,0.085-2.359-0.171-16.516,2.223c-14.157,2.395-15.926-6.839-19.269-18.125
	c-0.393-0.854-2.752-11.627,2.163-17.27c1.376-0.342,3.146-7.01,17.696,1.368c1.179,0.685,20.842,9.575,23.396,10.088
	c-1.179-0.513-18.875-24.109-18.678-39.327c-0.983-1.198,22.407-0.685,34.797-45.826c0.791-0.683,8.064,17.269-9.237,38.131
	c-0.59,0.171,67.634-10.259,66.063-64.976c1.574,1.71,1.968,10.601-1.965,31.462c-0.787,0.684,44.034-36.598,31.061-65.663"/>
<path fill="none" stroke="#000000" stroke-width="2" stroke-miterlimit="10" d="M192.464,277.067c0,0-36.362,45.891-3.328,91.729"/>
<path fill="none" stroke="#000000" stroke-width="2" stroke-miterlimit="10" d="M45.998,247.064l60.558-12.995
	c0,0,27.922,67.37-11.008,76.09c0,1.283,19.466,93.617,19.466,93.617l12.092,6.413l15.336,57.965c0,0-4.356,21.436-32.442,10.516
	c0,0-18.875-68.225-3.539-71.046c1.475,0.257-19.76-97.464-19.76-97.464s-20.055,8.464-27.428-11.542
	C59.272,296.822,50.419,277.841,45.998,247.064z"/>
<path fill="none" stroke="#000000" stroke-width="2" stroke-miterlimit="10" d="M127.867,413.067c0,0,4.646,8.748,16.443,13.194
	c1.573,1.368,9.044,6.84,8.651,11.969c-0.393,1.711,58.483,27.383,99.239-22.901"/>
<polyline fill="none" stroke="#000000" stroke-width="2" stroke-miterlimit="10" points="152.961,438.229 146.669,470.205 
	146.276,472.529 "/>
<path fill="none" stroke="#000000" stroke-width="2" stroke-miterlimit="10" d="M142.442,468.153c0,0,17.743,23.085,38.905,22.4
	c0,0,30.6,8.207,43.184,7.522c1.573-0.684,16.902-2.521,17.103-16.309c-0.586-0.105-23.396,125.058-17.89,138.053
	c0,2.736-8.651,25.991,104.601,23.256c1.574-1.368,7.078-29.412,7.078-29.412s8.158,28.831,12.878,29.635
	c0,0,38.931,0.803,40.995-2.53c-0.826-1.2,8.143-105.777-9.975-154.586c-1.26-3.389-2.648-6.511-4.182-9.308"/>
<path fill="none" stroke="#000000" stroke-width="2" stroke-miterlimit="10" d="M379.321,486.183c0,0,22.362,15.57,46.547,40.962
	c0.295,1.539,26.543-1.795,33.916-11.541c0-0.257-7.668-33.087-41.584-55.658c0.294-0.256-47.102-34.751-64.694-44.308"/>
<path fill="none" stroke="#000000" stroke-width="2" stroke-miterlimit="10" d="M459.783,515.005c0,0,23.693,5.13,20.154,32.318
	c-0.789,0.513,1.574,26.844-21.629,26.502c0-1.025-24.754,10.361-26.348-18.058c-1.374-0.067-2.161-5.197-2.161-5.197
	s-4.917,14.193-8.455,11.97c-0.591-0.513-5.505-1.368-6.489-9.917c-0.194-1.881,4.159-15.154,10.144-26.386"/>
<path fill="none" stroke="#000000" stroke-width="2" stroke-miterlimit="10" d="M373.174,643.383c0,0,3.736,22.263-8.651,50.818
	c0.394,0.685,16.516,2.735,36.965,15.901c0.59,0-4.915,13.508-78.254,7.01c-1.77,1.026-90.641,2.224-89.068-6.325
	c-0.589-1.026-1.77-13.336,27.133-21.887c0.983-0.171-10.956-15.313-9.707-49.891"/>
<path fill="none" stroke="#000000" stroke-width="2" stroke-miterlimit="10" d="M316.744,643.27c0,0-1.97,47.17,0,48.196
	c1.964,1.026,0.592,11.112,6.489,25.646"/>
<line fill="none" stroke="#000000" stroke-width="2" stroke-miterlimit="10" x1="261.299" y1="688.9" x2="364.523" y2="694.201"/>
<polyline fill="none" stroke="#000000" stroke-width="2" stroke-miterlimit="10" points="294.919,424.853 330.606,488.928 
	335.03,480.208 335.03,421.824 "/>
<path fill="none" stroke="#000000" stroke-width="2" stroke-miterlimit="10" d="M265.117,419.109v23.91l24.495,12.358v17.906
	l40.7,17.697l30.968-14.362l-11.797-16.159c0,0,12.091-20.587,9.437-38.635l-0.692-3.464"/>
<ellipse fill="none" stroke="#000000" stroke-width="2" stroke-miterlimit="10" cx="269.113" cy="364.56" rx="6.931" ry="6.642"/>
<ellipse fill="none" stroke="#000000" stroke-width="2" stroke-miterlimit="10" cx="359.898" cy="332.548" rx="6.394" ry="5.824"/>
<ellipse fill="none" stroke="#000000" stroke-width="2" stroke-miterlimit="10" cx="325.53" cy="365.173" rx="6.341" ry="10.26"/>
<path fill="none" stroke="#000000" stroke-width="2" stroke-miterlimit="10" d="M299.343,397.876c0,0,5.309-5.129,15.632,1.539
	c0.59,0.77,9.905,0.167,10.555-1.711c0.357,0.172,5.076-3.595,10.975-1.711c1.18,0.858,4.522,3.337,0.984,5.048
	c-0.197,0.428-16.616,8.977-33.524,1.795C303.277,402.75,295.603,399.568,299.343,397.876z"/>
<ellipse fill="none" stroke="#000000" stroke-width="2" stroke-miterlimit="10" cx="269.998" cy="363.572" rx="16.958" ry="17.634"/>
<ellipse fill="none" stroke="#000000" stroke-width="2" stroke-miterlimit="10" cx="358.819" cy="331.934" rx="21.039" ry="19.776"/>
</svg>
