<?xml version="1.0" encoding="utf-8"?>
<!-- Generator: Adobe Illustrator 16.0.0, SVG Export Plug-In . SVG Version: 6.00 Build 0)  -->
<!DOCTYPE svg PUBLIC "-//W3C//DTD SVG 1.1//EN" "http://www.w3.org/Graphics/SVG/1.1/DTD/svg11.dtd">
<svg version="1.1" id="Layer_1" xmlns="http://www.w3.org/2000/svg" xmlns:xlink="http://www.w3.org/1999/xlink" x="0px" y="0px"
	 width="552px" height="859px" viewBox="0 0 552 859" enable-background="new 0 0 552 859" xml:space="preserve">
<rect fill="#FFFFFF" stroke="#000000" stroke-miterlimit="10" width="552" height="859"/>
<ellipse fill="none" stroke="#010101" stroke-width="2" stroke-miterlimit="10" cx="228.63" cy="232.471" rx="24.482" ry="27.667"/>
<ellipse fill="none" stroke="#010101" stroke-width="2" stroke-miterlimit="10" cx="321.059" cy="227.834" rx="24.483" ry="27.667"/>
<ellipse fill="none" stroke="#010101" stroke-width="2" stroke-miterlimit="10" cx="222.384" cy="231.004" rx="10.743" ry="12.786"/>
<ellipse fill="none" stroke="#010101" stroke-width="2" stroke-miterlimit="10" cx="221.386" cy="228.594" rx="3.747" ry="5.555"/>
<ellipse fill="none" stroke="#010101" stroke-width="2" stroke-miterlimit="10" cx="316.884" cy="229.065" rx="9.181" ry="13.047"/>
<ellipse fill="none" stroke="#010101" stroke-width="2" stroke-miterlimit="10" cx="316.629" cy="226.917" rx="4.432" ry="5.555"/>
<g>
	<path fill="#010101" d="M253.112,204.804c0,0-0.228-0.154-0.654-0.443c-0.425-0.29-1.076-0.675-1.887-1.185
		c-1.634-0.999-4.044-2.304-7.027-3.618c-1.494-0.65-3.141-1.279-4.902-1.865c-1.771-0.55-3.656-1.077-5.638-1.419
		c-0.983-0.217-2.003-0.291-3.023-0.434c-1.029-0.042-2.066-0.169-3.114-0.136c-2.097-0.054-4.213,0.225-6.284,0.646
		c-1.026,0.257-2.067,0.466-3.054,0.847c-0.496,0.18-1.006,0.318-1.487,0.529c-0.48,0.215-0.958,0.429-1.435,0.643l-0.712,0.321
		l-0.678,0.383c-0.455,0.25-0.907,0.499-1.356,0.746c-0.883,0.523-1.702,1.132-2.539,1.68c-0.782,0.629-1.551,1.249-2.304,1.855
		c-0.723,0.644-1.397,1.314-2.074,1.947c-0.685,0.626-1.236,1.348-1.841,1.98c-0.296,0.323-0.587,0.641-0.873,0.952
		c-0.262,0.333-0.519,0.659-0.77,0.979c-0.505,0.64-0.99,1.254-1.451,1.838c-0.446,0.596-0.837,1.186-1.223,1.728
		c-0.382,0.546-0.739,1.058-1.07,1.531c-0.324,0.478-0.581,0.941-0.835,1.348c-1.002,1.635-1.603,2.563-1.603,2.563
		s0.441-1.005,1.262-2.752c0.212-0.433,0.423-0.926,0.699-1.438c0.283-0.509,0.589-1.059,0.917-1.647
		c0.332-0.586,0.667-1.223,1.056-1.873c0.422-0.63,0.865-1.293,1.328-1.984c0.233-0.346,0.471-0.699,0.714-1.059
		c0.269-0.341,0.542-0.688,0.821-1.042c0.574-0.694,1.114-1.46,1.784-2.149c0.665-0.693,1.33-1.426,2.049-2.139
		c0.756-0.674,1.536-1.358,2.345-2.036c0.863-0.609,1.709-1.278,2.628-1.864c0.952-0.532,1.858-1.184,2.895-1.609
		c0.508-0.233,1.017-0.468,1.528-0.703c0.513-0.231,1.058-0.388,1.588-0.586c1.056-0.416,2.168-0.661,3.27-0.941
		c2.228-0.431,4.498-0.699,6.726-0.621c1.117-0.03,2.211,0.132,3.296,0.219c1.071,0.183,2.142,0.298,3.164,0.557
		c2.069,0.408,3.994,1.077,5.791,1.739c1.792,0.688,3.43,1.46,4.902,2.238c2.952,1.549,5.2,3.181,6.748,4.328
		C252.321,204.035,253.112,204.804,253.112,204.804z"/>
</g>
<g>
	<path fill="#010101" d="M296.576,200.168c0,0,0.193-0.168,0.575-0.461c0.383-0.291,0.941-0.727,1.7-1.21
		c1.51-0.975,3.729-2.311,6.594-3.516c1.437-0.587,3.011-1.202,4.735-1.67c0.852-0.27,1.752-0.455,2.662-0.69
		c0.922-0.176,1.861-0.389,2.833-0.502c1.933-0.305,3.959-0.427,6.018-0.44c2.057,0.06,4.154,0.168,6.218,0.537
		c2.069,0.326,4.094,0.881,6.057,1.494c0.978,0.319,1.923,0.706,2.864,1.064c0.914,0.419,1.817,0.834,2.706,1.241
		c0.861,0.459,1.707,0.912,2.525,1.371c0.808,0.476,1.566,0.993,2.32,1.468c0.763,0.462,1.439,1.007,2.117,1.498
		c0.669,0.502,1.323,0.976,1.901,1.494c0.589,0.502,1.153,0.983,1.69,1.441c0.536,0.457,0.989,0.954,1.443,1.385
		c0.896,0.879,1.681,1.635,2.268,2.318c1.203,1.335,1.866,2.114,1.866,2.114s-0.793-0.657-2.136-1.833
		c-0.652-0.608-1.513-1.271-2.488-2.038c-0.955-0.791-2.107-1.583-3.338-2.473c-0.604-0.46-1.28-0.872-1.971-1.309
		c-0.696-0.427-1.376-0.93-2.145-1.332c-0.759-0.418-1.521-0.877-2.326-1.292c-0.813-0.399-1.644-0.808-2.487-1.224
		c-0.867-0.361-1.748-0.729-2.64-1.102c-0.916-0.304-1.828-0.653-2.764-0.955c-1.882-0.564-3.817-1.069-5.791-1.361
		c-1.96-0.375-3.957-0.498-5.919-0.58c-1.962,0.007-3.903,0.011-5.768,0.254c-1.865,0.205-3.663,0.5-5.347,0.891
		c-1.688,0.372-3.26,0.842-4.704,1.3c-2.872,0.965-5.22,1.96-6.802,2.781C297.448,199.626,296.576,200.168,296.576,200.168z"/>
</g>
<path fill="none" stroke="#010101" stroke-width="2" stroke-miterlimit="10" d="M249.991,80.2c0,0,6.745,24.208,24.358,24.523
	c10.119,0,19.113-16.034,19.488-26.095c2.871-0.314,7.741-8.593,0-9.642C288.84,66.053,274,57.25,274,57.25l-22.884,11.528
	C251.115,68.778,238.872,76.952,249.991,80.2z"/>
<ellipse fill="none" stroke="#010101" stroke-width="2" stroke-miterlimit="10" cx="273.601" cy="79.886" rx="11.991" ry="9.851"/>
<path fill="none" stroke="#010101" stroke-width="2" stroke-miterlimit="10" d="M151.432,147.48c0,0,0,55.333,13.866,68.538
	c6.371,0.628,23.609,1.886,23.234-38.042"/>
<path fill="none" stroke="#010101" stroke-width="2" stroke-miterlimit="10" d="M155.929,135.848c0,0-40.473,42.757,101.182,51.56
	c35.227-0.629,86.192,0,132.661-30.182C373.283,144.651,296.835,105.666,155.929,135.848z"/>
<path fill="none" stroke="#010101" stroke-width="2" stroke-miterlimit="10" d="M155.929,135.848c0,0-34.227-27.457,2.248-46.111
	c24.483-7.336,35.477-16.139,47.968-28.714c12.491-12.576,91.94-44.434,168.886,3.772c19.486,18.863,27.482,28.924,27.482,28.924
	s3.996,17.606,24.982,25.991c12.492,8.802,44.472,26.827,20.488,53.656c-7.495,6.288-9.497,8.478-9.497,8.478
	s-35.225-25.246-48.716-24.617"/>
<path fill="none" stroke="#010101" stroke-width="2" stroke-miterlimit="10" d="M374.092,166.213
	c-0.489,0.246,12.308,1.388,22.426,42.888c4.871,9.746,20.611,20.75,27.731,12.261c0,0,5.622-19.414,23.234-14.894
	c0,0,25.483,2.214,4.496,37.321c-11.241,7.755-25.481,14.357-25.481,14.357s-6.016,59.001-80.956,82.475
	c-15.981,3.773-117.414,25.152-165.38-35.211c-9.992-10.479-19.986-31.858-21.984-36.05c-5.497-2.096-24.983-5.868-24.983-36.888
	c3.497-9.222,12.741-26.619,32.104-16.453"/>
<path fill="none" stroke="#010101" stroke-width="2" stroke-miterlimit="10" d="M161.675,223.039c0,0-6.496,19.502-2.998,33.749
	c-8.994-4.616-19.487-12.581-14.491-24.317C149.184,223.667,154.179,220.734,161.675,223.039z"/>
<g>
	<path fill="#010101" d="M262.357,272.923c0,0,0.344,0.452,0.992,1.186c0.653,0.729,1.598,1.753,2.843,2.827
		c0.615,0.544,1.327,1.072,2.081,1.606c0.761,0.528,1.617,0.985,2.502,1.421c0.897,0.42,1.869,0.707,2.857,0.946
		c0.999,0.194,2.029,0.285,3.06,0.219c1.027-0.063,2.06-0.218,3.044-0.534c0.495-0.147,0.983-0.305,1.456-0.506l0.71-0.279
		c0.229-0.114,0.454-0.227,0.679-0.338c0.456-0.211,0.889-0.452,1.308-0.704c0.419-0.25,0.851-0.463,1.229-0.741
		c0.779-0.52,1.519-1.021,2.169-1.534c0.672-0.486,1.249-0.986,1.777-1.414c0.53-0.425,0.98-0.815,1.345-1.145
		c0.739-0.647,1.18-1.009,1.18-1.009s-0.311,0.47-0.887,1.278c-0.286,0.406-0.637,0.898-1.096,1.416
		c-0.447,0.529-0.937,1.145-1.56,1.735c-0.305,0.302-0.613,0.627-0.95,0.947c-0.355,0.302-0.723,0.613-1.1,0.934
		c-0.369,0.333-0.802,0.61-1.223,0.924c-0.414,0.324-0.879,0.596-1.359,0.865c-0.237,0.138-0.478,0.276-0.72,0.416
		c-0.255,0.12-0.511,0.24-0.769,0.362c-0.26,0.118-0.517,0.248-0.785,0.358l-0.83,0.28c-1.111,0.38-2.308,0.596-3.514,0.687
		c-1.212,0.052-2.427-0.079-3.589-0.333c-1.156-0.286-2.238-0.735-3.222-1.258c-1.957-1.078-3.486-2.477-4.605-3.791
		c-1.14-1.303-1.877-2.538-2.357-3.407C262.555,273.456,262.357,272.923,262.357,272.923z"/>
</g>
<path fill="none" stroke="#010101" stroke-width="2" stroke-miterlimit="10" d="M240.622,303.733c0,0,72.433,6.288,80.437,0
	C320.818,309.393,267.055,352.659,240.622,303.733z"/>
<path fill="none" stroke="#010101" stroke-width="2" stroke-miterlimit="10" d="M433.243,218.219c0,0,17.736-6.078,17.987,8.698
	c-5.246,11.004-10.745,18.758-17.987,21.065C433.741,238.969,435.988,219.477,433.243,218.219z"/>
<ellipse fill="none" stroke="#010101" stroke-width="2" stroke-miterlimit="10" cx="340.983" cy="375.552" rx="10.242" ry="9.222"/>
<polyline fill="none" stroke="#010101" stroke-width="2" stroke-miterlimit="10" points="323.067,365.773 339.805,358.019 
	359.701,365.708 359.792,377.511 339.805,395.746 323.067,375.835 323.067,365.773 "/>
<path fill="none" stroke="#010101" stroke-width="2" stroke-miterlimit="10" d="M315.512,345.7l-16.429,27.2
	c0,0,49.759,84.257-2.351,102.702c-16.639-10.899-45.62-13.979-9.144-100.049c-4.995-8.941-14.677-22.666-17.581-28.798"/>
<path fill="none" stroke="#010101" stroke-width="2" stroke-miterlimit="10" d="M189.198,315.262c0,0-71.51,53.879,13.433,142.747"
	/>
<path fill="none" stroke="#010101" stroke-width="2" stroke-miterlimit="10" d="M182.529,433.738L79.48,366.33
	c0,0-20.236-7.618-33.727,9.223c-8.995,14.324-0.75,22.499,14.99,30.672c15.739,8.174,140.494,80.485,140.494,80.485"/>
<path fill="none" stroke="#010101" stroke-width="2" stroke-miterlimit="10" d="M210.643,384.774c0,0-5.622,67.667-9.369,79.3
	c-2.623,11.632-6.746,35.212,33.728,58.791c26.232,14.776,89.939,33.012,151.024-7.23c16.113-18.235,25.857-37.729,7.119-67.281
	c-5.621-20.75-3.746-49.359-2.623-56.904"/>
<path fill="none" stroke="#010101" stroke-width="2" stroke-miterlimit="10" d="M400.263,462.428c0,0,90.579-101.379-15.178-141.04"
	/>
<ellipse fill="none" stroke="#010101" stroke-width="2" stroke-miterlimit="10" cx="296.196" cy="494.884" rx="5.359" ry="5.659"/>
<ellipse fill="none" stroke="#010101" stroke-width="2" stroke-miterlimit="10" cx="299.833" cy="519.093" rx="6.37" ry="5.974"/>
<path fill="none" stroke="#010101" stroke-width="2" stroke-miterlimit="10" d="M220.655,513.119v17.606
	c0,0,45.489,23.475,60.104,25.36"/>
<polyline fill="none" stroke="#010101" stroke-width="2" stroke-miterlimit="10" points="280.76,538.114 280.76,558.549 
	324.004,558.549 324.004,538.885 "/>
<path fill="none" stroke="#010101" stroke-width="2" stroke-miterlimit="10" d="M324.004,556.086c0,0,49.031-7.964,58.521-23.894
	c0-6.079,0-14.321,0-14.321"/>
<line fill="none" stroke="#010101" stroke-width="2" stroke-miterlimit="10" x1="358.003" y1="530.198" x2="358.003" y2="547.419"/>
<line fill="none" stroke="#010101" stroke-width="2" stroke-miterlimit="10" x1="349.772" y1="533.132" x2="350.046" y2="550.011"/>
<line fill="none" stroke="#010101" stroke-width="2" stroke-miterlimit="10" x1="257.417" y1="532.488" x2="257.417" y2="548.136"/>
<line fill="none" stroke="#010101" stroke-width="2" stroke-miterlimit="10" x1="248.04" y1="529.075" x2="248.04" y2="543.989"/>
<path fill="none" stroke="#010101" stroke-width="2" stroke-miterlimit="10" d="M220.655,530.726c0,0-27.251,105.636-25.003,126.385
	c-8.994,3.773-54.809,38.985,4.075,39.614c18.41,0.628,96.971,6.917,57.689-30.812c5.69-11.317,8.382-78.609,44.138-95.575
	c13.268,13.205,25.26,27.667,35.002,93.062c7.496,4.401-14.549,34.236,16.708,34.095c31.258-0.143,140.93,4.89,50.119-35.982
	c2.878-15.719-11.611-108.987-20.858-129.319"/>
<path fill="none" stroke="#010101" stroke-width="2" stroke-miterlimit="10" d="M338.213,667.798c0,0,50.54,0.673,65.291-7.051"/>
<path fill="none" stroke="#010101" stroke-width="2" stroke-miterlimit="10" d="M195.652,657.11c0,0,40.337,14.777,61.765,8.803"/>
<rect x="286.154" y="541.572" fill="none" stroke="#010101" stroke-width="2" stroke-miterlimit="10" width="31.479" height="13.047"/>
<path fill="none" stroke="#010101" stroke-width="2" stroke-miterlimit="10" d="M438.49,181.842c0,0,4.496,14.317,0,24.403"/>
</svg>
