<?xml version="1.0" encoding="utf-8"?>
<!-- Generator: Adobe Illustrator 16.0.0, SVG Export Plug-In . SVG Version: 6.00 Build 0)  -->
<!DOCTYPE svg PUBLIC "-//W3C//DTD SVG 1.1//EN" "http://www.w3.org/Graphics/SVG/1.1/DTD/svg11.dtd">
<svg version="1.1" id="Layer_1" xmlns="http://www.w3.org/2000/svg" xmlns:xlink="http://www.w3.org/1999/xlink" x="0px" y="0px"
	 width="552px" height="859px" viewBox="0 0 552 859" enable-background="new 0 0 552 859" xml:space="preserve">
<rect fill="#FFFFFF" stroke="#000000" stroke-miterlimit="10" width="552" height="859"/>
<ellipse fill="none" stroke="#010101" stroke-width="2" stroke-miterlimit="10" cx="346.659" cy="199.406" rx="16.945" ry="29.415"/>
<ellipse fill="none" stroke="#010101" stroke-width="2" stroke-miterlimit="10" cx="339.772" cy="195.878" rx="6.887" ry="13.596"/>
<ellipse fill="none" stroke="#010101" stroke-width="2" stroke-miterlimit="10" cx="339.471" cy="193.978" rx="3.252" ry="5.43"/>
<ellipse fill="none" stroke="#010101" stroke-width="2" stroke-miterlimit="10" cx="275.801" cy="202.959" rx="17.287" ry="29.02"/>
<ellipse fill="none" stroke="#010101" stroke-width="2" stroke-miterlimit="10" cx="268.806" cy="198.485" rx="6.995" ry="12.568"/>
<ellipse fill="none" stroke="#010101" stroke-width="2" stroke-miterlimit="10" cx="268.539" cy="193.978" rx="4.01" ry="5.43"/>
<path fill="none" stroke="#010101" stroke-width="2" stroke-miterlimit="10" d="M389.035,140.347
	c-8.9,13.688-30.682,24.644-50.533,29.645c-46.1,6.317-86.719-6.318-108.171-19.216c-42.676-30.008,0-43.168,0-43.168
	s15.518,15.003,76.792,25.664c33.547,5.132,94.136,16.583,122.548-5.923c-1.026-13.424-17.116-79.361-86.947-83.31
	c-0.914,1.315,41.591,36.909,48.438,96.134"/>
<ellipse fill="none" stroke="#010101" stroke-width="2" stroke-miterlimit="10" cx="333.822" cy="42.394" rx="9.355" ry="6.12"/>
<path fill="none" stroke="#010101" stroke-width="2" stroke-miterlimit="10" d="M324.467,39.433c0,0-76.107-11.582-94.136,68.175"/>
<path fill="none" stroke="#010101" stroke-width="2" stroke-miterlimit="10" d="M261.366,90.234c0,0,48.151,17.604,87.401,17.62
	c1.369,11.598,0,22.653,0,22.653s-58.42-0.264-92.194-20.137C258.856,104.712,261.366,90.234,261.366,90.234z"/>
<path fill="none" stroke="#010101" stroke-width="2" stroke-miterlimit="10" d="M250.641,183.941c0,0,10.923-17.91,17.898-17.905"/>
<path fill="none" stroke="#010101" stroke-width="2" stroke-miterlimit="10" d="M354.555,164.76c0,0,8.361,2.33,12.926,10.229
	c4.567,7.899,4.567,7.899,4.567,7.899"/>
<path fill="none" stroke="#010101" stroke-width="2" stroke-miterlimit="10" d="M241.743,156.734c0,0-4.795,22.076-14.038,26.155
	c-8.9,1.315-26.358,3.29-22.935,36.851c2.054,10.266,9.927,20.137,19.854,22.9c2.054,6.317,24.305,79.756,88.659,79.756
	c11.297-0.396,89.57,1.053,109.54-93.575c9.243-0.921,24.133-4.541,25.503-34.845c-0.343-6.812-2.739-19.644-19.513-16.683
	c-6.675,1.382-11.98,9.279-9.584,16.683c-2.738,1.284-12.152,3.456-18.143-8.589c-5.991-12.043-12.466-44.434-12.466-44.434"/>
<path fill="none" stroke="#010101" stroke-width="2" stroke-miterlimit="10" d="M429.67,127.349c0,0,0.342,45.134,0,49.811"/>
<path fill="none" stroke="#010101" stroke-width="2" stroke-miterlimit="10" d="M429.67,191.312c0,0,16.09-2.895,10.727,12.766
	c-2.854,7.37-10.385,13.293-13.58,14.478c0.8-6.054,4.448-22.534,2.169-27.455"/>
<path fill="none" stroke="#010101" stroke-width="2" stroke-miterlimit="10" d="M224.625,193.978c0,0-5.021,26.553-2.509,33.396
	c-3.879-3.158-16.105-12.516-8.216-27.967C218.463,193.417,219.148,196.642,224.625,193.978z"/>
<path fill="none" stroke="#010101" stroke-width="2" stroke-miterlimit="10" d="M224.625,146.456c0,0-1.598,30.018,0,36.91"/>
<path fill="none" stroke="#010101" stroke-width="2" stroke-miterlimit="10" d="M243.408,281.768l-32.109-10.305
	c0,0-6.529,52.118-2.422,60.409c4.108,7.897,36.628,22.111,44.843,24.48c0,8.686,0,121.083,0,121.083s3.083,31.323-5.133,66.856
	c-4.108,35.536-10.726,76.861-7.531,88.971c-7.759,5.791-46.555,38.43,2.283,41.063c29.21,0.524,56.281,4.899,43.5-33.005"/>
<path fill="none" stroke="#010101" stroke-width="2" stroke-miterlimit="10" d="M241.056,633.262c0,0,35.733,16.319,48.903,6.318
	c1.759-11.056-0.522-57.382,28.688-98.445c9.586,14.741,32.406,42.643,26.93,97.918c17.801,1.581,40.62,0,48.378-7.37
	c-0.454-6.317-3.193-59.486-12.322-90.548c-2.739-19.479-5.476-66.857-0.455-101.077c3.648-21.057,8.213-50.013,6.388-66.332
	c5.477,11.582,11.413,31.061,11.867,36.325c6.846-0.526,42.445-8.422,44.271-18.952c0,0-13.378-82.579-66.081-87.683"/>
<path fill="none" stroke="#010101" stroke-width="2" stroke-miterlimit="10" d="M348.417,639.276c0,0-21.441,35.969,15.414,33.995
	c22.707,0.922,89.965-2.579,25.7-38.666"/>
<path fill="none" stroke="#010101" stroke-width="2" stroke-miterlimit="10" d="M380.819,534.504l-19.954,4.261l9.977,51.328
	c0,0,12.961-4.06,19.12-4.005"/>
<polyline fill="none" stroke="#010101" stroke-width="2" stroke-miterlimit="10" points="250.598,534.504 271.179,539.159 
	264.676,590.093 243.503,585.309 "/>
<polyline fill="none" stroke="#010101" stroke-width="2" stroke-miterlimit="10" points="295.598,403.732 295.598,466.643 
	338.043,469.802 338.043,405.311 332.111,405.311 332.111,409.259 302.672,409.523 302.443,403.995 295.598,403.995 "/>
<path fill="none" stroke="#010101" stroke-width="2" stroke-miterlimit="10" d="M276.289,313.002c0,0,7.213,59.669,11.779,67.04
	c0.914,16.848-2.51,62.121-34.345,80.545"/>
<path fill="none" stroke="#010101" stroke-width="2" stroke-miterlimit="10" d="M292.376,319.59l9.384,56.767h29.211
	c0,0,10.496-44.783,11.41-57.402"/>
<path fill="none" stroke="#010101" stroke-width="2" stroke-miterlimit="10" d="M358.107,313.938c0,0-5.231,43.993-7.969,50.311
	c-2.738,12.109-9.128,33.166,5.935,60.014c7.304,20.006,17.316,32.64,23.035,36.324"/>
<ellipse fill="none" stroke="#010101" stroke-width="2" stroke-miterlimit="10" cx="337.759" cy="387.248" rx="4.622" ry="6.22"/>
<ellipse fill="none" stroke="#010101" stroke-width="2" stroke-miterlimit="10" cx="297.268" cy="387.248" rx="4.892" ry="6.22"/>
<path fill="none" stroke="#010101" stroke-width="2" stroke-miterlimit="10" d="M405.013,409.185c0,0,11.008,43.504,11.613,49.295
	c-3.504,4.213-6.283,10.792-5.807,16.848c6.186-3.949,7.327-1.58,7.783,17.372c2.279,11.582,16.43,29.745,10.495-4.474
	c1.828,6.316,19.854,31.322,9.584-3.16c5.023,10.529,19.173,21.321,10.729-2.368c3.648,1.844,9.583-5.264-0.459-19.742
	c-3.648-4.474-5.144-50.187-10.103-65.761"/>
<path fill="none" stroke="#010101" stroke-width="2" stroke-miterlimit="10" d="M413.626,473.895c0,0-2.955,15.318-2.27,19.859
	c-7.702,4.343-17.458,7.171-18.828,14.247c1.027,6.876,2.911,9.312,24.989,0c9.26-0.461,9.756,0,9.756,0l1.027,3.125
	c0,0-15.575,19.545-33.033,11.055c-3.595-1.381-20.536,5.134-5.305,15.992c12.151,7.502,36.113,16.551,48.778-3.669
	c7.53-11.138,6.472-29.713,6.144-40.76"/>
<path fill="none" stroke="#010101" stroke-width="2" stroke-miterlimit="10" d="M441.878,412.504c0,0,10.042-43.913,21.682-45.491
	c6.846,1.184,9.241,2.763,6.846,12.24c-2.396,9.475-24.745,66.793-24.745,66.793"/>
<path fill="none" stroke="#010101" stroke-width="2" stroke-miterlimit="10" d="M446.182,450.367c0,0,34.15-79.406,40.313-80.197
	c6.161,1.185,8.215-0.395,2.738,14.609C483.07,399.783,450,464.536,450,464.536"/>
<path fill="none" stroke="#010101" stroke-width="2" stroke-miterlimit="10" d="M285.785,277.385c0,0,29.472,10.003,53.987,2.633
	c2.152,5.263-8.346,25.738-30.025,23.397c-11.183-1.551-19.854-7.605-23.962-22.083
	C283.218,277.254,285.785,277.385,285.785,277.385z"/>
<path fill="none" stroke="#010101" stroke-width="2" stroke-miterlimit="10" d="M297.88,244.746c0,0,11.638,19.215,25.103,2.369"/>
<path fill="none" stroke="#010101" stroke-width="2" stroke-miterlimit="10" d="M210.345,279.719c0,0-44.94-9.441-48.706-13.389
	c-3.766-4.738-8.42-26.767-17.663-23.608"/>
<path fill="none" stroke="#010101" stroke-width="2" stroke-miterlimit="10" d="M207.521,318.956c0,0-51.016-11.168-53.412-20.25
	c0,0,5.477,22.506-6.162,27.244c-7.188-0.396-12.323-3.634-13.35-22.348"/>
<path fill="none" stroke="#010101" stroke-width="2" stroke-miterlimit="10" d="M136.65,263.961
	c5.477-0.395,22.471,7.895,0.967,13.424c10.329,0.395,22.574,6.712,2.246,11.45c12.192,2.37,20.75,13.763-13.139,14.581
	c-3.652-1.616-5.135-9.053,0-9.842c-3.537-0.066-9.386-11.916-2.81-13.854c-2.669-4.308-6.092-11.02,1.439-13.784
	c-3.423-2.764-10.612-11.45,0.685-13.819C131.516,250.142,155.135,254.485,136.65,263.961z"/>
<path fill="none" stroke="#010101" stroke-width="2" stroke-miterlimit="10" d="M147.148,268.339l-15.774-127.385l-0.221-1.777
	l-1.92-15.514c0,0,51.576-13.424,35.144-75.149c-26.929-2.764-90.826,2.176-114.561,24.712c2.282,10.954,6.846,62.544,55.226,54.122
	c0.275,1.589-1.951,13.663,4.963,17.242c1.484,0.769,16.033,107.527,16.033,107.527"/>
<path fill="none" stroke="#010101" stroke-width="2" stroke-miterlimit="10" d="M107.714,143.125c0,0,21.114-4.644,23.228-5.671"/>
<path fill="none" stroke="#010101" stroke-width="2" stroke-miterlimit="10" d="M105.044,127.349c0,0,22.707-2.104,24.191-3.685"/>
<path fill="none" d="M124.669,165.253"/>
</svg>
