<?xml version="1.0" encoding="utf-8"?>
<!-- Generator: Adobe Illustrator 16.0.0, SVG Export Plug-In . SVG Version: 6.00 Build 0)  -->
<!DOCTYPE svg PUBLIC "-//W3C//DTD SVG 1.1//EN" "http://www.w3.org/Graphics/SVG/1.1/DTD/svg11.dtd">
<svg version="1.1" id="Layer_1" xmlns="http://www.w3.org/2000/svg" xmlns:xlink="http://www.w3.org/1999/xlink" x="0px" y="0px"
	 width="552px" height="859px" viewBox="0 0 552 859" enable-background="new 0 0 552 859" xml:space="preserve">
<rect fill="#FFFFFF" stroke="#000000" stroke-miterlimit="10" width="552" height="859"/>
<path fill="none" stroke="#010101" stroke-width="2" stroke-miterlimit="10" d="M186.421,188.014c0,0-27.492-47.757,22.111-63.799
	c12.099-4.882,87.711-16.042,136.709-5.58c18.148,6.277,48.313,9.262,47.709,58.782"/>
<path fill="none" stroke="#010101" stroke-width="2" stroke-miterlimit="10" d="M177.569,186.289c0,0-25.597-48.068,17.05-71.984
	c14.518-5.434,55.349-22.521,103.138-17.639c17.239,1.047,73.799,7.672,92.248,24.76c9.074,7.672,22.726,35.285,11.836,55.859"/>
<path fill="none" stroke="#010101" stroke-width="2" stroke-miterlimit="10" d="M180.338,125.533c0,0,4.905-69.668,94.129-85.361
	c-0.303-1.744,0-3.254,0-3.254h20.265c0,0,1.106,2.092,0.704,3.139c1.11,0,73.155,6.522,89.91,77.773"/>
<line fill="none" stroke="#010101" stroke-width="2" stroke-miterlimit="10" x1="254.917" y1="44.823" x2="265.999" y2="95.797"/>
<line fill="none" stroke="#010101" stroke-width="2" stroke-miterlimit="10" x1="312.466" y1="43.472" x2="301.067" y2="96.899"/>
<path fill="none" stroke="#010101" stroke-width="2" stroke-miterlimit="10" d="M189.175,189.427c0,0-30.408-19.18-19.439,36.268
	c5.224,10.461,7.945,13.949,15.507,16.042c1.21,5.58,12.098,50.217,47.183,69.396c5.747,4.534,66.238,31.735,118.866-14.995
	c12.098-8.718,33.33-32.083,34.055-66.956c4.356-0.349,25.226-5.928,27.041-30.688c-0.908-7.323-1.513-28.596-24.196-19.529
	c-4.234,4.534-5.444,13.601-5.444,13.601l-1.815,3.487c0,0-18.752,2.441-19.962-23.016c-0.907-14.646-5.747-29.113-10.283-33.389
	c-4.235,1.654-8.771,3.398-9.68,7.932c-3.931-1.046-6.048-12.206-10.282-11.508c-3.933-0.697-23.29-8.021-52.022,21.272
	c-4.234-5.928-6.352-9.764-3.933-14.995c-9.98,6.277-17.845,11.857-18.147,18.831c-4.839-10.461-6.654-9.067-4.537-13.251
	c-7.562-0.697-40.831-3.482-46.578-19.529C206.717,144.441,217,181.406,189.175,189.427z"/>
<g>
	<path fill="#010101" d="M254.808,174.083c0,0-0.718-0.485-2.055-1.167c-1.329-0.69-3.285-1.564-5.71-2.288
		c-1.218-0.344-2.553-0.633-3.971-0.846c-1.424-0.176-2.931-0.248-4.479-0.182c-1.545,0.106-3.129,0.341-4.69,0.778
		c-1.557,0.439-3.107,1.023-4.556,1.82c-0.364,0.195-0.737,0.374-1.096,0.577l-1.051,0.66c-0.716,0.413-1.354,0.943-2.018,1.424
		c-1.288,1.014-2.521,2.074-3.623,3.203c-0.583,0.531-1.069,1.142-1.594,1.695c-0.522,0.555-1.021,1.111-1.465,1.689
		c-0.458,0.568-0.904,1.121-1.335,1.655c-0.407,0.555-0.801,1.092-1.18,1.606c-0.777,1.019-1.397,2.018-1.99,2.878
		c-0.595,0.86-1.076,1.635-1.468,2.278c-0.809,1.275-1.271,2.003-1.271,2.003s0.334-0.796,0.92-2.19
		c0.297-0.697,0.657-1.545,1.157-2.475c0.487-0.936,0.992-2.022,1.692-3.124c0.335-0.561,0.685-1.144,1.046-1.749
		c0.389-0.587,0.818-1.177,1.246-1.794c0.417-0.626,0.892-1.235,1.394-1.847c0.496-0.617,0.993-1.256,1.574-1.843
		c1.114-1.215,2.333-2.425,3.706-3.506c0.7-0.524,1.373-1.094,2.137-1.552l1.121-0.724c0.386-0.224,0.785-0.428,1.178-0.64
		c1.581-0.839,3.279-1.457,4.984-1.911c1.709-0.468,3.457-0.611,5.128-0.668c1.68-0.022,3.29,0.184,4.785,0.472
		c1.494,0.313,2.863,0.752,4.092,1.231c2.451,0.982,4.315,2.142,5.545,3.032C254.196,173.467,254.808,174.083,254.808,174.083z"/>
</g>
<g>
	<path fill="#010101" d="M287.912,171.642c0,0,0.581-0.646,1.721-1.658c1.148-0.997,2.853-2.373,5.108-3.728
		c1.124-0.683,2.385-1.359,3.771-1.979c1.393-0.593,2.885-1.207,4.508-1.603c1.611-0.421,3.321-0.765,5.09-0.84
		c1.764-0.129,3.575-0.001,5.354,0.287c0.886,0.178,1.771,0.358,2.622,0.653c0.871,0.234,1.69,0.594,2.509,0.934
		c0.827,0.323,1.572,0.798,2.339,1.197c0.735,0.454,1.433,0.946,2.131,1.408c0.648,0.526,1.285,1.043,1.909,1.549
		c0.571,0.559,1.13,1.106,1.674,1.639c0.539,0.535,0.995,1.117,1.464,1.651c0.229,0.272,0.452,0.541,0.673,0.803
		c0.2,0.278,0.397,0.55,0.591,0.817c0.383,0.533,0.75,1.043,1.1,1.529c0.311,0.51,0.605,0.994,0.883,1.448
		c0.563,0.901,1.016,1.706,1.342,2.396c0.668,1.363,1.05,2.142,1.05,2.142s-0.505-0.703-1.389-1.934
		c-0.416-0.629-0.983-1.349-1.633-2.169c-0.323-0.41-0.666-0.847-1.028-1.307c-0.386-0.438-0.792-0.899-1.215-1.38
		c-0.21-0.24-0.425-0.485-0.644-0.735c-0.236-0.233-0.477-0.471-0.721-0.712c-0.498-0.472-0.963-1.009-1.515-1.481
		c-0.551-0.471-1.116-0.954-1.693-1.448c-0.608-0.448-1.23-0.905-1.863-1.371c-0.671-0.402-1.338-0.834-2.036-1.229
		c-0.358-0.176-0.72-0.354-1.083-0.532c-0.359-0.186-0.719-0.377-1.104-0.512c-0.756-0.301-1.511-0.625-2.31-0.825
		c-0.78-0.262-1.593-0.409-2.401-0.566c-1.621-0.282-3.277-0.426-4.909-0.328c-0.816,0.01-1.622,0.127-2.423,0.197
		c-0.792,0.135-1.586,0.226-2.347,0.423c-1.537,0.325-2.994,0.795-4.365,1.274c-1.358,0.516-2.634,1.049-3.785,1.605
		c-2.304,1.112-4.144,2.227-5.414,3.038C288.606,171.119,287.912,171.642,287.912,171.642z"/>
</g>
<path fill="none" stroke="#010101" stroke-width="2" stroke-miterlimit="10" d="M187.058,195.006c0,0-5.142,18.956-1.513,30.75
	c-8.771-2.851-15.123-14.708-12.098-24.473C176.472,196.401,180.706,188.729,187.058,195.006z"/>
<path fill="none" stroke="#010101" stroke-width="2" stroke-miterlimit="10" d="M392.425,191.868c0,0,2.118,16.042-1.814,25.457
	c8.166-3.139,13.309-4.882,13.61-16.042C403.919,194.31,398.474,181.058,392.425,191.868z"/>
<g>
	<path fill="#010101" d="M261.159,246.618c0,0,0.243,0.381,0.693,1.015c0.447,0.635,1.111,1.518,1.953,2.506
		c0.862,0.968,1.903,2.057,3.172,2.947c0.622,0.461,1.318,0.836,2.037,1.143c0.715,0.32,1.481,0.523,2.258,0.591
		c0.772,0.121,1.564,0.058,2.337-0.059c0.767-0.165,1.539-0.338,2.252-0.649c0.721-0.283,1.403-0.632,2.046-0.979
		c0.629-0.375,1.235-0.726,1.769-1.103c0.549-0.353,1.027-0.719,1.462-1.035c0.438-0.313,0.813-0.599,1.115-0.844
		c0.615-0.479,0.985-0.744,0.985-0.744s-0.243,0.376-0.7,1.021c-0.227,0.323-0.506,0.716-0.875,1.124
		c-0.357,0.419-0.754,0.906-1.26,1.366c-0.248,0.235-0.495,0.496-0.775,0.74c-0.291,0.233-0.591,0.475-0.9,0.722
		c-0.643,0.467-1.337,0.962-2.145,1.338c-0.79,0.401-1.67,0.74-2.609,0.939c-0.943,0.172-1.94,0.275-2.93,0.147
		c-0.987-0.114-1.951-0.401-2.819-0.816c-0.884-0.391-1.65-0.947-2.329-1.519c-0.694-0.562-1.258-1.206-1.759-1.827
		c-0.513-0.613-0.906-1.254-1.262-1.84c-0.693-1.187-1.119-2.243-1.374-2.991C261.247,247.062,261.159,246.618,261.159,246.618z"/>
</g>
<path fill="none" stroke="#010101" stroke-width="2" stroke-miterlimit="10" d="M251.481,284.979c0,0,36.597-7.672,49.905,1.744
	C299.27,294.743,266.906,321.943,251.481,284.979z"/>
<path fill="none" stroke="#010101" stroke-width="2" stroke-miterlimit="10" d="M222.985,304.966c0,0-30.276,6.864-55.635,101.37
	c6.702,3.836,29.386,16.39,29.386,16.39s20.137-36.617,26.249-42.196c-1.75,19.877-4.774,46.381-4.774,46.381"/>
<path fill="none" stroke="#010101" stroke-width="2" stroke-miterlimit="10" d="M239.185,314.676c0,0,4.632,21.101,40.322,20.17
	c1.614,4.185,1.211,13.251,1.211,13.251"/>
<path fill="none" stroke="#010101" stroke-width="2" stroke-miterlimit="10" d="M337.061,306.944c0,0-3.716,25.346-43.842,28.135
	c0.403,5.115-0.808,13.019-0.808,13.019"/>
<ellipse fill="none" stroke="#010101" stroke-width="2" stroke-miterlimit="10" cx="286.362" cy="355.306" rx="17.142" ry="7.208"/>
<ellipse fill="none" stroke="#010101" stroke-width="2" stroke-miterlimit="10" cx="285.355" cy="393.201" rx="18.148" ry="6.509"/>
<ellipse fill="none" stroke="#010101" stroke-width="2" stroke-miterlimit="10" cx="286.362" cy="425.749" rx="17.142" ry="6.51"/>
<line fill="none" stroke="#010101" stroke-width="2" stroke-miterlimit="10" x1="280.762" y1="362.114" x2="280.762" y2="386.902"/>
<line fill="none" stroke="#010101" stroke-width="2" stroke-miterlimit="10" x1="291.99" y1="362.114" x2="291.302" y2="387.05"/>
<line fill="none" stroke="#010101" stroke-width="2" stroke-miterlimit="10" x1="279.747" y1="399.391" x2="279.066" y2="420.278"/>
<line fill="none" stroke="#010101" stroke-width="2" stroke-miterlimit="10" x1="290.967" y1="399.391" x2="290.195" y2="419.405"/>
<path fill="none" stroke="#010101" stroke-width="2" stroke-miterlimit="10" d="M344.18,301.974c0,0,40.382,8.805,62.158,63.964
	c8.87,24.938,13.71,58.416,3.63,86.314c-1.21,0.931-11.29-0.931-15.324-7.905c-5.244-4.185-12.165-14.412-14.752-12.088
	c0.234-6.045-6.22-37.875-22.752-45.209c0,12.196,0.805,54.974,0.805,54.974"/>
<path fill="none" stroke="#010101" stroke-width="2" stroke-miterlimit="10" d="M379.892,431.572c0,0-6.067,7.195-5.16,12.426
	c1.814,2.616,12.4,10.985,13.913,16.565c1.966,5.579,5.141,11.333,9.829,9.59c3.479-1.744,11.796-12.96,11.494-17.901"/>
<path fill="none" stroke="#010101" stroke-width="2" stroke-miterlimit="10" d="M375.342,444.747c0,0-20.826-4.351-22.437,0.996
	c1.007,3.719,6.049,10.462,14.518,9.765c-3.428,4.185-4.842,11.623-18.954,20.458c-0.806,2.092,5.702,10.229,13.435,3.487
	c-0.126,2.325,1.887,5.944,8.342,2.623c1.814,4.12,2.353,8.536,9.646,4.352c2.653,2.325,8.098,7.56,11.729,1.688
	c3.427-3.779,5.482-17.472,6.289-17.789"/>
<path fill="none" stroke="#010101" stroke-width="2" stroke-miterlimit="10" d="M169.045,407.3c0,0-8.906,4.964-8.906,7.987
	c-4.234,0.232-15.325,2.2-18.147,7.613"/>
<path fill="none" stroke="#010101" stroke-width="2" stroke-miterlimit="10" d="M176.674,440.86c0,0,6.654-14.181,8.065,0.93
	c0.605,10.229,0,15.344,0,15.344s-7.863,7.674-10.485-1.859c-2.621,3.952-10.284,7.672-11.09-0.232c-1.814,2.79-8.67,8.369-10.889,0
	c-2.419,3.952-8.871,5.579-9.074-2.79c-0.202-8.369,4.033-33.942,10.687-11.856c3.427-5.115,7.461-11.857,11.695,0
	C167.398,436.908,174.254,427.84,176.674,440.86z"/>
<ellipse fill="none" stroke="#010101" stroke-width="2" stroke-miterlimit="10" cx="287.119" cy="496.133" rx="17.896" ry="7.498"/>
<path fill="none" stroke="#010101" stroke-width="2" stroke-miterlimit="10" d="M406.074,461.733l23.852,1.911
	c0,0,65.536,7.385,60.695,74.019c-3.629,41.526-2.311,30.831,0.257,49.896c-0.257,19.995-10.385,67.759-50.665,59.795
	c-8.733-1.727-73.441-16.87-73.441-16.87"/>
<path fill="none" stroke="#010101" stroke-width="2" stroke-miterlimit="10" d="M394.164,483.138l35.762,7.667
	c0,0,40.532,2.599,36.5,52.001c-4.034,41.032,12.903,76.138-29.842,77.648c-18.642,0.66-71.645-19.992-71.645-19.992"/>
<path fill="none" stroke="#010101" stroke-width="2" stroke-miterlimit="10" d="M352.905,445.743c0,0-127.233-24.179-244.989-22.785
	c-0.403,18.134,0,25.109,0,25.109s35.203-1.278,35.279,0"/>
<path fill="none" stroke="#010101" stroke-width="2" stroke-miterlimit="10" d="M184.985,452.476c0,0,120.333,11.341,163.482,23.49"
	/>
<path fill="none" stroke="#010101" stroke-width="2" stroke-miterlimit="10" d="M217.007,455.78v61.103
	c0,0,21.803,24.759,73.96,20.226c11.932,0.349,66.979-2.092,75.75-21.621c0.604-9.764-4.079-23.203-3.856-33.223"/>
<path fill="none" stroke="#010101" stroke-width="2" stroke-miterlimit="10" d="M364.939,499.016c0,0-13.616,17.518-73.974,21.005
	c-7.73,0-46.734-0.348-73.96-18.83"/>
<line fill="none" stroke="#010101" stroke-width="2" stroke-miterlimit="10" x1="281.926" y1="432.037" x2="281.926" y2="434.773"/>
<line fill="none" stroke="#010101" stroke-width="2" stroke-miterlimit="10" x1="290.8" y1="432.037" x2="291.134" y2="436.003"/>
<line fill="none" stroke="#010101" stroke-width="2" stroke-miterlimit="10" x1="280.636" y1="463.588" x2="281.092" y2="489.074"/>
<line fill="none" stroke="#010101" stroke-width="2" stroke-miterlimit="10" x1="290.973" y1="465.067" x2="290.973" y2="488.812"/>
<line fill="none" stroke="#010101" stroke-width="2" stroke-miterlimit="10" x1="280.636" y1="503.121" x2="280.862" y2="519.73"/>
<line fill="none" stroke="#010101" stroke-width="2" stroke-miterlimit="10" x1="291.887" y1="503.361" x2="292.466" y2="519.931"/>
<path fill="none" stroke="#010101" stroke-width="2" stroke-miterlimit="10" d="M218.804,518.643c0,0-3.617,77.287-7.247,140.522
	c-2.823,3.719-39.141,39.987,7.247,39.987c17.755,1.86,60.907,12.555,43.969-31.618c1.21-12.089,1.143-73.466,29.404-99.505
	c7.291,12.091,25.032,16.741,26.646,95.784c1.614,2.79,3.431,3.72,3.431,3.72s-17.24,34.355,11.19,34.091
	c26.012-0.962,90.152-0.77,35.993-41.763c-2.42-8.37-7.252-118.155-9.352-136.797"/>
<path fill="none" stroke="#010101" stroke-width="2" stroke-miterlimit="10" d="M318.203,647.338c0,0,41.277,0.866,48.979-10.741"/>
<path fill="none" stroke="#010101" stroke-width="2" stroke-miterlimit="10" d="M322.255,667.533c0,0,34.555,1.074,46.816-9.577"/>
<path fill="none" stroke="#010101" stroke-width="2" stroke-miterlimit="10" d="M264.164,647.354c0,0-40.249-1.539-51.469-8.464"/>
<path fill="none" stroke="#010101" stroke-width="2" stroke-miterlimit="10" d="M262.773,667.534c0,0-36.294,1.396-51.216-8.369"/>
<path fill="none" stroke="#010101" stroke-width="2" stroke-miterlimit="10" d="M314.407,613.901
	c-0.189-0.991-37.353-14.812-40.461-16.16"/>
<path fill="none" stroke="#010101" stroke-width="2" stroke-miterlimit="10" d="M215.689,582.088
	c-3.426-2.447-34.681-5.225-35.588-5.225l-0.302-28.014c0,0,31.165-2.675,37.208,3.604"/>
<polyline fill="none" stroke="#010101" stroke-width="2" stroke-miterlimit="10" points="179.799,548.85 177.279,545.479 
	172.238,544.2 172.238,536.762 158.122,536.762 "/>
<polyline fill="none" stroke="#010101" stroke-width="2" stroke-miterlimit="10" points="180.101,576.863 177.833,580.003 
	172.691,580.003 172.691,586.279 158.122,586.978 "/>
<polyline fill="none" stroke="#010101" stroke-width="2" stroke-miterlimit="10" points="107.915,422.958 98.892,418.367 
	57.607,422.9 57.002,445.839 102.219,452.476 107.915,448.067 "/>
<polyline fill="none" stroke="#010101" stroke-width="2" stroke-miterlimit="10" points="57.533,425.64 53.675,425.64 
	52.667,441.441 57.002,442.837 "/>
<path fill="none" stroke="#010101" stroke-width="2" stroke-miterlimit="10" d="M158.122,657.956v-169.32
	c0,0-6.048-9.417-16.13-8.951c-0.402-4.649,0.807-14.988-18.55-16.097c-3.024,0.753-11.896,2.611-15.525,16.097
	c-1.413,0-14.721,4.186-15.93,12.322c0.202,6.975,0,165.949,0,165.949S134.935,673.721,158.122,657.956z"/>
<path fill="none" stroke="#010101" stroke-width="2" stroke-miterlimit="10" d="M91.986,647.354c0,0-15.526,11.579-3.428,21.808
	c7.864,4.649,49.603,16.504,71.783,1.626c8.469-7.903,13.308-17.344-2.218-23.434"/>
<path fill="none" stroke="#010101" stroke-width="2" stroke-miterlimit="10" d="M107.915,479.685c0,0,21.828,9.357,34.077,0"/>
<path fill="none" stroke="#010101" stroke-width="2" stroke-miterlimit="10" d="M92.061,509.518c0,0,47.714,11.549,66.063-1.936"/>
<path fill="none" stroke="#010101" stroke-width="2" stroke-miterlimit="10" d="M92.07,520.021c0,0,35.203,13.37,66.053,0"/>
<line fill="none" stroke="#010101" stroke-width="2" stroke-miterlimit="10" x1="172.238" y1="544.2" x2="172.691" y2="580.003"/>
<ellipse fill="none" stroke="#010101" stroke-width="2" stroke-miterlimit="10" cx="125.357" cy="562.102" rx="15.627" ry="17.901"/>
<ellipse fill="none" stroke="#010101" stroke-width="2" stroke-miterlimit="10" cx="125.155" cy="561.869" rx="21.677" ry="25.108"/>
<polyline fill="none" stroke="#010101" stroke-width="2" stroke-miterlimit="10" points="92.076,536.762 79.686,536.762 
	80.493,586.978 92.055,586.978 "/>
<polyline fill="none" stroke="#010101" stroke-width="2" stroke-miterlimit="10" points="79.686,542.806 71.368,544.2 
	71.368,578.259 80.397,581.043 "/>
<line fill="none" stroke="#010101" stroke-width="2" stroke-miterlimit="10" x1="195.452" y1="422.015" x2="194.385" y2="425.824"/>
<ellipse fill="none" stroke="#010101" stroke-width="2" stroke-miterlimit="10" cx="310.055" cy="199.656" rx="18.25" ry="29.409"/>
<ellipse fill="none" stroke="#010101" stroke-width="2" stroke-miterlimit="10" cx="306.225" cy="200.981" rx="7.158" ry="13.206"/>
<ellipse fill="none" stroke="#010101" stroke-width="2" stroke-miterlimit="10" cx="305.72" cy="199.307" rx="2.824" ry="4.882"/>
<ellipse fill="none" stroke="#010101" stroke-width="2" stroke-miterlimit="10" cx="236.829" cy="204.189" rx="18.938" ry="28.11"/>
<ellipse fill="none" stroke="#010101" stroke-width="2" stroke-miterlimit="10" cx="232.828" cy="201.678" rx="6.555" ry="13.903"/>
<ellipse fill="none" stroke="#010101" stroke-width="2" stroke-miterlimit="10" cx="232.525" cy="199.307" rx="2.623" ry="4.882"/>
</svg>
