<?xml version="1.0" encoding="utf-8"?>
<!-- Generator: Adobe Illustrator 16.0.0, SVG Export Plug-In . SVG Version: 6.00 Build 0)  -->
<!DOCTYPE svg PUBLIC "-//W3C//DTD SVG 1.1//EN" "http://www.w3.org/Graphics/SVG/1.1/DTD/svg11.dtd">
<svg version="1.1" id="Layer_1" xmlns="http://www.w3.org/2000/svg" xmlns:xlink="http://www.w3.org/1999/xlink" x="0px" y="0px"
	 width="552px" height="859px" viewBox="0 0 552 859" enable-background="new 0 0 552 859" xml:space="preserve">
<rect fill="#FFFFFF" stroke="#000000" stroke-miterlimit="10" width="552" height="859"/>
<ellipse fill="none" stroke="#010101" stroke-width="2" stroke-miterlimit="10" cx="267.058" cy="202.842" rx="21.293" ry="28.917"/>
<ellipse fill="none" stroke="#010101" stroke-width="2" stroke-miterlimit="10" cx="347.496" cy="205.115" rx="21.292" ry="28.917"/>
<ellipse fill="none" stroke="#010101" stroke-width="2" stroke-miterlimit="10" cx="274.631" cy="197.019" rx="7.572" ry="13.856"/>
<ellipse fill="none" stroke="#010101" stroke-width="2" stroke-miterlimit="10" cx="354.616" cy="200.716" rx="7.572" ry="13.856"/>
<ellipse fill="none" stroke="#010101" stroke-width="2" stroke-miterlimit="10" cx="273.547" cy="195.613" rx="3.086" ry="6.024"/>
<ellipse fill="none" stroke="#010101" stroke-width="2" stroke-miterlimit="10" cx="355.732" cy="198.224" rx="3.882" ry="5.824"/>
<g>
	<path fill="#010101" d="M328.371,173.925c0,0,0.678-0.629,1.979-1.596c1.306-0.955,3.239-2.253,5.742-3.503
		c1.254-0.618,2.639-1.249,4.16-1.782c1.521-0.528,3.153-1.045,4.901-1.348c1.737-0.339,3.576-0.551,5.454-0.519
		c1.88-0.022,3.786,0.275,5.656,0.683c0.918,0.279,1.854,0.501,2.73,0.89c0.442,0.181,0.892,0.342,1.323,0.54l1.265,0.646
		c0.861,0.391,1.604,0.969,2.384,1.457c0.758,0.521,1.438,1.125,2.143,1.669c0.657,0.598,1.282,1.209,1.89,1.808
		c0.577,0.626,1.101,1.275,1.629,1.886c0.535,0.607,0.952,1.275,1.401,1.884c0.218,0.31,0.431,0.615,0.641,0.914
		c0.186,0.313,0.369,0.62,0.548,0.921c0.355,0.602,0.695,1.178,1.019,1.727c0.297,0.563,0.547,1.112,0.798,1.619
		c0.509,1.01,0.913,1.906,1.189,2.669c0.576,1.509,0.905,2.372,0.905,2.372s-0.459-0.799-1.262-2.197
		c-0.373-0.711-0.9-1.532-1.501-2.471c-0.302-0.468-0.605-0.976-0.956-1.49c-0.363-0.504-0.746-1.035-1.145-1.588
		c-0.199-0.275-0.402-0.557-0.609-0.844c-0.228-0.271-0.459-0.545-0.695-0.825c-0.482-0.548-0.913-1.173-1.464-1.717
		c-0.543-0.55-1.079-1.135-1.662-1.693c-0.618-0.52-1.212-1.089-1.854-1.622c-0.68-0.482-1.335-1.024-2.057-1.479
		c-0.365-0.22-0.733-0.441-1.103-0.663c-0.359-0.241-0.741-0.442-1.135-0.626l-1.17-0.58c-0.398-0.176-0.814-0.317-1.222-0.479
		c-0.806-0.351-1.67-0.535-2.512-0.787c-1.712-0.392-3.46-0.694-5.207-0.693c-0.436-0.028-0.869-0.022-1.303,0
		c-0.433,0.014-0.864,0.014-1.292,0.039c-0.854,0.086-1.705,0.131-2.53,0.283c-3.324,0.481-6.352,1.465-8.893,2.442
		c-2.533,1.006-4.582,2.034-5.996,2.793C329.151,173.429,328.371,173.925,328.371,173.925z"/>
</g>
<g>
	<path fill="#010101" d="M288.351,176.198c0,0-0.497-0.755-1.488-1.97c-0.989-1.212-2.472-2.89-4.471-4.632
		c-2.001-1.723-4.528-3.535-7.538-4.751c-0.738-0.339-1.533-0.555-2.317-0.823c-0.811-0.176-1.614-0.423-2.454-0.527
		c-1.661-0.31-3.389-0.324-5.097-0.2c-0.854,0.094-1.714,0.146-2.554,0.345l-1.262,0.25l-1.234,0.356
		c-0.828,0.209-1.616,0.532-2.408,0.816c-0.801,0.261-1.545,0.644-2.295,0.979c-0.759,0.318-1.46,0.725-2.161,1.101
		c-0.702,0.374-1.394,0.731-2.027,1.155c-0.646,0.403-1.274,0.796-1.881,1.176c-0.589,0.413-1.158,0.811-1.704,1.193
		c-1.11,0.746-2.056,1.529-2.927,2.187c-0.874,0.655-1.606,1.265-2.204,1.774c-1.219,1-1.915,1.572-1.915,1.572
		s0.597-0.676,1.641-1.86c0.526-0.591,1.165-1.31,1.972-2.061c0.795-0.764,1.66-1.667,2.726-2.517
		c0.521-0.44,1.064-0.899,1.626-1.374c0.597-0.433,1.214-0.881,1.849-1.341c0.624-0.478,1.315-0.896,2.019-1.332
		c0.697-0.446,1.425-0.879,2.205-1.252c0.773-0.385,1.541-0.815,2.379-1.128c0.825-0.342,1.655-0.705,2.544-0.937l1.32-0.397
		l1.361-0.291c0.904-0.223,1.841-0.301,2.772-0.408c1.87-0.113,3.766-0.069,5.583,0.292c0.92,0.121,1.793,0.418,2.666,0.652
		c0.845,0.322,1.697,0.595,2.479,0.99c1.602,0.708,3.028,1.626,4.295,2.579c1.286,0.934,2.374,1.968,3.327,2.955
		c0.967,0.977,1.739,1.972,2.411,2.852c0.662,0.89,1.186,1.701,1.595,2.381C288.001,175.363,288.351,176.198,288.351,176.198z"/>
</g>
<path fill="none" stroke="#010101" stroke-width="2" stroke-miterlimit="10" d="M162.264,111.171l5.715,26.608
	c0,0-0.796,37.101,0,42.057"/>
<path fill="none" stroke="#010101" stroke-width="2" stroke-miterlimit="10" d="M167.979,137.779c0,0,9.949,17.535,79.997,19.211
	c47.759-0.736,143.278-6.76,173.128-27.645c9.55-9.639-11.146-15.262-13.533-15.262c-0.995-8.233-0.796-20.482-0.796-20.482"/>
<path fill="none" stroke="#010101" stroke-width="2" stroke-miterlimit="10" d="M407.571,114.083c0,0-53.331,27.579-149.911,27.042
	c-27.063,1.071-70.723-0.019-90.152-6.436"/>
<path fill="none" stroke="#010101" stroke-width="2" stroke-miterlimit="10" d="M190.321,149.73"/>
<path fill="none" stroke="#010101" stroke-width="2" stroke-miterlimit="10" d="M282.761,50.043
	c75.063-6.293,137.251,4.822,138.897,24.826c1.646,20.006-57.869,41.324-132.935,47.617c-75.064,6.294-137.25-4.821-138.898-24.826
	C148.179,77.655,207.696,56.337,282.761,50.043z"/>
<polyline fill="none" stroke="#010101" stroke-width="2" stroke-miterlimit="10" points="292.931,155.173 304.094,162.215 
	308.061,154.086 "/>
<path fill="none" stroke="#010101" stroke-width="2" stroke-miterlimit="10" d="M383.817,143.428c0,0,2.661,43.516,20.968,43.432
	c2.39-9.722,13.437-43.829,4.529-51.274"/>
<path fill="none" stroke="#010101" stroke-width="2" stroke-miterlimit="10" d="M405.219,185.172c0,0,24.376-8.167,25.969,25.702
	c0.53,9.772-8.493,23.428-23.35,33.066c-2.124,6.16-14.594,66.938-89.02,81.396c-12.735,2.811-98.197,4.016-128.498-53.015
	c-11.994-20.081-15.178-31.728-13.984-40.563c-6.765,0.401-33.229-4.82-26.566-39.359c3.085-10.844,17.015-16.868,25.771-9.237
	c6.368,7.229,3.582,12.45,3.98,15.061c0,0,21.093,10.105,30.646-41.234l0.769-2.903"/>
<path fill="none" stroke="#010101" stroke-width="2" stroke-miterlimit="10" d="M167.979,192.4c0,0-1.99,25.704,4.377,28.917
	c-7.164-3.615-19.104-5.623-16.715-17.27C158.029,192.4,163.601,191.195,167.979,192.4z"/>
<path fill="none" stroke="#010101" stroke-width="2" stroke-miterlimit="10" d="M404.918,197.019c0,0,14.326-5.555,16.187,11.045
	c0.263,6.157-0.268,13.388-13.533,22.759C408.368,224.931,409.164,198.826,404.918,197.019z"/>
<g>
	<path fill="#010101" d="M292.931,249.832c0,0,0.415,0.349,1.154,0.925c0.736,0.579,1.802,1.383,3.108,2.276
		c1.311,0.888,2.868,1.862,4.612,2.698c0.864,0.434,1.794,0.784,2.734,1.104c0.94,0.335,1.926,0.523,2.905,0.658
		c0.979,0.106,1.965,0.137,2.915-0.007c0.475-0.065,0.937-0.182,1.397-0.281c0.441-0.161,0.908-0.25,1.319-0.467
		c0.425-0.185,0.838-0.375,1.224-0.613c0.398-0.212,0.779-0.44,1.123-0.71c0.356-0.25,0.703-0.498,1.008-0.782
		c0.311-0.274,0.639-0.516,0.909-0.795c0.536-0.564,1.073-1.052,1.474-1.557c0.414-0.492,0.807-0.905,1.075-1.287
		c0.571-0.74,0.919-1.161,0.919-1.161s-0.197,0.499-0.58,1.37c-0.179,0.443-0.46,0.946-0.792,1.524
		c-0.306,0.596-0.754,1.204-1.24,1.877c-0.524,0.641-1.092,1.358-1.841,1.978c-0.35,0.338-0.747,0.643-1.174,0.935
		c-0.404,0.324-0.879,0.562-1.357,0.815c-0.959,0.496-2.037,0.881-3.17,1.063c-1.133,0.195-2.302,0.19-3.449,0.083
		c-1.135-0.177-2.256-0.425-3.295-0.819c-1.049-0.367-2.021-0.86-2.924-1.374c-0.917-0.496-1.724-1.092-2.485-1.647
		c-0.75-0.573-1.429-1.148-2.022-1.711c-1.201-1.111-2.087-2.144-2.673-2.888C293.22,250.291,292.931,249.832,292.931,249.832z"/>
</g>
<path fill="none" stroke="#010101" stroke-width="2" stroke-miterlimit="10" d="M270.462,280.757c0,0,32.436,18.475,64.674,0
	c0,15.262-39.401,49.979-64.674,4.106C269.468,281.829,268.672,280.757,270.462,280.757z"/>
<path fill="none" stroke="#010101" stroke-width="2" stroke-miterlimit="10" d="M221.771,305.293c0,0-43.444,22.454-91.203,105.991
	c-5.571,16.868,0.796,17.137,10.614,25.972c9.818,8.033,26.002,24.901,40.861-8.032c15.654-20.884,29.982-38.826,35.554-39.895
	c-1.858,16.868-13.002,115.937-13.002,124.504c2.654,9.103,9.022,19.813,53.066,18.206c33.432,1.072,72.169-6.426,72.169-6.426"/>
<path fill="none" stroke="#010101" stroke-width="2" stroke-miterlimit="10" d="M354.616,312.915c0,0,80.019,59.01,107.878,116.844
	c-7.96,8.032-28.391,13.389-30.515,23.563c-6.101-2.143-57.573-38.824-64.737-58.37c3.714,21.956,6.003,66.167,7.86,71.254"/>
<path fill="none" stroke="#010101" stroke-width="2" stroke-miterlimit="10" d="M265.55,322.27c0,0,34.502,101.866,81.495,146.847
	c23.911,38.557,46.199,64.26,49.383,106.029c-0.398,16.064-9.153,46.187-44.974,4.017c-11.939-19.68-23.083-53.015-25.87-87.555
	c-5.97-9.237-72.873-120.866-79.819-174.897"/>
<path fill="none" stroke="#010101" stroke-width="2" stroke-miterlimit="10" d="M324.523,489.919l22.521-20.802
	c0,0,39.831,0.804,49.383-14.859c10.348,9.237,68.057,66.268,54.923,105.627c-7.163,16.466-9.95,16.466-24.276,23.294
	c-14.329,6.828-38.172,14.516-38.172,14.516"/>
<line fill="none" stroke="#010101" stroke-width="2" stroke-miterlimit="10" x1="368.422" y1="402.976" x2="396.428" y2="454.258"/>
<path fill="none" stroke="#010101" stroke-width="2" stroke-miterlimit="10" d="M372.724,446.611c0,0,8.751,17.81,9.702,17.448"/>
<path fill="none" stroke="#010101" stroke-width="2" stroke-miterlimit="10" d="M277.412,353.202
	c1.741-1.358,17.395-16.353,17.395-16.353s24.677,27.846,24.941,27.042c0.267-0.803,17.012-43.282,17.012-43.282"/>
<path fill="none" stroke="#010101" stroke-width="2" stroke-miterlimit="10" d="M305.109,348.38c0,0-6.942,5.874,0,25.42
	c6.679,18.743,10.982,40.766,9.493,53.585"/>
<path fill="none" stroke="#010101" stroke-width="2" stroke-miterlimit="10" d="M284.448,346.708c0,0,8.396,15.822,0.754,24.536"/>
<path fill="none" stroke="#010101" stroke-width="2" stroke-miterlimit="10" d="M277.076,402.976c0,0-12.517,43.65,15.077,66.409
	c6.898-3.748,12.355-8.813,12.279-14.046"/>
<ellipse fill="none" stroke="#010101" stroke-width="2" stroke-miterlimit="10" cx="294.143" cy="489.334" rx="5.971" ry="6.292"/>
<ellipse fill="none" stroke="#010101" stroke-width="2" stroke-miterlimit="10" cx="294.143" cy="514.234" rx="5.971" ry="5.489"/>
<path fill="none" stroke="#010101" stroke-width="2" stroke-miterlimit="10" d="M432.903,450.84c0,0,1.2,27.652,5.977,35.147
	c4.775,6.961,9.287,5.354,6.899-12.316c2.651,2.945,13.002,24.366,19.635,22.759c6.368-0.804,3.979-14.179-4.247-22.753
	c2.389-1.077,13.799,20.877,20.167,15.791c5.038-4.552-0.797-14.121-9.024-25.401c2.921-2.979,10.087,21.116,18.577,11.746
	c6.63-6.962-3.718-17.404-20.433-32.934c4.776,0.269,14.859-2.675,13.001-10.44c-1.855-5.623-20.734,0-24.167,0"/>
<path fill="none" stroke="#010101" stroke-width="2" stroke-miterlimit="10" d="M217.686,527.861c0,0-21.052,86.644-15.877,113.954
	c-12.338,8.032-50.943,38.556,5.572,41.769c29.054,0.804,67.659,9.238,50.545-32.13c1.99-7.229,10.746-80.323,33.432-105.626
	c6.766,6.024,34.76,33.335,38.473,102.013c-5.439,8.433-18.176,37.012,27.196,36.981c34.228,0.368,83.255-1.639,31.876-40.998
	c1.156-15.262-1.628-38.936-3.617-43.164"/>
<path fill="none" stroke="#010101" stroke-width="2" stroke-miterlimit="10" d="M329.83,647.841c0,0,46.984,3.95,59.18-5.656"/>
<path fill="none" stroke="#010101" stroke-width="2" stroke-miterlimit="10" d="M201.809,641.815c0,0,40.595,13.655,56.117,9.639"/>
<path fill="none" stroke="#010101" stroke-width="2" stroke-miterlimit="10" d="M130.157,427.359c-0.253-0.411-9.54,7.42-9.54,7.42
	l4.77,3.012l3.104-1.611c0,0-9.864,28.251-4.491,33.205c6.567,3.549,10.149,2.545,18.507-18.54c5.97,6.225,9.95,5.822,9.95,5.822
	s3.306,2.118,4.141-8.881"/>
<polyline fill="none" stroke="#010101" stroke-width="2" stroke-miterlimit="10" points="126.939,440.99 87.784,414.297 
	41.815,483.042 160.417,566.712 200.217,495.626 143.811,452.127 "/>
<path fill="none" stroke="#010101" stroke-width="2" stroke-miterlimit="10" d="M91.034,427.343
	c0.53,0.809,24.94,18.481,24.94,18.481l-10.614,17.671l-26.531-18.076L91.034,427.343z"/>
<line fill="none" stroke="#010101" stroke-width="2" stroke-miterlimit="10" x1="113.322" y1="495.626" x2="164.795" y2="530.699"/>
<line fill="none" stroke="#010101" stroke-width="2" stroke-miterlimit="10" x1="110.668" y1="502.854" x2="160.019" y2="539.001"/>
<path fill="none" stroke="#010101" stroke-width="2" stroke-miterlimit="10" d="M106.422,510.887
	c1.062,0.535,50.174,35.343,50.174,35.343"/>
</svg>
