<?xml version="1.0" encoding="utf-8"?>
<!-- Generator: Adobe Illustrator 16.0.0, SVG Export Plug-In . SVG Version: 6.00 Build 0)  -->
<!DOCTYPE svg PUBLIC "-//W3C//DTD SVG 1.1//EN" "http://www.w3.org/Graphics/SVG/1.1/DTD/svg11.dtd">
<svg version="1.1" id="Layer_1" xmlns="http://www.w3.org/2000/svg" xmlns:xlink="http://www.w3.org/1999/xlink" x="0px" y="0px"
	 width="552px" height="859px" viewBox="0 0 552 859" enable-background="new 0 0 552 859" xml:space="preserve">
<rect x="0" fill="#FFFFFF" stroke="#000000" stroke-miterlimit="10" width="552" height="859"/>
<path fill="none" stroke="#000000" stroke-width="2" stroke-miterlimit="10" d="M191.903,169.301l-33.134,11.185L51.89,211.865
	c0,0-14.305,61.932,61.436,101.568c1.683,9.083,1.683,22.295,1.683,22.295l40.395-13.212l-0.842-20.644
	c0,0,22.723-44.591,17.673-71.015"/>
<path fill="none" stroke="#000000" stroke-width="2" stroke-miterlimit="10" d="M223.552,157.059l0.859-2.172
	c0,0,30.296-85.054,105.193-85.054c21.04,3.303,61.436-4.955,95.939,76.796c1.475,3.407,2.735,5.16,2.735,5.16
	s54.494,27.045,74.271,55.121c-9.255-6.194-216.703-75.145-347.146,9.083c0.842-6.605-1.473-39.119,70.795-59.867
	c20.199-6.193,101.621-30.966,198.505-6.813l3.128,1.504"/>
<path fill="none" stroke="#000000" stroke-width="2" stroke-miterlimit="10" d="M236.796,129.856c0,0,109.123-23.833,178.339-4.975"
	/>
<path fill="none" stroke="#000000" stroke-width="2" stroke-miterlimit="10" d="M155.404,215.993c0,0-5.576,19.406,65.747,24.67"/>
<path fill="none" stroke="#000000" stroke-width="2" stroke-miterlimit="10" d="M230.345,184.477c0,0-13.928,40.083-6.985,81.268
	c2.839,10.529,11.045,45.21,45.761,60.074c8.521,4.026,20.197,11.458,56.806,11.458c5.682-0.31,41.026-3.097,63.118-24.153
	c3.787-2.788,40.711-28.179,39.448-79.376c0.841-9.909,0.718-24.162-1.956-48.208"/>
<path fill="none" stroke="#000000" stroke-width="2" stroke-miterlimit="10" d="M502.549,206.91v1.651
	c0,0-9.175,23.947-73.596,28.489"/>
<path fill="none" stroke="#000000" stroke-width="2" stroke-miterlimit="10" d="M201.342,238.602c0,0-10.092,57.474,25.215,38.077"
	/>
<path fill="none" stroke="#000000" stroke-width="2" stroke-miterlimit="10" d="M293.32,334.553c0,0-21.781,93.661-8.316,125.04
	l-39.553,6.605c-19.356-71.84,13.873-145.491,13.873-145.491"/>
<line fill="none" stroke="#000000" stroke-width="2" stroke-miterlimit="10" x1="240.993" y1="443.573" x2="280.797" y2="438.536"/>
<path fill="none" stroke="#000000" stroke-width="2" stroke-miterlimit="10" d="M355.624,331.719c0,0,24.479,70.897,7.647,123.333
	c5.049,2.063,43.76,5.778,43.76,5.778s16.199-95.168-17.987-147.708"/>
<line fill="none" stroke="#000000" stroke-width="2" stroke-miterlimit="10" x1="367.193" y1="438.536" x2="409.418" y2="441.053"/>
<line fill="none" stroke="#000000" stroke-width="2" stroke-miterlimit="10" x1="291.627" y1="342.312" x2="358.827" y2="342.312"/>
<path fill="none" stroke="#000000" stroke-width="2" stroke-miterlimit="10" d="M254.44,333.328c0,0-72.534,29.031-81.473,57.521
	c-8.306-4.336-12.724-16.102-20.298-16.102"/>
<path fill="none" stroke="#000000" stroke-width="2" stroke-miterlimit="10" d="M129.914,391.348c0,0-24.186,28.803,4.719,47.188"/>
<path fill="none" stroke="#000000" stroke-width="2" stroke-miterlimit="10" d="M158.349,438.536c0,0,23.984-0.619,26.51-23.844
	c6.942-6.503,41.577-36.85,56.134-33.753l1.404,0.213"/>
<path fill="none" stroke="#000000" stroke-width="2" stroke-miterlimit="10" d="M146.314,325.488l37.703,334.765
	c0,0-18.515,10.734-25.667,0c1.262-11.561-36.003-326.925-36.003-326.925"/>
<path fill="none" stroke="#000000" stroke-width="2" stroke-miterlimit="10" d="M397.851,330.042c0,0,69.143,23.426,84.291,79.585
	c5.05,5.375,27.141,6.613,11.36,45.012c-11.991,9.909-22.09,16.103-38.501-3.098c-2.525-2.477-27.771,10.529-3.787-36.849
	c-3.156-8.361-22.865-30.968-42.046-37.625"/>
<path fill="none" stroke="#000000" stroke-width="2" stroke-miterlimit="10" d="M451.258,234.408c0,0,10.886,22.667-2.785,37.531
	c-8.62,3.715-15.308,9.576-24.588-6.05"/>
<path fill="none" stroke="#000000" stroke-width="2" stroke-miterlimit="10" d="M245.45,466.198c0,0-12.115,39.844-6.056,59.043
	c12.999,3.716,70.436,13.625,70.436,13.625l15.148-43.609l6.942,43.609l71.324-10.528l-5.395-67.507l-0.096-0.857l-0.017-0.249"/>
<path fill="none" stroke="#000000" stroke-width="2" stroke-miterlimit="10" d="M249.66,527.652l-8.667,40.322l66.944,7.431
	l12.534-26.631c0,0,9.557,16.103,9.557,26.631c6.312,1.24,58.278-6.192,58.278-6.192v-38.67"/>
<path fill="none" stroke="#000000" stroke-width="2" stroke-miterlimit="10" d="M240.993,567.975c0,0-9.785,8.051-3.295,31.172
	c10.699,2.065,67.083,9.909,67.083,9.909s8.415-21.885,3.156-33.65"/>
<path fill="none" stroke="#000000" stroke-width="2" stroke-miterlimit="10" d="M330.029,575.405
	c-7.154,4.335,1.682,31.174,0.84,33.65l69.008-9.496c0,0,1.682-24.36-11.569-30.347"/>
<path fill="none" stroke="#000000" stroke-width="2" stroke-miterlimit="10" d="M250.353,601.212l-5.744,39.637
	c0,0-2.305,22.708,48.71,14.036c0.52-6.192,3.886-45.829,3.886-45.829"/>
<path fill="none" stroke="#000000" stroke-width="2" stroke-miterlimit="10" d="M244.61,640.849c0,0-46.708,15.275-48.812,29.727
	c10.098,6.607,40.395,36.334,93.413,15.689c1.263-12.8,4.108-31.38,4.108-31.38"/>
<path fill="none" stroke="#000000" stroke-width="2" stroke-miterlimit="10" d="M343.914,656.858"/>
<path fill="none" stroke="#000000" stroke-width="2" stroke-miterlimit="10" d="M335.919,609.056l4.87,47.803l3.544,34.774
	c0,0,47.969,30.552,98.464-8.259c-5.469-8.256-40.814-33.443-49.651-32.617l-1.586,0.017"/>
<path fill="none" stroke="#000000" stroke-width="2" stroke-miterlimit="10" d="M382.967,601.888l8.761,49.843
	c0,0-31.105,17.156-51.164,2.911"/>
<ellipse fill="none" stroke="#000000" stroke-width="2" stroke-miterlimit="10" cx="276.8" cy="239.527" rx="6.1" ry="7.844"/>
<ellipse fill="none" stroke="#000000" stroke-width="2" stroke-miterlimit="10" cx="376.623" cy="235.786" rx="6.621" ry="7.458"/>
<path fill="none" stroke="#000000" stroke-width="2" stroke-miterlimit="10" d="M314.88,262.494c0,0,11.361-18.889,21.303,0
	c2.208,1.549,8.047,6.47,7.101-4.198c-3.63-5.711-13.886-24.601-31.559-0.912C311.408,260.946,309.358,265.9,314.88,262.494z"/>
<path fill="none" stroke="#000000" stroke-width="2" stroke-miterlimit="10" d="M290.476,281.847c0,0,5.571,21.057,34.71,19.509
	c6.105,0,22.2,2.167,40.188-19.509c3.156-2.787,8.205-3.406,6.943,3.407c-5.365,6.193-17.58,25.082-40.824,25.392
	c-7.146,0.619-40.598-0.31-46.909-21.676C283.952,285.563,281.218,271.939,290.476,281.847z"/>
<ellipse fill="none" stroke="#000000" stroke-width="2" stroke-miterlimit="10" cx="277.251" cy="239.653" rx="15.583" ry="19.986"/>
<ellipse fill="none" stroke="#000000" stroke-width="2" stroke-miterlimit="10" cx="376.812" cy="238.57" rx="17.188" ry="21.07"/>
</svg>
