<?xml version="1.0" encoding="utf-8"?>
<!-- Generator: Adobe Illustrator 16.0.0, SVG Export Plug-In . SVG Version: 6.00 Build 0)  -->
<!DOCTYPE svg PUBLIC "-//W3C//DTD SVG 1.1//EN" "http://www.w3.org/Graphics/SVG/1.1/DTD/svg11.dtd">
<svg version="1.1" id="Layer_1" xmlns="http://www.w3.org/2000/svg" xmlns:xlink="http://www.w3.org/1999/xlink" x="0px" y="0px"
	 width="552px" height="859px" viewBox="0 0 552 859" enable-background="new 0 0 552 859" xml:space="preserve">
<rect x="0" fill="#FFFFFF" stroke="#000000" stroke-width="2" stroke-miterlimit="10" width="552" height="859"/>
<path fill="none" stroke="#000000" stroke-width="2" stroke-miterlimit="10" d="M236.234,192.731l-154.805,3.508l24.334-26.006
	c0,0-21.745-85.447,115.974-107.326c22.78-2.063,112.35-14.86,148.073,30.547c12.94,15.273,32.614,53.662,34.686,68.937
	c5.697,3.302,30.03,25.593,30.03,25.593l-165.157,5.366l-1.41-0.098"/>
<polyline fill="none" stroke="#000000" stroke-width="2" stroke-miterlimit="10" points="221.738,62.908 233.904,105.219 
	233.904,108.486 "/>
<polyline fill="none" stroke="#000000" stroke-width="2" stroke-miterlimit="10" points="291.056,60.391 289.042,62.908 
	267.298,105.219 266.451,106.609 "/>
<ellipse fill="none" stroke="#000000" stroke-width="2" stroke-miterlimit="10" cx="252.799" cy="150.165" rx="46.985" ry="45.51"/>
<ellipse fill="none" stroke="#000000" stroke-width="2" stroke-miterlimit="10" cx="250.986" cy="150.995" rx="23.233" ry="24.148"/>
<path fill="none" stroke="#000000" stroke-width="2" stroke-miterlimit="10" d="M101.621,196.239c0,0-2.589,23.941,6.73,32.61
	c3.106,0,9.837-2.889,9.837-2.889l5.176,4.541l1.882,1.862"/>
<path fill="none" stroke="#000000" stroke-width="2" stroke-miterlimit="10" d="M108.353,228.849c0,0-19.155,15.273,0,38.39
	c6.731,3.715,10.355,9.907,26.922,1.651"/>
<path fill="none" stroke="#000000" stroke-width="2" stroke-miterlimit="10" d="M132.157,195.09
	c-22.014,54.577,15.025,86.869,15.025,86.869c8.803,9.082,46.597,63.763,154.286,41.059c0,0,85.427-18.833,83.098-94.168
	c0-8.668,2.056-19.204-3.892-39.116"/>
<path fill="none" stroke="#000000" stroke-width="2" stroke-miterlimit="10" d="M132.157,191.647"/>
<path fill="none" stroke="#000000" stroke-width="2" stroke-miterlimit="10" d="M417.441,189.733c0,0,1.557,17.652-2.845,29.829
	c0,0-0.372,1.557-1.061,1.888"/>
<path fill="none" stroke="#000000" stroke-width="2" stroke-miterlimit="10" d="M384.909,218.53c0,0,26.586-8.875,31.242,8.049
	c2.585,6.811,1.292,5.985,5.433,12.796c0.516,3.922,1.637,18.988-18.339,22.703c-10.656-1.239-8.641,3.238-22.462-4.572"/>
<path fill="none" stroke="#000000" stroke-width="2" stroke-miterlimit="10" d="M242.446,264.969c0,0-13.209-14.241,8.54-17.646
	c8.545,0,12.294-2.787,23.233,5.882c1.621,3.715,3.435,8.049-4.074,11.764c-2.978-2.477-4.66-8.049-17.345-7.74
	c-2.718,0.517-10.355,1.858-9.707,7.74"/>
<ellipse fill="none" stroke="#000000" stroke-width="2" stroke-miterlimit="10" cx="320.982" cy="234.552" rx="9.611" ry="9.211"/>
<ellipse fill="none" stroke="#000000" stroke-width="2" stroke-miterlimit="10" cx="192.841" cy="237.874" rx="9.807" ry="9.023"/>
<path fill="none" stroke="#000000" stroke-width="2" stroke-miterlimit="10" d="M205.946,292.729c0,0-8.931,6.914,1.941,13.622
	c9.319,1.96,44.138,15.79,106.007-6.811c0.775-3.405,2.329-9.185-6.796-9.417C300.983,292.136,269.661,307.361,205.946,292.729z"/>
<path fill="none" stroke="#000000" stroke-width="2" stroke-miterlimit="10" d="M240.893,329.046c0,0-0.122,11.773,17.607,27.253
	c5.303-6.811,8.628-9.295,12.68-27.808"/>
<path fill="none" stroke="#000000" stroke-width="2" stroke-miterlimit="10" d="M329.895,312.33c0,0,4.192,44.279-26.096,75.238
	c-13.979-8.05-45.299-26.625-45.299-26.625l-49.448,31.578c0,0-43.983-35.31-27.817-80.191"/>
<path fill="none" stroke="#000000" stroke-width="2" stroke-miterlimit="10" d="M172.869,307.169l-63.999,61.823
	c0,0-46.597,43.962-52.81,79.875c3.107,3.715,30.805,31.165,42.455,13.828c6.989-6.604,65.109-53.869,79.15-85.24
	c0,0-30.742,90.122-26.859,121.633c2.33,18.509,1.554,28.002,12.426,44.308c0,0,84.91,7.637,137.2,2.064
	c32.102,0,55.651,2.712,59.021-2.064c21.69-30.739,4.66-78.896,4.66-78.896l-17.602-76.721"/>
<path fill="none" stroke="#000000" stroke-width="2" stroke-miterlimit="10" d="M68.66,418.298c0,0,2.133,30.099,42.722,33.12"/>
<path fill="none" stroke="#000000" stroke-width="2" stroke-miterlimit="10" d="M56.061,448.867c0,0-24.463-4.335-22.521,29.102
	c0.777,9.288-1.941,29.721,44.655,12.074c5.437,4.644,30.389,18.137,19.855-26.69"/>
<path fill="none" stroke="#000000" stroke-width="2" stroke-miterlimit="10" d="M344.124,304.024l2.388,8.305
	c0,0,54.881,30.451,81.802,73.794c7.25,8.256,31.582,44.993,39.868,53.661c8.281,5.779,37.796,26.833,20.191,53.25
	c-6.731,4.128-20.71,13.621-39.35-5.366c-3.105,2.064-34.17,18.576-26.924-12.796c3.626-5.779,8.287-10.732-0.516-19.401
	c-2.591-3.303-43.925-41.354-73.52-64.808l-1.114-0.973"/>
<path fill="none" stroke="#000000" stroke-width="2" stroke-miterlimit="10" d="M447.627,412.472c0,0-15.585,28.965-37.382,32.061"
	/>
<path fill="none" stroke="#000000" stroke-width="2" stroke-miterlimit="10" d="M470.314,441.299c0,0-16.522,27.937-43.758,22.498"
	/>
<path fill="none" stroke="#000000" stroke-width="2" stroke-miterlimit="10" d="M153.455,520.229c0,0,52.491,12.848,130.928,6.037
	c25.628-1.858,41.465,3.114,85.58-12.993"/>
<ellipse fill="none" stroke="#000000" stroke-width="2" stroke-miterlimit="10" cx="259.338" cy="408.465" rx="10.29" ry="8.823"/>
<ellipse fill="none" stroke="#000000" stroke-width="2" stroke-miterlimit="10" cx="261.376" cy="479.13" rx="10.583" ry="8.901"/>
<path fill="none" stroke="#000000" stroke-width="2" stroke-miterlimit="10" d="M165.639,543.603c0,0-10.171,59.647,3.549,75.334
	L244,613.571l-6.213,80.081H122.332c0,0-15.532,1.651-8.283-10.319c4.143-7.431,8.283-20.227,52.292-18.988
	c1.553-9.083,3.107-42.931,3.107-42.931l0.063-2.749"/>
<path fill="none" stroke="#000000" stroke-width="2" stroke-miterlimit="10" d="M243.113,613.636l0.888-2.955
	c0,0,15.531,1.238,21.745-43.343c1.036,14.448,6.213,58.617,29.511,48.71v2.617l4.659,66.731l123.738,4.128
	c0,0,4.315-19.701-55.396-40.041c-0.583-10.682-1.685-38.699-1.685-38.699"/>
<path fill="none" stroke="#000000" stroke-width="2" stroke-miterlimit="10" d="M359.456,543.396l14.236,57.481
	c0,0-1.81,9.907-7.119,9.907c-5.308,0-69.765,6.698-69.765,6.698h-1.553"/>
</svg>
