<?xml version="1.0" encoding="utf-8"?>
<!-- Generator: Adobe Illustrator 16.0.0, SVG Export Plug-In . SVG Version: 6.00 Build 0)  -->
<!DOCTYPE svg PUBLIC "-//W3C//DTD SVG 1.1//EN" "http://www.w3.org/Graphics/SVG/1.1/DTD/svg11.dtd">
<svg version="1.1" id="Layer_1" xmlns="http://www.w3.org/2000/svg" xmlns:xlink="http://www.w3.org/1999/xlink" x="0px" y="0px"
	 width="552px" height="859px" viewBox="0 0 552 859" enable-background="new 0 0 552 859" xml:space="preserve">
<rect fill="#FFFFFF" stroke="#000000" stroke-miterlimit="10" width="552" height="859"/>
<path fill="none" stroke="#010101" stroke-width="2" stroke-miterlimit="10" d="M133.474,155.991l-16.691-95.184
	c0,0,131.452-66.397,229.1,32.501c-27.542,43.645-52.164,82.647-52.164,82.647S237.384,120.704,133.474,155.991z"/>
<path fill="none" stroke="#010101" stroke-width="2" stroke-miterlimit="10" d="M130.745,140.435c0,0,109.856-38.02,171.677,21.734"
	/>
<polygon fill="none" stroke="#010101" stroke-width="2" stroke-miterlimit="10" points="216.518,82.166 218.603,64.985 
	240.722,68.7 237.481,84.951 259.5,89.13 255.745,107.475 235.714,103.987 231.333,122.56 210.258,118.382 212.762,102.594 
	193.566,99.344 193.566,80.772 "/>
<path fill="none" stroke="#010101" stroke-width="2" stroke-miterlimit="10" d="M336.941,107.475c0,0,60.685,25.3,81.55,89.375
	c3.339,15.786,12.938,58.04-29.628,114.686"/>
<path fill="none" stroke="#010101" stroke-width="2" stroke-miterlimit="10" d="M124.966,107.475c0,0-97.906,53.159-68.694,153.45"
	/>
<path fill="none" stroke="#010101" stroke-width="2" stroke-miterlimit="10" d="M61.906,321.518
	c-24.1-2.09-27.855-14.278-29.107-30.645c1.878-40.047,43.817-26.118,43.817-26.118v31.689c0,0-21.283,25.769-17.527,47.36
	c2.504,15.322,4.695,27.163,43.504,48.753c24.412,9.055,149.275,43.877,199.829,0c13.622-9.054,24.577-27.163,25.829-36.913
	c4.382,1.741,41.313,16.019,54.146-8.706c8.137-15.322,18.465-51.539-25.664-53.628c-12.833,2.09-29.107,11.492-31.299,33.431
	c-5.007-1.044-10.851-12.421-5.843-30.529c0-13.465-4.171-41.324-24.621-42.251c-10.433-6.501-17.526-11.144-17.526-20.43
	c0.834,13.002,5.425,33.896,15.44,37.146c-20.866-3.25-70.525-18.108-97.232-55.717c-0.835,12.536-3.755,28.323,5.843,43.645
	c-12.936-0.464-71.776-26.93-82.626-62.217c-5.008,7.429-22.744,36.217-42.252,47.36c0.104,2.787,1.095,21.532,1.095,21.532"/>
<path fill="none" stroke="#010101" stroke-width="2" stroke-miterlimit="10" d="M76.616,275.899c0,0-19.405-6.268-20.031,20.198
	c0,8.706,3.13,10.795,10.016,12.885"/>
<path fill="none" stroke="#010101" stroke-width="2" stroke-miterlimit="10" d="M111.669,240.379c0,0,27.542-6.965,54.146,16.367"/>
<path fill="none" stroke="#010101" stroke-width="2" stroke-miterlimit="10" d="M213.388,280.775c0,0,30.671-20.894,57.587,0"/>
<path fill="#010101" d="M165.686,273.23c0,0-13.98-16.715-35.889-14.162c-13.146,0-22.118-0.929-27.125-5.804
	c1.878,3.019,1.67,2.786,2.712,5.339c-3.547,0.232-4.381,0-8.763-1.857c2.921,2.089,2.921,4.179,2.921,4.179s-4.382,2.786-7.511,0
	c3.129,2.553,3.546,5.108,7.928,5.108c3.338,2.786,7.094,3.018,11.58,1.16c4.485-1.858,15.806-6.791,24.021-6.268
	c5.4-0.262,13.013,0.576,13.013,0.576"/>
<ellipse fill="none" stroke="#010101" stroke-width="2" stroke-miterlimit="10" cx="129.509" cy="275.551" rx="11.893" ry="14.626"/>
<ellipse fill="none" stroke="#010101" stroke-width="2" stroke-miterlimit="10" cx="127.61" cy="269.122" rx="3.776" ry="6.428"/>
<path fill="none" stroke="#010101" stroke-width="2" stroke-miterlimit="10" d="M115.17,265.751c0,0-11.743,38.123,6.618,43.23
	c9.389,3.019,23.996,4.412,28.794-9.518c3.756-9.984,4.173-27.927,0-37.179"/>
<path fill="none" stroke="#010101" stroke-width="2" stroke-miterlimit="10" d="M108.647,268.141c0,0-14.439,40.617-0.882,53.386"/>
<path fill="none" stroke="#010101" stroke-width="2" stroke-miterlimit="10" d="M161.534,269.123c0,0,6.531,44.179-11.831,58.805"/>
<path fill="none" stroke="#010101" stroke-width="2" stroke-miterlimit="10" d="M97.376,314.089c0,0,21.402,22.287,59.421,12.304"/>
<path fill="none" stroke="#010101" stroke-width="2" stroke-miterlimit="10" d="M208.274,347.171c0,0,13.563,1.278,27.855,7.313
	c5.634,1.741,17.424,3.367,30.358-4.76"/>
<path fill="#010101" d="M205.343,297.583c0,0,20.551-11.725,37.14-8.591c11.58,2.67,25.144,10.911,36.619,0.348
	c-2.712,2.786-5.01,6.151-6.468,6.732c0.938,0.697,3.13,1.626,5.948,1.045c-2.923,1.045-4.489,1.625-4.489,1.625
	s-0.832,2.089,3.34,3.134s4.695,1.16,4.695,1.16s-2.19,0.464-5.218,1.045c-1.042,0.696-1.354,3.366-1.354,3.366
	s-16.487-1.044-23.892-11.492c-2.191-3.133-11.964-7.351-11.964-7.351"/>
<ellipse fill="none" stroke="#010101" stroke-width="2" stroke-miterlimit="10" cx="233.731" cy="302.969" rx="12.414" ry="14.137"/>
<ellipse fill="none" stroke="#010101" stroke-width="2" stroke-miterlimit="10" cx="232.367" cy="296.407" rx="5.016" ry="6.563"/>
<path fill="none" stroke="#010101" stroke-width="2" stroke-miterlimit="10" d="M222.015,298.327c0,0-15.113,31.084,10.352,39.675
	c7.729,1.393,22.544,3.25,25.465-14.393c1.668-9.751,1.877-15.738,0-20.638"/>
<path fill="none" stroke="#010101" stroke-width="2" stroke-miterlimit="10" d="M217.563,292.61c0,0-17.287,31.001-1.863,55.723"/>
<path fill="none" d="M255.707,354.549c0,0,17.354-23.295,10.782-48.593"/>
<path fill="none" stroke="#010101" stroke-width="2" stroke-miterlimit="10" d="M344.213,325c0,0-9.077-17.295,3.13-17.18
	c12.206,0.116,23.473,2.835,21.282,20.106c-1.564,9.958-8.763,22.146-29.106,13.788C337.327,337.885,341.396,325,344.213,325z"/>
<path fill="none" stroke="#010101" stroke-width="2" stroke-miterlimit="10" d="M160.494,364.351l30.359,8.009l-15.18,21.242
	c0,0-5.79,7.661-9.546-2.09C162.372,381.762,160.494,364.351,160.494,364.351z"/>
<path fill="none" stroke="#010101" stroke-width="2" stroke-miterlimit="10" d="M175.673,337.188c0,0-1.721,10.799,1.722,11.145"/>
<path fill="none" stroke="#010101" stroke-width="2" stroke-miterlimit="10" d="M162.662,408.004c0,0,17.551,34.632,57.193,6.227"/>
<path fill="none" stroke="#010101" stroke-width="2" stroke-miterlimit="10" d="M238.361,413.838
	c-59.948,56.8-89.235-8.529-89.235-8.529s-41.733,88.238,11.369,125.382"/>
<path fill="none" stroke="#010101" stroke-width="2" stroke-miterlimit="10" d="M135.227,402.112c0,0-45.153,58.467-16.776,109.542
	c5.424,8.822,14.064,19.038,14.064,19.038"/>
<path fill="none" stroke="#010101" stroke-width="2" stroke-miterlimit="10" d="M125.022,521.198l-2.867,50.353
	c0,0,104.375,18.106,157.374-3.715c0-9.751-15.098-140.864-23.822-155.866"/>
<path fill="none" stroke="#010101" stroke-width="2" stroke-miterlimit="10" d="M125.962,530.691h44.234
	c0,0,8.346,30.413-17.736,34.359C141.819,565.283,122.833,564.353,125.962,530.691z"/>
<path fill="none" stroke="#010101" stroke-width="2" stroke-miterlimit="10" d="M230.288,530.691h44.131
	c0,0,9.702,31.457-17.214,32.85C249.692,563.541,231.227,574.453,230.288,530.691z"/>
<line fill="none" stroke="#010101" stroke-width="2" stroke-miterlimit="10" x1="265.125" y1="410.143" x2="274.483" y2="423.237"/>
<polyline fill="none" stroke="#010101" stroke-width="2" stroke-miterlimit="10" points="264.042,446.545 279.528,411.97 
	310.724,420.416 "/>
<path fill="none" stroke="#010101" stroke-width="2" stroke-miterlimit="10" d="M366.428,444.406
	c-2.256,8.508-17.323,11.064-33.653,5.709c-16.331-5.356-27.743-16.597-25.487-25.105c2.16-8.148,18.779-10.587,33.652-5.709
	C357.271,424.655,368.683,435.897,366.428,444.406z"/>
<polyline fill="none" stroke="#010101" stroke-width="2" stroke-miterlimit="10" points="364.983,436.22 404.931,448.972 
	376.45,518.967 "/>
<line fill="none" stroke="#010101" stroke-width="2" stroke-miterlimit="10" x1="401.557" y1="447.894" x2="370.19" y2="519.837"/>
<path fill="none" stroke="#010101" stroke-width="2" stroke-miterlimit="10" d="M377.701,515.89c0,0,17.754,26.583-12.718,38.945
	c-17.641,0.174-23.118,1.567-21.553-4.7c2.816-1.568,10.484-1.395,10.484-1.395s-25.038-6.441-23.474-11.317
	c1.408-1.74,20.877-0.695,26.164,1.394c-8.636-3.134-26.633-13.06-21.47-17.935c3.601-0.174,20.97,5.224,26.448,8.88
	c-0.156-1.741-16.12-10.273-10.799-15.147c2.504-2.961,20.813,5.92,22.848,8.009"/>
<polyline fill="none" stroke="#010101" stroke-width="2" stroke-miterlimit="10" points="360.646,554.903 349.063,581.997 
	278.804,558.317 "/>
<polyline fill="none" stroke="#010101" stroke-width="2" stroke-miterlimit="10" points="355.324,555.024 347.187,574.857 
	278.245,552.717 "/>
<polyline fill="none" stroke="#010101" stroke-width="2" stroke-miterlimit="10" points="287.382,442.877 312.915,452.914 
	301.647,479.442 275.514,468 287.382,442.355 "/>
<line fill="none" stroke="#010101" stroke-width="2" stroke-miterlimit="10" x1="316.2" y1="462.902" x2="364.983" y2="479.442"/>
<line fill="none" stroke="#010101" stroke-width="2" stroke-miterlimit="10" x1="311.664" y1="477.592" x2="356.605" y2="495.285"/>
<line fill="none" stroke="#010101" stroke-width="2" stroke-miterlimit="10" x1="276.121" y1="483.865" x2="349.847" y2="510.261"/>
<line fill="none" stroke="#010101" stroke-width="2" stroke-miterlimit="10" x1="276.121" y1="507.823" x2="328.721" y2="528.37"/>
<line fill="none" stroke="#010101" stroke-width="2" stroke-miterlimit="10" x1="279.528" y1="539.165" x2="336.856" y2="558.666"/>
<polyline fill="none" stroke="#010101" stroke-width="2" stroke-miterlimit="10" points="370.19,446.545 385.872,451.062 
	360.646,510.261 "/>
<polyline fill="none" stroke="#010101" stroke-width="2" stroke-miterlimit="10" points="304.15,426.336 288.659,420.242 
	269.459,464.99 "/>
<path fill="none" stroke="#010101" stroke-width="2" stroke-miterlimit="10" d="M163.584,576.641l-3.09,94.505
	c0,0-57.901,24.027,0,19.849c21.283-3.134,50.389-0.348,35.679-18.455c-0.938-14.279-0.318-94.069-0.318-94.069"/>
<path fill="none" stroke="#010101" stroke-width="2" stroke-miterlimit="10" d="M203.37,578.589c0,0,4.384,89.422,4.697,98.129
	c-1.878,4.525-12.206,18.107,11.581,17.759c16.275,1.046,88.261,10.446,24.726-18.455c-1.252-9.055-5.231-81.914-7.625-98.765"/>
<path fill="none" stroke="#010101" stroke-width="2" stroke-miterlimit="10" d="M208.066,676.718c0,0,25.665,5.571,36.306-0.696"/>
<path fill="none" stroke="#010101" stroke-width="2" stroke-miterlimit="10" d="M160.494,671.146c0,0,27.229,3.83,35.679,1.394"/>
<path fill="none" stroke="#010101" stroke-width="2" stroke-miterlimit="10" d="M264.586,305.308c0,0,6.593,21.404-3.051,47.103"/>
</svg>
