<?xml version="1.0" encoding="utf-8"?>
<!-- Generator: Adobe Illustrator 16.0.0, SVG Export Plug-In . SVG Version: 6.00 Build 0)  -->
<!DOCTYPE svg PUBLIC "-//W3C//DTD SVG 1.1//EN" "http://www.w3.org/Graphics/SVG/1.1/DTD/svg11.dtd">
<svg version="1.1" id="Layer_1" xmlns="http://www.w3.org/2000/svg" xmlns:xlink="http://www.w3.org/1999/xlink" x="0px" y="0px"
	 width="552px" height="859px" viewBox="0 0 552 859" enable-background="new 0 0 552 859" xml:space="preserve">
<rect fill="#FFFFFF" stroke="#000000" stroke-miterlimit="10" width="552" height="859"/>
<ellipse fill="none" stroke="#010101" stroke-width="2" stroke-miterlimit="10" cx="315.988" cy="199.372" rx="20.552" ry="30.756"/>
<path fill="none" stroke="#010101" stroke-width="2" stroke-miterlimit="10" d="M312.713,192.643
	c4.999,1.074,7.48,7.882,5.544,15.204c-1.938,7.323-7.563,12.387-12.563,11.312c-5-1.075-7.48-7.882-5.544-15.204
	C302.088,196.632,307.713,191.567,312.713,192.643z"/>
<path fill="none" stroke="#010101" stroke-width="2" stroke-miterlimit="10" d="M307.467,204.724
	c2.558,0.231,4.345,2.988,3.992,6.156c-0.352,3.169-2.712,5.551-5.269,5.32c-2.558-0.231-4.345-2.988-3.991-6.156
	C302.552,206.874,304.91,204.492,307.467,204.724z"/>
<path fill="none" stroke="#010101" stroke-width="2" stroke-miterlimit="10" d="M230.161,165.8
	c12.931,0.728,22.443,15.374,21.241,32.713c-1.201,17.339-12.658,30.805-25.591,30.077c-12.931-0.727-22.443-15.373-21.242-32.712
	C205.771,178.539,217.227,165.073,230.161,165.8z"/>
<path fill="none" stroke="#010101" stroke-width="2" stroke-miterlimit="10" d="M221.117,192.328
	c5.176,0.387,8.813,6.782,8.123,14.284c-0.689,7.502-5.444,13.271-10.622,12.884c-5.175-0.387-8.813-6.782-8.122-14.284
	C211.185,197.709,215.939,191.941,221.117,192.328z"/>
<path fill="none" stroke="#010101" stroke-width="2" stroke-miterlimit="10" d="M221.267,200.12
	c1.598,0.301,2.256,3.302,1.467,6.703c-0.787,3.401-2.722,5.914-4.32,5.613c-1.6-0.301-2.255-3.302-1.468-6.703
	S219.668,199.82,221.267,200.12z"/>
<g>
	<path fill="#010101" d="M290.437,164.794c0,0,0.533-0.97,1.818-2.42c1.301-1.416,3.337-3.371,6.299-4.981
		c1.462-0.831,3.163-1.523,5.018-2.07c1.852-0.568,3.883-0.903,5.989-1.031c2.112-0.167,4.296-0.001,6.491,0.264
		c2.178,0.367,4.379,0.831,6.503,1.528c1.064,0.342,2.122,0.701,3.143,1.139l1.54,0.621c0.507,0.218,0.998,0.464,1.495,0.694
		c0.992,0.461,1.977,0.92,2.9,1.462c0.928,0.532,1.878,1.001,2.751,1.563c0.879,0.55,1.743,1.091,2.589,1.621
		c0.828,0.555,1.615,1.132,2.393,1.675c1.576,1.058,2.939,2.226,4.243,3.237c1.301,1.017,2.401,2.061,3.411,2.938
		c1.016,0.873,1.839,1.704,2.537,2.362c1.382,1.334,2.15,2.115,2.15,2.115s-0.888-0.65-2.404-1.82
		c-0.761-0.582-1.657-1.319-2.753-2.08c-1.093-0.762-2.282-1.677-3.632-2.599c-1.366-0.899-2.791-1.948-4.388-2.917
		c-0.793-0.493-1.595-1.018-2.436-1.518c-0.847-0.487-1.712-0.985-2.593-1.491c-1.778-0.972-3.639-1.937-5.576-2.796
		c-0.483-0.217-0.962-0.452-1.454-0.657l-1.492-0.582c-0.989-0.414-2.009-0.744-3.031-1.064c-2.03-0.692-4.12-1.152-6.185-1.525
		c-2.076-0.255-4.133-0.526-6.125-0.417c-1.986,0.075-3.913,0.268-5.688,0.714c-1.771,0.437-3.433,0.967-4.885,1.654
		c-1.453,0.68-2.748,1.402-3.843,2.134c-1.087,0.741-1.985,1.466-2.694,2.099C291.117,163.924,290.437,164.794,290.437,164.794z"/>
</g>
<g>
	<path fill="#010101" d="M244.42,154.077c0,0-0.837-0.384-2.358-0.855c-1.519-0.469-3.723-1.034-6.405-1.339
		c-1.338-0.163-2.796-0.239-4.332-0.236c-1.537-0.015-3.151,0.146-4.805,0.352c-1.656,0.223-3.335,0.62-5.022,1.085
		c-1.679,0.492-3.358,1.093-4.976,1.84c-0.813,0.364-1.628,0.724-2.406,1.157l-1.178,0.618l-1.134,0.684
		c-0.762,0.441-1.492,0.92-2.208,1.405c-0.36,0.24-0.718,0.478-1.073,0.715c-0.342,0.257-0.682,0.511-1.019,0.764
		c-1.362,0.99-2.605,2.052-3.792,3.05c-1.144,1.048-2.256,2.013-3.207,2.987c-0.982,0.942-1.847,1.844-2.603,2.657
		c-0.769,0.801-1.433,1.509-1.949,2.119c-1.073,1.191-1.686,1.872-1.686,1.872s0.499-0.77,1.372-2.117
		c0.223-0.335,0.47-0.706,0.739-1.109c0.29-0.388,0.604-0.809,0.938-1.257c0.337-0.449,0.696-0.926,1.074-1.43
		c0.388-0.496,0.831-0.988,1.275-1.519c0.873-1.077,1.915-2.158,3.027-3.295c1.148-1.099,2.35-2.282,3.73-3.349
		c0.339-0.275,0.68-0.552,1.024-0.831c0.359-0.26,0.721-0.522,1.084-0.786c0.365-0.263,0.731-0.528,1.101-0.794
		c0.379-0.252,0.773-0.484,1.163-0.729l1.177-0.729l1.226-0.664c0.81-0.462,1.66-0.855,2.513-1.245
		c1.711-0.764,3.49-1.376,5.27-1.873c1.784-0.483,3.583-0.789,5.331-0.971c1.75-0.169,3.452-0.208,5.056-0.095
		c1.604,0.085,3.109,0.301,4.474,0.595c2.739,0.553,4.908,1.415,6.365,2.099C243.667,153.546,244.42,154.077,244.42,154.077z"/>
</g>
<path fill="none" stroke="#010101" stroke-width="2" stroke-miterlimit="10" d="M416.077,182.269
	c3.883-1.371-0.517-8.388,1.034-22.833c12.409-55.919-27.92-77.588-32.056-84.344c-4.654-11.184,11.634-19.339,19.132-22.833
	c-20.166-12.815-41.299,5.301-45.371,11.068c-14.154-25.515-29.084-28.311-34.514-24.466c25.207,28.659-50.411,17.591-77.298,18.058
	c-90.481,0.933-103.409,43.337-102.374,67.104c3.103,20.504,8.791,63.842,8.791,63.842s37.227-35.415,34.124-63.375
	c19.129,9.32,44.465,24.231,81.692,7.455c8.792-2.33,12.407-2.33,8.273,8.388c-3.62,10.251-4.481,17.241,17.925,1.863
	c7.927-6.99,53.942-27.029,61.184-2.33c2.068,5.126,16.545,3.729,21.716-8.854C380.92,141.262,389.709,191.589,416.077,182.269z"/>
<path fill="none" stroke="#010101" stroke-width="2" stroke-miterlimit="10" d="M416.077,182.269c0,0,31.93,3.32,28.44,33.93
	c-0.389,7.543-13.573,22.922-30.248,21.523c-3.877,9.437-29.729,84.345-143.48,83.879c-16.548,0-96.538-4.194-126.214-83.18
	c-10.286-7.689-27.349-20.271-18.817-41.241c4.266-9.437,11.893-15.844,27.662-9.321"/>
<path fill="none" stroke="#010101" stroke-width="2" stroke-miterlimit="10" d="M151.352,194.734c0,0-9.674,19.921-6.776,30.756
	c-5.245-3.146-14.552-8.523-7.959-25.405C140.882,193.336,143.984,192.637,151.352,194.734z"/>
<g>
	<path fill="#010101" d="M254.115,242.266c0,0,1.949,1.444,5.085,3.075c1.573,0.803,3.442,1.649,5.514,2.297
		c1.029,0.345,2.121,0.586,3.225,0.808c1.107,0.217,2.246,0.334,3.383,0.369c1.136,0.042,2.276,0.006,3.384-0.154
		c0.553-0.085,1.104-0.154,1.64-0.281c0.269-0.056,0.537-0.112,0.803-0.168c0.261-0.077,0.52-0.153,0.777-0.229
		c0.521-0.132,1.013-0.325,1.5-0.503c0.495-0.162,0.964-0.358,1.413-0.573c0.917-0.388,1.736-0.863,2.514-1.273
		c0.735-0.477,1.458-0.858,2.035-1.291c0.584-0.421,1.13-0.752,1.53-1.086c0.828-0.636,1.321-0.992,1.321-0.992
		s-0.37,0.472-1.052,1.284c-0.329,0.418-0.791,0.865-1.316,1.388c-0.509,0.544-1.17,1.06-1.876,1.649
		c-0.741,0.539-1.538,1.155-2.479,1.652c-0.456,0.274-0.938,0.534-1.451,0.761c-0.503,0.253-1.033,0.471-1.589,0.657
		c-0.275,0.099-0.554,0.198-0.834,0.298c-0.287,0.079-0.576,0.157-0.868,0.237c-0.579,0.18-1.183,0.284-1.793,0.38
		c-1.219,0.198-2.477,0.268-3.73,0.24c-1.252-0.062-2.497-0.217-3.695-0.476c-1.201-0.25-2.349-0.625-3.428-1.042
		c-1.089-0.396-2.083-0.913-3.013-1.407c-0.924-0.507-1.765-1.04-2.51-1.571c-1.502-1.044-2.623-2.077-3.374-2.821
		C254.486,242.744,254.115,242.266,254.115,242.266z"/>
</g>
<ellipse fill="none" stroke="#010101" stroke-width="2" stroke-miterlimit="10" cx="272.135" cy="286.127" rx="30.043" ry="19.397"/>
<path fill="none" stroke="#010101" stroke-width="2" stroke-miterlimit="10" d="M416.339,196.715c0,0,0.776,23.766-3.103,31.221
	c4.913,0.933,21.976-1.896,19.648-17.49C432.109,201.608,428.488,195.083,416.339,196.715z"/>
<polyline fill="none" stroke="#010101" stroke-width="2" stroke-miterlimit="10" points="80,408.276 52.855,312.515 
	188.579,342.571 242.094,520.814 105.594,500.544 89.307,450.216 "/>
<path fill="none" stroke="#010101" stroke-width="2" stroke-miterlimit="10" d="M75.605,392.772c0,0-17.063,28.32-4.137,44.397
	c8.015,6.756,17.838,22.835,49.12,11.882c2.068-2.097,3.103-7.224-14.995-8.154c0.145-0.227,62.049-26.539,2.585-13.747
	c19.649-7.689,41.145-29.357-6.185-12.582c-1.055-1.165,20.663-6.757,15.75-14.679c-4.653-3.96-21.864-0.693-36.452,9.553
	c-1.292-1.165-1.439-1.679-1.439-1.679"/>
<path fill="none" stroke="#010101" stroke-width="2" stroke-miterlimit="10" d="M152.687,334.623c0,0,37.14-28.178,48.343-30.56"/>
<path fill="none" stroke="#010101" stroke-width="2" stroke-miterlimit="10" d="M208.745,307.918c0,0-3.878,6.694,0,9.839
	c-3.491,4.543-5.042,13.98,3.49,15.378c-3.878,3.844-7.272,10.834,7.609,13.281c1.31,6.99,7.127,17.125,17.985,6.292
	c4.266,4.893,15.898,11.882,23.267,0.699c5.429,6.64,16.954,10.135,23.018-0.349c6.453,6.989,20.025,8.387,22.74-0.699
	c6.593,4.893,22.879,4.194,20.94-5.243c6.98,1.748,15.164-5.412,8.746-12.492c9.091,0.609,14.558-11.271,2.323-13.02
	c10.259-3.146,16.049-11.292,6.947-13.686"/>
<path fill="none" stroke="#010101" stroke-width="2" stroke-miterlimit="10" d="M246.027,319.342c0,0,2.248,17.468,32.118,15.28
	c21.339-2.187,23.953-2.161,26.138-15.28"/>
<ellipse fill="none" stroke="#010101" stroke-width="2" stroke-miterlimit="10" cx="271.693" cy="373.211" rx="5.302" ry="4.543"/>
<ellipse fill="none" stroke="#010101" stroke-width="2" stroke-miterlimit="10" cx="272.729" cy="397.262" rx="4.266" ry="4.49"/>
<ellipse fill="none" stroke="#010101" stroke-width="2" stroke-miterlimit="10" cx="271.693" cy="424.004" rx="5.302" ry="3.612"/>
<ellipse fill="none" stroke="#010101" stroke-width="2" stroke-miterlimit="10" cx="272.729" cy="447.653" rx="4.266" ry="3.729"/>
<ellipse fill="none" stroke="#010101" stroke-width="2" stroke-miterlimit="10" cx="272.729" cy="472.235" rx="4.266" ry="3.844"/>
<ellipse fill="none" stroke="#010101" stroke-width="2" stroke-miterlimit="10" cx="272.729" cy="496" rx="4.266" ry="4.078"/>
<path fill="none" stroke="#010101" stroke-width="2" stroke-miterlimit="10" d="M350.34,305.885c0,0,39.888,12.571,58.113,43.676
	c17.45,19.572,42.656,46.134,42.656,46.134l-24.043,31.921c0,0-53.514-27.378-67.475-46.25c-4.266,1.048-10.082,36.697,0.776,76.19
	c6.979,33.901,8.919,31.629,11.052,51.726c0.969,10.835,4.848,11.184,2.715,18.523c-2.91,2.97-5.043,0-5.043,0l-189.044-1.63
	l-1.107-14.739"/>
<path fill="none" stroke="#010101" stroke-width="2" stroke-miterlimit="10" d="M238.852,510.023c0,0,117.256,6.418,132.764,1.031"
	/>
<path fill="none" stroke="#010101" stroke-width="2" stroke-miterlimit="10" d="M184.689,526.214c0,0-8.907,50.521-16.275,62.753
	c8.144,6.989,53.902,10.484,128.357,6.64c47.31,0.699,69.801-3.466,82.598,1.588c1.164-2.636-13.185-63.798-10.277-69.39"/>
<path fill="none" stroke="#010101" stroke-width="2" stroke-miterlimit="10" d="M214.561,526.214c0,0-8.034,59.59-15.069,69.56"/>
<path fill="none" stroke="#010101" stroke-width="2" stroke-miterlimit="10" d="M232.408,526.627c0,0-6.233,59.985-12.817,70.25"/>
<path fill="none" stroke="#010101" stroke-width="2" stroke-miterlimit="10" d="M263.034,526.627c0,0,4.654,61.274,3.49,69.146"/>
<path fill="none" stroke="#010101" stroke-width="2" stroke-miterlimit="10" d="M281.26,527.047c0,0,3.49,64.35,2.715,68.727"/>
<path fill="none" stroke="#010101" stroke-width="2" stroke-miterlimit="10" d="M311.508,527.047c0,0,6.251,66.949,13.596,68.453"/>
<path fill="none" stroke="#010101" stroke-width="2" stroke-miterlimit="10" d="M332.06,527.047c0,0,5.849,65.578,11.262,67.942"/>
<path fill="none" stroke="#010101" stroke-width="2" stroke-miterlimit="10" d="M196.397,595.5c0,0-5.879,36.104-3.552,41.348
	c-8.144,1.747-79.034,41.59-0.545,46.133c33.119,1.397,75.775-0.349,60.652-24.465c-6.205-18.173-13.185-20.969-13.185-20.969
	s13.577-25.989,12.282-40.431"/>
<path fill="none" stroke="#010101" stroke-width="2" stroke-miterlimit="10" d="M192.845,636.848c0,0,29.859,10.659,46.922,0.699"/>
<path fill="none" stroke="#010101" stroke-width="2" stroke-miterlimit="10" d="M305.233,595.683c0,0,6.661,25.088,7.825,41.165
	c-3.49,5.592-31.005,48.93,24.632,44.734c29.269,2.447,75.028,1.398,59.129-19.921c-12.798-21.318-19.001-21.363-31.022-22.564
	c-0.388-7.841,2.669-30.992,1.14-44.232"/>
<path fill="none" stroke="#010101" stroke-width="2" stroke-miterlimit="10" d="M313.059,636.848c0,0,36.451,9.393,52.738,2.249"/>
<path fill="none" stroke="#010101" stroke-width="2" stroke-miterlimit="10" d="M440.534,384.467c0,0-20.12,33.226-22.545,38.302"/>
<path fill="none" stroke="#010101" stroke-width="2" stroke-miterlimit="10" d="M448.346,392.772l1.978,3.966
	c0,0,18.042-10.13,24.635-8.557c1.938,1.223,4.459,6.641-8.919,13.805c1.744,2.097,32.962,16.077,26.175,25.338
	c-2.133,2.097-12.215-1.223-23.072-5.941c0,1.572,24.042,14.854,18.226,21.145c-2.521,2.097-6.98,2.796-25.4-11.358
	c-0.582,0.874,22.492,14.154,15.706,21.144c-4.266,3.146-16.968-2.097-29.327-15.727c-0.727,0.35,9.743,15.378,1.601,17.824
	c-6.98-1.048-19.849-13.633-20.687-29.709"/>
</svg>
