<?xml version="1.0" encoding="utf-8"?>
<!-- Generator: Adobe Illustrator 16.0.0, SVG Export Plug-In . SVG Version: 6.00 Build 0)  -->
<!DOCTYPE svg PUBLIC "-//W3C//DTD SVG 1.1//EN" "http://www.w3.org/Graphics/SVG/1.1/DTD/svg11.dtd">
<svg version="1.1" id="Layer_1" xmlns="http://www.w3.org/2000/svg" xmlns:xlink="http://www.w3.org/1999/xlink" x="0px" y="0px"
	 width="552px" height="859px" viewBox="0 0 552 859" enable-background="new 0 0 552 859" xml:space="preserve">
<rect x="0" fill="#FFFFFF" stroke="#000000" stroke-miterlimit="10" width="552" height="859"/>
<path fill="none" stroke="#000000" stroke-width="2" stroke-miterlimit="10" d="M146.574,221.845l-0.375,4.011
	c0,0,0,68.35,13.921,93.508c6.188,14.256,32.679,50.318,46.891,61.222c8.025,5.032,45.436,34.383,97.499-5.872
	c10.3-9.224,28.09-14.258,50.519-93.928c3.096-10.903,9.633-43.399,8.896-51.576c-25.136,44.448-105.186,44.448-119.108,44.029
	c-77.732,0.419-101.709-57.447-101.709-57.447v-1.259c0,0,6.187-118.247,105.961-132.085c32.485,5.032,95.133,8.806,114.856,143.407
	c-19.723-11.322-127.231-55.35-220.817-10.063"/>
<path fill="none" stroke="#000000" stroke-width="2" stroke-miterlimit="10" d="M208.076,130.67c0,0,48.799-22.647,92.812,0
	c2.708,7.129,6.576,11.321,0,28.094c-8.121-2.935-52.98-19.288-87.785,0c-3.866-8.387-8.121-15.514-5.027-26.417V130.67z"/>
<path fill="none" stroke="#000000" stroke-width="2" stroke-miterlimit="10" d="M161.715,241.706c0,0-3.822,47.886,0,75.142
	l1.739,9.011"/>
<path fill="none" stroke="#000000" stroke-width="2" stroke-miterlimit="10" d="M340.334,316.848"/>
<path fill="none" stroke="#000000" stroke-width="2" stroke-miterlimit="10" d="M221.224,339.7c0,0,31.325,12.58,55.108,0
	c6.961-1.257,17.983-3.563,7.541,16.983c-4.64,5.871-36.737,46.544-72.703-5.451C210.009,346.62,203.048,331.524,221.224,339.7z"/>
<path fill="none" stroke="#000000" stroke-width="2" stroke-miterlimit="10" d="M354.198,283.701c0,0,22.102-2.496,14.367,33.146
	l-1.21,4.009"/>
<path fill="none" stroke="#000000" stroke-width="2" stroke-miterlimit="10" d="M150.733,286.585c0,0-43.888,27.235,10.982,36.087"
	/>
<path fill="none" stroke="#000000" stroke-width="2" stroke-miterlimit="10" d="M336.771,333.149c0,0,43.977-15.789,60.799-28.519
	c6.961-10.216,20.304-27.828,30.745-10.845c5.801,10.692,0.58,9.645,13.922,23.063c-1.16,4.613,3.479,14.308-19.724,20.466
	c-9.28,4.901-45.556,27.544-68.314,51.446c-11.157,13.837-34.359,35.223-37.261,36.166l-4.789,2.119"/>
<path fill="none" stroke="#000000" stroke-width="2" stroke-miterlimit="10" d="M424.85,289.45c0,0,7.524-12.857,5.978-29.63
	c2.319-11.321,0-22.224,16.242-3.355c6.961-7.548,14.697-31.869,30.939-4.612c5.801,17.611,12.374,27.256-5.802,41.512
	c-5.801,5.032-12.374,7.911-19.723,6.892c-11.601,10.301-13.706,12.993-13.706,12.993"/>
<path fill="none" stroke="#000000" stroke-width="2" stroke-miterlimit="10" d="M204.387,378.413c0,0-20.868,17.267-24.929,27.96"/>
<path fill="none" stroke="#000000" stroke-width="2" stroke-miterlimit="10" d="M214.842,393.375c0,0-2.32,12.721-4.06,13.979"/>
<polyline fill="none" stroke="#000000" stroke-width="2" stroke-miterlimit="10" points="230.142,392.393 248.531,409.517 
	268.211,395.625 270.901,392.642 "/>
<path fill="none" stroke="#000000" stroke-width="2" stroke-miterlimit="10" d="M94.766,506.379c0,0-11.216-89.314,39.349-87.427
	c23.881,0.629,121.915-1.887,156.72,5.976c14.502,5.975,23.976,11.006,26.104,41.617c0.58,9.227,0,49.898,0,49.898
	s-2.513,3.774-8.313,4.195c-5.801,0.419-204.577-9.227-204.577-9.227S93.606,512.251,94.766,506.379z"/>
<path fill="none" stroke="#000000" stroke-width="2" stroke-miterlimit="10" d="M82.585,507.009c0,0,2.714-51.367,11.122-74.431
	c4.927-10.901,9.568-24.739,31.224-26.206c17.789,1.468,137.285-1.048,161.263,7.337c16.242,6.708,23.589,5.871,30.744,21.386
	c4.062,12.579,9.086,50.315,8.7,71.913c0.388,12.37,6.962,37.946,13.923,39.205c3.868,7.128,14.31,18.869,10.055,41.933
	c-0.772,4.191-3.481,28.512-3.481,28.512s-7.733,25.16-63.809,23.064c-25.522,0.838-163.582-6.292-190.266-18.452
	c-13.148-6.29-34.031-10.062-31.711-51.993C64.216,550.408,82.585,507.009,82.585,507.009z"/>
<path fill="none" stroke="#000000" stroke-width="2" stroke-miterlimit="10" d="M83.447,494.684l-2.603-2.456
	c0,0-12.345-11.007-20.675,7.232c-3.979,9.12-5.139,14.467-5.139,14.467s-3.771,6.604,3.48,11.951
	c5.511,4.402,12.762,9.509,12.762,9.509"/>
<path fill="none" stroke="#000000" stroke-width="2" stroke-miterlimit="10" d="M325.651,505.725c0,0,19.983-16.714,28.548,6.437
	c2.766,11.2,2.766,14.345,2.766,14.345s4.711,13-6.348,16.354c-11.058,3.356-9.605,3.931-9.605,3.931"/>
<path fill="none" stroke="#000000" stroke-width="2" stroke-miterlimit="10" d="M202.91,419.162c0,0-16.492,41.931-8.757,42.352
	l3.347-0.002"/>
<path fill="none" stroke="#000000" stroke-width="2" stroke-miterlimit="10" d="M169.403,419.162c0,0-55.302,118.248,24.75,89.734
	l1.974-0.666"/>
<path fill="none" stroke="#000000" stroke-width="2" stroke-miterlimit="10" d="M197.5,461.512c0,0-11.72,40.701,0,47.804
	c12.123-1.257,12.123-2.517,18.504-12.161c6.38-6.708,20.69-38.576,4.06-37.738C207.688,456.48,198.718,456.845,197.5,461.512z"/>
<path fill="none" stroke="#000000" stroke-width="2" stroke-miterlimit="10" d="M226.494,462.14l1.33-0.628
	c0,0,62.623-20.966,71.132,56.608v2.268"/>
<path fill="none" stroke="#000000" stroke-width="2" stroke-miterlimit="10" d="M224.543,481.876l3.281-2.543
	c0,0,47.348-18.03,57.21,38.787v1.713"/>
<path fill="none" stroke="#000000" stroke-width="2" stroke-miterlimit="10" d="M304.696,432.478c0,0,8.182,64.675,4.701,85.643
	l-0.772,2.518"/>
<path fill="none" stroke="#000000" stroke-width="2" stroke-miterlimit="10" d="M345.032,312.498c0,0-2.861-39.154-37.086-44.5
	l-3.122-1.042"/>
<path fill="none" stroke="#000000" stroke-width="2" stroke-miterlimit="10" d="M139.239,577.665c0,0,95.134,12.997,128.004,6.707
	c8.507,2.516,13.922,8.806,0,11.741c-10.055,0.838-82.371,3.356-128.004-5.869C131.117,586.888,121.162,575.415,139.239,577.665z"/>
<path fill="none" stroke="#000000" stroke-width="2" stroke-miterlimit="10" d="M133.438,599.889c0,0,95.16,11.32,129.951,7.547
	c8.88,0.421,18.963,7.128,0,12.16c-21.283-1.676-100.947-3.356-127.63-9.855C129.572,603.662,128.808,599.354,133.438,599.889z"/>
<path fill="none" stroke="#000000" stroke-width="2" stroke-miterlimit="10" d="M344.678,619.596c0,0,32.59,33.964-8.018,45.286
	c-38.286,3.145-242.005,3.772-269.212-18.24c-11.547-15.725-23.311-24.931-7.277-49.574l2.222-3.159"/>
<path fill="none" stroke="#000000" stroke-width="2" stroke-miterlimit="10" d="M78.323,651.885c0,0-7.146,30.608,24.178,32.285
	c14.696,1.679,35.191,10.905,39.832-19.706l0.375-2.453"/>
<path fill="none" stroke="#000000" stroke-width="2" stroke-miterlimit="10" d="M256.609,666.492c0,0-9.862,30.152,32.195,33.298
	c17.982-0.629,40.025,12.026,42.345-33.298"/>
<ellipse fill="none" stroke="#000000" stroke-width="2" stroke-miterlimit="10" cx="313.76" cy="592.758" rx="20.386" ry="24.321"/>
<ellipse fill="none" stroke="#000000" stroke-width="2" stroke-miterlimit="10" cx="100.761" cy="582.999" rx="19.916" ry="26.719"/>
<g>
	<path d="M194.54,283.666c0,0,0.299-0.437,0.899-1.144c0.606-0.698,1.49-1.694,2.696-2.741c1.203-1.046,2.697-2.191,4.479-3.144
		c0.902-0.45,1.85-0.905,2.877-1.21c1.021-0.308,2.091-0.557,3.187-0.624c1.092-0.092,2.197-0.005,3.256,0.199
		c0.528,0.116,1.053,0.227,1.544,0.426c0.505,0.158,0.979,0.374,1.436,0.604c0.922,0.44,1.741,0.998,2.459,1.58
		c0.376,0.272,0.703,0.581,1.017,0.881c0.313,0.3,0.633,0.572,0.89,0.881c0.544,0.589,1.025,1.142,1.391,1.679
		c0.386,0.521,0.721,0.972,0.956,1.374c0.482,0.79,0.758,1.241,0.758,1.241s-0.333-0.41-0.915-1.126
		c-0.567-0.722-1.455-1.697-2.586-2.769c-0.269-0.284-0.597-0.525-0.917-0.795c-0.321-0.27-0.653-0.545-1.029-0.781
		c-0.722-0.511-1.531-0.977-2.399-1.369c-0.434-0.201-0.88-0.387-1.353-0.516c-0.461-0.167-0.947-0.256-1.433-0.362
		c-0.978-0.176-1.993-0.245-3.002-0.15c-2.028,0.118-3.995,0.804-5.74,1.621c-0.859,0.443-1.696,0.872-2.446,1.358
		c-0.759,0.471-1.451,0.962-2.074,1.437c-1.239,0.958-2.249,1.801-2.911,2.441C194.907,283.284,194.54,283.666,194.54,283.666z"/>
</g>
<g>
	<path d="M273.431,283.666c0,0,0.235-0.466,0.737-1.231c0.512-0.754,1.262-1.834,2.346-2.982c1.095-1.126,2.457-2.411,4.207-3.4
		c0.865-0.5,1.816-0.945,2.842-1.231c1.016-0.314,2.104-0.468,3.189-0.474c1.092-0.029,2.164,0.206,3.193,0.467
		c1.014,0.324,1.97,0.753,2.832,1.263c0.874,0.495,1.631,1.094,2.337,1.667c0.672,0.613,1.313,1.181,1.834,1.773
		c0.559,0.557,1.002,1.126,1.391,1.632c0.402,0.494,0.727,0.944,0.979,1.325c0.508,0.757,0.798,1.19,0.798,1.19
		s-0.346-0.389-0.95-1.069c-0.29-0.349-0.657-0.758-1.107-1.201c-0.438-0.454-0.933-0.961-1.506-1.478
		c-0.547-0.545-1.208-1.054-1.893-1.602c-0.716-0.506-1.479-1.021-2.313-1.47c-0.827-0.46-1.738-0.804-2.671-1.104
		c-0.95-0.227-1.931-0.434-2.924-0.395c-0.988-0.006-1.982,0.121-2.924,0.401c-0.945,0.259-1.853,0.623-2.685,1.074
		c-1.68,0.876-3.104,1.988-4.235,3.029c-1.121,1.056-2.012,1.998-2.585,2.7C273.74,283.246,273.431,283.666,273.431,283.666z"/>
</g>
<g>
	<path d="M276.912,308.566c0,0,0.004-0.444,0.138-1.205c0.133-0.759,0.392-1.839,0.932-3.074c0.278-0.613,0.596-1.283,1.049-1.941
		c0.452-0.655,0.98-1.338,1.684-1.941c0.696-0.604,1.546-1.148,2.531-1.489c0.985-0.356,2.093-0.42,3.13-0.296
		c1.056,0.121,1.99,0.517,2.854,0.943c0.411,0.236,0.813,0.483,1.188,0.743c0.355,0.278,0.712,0.547,1.042,0.829
		c0.629,0.587,1.208,1.172,1.685,1.774c0.513,0.576,0.884,1.196,1.261,1.738c0.371,0.544,0.644,1.087,0.901,1.553
		c0.27,0.457,0.434,0.9,0.593,1.247c0.305,0.703,0.446,1.119,0.446,1.119s-0.358-0.269-0.928-0.766
		c-0.559-0.489-1.356-1.187-2.314-2.024c-0.491-0.387-0.984-0.847-1.546-1.259c-0.538-0.448-1.134-0.854-1.73-1.281
		c-0.307-0.188-0.618-0.38-0.933-0.574c-0.317-0.163-0.639-0.328-0.962-0.494c-0.654-0.25-1.307-0.528-1.95-0.575
		c-0.64-0.083-1.266-0.066-1.874,0.098c-0.607,0.17-1.202,0.45-1.769,0.811c-1.13,0.739-2.093,1.762-2.896,2.682
		c-0.776,0.943-1.413,1.793-1.846,2.406C277.161,308.211,276.912,308.566,276.912,308.566z"/>
</g>
<g>
	<path d="M201.115,305.708c0,0,0.202-0.448,0.656-1.17c0.455-0.72,1.149-1.729,2.151-2.808c0.989-1.091,2.27-2.277,3.906-3.276
		c1.614-0.99,3.654-1.842,5.938-1.819c1.128-0.001,2.291,0.26,3.302,0.745c1.045,0.443,1.872,1.167,2.599,1.869
		c0.329,0.38,0.649,0.753,0.936,1.132c0.25,0.396,0.494,0.782,0.731,1.159c0.396,0.783,0.752,1.523,0.972,2.237
		c0.272,0.694,0.427,1.355,0.551,1.94c0.152,0.576,0.221,1.092,0.268,1.517c0.105,0.847,0.128,1.332,0.128,1.332
		s-0.275-0.413-0.693-1.138c-0.199-0.366-0.465-0.798-0.769-1.283c-0.296-0.49-0.634-1.033-1.026-1.596
		c-0.365-0.583-0.845-1.139-1.301-1.74c-0.25-0.275-0.506-0.557-0.769-0.845c-0.278-0.253-0.562-0.512-0.851-0.774
		c-0.613-0.448-1.237-0.896-1.936-1.14c-0.688-0.267-1.414-0.434-2.181-0.416c-0.761-0.016-1.552,0.094-2.338,0.315
		c-0.784,0.211-1.565,0.499-2.312,0.844c-0.75,0.331-1.465,0.719-2.145,1.099c-0.672,0.392-1.32,0.768-1.904,1.146
		c-1.168,0.754-2.143,1.428-2.83,1.907C201.51,305.432,201.115,305.708,201.115,305.708z"/>
</g>
<ellipse fill="none" stroke="#000000" stroke-width="2" stroke-miterlimit="10" cx="246.941" cy="448.305" rx="4.835" ry="6.08"/>
<ellipse fill="none" stroke="#000000" stroke-width="2" stroke-miterlimit="10" cx="244.159" cy="494.208" rx="4.374" ry="5.682"/>
<line fill="none" stroke="#000000" stroke-width="2" stroke-miterlimit="10" x1="276.767" y1="407.354" x2="275.752" y2="396.938"/>
<line fill="none" stroke="#000000" stroke-width="2" stroke-miterlimit="10" x1="363.946" y1="229.467" x2="363.946" y2="225.502"/>
</svg>
