<?xml version="1.0" encoding="utf-8"?>
<!-- Generator: Adobe Illustrator 16.0.0, SVG Export Plug-In . SVG Version: 6.00 Build 0)  -->
<!DOCTYPE svg PUBLIC "-//W3C//DTD SVG 1.1//EN" "http://www.w3.org/Graphics/SVG/1.1/DTD/svg11.dtd">
<svg version="1.1" id="Layer_1" xmlns="http://www.w3.org/2000/svg" xmlns:xlink="http://www.w3.org/1999/xlink" x="0px" y="0px"
	 width="552px" height="859px" viewBox="0 0 552 859" enable-background="new 0 0 552 859" xml:space="preserve">
<rect fill="#FFFFFF" stroke="#000000" stroke-miterlimit="10" width="552" height="859"/>
<ellipse fill="none" stroke="#010101" stroke-width="2" stroke-miterlimit="10" cx="298.645" cy="189.679" rx="19.813" ry="26.085"/>
<ellipse fill="none" stroke="#010101" stroke-width="2" stroke-miterlimit="10" cx="216.195" cy="192.468" rx="19.813" ry="26.085"/>
<ellipse fill="none" stroke="#010101" stroke-width="2" stroke-miterlimit="10" cx="289.658" cy="186.091" rx="7.113" ry="11.615"/>
<ellipse fill="none" stroke="#010101" stroke-width="2" stroke-miterlimit="10" cx="288.721" cy="181.938" rx="4.034" ry="4.152"/>
<ellipse fill="none" stroke="#010101" stroke-width="2" stroke-miterlimit="10" cx="205.757" cy="187.956" rx="8.189" ry="11.465"/>
<ellipse fill="none" stroke="#010101" stroke-width="2" stroke-miterlimit="10" cx="205.318" cy="183.386" rx="4.503" ry="4.572"/>
<g>
	<path fill="#010101" d="M236.007,163.593c0,0-0.81-0.429-2.266-1.071c-1.46-0.631-3.564-1.487-6.153-2.262
		c-1.293-0.392-2.713-0.734-4.216-1.055c-1.511-0.277-3.109-0.536-4.77-0.639c-0.828-0.09-1.674-0.061-2.526-0.089
		c-0.85,0.05-1.714,0.038-2.574,0.145c-1.73,0.122-3.451,0.508-5.131,0.989c-0.826,0.286-1.676,0.511-2.465,0.885
		c-0.4,0.174-0.805,0.334-1.198,0.517l-1.146,0.612c-1.518,0.822-2.922,1.795-4.216,2.83c-0.646,0.519-1.217,1.105-1.827,1.625
		c-0.591,0.541-1.104,1.139-1.641,1.686c-0.552,0.535-0.976,1.156-1.45,1.703c-0.468,0.554-0.918,1.093-1.292,1.655
		c-0.393,0.55-0.77,1.077-1.128,1.579c-0.359,0.502-0.648,1.013-0.948,1.476c-0.588,0.934-1.117,1.745-1.482,2.452
		c-0.792,1.389-1.244,2.182-1.244,2.182s0.322-0.856,0.886-2.356c0.27-0.759,0.676-1.644,1.171-2.65
		c0.25-0.501,0.485-1.053,0.791-1.604c0.318-0.545,0.652-1.119,1-1.717c0.333-0.61,0.745-1.206,1.176-1.82
		c0.44-0.607,0.851-1.272,1.385-1.87c0.522-0.606,1.021-1.266,1.605-1.875c0.597-0.597,1.196-1.222,1.855-1.805
		c1.339-1.141,2.779-2.285,4.418-3.176l1.229-0.675c0.422-0.203,0.858-0.384,1.289-0.577c0.852-0.413,1.764-0.677,2.659-0.99
		c1.825-0.5,3.688-0.887,5.543-0.997c1.851-0.167,3.679-0.073,5.421,0.117c1.75,0.16,3.4,0.554,4.948,0.94
		c1.542,0.417,2.969,0.902,4.254,1.424c2.579,1.021,4.591,2.156,5.96,2.991C235.289,163.023,236.007,163.593,236.007,163.593z"/>
</g>
<g>
	<path fill="#010101" d="M276.69,161.21c0,0,0.572-0.646,1.729-1.616c1.153-0.972,2.897-2.269,5.2-3.502
		c1.154-0.604,2.429-1.236,3.848-1.738c1.407-0.525,2.934-0.999,4.557-1.298c1.615-0.335,3.323-0.52,5.062-0.553
		c1.74-0.011,3.512,0.112,5.255,0.414c0.876,0.129,1.725,0.388,2.584,0.576c0.838,0.262,1.68,0.508,2.495,0.804
		c1.629,0.6,3.161,1.353,4.596,2.149c0.701,0.428,1.416,0.806,2.065,1.252c0.643,0.454,1.271,0.899,1.883,1.331
		c1.168,0.934,2.287,1.796,3.207,2.716c0.471,0.446,0.922,0.874,1.351,1.28c0.4,0.434,0.779,0.846,1.137,1.233
		c0.721,0.764,1.318,1.456,1.775,2.056c0.923,1.186,1.451,1.863,1.451,1.863s-0.633-0.578-1.741-1.589
		c-0.532-0.523-1.227-1.108-2.018-1.779c-0.394-0.335-0.813-0.692-1.255-1.069c-0.457-0.355-0.938-0.729-1.44-1.118
		c-0.981-0.806-2.147-1.536-3.323-2.371c-0.616-0.375-1.248-0.76-1.895-1.153c-0.655-0.376-1.342-0.726-2.028-1.101
		c-0.685-0.379-1.43-0.662-2.154-1.004c-0.73-0.331-1.507-0.571-2.262-0.88c-0.771-0.268-1.563-0.486-2.352-0.723
		c-0.807-0.164-1.603-0.395-2.421-0.507c-1.623-0.304-3.273-0.44-4.899-0.453c-1.623,0.024-3.231,0.085-4.767,0.354
		c-1.538,0.235-3.015,0.567-4.391,0.979c-1.381,0.399-2.657,0.885-3.827,1.359c-2.327,0.984-4.191,2.01-5.461,2.791
		C277.375,160.689,276.69,161.21,276.69,161.21z"/>
</g>
<g>
	<path fill="#010101" d="M244.159,231.943c0,0,0.399,0.351,1.11,0.934c0.708,0.584,1.732,1.398,2.992,2.305
		c1.264,0.9,2.766,1.894,4.455,2.747c0.836,0.443,1.739,0.802,2.652,1.128c0.913,0.343,1.872,0.534,2.825,0.665
		c0.953,0.118,1.91,0.117,2.833-0.022c0.911-0.18,1.817-0.388,2.626-0.798c0.205-0.097,0.408-0.192,0.609-0.287
		c0.192-0.117,0.381-0.232,0.569-0.347c0.39-0.209,0.743-0.464,1.079-0.729c0.171-0.128,0.34-0.255,0.507-0.38
		c0.155-0.141,0.308-0.28,0.458-0.417c0.297-0.278,0.621-0.513,0.869-0.805c0.519-0.56,1.025-1.059,1.411-1.56
		c0.399-0.488,0.772-0.905,1.03-1.283c0.549-0.735,0.883-1.153,0.883-1.153s-0.183,0.494-0.541,1.355
		c-0.167,0.438-0.425,0.94-0.741,1.512c-0.288,0.589-0.701,1.204-1.167,1.871c-0.215,0.347-0.517,0.652-0.791,1
		c-0.273,0.351-0.597,0.677-0.952,0.996c-0.34,0.334-0.704,0.664-1.121,0.955c-0.201,0.154-0.408,0.307-0.62,0.455
		c-0.228,0.128-0.458,0.257-0.689,0.387c-0.923,0.526-1.984,0.916-3.095,1.13c-1.116,0.195-2.272,0.224-3.403,0.103
		c-1.119-0.175-2.224-0.43-3.239-0.835c-1.027-0.377-1.972-0.882-2.848-1.407c-0.89-0.508-1.668-1.111-2.4-1.677
		c-0.722-0.58-1.373-1.163-1.938-1.732c-1.148-1.121-1.987-2.16-2.542-2.906C244.429,232.401,244.159,231.943,244.159,231.943z"/>
</g>
<path fill="none" stroke="#010101" stroke-width="2" stroke-miterlimit="10" d="M233.717,257.527c0,0,43.207,4.891,55.941-1.128
	C290.346,264.676,258.617,306.814,233.717,257.527z"/>
<path fill="none" stroke="#010101" stroke-width="2" stroke-miterlimit="10" d="M159.417,172.874c0,0-35.744,0.752-23.294,34.99
	c4.418,13.168,10.041,14.673,18.475,18.812c0,7.901,26.909,77.881,114.462,77.128c10.843,0.753,107.634-6.839,119.682-85.25
	c6.156-1.66,27.311-10.877,27.913-26.491s-0.804-26.505-24.299-23.882c-7.831,1.872-8.635,11.654-8.635,15.229
	c0,0-20.683,8.153-24.297-19.815c-4.017-18.561-11.647-39.254-14.861-34.739c-3.211,4.515-10.842,10.534-10.842,10.534
	s-0.034-27.089-45-6.02c-18.055,10.158-17.526,7.901-27.028,16.555l-2.138-13.921c0,0-17.405,7.776-21.153,15.3
	c-4.82-5.268-7.229-9.029-6.426-14.046c-10.442-0.752-45.517,2.006-51.943-14.045c-1.874,19.564-10.979,46.618-15.529,53.283
	C159.149,170.868,159.417,172.874,159.417,172.874z"/>
<path fill="none" stroke="#010101" stroke-width="2" stroke-miterlimit="10" d="M157.008,166.382"/>
<path fill="none" stroke="#010101" stroke-width="2" stroke-miterlimit="10" d="M160.036,172.606c0,0-0.217-6.791-4.233-6.225
	c-5.021,1.789-30.925,15.683-32.129,21.575c0.1-9.815,4.016-39.915,15.663-45.558c-3.614-3.01-20.081,5.569-24.499,11.062
	c0.804-10.309,8.434-45.675,32.129-43.794c-1.606-4.515-16.868-7.525-32.129,2.258c-3.212-2.258,15.664-46.654,71.488-39.505
	c1.205-4.891-33.736-9.405-38.957-4.515c10.041-16.178,48.998-35.366,77.111-20.693c6.023-8.653,14.056-18.812,24.498-14.673
	c0.402,3.386,12.314,18.436,29.852,18.436c3.482-1.505,20.752-5.293,26.375-19.388c5.221,2.834,11.245,7.349,10.844,16.002
	c7.229-1.129,75.504-16.931,97.192,22.574c-10.845-2.258-34.941-9.406-47.393,6.772c10.041-1.882,75.103,0.209,81.529,32.835
	c-12.049-4.618-29.318-8.549-35.343,0c6.828,0.649,38.155,25.782,35.343,43.691c-8.032-3.161-13.655-9.18-28.917-10.686
	c9.237,12.792,23.695,35.869,17.271,46.905c-6.427-5.895-18.351-17.741-21.425-15.204"/>
<path fill="none" stroke="#010101" stroke-width="2" stroke-miterlimit="10" d="M157.008,181.938c0,0-2.813,27.807,0,33.826
	c-5.222-3.386-16.065-12.792-15.262-18.059C142.55,192.438,149.778,177.459,157.008,181.938z"/>
<path fill="none" stroke="#010101" stroke-width="2" stroke-miterlimit="10" d="M393.695,178.894c0,0,0.804,19.564,0,26.086
	c6.962-0.753,17.672-9.782,16.064-16.304C408.154,182.155,407.619,169.864,393.695,178.894z"/>
<path fill="none" stroke="#010101" stroke-width="2" stroke-miterlimit="10" d="M214.745,293.4c0,0-17.978,37.117-11.15,50.285
	c5.623,6.772,11.15,9.029,11.15,9.029l-12.696,11.288c0,0,29.66,73.743,36.086,127.921c-0.269,17.558-3.213,92.556,2.142,106.099
	c-7.498,2.51-87.822,12.041-92.641-37.622c3.213-18.561,29.988-140.964,27.311-165.043c-11.78,8.528-58.369,37.122-75.504,26.084
	c-2.678-9.03-3.749-60.698-3.749-60.698s29.452-16.555,48.729-43.644c17.671-23.076,36.978-36.15,51.957-33.876"/>
<path fill="none" stroke="#010101" stroke-width="2" stroke-miterlimit="10" d="M314.369,296.085
	c-0.961,0.308,12.122,17.501,12.122,47.6c-6.426,7.525-15.262,8.654-15.262,8.654l15.262,13.168c0,0-40.162,81.518-37.486,122.653
	c2.68,35.115,2.423,96.316-0.127,109.861c8.696,2.258,76.17,5.016,82.058-23.578c4.282-21.069-9.103-80.262-17.136-112.369
	c-8.03-32.606-6.962-65.213-6.962-77.755c8.569,4.014,67.473,40.633,67.473,40.633s40.165-16.554,42.842-33.109
	c-1.607-7.023-58.967-85.122-110.078-110.786"/>
<path fill="none" stroke="#010101" stroke-width="2" stroke-miterlimit="10" d="M288.878,302.116c0,0-7.916,140.39,0.791,170.366"/>
<path fill="none" stroke="#010101" stroke-width="2" stroke-miterlimit="10" d="M236.007,300.378c0,0,14.175,150.911,2.127,191.545"
	/>
<path fill="none" stroke="#010101" stroke-width="2" stroke-miterlimit="10" d="M245.069,302.116c0,0,8.46,22.507,12.543,25.516
	c-0.201,8.028-32.604,131.182,4.08,174.072c11.785-15.049,30.058-34.425,8.372-174.385c0,0,12.208-15.695,14.636-24.589"/>
<path fill="none" stroke="#010101" stroke-width="2" stroke-miterlimit="10" d="M455.854,395.756c0,0,15.22-6.624,19.236,0
	c1.07,2.108-6.692,8.63-11.782,10.135c5.622,2.006,17.671,11.789,19.814,17.808c1.069,6.02-0.804,12.291-18.475,0
	c6.156,4.767,17.938,13.292,10.709,22.324c-3.48,1.755-16.332-7.276-20.884-16.555c6.425,9.531,16.601,14.547,10.175,25.332
	c-5.356,4.767-20.883-17.556-23.027-20.817c1.874,7.776,4.819,19.813-5.086,13.293c-6.426-6.521-15.719-19.172-14.153-26.015"/>
<path fill="none" stroke="#010101" stroke-width="2" stroke-miterlimit="10" d="M237.568,515.488c0,0,45.373,1.744,52.822,0"/>
<path fill="none" stroke="#010101" stroke-width="2" stroke-miterlimit="10" d="M238.178,586.009c0,0,16.855-42.542,26.278-49.69
	c3.8,3.01,21.707,19.553,26.206,34.043"/>
<path fill="none" stroke="#010101" stroke-width="2" stroke-miterlimit="10" d="M300.787,532.808c0,0,43.645-3.01,51.141-9.281
	c2.675,10.785,10.172,44.146-17.138,52.925C318.995,579.711,296.501,571.936,300.787,532.808z"/>
<path fill="none" stroke="#010101" stroke-width="2" stroke-miterlimit="10" d="M172.27,520.14c0,0,31.728,12.793,49.399,10.911
	c1.606,6.021,1.205,48.866-28.515,46.067C181.506,573.566,162.229,564.16,172.27,520.14z"/>
<path fill="none" stroke="#010101" stroke-width="2" stroke-miterlimit="10" d="M179.432,595.583c0,0-0.869,15.983,0,23.508
	c-6.762,2.258-55.357,35.365,2.476,38.377c18.875,1.503,81.528,7.9,51.005-28.219c2.008-4.891,4.884-18.827,2.842-30.294"/>
<path fill="none" stroke="#010101" stroke-width="2" stroke-miterlimit="10" d="M177.208,620.127c0,0,44.059,9.875,55.706,9.122"/>
<path fill="none" stroke="#010101" stroke-width="2" stroke-miterlimit="10" d="M296.322,598.961c0,0,1.39,21.347,3.932,28.263
	c-3.081,4.282-23.564,26.857,21.417,29.867c26.105,1.129,91.396,2.824,33.247-36.964c0.085-5.928,0-28.691,0-28.691"/>
<path fill="none" stroke="#010101" stroke-width="2" stroke-miterlimit="10" d="M300.254,627.224c0,0,45.742-3.051,54.664-7.097"/>
<path fill="none" stroke="#010101" stroke-width="2" stroke-miterlimit="10" d="M96,372.3c0,0-28.152-27.444-15.702,0
	c-6.828,1.861-40.564-1.525-31.327,10.89c7.229,3.01,11.646,4.833,20.884,4.109c-8.032,0.406-32.499,0.782-22.475,12.445
	c8.418,2.258,18.551-1.505,23.123-1.881c-9.886,1.504-29.564,2.257-21.934,12.415c4.417,1.881,18.475,2.634,27.711,0
	c-6.426,3.01-16.868,18.06,3.614,11.288c11.647-4.891,18.32-7.96,18.32-7.96"/>
</svg>
