<?xml version="1.0" encoding="utf-8"?>
<!-- Generator: Adobe Illustrator 16.0.0, SVG Export Plug-In . SVG Version: 6.00 Build 0)  -->
<!DOCTYPE svg PUBLIC "-//W3C//DTD SVG 1.1//EN" "http://www.w3.org/Graphics/SVG/1.1/DTD/svg11.dtd">
<svg version="1.1" id="Layer_1" xmlns="http://www.w3.org/2000/svg" xmlns:xlink="http://www.w3.org/1999/xlink" x="0px" y="0px"
	 width="552px" height="859px" viewBox="0 0 552 859" enable-background="new 0 0 552 859" xml:space="preserve">
<rect x="0" fill="#FFFFFF" stroke="#000000" stroke-miterlimit="10" width="552" height="859"/>
<path fill="none" stroke="#000000" stroke-width="2" stroke-miterlimit="10" d="M445.078,306.219l1.508-0.862
	c24.122-13.286,28.38-31,36.894-48.161c22.705-44.286-7.095-78.054-7.095-78.054s-0.71-7.75-5.677-12.179
	c-8.513-4.982-29.799-16.607-41.151-19.929c-29.799,4.429-32.638-9.964-37.604-14.947c-24.122-35.429-73.079-38.197-87.27-38.75
	c-68.822-3.321-94.365,14.393-108.555,19.375c-48.957,21.589-47.537-19.375-47.537-19.375s-11.353,7.197-18.448,11.072
	c-18.447,11.072-14.899,23.804-14.899,33.214c-20.576-16.054-14.9-27.125-12.771-33.214c-56.761,33.214-2.128,64.769,4.257,68.644
	c-19.866,7.196-16.319,12.179-24.124,21.036c-9.933,28.786,5.676,33.768,8.514,39.304c1.419,17.161-7.805,18.268-16.319,22.697
	c8.514,6.643,24.833,0,24.833,0s18.447-33.768,23.414-49.268c0-9.411-2.128-15.5,2.129-21.589
	c7.804,3.321,22.704,3.875,31.219,1.107c7.095,1.107,31.218,11.625,41.861,10.518c-12.062,3.875-40.443,7.75-42.571,17.714
	c8.514,1.107,50.375,11.625,98.622-4.429c16.319-3.875,29.09-5.536,57.47-13.839c14.9,0,24.124-2.768,20.576,14.393
	c3.548,7.196,12.063,32.661,19.157,37.643c5.676,5.536,15.608,12.732,9.933,30.447c0.71,9.964-2.837,39.304,22.705,8.304
	c9.933-4.429,33.348-16.054,58.89,12.179c3.548,15.5,17.383,24.634-26.253,52.589c-14.189,2.768-27.67,4.152-37.249,0
	c-2.128,8.857-17.383,64.492-89.044,76.394c-13.835,2.214-89.753,9.411-129.131-3.875c-11.352-3.875-65.654-14.984-69.532-90.233
	c0-12.179,0.355-53.974,10.643-69.197c0-4.982,2.129-14.116,2.129-14.116s0.92-4.132,0.556-5.439"/>
<path fill="none" stroke="#000000" stroke-width="2" stroke-miterlimit="10" d="M162.308,357.024
	c22.232,25.833,114.941-2.583,114.941-2.583S207.244,458.513,162.308,357.024z"/>
<path fill="none" stroke="#000000" stroke-width="2" stroke-miterlimit="10" d="M328.807,283.767c0,0-56.052-44.286-83.013,10.518
	c7.095,6.089,14.19,7.196,14.19,7.196l1.299,0.063"/>
<path fill="none" stroke="#000000" stroke-width="2" stroke-miterlimit="10" d="M111.696,301.481c0,0,37.604-40.411,60.308,6.643
	c-5.676,3.322-9.696,7.75-9.696,7.75s-3.535,2.804-5.468,1.699"/>
<ellipse fill="none" stroke="#000000" stroke-width="2" stroke-miterlimit="10" cx="281.628" cy="288.59" rx="26.128" ry="20.642"/>
<ellipse fill="none" stroke="#000000" stroke-width="2" stroke-miterlimit="10" cx="143.94" cy="303.555" rx="21.286" ry="17.622"/>
<ellipse fill="none" stroke="#000000" stroke-width="2" stroke-miterlimit="10" cx="143.506" cy="298.16" rx="4.849" ry="4.06"/>
<ellipse fill="none" stroke="#000000" stroke-width="2" stroke-miterlimit="10" cx="282.865" cy="277.678" rx="4.435" ry="4.06"/>
<path fill="none" stroke="#000000" stroke-width="2" stroke-miterlimit="10" d="M243.665,243.171c0,0,18.685-39.672,71.661-1.846
	C299.007,235.237,280.085,222.689,243.665,243.171z"/>
<path fill="none" stroke="#000000" stroke-width="2" stroke-miterlimit="10" d="M111.696,259.225c0,0,9.223-37.643,30.154-11.072
	C134.873,247.046,122.811,242.987,111.696,259.225z"/>
<g>
	<path d="M384.619,315.136c0.975-0.843,2.032-1.593,3.131-2.28c1.107-0.672,2.253-1.299,3.458-1.813
		c1.205-0.51,2.453-0.955,3.756-1.235c0.65-0.146,1.314-0.246,1.984-0.315c0.672-0.068,1.353-0.077,2.036-0.059l1.026,0.104
		c0.34,0.054,0.679,0.129,1.019,0.194c0.672,0.17,1.343,0.373,1.979,0.669c0.328,0.125,0.633,0.298,0.937,0.473
		c0.308,0.169,0.615,0.34,0.887,0.561c0.583,0.395,1.086,0.875,1.592,1.354c0.452,0.518,0.943,1.018,1.314,1.592
		c0.416,0.549,0.761,1.134,1.089,1.728c0.352,0.584,0.574,1.218,0.865,1.826c0.248,0.621,0.458,1.253,0.688,1.879l0.029,0.082
		l0.007,0.073c0.053,0.546,0.11,1.094,0.067,1.637c0.002,0.546-0.112,1.077-0.21,1.604c-0.146,0.516-0.274,1.038-0.497,1.521
		c-0.183,0.502-0.443,0.96-0.699,1.421c-0.25,0.463-0.582,0.87-0.871,1.303c-0.337,0.394-0.669,0.794-1.033,1.159
		c-0.383,0.342-0.743,0.711-1.146,1.024c-0.41,0.302-0.804,0.626-1.227,0.904l-1.291,0.788l-1.349,0.66
		c-0.448,0.22-0.923,0.375-1.381,0.564c-0.457,0.196-0.932,0.338-1.407,0.472c-0.477,0.133-0.942,0.292-1.422,0.401l-1.442,0.303
		c-0.956,0.208-1.939,0.279-2.9,0.412c0.929-0.306,1.867-0.549,2.776-0.881l1.359-0.492c0.452-0.163,0.886-0.374,1.327-0.557
		c0.443-0.181,0.875-0.384,1.295-0.608c0.42-0.223,0.857-0.412,1.259-0.661l1.205-0.739l1.136-0.823
		c0.37-0.282,0.704-0.603,1.058-0.899c0.344-0.308,0.639-0.661,0.96-0.985c0.296-0.346,0.561-0.714,0.846-1.064
		c0.229-0.386,0.506-0.745,0.698-1.146c0.197-0.398,0.404-0.792,0.533-1.213c0.173-0.408,0.25-0.838,0.356-1.259
		c0.049-0.428,0.156-0.854,0.139-1.281c0.031-0.429-0.026-0.848-0.065-1.267l0.036,0.154c-0.221-0.573-0.423-1.157-0.656-1.722
		c-0.271-0.543-0.487-1.123-0.799-1.637c-0.285-0.533-0.583-1.057-0.938-1.535c-0.316-0.512-0.731-0.932-1.109-1.386
		c-0.422-0.405-0.838-0.821-1.317-1.151c-0.225-0.187-0.469-0.342-0.719-0.49c-0.245-0.156-0.491-0.313-0.76-0.425
		c-0.517-0.269-1.071-0.46-1.633-0.629l-0.861-0.203l-0.882-0.128c-0.596-0.055-1.197-0.091-1.806-0.071
		c-0.607,0.021-1.219,0.068-1.827,0.163c-0.608,0.09-1.221,0.197-1.826,0.344c-0.608,0.134-1.212,0.308-1.81,0.499
		c-1.196,0.383-2.385,0.829-3.542,1.356C386.879,313.921,385.733,314.491,384.619,315.136z"/>
</g>
<path fill="none" stroke="#000000" stroke-width="2" stroke-miterlimit="10" d="M396.801,354.44c0,0-15.845-1.199-19.038,41.98
	c-5.677-1.661-13.355-3.007-15.015-9.668"/>
<path fill="none" stroke="#000000" stroke-width="2" stroke-miterlimit="10" d="M306.091,424.756c0.653,1.319,2.85,1.28,2.85,1.28
	s21.994-1.384,47.892,40.411c9.578,9.965,24.478,28.786,26.961,35.706c3.903,6.366,17.029,18.821-10.643,36.536
	c-7.804,6.365-34.057,19.375-37.604,18.821c-3.903,1.938-19.157,6.92-26.606-6.366c-2.839-5.813-10.288-14.946,9.578-22.696
	c6.031-5.26,8.159-9.411,14.899-12.456c2.483-0.83,9.579-2.768-7.095-15.224c-6.031-4.151-22.35-20.759-23.059-26.018
	c-2.13-1.107-12.772-11.349-15.255-11.071l-1.05-0.053"/>
<path fill="none" stroke="#000000" stroke-width="2" stroke-miterlimit="10" d="M287.683,428.654l0.327,3.535
	c0,0,3.192,59.446-18.803,80.759c-3.902,4.706-13.835,14.116-14.19,29.617"/>
<ellipse fill="none" stroke="#000000" stroke-width="2" stroke-miterlimit="10" cx="254.662" cy="546.716" rx="6.386" ry="4.151"/>
<ellipse fill="none" stroke="#000000" stroke-width="2" stroke-miterlimit="10" cx="192.758" cy="548.238" rx="3.725" ry="4.014"/>
<ellipse fill="none" stroke="#000000" stroke-width="2" stroke-miterlimit="10" cx="181.405" cy="551.145" rx="4.08" ry="4.429"/>
<path fill="none" stroke="#000000" stroke-width="2" stroke-miterlimit="10" d="M201.449,432.188l9.224,19.313
	c0,0,12.062-3.536,19.867-9.657c5.676,4.121,14.545,13.255,14.545,13.255s3.211-17.016,13.126-20.759
	c0,0-21.286,35.769-7.805,53.036c2.483,10.902,4.612,13.67,4.257,24.741c0.709,4.982,12.062,27.125,12.771,38.75
	c0,0,12.771,57.019,9.224,85.251c8.159-2.491,26.252-6.089,37.959-5.813c12.416-4.151,46.473-9.411,41.507-35.429
	c-1.064-5.536-7.302-21.28-16.954-38.181"/>
<g>
	<path d="M298.298,535.921c0,0-0.045,0.104-0.104,0.305c-0.066,0.194-0.129,0.498-0.205,0.87c-0.079,0.374-0.122,0.835-0.167,1.354
		c-0.007,0.525-0.042,1.108,0.029,1.744c0.021,0.634,0.182,1.311,0.288,2.021c0.082,0.353,0.195,0.711,0.293,1.076
		c0.049,0.183,0.099,0.367,0.148,0.554c0.066,0.183,0.135,0.367,0.203,0.553c0.136,0.371,0.273,0.748,0.413,1.129
		c0.18,0.368,0.361,0.74,0.528,1.121c0.309,0.773,0.777,1.495,1.193,2.237c0.371,0.767,0.915,1.446,1.36,2.163
		c0.448,0.716,0.967,1.378,1.449,2.031c0.485,0.651,0.935,1.302,1.429,1.867c0.481,0.575,0.92,1.138,1.324,1.661
		c0.401,0.526,0.823,0.961,1.162,1.382c0.353,0.407,0.646,0.778,0.893,1.082c0.488,0.611,0.758,0.977,0.758,0.977
		s-0.379-0.237-1.025-0.683c-0.321-0.225-0.715-0.494-1.152-0.821c-0.434-0.333-0.961-0.669-1.451-1.129
		c-0.506-0.444-1.053-0.931-1.613-1.465c-0.582-0.514-1.144-1.11-1.69-1.76c-0.545-0.65-1.179-1.268-1.661-2.03
		c-0.495-0.75-1.084-1.449-1.509-2.271c-0.431-0.813-0.905-1.598-1.228-2.456c-0.181-0.418-0.348-0.837-0.505-1.254
		c-0.121-0.432-0.24-0.859-0.357-1.279c-0.127-0.415-0.231-0.831-0.271-1.255c-0.056-0.418-0.125-0.822-0.163-1.22
		c-0.033-0.806-0.063-1.56,0.042-2.256c0.039-0.694,0.225-1.319,0.365-1.858c0.166-0.54,0.355-0.99,0.541-1.347
		c0.179-0.358,0.356-0.617,0.483-0.789C298.223,536.003,298.298,535.921,298.298,535.921z"/>
</g>
<path fill="none" stroke="#000000" stroke-width="2" stroke-miterlimit="10" d="M320.342,495.754c0,0,0.056,22.327,4.495,26.497"/>
<path fill="none" stroke="#000000" stroke-width="2" stroke-miterlimit="10" d="M274.938,593.877c0,0-65.094,2.292-78.455-2.137
	c-5.794-0.737-8.16-0.37-20.931,0l-1.695,0.105"/>
<path fill="none" stroke="#000000" stroke-width="2" stroke-miterlimit="10" d="M228.006,443.643c0,0,18.969,11.18,9.983,15.978
	c-0.947,3.691-5.201,5.906-3.783,16.239c0.945,4.06,2.839,38.38,0,47.976c-0.474,4.429,0,18.729,0,18.729s6.996,6.365-6.2,15.593
	c-3.735,3.321-12.721,16.977-12.721,16.977s-14.427-14.672-18.802-26.896"/>
<path fill="none" stroke="#000000" stroke-width="2" stroke-miterlimit="10" d="M176.929,550.299"/>
<path fill="none" stroke="#000000" stroke-width="2" stroke-miterlimit="10" d="M196.086,545.87c0,0,20.221-6.642,18.329-33.213
	c-1.891-7.012-10.879-29.894-45.409-14.394"/>
<path fill="none" stroke="#000000" stroke-width="2" stroke-miterlimit="10" d="M196.086,546.161c0,0,20.221-6.642,18.329-33.214
	c-1.891-7.011-10.879-29.893-45.409-14.393c-9.33,5.744-13.008,31.367,7.922,52.035"/>
<path fill="none" stroke="#000000" stroke-width="2" stroke-miterlimit="10" d="M192.769,430.564l-0.997,1.624
	c0,0-15.865,44.43-6.287,60.796"/>
<path fill="none" stroke="#000000" stroke-width="2" stroke-miterlimit="10" d="M200.385,432.188c0,0-0.355,5.75,5.676,16.544
	c1.774,5.536-0.008,15.777-5.68,27.126c-2.124,6.366-6.255,17.418-6.255,17.418"/>
<path fill="none" stroke="#000000" stroke-width="2" stroke-miterlimit="10" d="M215.342,449.893c0,0-0.478,8.251,3.102,10.466
	c2.872,2.49,1.743,9.41,0,16.884c-1.74,4.705-9.19,24.357-9.19,24.357"/>
<path fill="none" stroke="#000000" stroke-width="2" stroke-miterlimit="10" d="M147.881,512.947c0,0-9.223,9.197-3.902,21.206
	c1.854,4.185-50.021-28.679-56.761-32.554c-10.288-9.411-22.704-10.795-26.961-10.795c0.709-2.768,10.997-18.268,14.545-25.465
	c9.579-27.955,29.445-39.309,29.445-39.309l2.483,1.39c7.45,11.902,25.897,15.777,31.573,18.544
	c3.193-4.151,29.09-17.161,29.09-17.161l4.005-1.636"/>
<path fill="none" stroke="#000000" stroke-width="2" stroke-miterlimit="10" d="M138.302,445.965c0,0,19.512,12.732,29.09,25.465"/>
<path fill="none" stroke="#000000" stroke-width="2" stroke-miterlimit="10" d="M187.915,430.01l-0.824,2.179
	c0,0-36.372,73.009-39.21,80.759c0,3.599,4.257,10.795-10.643,37.92c-2.128,8.304-4.612,56.742-0.177,70.027
	c5.144,3.875,35.298,16.607,44.344,18.269c8.337,0.554,8.337,0.554,8.337,0.554s-26.251-42.072-12.417-84.144l1.03-1.494"/>
<path fill="none" stroke="#000000" stroke-width="2" stroke-miterlimit="10" d="M111.631,516.413c0,0,8.195,26.012,24.321,38.19
	l0.574,0.405"/>
<path fill="none" stroke="#000000" stroke-width="2" stroke-miterlimit="10" d="M167.842,634.855l-0.103,1.263
	c0,0-4.495,29.669,21.439,47.861"/>
<path fill="none" stroke="#000000" stroke-width="2" stroke-miterlimit="10" d="M237.989,689.815c0,0-20.221,6.919-50.021-6.366
	c-12.771,4.429-20.382,5.813-25.802,13.839c-2.579,2.491,6.29,5.813,22.608,5.813c13.481,0.277,54.987,3.322,59.955,0
	C248.277,701.717,258.919,697.012,237.989,689.815z"/>
<path fill="none" stroke="#000000" stroke-width="2" stroke-miterlimit="10" d="M237.989,689.815c0,0-27.671-41.519,2.838-55.911
	c6.741-3.875,37.25-8.304,56.407,16.33c8.159,7.474,17.737,32.661,12.771,39.581c0,3.321-11.352,4.151,13.127,9.688
	c15.254,2.214,59.243,6.089,68.821,3.321c-1.063-3.875-10.996-17.161-33.701-19.375l-1.72-0.203"/>
<path fill="none" stroke="#000000" stroke-width="2" stroke-miterlimit="10" d="M341.446,621.019c0,0,13.884,9.841,15.168,65.198
	c-3.685,1.938-32.421,5.536-46.611,3.599"/>
</svg>
