<?xml version="1.0" encoding="utf-8"?>
<!-- Generator: Adobe Illustrator 16.0.0, SVG Export Plug-In . SVG Version: 6.00 Build 0)  -->
<!DOCTYPE svg PUBLIC "-//W3C//DTD SVG 1.1//EN" "http://www.w3.org/Graphics/SVG/1.1/DTD/svg11.dtd">
<svg version="1.1" id="Layer_1" xmlns="http://www.w3.org/2000/svg" xmlns:xlink="http://www.w3.org/1999/xlink" x="0px" y="0px"
	 width="552px" height="859px" viewBox="0 0 552 859" enable-background="new 0 0 552 859" xml:space="preserve">
<rect fill="#FFFFFF" stroke="#000000" stroke-miterlimit="10" width="552" height="859"/>
<ellipse fill="#FFFFFF" stroke="#010101" stroke-width="2" stroke-miterlimit="10" cx="75.215" cy="111.983" rx="26.991" ry="58.807"/>
<path fill="#FFFFFF" d="M112.201,163.382"/>
<path fill="none" stroke="#010101" stroke-width="2" stroke-miterlimit="10" d="M76.658,170.707l26.696,1.168
	c0,0,22.541-9.926,22.827-50.299c0.287-26.026-2.871-43.042-9.476-54.72c-4.021-7.007-9.762-11.344-11.772-11.844
	c-2.011-0.501-25.929-1.255-25.929-1.255"/>
<path fill="none" stroke="#010101" stroke-width="2" stroke-miterlimit="10" d="M121.661,78.722l26.63-0.689
	c0,0,12.06,0.417,13.783,31.948c-0.215,7.007-2.154,31.03-12.49,36.536c-4.954,0.5-27.922,2.337-27.922,2.337"/>
<polyline fill="none" stroke="#010101" stroke-width="2" stroke-miterlimit="10" points="137.739,78.033 137.739,46.169 
	165.95,80.702 165.806,179.966 137.739,147.545 "/>
<polyline fill="none" stroke="#010101" stroke-width="2" stroke-miterlimit="10" points="137.739,46.169 259.844,38.662 
	296.023,73.195 165.95,80.702 "/>
<polyline fill="none" stroke="#010101" stroke-width="2" stroke-miterlimit="10" points="296.023,73.195 296.023,171.874 
	165.806,179.966 "/>
<path fill="none" stroke="#010101" stroke-width="2" stroke-miterlimit="10" d="M296.023,160.28c0,0,52.546-21.521,92.171,33.032
	c-4.307-21.021-22.396-102.6-92.171-112.61"/>
<path fill="none" stroke="#010101" stroke-width="2" stroke-miterlimit="10" d="M267.709,46.169c0,0,55.499,11.831,87.561,69.728"/>
<line fill="none" stroke="#010101" stroke-width="2" stroke-miterlimit="10" x1="244.283" y1="175.089" x2="211.605" y2="303.418"/>
<line fill="none" stroke="#010101" stroke-width="2" stroke-miterlimit="10" x1="193.06" y1="178.272" x2="176.718" y2="288.404"/>
<path fill="none" stroke="#010101" stroke-width="2" stroke-miterlimit="10" d="M172.985,286.402c0,0,21.249,8.675,29.575,9.342
	c4.882,2.669,6.03,5.673,6.317,9.676"/>
<path fill="none" stroke="#010101" stroke-width="2" stroke-miterlimit="10" d="M229.838,330.111c0,0-10.624,9.342-14.931,4.337"/>
<path fill="none" stroke="#010101" stroke-width="2" stroke-miterlimit="10" d="M220.063,335.707c0,0-16.928,38.447-41.335,8.752
	c-3.158-9.342-3.183-16.683,6.161-18.685c4.464-2.335,22.553-15.348,30.019-26.025c5.456-5.005,6.548-8.008,13.037,0
	c5.915,2.67,11.944,1.001,12.231,15.682c0.287,12.345-6.318,43.042-10.337,49.047"/>
<path fill="none" stroke="#010101" stroke-width="2" stroke-miterlimit="10" d="M178.73,274.84c0,0-46.807,18.568-20.39,44.261
	c9.763,5.672,19.837,9.791,21.72,8.7"/>
<path fill="none" stroke="#010101" stroke-width="2" stroke-miterlimit="10" d="M153.028,312.544c0,0-17.371,16.232-9.618,32.248
	c5.168,9.009,17.024,17.35,36.651,16.684c6.419-1.334,9.291-3.117,10.87-7.064"/>
<path fill="none" stroke="#010101" stroke-width="2" stroke-miterlimit="10" d="M146.821,349.497c0,0-13.545,22.655,3.438,33.666
	c8.656,5.672,17.82,10.677,34.629,4.003c9.632-6.339,18.484-20.345,8.172-32.027"/>
<path fill="none" stroke="#010101" stroke-width="2" stroke-miterlimit="10" d="M198.789,355.622c0,0-2.259,21.534,7.503,27.875"/>
<path fill="none" stroke="#010101" stroke-width="2" stroke-miterlimit="10" d="M193.594,378.614l-25.06,101.727
	c0,0-11.845,9.759-14.859-3.254c0.861-6.006,11.217-87.223,11.217-87.223"/>
<path fill="none" stroke="#010101" stroke-width="2" stroke-miterlimit="10" d="M150.259,383.163c0,0,9.015,13.346,12.891,12.345"/>
<path fill="none" stroke="#010101" stroke-width="2" stroke-miterlimit="10" d="M186.875,405.888c0,0,9.655-2.622,13.747-4.875"/>
<path fill="none" stroke="#010101" stroke-width="2" stroke-miterlimit="10" d="M189.908,405.011c0,0-0.34,26.031,16.386,15.271
	c14.142-9.51,31.37-19.52,35.247-42.792c2.153-7.257,8.674-25.003-7.077-26.015"/>
<path fill="none" stroke="#010101" stroke-width="2" stroke-miterlimit="10" d="M263.721,393.505c0,0,18.95-13.303,8.183,29.383
	c-4.307,14.66-45.224,98.742-43.501,37.683"/>
<path fill="none" stroke="#010101" stroke-width="2" stroke-miterlimit="10" d="M199.545,422.889c0,0,26.492,45.443,46.949,49.194"
	/>
<path fill="none" stroke="#010101" stroke-width="2" stroke-miterlimit="10" d="M244.45,365.96c0,0,24.962,29.737,30.084,44.156"/>
<path fill="none" stroke="#010101" stroke-width="2" stroke-miterlimit="10" d="M205.894,353.095"/>
<path fill="none" stroke="#010101" stroke-width="2" stroke-miterlimit="10" d="M457.251,396.009c0,0,35.46,5.339,27.708-7.34
	c-4.738-3.504-18.52-7.174-27.708-8.175c-9.188-1.001-109.542-28.458-140.123-52.516c-6.46-2.537-33.271-15.049-17.443,3.719
	c4.953,4.754,18.52,13.764,18.52,13.764l1.346,0.959"/>
<path fill="none" stroke="#010101" stroke-width="2" stroke-miterlimit="10" d="M294.891,322.659c0,0-6.836-10.982,19.007-7.979
	c0,0,27.639-82.33,88.223-75.323c6.03,2.002,38.763,16.349,48.527,20.02c5.741,2.67,43.357,29.361,27.277,118.115
	c4.595,1.335,21.821,10.843,6.604,17.517"/>
<path fill="none" stroke="#010101" stroke-width="2" stroke-miterlimit="10" d="M313.897,314.68c0,0,59.511,39.121,125.263,54.803
	c16.941,4.337,35.459,8.452,38.871,7.417"/>
<path fill="none" stroke="#010101" stroke-width="2" stroke-miterlimit="10" d="M461.525,381.095c0,0-7.325,10.659-13.678,14.788"/>
<path fill="none" stroke="#010101" stroke-width="2" stroke-miterlimit="10" d="M450.647,259.376c0,0-7.501,84.044-24.855,106.584"
	/>
<path fill="none" stroke="#010101" stroke-width="2" stroke-miterlimit="10" d="M402.12,239.356c0,0-38.701,78.31-42.465,100.715"/>
<path fill="none" stroke="#010101" stroke-width="2" stroke-miterlimit="10" d="M322.027,331.482c0,0-3.75,19.983-3.464,25.656
	c0.288,5.672-1.436,15.683-3.446,17.35"/>
<path fill="none" stroke="#010101" stroke-width="2" stroke-miterlimit="10" d="M454.686,389.698c0,0,5.007,9.063-2.531,20.574
	c-3.661,6.757-8.829,14.265-4.307,18.518"/>
<path fill="none" stroke="#010101" stroke-width="2" stroke-miterlimit="10" d="M446.081,377.997l-7.862,42.536
	c0,0-5.231,16.516,2.953,28.528c4.737,11.261,13.248,49.215-48.795,70.902c-8.634,3.669-62.04,16.682-93.338-39.372
	c-6.318-12.347-24.694-53.385,1.148-79.578c8.326-6.84,24.908-12.012,30.076-26.525c4.738-12.512,10.684-29.292,13.095-31.538"/>
<path fill="none" stroke="#010101" stroke-width="2" stroke-miterlimit="10" d="M320.991,387.183c0,0-0.848-24.958-31.645-15.198
	c-2.368,2.252-22.307,20.891-0.386,47.982"/>
<path fill="none" stroke="#010101" stroke-width="2" stroke-miterlimit="10" d="M294.757,377.06c0,0,13.624,7.437,13.152,18.823"/>
<path fill="none" stroke="#010101" stroke-width="2" stroke-miterlimit="10" d="M291.501,387.183c0,0,12.247-0.543,15.275,2.515"/>
<path fill="none" stroke="#010101" stroke-width="2" stroke-miterlimit="10" d="M436.587,433.427c0,0,23.534-17.565,31.574,10.462
	c2.585,9.01,3.203,41.529-26.251,36.447"/>
<path fill="none" stroke="#010101" stroke-width="2" stroke-miterlimit="10" d="M441.172,449.061c0,0,12.771-1.77,15.143,5.371"/>
<path fill="none" stroke="#010101" stroke-width="2" stroke-miterlimit="10" d="M450.647,448.865c0,0,6.539-8.979,10.878-3.976"/>
<path fill="none" stroke="#010101" stroke-width="2" stroke-miterlimit="10" d="M359.655,416.862c0,0-39.657-1.698-1.18,26.51
	c7.753,4.187,42.783,15.5,40.199,0c-0.574-5.823-6.03-10.924-12.06-15.38"/>
<path fill="none" stroke="#010101" stroke-width="2" stroke-miterlimit="10" d="M311.672,438.549c0,0,16.654,12.013,25.842,0"/>
<path fill="none" stroke="#010101" stroke-width="2" stroke-miterlimit="10" d="M388.911,458.902c0,0,7.753,21.354,21.249,16.016"/>
<path fill="none" stroke="#010101" stroke-width="2" stroke-miterlimit="10" d="M396.636,471.372c0,0-47.637,23.898-69.746-27.484"
	/>
<path fill="none" stroke="#010101" stroke-width="2" stroke-miterlimit="10" d="M330.623,485.595c0,0,11.188,32.365,39.62,14.348"/>
<path fill="none" stroke="#010101" stroke-width="2" stroke-miterlimit="10" d="M404.213,429.279
	c-7.48-2.92-10.736-15.001-7.273-26.985c3.464-11.985,12.336-19.332,19.817-16.413c7.48,2.919,10.736,15,7.272,26.986
	C420.564,424.85,411.693,432.199,404.213,429.279z"/>
<path fill="none" stroke="#010101" stroke-width="2" stroke-miterlimit="10" d="M350.31,406.94c-7.48-2.919-10.736-15-7.272-26.984
	c3.465-11.985,12.336-19.333,19.816-16.414c7.481,2.92,10.736,15.002,7.273,26.985C366.663,402.512,357.791,409.86,350.31,406.94z"
	/>
<path fill="#010101" d="M415.652,394.245c4.471,3.128,5.26,11.133,1.763,17.88c-3.496,6.746-9.954,9.68-14.424,6.552
	c-4.471-3.128-5.261-11.132-1.764-17.879C404.725,394.051,411.183,391.117,415.652,394.245z"/>
<path fill="#010101" d="M363.714,373.06c4.47,3.128,5.259,11.133,1.763,17.879c-3.496,6.748-9.954,9.68-14.425,6.552
	c-4.47-3.128-5.259-11.132-1.764-17.879C352.785,372.865,359.243,369.932,363.714,373.06z"/>
<path fill="#FFFFFF" stroke="#010101" stroke-width="2" stroke-miterlimit="10" d="M414.84,399.019
	c2.644,2.559,2.477,7.859-0.375,11.837c-2.853,3.978-7.307,5.126-9.951,2.568s-2.476-7.859,0.375-11.836
	C407.74,397.61,412.195,396.46,414.84,399.019z"/>
<path fill="#FFFFFF" stroke="#010101" stroke-width="2" stroke-miterlimit="10" d="M363.173,377.171
	c2.645,2.56,2.476,7.858-0.375,11.837c-2.852,3.978-7.307,5.126-9.951,2.567c-2.644-2.559-2.475-7.858,0.375-11.836
	C356.074,375.761,360.529,374.611,363.173,377.171z"/>
<path fill="none" stroke="#010101" stroke-width="2" stroke-miterlimit="10" d="M424.948,508.785
	c10.91-9.343,13.054-20.363,13.054-20.363"/>
<path fill="none" stroke="#010101" stroke-width="2" stroke-miterlimit="10" d="M441.105,482.392l8.681,9.543
	c0,0,8.183,44.46-33.596,65.23l-5.6-4.589"/>
<path fill="none" d="M410.591,551.91"/>
<path fill="none" stroke="#010101" stroke-width="2" stroke-miterlimit="10" d="M450.435,499.609c0,0,2.904,3.377,3.658,5.88
	c0,2.628-0.733,10.74-8.012,19.696"/>
<path fill="none" stroke="#010101" stroke-width="2" stroke-miterlimit="10" d="M454.093,505.489c0,0,6.46-2.503,6.245,4.255
	c-0.215,6.756-5.725,29.904-23.751,43.166"/>
<path fill="none" stroke="#010101" stroke-width="2" stroke-miterlimit="10" d="M460.338,509.744c0,0,14.752-6.632,19.059,7.006
	c0.323,5.756-2.261,21.23,0,27.403c0.682,5.838,3.841,30.864-10.517,31.53c-10.911-0.501-24.838-2.169-24.838-2.169"/>
<path fill="none" stroke="#010101" stroke-width="2" stroke-miterlimit="10" d="M454.751,574.641c0,0-13.148,12.929-23.916,2.793
	c-4.308-3.753-8.402-12.512-6.964-19.101c0.288-3.42-3.786-3.253-3.786-3.253"/>
<path fill="none" stroke="#010101" stroke-width="2" stroke-miterlimit="10" d="M415.545,541.908c0,0-18.736,48.038-54.055,61.052
	c-4.307,2.251-52.402,15.432-84.562-36.62c-5.742-7.34-21.176-46.711-13.208-69.733"/>
<polyline fill="none" stroke="#010101" stroke-width="2" stroke-miterlimit="10" points="307.214,493.111 298.607,514.624 
	314.328,525.134 320.931,507.381 "/>
<line fill="none" stroke="#010101" stroke-width="2" stroke-miterlimit="10" x1="300.943" y1="508.785" x2="316.32" y2="519.777"/>
<polyline fill="none" stroke="#010101" stroke-width="2" stroke-miterlimit="10" points="374.211,523.678 367.521,543.651 
	386.472,546.154 395.824,518.713 "/>
<path fill="none" stroke="#010101" stroke-width="2" stroke-miterlimit="10" d="M401.84,567.437
	c-12.196-4.241-11.511-32.599-11.511-32.599"/>
<path fill="none" stroke="#010101" stroke-width="2" stroke-miterlimit="10" d="M369.64,537.326c0,0,17.819,2.509,19.271,1.669"/>
<path fill="none" stroke="#010101" stroke-width="2" stroke-miterlimit="10" d="M317.693,516.085c0,0,20.386,19.566,52.55,19.438"/>
<path fill="none" stroke="#010101" stroke-width="2" stroke-miterlimit="10" d="M439.602,485.595"/>
<ellipse fill="none" stroke="#010101" stroke-width="2" stroke-miterlimit="10" cx="303.619" cy="525.207" rx="5.012" ry="5.432"/>
<ellipse fill="none" stroke="#010101" stroke-width="2" stroke-miterlimit="10" cx="378.288" cy="549.532" rx="4.737" ry="3.378"/>
<path fill="none" stroke="#010101" stroke-width="2" stroke-miterlimit="10" d="M235.417,482.392l44.67,23.008
	c0,0,5.223-2.036,6.702-4.289"/>
<path fill="none" stroke="#010101" stroke-width="2" stroke-miterlimit="10" d="M305.017,498.604c0,0-25.846,36.83-43.155,6.433"/>
<path fill="none" stroke="#010101" stroke-width="2" stroke-miterlimit="10" d="M263.098,498.604c0,0-66.136,73.332-40.079,107.487
	c8.398,9.631,20.458,32.153,45.439,3.625c15.075-7.507,46.947-20.52,73.65,9.008c6.893,6.508,17.014,20.521,20.89,26.276
	c3.661,5.005,17.013,20.02,30.149-6.257c3.661-7.006,12.4-37.317,10.866-74.672"/>
<path fill="none" stroke="#010101" stroke-width="2" stroke-miterlimit="10" d="M359.543,640.045c0,0-9.467,45.245,26.929,48.998
	c6.245-0.751,20.674-2.002,24.551-31.03c0.646-8.508,4.117-23.763-12.692-35.029"/>
<path fill="none" stroke="#010101" stroke-width="2" stroke-miterlimit="10" d="M375.489,653.816c0,0,7.005,24.398-9.851,24.432"/>
<path fill="none" stroke="#010101" stroke-width="2" stroke-miterlimit="10" d="M389.623,644.84c0,0-3.417,32.728,18.467,26.077"/>
<line fill="none" stroke="#010101" stroke-width="2" stroke-miterlimit="10" x1="374.412" y1="660.015" x2="393.578" y2="644.84"/>
<line fill="none" stroke="#010101" stroke-width="2" stroke-miterlimit="10" x1="395.302" y1="658.324" x2="371.285" y2="653.816"/>
<path fill="none" stroke="#010101" stroke-width="2" stroke-miterlimit="10" d="M375.273,666.032
	c1.645-2.521,18.305-3.516,18.305-3.516l-19.166,5.757l20.89-2.878"/>
<path fill="none" stroke="#010101" stroke-width="2" stroke-miterlimit="10" d="M361.158,669.865c0,0,6.033,26.935,28.271,23.432
	c9.532-2.002,23.784-7.501,22.114-40.87"/>
<path fill="none" stroke="#010101" stroke-width="2" stroke-miterlimit="10" d="M218.02,576.21c0,0-26.658,13.987-35.272,52.524
	c-2.153,11.011,5.168,44.883,39.625,23.692c9.045-7.177,12.91-13.65,17.223-30.182"/>
<path fill="none" stroke="#010101" stroke-width="2" stroke-miterlimit="10" d="M229.915,614.463l-15.295,28.785
	c0,0-1.668,13.99,0,13.242"/>
<path fill="none" stroke="#010101" stroke-width="2" stroke-miterlimit="10" d="M219.444,599.908l-19.469,32.58
	c0,0-15.333,8.507-17.573,0"/>
<polyline fill="none" stroke="#010101" stroke-width="2" stroke-miterlimit="10" points="197.176,631.737 216.939,645.25 
	200.924,624.98 223.88,635.115 202.991,618.088 225.388,629.234 208.159,610.467 229.915,622.729 213.545,603.209 230.987,617.733 
	"/>
<path fill="none" stroke="#010101" stroke-width="2" stroke-miterlimit="10" d="M226.158,649.163c0,0-19.118,28.286-43.755,2.26
	c-3.101-6.006-6.259-30.294,8.098-51.515c5.455-7.208,14.883-21.16,23.378-21.024c0,0-43.478,10.48-50.656,22.825
	c-7.178,12.346-18.376,33.217,9.476,54.813c26.704,20.928,44.507,18.926,63.458,20.261c14.357,9.676,34.168,31.696,68.051,24.689
	c24.981-0.667,28.427,4.339,50.824,9.677c22.109,2.336,53.982,1.335,70.062-14.347c12.634-13.013,36.345-43.218-17.002-63.817"/>
</svg>
