<?xml version="1.0" encoding="utf-8"?>
<!-- Generator: Adobe Illustrator 16.0.0, SVG Export Plug-In . SVG Version: 6.00 Build 0)  -->
<!DOCTYPE svg PUBLIC "-//W3C//DTD SVG 1.1//EN" "http://www.w3.org/Graphics/SVG/1.1/DTD/svg11.dtd">
<svg version="1.1" id="Layer_1" xmlns="http://www.w3.org/2000/svg" xmlns:xlink="http://www.w3.org/1999/xlink" x="0px" y="0px"
	 width="552px" height="859px" viewBox="0 0 552 859" enable-background="new 0 0 552 859" xml:space="preserve">
<rect x="0" fill="#FFFFFF" stroke="#000000" stroke-miterlimit="10" width="552" height="859"/>
<path fill="none" stroke="#000000" stroke-width="2" stroke-miterlimit="10" d="M206.528,354.529l-2.872,1.249
	c0,0-45.063,19.282-68.823-13.772c0.82-10.33,8.194-48.892-27.037-63.353c-5.736-3.443-21.302-14.461,9.012-49.581
	c5.735-0.689,26.93-4.132,34.358-27.545c0.872-4.821,4.15-50.27,34.464-55.089c5.736-0.689,31.134-14.461,36.87-23.413
	c10.652-3.443,70.46-44.072,152.393,23.413l18.026-16.527c0,0-102.414-61.287-104.053-59.91
	c-33.593,9.64-91.765,38.562-91.765,38.562l6.554,28.922"/>
<path fill="none" stroke="#000000" stroke-width="2" stroke-miterlimit="10" d="M205.707,171.229c0,0,15.568,76.093,86.847,73.338
	c5.326,1.722,4.917,15.839,44.654,21.003c2.457,0,40.967,9.296,15.978,41.317c9.831-0.344,21.302-1.377,23.35-12.396
	c4.916-5.508,17.206-14.806,22.122,8.607c-5.328,10.33-7.785,20.315-26.629,21.348c-7.783-1.722-6.554,0.689-12.291-5.508
	c-0.818-0.689-33.591,52.679-107.74,45.105c-6.965-1.033-87.258-1.377-94.222-74.371
	C156.548,279.343,149.174,183.969,205.707,171.229z"/>
<path fill="none" stroke="#000000" stroke-width="2" stroke-miterlimit="10" d="M230.152,361.369c0,0-2.323,36.245-108.016,36.761
	c-0.615,0-15.362-43.383-15.362-43.383s-16.591,1.549-34.412,13.944c2.458,6.714,39.328,122.402,39.328,122.402l36.869-15.494
	l-25.809-74.887l-0.71-2.97"/>
<path fill="none" stroke="#000000" stroke-width="2" stroke-miterlimit="10" d="M197.719,422.92c0,0,1.109,34.086-40.923,23.241
	c-4.55-2.065-13.065-3.555-18.639-0.744"/>
<path fill="none" stroke="#000000" stroke-width="2" stroke-miterlimit="10" d="M85.439,408.976c0,0-26.199,24.274,13.237,45.449
	l1.492,0.565"/>
<path fill="none" stroke="#000000" stroke-width="2" stroke-miterlimit="10" d="M222.048,374.652c0,0,34.047,42.919,124.992-13.284
	c1.229-14.726,53.256-1.113,56.534-1.802c41.375,2.41,25.397-30.299,24.168-38.218c-11.469-16.871,4.509-20.315,9.015-23.757
	c24.987-22.725,23.351-56.467,22.529-61.632c-6.146-19.626-29.498-14.463-38.51-15.151c-30.313,25.479-26.22,1.377-27.854-5.135
	c16.387-41.632-18.028-69.236-18.028-69.236"/>
<path fill="none" stroke="#000000" stroke-width="2" stroke-miterlimit="10" d="M329.414,346.719l17.625,14.65
	c0,0,91.723,44.341,125.671,85.791c0.31,0.377,0.615,0.754,0.914,1.133c3.687,4.583,39.328,6.305,33.594,23.864
	c-0.41,2.755-15.565,10.674-7.784,17.216c-1.229,6.197-0.818,27.199-25.398,13.083c-5.736-3.787-12.29-7.574-12.29-7.574
	s-29.905,21.347-24.171-15.15c7.785-7.23,32.774-30.643,32.774-30.643l2.354-2.104"/>
<path fill="none" stroke="#000000" stroke-width="2" stroke-miterlimit="10" d="M437.574,479.731c0,0-54.075-43.383-82.75-48.892
	c1.637,7.92,17.613,190.748,17.613,190.748l-35.229,6.198h-41.785H262.65h-43.424c0,0-40.147-4.133-31.953-50.959
	c0-4.819-1.224-99.306,10.448-149.847"/>
<polyline fill="none" stroke="#000000" stroke-width="2" stroke-miterlimit="10" points="188.63,507.242 222.048,511.409 
	222.048,565.81 187.236,565.81 "/>
<polyline fill="none" stroke="#000000" stroke-width="2" stroke-miterlimit="10" points="361.957,503.875 324.919,507.242 
	324.919,560.302 367.029,560.302 "/>
<path fill="none" stroke="#000000" stroke-width="2" stroke-miterlimit="10" d="M219.226,627.786l0.308,1.462
	c0,0,13.211,48.032-58.377,51.905c1.536,6.973,0,17.043,38.406,18.851c5.837,0.517,13.211,2.066,31.953-3.873
	c1.229-0.517,28.267,23.499,32.568-5.682c-0.615-4.131-2.15-23.357-2.15-23.357s-3.995-5.564,0.307-37.844l0.409-1.462"/>
<polyline fill="none" stroke="#000000" stroke-width="2" stroke-miterlimit="10" points="210.542,663.616 212.62,664.11 
	260.397,668.241 262.027,668.241 "/>
<path fill="none" stroke="#000000" stroke-width="2" stroke-miterlimit="10" d="M295.012,627.786v1.462c0,0,3.279,32.623,0,52.938
	c1.641,3.099,2.05,31.333,20.485,24.446c5.323-1.033,5.732,1.721,9.419-12.052c-0.408-1.722,51.619,19.97,68.007,4.132
	c2.866-3.442,19.663-12.05,0-17.903c-3.279-1.378-52.847-14.117-54.896-23.414c-0.408-2.755-5.733-22.552-2.048-28.147l0.73-1.462"
	/>
<path fill="none" stroke="#000000" stroke-width="2" stroke-miterlimit="10" d="M296.318,667.748l1.87,0.493
	c0,0,30.11,2.841,48.238-2.065l1.721-0.831"/>
<polyline fill="none" stroke="#000000" stroke-width="2" stroke-miterlimit="10" points="121.686,486.894 127.872,499.013 
	121.686,519.671 167.939,503.282 148.764,493.848 140.857,478.837 "/>
<ellipse fill="none" stroke="#000000" stroke-width="2" stroke-miterlimit="10" cx="198.948" cy="273.403" rx="7.988" ry="7.489"/>
<ellipse fill="none" stroke="#000000" stroke-width="2" stroke-miterlimit="10" cx="286.037" cy="275.103" rx="7.824" ry="7.547"/>
<path fill="none" stroke="#000000" stroke-width="2" stroke-miterlimit="10" d="M241.757,277.966c0,0-27.715,5.509-11.605,32.021
	c3.002-0.344,6.69,1.033,7.099-8.263c-2.049-3.788-2.049-11.708,4.506-15.15C243.805,284.852,247.902,278.655,241.757,277.966z"/>
<path fill="none" stroke="#000000" stroke-width="2" stroke-miterlimit="10" d="M237.251,330.129c0,0,11.266,7.23,18.435,0
	c3.278-1.893,13.314-5.681,10.242,5.854c-1.024,0.861-23.863,17.56-37.177-0.602C228.238,334.261,225.064,325.309,237.251,330.129z"
	/>
<polyline fill="none" stroke="#000000" stroke-width="2" stroke-miterlimit="10" points="82.302,362.728 81.58,361.369 
	74.615,346.719 76.91,340.286 57,286.229 81.58,337.531 89.774,338.22 97.511,356.7 "/>
<ellipse fill="none" stroke="#000000" stroke-width="2" stroke-miterlimit="10" cx="199.255" cy="277.363" rx="16.284" ry="16.613"/>
<ellipse fill="none" stroke="#000000" stroke-width="2" stroke-miterlimit="10" cx="286.36" cy="278.267" rx="16.745" ry="17.344"/>
</svg>
