<?xml version="1.0" encoding="utf-8"?>
<!-- Generator: Adobe Illustrator 16.0.0, SVG Export Plug-In . SVG Version: 6.00 Build 0)  -->
<!DOCTYPE svg PUBLIC "-//W3C//DTD SVG 1.1//EN" "http://www.w3.org/Graphics/SVG/1.1/DTD/svg11.dtd">
<svg version="1.1" id="Layer_1" xmlns="http://www.w3.org/2000/svg" xmlns:xlink="http://www.w3.org/1999/xlink" x="0px" y="0px"
	 width="552px" height="859px" viewBox="0 0 552 859" enable-background="new 0 0 552 859" xml:space="preserve">
<rect fill="#FFFFFF" stroke="#000000" stroke-miterlimit="10" width="552" height="859"/>
<path fill="none" stroke="#010101" stroke-width="2" stroke-miterlimit="10" d="M275.859,142.85c0,0,19.651,54.49,10.106,114.296
	c-1.685,3.987-12.913-9.081-12.913-10.632c0,0-0.478-2.056-0.414-2.793"/>
<line fill="none" stroke="#010101" stroke-width="2" stroke-miterlimit="10" x1="285.466" y1="257.41" x2="277.138" y2="261.507"/>
<path fill="none" stroke="#010101" stroke-width="2" stroke-miterlimit="10" d="M276.367,144.335c0,0-9.772,21.198-11.175,56.041"/>
<path fill="none" stroke="#010101" stroke-width="2" stroke-miterlimit="10" d="M276.982,144.335l-16.938-1.485
	c0,0-10.148,10.854-7.714,61.578c0,1.994,18.991-12.628,30.081,7.308c-0.702,0.664,16.937,31.014-19.559,33.672"/>
<path fill="none" stroke="#010101" stroke-width="2" stroke-miterlimit="10" d="M234.311,150.824c0,0,30.881,43.194,11.792,121.606
	C246.664,276.417,218.028,224.585,234.311,150.824z"/>
<path fill="none" stroke="#010101" stroke-width="2" stroke-miterlimit="10" d="M234.311,150.824l-12.352-6.489
	c0,0-19.839,67.182,8.983,133.191c1.123,0.442,13.849-4.879,13.849-4.879"/>
<path fill="none" stroke="#010101" stroke-width="2" stroke-miterlimit="10" d="M242.314,166.659l0.419-2.378
	c0,0,4.492-32.063,0-43.359c-4.492-11.297-119.312,2.99-127.173,10.632c-1.404,1.661-60.919,19.936-60.919,30.235
	c-0.749,4.983-22.459,66.994,23.208,110.857c0.749,3.992-3.743-13.728-1.498-40.308c0.75-4.43,130.426-35.441,138.952-25.694"/>
<path fill="none" stroke="#010101" stroke-width="2" stroke-miterlimit="10" d="M77.849,272.646l2.479,12.825
	c0,0,85.635-56.589,136.648-51.272l1.252,0.158"/>
<path fill="none" stroke="#010101" stroke-width="2" stroke-miterlimit="10" d="M217.446,167.234l-2.143,0.204
	c0,0-53.686-0.666-54.678,43.193"/>
<path fill="none" stroke="#010101" stroke-width="2" stroke-miterlimit="10" d="M151.564,247.772c0,0-5.826,24.16,0,37.701
	l-9.334,11.546c0,0-21.897-37.285-35.934-24.623c-1.123,2.029-38.742,20.636-20.774,63.829c0.562,3.323,29.196,48.51,57.831-18.606"
	/>
<path fill="none" stroke="#010101" stroke-width="2" stroke-miterlimit="10" d="M276.367,251.238c0,0,14.838,75.682-31.575,106.25
	c-4.866,3.323-45.292,31.896-87.402-40.536"/>
<path fill="none" stroke="#010101" stroke-width="2" stroke-miterlimit="10" d="M270.78,328.25
	c-8.827,1.091,58.016-8.879,79.193,25.926c0,0,24.704,49.829-46.04,95.68c-2.246,0-11.901,13.954-27.566,10.632
	c0,0-15.246-5.316-14.685-16.114l0.13-2.216"/>
<path fill="none" stroke="#010101" stroke-width="2" stroke-miterlimit="10" d="M261.667,381.273v-2.854
	c0.125-21.929,30.195-13.955,30.195-13.955"/>
<path fill="none" stroke="#010101" stroke-width="2" stroke-miterlimit="10" d="M271.182,377.203c0,0,22.771,53.384,5.583,75.31"/>
<path fill="none" stroke="#010101" stroke-width="2" stroke-miterlimit="10" d="M283.053,424.696l-0.876,0.738
	c0,0-1.685,3.655-10.388,2.326c0,0-21.756,40.369-34.39,15.284c-0.141-0.166-1.825-10.798-7.019-11.962
	c-0.702-0.331-5.334-3.488-2.526-12.459c0.281-0.332,0.924-7.31-0.895-12.625c-0.697-2.437-2.569-5.316,1.737-10.411l13.288-8.196"
	/>
<path fill="none" stroke="#010101" stroke-width="2" stroke-miterlimit="10" d="M274.456,388.886c0,0-9.545,4.319-13.756-10.466
	c-0.28-0.332-10.387-18.938-18.949-5.316c0.14,0.665-5.896,4.664-6.737,16.37v2.217"/>
<path fill="none" stroke="#010101" stroke-width="2" stroke-miterlimit="10" d="M138.695,327.571c0,0,14.764-3.808,44.241,66.715
	c1.123,3.073,18.809,43.941,80.009,71.85c0.281,0,1.803,1.661,14.237,3.323"/>
<path fill="none" stroke="#010101" stroke-width="2" stroke-miterlimit="10" d="M219.271,365.813l0.255,2.312
	c0,0,2.059,38.981-10.667,60.024"/>
<path fill="none" stroke="#010101" stroke-width="2" stroke-miterlimit="10" d="M236.557,363.053c0,0,0.937,5.067,0.749,15.367
	l0.025,1.381"/>
<path fill="none" stroke="#010101" stroke-width="2" stroke-miterlimit="10" d="M164.18,355.146c0,0-24.571-0.095-8.85,32.245
	c1.123,3.987,12.726,27.467,12.726,27.467"/>
<path fill="none" stroke="#010101" stroke-width="2" stroke-miterlimit="10" d="M150.077,365.814c0,0-84.208,4.742-57.257,82.712
	c0,1.329,16.47,50.949,53.527,60.692c0.374-0.444,5.614,11.073,17.218-32.341l1.276-5.357"/>
<path fill="none" stroke="#010101" stroke-width="2" stroke-miterlimit="10" d="M150.077,416.629c0,0-26.896,38.099-11.382,78.413"
	/>
<path fill="none" stroke="#010101" stroke-width="2" stroke-miterlimit="10" d="M145.225,407.327c0,0,10.482,0.518,16.47,11.999
	l1.006,1.483"/>
<path fill="none" stroke="#010101" stroke-width="2" stroke-miterlimit="10" d="M147.471,398.497c0,0,3.321,2.185,4.095,8.831"/>
<path fill="none" stroke="#010101" stroke-width="2" stroke-miterlimit="10" d="M144.771,425.78l1.577,0.597
	c0,0,15.721,3.767,14.037-2.214c0.936-2.217,20.026-28.354,27.512-1.553l0.64,3.322"/>
<path fill="none" stroke="#010101" stroke-width="2" stroke-miterlimit="10" d="M172.456,427.547c0,0,18.248-9.81,20.494,6.359
	c-0.093,0.112,0.656,20.048-24.517,18.165"/>
<path fill="none" stroke="#010101" stroke-width="2" stroke-miterlimit="10" d="M191.804,440.154l1.146,1.95
	c0,0,11.417,26.357-13.663,25.692"/>
<path fill="none" stroke="#010101" stroke-width="2" stroke-miterlimit="10" d="M195.269,457.569l0.275,1.368
	c0,0,6.576,33.893-21.122,20.604c0-0.224-14.037-8.419-16.844-20.604"/>
<path fill="none" stroke="#010101" stroke-width="2" stroke-miterlimit="10" d="M136.684,447.17l0.493,1.688
	c0,0,4.352,12.651,19.652,12.141l1.345,0.016"/>
<path fill="none" stroke="#010101" stroke-width="2" stroke-miterlimit="10" d="M194.282,446.003l1.261,0.696
	c0,0,53.085,35.388,69.508,34.059"/>
<path fill="none" stroke="#010101" stroke-width="2" stroke-miterlimit="10" d="M281.758,460.991l-1.126,1.822
	c0,0-7.159,14.289-11.65,18.774"/>
<ellipse fill="none" stroke="#010101" stroke-width="2" stroke-miterlimit="10" cx="265.24" cy="495.012" rx="10.9" ry="14.537"/>
<path fill="none" stroke="#010101" stroke-width="2" stroke-miterlimit="10" d="M187.415,482.628c0,0,3.382,12.749,12.085,21.388"/>
<path fill="none" stroke="#010101" stroke-width="2" stroke-miterlimit="10" d="M195.543,504.016c0,0,39.694,2.965,58.521-12.293"/>
<path fill="none" stroke="#010101" stroke-width="2" stroke-miterlimit="10" d="M194.162,497.373l-1.212,0.612
	c0,0-7.299,3.504-7.111,6.261c0,1.431,2.433,22.25,13.663,28.895c0.749,0.222,25.64-2.658,36.122-9.303l1.848-0.754"/>
<path fill="none" stroke="#010101" stroke-width="2" stroke-miterlimit="10" d="M255.217,500.733l-0.878,0.518
	c0,0-32.006,24.599-32.006,88.379c0.562,1.099,19.277,6.858,35.185-9.755c0-1.108-14.535-49.029,4.148-69.589l1.626-0.974"/>
<path fill="none" stroke="#010101" stroke-width="2" stroke-miterlimit="10" d="M199.5,533.141c0,0,5.588,5.761-12.085,31.677
	c0,0-2.624,1.081-2.935,2.492l-0.842,3.821c0,0,20.12,8.307,38.694,1.993"/>
<path fill="none" stroke="#010101" stroke-width="2" stroke-miterlimit="10" d="M275.86,491.723h1.323
	c0,0,41.067,1.328,71.948,32.892c0.561,0.997-5.053,31.231-27.513,40.203c-1.123-0.665-2.246-44.729-45.479-63.566"/>
<path fill="none" stroke="#010101" stroke-width="2" stroke-miterlimit="10" d="M285.146,492.58l0.819-0.857
	c28.083-14.021,44.72-63.573,44.72-63.573l18.484-0.602"/>
<path fill="none" stroke="#010101" stroke-width="2" stroke-miterlimit="10" d="M303.245,496.85l2.185-1.806
	c0,0,18.343-5.662,27.325-1.725c0.749-0.048,13.595-78.337,21.396-65.772c1.811,2.375,2.563,5.153,3.686,10.85"/>
<path fill="none" stroke="#010101" stroke-width="2" stroke-miterlimit="10" d="M344.818,440.573c0,0,44.832-2.013,63.551,3.078
	l1.359,0.289"/>
<path fill="none" stroke="#010101" stroke-width="2" stroke-miterlimit="10" d="M481.92,466.136
	c-6.176,28.908-24.144,16.615-25.827,16.283c-15.44-6.646-15.16-32.563-15.16-32.563c-0.021-1.207-1.122-0.221-1.122-0.221
	s-31.814,13.066-32.566-17.055c0.562-3.545,4.679-19.271,18.903-17.277l3.061,0.293"/>
<path fill="none" stroke="#010101" stroke-width="2" stroke-miterlimit="10" d="M435.972,421.281c0,0-17.03-8.194-4.772-23.368
	c0.937-0.886,8.798-8.196,14.411,8.86c0,0-0.28-15.838,8.612-14.62c8.889,1.219,6.832,6.313,8.327,11.851
	c0.186,0.997,0.186-10.522,9.639-7.531c0.843,0.664,6.644,3.986,1.31,15.173"/>
<path fill="none" stroke="#010101" stroke-width="2" stroke-miterlimit="10" d="M443.459,421.281c0,0,14.317-37.212,52.778,16.613
	c1.966,3.655,22.74,46.851-5.054,77.749c-2.807,2.326-16.563,11.63-27.511-5.313l-0.518-0.969"/>
<path fill="none" stroke="#010101" stroke-width="2" stroke-miterlimit="10" d="M466.199,508.002c0,0-19.651,10.964-20.213-10.963"
	/>
<path fill="none" stroke="#010101" stroke-width="2" stroke-miterlimit="10" d="M440.933,464.516c0,0-13.476,32.854-5.054,73.389"/>
<path fill="none" stroke="#010101" stroke-width="2" stroke-miterlimit="10" d="M454.127,510.743c0,0-2.242,46.765-14.316,49.755
	c-0.843-0.665-64.009-20.933-99.1,7.642c-2.246,2.991-59.188,35.884-57.527,122.936c-1.146,3.986-25.665,14.618-56.546,3.102
	c-1.685,0-33.875-13.955-48.287-7.53l-1.947,0.646"/>
<path fill="none" stroke="#010101" stroke-width="2" stroke-miterlimit="10" d="M256.208,700.378c0,0,2.059,21.044-34.623,6.868
	c-2.059-1.329-6.926-4.875-33.876,8.859c-1.311,0-14.037,0.444-15.347-7.862c-0.188-1.885-20.213,7.862-28.074-18.939
	c-0.562-1.552-4.491-24.587,15.721-23.922c2.62,0.441,16.283,2.658,16.657,26.58"/>
<path fill="none" stroke="#010101" stroke-width="2" stroke-miterlimit="10" d="M172.602,674.252l0.649-1.949
	c0,0,1.499-3.655,5.1-4.818c0.655,0-2.714-10.134,6.972-12.626c0.421-0.498-2.667-43.219,12.68-79.367"/>
<path fill="none" stroke="#010101" stroke-width="2" stroke-miterlimit="10" d="M185.323,654.858c0,0,8.222-1.22,22.616,6.313"/>
<path fill="none" stroke="#010101" stroke-width="2" stroke-miterlimit="10" d="M178.351,667.484c0,0,12.025-3.102,24.636,4.818"/>
<path fill="none" stroke="#010101" stroke-width="2" stroke-miterlimit="10" d="M143.675,681.057l-1.024,1.213
	c0,0-7.439,4.319-5.053,14.453"/>
<path fill="none" stroke="#010101" stroke-width="2" stroke-miterlimit="10" d="M138.581,699.378c0,0,0.842,8.974,13.616,5.651
	l1.53-0.217"/>
<path fill="none" stroke="#010101" stroke-width="2" stroke-miterlimit="10" d="M138.105,687.802l-2.192,1.695
	c0,0-10.667,13.188,5.615,16.269l2.528-0.364"/>
<path fill="none" stroke="#010101" stroke-width="2" stroke-miterlimit="10" d="M207.267,271.323c0,0,14.691,20.046,48.941,22.704"
	/>
<path fill="none" stroke="#010101" stroke-width="2" stroke-miterlimit="10" d="M247.084,294.027c0,0-2.386,12.293-13.054,22.261
	c-0.702,0.166-23.722-18.108-31.302-41.865"/>
<path fill="none" stroke="#010101" stroke-width="2" stroke-miterlimit="10" d="M223.931,307.495c0,0-15.491,14.775-5.923,31.166
	c0.021,0.665-22.438-22.815-27.492-40.092c-0.562-1.107-3.369,2.215-3.181,6.645c-0.935,0.886,0.562-30.567,29.009-39.428"/>
<ellipse fill="none" stroke="#010101" stroke-width="2" stroke-miterlimit="10" cx="243.903" cy="213.953" rx="5.381" ry="16.281"/>
<ellipse fill="none" stroke="#010101" stroke-width="2" stroke-miterlimit="10" cx="276.301" cy="196.067" rx="2.806" ry="8.583"/>
<g>
	<path fill="#010101" d="M123.561,296.187c0,0-0.649,0.767-1.602,1.817c-0.237,0.261-0.494,0.544-0.765,0.844
		c-0.276,0.291-0.539,0.625-0.846,0.931c-0.571,0.655-1.19,1.333-1.779,2.034c-1.199,1.383-2.343,2.809-3.2,3.932
		c-0.205,0.285-0.421,0.536-0.6,0.767c-0.163,0.238-0.325,0.44-0.456,0.61c-0.266,0.337-0.438,0.528-0.438,0.528
		s0.013-0.249,0.07-0.681c0.051-0.435,0.16-1.052,0.404-1.755c0.103-0.362,0.242-0.742,0.428-1.125
		c0.173-0.39,0.35-0.81,0.601-1.201c0.238-0.399,0.465-0.83,0.765-1.216c0.276-0.405,0.585-0.793,0.911-1.167
		c0.321-0.379,0.666-0.734,1.018-1.072c0.338-0.35,0.73-0.634,1.076-0.939c0.73-0.571,1.448-1.053,2.109-1.394
		C122.557,296.384,123.561,296.187,123.561,296.187z"/>
</g>
<g>
	<path fill="#010101" d="M122.936,296.587c0,0-0.325-0.003-0.878,0.031c-0.552,0.031-1.33,0.086-2.236,0.218
		c-0.455,0.05-0.937,0.164-1.444,0.247c-0.503,0.111-1.028,0.246-1.561,0.392c-0.532,0.16-1.073,0.336-1.603,0.564
		c-0.545,0.19-1.062,0.462-1.584,0.722c-0.535,0.235-1,0.6-1.509,0.871c-0.473,0.336-0.938,0.668-1.388,0.988
		c-0.417,0.366-0.825,0.723-1.225,1.054c-0.396,0.335-0.71,0.718-1.05,1.031c-0.321,0.329-0.649,0.612-0.882,0.91
		c-0.243,0.29-0.474,0.535-0.661,0.74c-0.38,0.408-0.618,0.638-0.618,0.638s0.087-0.307,0.275-0.84
		c0.097-0.265,0.21-0.591,0.364-0.957c0.13-0.38,0.354-0.764,0.605-1.183c0.257-0.414,0.49-0.907,0.856-1.337
		c0.358-0.436,0.724-0.918,1.157-1.365c0.469-0.408,0.925-0.876,1.455-1.269c0.554-0.356,1.092-0.771,1.702-1.057
		c0.607-0.291,1.21-0.593,1.85-0.77c0.62-0.235,1.266-0.335,1.878-0.457c0.613-0.115,1.221-0.137,1.787-0.156
		c0.569-0.003,1.104,0.016,1.593,0.089c0.489,0.04,0.931,0.152,1.317,0.235c0.386,0.096,0.716,0.2,0.983,0.299
		C122.654,296.421,122.936,296.587,122.936,296.587z"/>
</g>
<path fill="none" stroke="#010101" stroke-width="2" stroke-miterlimit="10" d="M433.62,498.612c0,0,6.975-1.587,12.636,1.824"/>
<line fill="none" stroke="#010101" stroke-width="2" stroke-miterlimit="10" x1="108.589" y1="270.791" x2="108.097" y2="268.952"/>
</svg>
