<?xml version="1.0" encoding="utf-8"?>
<!-- Generator: Adobe Illustrator 16.0.0, SVG Export Plug-In . SVG Version: 6.00 Build 0)  -->
<!DOCTYPE svg PUBLIC "-//W3C//DTD SVG 1.1//EN" "http://www.w3.org/Graphics/SVG/1.1/DTD/svg11.dtd">
<svg version="1.1" id="Layer_1" xmlns="http://www.w3.org/2000/svg" xmlns:xlink="http://www.w3.org/1999/xlink" x="0px" y="0px"
	 width="552px" height="859px" viewBox="0 0 552 859" enable-background="new 0 0 552 859" xml:space="preserve">
<rect fill="#FFFFFF" stroke="#000000" stroke-miterlimit="10" width="552" height="859"/>
<path fill="none" stroke="#010101" stroke-width="2" stroke-miterlimit="10" d="M256.646,200.683
	c12.146,5.708,15.703,25.289,7.942,43.731c-7.758,18.444-23.895,28.768-36.04,23.058c-12.146-5.709-15.702-25.288-7.942-43.731
	C228.364,205.297,244.5,194.974,256.646,200.683z"/>
<path fill="none" stroke="#010101" stroke-width="2" stroke-miterlimit="10" d="M324.652,229.867
	c12.146,5.709,15.702,25.289,7.942,43.731c-7.759,18.443-23.895,28.767-36.04,23.058s-15.703-25.288-7.944-43.731
	C296.37,234.481,312.506,224.158,324.652,229.867z"/>
<path fill="none" stroke="#010101" stroke-width="2" stroke-miterlimit="10" d="M252.392,206.833
	c8.835,3.992,11.067,19.423,4.986,34.465c-6.083,15.042-18.176,24.001-27.013,20.009c-8.836-3.991-11.069-19.423-4.986-34.465
	C231.461,211.8,243.556,202.841,252.392,206.833z"/>
<path fill="none" stroke="#010101" stroke-width="2" stroke-miterlimit="10" d="M321.923,236.771
	c8.56,3.868,10.565,19.197,4.482,34.239c-6.084,15.042-17.955,24.1-26.514,20.232c-8.56-3.868-10.567-19.197-4.482-34.24
	C301.493,241.962,313.363,232.903,321.923,236.771z"/>
<path fill="#010101" d="M249.338,227.622c4.138,2.015,5.1,9.136,2.149,15.907c-2.95,6.771-8.696,10.627-12.834,8.612
	c-4.138-2.015-5.101-9.136-2.149-15.908C239.454,229.462,245.2,225.607,249.338,227.622z"/>
<path fill="#FFFFFF" d="M247.942,237.91c1.585,1.116,1.469,4.245-0.261,6.99c-1.728,2.746-4.415,4.067-5.999,2.952
	c-1.585-1.115-1.469-4.245,0.26-6.989C243.672,238.117,246.357,236.795,247.942,237.91z"/>
<path fill="#010101" d="M319.314,258.751c4.137,2.015,5.1,9.136,2.149,15.906c-2.952,6.77-8.697,10.625-12.835,8.611
	c-4.138-2.015-5.1-9.137-2.149-15.907C309.432,260.591,315.178,256.737,319.314,258.751z"/>
<path fill="#FFFFFF" d="M317.977,271.461c1.584,1.115,1.468,4.244-0.262,6.988c-1.73,2.745-4.416,4.067-5.999,2.953
	c-1.583-1.115-1.468-4.244,0.262-6.989C313.707,271.668,316.393,270.347,317.977,271.461z"/>
<path fill="none" stroke="#010101" stroke-width="2" stroke-miterlimit="10" d="M265.095,243.202c0,0,13.382,2.871,22.512,12.37"/>
<path fill="none" stroke="#010101" stroke-width="2" stroke-miterlimit="10" d="M360.693,265.788
	c-5.877-2.39-26.709,4.212-26.709,4.212"/>
<path fill="none" stroke="#010101" stroke-width="2" stroke-miterlimit="10" d="M219.348,227.076c0,0-13.465-13.364-27.025-23.397"
	/>
<path fill="none" stroke="#010101" stroke-width="2" stroke-miterlimit="10" d="M197.16,95.226c0,0,49.816-75.964,139.558-29.382
	c19.229,11.466,61.266,47.299,57.197,114.663c10.849,6.451,30.283,17.602,24.409,53.591c-4.068,3.98-94.046-24.925-133.808-42.124
	c-16.031-6.451-144.852-57.333-124.512-81.698C166.785,103.109,176.688,92.359,197.16,95.226z"/>
<path fill="none" stroke="#010101" stroke-width="2" stroke-miterlimit="10" d="M214.208,76.546c0,0,72.397,51.679,178.259,73.162"
	/>
<path fill="none" stroke="#010101" stroke-width="2" stroke-miterlimit="10" d="M197.16,95.226c0,0,80.139,64.499,196.755,85.281"/>
<path fill="none" stroke="#010101" stroke-width="2" stroke-miterlimit="10" d="M175.476,137.867c0,0-18.183,23.291-8.691,42.64
	c4.746,2.15,11.956,10.012,8.691,18.623c0.801,6.46,14.396,17.18,43.872-35.836"/>
<path fill="none" stroke="#010101" stroke-width="2" stroke-miterlimit="10" d="M221.94,164.567c0,0,10.042,21.408,14.056,6.669"/>
<path fill="none" stroke="#010101" stroke-width="2" stroke-miterlimit="10" d="M265.095,184.029c0,0,18.165,19.052,19.421,28.369
	c3.97-1.792,2.274-20.595,13.123-7.79c7.118,6.357,25.313,17.409,56.049,12.778"/>
<path fill="none" stroke="#010101" stroke-width="2" stroke-miterlimit="10" d="M360.693,219.663c0,0-11.977,36.485-7.005,45.605"/>
<path fill="none" stroke="#010101" stroke-width="2" stroke-miterlimit="10" d="M389.063,228.316c0,0-26.335,28.594-28.369,37.472
	c0,0,0.346,0.841-1.24-0.341"/>
<path fill="none" stroke="#010101" stroke-width="2" stroke-miterlimit="10" d="M362.145,262.285c0,0,28.834,2.787,9.624,37.902
	c-7.912,10.272-8.137,12.184-22.374,14.811c-1.583,3.105-40.907,65.454-121.816,36.789c-11.752-5.255-72.143-28.504-69.747-117.688
	c-5.963-5.576-16.133-12.405-14.099-34.968c2.034-11.456,12.645-24.668,24.968-17.524"/>
<path fill="none" stroke="#010101" stroke-width="2" stroke-miterlimit="10" d="M164.042,191.794c0,0-16.241-3.038-14.037,12.813
	c1.017,8.865,4.577,11.374,9.662,15.852C160.174,215.443,162.653,191.256,164.042,191.794z"/>
<path fill="none" stroke="#010101" stroke-width="2" stroke-miterlimit="10" d="M360.693,272.478c0,0,16.27,0.955,8.586,20.782
	c-5.423,7.644-12.43,9.793-19.662,9.793C354.363,298.276,362.728,276.538,360.693,272.478z"/>
<g>
	<path fill="#010101" d="M249.053,283.846c0,0,0.235,0.479,0.674,1.288c0.436,0.811,1.085,1.95,1.923,3.256
		c0.843,1.303,1.901,2.761,3.186,4.139c1.302,1.346,2.835,2.646,4.611,3.35c0.428,0.217,0.891,0.32,1.337,0.478
		c0.464,0.074,0.917,0.223,1.387,0.229c0.927,0.109,1.862,0.043,2.764-0.092c0.897-0.166,1.767-0.4,2.578-0.697
		c0.414-0.124,0.784-0.337,1.167-0.485c0.385-0.147,0.745-0.321,1.082-0.508c0.343-0.178,0.672-0.349,0.985-0.511
		c0.306-0.181,0.595-0.353,0.867-0.514c0.548-0.322,1.03-0.604,1.405-0.869c0.77-0.504,1.229-0.784,1.229-0.784
		s-0.343,0.402-0.975,1.09c-0.31,0.352-0.71,0.752-1.205,1.179c-0.244,0.219-0.503,0.451-0.777,0.696
		c-0.296,0.22-0.607,0.452-0.932,0.693c-0.639,0.502-1.415,0.943-2.25,1.382c-0.433,0.192-0.866,0.422-1.337,0.599
		c-0.479,0.159-0.963,0.341-1.481,0.454c-0.522,0.093-1.045,0.248-1.6,0.268l-0.833,0.067l-0.847-0.043
		c-0.571-0.003-1.13-0.158-1.699-0.246c-0.547-0.172-1.12-0.295-1.639-0.544c-1.067-0.441-2.027-1.074-2.895-1.759
		c-0.886-0.673-1.592-1.496-2.264-2.276c-0.658-0.796-1.201-1.626-1.677-2.427c-0.478-0.8-0.87-1.586-1.193-2.325
		c-0.66-1.472-1.053-2.752-1.286-3.655C249.128,284.374,249.053,283.846,249.053,283.846z"/>
</g>
<ellipse fill="none" stroke="#010101" stroke-width="2" stroke-miterlimit="10" cx="247.777" cy="325.448" rx="13.016" ry="10.57"/>
<path fill="none" stroke="#010101" stroke-width="2" stroke-miterlimit="10" d="M425.485,417.313
	c20.399-10.856,40.463-12.256,44.813-3.126c4.349,9.13-8.665,25.332-29.065,36.189c-20.399,10.855-40.464,12.257-44.813,3.126
	C392.071,444.372,405.084,428.168,425.485,417.313z"/>
<path fill="none" stroke="#010101" stroke-width="2" stroke-miterlimit="10" d="M428.885,423.095
	c17.495-10.143,34.762-12.416,38.568-5.078c3.807,7.337-7.287,21.506-24.78,31.646c-17.494,10.143-34.762,12.417-38.569,5.078
	C400.298,447.404,411.392,433.234,428.885,423.095z"/>
<path fill="none" stroke="#010101" stroke-width="2" stroke-miterlimit="10" d="M470.272,414.213c0,0,5.003,4.276,8.054,19.656
	c-2.711,5.705-35.256,55.871-77.292,35.805c-8.814,6.808-19.662,13.259-19.662,13.259"/>
<path fill="none" stroke="#010101" stroke-width="2" stroke-miterlimit="10" d="M395.878,452.087c0,0,3.123,7.196-10.607,14.183"/>
<path fill="none" stroke="#010101" stroke-width="2" stroke-miterlimit="10" d="M338.654,480.396
	c0.509,5.374-0.335,12.927-0.335,12.927s-3.047,4.578,4.746,11.466c4.995,4.416,10.848,2.149,11.356-1.254
	c8.814,3.047,8.306-2.866,8.136-5.554c6.949,2.509,9.832-4.12,10.679-7.525c15.764,1.074,4.067-12.899,2.882-15.587
	c22.035-6.629,8.813-10.032,2.712-8.6c-7.967,2.149-14.746-2.687-14.746-2.687s-31.188-32.921-32.998-55.398
	c-5.423-17.7-15.988-48.8-30.142-54.509"/>
<path fill="none" stroke="#010101" stroke-width="2" stroke-miterlimit="10" d="M188.375,325.449l-17.296,26.337l17.297,10.033
	l-12.777,13.855l29.832,43.953l-56.274,136.402c0,0-51.528,1.434-69.157-37.982c9.493-15.766,63.467-131.146,63.467-131.146
	s-27.533-2.111-43.805,49.468c-12.882,0.697-28.928-6.231-32.544-12.442c1.808-8.121,22.769-106.337,109.695-113.128"/>
<path fill="none" stroke="#010101" stroke-width="2" stroke-miterlimit="10" d="M279.578,358.672v11.269l-21.263,7.166l8.589,18.634
	l-47.914,26.754l-4.519,144.762c0,0,31.613,9.092,70.046-11.221c1.37-12.669-3.604-115.385,3.631-128.764
	c0.453,10.511,26.951,56.196,52.545,52.973c8.476-3.942,22.205-11.646,22.883-16.662"/>
<path fill="none" stroke="#010101" stroke-width="2" stroke-miterlimit="10" d="M68.222,425.425c0,0-27.094,6.864-17.602,18.09
	c4.973,0.479,9.493-1.672,10.396-3.583c-2.034,3.583-17.176,19.827-8.813,25.083c2.938,0.238,11.926-6.928,16.019-15.05
	c-3.137,5.732-17.601,18.156-7.657,24.366c5.65,0,10.622-4.777,16.498-17.916c-1.129,4.3-11.977,17.915-2.711,20.543
	c5.65-0.716,16.723-16.658,18.079-25.767c3.39,5.939,24.607,19.897,6.315-14.791"/>
<line fill="none" stroke="#010101" stroke-width="2" stroke-miterlimit="10" x1="205.431" y1="419.627" x2="214.472" y2="345.484"/>
<line fill="none" stroke="#010101" stroke-width="2" stroke-miterlimit="10" x1="218.991" y1="422.495" x2="244.808" y2="356.695"/>
<path fill="none" stroke="#010101" stroke-width="2" stroke-miterlimit="10" d="M213.104,356.695c0,0,16.031,9.836,27.457,10.826"/>
<ellipse fill="none" stroke="#010101" stroke-width="2" stroke-miterlimit="10" cx="192.323" cy="433.245" rx="2.938" ry="3.821"/>
<ellipse fill="none" stroke="#010101" stroke-width="2" stroke-miterlimit="10" cx="183.169" cy="459.361" rx="3.051" ry="4.618"/>
<ellipse fill="none" stroke="#010101" stroke-width="2" stroke-miterlimit="10" cx="171.644" cy="482.573" rx="3.729" ry="4.18"/>
<ellipse fill="none" stroke="#010101" stroke-width="2" stroke-miterlimit="10" cx="160.91" cy="509.806" rx="3.842" ry="4.419"/>
<ellipse fill="none" stroke="#010101" stroke-width="2" stroke-miterlimit="10" cx="150.174" cy="535.484" rx="3.502" ry="4.3"/>
<ellipse fill="none" stroke="#010101" stroke-width="2" stroke-miterlimit="10" cx="225.687" cy="438.5" rx="5.001" ry="1.433"/>
<ellipse fill="none" stroke="#010101" stroke-width="2" stroke-miterlimit="10" cx="224.585" cy="465.123" rx="3.898" ry="1.146"/>
<ellipse fill="none" stroke="#010101" stroke-width="2" stroke-miterlimit="10" cx="224.585" cy="492.249" rx="3.898" ry="1.075"/>
<ellipse fill="none" stroke="#010101" stroke-width="2" stroke-miterlimit="10" cx="223.567" cy="518.899" rx="3.983" ry="1.031"/>
<ellipse fill="none" stroke="#010101" stroke-width="2" stroke-miterlimit="10" cx="222.169" cy="544.966" rx="3.602" ry="1.568"/>
<path fill="none" stroke="#010101" stroke-width="2" stroke-miterlimit="10" d="M167.915,510.561
	c-0.168,0.407,20.356,10.771,48.034,9.366"/>
<path fill="none" stroke="#010101" stroke-width="2" stroke-miterlimit="10" d="M160.034,529.664c0,0,23.443,15.385,55.211,12.754"
	/>
<path fill="none" stroke="#010101" stroke-width="2" stroke-miterlimit="10" d="M114.127,478.393c0,0,0.905,16.275,30.736,16.006
	c-1.808,8.36-8.814,43.534-28.25,35.266c-12.204-4.928-16.499-9.734-16.499-9.734s-4.746-1.883,1.808-16.933
	C108.25,489.142,114.127,478.393,114.127,478.393z"/>
<path fill="none" stroke="#010101" stroke-width="2" stroke-miterlimit="10" d="M235.037,507.236c0,0,31.187,5.794,36.838-1.85
	c0.903,5.973,1.357,30.813,1.131,34.397c-0.227,3.585-1.356,9.319-9.492,11.468c-6.78,0.957-16.272,0-16.272,0
	s-11.752-1.433-12.205-10.749c-0.226-8.121-0.904-30.635-0.677-31.592C234.586,507.956,235.037,507.236,235.037,507.236z"/>
<path fill="none" stroke="#010101" stroke-width="2" stroke-miterlimit="10" d="M120.747,551.676c0,0-17.919,70.524-12.043,92.501
	c-6.78,2.389-44.07,34.4-3.391,38.462c12.882,1.193,56.953,10.511,56.048-20.544c-3.39-7.405-5.875-9.079-5.875-9.079
	s12.655-71.903,29.944-94.12c7.119,9.676,27.798,22.934,30.51,91.016c0,3.582-14.916,28.665,8.814,32.248
	c21.696,3.225,58.308,7.166,60.681-10.749c0.339-10.75-7.119-18.274-18.645-26.158c-0.339-8.958-1.857-71.365-9.574-78.86"/>
<path fill="none" stroke="#010101" stroke-width="2" stroke-miterlimit="10" d="M215.134,652.771c0,0,33.35,1.619,51.657-7.519"/>
<path fill="none" stroke="#010101" stroke-width="2" stroke-miterlimit="10" d="M156.064,653.53c0,0-28.462-2.09-48.449-8.857"/>
<path fill="none" stroke="#010101" stroke-width="2" stroke-miterlimit="10" d="M396.966,586.846v21.141
	c0,0-39.663,13.616-42.375-8.241C358.998,587.562,374.932,587.562,396.966,586.846z"/>
<path fill="none" stroke="#010101" stroke-width="2" stroke-miterlimit="10" d="M406.459,586.846v21.499
	c0,0,70.851,17.198,77.631-3.226C486.123,595.086,489.174,574.662,406.459,586.846z"/>
<path fill="none" stroke="#010101" stroke-width="2" stroke-miterlimit="10" d="M343.743,639.161c1.015,0.065,0,25.799,0,25.799
	s-39.663,4.3-40.341-12.899C303.741,644.893,305.437,636.652,343.743,639.161z"/>
<path fill="none" stroke="#010101" stroke-width="2" stroke-miterlimit="10" d="M354.591,638.701v24.109
	c0,0,73.902,19.78,78.649-9.28c0-8.994-2.712-24.762-39.325-19.387C383.067,638.085,360.354,640.393,354.591,638.701z"/>
</svg>
