<?xml version="1.0" encoding="utf-8"?>
<!-- Generator: Adobe Illustrator 16.0.0, SVG Export Plug-In . SVG Version: 6.00 Build 0)  -->
<!DOCTYPE svg PUBLIC "-//W3C//DTD SVG 1.1//EN" "http://www.w3.org/Graphics/SVG/1.1/DTD/svg11.dtd">
<svg version="1.1" id="Layer_1" xmlns="http://www.w3.org/2000/svg" xmlns:xlink="http://www.w3.org/1999/xlink" x="0px" y="0px"
	 width="552px" height="859px" viewBox="0 0 552 859" enable-background="new 0 0 552 859" xml:space="preserve">
<rect fill="#FFFFFF" stroke="#000000" stroke-miterlimit="10" width="552" height="859"/>
<path fill="none" stroke="#010101" stroke-width="2" stroke-miterlimit="10" d="M180.642,209.446
	c10.03,0.448,17.678,13.432,17.083,29c-0.597,15.568-9.209,27.826-19.241,27.378c-10.03-0.447-17.678-13.431-17.083-29
	C161.997,221.257,170.611,208.998,180.642,209.446"/>
<path fill="none" stroke="#010101" stroke-width="2" stroke-miterlimit="10" d="M236.129,241.589
	c0.371-16.071,9.031-28.873,19.343-28.594c10.311,0.279,18.367,13.532,17.995,29.603c-0.373,16.071-9.031,28.873-19.342,28.594
	C243.814,270.914,235.757,257.659,236.129,241.589z"/>
<line fill="none" stroke="#010101" stroke-width="2" stroke-miterlimit="10" x1="186.286" y1="211.107" x2="190.829" y2="200.854"/>
<line fill="none" stroke="#010101" stroke-width="2" stroke-miterlimit="10" x1="190.829" y1="214.938" x2="197.787" y2="204.872"/>
<line fill="none" stroke="#010101" stroke-width="2" stroke-miterlimit="10" x1="169.999" y1="214.146" x2="164.306" y2="207.551"/>
<line fill="none" stroke="#010101" stroke-width="2" stroke-miterlimit="10" x1="166.538" y1="218.621" x2="159.349" y2="214.146"/>
<g>
	<path fill="#010101" d="M231.481,207.038c0,0,0.531-0.788,1.673-1.998c1.136-1.21,2.897-2.842,5.319-4.409
		c1.213-0.777,2.591-1.529,4.119-2.19c1.539-0.629,3.213-1.196,5.009-1.55c1.796-0.311,3.689-0.558,5.616-0.459
		c1.921,0.077,3.871,0.334,5.755,0.834l1.41,0.387l1.368,0.495c0.923,0.302,1.788,0.724,2.657,1.114
		c1.73,0.8,3.334,1.773,4.826,2.782c0.765,0.479,1.465,1.019,2.145,1.554c0.685,0.528,1.355,1.042,1.957,1.603
		c0.613,0.544,1.209,1.074,1.786,1.586c0.54,0.549,1.062,1.08,1.562,1.59c1.026,0.992,1.849,2.01,2.606,2.882
		c0.771,0.86,1.377,1.665,1.872,2.33c0.985,1.329,1.548,2.088,1.548,2.088s-0.672-0.664-1.847-1.825
		c-0.574-0.59-1.282-1.295-2.129-2.066c-0.843-0.774-1.757-1.681-2.839-2.574c-0.532-0.455-1.085-0.929-1.658-1.42
		c-0.594-0.461-1.208-0.939-1.84-1.429c-0.618-0.508-1.298-0.965-1.99-1.433c-0.693-0.467-1.375-0.981-2.129-1.406
		c-1.461-0.928-3.045-1.752-4.679-2.508c-0.826-0.357-1.648-0.749-2.516-1.018l-1.288-0.449l-1.319-0.345
		c-1.751-0.49-3.556-0.748-5.335-0.842c-1.783-0.102-3.541,0.022-5.229,0.261c-1.681,0.285-3.286,0.7-4.778,1.207
		c-1.477,0.549-2.851,1.148-4.082,1.791c-1.216,0.665-2.32,1.314-3.256,1.958c-0.933,0.647-1.739,1.233-2.371,1.755
		C232.141,206.357,231.481,207.038,231.481,207.038z"/>
</g>
<line fill="none" stroke="#010101" stroke-width="2" stroke-miterlimit="10" x1="247.264" y1="215.675" x2="240.818" y2="205.765"/>
<line fill="none" stroke="#010101" stroke-width="2" stroke-miterlimit="10" x1="252.007" y1="213.408" x2="248.337" y2="203.588"/>
<line fill="none" stroke="#010101" stroke-width="2" stroke-miterlimit="10" x1="255.452" y1="213.005" x2="256.021" y2="201.568"/>
<path fill="none" stroke="#010101" stroke-width="2" stroke-miterlimit="10" d="M259.091,213.664
	c0.058,0.019,3.211-8.346,3.211-8.346"/>
<line fill="none" stroke="#010101" stroke-width="2" stroke-miterlimit="10" x1="263.948" y1="216.485" x2="269.242" y2="207.997"/>
<line fill="none" stroke="#010101" stroke-width="2" stroke-miterlimit="10" x1="267.312" y1="220.165" x2="274.612" y2="213.005"/>
<line fill="none" stroke="#010101" stroke-width="2" stroke-miterlimit="10" x1="243.215" y1="219.593" x2="235.778" y2="212.24"/>
<path fill="#010101" d="M177.187,244.069c0.754-7.451,4.014-13.178,7.28-12.792c3.267,0.386,5.302,6.74,4.548,14.191
	c-0.755,7.451-4.015,13.179-7.281,12.792C178.467,257.874,176.432,251.521,177.187,244.069z"/>
<path fill="#FFFFFF" stroke="#010101" stroke-width="2" stroke-miterlimit="10" d="M181.016,244.364
	c0.324-2.86,1.703-5.031,3.079-4.848c1.376,0.182,2.229,2.648,1.904,5.508c-0.324,2.86-1.704,5.031-3.079,4.849
	C181.544,249.69,180.692,247.225,181.016,244.364z"/>
<path fill="#030303" d="M252.143,248.138c0.646-7.76,3.803-13.795,7.053-13.48c3.251,0.315,5.363,6.862,4.719,14.622
	s-3.802,13.795-7.053,13.48C253.611,262.444,251.499,255.898,252.143,248.138z"/>
<path fill="#FFFFFF" stroke="#010101" stroke-width="2" stroke-miterlimit="10" d="M256.694,249.347
	c0.181-3.006,1.42-5.366,2.767-5.271c1.346,0.095,2.29,2.609,2.109,5.615c-0.182,3.006-1.419,5.366-2.766,5.271
	C257.457,254.866,256.513,252.353,256.694,249.347z"/>
<line fill="none" stroke="#010101" stroke-width="2" stroke-miterlimit="10" x1="169.999" y1="203.588" x2="173.478" y2="210.719"/>
<line fill="none" stroke="#010101" stroke-width="2" stroke-miterlimit="10" x1="177.016" y1="200.854" x2="178.27" y2="208.498"/>
<line fill="none" stroke="#010101" stroke-width="2" stroke-miterlimit="10" x1="183.088" y1="200.854" x2="183.088" y2="209.435"/>
<g>
	<path fill="#010101" d="M202.506,204.872c0,0-0.649-0.727-1.91-1.85c-1.255-1.126-3.129-2.648-5.577-4.118
		c-1.235-0.711-2.597-1.434-4.102-2.026c-1.508-0.577-3.135-1.075-4.855-1.355c-1.721-0.26-3.52-0.353-5.332-0.174
		c-1.803,0.202-3.634,0.555-5.365,1.24c-1.763,0.587-3.424,1.469-5.019,2.396c-0.784,0.49-1.533,1.027-2.299,1.517
		c-0.736,0.537-1.436,1.108-2.141,1.648c-0.701,0.546-1.318,1.175-1.976,1.727c-0.661,0.55-1.247,1.157-1.827,1.739
		c-1.183,1.141-2.219,2.305-3.186,3.375c-0.496,0.525-0.942,1.052-1.353,1.567c-0.422,0.506-0.822,0.987-1.198,1.439
		c-0.767,0.894-1.38,1.718-1.897,2.388c-1.049,1.336-1.648,2.099-1.648,2.099s0.479-0.845,1.319-2.323
		c0.43-0.734,0.929-1.644,1.608-2.616c0.677-0.974,1.354-2.141,2.278-3.279c0.446-0.583,0.91-1.189,1.391-1.818
		c0.475-0.634,1.053-1.218,1.602-1.859c1.089-1.289,2.379-2.53,3.744-3.779c0.714-0.591,1.424-1.214,2.176-1.805
		c0.783-0.554,1.56-1.139,2.39-1.662c1.684-1.009,3.45-1.977,5.36-2.636c1.885-0.716,3.897-1.087,5.875-1.281
		c1.991-0.186,3.961,0.031,5.814,0.369c1.86,0.355,3.57,1.013,5.128,1.718c1.563,0.71,2.923,1.588,4.137,2.434
		c2.411,1.728,4.124,3.502,5.234,4.797C201.991,204.044,202.506,204.872,202.506,204.872z"/>
</g>
<path fill="none" stroke="#010101" stroke-width="2" stroke-miterlimit="10" d="M93.991,167.583c0,0-3.305,36.34-1.652,46.563
	c0,0,12.889,2.604,11.567,17.128c4.958,5.238,18.839,1.018,21.813-16.336c2.975-17.711,11.237-44.498,14.873-31.64
	c3.966,4.286,10.577,9.643,12.229,0c1.652-9.643,21.831-13.214,41.488,0.357c9.74,10,24.944,19.286,19.655,2.143
	c3.636,0.714,13.221,2.921,17.517,14.683c4.297-3.968,10.082-4.326,8.015-12.897c5.206,0.714,35.612,1.786,43.213-10.714
	c-0.661,14.286,0.331,51.429,16.856,48.572c3.305-3.571,16.525-28.929,9.254-57.857"/>
<path fill="none" stroke="#010101" stroke-width="2" stroke-miterlimit="10" d="M96.232,215.675c0,0-26.589-7.522-21.08,26.42
	c2.865,7.988,4.407,18.464,25.78,22.75c0.661,8.096,12.275,66.905,70.805,82.619c7.415,2.857,69.108,22.857,110.972-24.286
	c7.052-8.572,18.179-27.739,22.805-46.667c3.306-1.429,16.635-4.31,18.178-34.417c0-5.346-5.51-27.012-24.126-16.655"/>
<path fill="none" stroke="#010101" stroke-width="2" stroke-miterlimit="10" d="M302.759,229.845l1.545,32.926
	c0,0,12.628-3.398,11.897-20.677C314.88,236.751,312.674,227.941,302.759,229.845z"/>
<path fill="none" stroke="#010101" stroke-width="2" stroke-miterlimit="10" d="M94.322,228.179c0,0-2.204,18.312,3.305,26.775
	c-7.932-1.538-14.542-6.776-14.542-18.442C84.627,230.56,88.594,222.227,94.322,228.179z"/>
<g>
	<path fill="#010101" d="M202.506,280.441c0,0,1.54,1.473,3.897,3.529c1.185,1.021,2.589,2.174,4.148,3.299
		c0.771,0.576,1.615,1.089,2.458,1.616c0.857,0.498,1.741,0.98,2.66,1.333c0.907,0.375,1.838,0.687,2.764,0.803
		c0.464,0.093,0.917,0.078,1.372,0.118c0.442-0.045,0.9-0.013,1.317-0.137c0.213-0.046,0.425-0.093,0.634-0.139
		c0.199-0.079,0.399-0.152,0.601-0.22c0.415-0.108,0.757-0.367,1.132-0.539c0.358-0.206,0.667-0.476,1-0.692
		c0.311-0.248,0.588-0.523,0.872-0.771c0.288-0.244,0.495-0.55,0.738-0.799c0.239-0.255,0.464-0.501,0.641-0.762
		c0.359-0.513,0.737-0.932,0.963-1.33c0.498-0.771,0.804-1.213,0.804-1.213s-0.149,0.505-0.449,1.395
		c-0.132,0.453-0.394,0.958-0.67,1.557c-0.274,0.599-0.681,1.235-1.161,1.907c-0.265,0.319-0.526,0.669-0.833,1.003
		c-0.337,0.306-0.671,0.645-1.064,0.94c-0.798,0.563-1.721,1.141-2.806,1.378c-1.061,0.283-2.223,0.388-3.346,0.218
		c-1.134-0.123-2.226-0.459-3.267-0.868c-1.038-0.427-1.995-0.977-2.915-1.54c-0.908-0.578-1.744-1.223-2.521-1.87
		c-0.791-0.634-1.483-1.322-2.137-1.971c-0.653-0.649-1.23-1.3-1.747-1.912C203.517,282.329,202.506,280.441,202.506,280.441z"/>
</g>
<path fill="none" stroke="#010101" stroke-width="2" stroke-miterlimit="10" d="M186.06,315.441c0,0,38.978,5.357,53.436-1.429
	c-1.074,8.572-3.777,18.929-26.717,22.857C207.354,337.227,187.24,334.37,186.06,315.441z"/>
<path fill="none" stroke="#010101" stroke-width="2" stroke-miterlimit="10" d="M92.695,184.618c0,0-34.508-2.39-46.627-8.582
	c-4.407-3.096-9.254-5.953,5.949-7.143c14.763-1.19,159.303-5.953,271.674-1.31c8.151,1.071,14.221,0.924,14.221,0.924"/>
<path fill="none" stroke="#010101" stroke-width="2" stroke-miterlimit="10" d="M338.514,179.027
	c-4.407,3.571-27.552,5.82-27.553,5.59"/>
<path fill="none" stroke="#010101" stroke-width="2" stroke-miterlimit="10" d="M42.261,170.888c0,0,8.655-23.423,55.366-28.662
	c20.713-2.381,188.793-5.716,240.352,8.57"/>
<path fill="none" stroke="#010101" stroke-width="2" stroke-miterlimit="10" d="M94.559,142.606c0,0,22.051-69.905,106.863-72.762
	c13.423,0,69.355,3.683,103.745,74.938"/>
<path fill="none" stroke="#010101" stroke-width="2" stroke-miterlimit="10" d="M102.138,126.521c0,0,123.21-20.467,192.874,0"/>
<path fill="none" stroke="#010101" stroke-width="2" stroke-miterlimit="10" d="M351.946,160.965c0,0,6.997,7.869,7.439,9.923
	c-3.746,3.244-6.603,5.164-6.603,5.164"/>
<line fill="none" stroke="#010101" stroke-width="2" stroke-miterlimit="10" x1="351.896" y1="169.607" x2="359.386" y2="170.888"/>
<path fill="none" stroke="#010101" stroke-width="2" stroke-miterlimit="10" d="M365.555,197.36c0,0,18.067-125.135,22.916-136.563
	c4.846-7.143,10.576-9.524,10.576-9.524l2.203,10.953L379.655,205.98c0,0,11.9,9.607,21.595,6.26
	c1.321-3.822,20.711-136.205,20.711-136.205l12.34-17.619l4.846,19.523c0,0-22.913,134.526-22.913,137.025
	c5.728,1.072,16.303,6.969,20.27-0.028c2.204-6.52,24.238-136.045,24.238-136.045s11.456-32.382,13.661,1.428
	c-0.442,12.382-21.151,134.617-21.151,134.617s24.234-1.697,32.166-59.584c7.933-48.365,8.376-63.602,8.376-63.602l13.219-17.619
	c0,0,3.086,11.904,2.645,23.81c-0.442,11.906-1.762,110.478-43.627,129.525c-12.341,5.714-43.626,5.159-53.762,5.914
	c-10.136,0.754-66.982-10.675-72.712-44.961c-3.525-25.238-2.643-63.333,10.797-125.715c7.27-13.336,16.967-27.622,14.322,7.14
	C361.148,96.036,337.354,189.161,365.555,197.36z"/>
<line fill="none" stroke="#010101" stroke-width="2" stroke-miterlimit="10" x1="396.068" y1="231.177" x2="365.665" y2="429.371"/>
<line fill="none" stroke="#010101" stroke-width="2" stroke-miterlimit="10" x1="412.268" y1="233.378" x2="380.865" y2="436.99"/>
<path fill="none" stroke="#010101" stroke-width="2" stroke-miterlimit="10" d="M358.064,476.514l-34.373,208.572
	c0,0,4.628,17.144,13.882,5.715c1.321-8.571,34.704-209.962,34.704-209.962"/>
<path fill="none" stroke="#010101" stroke-width="2" stroke-miterlimit="10" d="M364.233,479.133c0,0-19.39-8.572-11.457-14.762
	c6.609-3.096,4.627-3.096,6.83-1.667c-2.423-3.333-10.796-12.144,0.661-13.572c-3.745-3.809-7.49-13.331,2.204-10.237
	c-2.426-4.048-8.373-17.618,12.56-4.285c9.031,6.666,16.296,13.094,5.834,14.762c3.197,2.618,5.616,9.761,0,11.904
	c0.555,2.143,2.536,11.904-2.971,10.714C380.759,476.275,385.166,484.369,364.233,479.133z"/>
<path fill="none" stroke="#010101" stroke-width="2" stroke-miterlimit="10" d="M321.141,390.492l1.01,1.735
	c0,0,35.475,40.715,39.44,26.429c2.204-5.239,6.398-7.232,6.855-8.81"/>
<path fill="none" stroke="#010101" stroke-width="2" stroke-miterlimit="10" d="M303.643,422.942c0,0,45.101,34.288,47.229,44.525"
	/>
<path fill="none" stroke="#010101" stroke-width="2" stroke-miterlimit="10" d="M266.249,337.86c0,0,30.011,17.219,47.198,32.936
	c7.932,11.789,14.827,9.646,2.785,28.217c-7.743,13.929-13.588,33.578-21.736,22.682c-8.15-8.396-21.04-23.396-22.361-4.824
	c-1.322,18.572-10.117,99.287-5.885,123.929c-6.013-1.071-14.937,0-14.937,0"/>
<path fill="none" stroke="#010101" stroke-width="2" stroke-miterlimit="10" d="M151.534,339.526c0,0-95.772,48.891-67.128,75.559
	c12.339,4.763,37.899,25.714,48.475,0c5.288,9.524,5.288,19.442,5.288,24.245l0.002,2.793"/>
<path fill="none" stroke="#010101" stroke-width="2" stroke-miterlimit="10" d="M141.253,480.839c0,0,1.322,48.532-3.305,59.961
	c4.627,3.571,15.644,3.096,15.644,3.096"/>
<path fill="none" stroke="#010101" stroke-width="2" stroke-miterlimit="10" d="M119.522,427.423c0,0-1.9,22.404,35.281,11.907
	c4.297-4.245,31.233-29.443,11.899,2.799c6.114-0.437,26.11,0.813,26.936,6.349c-0.166,3.215-6.61,5.715-25.78,4.822
	c3.636,1.606,9.089,6.785-0.661,9.821c3.801,0.356,6.94,8.393-5.123,9.107c1.982,1.071,7.932,9.185-7.106,8.61
	c-6.941-0.218-95.449-6.758-71.769-66.971"/>
<path fill="none" stroke="#010101" stroke-width="2" stroke-miterlimit="10" d="M186.06,351.452c0,0,14.4,32.425,36.796,2.077"/>
<path fill="none" stroke="#010101" stroke-width="2" stroke-miterlimit="10" d="M164.819,345.329c0,0-12.328,63.961-10.015,94.001"
	/>
<path fill="none" stroke="#010101" stroke-width="2" stroke-miterlimit="10" d="M178.535,349.635c0,0-10.084,35.441-9.61,77.827"/>
<path fill="none" stroke="#010101" stroke-width="2" stroke-miterlimit="10" d="M229.879,352.557c0,0,11.848,99.195,6.559,172.053"
	/>
<path fill="none" stroke="#010101" stroke-width="2" stroke-miterlimit="10" d="M242.065,349.635c0,0,15.994,85.202,4.443,172.821"
	/>
<ellipse fill="none" stroke="#010101" stroke-width="2" stroke-miterlimit="10" cx="242.828" cy="535.801" rx="10.355" ry="14.286"/>
<ellipse fill="none" stroke="#010101" stroke-width="2" stroke-miterlimit="10" cx="163.288" cy="542.944" rx="9.694" ry="13.571"/>
<path fill="none" stroke="#010101" stroke-width="2" stroke-miterlimit="10" d="M172.982,542.944c0,0,50.75,1.267,59.747-4.01"/>
<path fill="none" stroke="#010101" stroke-width="2" stroke-miterlimit="10" d="M169.998,469.131c0,0-0.474,57.217,0.042,64.087"/>
<path fill="none" stroke="#010101" stroke-width="2" stroke-miterlimit="10" d="M157.72,480.839c0,0-0.06,47.764,0,51.006"/>
<ellipse fill="none" stroke="#010101" stroke-width="2" stroke-miterlimit="10" cx="205.316" cy="386.275" rx="3.91" ry="4.882"/>
<ellipse fill="none" stroke="#010101" stroke-width="2" stroke-miterlimit="10" cx="204.902" cy="420.71" rx="4.325" ry="5.269"/>
<ellipse fill="none" stroke="#010101" stroke-width="2" stroke-miterlimit="10" cx="203.168" cy="454.728" rx="4.296" ry="4.881"/>
<ellipse fill="none" stroke="#010101" stroke-width="2" stroke-miterlimit="10" cx="201.983" cy="488.032" rx="4.05" ry="3.84"/>
<ellipse fill="none" stroke="#010101" stroke-width="2" stroke-miterlimit="10" cx="201.983" cy="522.943" rx="4.05" ry="4.464"/>
<path fill="none" stroke="#010101" stroke-width="2" stroke-miterlimit="10" d="M139.771,541.874c0,0-19.229,74.165-14.822,113.212
	c-5.729,2.381-46.711,30.477-6.61,36.19c25.558,1.904,66.826,12.38,51.7-25.238"/>
<path fill="none" stroke="#010101" stroke-width="2" stroke-miterlimit="10" d="M123.522,655.805c0,0,43.454,15.947,49.762,6.9
	c0.58-8.096,4.381-61.905,28.7-94.286c8.016,9.047,23.538,17.459,27.896,97.063c-0.932,5.794-17.238,30.796,23.305,29.247
	c31.728-1.071,70.507,0.831,29.525-38.691c0.441-10.477,5.245-59.806-19.835-115.619"/>
<path fill="none" stroke="#010101" stroke-width="2" stroke-miterlimit="10" d="M229.879,665.482c0,0,44.455-0.875,52.83-9.444"/>
</svg>
