<?xml version="1.0" encoding="utf-8"?>
<!-- Generator: Adobe Illustrator 16.0.0, SVG Export Plug-In . SVG Version: 6.00 Build 0)  -->
<!DOCTYPE svg PUBLIC "-//W3C//DTD SVG 1.1//EN" "http://www.w3.org/Graphics/SVG/1.1/DTD/svg11.dtd">
<svg version="1.1" id="Layer_1" xmlns="http://www.w3.org/2000/svg" xmlns:xlink="http://www.w3.org/1999/xlink" x="0px" y="0px"
	 width="552px" height="859px" viewBox="0 0 552 859" enable-background="new 0 0 552 859" xml:space="preserve">
<rect x="0" fill="#FFFFFF" stroke="#000000" stroke-miterlimit="10" width="552" height="859"/>
<path fill="none" stroke="#000000" stroke-width="2" stroke-miterlimit="10" d="M35,92.376c0,0,144.62-99.98,291.691,55.411
	c-17.159,10.841-45.348,33.728-45.348,33.728L80.347,157.424L35,92.376z"/>
<polyline fill="none" stroke="#000000" stroke-width="2" stroke-miterlimit="10" points="80.347,157.424 74.219,211.027 
	275.829,236.926 283.796,181.515 284.461,179.01 "/>
<path fill="none" stroke="#000000" stroke-width="2" stroke-miterlimit="10" d="M74.219,211.027c0,0-110.287,36.831,122.26,15.705"
	/>
<path fill="none" stroke="#000000" stroke-width="2" stroke-miterlimit="10" d="M74.219,233.035c0,0-2.451,20.153,7.354,31.596
	c4.902-5.42,15.237-20.478,40.709-19.273c-1.49,4.216-4.554,6.625-4.554,11.444c6.741-4.818,15.933-14.455,44.122-16.864
	c-1.226,3.614-7.967,11.443-8.579,16.864c4.902-3.012,13.481-6.902,35.542-7.969c9.805-2.873,16.834-5.65,27.576-11.907
	c0.613,8.432-2.451,16.262,6.128,32.523c4.902,9.637,15.32,22.887,18.384,34.33c5.516-7.227,12.869-20.478,25.125-17.466
	c3.064-6.023,11.644-21.08,9.805-49.388"/>
<path fill="none" stroke="#000000" stroke-width="2" stroke-miterlimit="10" d="M82.729,263.307c0,0-2.792,26.218,9.465,50.712
	c0,8.432-6.537,48.986,32.273,65.851"/>
<path fill="none" stroke="#000000" stroke-width="2" stroke-miterlimit="10" d="M94.237,285.912c0,0,6.945-17.667,21.652-1.605
	C110.579,286.714,97.913,288.722,94.237,285.912z"/>
<path fill="none" stroke="#000000" stroke-width="2" stroke-miterlimit="10" d="M158.377,282.422c0,0,9.396-16.339,23.286,0
	C180.029,285.912,168.59,286.962,158.377,282.422z"/>
<g>
	<path d="M264.593,299.163c-0.702-0.243-1.426-0.399-2.146-0.525c-0.358-0.071-0.721-0.108-1.082-0.142
		c-0.358-0.053-0.721-0.045-1.078-0.062c-0.358-0.03-0.714,0.03-1.067,0.041c-0.355,0.003-0.697,0.104-1.042,0.147
		c-0.349,0.035-0.672,0.169-1.002,0.264c-0.336,0.08-0.641,0.237-0.942,0.392l-0.455,0.222c-0.146,0.083-0.277,0.192-0.417,0.285
		c-0.262,0.211-0.577,0.345-0.794,0.612l-0.708,0.713c-0.205,0.268-0.388,0.557-0.584,0.83l-0.294,0.411l-0.229,0.462l-0.461,0.918
		c-0.143,0.312-0.229,0.658-0.347,0.984l-0.333,0.989l0.021-0.088c-0.225,1.377-0.174,2.899,0.027,4.366
		c0.218,1.462,0.519,2.952,1.1,4.23c0.148,0.311,0.306,0.614,0.485,0.864c0.173,0.267,0.375,0.444,0.532,0.566
		c0.17,0.117,0.232,0.113,0.387,0.087c0.15-0.026,0.38-0.164,0.598-0.376c0.222-0.204,0.435-0.475,0.637-0.757
		c0.2-0.289,0.388-0.596,0.569-0.919c0.369-0.638,0.685-1.329,0.992-2.025l-0.042,0.345c-0.074-0.92-0.056-1.839-0.02-2.719
		c0.032-0.881,0.056-1.72-0.188-2.439c-0.114-0.365-0.326-0.692-0.595-0.993c-0.15-0.137-0.274-0.302-0.449-0.423
		c-0.168-0.125-0.321-0.274-0.506-0.386c-0.355-0.244-0.733-0.46-1.124-0.665c-0.383-0.219-0.791-0.392-1.188-0.592
		c0.428,0.114,0.867,0.203,1.293,0.341c0.431,0.126,0.851,0.289,1.268,0.478c0.212,0.084,0.408,0.214,0.614,0.321
		c0.21,0.102,0.386,0.272,0.582,0.408c0.369,0.308,0.708,0.694,0.929,1.15c0.47,0.918,0.499,1.899,0.576,2.772
		c0.069,0.888,0.139,1.739,0.264,2.576l0.023,0.156l-0.066,0.189c-0.265,0.758-0.539,1.517-0.896,2.265
		c-0.168,0.377-0.374,0.745-0.601,1.11c-0.235,0.364-0.486,0.727-0.823,1.072c-0.327,0.34-0.744,0.69-1.348,0.877
		c-0.586,0.205-1.376,0.093-1.859-0.229c-0.498-0.301-0.86-0.687-1.125-1.067c-0.281-0.382-0.489-0.772-0.683-1.165
		c-0.72-1.571-1.107-3.17-1.303-4.8c-0.184-1.629-0.254-3.271,0.08-4.977l0.013-0.067l0.008-0.021l0.425-1.096
		c0.15-0.362,0.266-0.734,0.447-1.085l0.583-1.039l0.293-0.517l0.375-0.474c0.258-0.31,0.503-0.627,0.773-0.923l0.921-0.794
		c0.286-0.287,0.68-0.441,1.015-0.662c0.176-0.099,0.344-0.212,0.526-0.297l0.568-0.208c0.376-0.142,0.751-0.279,1.147-0.333
		c0.391-0.069,0.774-0.174,1.168-0.173c0.392-0.011,0.781-0.071,1.167-0.02c0.385,0.04,0.772,0.033,1.148,0.117
		c0.376,0.072,0.756,0.114,1.12,0.227c0.367,0.098,0.73,0.199,1.083,0.333C263.269,298.464,263.952,298.787,264.593,299.163z"/>
</g>
<path fill="none" stroke="#000000" stroke-width="2" stroke-miterlimit="10" d="M266.025,286.313c0,0,12.459,6.625,2.858,32.725
	c-3.472,5.622-8.169,16.061-19.199,8.833c-0.613,5.622-0.818,36.74-38.504,47.581c-15.32,4.818-23.593,8.432-37.993,17.166
	c-5.209,3.011-16.546,4.216-22.061,0l-1.656-2.339"/>
<g>
	<path d="M131.414,346.542c0,0,0.299,0.32,0.88,0.802c0.303,0.227,0.656,0.516,1.107,0.785c0.429,0.297,0.967,0.545,1.523,0.853
		c0.587,0.254,1.21,0.549,1.917,0.741c0.683,0.257,1.454,0.349,2.22,0.54c0.79,0.076,1.597,0.228,2.432,0.218
		c0.833,0.013,1.68,0.039,2.524-0.082l1.268-0.106c0.417-0.079,0.832-0.157,1.244-0.235c0.413-0.076,0.823-0.15,1.228-0.224
		c0.401-0.095,0.791-0.215,1.179-0.319c0.765-0.243,1.542-0.362,2.229-0.642c0.698-0.248,1.358-0.482,1.967-0.698
		c0.617-0.202,1.153-0.458,1.643-0.655c0.487-0.205,0.913-0.383,1.263-0.53c0.708-0.284,1.113-0.446,1.113-0.446
		s-0.373,0.225-1.024,0.619c-0.33,0.192-0.731,0.426-1.191,0.693c-0.462,0.264-0.971,0.594-1.582,0.836
		c-0.601,0.268-1.25,0.559-1.938,0.866c-0.677,0.339-1.456,0.535-2.236,0.803c-0.395,0.123-0.791,0.263-1.201,0.377
		c-0.417,0.088-0.839,0.178-1.265,0.268c-0.427,0.086-0.857,0.173-1.29,0.26l-1.324,0.129c-0.883,0.113-1.774,0.076-2.651,0.05
		c-0.439,0.009-0.871-0.053-1.296-0.124c-0.425-0.067-0.847-0.118-1.257-0.196c-0.809-0.22-1.6-0.395-2.298-0.719
		c-0.721-0.259-1.352-0.619-1.938-0.931c-0.563-0.355-1.076-0.684-1.477-1.047c-0.423-0.333-0.746-0.675-1.02-0.942
		C131.642,346.916,131.414,346.542,131.414,346.542z"/>
</g>
<g>
	<path d="M189.425,326.064c0,0,0.837,0.309,2.228,1.018c1.374,0.731,3.348,1.802,5.47,3.457c2.126,1.634,4.464,3.79,6.434,6.555
		c0.947,1.403,1.848,2.916,2.541,4.564c0.665,1.652,1.247,3.391,1.5,5.194c0.183,0.893,0.184,1.806,0.259,2.707
		c0.011,0.902-0.011,1.804-0.068,2.692c-0.169,1.775-0.475,3.505-0.938,5.13c-0.264,0.802-0.432,1.623-0.762,2.366
		c-0.308,0.751-0.593,1.492-0.9,2.199c-0.688,1.381-1.301,2.702-2.017,3.84c-0.345,0.575-0.65,1.141-0.986,1.651
		c-0.348,0.501-0.678,0.978-0.988,1.424c-0.31,0.446-0.6,0.864-0.868,1.25c-0.29,0.37-0.557,0.709-0.797,1.017
		c-0.972,1.217-1.527,1.912-1.527,1.912s0.498-0.737,1.37-2.026c0.22-0.32,0.463-0.674,0.728-1.06
		c0.242-0.4,0.503-0.833,0.783-1.296c0.279-0.462,0.576-0.954,0.889-1.472c0.3-0.525,0.589-1.092,0.905-1.674
		c0.664-1.15,1.216-2.476,1.839-3.855c0.535-1.416,1.082-2.911,1.495-4.503c0.431-1.585,0.703-3.262,0.845-4.973
		c0.044-0.855,0.054-1.722,0.033-2.587c-0.084-0.862-0.096-1.735-0.28-2.587c-0.218-1.727-0.755-3.396-1.372-4.991
		c-0.645-1.591-1.495-3.06-2.394-4.43c-0.953-1.333-1.931-2.589-2.967-3.69c-1.042-1.093-2.078-2.085-3.105-2.92
		c-2.031-1.699-3.884-2.926-5.214-3.726C190.227,326.454,189.425,326.064,189.425,326.064z"/>
</g>
<path fill="none" stroke="#000000" stroke-width="2" stroke-miterlimit="10" d="M161.427,318.5c-2.261,0.165-6.114-3.88-6.114-3.88
	l-2.043-2.208c0,0,16.341-26.099,29.414-1.003"/>
<path fill="none" stroke="#000000" stroke-width="2" stroke-miterlimit="10" d="M117.375,319.302l4.03-2.624l3.064-2.861
	c0,0-12.665-26.902-30.232-2.409"/>
<ellipse fill="none" stroke="#000000" stroke-width="2" stroke-miterlimit="10" cx="167.364" cy="311.36" rx="8.933" ry="9.565"/>
<ellipse fill="none" stroke="#000000" stroke-width="2" stroke-miterlimit="10" cx="111.404" cy="311.819" rx="8.784" ry="10.208"/>
<ellipse fill="none" stroke="#000000" stroke-width="2" stroke-miterlimit="10" cx="113.646" cy="310.29" rx="2.243" ry="2.725"/>
<ellipse fill="none" stroke="#000000" stroke-width="2" stroke-miterlimit="10" cx="164.198" cy="309.578" rx="1.94" ry="2.24"/>
<path fill="none" stroke="#000000" stroke-width="2" stroke-miterlimit="10" d="M147.602,368.676c0,0,4.29-9.938,10.57,2.71
	c0.46,2.861,0.307,6.425-2.757,8.483"/>
<path fill="none" stroke="#000000" stroke-width="2" stroke-miterlimit="10" d="M147.602,381.324l9.549-4.065v-1.205l-1.584-8.852
	l-24.97,7.496c0,0-7.047,2.861-7.047,8.131"/>
<path fill="none" stroke="#000000" stroke-width="2" stroke-miterlimit="10" d="M130.947,374.593l5.777,0.423
	c0,0,14.401,0.435,12.716,21.214c-1.992,6.173-5.516,17.165-22.674,9.034"/>
<g>
	<path d="M163.534,382.83c0,0-0.088,0.646-0.614,1.459c-0.256,0.407-0.613,0.853-1.075,1.249c-0.226,0.204-0.475,0.397-0.747,0.568
		c-0.263,0.183-0.563,0.314-0.846,0.473c-0.302,0.12-0.606,0.235-0.907,0.335c-0.307,0.084-0.614,0.148-0.909,0.204
		c-0.597,0.081-1.154,0.109-1.629,0.06c-0.474-0.006-0.86-0.122-1.128-0.174c-0.268-0.063-0.417-0.108-0.417-0.108
		s0.156-0.039,0.424-0.09c0.267-0.06,0.646-0.09,1.086-0.2c0.219-0.045,0.456-0.094,0.707-0.146
		c0.246-0.069,0.501-0.144,0.769-0.202c0.263-0.076,0.522-0.188,0.796-0.261c0.266-0.1,0.53-0.215,0.793-0.327
		c0.253-0.133,0.524-0.235,0.761-0.389c0.24-0.147,0.49-0.273,0.707-0.436c0.452-0.298,0.845-0.625,1.177-0.922
		C163.139,383.326,163.534,382.83,163.534,382.83z"/>
</g>
<path fill="none" stroke="#000000" stroke-width="2" stroke-miterlimit="10" d="M115.685,406.168c0,0,20.63,2.811,21.243-13.452
	c-1.226-5.42-0.613-9.537-20.018-9.887c-19.405-0.351-27.168,0-27.168,0s-12.869,0.001-16.137,25.322
	c-0.408,7.653-6.333,29.537,10.826,42.787c11.438,5.22,31.865,12.045,36.36-18.068C120.792,426.848,122.835,410.786,115.685,406.168
	z"/>
<path fill="none" stroke="#000000" stroke-width="2" stroke-miterlimit="10" d="M135.652,408.152c0,0-8.84,11.05-14.837,9.653"/>
<path fill="none" stroke="#000000" stroke-width="2" stroke-miterlimit="10" d="M72.291,417.927c0,0-24.729,19.56-14.311,49.976
	c3.983,9.938,2.757,16.262,17.158,14.756c6.741-0.903,30.027,3.526,32.785-27.146l0.217-1.225"/>
<path fill="none" stroke="#000000" stroke-width="2" stroke-miterlimit="10" d="M233.546,364.965l58.625,12.294l-5.924,66.854
	l-21.654,1.607c0,0,3.27,36.939-3.777,56.213c-2.451,9.034-3.677,19.272-27.27,21.983c-9.804,2.107-61.716,13.853-105.313,2.409
	c-8.973-3.012-17.858-3.614-18.778-20.779c-1.838-10.239-4.845-36.56-4.845-36.56"/>
<polyline fill="none" stroke="#000000" stroke-width="2" stroke-miterlimit="10" points="156.334,395.346 163.534,408.152 
	146.324,417.927 143.03,406.637 "/>
<polyline fill="none" stroke="#000000" stroke-width="2" stroke-miterlimit="10" points="148.757,398.282 149.576,397.938 
	155.261,395.346 "/>
<polyline fill="none" stroke="#000000" stroke-width="2" stroke-miterlimit="10" points="194.711,381.324 163.534,408.152 
	181.765,419.092 209.702,375.92 "/>
<path fill="none" stroke="#000000" stroke-width="2" stroke-miterlimit="10" d="M163.534,408.152c0,0,0.154,75.411,3.218,90.167
	c1.226,9.637,3.373,27.936,4.597,32.94"/>
<polygon fill="none" stroke="#000000" stroke-width="2" stroke-miterlimit="10" points="191.57,437.487 231.708,435.078 
	235.078,475.732 194.94,477.841 "/>
<path fill="none" stroke="#000000" stroke-width="2" stroke-miterlimit="10" d="M192.779,451.967c0,0,17.175-3.125,22.383,3.543
	c3.677-2.064,8.117-9.101,17.541-8.443"/>
<polyline fill="none" stroke="#000000" stroke-width="2" stroke-miterlimit="10" points="112.871,451.27 115.583,480.551 
	145.303,477.841 143.03,439.596 119.363,439.596 "/>
<path fill="none" stroke="#000000" stroke-width="2" stroke-miterlimit="10" d="M113.262,455.513c0,0,10.287-4.173,17.028,4.561
	c3.676-4.216,5.93-9.401,13.382-9.67"/>
<ellipse fill="none" stroke="#000000" stroke-width="2" stroke-miterlimit="10" cx="128.503" cy="449.584" rx="3.116" ry="3.864"/>
<ellipse fill="none" stroke="#000000" stroke-width="2" stroke-miterlimit="10" cx="214.55" cy="446.033" rx="2.91" ry="3.878"/>
<path fill="none" stroke="#000000" stroke-width="2" stroke-miterlimit="10" d="M119.988,523.586c0,0-2.439,2.839,0,12.074
	c5.298,2.008,51.87,24.533,128.266-4.396c0.817-6.043,0.459-7.047,0-10.51"/>
<g>
	<path d="M167.441,587.456c0,0,0.366,0.209,1.028,0.47c0.328,0.139,0.741,0.267,1.204,0.421c0.476,0.126,0.998,0.29,1.587,0.402
		c0.58,0.138,1.224,0.22,1.894,0.329c0.675,0.085,1.392,0.143,2.129,0.199c0.744,0.03,1.505,0.067,2.288,0.047
		c0.39-0.001,0.783-0.003,1.178-0.004l1.189-0.087c0.795-0.017,1.59-0.095,2.372-0.195c0.391-0.048,0.78-0.085,1.166-0.113
		c0.383-0.057,0.762-0.112,1.135-0.167c0.742-0.134,1.479-0.169,2.16-0.314c0.682-0.132,1.335-0.232,1.941-0.323
		c1.21-0.188,2.211-0.412,2.932-0.509c0.717-0.109,1.136-0.155,1.136-0.155s-0.362,0.205-1.011,0.533
		c-0.655,0.311-1.577,0.815-2.75,1.237c-0.585,0.217-1.222,0.449-1.904,0.67c-0.675,0.247-1.418,0.405-2.179,0.592
		c-0.761,0.191-1.554,0.376-2.379,0.466c-0.817,0.126-1.652,0.236-2.498,0.274l-1.264,0.056c-0.422-0.011-0.843-0.021-1.26-0.031
		c-0.834,0.012-1.653-0.142-2.442-0.229c-0.789-0.11-1.543-0.299-2.248-0.49c-0.705-0.204-1.358-0.429-1.941-0.698
		c-0.594-0.228-1.1-0.542-1.546-0.796c-0.442-0.271-0.806-0.535-1.091-0.773c-0.291-0.228-0.491-0.441-0.627-0.584
		C167.504,587.538,167.441,587.456,167.441,587.456z"/>
</g>
<path fill="none" stroke="#000000" stroke-width="2" stroke-miterlimit="10" d="M121.468,536.263c0,0-9.868,67.256,29.657,143.546
	c24.001,2.409,70.982,1.605,70.982,1.605s39.627-103.354,26.146-150.15"/>
<line fill="none" stroke="#000000" stroke-width="2" stroke-miterlimit="10" x1="187.433" y1="680.661" x2="180.11" y2="590.311"/>
<path fill="none" stroke="#000000" stroke-width="2" stroke-miterlimit="10" d="M156.955,680.301v2.72
	c0,0-24.521-6.023-25.746,20.879c5.923,0.603,54.503,2.21,54.503,2.21s2.824-7.978-1.94-24.569"/>
<path fill="none" stroke="#000000" stroke-width="2" stroke-miterlimit="10" d="M190.497,681.542c0,0-2.911,14.781-0.766,24.567
	c5.515,0.45,49.636,2.308,49.636,2.308s2.348-26.176-23.694-23.689c-0.307-2.409-0.307-2.409-0.307-2.409"/>
<path fill="none" stroke="#000000" stroke-width="2" stroke-miterlimit="10" d="M292.171,382.83c0,0,43.506,5.471,68.019,15.107
	c4.495-2.459,21.041-15.56,32.378,7.328c1.531,4.216,1.838,34.932-14.708,27.103c-5.515-3.313-7.966-6.374-8.885-13.276
	c-4.29-0.877-79.407-12.455-79.407-12.455"/>
<path fill="none" stroke="#000000" stroke-width="2" stroke-miterlimit="10" d="M286.833,437.487c0,0,24.845,3.012,47.519-2.409"/>
<path fill="none" stroke="#000000" stroke-width="2" stroke-miterlimit="10" d="M368.975,419.092c0,0-36.769,1.833-34.623,20.504
	c1.532,4.216,2.451,11.615,16.239,8.518"/>
<path fill="none" stroke="#000000" stroke-width="2" stroke-miterlimit="10" d="M368.975,421.226c0,0-25.125,4.442-19.61,24.807
	c3.064,7.114,8.273,12.686,34.317,3.879c6.434-3.088,16.805-3.357,13.175-21.157c-1.838-2.71-4.868-5.411-4.868-5.411"/>
<path fill="none" stroke="#000000" stroke-width="2" stroke-miterlimit="10" d="M393.242,411.288l101.355-28.458
	c0,0,11.031-7.378,13.891,6.273c0.407,6.424,2.041,10.038-8.579,14.856c-9.397,2.81-102.304,29.679-102.304,29.679"/>
<ellipse fill="#FFFFFF" stroke="#000000" stroke-width="2" stroke-miterlimit="10" cx="137.781" cy="191.453" rx="15.5" ry="16.563"/>
<polygon fill="#FFFFFF" stroke="#000000" stroke-width="2" stroke-miterlimit="10" points="137.781,178.705 139.788,185.53 
	146.121,187.137 139.993,191.453 141.831,199.183 136.213,192.757 129.371,197.175 131.414,189.345 126.307,184.728 
	133.456,184.728 "/>
</svg>
