<?xml version="1.0" encoding="utf-8"?>
<!-- Generator: Adobe Illustrator 16.0.0, SVG Export Plug-In . SVG Version: 6.00 Build 0)  -->
<!DOCTYPE svg PUBLIC "-//W3C//DTD SVG 1.1//EN" "http://www.w3.org/Graphics/SVG/1.1/DTD/svg11.dtd">
<svg version="1.1" id="Layer_1" xmlns="http://www.w3.org/2000/svg" xmlns:xlink="http://www.w3.org/1999/xlink" x="0px" y="0px"
	 width="552px" height="859px" viewBox="0 0 552 859" enable-background="new 0 0 552 859" xml:space="preserve">
<rect x="0" fill="#FFFFFF" stroke="#000000" stroke-miterlimit="10" width="552" height="859"/>
<path fill="none" stroke="#010101" stroke-width="2" stroke-miterlimit="10" d="M151.133,178.167
	c9.186,0.438,16.189,13.147,15.646,28.385c-0.546,15.238-8.435,27.236-17.619,26.798c-9.187-0.438-16.189-13.147-15.646-28.386
	C134.06,189.727,141.947,177.729,151.133,178.167z"/>
<path fill="none" stroke="#010101" stroke-width="2" stroke-miterlimit="10" d="M219.656,181.643
	c9.442,0.272,16.819,13.245,16.479,28.976c-0.34,15.73-8.27,28.261-17.712,27.989c-9.442-0.273-16.819-13.246-16.479-28.976
	C202.285,193.9,210.215,181.369,219.656,181.643z"/>
<path fill="none" stroke="#010101" stroke-width="2" stroke-miterlimit="10" d="M294.242,201.567
	c-16.948,5.244-20.884-15.38-21.791-19.922c-0.908-12.23-6.762-29.718-8.374-31.116c-6.861,15.498-14.555,10.953-15.841,10.488
	c-5.751-34.259-59.172,8.914-61.139,9.613c-5.902-2.272,2.471-20.8,1.816-20.8c-63.863,18.877-71.127-9.438-71.127-9.438
	c-0.492-0.699-6.659,50.573-25.223,64.089c0,0,0.403-24.005-5.649-57.564c-2.019-12.585-3.632-50.339,35.513-61.526
	c8.072-2.331,55.439-14.449,97.736-9.788c3.558-3.263,14.594-10.254,7.259-22.839c4.368-0.466,19.703-0.933,22.125,31.229
	c2.017-4.195,14.933-26.568,35.514-13.518c-5.65,2.798-16.144,16.78-13.317,25.636c4.438,1.864,31.072,36.222,25.826,66.818
	C295.958,173.019,291.316,197.956,294.242,201.567z"/>
<line fill="none" stroke="#010101" stroke-miterlimit="10" x1="146.768" y1="168.008" x2="148.727" y2="178.347"/>
<line fill="none" stroke="#010101" stroke-miterlimit="10" x1="153.351" y1="167.223" x2="153.351" y2="178.518"/>
<line fill="none" stroke="#010101" stroke-miterlimit="10" x1="156.303" y1="179.793" x2="160.464" y2="169.756"/>
<line fill="none" stroke="#010101" stroke-miterlimit="10" x1="160.464" y1="183.542" x2="166.835" y2="173.689"/>
<line fill="none" stroke="#010101" stroke-miterlimit="10" x1="145.349" y1="179.589" x2="141.017" y2="172.029"/>
<line fill="none" stroke="#010101" stroke-miterlimit="10" x1="141.387" y1="182.768" x2="136.174" y2="176.312"/>
<line fill="none" stroke="#010101" stroke-miterlimit="10" x1="138.218" y1="187.147" x2="131.634" y2="182.768"/>
<g>
	<path fill="#010101" d="M127.473,179.539c0,0,0.399-0.694,1.205-1.842c0.806-1.146,2.023-2.746,3.663-4.517
		c0.811-0.895,1.738-1.82,2.758-2.762c1.038-0.921,2.138-1.897,3.382-2.779c1.224-0.905,2.55-1.772,3.966-2.543
		c1.428-0.75,2.923-1.446,4.494-1.967c0.78-0.271,1.596-0.453,2.395-0.654c0.817-0.132,1.621-0.332,2.443-0.373
		c0.409-0.035,0.816-0.07,1.222-0.104c0.408,0.008,0.813,0.016,1.216,0.023c0.807-0.02,1.595,0.14,2.371,0.217
		c0.771,0.12,1.517,0.319,2.245,0.49c0.706,0.255,1.399,0.488,2.06,0.748c0.638,0.309,1.257,0.608,1.857,0.898
		c0.56,0.354,1.1,0.696,1.62,1.025c0.521,0.321,0.958,0.717,1.399,1.052c0.434,0.348,0.851,0.665,1.193,1.022
		c0.7,0.695,1.347,1.253,1.782,1.811c0.908,1.075,1.405,1.694,1.405,1.694s-0.61-0.511-1.681-1.406
		c-0.505-0.475-1.235-0.915-1.987-1.503c-0.373-0.301-0.816-0.554-1.273-0.832c-0.464-0.265-0.91-0.609-1.438-0.859
		c-0.52-0.259-1.061-0.529-1.62-0.808c-0.579-0.226-1.177-0.46-1.792-0.701c-0.628-0.194-1.283-0.359-1.941-0.548
		c-0.683-0.093-1.36-0.269-2.067-0.34c-1.414-0.129-2.884-0.163-4.364,0.039c-0.745,0.044-1.479,0.244-2.222,0.372
		c-0.732,0.197-1.474,0.374-2.193,0.632c-1.458,0.459-2.865,1.09-4.221,1.776c-1.338,0.72-2.656,1.448-3.86,2.276
		c-2.438,1.612-4.572,3.353-6.347,4.917c-1.77,1.57-3.188,2.958-4.159,3.954C128.007,178.944,127.473,179.539,127.473,179.539z"/>
</g>
<g>
	<path fill="#010101" d="M197.692,175.81c0,0,0.467-0.754,1.487-1.925c1.015-1.171,2.598-2.759,4.806-4.306
		c1.112-0.758,2.371-1.516,3.787-2.167c1.423-0.629,2.981-1.198,4.661-1.551c1.681-0.316,3.458-0.547,5.267-0.451
		c1.8,0.099,3.631,0.35,5.384,0.87c1.767,0.479,3.438,1.22,5.034,2.013c1.589,0.81,3.053,1.774,4.413,2.765
		c0.703,0.468,1.319,1.02,1.945,1.53c0.311,0.259,0.616,0.515,0.918,0.768c0.286,0.271,0.568,0.538,0.848,0.802
		c0.551,0.532,1.105,1.03,1.606,1.546c0.485,0.531,0.953,1.044,1.403,1.536c0.924,0.958,1.645,1.948,2.326,2.783
		c0.689,0.827,1.22,1.605,1.66,2.24c0.871,1.274,1.369,2.002,1.369,2.002s-0.608-0.636-1.676-1.75
		c-0.522-0.563-1.158-1.245-1.927-1.986c-0.771-0.74-1.587-1.622-2.571-2.484c-0.481-0.439-0.984-0.897-1.505-1.371
		c-0.538-0.45-1.095-0.914-1.667-1.392c-0.286-0.237-0.576-0.478-0.87-0.721c-0.308-0.224-0.62-0.451-0.935-0.68
		c-0.642-0.441-1.241-0.969-1.936-1.381c-0.684-0.424-1.346-0.911-2.072-1.302c-0.733-0.377-1.438-0.832-2.199-1.181
		c-1.507-0.725-3.076-1.393-4.709-1.814c-1.612-0.505-3.285-0.752-4.932-0.866c-1.65-0.097-3.28,0.009-4.844,0.25
		c-1.557,0.281-3.04,0.694-4.416,1.198c-1.363,0.536-2.621,1.139-3.753,1.763c-2.241,1.289-3.978,2.62-5.136,3.619
		C198.291,175.159,197.692,175.81,197.692,175.81z"/>
</g>
<line fill="none" stroke="#010101" stroke-miterlimit="10" x1="212.145" y1="184.264" x2="206.242" y2="174.563"/>
<line fill="none" stroke="#010101" stroke-miterlimit="10" x1="216.489" y1="182.045" x2="213.128" y2="172.433"/>
<line fill="none" stroke="#010101" stroke-miterlimit="10" x1="219.643" y1="181.65" x2="220.165" y2="170.456"/>
<path fill="none" stroke="#010101" stroke-miterlimit="10" d="M222.976,182.294c0.054,0.019,2.939-8.168,2.939-8.168"/>
<line fill="none" stroke="#010101" stroke-miterlimit="10" x1="227.424" y1="185.056" x2="232.271" y2="176.748"/>
<line fill="none" stroke="#010101" stroke-miterlimit="10" x1="230.504" y1="188.659" x2="237.189" y2="181.65"/>
<line fill="none" stroke="#010101" stroke-miterlimit="10" x1="208.438" y1="188.098" x2="201.627" y2="180.902"/>
<path fill="none" stroke="#010101" stroke-width="2" stroke-miterlimit="10" d="M92.565,204.481c0,0-30.267-8.648-21.389,28.886
	c2.018,8.168,4.767,15.625,14.894,22.152c2.057,6.992,22.071,80.635,106.092,84.365c15.415-1.864,73.526-8.39,100.16-82.035
	c4.036-0.291,17.052-5.244,21.591-22.373c0.909-4.195,5.448-28.665-19.672-33.909"/>
<path fill="none" stroke="#010101" stroke-width="2" stroke-miterlimit="10" d="M295.151,214.502c0,0,14.526,1.398,12.409,16.779
	c-0.303,4.545-6.66,17.129-14.528,14.683C293.032,240.371,296.968,220.445,295.151,214.502z"/>
<path fill="none" stroke="#010101" stroke-width="2" stroke-miterlimit="10" d="M86.07,245.44c0,0-11.367-6.029-9.597-23.247
	c0.454-4.021,4.389-13.809,14.376-8.391C90.244,216.6,85.981,242.119,86.07,245.44z"/>
<path fill="#010101" d="M154.627,199.55c2.991,0.377,4.854,6.597,4.164,13.89s-3.675,12.899-6.667,12.521
	c-2.991-0.378-4.856-6.597-4.165-13.89C148.65,204.777,151.635,199.172,154.627,199.55z"/>
<path fill="#FFFFFF" stroke="#010101" stroke-width="2" stroke-miterlimit="10" d="M154.289,207.606
	c1.26,0.178,2.042,2.592,1.745,5.392c-0.299,2.799-1.561,4.924-2.82,4.746c-1.261-0.178-2.042-2.593-1.745-5.392
	C151.765,209.552,153.028,207.427,154.289,207.606z"/>
<path fill="#030303" d="M223.07,202.845c2.978,0.309,4.912,6.717,4.321,14.313c-0.59,7.596-3.481,13.502-6.459,13.194
	c-2.977-0.309-4.911-6.717-4.321-14.312C217.201,208.444,220.092,202.537,223.07,202.845z"/>
<path fill="#FFFFFF" stroke="#010101" stroke-width="2" stroke-miterlimit="10" d="M223.298,212.052
	c1.231,0.093,2.097,2.553,1.931,5.496c-0.166,2.942-1.299,5.252-2.531,5.16s-2.097-2.553-1.932-5.496
	C220.932,214.27,222.066,211.96,223.298,212.052z"/>
<g>
	<path fill="#010101" d="M171.057,257.85c0,0,1.525,1.259,3.844,2.986c0.59,0.416,1.227,0.865,1.9,1.34
		c0.675,0.469,1.415,0.914,2.167,1.38c0.758,0.457,1.568,0.874,2.391,1.269c0.819,0.412,1.686,0.716,2.551,0.98
		c0.864,0.244,1.741,0.428,2.602,0.454c0.85-0.008,1.699-0.021,2.466-0.288c0.782-0.213,1.483-0.59,2.141-0.987
		c0.308-0.236,0.606-0.466,0.896-0.688c0.271-0.256,0.534-0.503,0.786-0.74c0.25-0.245,0.447-0.52,0.667-0.757
		c0.222-0.237,0.42-0.474,0.582-0.716c0.33-0.478,0.674-0.871,0.882-1.241c0.458-0.716,0.741-1.128,0.741-1.128
		s-0.125,0.473-0.383,1.304c-0.114,0.422-0.339,0.899-0.584,1.46c-0.229,0.568-0.604,1.157-1.016,1.804
		c-0.233,0.308-0.478,0.629-0.729,0.961c-0.289,0.306-0.609,0.606-0.934,0.924c-0.365,0.269-0.728,0.576-1.141,0.829
		c-0.426,0.232-0.857,0.493-1.345,0.644c-0.948,0.384-2.012,0.547-3.069,0.551c-1.063-0.008-2.11-0.199-3.123-0.466
		c-0.99-0.325-1.958-0.698-2.844-1.169c-0.903-0.443-1.717-0.994-2.494-1.526c-1.538-1.09-2.833-2.263-3.863-3.333
		C172.079,259.555,171.057,257.85,171.057,257.85z"/>
</g>
<path fill="none" stroke="#010101" stroke-width="2" stroke-miterlimit="10" d="M159.959,297.003c0,0,37.934,6.059,52.461,0
	C210.604,302.13,188.409,348.041,159.959,297.003z"/>
<path fill="none" stroke="#010101" stroke-width="2" stroke-miterlimit="10" d="M247.277,319.978c0,0,22.45,8.486,26.688,11.75
	c1.815,1.165,6.456,7.458-7.264,6.292c-3.433-1.398-22.604-11.89-28.051-12.586"/>
<path fill="none" stroke="#010101" stroke-width="2" stroke-miterlimit="10" d="M128.2,318.228c0,0-24.334,12.101-28.977,16.762
	c-1.614,2.797-1.211,7.923,9.08,4.894c2.624-1.399,28.713-15.733,28.713-15.733"/>
<path fill="none" stroke="#010101" stroke-width="2" stroke-miterlimit="10" d="M172.671,338.163c0,0,7.264,28.988,13.52,39.242
	c3.229-4.894,12.569-32.325,14.859-38.769"/>
<path fill="none" stroke="#010101" stroke-width="2" stroke-miterlimit="10" d="M144.679,328.317c0,0-0.753,17.393,0,22.053
	c2.771,0.699,18.308,2.097,20.124,3.263c1.816,1.165-12.915,15.147-12.915,15.147l34.973,35.657c0,0,32.222-32.161,34.238-35.192
	c-1.01-2.796-12.915-14.681-12.915-14.681l21.39-3.73c0,0,1.22-14.884-1.206-20.26"/>
<rect x="214.44" y="403.274" fill="none" stroke="#010101" stroke-width="2" stroke-miterlimit="10" width="33.293" height="6.526"/>
<ellipse fill="none" stroke="#010101" stroke-width="2" stroke-miterlimit="10" cx="186.19" cy="422.501" rx="3.429" ry="4.778"/>
<ellipse fill="none" stroke="#010101" stroke-width="2" stroke-miterlimit="10" cx="184.879" cy="442.659" rx="3.732" ry="3.963"/>
<ellipse fill="none" stroke="#010101" stroke-width="2" stroke-miterlimit="10" cx="184.879" cy="463.751" rx="3.732" ry="4.312"/>
<ellipse fill="none" stroke="#010101" stroke-width="2" stroke-miterlimit="10" cx="184.13" cy="482.979" rx="2.982" ry="4.428"/>
<ellipse fill="none" stroke="#010101" stroke-width="2" stroke-miterlimit="10" cx="183.222" cy="503.136" rx="3.891" ry="4.079"/>
<path fill="none" stroke="#010101" stroke-width="2" stroke-miterlimit="10" d="M100.483,340.403c0,0-41.817,34.817-48.678,134.097
	c0,0,19.068,7.079,32.184,6.382c0.808-3.729,21.691-82.154,28.652-81.105c0.454,0.176-1.715,106.042,0,131.675
	c-3.531,13.519-12.812,58.729-14.022,75.509c5.245,2.797,129.139,28.9,163.438,4.662c-0.806-5.127-13.718-49.873-14.325-78.772
	c-1.009-5.127,0.201-54.066,4.64-86.229c1.615-5.128,6.913-38.279,6.913-49.466c1.21,1.749,29.813,30.589,37.076,33.386
	c3.026,2.796,14.327,14.216,15.336,17.013c3.429-1.166,20.784-16.081,25.021-24.005c-1.212-3.496-50.56-77.689-63.518-85.687"/>
<path fill="none" stroke="#010101" stroke-width="2" stroke-miterlimit="10" d="M332.613,416.736c0,0-15.081,23.144-25.364,25"/>
<path fill="none" stroke="#010101" stroke-width="2" stroke-miterlimit="10" d="M329.368,411.731c0,0-13.096,20.316-26.078,25.739"
	/>
<path fill="none" stroke="#010101" stroke-width="2" stroke-miterlimit="10" d="M325.1,405.292c0,0-16.184,21.734-27.403,26.522"/>
<path fill="none" stroke="#010101" stroke-width="2" stroke-miterlimit="10" d="M312.263,447.302c0,0-3.393,10.506,9.22,10.974
	c1.514,3.729,15.133,30.807,22.195,21.579c1.109-1.652,1.714-6.896-8.476-18.897c0.507-1.516,12.108,9.248,15.234,3.575
	c0.604-1.012,3.432-6.021-6.657-11.73c0,0,13.012-2.217,2.924-13.286c0.706-1.049,6.253-7.688-2.725-11.532
	c-1.512-0.233-7.355-1.273-8.064-3.084"/>
<polyline fill="none" stroke="#010101" stroke-width="2" stroke-miterlimit="10" points="335.924,479.854 395.637,635.162 
	399.875,632.132 342.201,481.217 "/>
<polyline fill="none" stroke="#010101" stroke-width="2" stroke-miterlimit="10" points="342.778,464.783 408.551,637.724 
	413.798,635.162 348.681,466.015 "/>
<path fill="none" stroke="#010101" stroke-width="2" stroke-miterlimit="10" d="M348.901,498.752c0,0,4.668-3.771,5.347-3.81"/>
<path fill="none" stroke="#010101" stroke-width="2" stroke-miterlimit="10" d="M359.268,493.521c0,0,28.99-15.615,74.087,6.232"/>
<line fill="none" stroke="#010101" stroke-width="2" stroke-miterlimit="10" x1="356.597" y1="518.885" x2="364" y2="520.582"/>
<path fill="none" stroke="#010101" stroke-width="2" stroke-miterlimit="10" d="M350.562,517.926l-16.065-3.312
	c0,0-0.194-6.407,9.778-13.038"/>
<path fill="none" stroke="#010101" stroke-width="2" stroke-miterlimit="10" d="M369.687,520.582l26.557,5.045
	c0,0,43.785-106.969,126.11,109.535c-12.913,12.352-63.563,55.467-63.563,55.467l-62.549-165.002"/>
<polyline fill="none" stroke="#010101" stroke-width="2" stroke-miterlimit="10" points="458.791,690.629 396.924,681.19 
	334.495,514.614 "/>
<path fill="none" stroke="#010101" stroke-width="2" stroke-miterlimit="10" d="M481.03,671.58c0,0,4.954,13.279-4.43,19.049
	c-1.714,1.396-11.192,3.886-14.349-2.951"/>
<path fill="none" stroke="#010101" stroke-width="2" stroke-miterlimit="10" d="M418.029,684.409c0,0-8.976,9.021-15.731-2.4"/>
<path fill="none" stroke="#010101" stroke-width="2" stroke-miterlimit="10" d="M204.149,621.847l4.54,29.162
	c0,0-18.262,38.453,1.312,41.95c4.438,0.933,71.629,8.158,66.385-10.953c-1.411-4.66-3.026-20.043-27.846-30.529
	c0-4.429-0.192-33.749-0.192-33.749"/>
<path fill="none" stroke="#010101" stroke-width="2" stroke-miterlimit="10" d="M208.689,651.009c0,0,29.155,5.595,39.852,0.468"/>
<path fill="none" stroke="#010101" stroke-width="2" stroke-miterlimit="10" d="M117.669,611.522l-3.716,39.485
	c0,0-23.406,10.489-27.846,29.832c0.403,7.226-2.421,16.8,56.296,14.228c5.852-0.708,33.696,0.985,12.106-42.741
	c1.21-5.511,5.501-27.284,5.474-33.993"/>
<path fill="none" stroke="#010101" stroke-width="2" stroke-miterlimit="10" d="M113.953,651.009c0,0,19.371,7.292,40.558,1.316"/>
<rect x="164.6" y="520.969" fill="none" stroke="#010101" stroke-width="2" stroke-miterlimit="10" width="36.119" height="17.71"/>
<polygon fill="none" stroke="#010101" stroke-width="2" stroke-miterlimit="10" points="169.241,524.464 196.077,524.464 
	196.077,527.959 187.113,527.959 187.113,531.92 196.077,531.92 196.077,535.417 169.241,535.417 "/>
<path fill="none" stroke="#010101" stroke-width="2" stroke-miterlimit="10" d="M200.719,523.297c0,0,35.08-0.464,46.696-2.328"/>
<path fill="none" stroke="#010101" stroke-width="2" stroke-miterlimit="10" d="M200.719,535.417c0,0,17.555-0.178,24.213-0.962"/>
<path fill="none" stroke="#010101" stroke-width="2" stroke-miterlimit="10" d="M232.574,533.756c0,0,13.747-0.932,15.158-0.904"/>
<polyline fill="none" stroke="#010101" stroke-width="2" stroke-miterlimit="10" points="224.545,522.652 224.932,538.679 
	232.574,538.679 232.574,522.273 "/>
<path fill="none" stroke="#010101" stroke-width="2" stroke-miterlimit="10" d="M112.222,520.969c0,0,45.516,2.794,52.377,2.328"/>
<path fill="none" stroke="#010101" stroke-width="2" stroke-miterlimit="10" d="M112.44,532.234c0,0,4.54,1.489,20.885,2.221"/>
<path fill="none" stroke="#010101" stroke-width="2" stroke-miterlimit="10" d="M140.992,534.935c0,0,16.546,1.183,23.607,0.482"/>
<polyline fill="none" stroke="#010101" stroke-width="2" stroke-miterlimit="10" points="133.036,522.159 133.036,538.679 
	140.992,538.679 140.992,522.571 "/>
<path fill="none" stroke="#010101" stroke-width="2" stroke-miterlimit="10" d="M54.07,452.012c0,0,18.772,8.651,35.797,7.224"/>
<path fill="none" stroke="#010101" stroke-width="2" stroke-miterlimit="10" d="M53.087,460.093c0,0,21.295,8.103,34.447,7.454"/>
<path fill="none" stroke="#010101" stroke-width="2" stroke-miterlimit="10" d="M53.087,465.324c0,0,22.789,8.61,32.923,7.802"/>
<path fill="none" stroke="#010101" stroke-width="2" stroke-miterlimit="10" d="M54.07,475.29c0,0-1.054,3.493-5.896,7.163
	c-2.421,2.622-15.133,16.256-9.534,23.073c2.421,1.572,8.777-3.322,11.955-9.789c1.06-0.35-6.961,28.841-0.302,30.938
	c2.724,0.174,7.869-6.816,9.534-22.2c0.15,3.496-6.055,29.716,1.967,26.92c2.421-1.225,3.565,2.796,8.519-25.521
	c-0.347,5.594-2.313,24.995,3.134,22.198c2.423-1.048,6.356,3.671,7.265-34.434c0.908-0.175,9.23,8.914,13.015,3.671
	c1.362-2.272,2.412-6.136-10.76-16.393"/>
</svg>
