<?xml version="1.0" encoding="utf-8"?>
<!-- Generator: Adobe Illustrator 16.0.0, SVG Export Plug-In . SVG Version: 6.00 Build 0)  -->
<!DOCTYPE svg PUBLIC "-//W3C//DTD SVG 1.1//EN" "http://www.w3.org/Graphics/SVG/1.1/DTD/svg11.dtd">
<svg version="1.1" id="Layer_1" xmlns="http://www.w3.org/2000/svg" xmlns:xlink="http://www.w3.org/1999/xlink" x="0px" y="0px"
	 width="552px" height="859px" viewBox="0 0 552 859" enable-background="new 0 0 552 859" xml:space="preserve">
<rect fill="#FFFFFF" stroke="#000000" stroke-miterlimit="10" width="552" height="859"/>
<ellipse fill="none" stroke="#010101" stroke-width="2" stroke-miterlimit="10" cx="274.151" cy="270.305" rx="21.212" ry="24.361"/>
<ellipse fill="#010101" cx="273.616" cy="270.558" rx="8.563" ry="11.504"/>
<ellipse fill="#FFFFFF" cx="274.394" cy="269.881" rx="3.698" ry="5.244"/>
<ellipse fill="none" stroke="#010101" stroke-width="2" stroke-miterlimit="10" cx="356.509" cy="267.103" rx="21.212" ry="24.361"/>
<ellipse fill="#010101" cx="355.523" cy="267.104" rx="8.563" ry="11.504"/>
<ellipse fill="#FFFFFF" cx="355.523" cy="267.103" rx="3.697" ry="5.244"/>
<path fill="none" stroke="#010101" stroke-width="2" stroke-miterlimit="10" d="M210.951,186.479c0,0-20.24,15.564,15.569,18.948
	c16.348,2.707,179.821,1.354,216.409-18.948c0.778-6.767-3.893-13.534-10.898-19.624c-3.893-6.09-0.778-18.271,7.006-27.744
	c1.558-5.414,25.689-101.504-53.713-100.827c-29.581,2.03-65.39,25.714-157.247,12.18c-28.024-0.676-74.731-0.676-48.263,64.962
	c9.341,25.714,14.79,45.338,27.245,48.045C217.178,168.885,218.735,187.156,210.951,186.479z"/>
<path fill="none" stroke="#010101" stroke-width="2" stroke-miterlimit="10" d="M209.142,201.132c0,0,3.192,49.205,6.826,53.716"/>
<path fill="none" stroke="#010101" stroke-width="2" stroke-miterlimit="10" d="M442.929,186.479
	c16.347,13.76,12.193,53.008,10.636,59.465c-8.304,2.396-8.818,11.137-9.889,15.916c-24.418,6.583-27.476-17.862-31.106-32.75
	c-7.784-22.104-14.013-11.729-20.76-7.218c-16.606-29.324-72.655,8.12-72.655,8.12s0,0,0-6.316c0-10.376-18.165,6.767-23.791,10.754
	c-6.146-8.194-3.716-8.95-5.272-15.267c-14.012,7.217-43.073-3.158-51.377-6.316c5.71,50.527-19.2,42.731-19.2,42.731
	s-33.733-9.603-26.467,23.008c3.113,11.857,4.152,11.857,21.796,24.939c0,0,22.964,71.053,105.869,71.391
	c15.958,0,117.487-12.688,122.964-80.273c8.595-1.27,32.208-9.276,29.742-29.803c-1.556-8.233-4.185-21.542-19.854-18.919"/>
<path fill="none" stroke="#010101" stroke-width="2" stroke-miterlimit="10" d="M448.505,282.57
	c-0.463,0.201,6.36-16.522,4.154-23.177C457.458,256.46,480.812,268.471,448.505,282.57z"/>
<g>
	<path fill="#010101" d="M332.81,244.167c0,0,0.657-0.576,1.918-1.447c1.264-0.86,3.123-2.037,5.519-3.149
		c1.188-0.576,2.518-1.113,3.947-1.624c1.44-0.477,2.972-0.975,4.606-1.296c1.627-0.345,3.334-0.629,5.089-0.725
		c1.752-0.14,3.544-0.072,5.328,0.06c1.779,0.205,3.55,0.511,5.245,0.998c0.424,0.122,0.845,0.244,1.265,0.365
		c0.417,0.13,0.816,0.305,1.222,0.454c0.401,0.156,0.802,0.311,1.198,0.464c0.385,0.181,0.767,0.361,1.146,0.54
		c0.766,0.34,1.49,0.728,2.177,1.147c0.347,0.203,0.688,0.404,1.026,0.603c0.323,0.222,0.643,0.441,0.957,0.657
		c1.286,0.824,2.365,1.786,3.379,2.633c0.952,0.92,1.861,1.719,2.547,2.545c0.71,0.802,1.345,1.479,1.789,2.107
		c0.911,1.226,1.432,1.926,1.432,1.926s-0.627-0.603-1.726-1.658c-0.521-0.55-1.251-1.12-2.027-1.825
		c-0.764-0.722-1.747-1.393-2.739-2.204c-1.063-0.723-2.179-1.549-3.455-2.264c-0.313-0.187-0.632-0.375-0.954-0.566
		c-0.334-0.167-0.673-0.336-1.016-0.507c-0.341-0.172-0.685-0.346-1.032-0.522c-0.351-0.17-0.719-0.309-1.082-0.467
		c-0.364-0.154-0.731-0.31-1.102-0.466c-0.38-0.129-0.763-0.26-1.147-0.391c-0.764-0.279-1.558-0.492-2.357-0.707
		c-1.599-0.438-3.266-0.698-4.938-0.874c-1.675-0.145-3.363-0.234-5.024-0.123c-0.832,0.015-1.652,0.132-2.468,0.181
		c-0.809,0.117-1.616,0.186-2.397,0.343c-1.572,0.259-3.074,0.622-4.496,0.991c-1.407,0.415-2.745,0.81-3.952,1.259
		c-2.427,0.871-4.393,1.774-5.757,2.435C333.564,243.728,332.81,244.167,332.81,244.167z"/>
</g>
<g>
	<path fill="#010101" d="M295.363,245.944c0,0-0.694-0.636-2.034-1.561c-1.334-0.926-3.316-2.148-5.854-3.217
		c-1.263-0.546-2.676-1.02-4.186-1.425c-1.508-0.421-3.142-0.667-4.827-0.845c-1.69-0.19-3.448-0.109-5.223-0.017
		c-1.769,0.192-3.567,0.438-5.315,0.938c-1.765,0.417-3.484,1.03-5.145,1.711c-1.65,0.704-3.263,1.445-4.763,2.291
		c-0.77,0.385-1.479,0.851-2.194,1.274c-0.712,0.427-1.418,0.834-2.063,1.296c-0.658,0.445-1.297,0.877-1.917,1.296
		c-0.603,0.444-1.185,0.874-1.744,1.286c-1.132,0.811-2.112,1.631-3,2.337c-0.894,0.701-1.652,1.339-2.264,1.88
		c-1.252,1.057-1.968,1.662-1.968,1.662s0.615-0.708,1.69-1.947c0.539-0.621,1.203-1.367,2.028-2.162
		c0.81-0.81,1.707-1.748,2.788-2.66c0.531-0.468,1.085-0.956,1.658-1.46c0.604-0.469,1.227-0.954,1.869-1.453
		c0.632-0.514,1.329-0.977,2.034-1.462c0.702-0.491,1.429-0.979,2.208-1.416c1.526-0.919,3.156-1.802,4.888-2.542
		c1.732-0.735,3.535-1.406,5.403-1.87c1.857-0.503,3.778-0.747,5.666-0.924c1.896-0.093,3.772-0.059,5.563,0.195
		c1.789,0.238,3.497,0.627,5.056,1.166c1.566,0.511,2.995,1.137,4.252,1.819c2.535,1.329,4.398,2.827,5.61,3.94
		C294.792,245.194,295.363,245.944,295.363,245.944z"/>
</g>
<g>
	<path fill="#010101" d="M300.992,306.704c0,0,1.45,1.289,3.755,2.901c0.583,0.393,1.216,0.811,1.897,1.223
		c0.678,0.419,1.423,0.801,2.185,1.194c0.768,0.384,1.589,0.707,2.422,1.015c0.837,0.292,1.701,0.544,2.581,0.683
		c0.871,0.192,1.758,0.245,2.63,0.271c0.869-0.038,1.732-0.058,2.553-0.229c0.411-0.078,0.816-0.158,1.205-0.273
		c0.393-0.104,0.782-0.197,1.144-0.345c0.741-0.248,1.414-0.567,2.053-0.844c0.598-0.346,1.197-0.599,1.673-0.918
		c0.48-0.309,0.937-0.541,1.269-0.79c0.688-0.469,1.103-0.729,1.103-0.729s-0.293,0.379-0.842,1.029
		c-0.265,0.335-0.641,0.687-1.068,1.101c-0.413,0.434-0.962,0.828-1.541,1.29c-0.615,0.411-1.28,0.876-2.064,1.236
		c-0.767,0.388-1.622,0.734-2.546,0.961c-0.919,0.247-1.901,0.401-2.906,0.441c-1.002-0.001-2.028-0.039-3.025-0.236
		c-1.001-0.185-1.967-0.492-2.892-0.841c-0.925-0.351-1.779-0.814-2.584-1.278c-1.602-0.95-2.932-2.057-3.975-3.081
		C301.923,308.426,300.992,306.704,300.992,306.704z"/>
</g>
<path fill="none" stroke="#010101" stroke-width="2" stroke-miterlimit="10" d="M288.018,335.125c0,0,23.825,7.668,63.808,1.804
	c-1.012,3.158-25.47,37.331-59.916,5.695c-1.944-1.749-4.087-5.414-3.892-6.936V335.125z"/>
<path fill="none" stroke="#010101" stroke-width="2" stroke-miterlimit="10" d="M52.407,441.141c0,0-16.607-88.872,95.49-89.322
	c14.53-0.451,92.374-3.608,92.894,89.322C229.373,441.592,52.407,441.141,52.407,441.141z"/>
<path fill="none" stroke="#010101" stroke-width="2" stroke-miterlimit="10" d="M52.407,441.141c0,0-12.974,5.413,0,10.602
	c7.914,0.282,72.344-0.193,72.344-0.193s8.354,12.44,16.917,0.284c2.075,3.857,9.083,10.629,15.051,0.364
	c1.946,5.41,12.195,12.29,15.569,1.237c5.06,4.397,13.232,7.845,16.022-1.322c0,0,49.108,0.306,54.167-0.245
	c11.677-4.611-1.688-10.728-1.688-10.728"/>
<path fill="none" stroke="#010101" stroke-width="2" stroke-miterlimit="10" d="M188.31,452.112c0,0-4.605-13.001-16.022-4.542
	c-3.374-1.468-12.974-6.092-15.18-0.113c-2.075-2.256-11.677-5.64-15.439-0.678c-1.946-1.015-16.191-6.362-16.917,4.77"/>
<line fill="none" stroke="#010101" stroke-width="2" stroke-miterlimit="10" x1="141.668" y1="446.779" x2="141.668" y2="451.833"/>
<line fill="none" stroke="#010101" stroke-width="2" stroke-miterlimit="10" x1="157.108" y1="447.457" x2="156.719" y2="452.197"/>
<line fill="none" stroke="#010101" stroke-width="2" stroke-miterlimit="10" x1="172.288" y1="447.57" x2="172.288" y2="453.435"/>
<path fill="none" stroke="#010101" stroke-width="2" stroke-miterlimit="10" d="M136.61,352.182c0,0,10.639-13.643,21.925-0.406"/>
<path fill="none" stroke="#010101" stroke-width="2" stroke-miterlimit="10" d="M219.901,376.8c0,0,24.121-18.192,33.274-22.8"/>
<path fill="none" stroke="#010101" stroke-width="2" stroke-miterlimit="10" d="M239.957,426.032c0,0,16.402-24.131,21.332,0
	c1.299,18.944,9.6,77.365,0,113.907c6.489,0,13.233,0,13.233,0"/>
<path fill="none" stroke="#010101" stroke-width="2" stroke-miterlimit="10" d="M273.024,365.401c0,0,13.175,186.264-7.972,228.672
	c7.912,2.03,118.455,13.085,155.82,1.806c-4.153-4.963-20.759-18.948-26.986-115.038"/>
<path fill="none" stroke="#010101" stroke-width="2" stroke-miterlimit="10" d="M403.334,351.7c0,0,75.142,36.42,76.182,63.608
	c-10.379,6.436-36.849,21.321-48.264,16.812c-5.708-4.061-15.827-8.798-16.867-13.985c-1.815-1.127-3.894,20.752-2.855,25.715"/>
<path fill="none" stroke="#010101" stroke-width="2" stroke-miterlimit="10" d="M433.884,432.783c0,0-9.899,16.479-41.037,12.418
	c-5.45-5.863-15.307-17.395-18.941-12.418c-0.259,3.621,0.778,10.322,5.969,13.061c-5.969-0.418-32.175-1.547-32.437,6.573
	c0.779,3.16,13.751,5.19,27.504,3.837c-2.852,1.127-8.041,6.993,1.04,7.443c-1.298,2.029-3.635,7.443,2.853,8.119
	c-1.035,1.579-3.631,9.925,7.269,9.925c7.784-0.901,7.784-0.901,7.784-0.901s12.844-0.01,15.568-3.219
	c3.503,0.172,81.836,2.177,67.19-60.574"/>
<path fill="none" stroke="#010101" stroke-width="2" stroke-miterlimit="10" d="M359.387,446.166c0,0-56.19,2.367-59.304-4.824
	c0.389,10.062-13.233,71.304,34.641,66.565c17.515-1.691,41.634-5.744,33.466-51.255"/>
<path fill="none" stroke="#010101" stroke-width="2" stroke-miterlimit="10" d="M288.004,370.677c0,0-7.121,35.727,26.222,35.05
	c42.684-0.676,42.684-0.676,42.684-0.676s16.737,1.015,16.737-12.18c0-10.828,0-28.104,0-28.104"/>
<path fill="none" stroke="#010101" stroke-width="2" stroke-miterlimit="10" d="M391.771,357.678c0,0,8.737,67.951,5.231,87.942"/>
<path fill="none" stroke="#010101" stroke-width="2" stroke-miterlimit="10" d="M412.952,477.656c0,0,0.137,58.222,5.326,62.282
	c-4.671,0-17.602,1.799-17.602,1.799"/>
<path fill="none" stroke="#010101" stroke-width="2" stroke-miterlimit="10" d="M265.053,539.938c0,0-5.06,27.969-10.25,40.149
	c-5.188,12.181-9.343,50.526-5.708,60.001c3.634,0.901,18.163,0.901,28.023,5.863c12.976,3.611,23.354,1.805,32.176,0
	c1.557-4.51,0.611-37.581,5.234-46.985"/>
<path fill="none" stroke="#010101" stroke-width="2" stroke-miterlimit="10" d="M366.798,600.877c0,0,3.734,38.417,6.328,47.16
	c5.19,1.074,26.988-0.28,32.695-3.438c5.711-3.157,12.975-3.158,22.316-2.256c2.595-9.021,2.742-65.241-13.613-102.208"/>
<path fill="none" stroke="#010101" stroke-width="2" stroke-miterlimit="10" d="M250.623,640.354v2.892
	c0,0-48.235,27.406-7.755,33.496c17.904,0.677,58.772,5.075,67.336-8.796c1.557-4.738,0.437-14.356-3.09-21.558"/>
<path fill="none" stroke="#010101" stroke-width="2" stroke-miterlimit="10" d="M376.561,648.361c0,0-19.845,26.689,10.319,28.212
	c15.764,1.016,62.534,4.569,66.427-11.447c-1.298-6.09-9.571-17.83-26.452-22.9"/>
</svg>
