<?xml version="1.0" encoding="utf-8"?>
<!-- Generator: Adobe Illustrator 16.0.0, SVG Export Plug-In . SVG Version: 6.00 Build 0)  -->
<!DOCTYPE svg PUBLIC "-//W3C//DTD SVG 1.1//EN" "http://www.w3.org/Graphics/SVG/1.1/DTD/svg11.dtd">
<svg version="1.1" id="Layer_1" xmlns="http://www.w3.org/2000/svg" xmlns:xlink="http://www.w3.org/1999/xlink" x="0px" y="0px"
	 width="552px" height="859px" viewBox="0 0 552 859" enable-background="new 0 0 552 859" xml:space="preserve">
<rect x="0" fill="#FFFFFF" stroke="#000000" stroke-miterlimit="10" width="552" height="859"/>
<path fill="none" stroke="#000000" stroke-width="2" stroke-miterlimit="10" d="M312.556,226.286
	c9.448-76.466,3.842-120.803-6.722-146.458c-16.237-39.433-44.195-34.735-47.221-34.735
	c-112.863,18.861-41.949,181.193-41.949,181.193l0.937,4.42c0,0,155.063,3.537,248.697-46.981c0.75,0,49.443-21.218,12.736,8.588
	c-0.561,0.757-26.967,27.386-45.694,38.447"/>
<path fill="none" stroke="#000000" stroke-width="2" stroke-miterlimit="10" d="M305.834,79.828c0,0,102.784,3.87,133.499,112.484
	l1.025,3.509"/>
<path fill="none" stroke="#000000" stroke-width="2" stroke-miterlimit="10" d="M200.479,90.521c0,0-93.496,25.001-109.475,128.731
	v1.324"/>
<path fill="none" stroke="#000000" stroke-width="2" stroke-miterlimit="10" d="M217.388,229.701l-1.783-0.007
	c0,0-107.621-4.715-174.041-15.492c0.498,0-34.458,16.502,68.917,40.751"/>
<path fill="none" stroke="#000000" stroke-width="2" stroke-miterlimit="10" d="M124.609,223.738l-1.768,1.663
	c0,0-21.349,21.471-7.117,71.989c0,3.031,18.728,45.972,67.418,50.519c3.746,0.505,154.313,9.598,212.743-25.259
	c3.744-2.021,37.455-21.723,36.706-60.117c0.123-2.695,7.695-35.191-13.134-59.104"/>
<path fill="none" stroke="#000000" stroke-width="2" stroke-miterlimit="10" d="M446.429,221.66c0,0,22.116,94.59,60.071,140.393
	c0,0.674-60.071,15.492-60.071,15.492"/>
<path fill="none" stroke="#000000" stroke-width="2" stroke-miterlimit="10" d="M351.689,388.997
	c-5.99-6.062,73.909-20.881,75.907-21.554c8.99-28.291-61.926-32.332-61.926-32.332s-4.993,33.51-58.927,35.531
	c-5.992,0.505-80.902,18.53-121.353-21.298l-0.872-1.32"/>
<path fill="none" stroke="#000000" stroke-width="2" stroke-miterlimit="10" d="M427.596,367.442c0,0,34.813,10.104,48.869,56.58
	c0.072,2.021-5.919,28.291-48.869,20.208c-3.805-0.463-26.464-5.389-35.27-10.188"/>
<path fill="none" stroke="#000000" stroke-width="2" stroke-miterlimit="10" d="M340.95,363.064c0,0,4.622,31.322,51.376,70.388
	l-3.684,43.782l18.98,31.322c0,0,18.976,12.461-59.431,19.87c-8.49,1.011-22.476,1.685-47.441,7.746
	c-9.487,1.012-88.892,4.716-145.324-15.155c-8.989-2.694-52.235-10.776-44.596-34.689"/>
<line fill="none" stroke="#000000" stroke-width="2" stroke-miterlimit="10" x1="266.293" y1="349.343" x2="266.293" y2="375.094"/>
<path fill="none" stroke="#000000" stroke-width="2" stroke-miterlimit="10" d="M160.928,342.671c0,0-111.874,70.405-78.166,114.356
	c2.998,3.536,1.453,7.578,28.066,29.301c0.4,2.021,37.105-15.155,62.574-4.547c2.248,1.517-19.476-61.632-19.476-61.632
	l31.463-42.604l5.968-22.926"/>
<path fill="none" stroke="#000000" stroke-width="2" stroke-miterlimit="10" d="M108.024,384.531l-61.965-17.089
	c0,0,27.157-17.934,40.919-118.508"/>
<line fill="none" stroke="#000000" stroke-width="2" stroke-miterlimit="10" x1="117.046" y1="376.065" x2="160.4" y2="411.384"/>
<polyline fill="none" stroke="#000000" stroke-width="2" stroke-miterlimit="10" points="97.262,395.978 153.429,427.728 
	157.224,429.808 "/>
<path fill="none" stroke="#000000" stroke-width="2" stroke-miterlimit="10" d="M165.708,455.187c0,0,101.083,33.836,222.935-2.874
	l2.171-0.876"/>
<path fill="none" stroke="#000000" stroke-width="2" stroke-miterlimit="10" d="M173.405,481.781c0,0,75.91,29.806,215.239-5.893"/>
<line fill="none" stroke="#000000" stroke-width="2" stroke-miterlimit="10" x1="153.429" y1="520.466" x2="175.775" y2="482.614"/>
<line fill="none" stroke="#000000" stroke-width="2" stroke-miterlimit="10" x1="251.06" y1="469.409" x2="251.06" y2="492.39"/>
<polyline fill="none" stroke="#000000" stroke-width="2" stroke-miterlimit="10" points="311.238,468.31 311.238,489.19 
	311.238,490.385 "/>
<line fill="none" stroke="#000000" stroke-width="2" stroke-miterlimit="10" x1="281.026" y1="550.486" x2="292.51" y2="698"/>
<polyline fill="none" stroke="#000000" stroke-width="2" stroke-miterlimit="10" points="187.509,573.22 189.646,573.22 
	387.797,570.694 "/>
<line fill="none" stroke="#000000" stroke-width="2" stroke-miterlimit="10" x1="191.359" y1="600.521" x2="385.788" y2="598.553"/>
<path fill="none" stroke="#000000" stroke-width="2" stroke-miterlimit="10" d="M181.167,528.262l16.958,120.23
	C145.688,669.709,164.601,698,164.601,698h253.756c0,0,37.455-18.187-39.702-49.508"/>
<polyline fill="none" stroke="#000000" stroke-width="2" stroke-miterlimit="10" points="198.125,648.492 378.656,648.492 
	396.94,520.466 "/>
<ellipse cx="183.666" cy="277.183" rx="11.009" ry="8.588"/>
<ellipse cx="354.432" cy="267.438" rx="10.74" ry="8.947"/>
<g>
	<path d="M247.564,316.733c0,0,0.458,0.512,1.272,1.371c0.813,0.86,2.004,2.053,3.49,3.385c0.75,0.659,1.583,1.344,2.486,2.021
		c0.896,0.687,1.909,1.312,2.959,1.905c1.05,0.604,2.199,1.065,3.37,1.435c1.173,0.377,2.404,0.535,3.623,0.54
		c1.225,0.048,2.434-0.229,3.614-0.542c1.161-0.39,2.308-0.849,3.345-1.468c0.531-0.289,1.043-0.591,1.524-0.932
		c0.482-0.335,0.991-0.622,1.418-0.992c0.446-0.351,0.88-0.692,1.298-1.023c0.406-0.352,0.796-0.692,1.174-1.02
		c0.768-0.647,1.408-1.305,2.013-1.865c0.602-0.562,1.109-1.072,1.522-1.499c0.835-0.846,1.352-1.317,1.352-1.317
		s-0.264,0.608-0.796,1.651c-0.265,0.522-0.579,1.164-1.04,1.847c-0.444,0.694-0.91,1.504-1.574,2.299
		c-0.318,0.408-0.65,0.833-0.995,1.274c-0.393,0.412-0.796,0.838-1.211,1.276c-0.4,0.454-0.911,0.848-1.389,1.285
		c-0.468,0.451-1.034,0.832-1.607,1.228c-0.549,0.42-1.189,0.761-1.841,1.106c-0.627,0.38-1.369,0.621-2.08,0.912
		c-1.474,0.482-3.085,0.841-4.728,0.807c-1.627-0.021-3.266-0.266-4.719-0.806c-1.458-0.517-2.8-1.187-3.938-1.98
		c-1.157-0.775-2.155-1.632-3.015-2.493c-0.885-0.842-1.605-1.719-2.234-2.54c-1.256-1.643-2.075-3.124-2.582-4.178
		C247.764,317.367,247.564,316.733,247.564,316.733z"/>
</g>
<ellipse fill="none" stroke="#000000" stroke-width="2" stroke-miterlimit="10" cx="182.555" cy="278.344" rx="25.177" ry="23.828"/>
<ellipse fill="none" stroke="#000000" stroke-width="2" stroke-miterlimit="10" cx="354.133" cy="269.975" rx="24.058" ry="22.768"/>
<ellipse fill="#FFFFFF" stroke="#000000" stroke-miterlimit="10" cx="186.701" cy="273.365" rx="3.035" ry="3.02"/>
<ellipse fill="#FFFFFF" stroke="#000000" stroke-miterlimit="10" cx="348.652" cy="264.635" rx="2.729" ry="2.803"/>
</svg>
