<?xml version="1.0" encoding="utf-8"?>
<!-- Generator: Adobe Illustrator 16.0.0, SVG Export Plug-In . SVG Version: 6.00 Build 0)  -->
<!DOCTYPE svg PUBLIC "-//W3C//DTD SVG 1.1//EN" "http://www.w3.org/Graphics/SVG/1.1/DTD/svg11.dtd">
<svg version="1.1" id="Layer_1" xmlns="http://www.w3.org/2000/svg" xmlns:xlink="http://www.w3.org/1999/xlink" x="0px" y="0px"
	 width="552px" height="859px" viewBox="0 0 552 859" enable-background="new 0 0 552 859" xml:space="preserve">
<rect fill="#FFFFFF" stroke="#000000" stroke-miterlimit="10" width="552" height="859"/>
<ellipse fill="none" stroke="#010101" stroke-width="2" stroke-miterlimit="10" cx="313.504" cy="246.202" rx="21.152" ry="20.293"/>
<ellipse fill="none" stroke="#010101" stroke-width="2" stroke-miterlimit="10" cx="268.365" cy="250.004" rx="21.154" ry="20.293"/>
<ellipse fill="#FFFFFF" stroke="#010101" stroke-width="2" stroke-miterlimit="10" cx="292.636" cy="273.542" rx="20.868" ry="18.2"/>
<ellipse fill="#030303" cx="308.263" cy="245.3" rx="6.384" ry="6.066"/>
<ellipse fill="#030303" cx="268.432" cy="249.483" rx="6.384" ry="5.858"/>
<ellipse fill="none" stroke="#030303" stroke-width="2" stroke-miterlimit="10" cx="290.492" cy="142.53" rx="33.303" ry="25.261"/>
<path fill="none" stroke="#030303" stroke-width="2" stroke-miterlimit="10" d="M284.632,129.664c0,0-16.15,25.731,7.004,32.792
	c3.858,0.628,24.012-7.845,15.15-24.163c-1.144,2.981-3.288,7.375-6.86,8.786c2.286-6.119,4.716-18.671-3.717-22.594
	c0.572,4.708-1.816,20.868-9.433,21.81C284.918,142.844,282.773,131.704,284.632,129.664z"/>
<path fill="none" stroke="#030303" stroke-width="2" stroke-miterlimit="10" d="M211.739,204.191c0,0-9.148-139.713,75.466-164.049
	c11.434,0,52.597,13.11,64.604,77.126c2.858,11.297,7.433,60.877,6.289,67.781"/>
<line fill="none" stroke="#030303" stroke-width="2" stroke-miterlimit="10" x1="284.862" y1="40.856" x2="284.862" y2="117.635"/>
<path fill="none" stroke="#030303" stroke-width="2" stroke-miterlimit="10" d="M292.886,40.856c0,0,4.104,76.753,6.536,77.339"/>
<path fill="none" stroke="#030303" stroke-width="2" stroke-miterlimit="10" d="M209.071,322.495c0,0-80.42-16.737-28.585-73.012
	c9.528-9.832,53.741-42.885,69.368-55.856c4.954-3.766,64.793-22.594,102.145,0c6.86,5.858,51.071,56.066,56.789,92.885
	c1.527,7.531,4.237,26.436-19.395,38.988"/>
<path fill="none" stroke="#030303" stroke-width="2" stroke-miterlimit="10" d="M205.259,289.022c0,0-31.254,2.092-19.057-30.125
	c1.906-6.276,10.855-26.359,25.248-19.665c-0.093-3.976,12.913-41.013,46.524-6.908"/>
<path fill="none" stroke="#030303" stroke-width="2" stroke-miterlimit="10" d="M386.603,236.961
	c-12.275,0.239-15.928-9.444-16.694-23.067c-2.536,12.58-22.484,20.527-24.389,21.782c-0.572-26.568-27.633-38.911-35.828-41.631
	c5.337,2.72,5.527,12.97,6.099,20.92c-1.335-8.577-15.246-14.225-26.271-18.2c4.029,2.093,5.5,11.506,7.216,23.012
	c-5.527-16.736-24.012-20.083-30.493-20.293c3.622,12.343-2.484,30.714-2.484,30.714"/>
<path fill="none" stroke="#030303" stroke-width="2" stroke-miterlimit="10" d="M247.211,297.077c0,0,19.263,33.577,52.209,27.929
	c12.365-3.138,29.517-12.288,35.233-35.956"/>
<g>
	<path fill="#030303" d="M330.845,282.747c0,0,0.542,0.864,1.355,2.159c0.412,0.616,0.883,1.326,1.446,1.961
		c0.271,0.326,0.59,0.61,0.902,0.846c0.317,0.229,0.637,0.423,0.96,0.496c0.32,0.087,0.647,0.082,0.999,0.03
		c0.346-0.1,0.729-0.187,1.082-0.405c0.185-0.083,0.351-0.204,0.527-0.312c0.178-0.104,0.352-0.211,0.512-0.339
		c0.327-0.237,0.638-0.48,0.926-0.713c0.292-0.225,0.541-0.465,0.785-0.656c0.237-0.202,0.444-0.378,0.614-0.523
		c0.347-0.292,0.563-0.453,0.563-0.453s-0.075,0.253-0.239,0.684c-0.086,0.213-0.179,0.481-0.333,0.76
		c-0.151,0.283-0.295,0.622-0.527,0.945c-0.213,0.338-0.456,0.703-0.774,1.05c-0.305,0.356-0.653,0.729-1.104,1.04
		c-0.425,0.33-0.959,0.622-1.564,0.805c-0.62,0.167-1.327,0.189-1.988,0.016c-0.663-0.178-1.222-0.537-1.672-0.933
		c-0.462-0.393-0.792-0.854-1.08-1.293c-0.57-0.889-0.883-1.782-1.083-2.552C330.748,283.818,330.845,282.747,330.845,282.747z"/>
</g>
<g>
	<path fill="#030303" d="M254.807,282.747c0,0,0.076,0.479,0.107,1.329c0.031,0.848,0.009,2.067-0.207,3.521
		c-0.207,1.453-0.625,3.148-1.417,4.866c-0.405,0.852-0.895,1.717-1.514,2.523c-0.643,0.788-1.374,1.542-2.227,2.167
		c-0.875,0.581-1.815,1.098-2.813,1.38c-0.981,0.342-1.998,0.416-2.955,0.474c-0.479-0.017-0.949-0.018-1.405-0.052
		c-0.449-0.068-0.888-0.135-1.315-0.2c-0.837-0.186-1.625-0.372-2.311-0.646c-0.346-0.128-0.68-0.239-0.99-0.365
		c-0.302-0.143-0.588-0.278-0.857-0.406c-0.542-0.241-0.994-0.49-1.355-0.714c-0.729-0.434-1.132-0.697-1.132-0.697
		s0.476,0.11,1.284,0.329c0.399,0.123,0.894,0.235,1.458,0.36c0.559,0.141,1.193,0.27,1.883,0.381
		c0.685,0.144,1.438,0.187,2.215,0.277c0.389,0.011,0.789,0.023,1.197,0.035c0.405-0.032,0.814-0.04,1.23-0.061
		c0.407-0.07,0.827-0.108,1.236-0.201c0.4-0.124,0.823-0.185,1.213-0.349c0.813-0.244,1.551-0.692,2.253-1.17
		c0.702-0.49,1.324-1.099,1.886-1.75c0.53-0.682,1.047-1.375,1.455-2.118c0.397-0.746,0.786-1.479,1.08-2.216
		c0.303-0.732,0.564-1.442,0.786-2.108c0.431-1.336,0.736-2.486,0.926-3.3C254.715,283.223,254.807,282.747,254.807,282.747z"/>
</g>
<path fill="none" stroke="#030303" stroke-width="2" stroke-miterlimit="10" d="M376.582,248.02c0,0-9.718,2.511-3.811,12.762
	c1.715,2.093,3.43,4.812,3.811,7.741c2.097,2.301,13.147,7.531,8.957-28.033c-0.524-1.987-0.894-3.289-0.894-3.289l-0.034-0.29"/>
<path fill="none" stroke="#030303" stroke-width="2" stroke-miterlimit="10" d="M201.829,257.642c0,0,12.958,3.821,4.574,31.408
	c-0.381,6.667,2.667,38.466,43.069,51.436c15.246,4.603,86.877,12.552,108.804-11.297c7.443-6.694,23.478-16.628,18.307-60.667"/>
<path fill="none" stroke="#030303" stroke-width="2" stroke-miterlimit="10" d="M206.402,336.302c0,0,4.574,17.573,11.054,25.104
	c-2.668,7.113-35.066,113.388-35.066,113.388s-31.253,51.881,8.767,70.709c27.823,11.298,54.122,19.247,89.187,10.46
	c9.527-3.347,9.147-7.113,36.59,1.255c12.958,1.256,83.468,6.694,98.714-41.004c0.383-10.041-5.332-46.441-13.718-74.893
	c-5.337-13.808-28.206-77.33-20.585-95.778c2.67-7.568,5.91-9.242,5.91-9.242c6.573-2.824,21.152-13.389,28.774-22.594
	c28.206-44.35-43.068-111.713-49.929-118.827c-36.59-44.769-112.437-16.736-127.683-7.113
	c-47.964,20.178-74.323,61.923-80.04,70.709C127.506,316.637,206.402,336.302,206.402,336.302
	c-2.096-20.083,11.751-15.836,11.751-15.836"/>
<path fill="none" stroke="#030303" stroke-width="2" stroke-miterlimit="10" d="M373.41,310.022c0,0,24.706-18.488,13.845,26.282
	c0,0,127.873,83.681,101.192,162.34c-9.911,10.041-30.455,15.012-51.836,12.134c-8.766-0.418-14.678,1.257-14.009-16.735
	c-1.237-6.695-8.647-16.088-13.137-22.061"/>
<path fill="none" stroke="#030303" stroke-width="2" stroke-miterlimit="10" d="M429.531,510.365c0,0-13.582,38.381,3.229,41.832
	c4.233,0,14.238-4.079,14.238-19.142c1.716,13.493,8.862,40.795,26.013,34.205c6.575-4.079,11.721-8.786,0-31.066"/>
<path fill="none" stroke="#030303" stroke-width="2" stroke-miterlimit="10" d="M479.633,559.715c0,0,20.82-2.496,8.529-31.052"/>
<path fill="none" stroke="#030303" stroke-width="2" stroke-miterlimit="10" d="M487.311,499.725c0,0,27.105,29.348,4.545,47.501"/>
<path fill="none" stroke="#030303" stroke-width="2" stroke-miterlimit="10" d="M210.951,349.762c0,0-90.687,82.564-98.976,105.785
	c4.288,1.256,60.966,18.902,50.294,51.538"/>
<path fill="none" stroke="#030303" stroke-width="2" stroke-miterlimit="10" d="M103.876,502.407c0,0-50.691-57.32-53.36-63.597
	c-5.717,1.256-7.624,2.929-11.44-4.185c-3.816-11.296,10.296-22.174,16.776-25.713c14.484-4.795,11.434,13.161,11.434,13.161
	s45.737,39.748,49.548,46.442c0,0,4.001,10.879,0,18.725c-4.002,5.647-6.575,7.845-4.859,11.924
	C109.688,500.421,103.876,502.407,103.876,502.407z"/>
<path fill="none" stroke="#030303" stroke-width="2" stroke-miterlimit="10" d="M134.342,425.395c0,0,34.719,4.63,49.198,45.632"/>
<path fill="none" stroke="#030303" stroke-width="2" stroke-miterlimit="10" d="M173.931,384.743c0,0,23.326,12.042,27.899,26.569"
	/>
<path fill="none" stroke="#030303" stroke-width="2" stroke-miterlimit="10" d="M90.702,487.394c0,0-7.884,48.173,18.415,43.466
	c8.004-0.627,19.152-6.59,20.582-15.376"/>
<path fill="none" stroke="#030303" stroke-width="2" stroke-miterlimit="10" d="M111.975,499.165c0,0,15.436,26.047,29.443,12.553
	c6.861-8.159,12.414-32.924-22.95-35.603"/>
<path fill="none" stroke="#030303" stroke-width="2" stroke-miterlimit="10" d="M107.687,531.183c0,0,7.192,24.723,35.16,2.501
	c6.003-8.472,12.814-21.662,3.406-33.269"/>
<path fill="none" stroke="#030303" stroke-width="2" stroke-miterlimit="10" d="M134.342,539.413c0,0,23.37,6.669,29.659-17.729
	c0.571-11.221-0.737-22.669-17.52-23.771"/>
<path fill="none" stroke="#030303" stroke-width="2" stroke-miterlimit="10" d="M207.354,616.243c0,0,48.407,14.197,82.138,3.318"/>
<path fill="none" stroke="#030303" stroke-width="2" stroke-miterlimit="10" d="M169.248,701.121c0,0,94.138,15.721,121.58-7.711"/>
<path fill="none" stroke="#030303" stroke-width="2" stroke-miterlimit="10" d="M302.711,553.378c0,0,1.645,11.929-2.643,14.892
	c-1.144,3.383-2.099,3.801-1.05,6.104c-0.857,3.243-3.561,4.393-1.352,6.903c0.399,1.988-0.755,12.028,2.251,13.598
	c2.723,2.51,2.139,3.138,0,8.943c-1.422,5.021-3.709,14.121,9.012,16.944c7.289,2.825,69.463,2.041,80.326-5.805
	c3.715-5.962,2.287-11.296,0-14.435c0.571-5.021,1.144-6.276,4.287-8.473c3.43-2.51,5.717-6.904,0-10.669
	c-0.858-4.707,1.534-2.511,3.483-6.59c1.946-4.08,1.376-9.415-2.626-11.297c0.571-4.394,0-6.112,2.287-10.117
	c2.001-4.317,1.42-12.283,1.42-12.283"/>
<path fill="none" stroke="#030303" stroke-width="2" stroke-miterlimit="10" d="M304.48,619.257c0,0-4.827,23.735,0,37.96
	c2.924,10.043,5.081,26.779,0,33.892c1.398,3.766-5.459,22.128,9.785,26.126c11.814,1.841,105.381,2.324,108.337-3.952
	c2.955-6.276,1.745-13.437,1.745-13.437s-7.175-43.047-46.051-29.24c-3.049-3.346-3.62-4.654-3.62-4.654s2.095-9.152,3.43-16.685
	c-0.381-5.021-0.191-6.694,1.144-7.531c1.333-1.882,1.716-4.81,0.572-7.111c3.238-2.511,6.29-2.302,5.335-7.113
	c-0.762-4.604-0.157-10.553-0.157-10.553"/>
<path fill="none" stroke="#030303" stroke-width="2" stroke-miterlimit="10" d="M304.667,693.41c0,0,36.905,23.122,119.681,6.436"/>
<path fill="none" stroke="#030303" stroke-width="2" stroke-miterlimit="10" d="M385.255,629.949c0,0,6.002,20.155,50.023,10.741
	c15.437,1.255,52.982,4.393,58.79,35.146c-1.048,10.041,3.646,30.689-70.26,34.068"/>
<path fill="none" stroke="#030303" stroke-width="2" stroke-miterlimit="10" d="M377.686,651.561c0,0,20.052,17.581,58.735,11.515
	c9.337-1.045,50.962-2.438,36.78,20.294c-6.86,5.438-27.291,14.351-49.379,14.078"/>
<path fill="none" stroke="#030303" stroke-width="2" stroke-miterlimit="10" d="M205.923,398.028c0,0,120.732,41.28,179.332-8.654"
	/>
<path fill="none" stroke="#030303" stroke-width="2" stroke-miterlimit="10" d="M184.766,467.013c0,0,117.381,64.923,224.292,2.999"
	/>
<path fill="none" stroke="#030303" stroke-width="2" stroke-miterlimit="10" d="M292.636,345.499c0,0-4.504,194.63-1.062,206.731
	c0,0,1.537,8.336,3.444,12.102c1.905,3.766-1.907,5.021,0.761,6.903c2.668,1.883,2.478,3.767-0.381,10.042
	c1.906,6.694,0.952,7.95-0.572,12.971c-4.001,6.696-2.667,5.648-0.38,8.577c7.814,11.088-4.956,16.737-4.956,16.737
	s-0.381,32.635-2.583,38.911c-7.538,17.573,2.202,26.359,2.202,26.359s0,0,1.524,7.531c4.955,25.522-13.339,24.687-13.339,24.687
	s-77.371,0.418-92.998,0c-16.389-0.418-15.627-8.786-14.865-18.41c9.147-41.004,44.975-30.543,49.548-26.777
	c3.811-11.297-9.338-50.417-11.815-56.065c-5.336-1.883-5.526-5.858-3.958-10.669c2.332-3.766,1.099-5.23-0.045-9.415
	c-13.721-7.113,0.953-12.97,0-16.108c-12.958-2.511-4.765-12.342-1.524-17.154c-3.621-1.467-1.62-7.115-7.562-15.773
	c-11.373-0.813-35.135-14.313-35.135-14.313"/>
<ellipse fill="none" stroke="#030303" stroke-width="2" stroke-miterlimit="10" cx="304.759" cy="381.699" rx="8.745" ry="9.414"/>
<ellipse fill="none" stroke="#030303" stroke-width="2" stroke-miterlimit="10" cx="304.545" cy="456.065" rx="8.959" ry="7.851"/>
<ellipse fill="none" stroke="#030303" stroke-width="2" stroke-miterlimit="10" cx="307.786" cy="522.444" rx="7.622" ry="8.738"/>
<path fill="none" stroke="#030303" stroke-width="2" stroke-miterlimit="10" d="M386.479,394.069c0,0,29.355-10.999,36.124-30.408"
	/>
<path fill="none" stroke="#030303" stroke-width="2" stroke-miterlimit="10" d="M398.051,430.797c0,0,34.736,3.007,54.182-38.003"/>
<path fill="none" stroke="#030303" stroke-width="2" stroke-miterlimit="10" d="M408.414,467.013c0,0,55.949-2.017,73.705-30.8"/>
<path fill="none" stroke="#030303" stroke-width="2" stroke-miterlimit="10" d="M422.603,494.041c0,0,50.727,6.573,69.34-22.654"/>
<path fill="#FFFFFF" stroke="#010101" stroke-width="2" stroke-miterlimit="10" d="M55.23,424.421
	c-3.642,4.583-8.018,6.935-9.775,5.251c-1.756-1.681-0.228-6.76,3.415-11.343c3.643-4.583,8.02-6.936,9.776-5.252
	C60.402,414.759,58.873,419.837,55.23,424.421z"/>
<path fill="none" stroke="#030303" stroke-width="2" stroke-miterlimit="10" d="M111.975,455.547c0,0-0.995,2.771-1.784,5.543"/>
</svg>
