<?xml version="1.0" encoding="utf-8"?>
<!-- Generator: Adobe Illustrator 16.0.0, SVG Export Plug-In . SVG Version: 6.00 Build 0)  -->
<!DOCTYPE svg PUBLIC "-//W3C//DTD SVG 1.1//EN" "http://www.w3.org/Graphics/SVG/1.1/DTD/svg11.dtd">
<svg version="1.1" id="Layer_1" xmlns="http://www.w3.org/2000/svg" xmlns:xlink="http://www.w3.org/1999/xlink" x="0px" y="0px"
	 width="552px" height="859px" viewBox="0 0 552 859" enable-background="new 0 0 552 859" xml:space="preserve">
<rect fill="#FFFFFF" stroke="#000000" stroke-miterlimit="10" width="552" height="859"/>
<ellipse fill="#010101" cx="325.374" cy="190.573" rx="9.438" ry="11.674"/>
<ellipse fill="#010101" cx="279.924" cy="190.573" rx="9.874" ry="11.674"/>
<ellipse fill="#010101" cx="160.66" cy="500.43" rx="6.969" ry="8.248"/>
<ellipse fill="#010101" cx="124.357" cy="501.013" rx="6.874" ry="8.828"/>
<ellipse fill="#010101" cx="174.648" cy="564.233" rx="5.808" ry="7.754"/>
<ellipse fill="#010101" cx="211.967" cy="644.296" rx="5.227" ry="8.189"/>
<ellipse fill="#010101" cx="198.897" cy="660.152" rx="6.099" ry="7.667"/>
<ellipse fill="#010101" cx="211.967" cy="594.637" rx="5.227" ry="6.97"/>
<ellipse fill="#010101" cx="85.635" cy="594.637" rx="5.518" ry="6.97"/>
<ellipse fill="#010101" cx="74.019" cy="660.152" rx="6.099" ry="7.667"/>
<ellipse fill="none" stroke="#231F20" stroke-width="2" stroke-miterlimit="10" cx="117.774" cy="670.258" rx="12.294" ry="15.218"/>
<ellipse fill="none" stroke="#231F20" stroke-width="2" stroke-miterlimit="10" cx="170.437" cy="670.49" rx="12.101" ry="16.379"/>
<ellipse fill="none" stroke="#231F20" stroke-width="2" stroke-miterlimit="10" cx="143.864" cy="516.926" rx="36.592" ry="55.06"/>
<ellipse fill="#010101" cx="98.123" cy="467.559" rx="6.002" ry="7.898"/>
<ellipse fill="#010101" cx="188.056" cy="484.634" rx="4.743" ry="7.55"/>
<ellipse fill="none" stroke="#231F20" stroke-width="2" stroke-miterlimit="10" cx="303.157" cy="185.289" rx="76.67" ry="85.03"/>
<path fill="none" stroke="#231F20" stroke-width="2" stroke-miterlimit="10" d="M379.827,174.021c0,0,11.616-1.394,11.616,16.553
	c-1.16,12.022-1.548,13.828-15.44,21.288"/>
<path fill="none" stroke="#231F20" stroke-width="2" stroke-miterlimit="10" d="M227.58,170.932c0,0-20.841,1.526-18.808,21.996
	c1.743,11.411,13.554,23.367,22.895,23.138"/>
<path fill="none" stroke="#231F20" stroke-width="2" stroke-miterlimit="10" d="M283.99,225.596c0,0,13.067,32.409,34.56,2.788"/>
<path fill="none" stroke="#231F20" stroke-width="2" stroke-miterlimit="10" d="M227.348,172.516c0,0,31.375,8.822,44.735-21.844
	c3.195-5.227,6.378-9.218,11.908,16.727c6.389,8.016,26.719,11.377,34.56,1.62"/>
<path fill="none" stroke="#231F20" stroke-width="2" stroke-miterlimit="10" d="M301.27,157.293c0,0,31.324,30.964,77.884,16.702"/>
<path fill="none" stroke="#231F20" stroke-width="2" stroke-miterlimit="10" d="M213.515,265.671c0,0-29.429-79.918,1.937-122.201
	c13.165-21.373,32.623-55.757,85.818-57.615c15.247,0.93,63.261,9.757,87.27,55.293c6.971,17.191,25.942,55.757,2.904,120.341"/>
<polyline fill="none" stroke="#231F20" stroke-width="2" stroke-miterlimit="10" points="279.924,88.638 278.181,75.633 
	296.768,59.37 315.936,74.003 315.936,88.021 "/>
<path fill="none" stroke="#231F20" stroke-width="2" stroke-miterlimit="10" d="M229.153,122.727c0,0,2.562-72.331,62.968-79.619
	c15.49,0,53.104,10.285,69.217,65.694"/>
<path fill="none" stroke="#231F20" stroke-width="2" stroke-miterlimit="10" d="M247.182,243.388c0,0-5.013,14.387,7.766,26.931
	c12.778,12.544,28.654,37.636,41.431,15.797c5.809-7.899,8.909-9.293,8.909-9.293s7.548,4.182,13.262,11.151
	c6.872,4.646,21.199,6.97,33.979-13.939c8.519-11.616,20.03-28.639,3.431-27.096"/>
<path fill="none" stroke="#231F20" stroke-width="2" stroke-miterlimit="10" d="M246.497,254.246c0,0-35.402-17.499-53.117,57.773
	c-5.809,17.424-40.368,83.635-42.982,89.211c-2.033,8.711,0,27.181,0,27.181s29.332,31.712,56.341,35.196
	c1.452-7.666,23.763-162.578,51.377-190.015"/>
<path fill="none" stroke="#231F20" stroke-width="2" stroke-miterlimit="10" d="M164.086,374.215c0,0,44.526,34.464,52.882,29.869"
	/>
<path fill="none" stroke="#231F20" stroke-width="2" stroke-miterlimit="10" d="M153.689,394.674c0,0,42.933,38.083,58.155,37.827"
	/>
<path fill="none" stroke="#231F20" stroke-width="2" stroke-miterlimit="10" d="M364.37,252.483c0,0,29.978-13.297,47.402,53.612
	c11.617,29.272,27.881,62.03,38.916,75.272c8.132,13.242,8.132,26.484,6.971,43.211c-2.323,4.879-41.24,34.151-51.695,32.06
	c0-13.938-16.642-140.539-53.436-182.604"/>
<path fill="none" stroke="#231F20" stroke-width="2" stroke-miterlimit="10" d="M398.439,402.112c0,0,39.477-20.32,44.556-31.685"/>
<path fill="none" stroke="#231F20" stroke-width="2" stroke-miterlimit="10" d="M403.131,430.489c0,0,50.23-20.569,53.105-36.239"/>
<path fill="none" stroke="#231F20" stroke-width="2" stroke-miterlimit="10" d="M405.964,456.638c0,0,2.323,52.04,0,64.121
	c-5.808-1.395-157.986-17.189-199.225,1.86c-0.194-19.981,0-59.012,0-59.012s-4.274,17.852-10.271,22.685"/>
<path fill="none" stroke="#231F20" stroke-width="2" stroke-miterlimit="10" d="M406.996,482.193c0,0,16.447,26.155,17.167-3.252
	c5.809,5.575,14.044,6.505,18.833,16.727c8.273,2.324,51.507-24.243,13.238-69.271"/>
<path fill="none" stroke="#231F20" stroke-width="2" stroke-miterlimit="10" d="M242.205,515.029v112.365
	c0,0-18.622,6.155-25.012,16.901"/>
<path fill="none" stroke="#231F20" stroke-width="2" stroke-miterlimit="10" d="M374.092,517.433c0,0-6.463,99.507-3.559,109.265
	c5.809,1.394,29.363-4.182,36.463,66.212c-12.067,1.394-202-1.395-202-1.395v-7.318"/>
<line fill="none" stroke="#231F20" stroke-width="2" stroke-miterlimit="10" x1="221.259" y1="678.272" x2="405.127" y2="678.272"/>
<line fill="none" stroke="#231F20" stroke-width="2" stroke-miterlimit="10" x1="242.205" y1="583.254" x2="370.562" y2="583.254"/>
<line fill="none" stroke="#231F20" stroke-width="2" stroke-miterlimit="10" x1="305.996" y1="583.254" x2="306.823" y2="692.79"/>
<line fill="none" stroke="#231F20" stroke-width="2" stroke-miterlimit="10" x1="309.256" y1="583.254" x2="308.095" y2="522.619"/>
<rect x="283.99" y="313.529" fill="none" stroke="#231F20" stroke-width="2" stroke-miterlimit="10" width="47.627" height="29.272"/>
<rect x="283.99" y="368.357" fill="none" stroke="#231F20" stroke-width="2" stroke-miterlimit="10" width="47.627" height="33.756"/>
<line fill="none" stroke="#231F20" stroke-width="2" stroke-miterlimit="10" x1="307.805" y1="278.396" x2="307.805" y2="313.529"/>
<line fill="none" stroke="#231F20" stroke-width="2" stroke-miterlimit="10" x1="307.805" y1="342.801" x2="307.805" y2="368.357"/>
<line fill="none" stroke="#231F20" stroke-width="2" stroke-miterlimit="10" x1="308.095" y1="402.112" x2="308.095" y2="513.632"/>
<path fill="none" stroke="#231F20" stroke-width="2" stroke-miterlimit="10" d="M150.398,428.411c0,0-10.76,20.484-12.205,34.113"/>
<path fill="none" stroke="#231F20" stroke-width="2" stroke-miterlimit="10" d="M158.814,466.674c0,0,27.014-18.051,33.984,7.04
	c5.808,14.984,7.26,34.499,0,29.272c-3.775-5.575-14.26-24.549-18.893-17.501"/>
<path fill="none" stroke="#231F20" stroke-width="2" stroke-miterlimit="10" d="M127.651,467.559c0,0-44.049-35.313-42.016,24.625
	c3.485,10.106,5.809,19.863,12.488,3.137c5.809-13.243,12.996-19.077,17.389-13.198"/>
<path fill="none" stroke="#231F20" stroke-width="2" stroke-miterlimit="10" d="M130.069,522.619h22.362
	c0,0-0.581,13.125-8.567,18.352C140.524,543.062,134.135,538.766,130.069,522.619z"/>
<path fill="none" stroke="#231F20" stroke-width="2" stroke-miterlimit="10" d="M113.866,548.444c0,0-66.856,39.223-15.743,99.161"
	/>
<path fill="none" stroke="#231F20" stroke-width="2" stroke-miterlimit="10" d="M106.608,663.917c0,0-20.126-45.323-11.97-76.25
	c3.098-12.545,7.745-25.555,15.488,0c8.132,24.627,17.231,58.174,14.23,69.743"/>
<path fill="none" stroke="#231F20" stroke-width="2" stroke-miterlimit="10" d="M163.858,656.746c0,0-1.747-50.703,16.598-77.082
	c3.244-6.4,14.86-14.955,13.698,18.361c-1.162,24.49-6.911,58.874-11.781,69.793"/>
<path fill="none" stroke="#231F20" stroke-width="2" stroke-miterlimit="10" d="M173.86,548.444c0,0,61.716,34.926,14.675,95.852"/>
<path fill="none" stroke="#231F20" stroke-width="2" stroke-miterlimit="10" d="M205.635,592.391c0,0,18.819-16.571,19.69-31.208
	c3.485,11.5,4.356,35.197-8.132,53.666"/>
<path fill="none" stroke="#231F20" stroke-width="2" stroke-miterlimit="10" d="M206.213,605.365c0,0,22.002,3.908,10.393,45.028
	c2.621,3.834,28.415,19.864-3.505,32.061c-13.042,1.742-26.321,2.586-31.442-5.852"/>
<path fill="none" stroke="#231F20" stroke-width="2" stroke-miterlimit="10" d="M78.895,604.396c0,0-24.526,13.473-9.038,48.089
	c0,0-37.948,19.705,5.808,31.109c12.003-1.141,22.121-0.17,30.13-9.949"/>
<path fill="none" stroke="#231F20" stroke-width="2" stroke-miterlimit="10" d="M69.856,652.485c0,0,29.235-2.066,35.938,9.508"/>
<path fill="none" stroke="#231F20" stroke-width="2" stroke-miterlimit="10" d="M130.022,669.009c0,0,26.193-1.249,28.367,0"/>
</svg>
