<?xml version="1.0" encoding="utf-8"?>
<!-- Generator: Adobe Illustrator 16.0.0, SVG Export Plug-In . SVG Version: 6.00 Build 0)  -->
<!DOCTYPE svg PUBLIC "-//W3C//DTD SVG 1.1//EN" "http://www.w3.org/Graphics/SVG/1.1/DTD/svg11.dtd">
<svg version="1.1" id="Layer_1" xmlns="http://www.w3.org/2000/svg" xmlns:xlink="http://www.w3.org/1999/xlink" x="0px" y="0px"
	 width="552px" height="859px" viewBox="0 0 552 859" enable-background="new 0 0 552 859" xml:space="preserve">
<rect fill="#FFFFFF" stroke="#000000" stroke-miterlimit="10" width="552" height="859"/>
<ellipse fill="none" stroke="#010101" stroke-width="2" stroke-miterlimit="10" cx="194.116" cy="193.812" rx="23.868" ry="31.398"/>
<ellipse fill="#010101" cx="194.886" cy="197.315" rx="8.535" ry="15.16"/>
<ellipse fill="#FFFFFF" cx="196.12" cy="193.877" rx="5.126" ry="6.726"/>
<ellipse fill="#010101" cx="290.713" cy="195.859" rx="8.533" ry="15.159"/>
<ellipse fill="#FFFFFF" cx="290.713" cy="193.877" rx="5.126" ry="6.726"/>
<path fill="none" stroke="#010101" stroke-width="2" stroke-miterlimit="10" d="M132.739,175.608c0,0,25.892-19.285,18.879-61.911
	c5.934,5.074,26.43,26.896,84.687,17.253c5.394-2.029,11.597-1.459,8.563,3.489c-0.404,5.329,0.404,13.004,4.855,10.212
	c2.831-2.029,63.716-37.615,73.629-21.25c1.819,3.616,2.831,10.276,6.675,9.705c2.427-0.571,10.72-1.142,13.147-9.134
	c2.429,0.381,11.798,18.143,16.112,42.5c3.778,8.88,16.724,25.374,31.019,18.015c1.347-1.777-1.316-17.888,12.642-17.698
	c3.743,0.096,30.242,1.466,21.342,33.814c-3.504,7.734-18.069,23.974-31.556,22.451c-0.267,3.045,3.983,61.656-93.484,95.147
	c-9.545,3.044-82.902,26.894-144.933-30.955c-6.473-7.105-23.194-26.895-29.666-52.268c-5.935-1.522-24.004-6.817-25.217-39.121
	C99.431,189.435,110.625,167.488,132.739,175.608z"/>
<path fill="none" stroke="#010101" stroke-width="2" stroke-miterlimit="10" d="M128.154,185.249c0,0-6.877,24.739-3.236,37.298
	C118.85,219.121,90.936,187.151,128.154,185.249z"/>
<path fill="none" stroke="#010101" stroke-width="2" stroke-miterlimit="10" d="M402.582,180.698c0,0,41.189,0.157-4.994,32.794
	C399.666,205.79,403.827,192.655,402.582,180.698z"/>
<path fill="none" stroke="#010101" stroke-width="2" stroke-miterlimit="10" d="M132.739,175.608c0,0-36.949-87.029,28.588-127.372
	c14.564-6.851,62.302-13.701,105.994-6.09c12.137,3.807,51.783,12.179,75.651,2.665c7.688-2.283,26.701-3.425,38.433,3.425
	c1.619,2.283-19.015,12.179-3.642,30.828c7.687,5.708,27.107,19.791,24.274,55.947c-1.619,13.321-2.631,22.835,0.909,31.779"/>
<ellipse fill="none" stroke="#010101" stroke-width="2" stroke-miterlimit="10" cx="287.513" cy="189.954" rx="23.868" ry="30.965"/>
<g>
	<path fill="#010101" d="M262.768,161.651c0,0,0.564-0.838,1.756-2.146c1.187-1.309,3.008-3.089,5.489-4.877
		c1.248-0.878,2.63-1.808,4.202-2.603c1.557-0.818,3.258-1.594,5.103-2.17c1.829-0.616,3.789-1.069,5.808-1.324
		c0.506-0.053,1.015-0.107,1.524-0.16c0.51-0.048,1.025-0.043,1.54-0.067c1.03-0.066,2.063,0.016,3.097,0.05
		c1.03,0.078,2.055,0.232,3.072,0.375c1.003,0.224,2.021,0.371,2.993,0.659c1.964,0.51,3.834,1.213,5.587,1.993
		c0.861,0.423,1.749,0.758,2.541,1.233c0.801,0.455,1.584,0.899,2.346,1.332c1.462,0.963,2.863,1.84,4.042,2.805
		c0.602,0.466,1.186,0.9,1.724,1.334c0.518,0.458,1.009,0.893,1.471,1.302c0.459,0.409,0.889,0.792,1.285,1.146
		c0.376,0.377,0.722,0.723,1.033,1.036c1.227,1.264,1.927,1.987,1.927,1.987s-0.796-0.614-2.188-1.688
		c-0.346-0.269-0.728-0.567-1.145-0.892c-0.43-0.306-0.894-0.637-1.391-0.991c-0.494-0.354-1.02-0.73-1.573-1.127
		c-0.572-0.37-1.173-0.758-1.8-1.164c-1.229-0.845-2.665-1.587-4.127-2.451c-1.521-0.76-3.117-1.559-4.831-2.238
		c-1.702-0.703-3.52-1.261-5.378-1.744c-0.925-0.264-1.888-0.387-2.836-0.59c-0.961-0.124-1.927-0.256-2.896-0.322
		c-0.97-0.042-1.94-0.134-2.908-0.081c-0.483,0.018-0.968,0.005-1.448,0.045c-0.479,0.045-0.958,0.09-1.434,0.134
		c-1.897,0.232-3.766,0.55-5.519,1.087c-1.761,0.5-3.428,1.127-4.965,1.827c-1.545,0.687-2.946,1.47-4.226,2.221
		c-2.538,1.542-4.516,3.071-5.844,4.208C263.462,160.919,262.768,161.651,262.768,161.651z"/>
</g>
<g>
	<path fill="#010101" d="M162.946,174.211c0,0,0.251-0.976,0.883-2.626c0.647-1.639,1.662-3.968,3.273-6.56
		c0.793-1.303,1.752-2.657,2.857-4.025c1.138-1.339,2.387-2.73,3.878-3.971c1.496-1.22,3.104-2.458,4.958-3.354
		c1.827-0.925,3.798-1.688,5.853-2.096c2.046-0.466,4.152-0.533,6.196-0.473c2.045,0.132,4.031,0.486,5.888,1.01
		c1.873,0.489,3.588,1.213,5.199,1.908c0.782,0.393,1.543,0.775,2.28,1.146c0.745,0.353,1.393,0.82,2.051,1.199
		c0.644,0.405,1.283,0.756,1.849,1.155c0.561,0.404,1.093,0.788,1.593,1.147c0.497,0.362,0.962,0.7,1.393,1.012
		c0.408,0.341,0.784,0.654,1.123,0.937c1.34,1.141,2.106,1.792,2.106,1.792s-0.851-0.534-2.339-1.469
		c-0.368-0.236-0.776-0.498-1.22-0.783c-0.457-0.262-0.952-0.545-1.48-0.848c-0.526-0.302-1.086-0.624-1.677-0.963
		c-0.593-0.333-1.242-0.635-1.903-0.976c-1.31-0.711-2.807-1.301-4.359-1.976c-1.59-0.577-3.271-1.161-5.052-1.576
		c-1.774-0.45-3.646-0.663-5.539-0.787c-1.894-0.031-3.827,0.052-5.694,0.499c-1.886,0.348-3.699,1.029-5.396,1.862
		c-1.712,0.814-3.27,1.88-4.712,2.989c-1.433,1.13-2.707,2.369-3.872,3.59c-1.123,1.26-2.158,2.488-3.032,3.688
		c-1.762,2.393-3.019,4.554-3.861,6.086C163.356,173.291,162.946,174.211,162.946,174.211z"/>
</g>
<g>
	<path fill="#010101" d="M225.248,241.831c0,0,0.336,0.538,1.006,1.403c0.666,0.866,1.67,2.059,3.018,3.305
		c0.685,0.609,1.439,1.25,2.296,1.829c0.858,0.575,1.794,1.127,2.814,1.561c1.017,0.439,2.109,0.784,3.245,0.978
		c0.561,0.138,1.148,0.146,1.726,0.219c0.585-0.011,1.17,0.052,1.758-0.023l0.882-0.053l0.876-0.13
		c0.587-0.064,1.159-0.228,1.73-0.361c1.134-0.307,2.25-0.66,3.297-1.105c0.538-0.188,1.027-0.47,1.533-0.688
		c0.505-0.221,0.991-0.458,1.45-0.722c0.936-0.49,1.803-0.994,2.595-1.483c0.807-0.465,1.502-0.965,2.146-1.373
		c0.643-0.41,1.187-0.794,1.634-1.112c0.902-0.629,1.434-0.978,1.434-0.978s-0.417,0.472-1.175,1.28
		c-0.38,0.404-0.836,0.901-1.417,1.41c-0.574,0.517-1.193,1.14-1.959,1.71c-0.375,0.297-0.767,0.607-1.171,0.928
		c-0.417,0.306-0.87,0.591-1.326,0.902c-0.451,0.318-0.936,0.613-1.445,0.896c-0.506,0.29-1.018,0.594-1.577,0.836
		c-1.096,0.522-2.264,1.023-3.514,1.362c-0.627,0.16-1.253,0.348-1.91,0.436l-0.978,0.163l-0.995,0.078
		c-0.663,0.068-1.334-0.007-1.998-0.013c-0.66-0.09-1.327-0.121-1.967-0.286c-1.3-0.234-2.51-0.74-3.625-1.283
		c-1.126-0.537-2.093-1.258-2.963-1.965c-0.88-0.704-1.593-1.491-2.223-2.225c-1.249-1.485-2.04-2.887-2.527-3.886
		C225.431,242.439,225.248,241.831,225.248,241.831z"/>
</g>
<path fill="none" stroke="#010101" stroke-width="2" stroke-miterlimit="10" d="M203.42,271.77c0,0,57.893,15.478,84.09,0
	c0.575,0.507-36.104,60.951-81.952,6.879C203.94,276.845,202.36,274.624,203.42,271.77z"/>
<polyline fill="none" stroke="#010101" stroke-width="2" stroke-miterlimit="10" points="227.747,323.754 245.298,428.066 
	193.288,385.82 209.47,366.41 183.174,357.276 196.941,315.001 "/>
<polyline fill="none" stroke="#010101" stroke-width="2" stroke-miterlimit="10" points="292.1,320.314 264.895,428.066 
	321.531,385.82 303.73,364.507 332.051,353.85 316.152,311.734 "/>
<path fill="none" stroke="#010101" stroke-width="2" stroke-miterlimit="10" d="M231.16,344.039c0,0,13.506,5.533,24.025-18.397"/>
<path fill="none" stroke="#010101" stroke-width="2" stroke-miterlimit="10" d="M259.238,325.44c0,0,14.901,32.978,28.281,16.993"/>
<polyline fill="none" stroke="#010101" stroke-width="2" stroke-miterlimit="10" points="240.157,343.46 247.498,356.895 
	239.323,392.564 "/>
<polyline fill="none" stroke="#010101" stroke-width="2" stroke-miterlimit="10" points="273.376,344.561 264.895,358.417 
	272.354,398.51 "/>
<path fill="none" stroke="#010101" stroke-width="2" stroke-miterlimit="10" d="M245.298,428.066c0,0,3.598,106.313,0,142.849
	c-13.307,1.015-86.667-1.014-95.836-10.657c3.236-6.089,8.09-42.625,5.934-83.729c1.08-22.836-1.08-46.18,4.315-60.389
	c-3.775,6.597-39.375,66.984-42.612,70.029c-5.394-1.016-16.048-7.294-26.769-8.438c-8.496-1.902-18.002-4.186-19.014-8.183
	c0.606-1.903,49.441-134.153,115.037-159.497"/>
<path fill="none" stroke="#010101" stroke-width="2" stroke-miterlimit="10" d="M326.079,307.215c0,0,42.786,15.808,51.28,23.039
	c6.879,5.329,36.006,23.124,77.271-4.612c1.619,4.612,14.969,44.575,12.541,49.142c-4.045,2.284-61.896,39.581-109.229,4.947
	c0.809,10.275,2.428,69.395-1.35,99.843c-1.618,14.716-4.313,71.043,2.699,80.177c-5.397,3.554-39.528,17.724-90.157,11.4
	c-1.004-5.818-4.24-143.084-4.24-143.084"/>
<polyline fill="none" stroke="#010101" stroke-width="2" stroke-miterlimit="10" points="246.643,485.534 255.589,503.424 
	266.245,482.5 "/>
<line fill="none" stroke="#010101" stroke-width="2" stroke-miterlimit="10" x1="246.897" y1="517.76" x2="267.193" y2="517.76"/>
<line fill="none" stroke="#010101" stroke-width="2" stroke-miterlimit="10" x1="246.822" y1="532.604" x2="267.623" y2="532.604"/>
<path fill="none" stroke="#010101" stroke-width="2" stroke-miterlimit="10" d="M73.392,472.155c0,0-2.28,4.881-2.077,6.909
	c-4.114,2.791-30.274,14.463-25.419,24.359c3.236,2.283,12.136,0.76,18.879-6.09c-1.348,5.834-17.801,27.528-11.598,32.985
	c2.157,1.015,10.493-0.002,20.216-20.554c-1.875,4.566-14.013,26.134-6.46,29.179c4.045,0.507,10.787-2.791,19.957-23.597
	c-1.888,6.597-12.136,23.344-1.348,25.372c2.158-0.253,9.44-0.761,19.958-35.522c2.157,2.538,10.788,13.194,16.182,8.627
	c1.08-1.521,5.846-6.389-10.519-20.862c2.158-1.719,3.39-4.616,3.667-7.401"/>
<path fill="none" stroke="#010101" stroke-width="2" stroke-miterlimit="10" d="M71.315,479.064c0,0,25.891,8.766,39.849,13.897"/>
<path fill="none" stroke="#010101" stroke-width="2" stroke-miterlimit="10" d="M455.656,328.657c0,0,6.458-0.971,8.684-3.016
	c0.81,3.852,13.552,43.242,13.552,43.242s-5.663,5.329-9.507,4.758"/>
<path fill="none" stroke="#010101" stroke-width="2" stroke-miterlimit="10" d="M465.852,330.935l0.922-2.203
	c0,0-3.243-27.403,7.882-26.451c4.855,1.712,6.877,6.279,7.889,20.171c3.237-3.235,29.128-19.22,33.983-7.232
	c0,5.138-1.82,7.232-2.63,8.374c2.832,0.19,11.731,5.899,2.63,13.13c3.236,0.19,12.743,6.47,2.426,14.272
	c1.822,0.951,8.9,7.802-2.224,13.321c-4.652,1.332-23.868,3.045-29.532,0c-4.855-0.38-10.499,0.871-10.499,0.871"/>
<path fill="none" stroke="#010101" stroke-width="2" stroke-miterlimit="10" d="M166.026,566.059c0,0-18.185,72.347-14.408,98.227
	c-4.855,4.061-48.546,39.58-4.315,40.598c29.128,2.536,69.583,7.61,73.358-10.657c2.159-9.642-3.775-23.343-3.775-23.343"/>
<path fill="none" stroke="#010101" stroke-width="2" stroke-miterlimit="10" d="M151.619,664.285c0,0,27.509,3.302,37.757,6.599
	c10.52,3.046,27.51,1.777,29.667-1.521c-0.271-3.554-4.555-69.014,38.178-106.565c6.591,9.134,36.257,53.191,36.797,109.818
	c6.068,0.36,29.734,1.313,37.22-3.825c5.663-1.713,14.968-5.899,28.925-4.567c0-4.187-1.069-76.633-16.616-98.164"/>
<path fill="none" stroke="#010101" stroke-width="2" stroke-miterlimit="10" d="M295.891,672.714c0,0-15.623,27.602,8.109,31.662
	c14.027,2.536,79.834,6.597,83.338-8.882c-0.269-7.865-0.135-18.142-27.171-31.271"/>
<ellipse fill="none" stroke="#010101" stroke-width="2" stroke-miterlimit="10" cx="236.777" cy="460.226" rx="4.653" ry="5.138"/>
<ellipse fill="none" stroke="#010101" stroke-width="2" stroke-miterlimit="10" cx="236.777" cy="497.05" rx="4.653" ry="4.089"/>
<ellipse fill="none" stroke="#010101" stroke-width="2" stroke-miterlimit="10" cx="236.777" cy="531.777" rx="4.653" ry="5.138"/>
<ellipse fill="none" stroke="#010101" stroke-width="2" stroke-miterlimit="10" cx="119.727" cy="462.764" rx="4.248" ry="3.996"/>
<ellipse fill="none" stroke="#010101" stroke-width="2" stroke-miterlimit="10" cx="113.118" cy="475.515" rx="4.248" ry="4.313"/>
<ellipse fill="none" stroke="#010101" stroke-width="2" stroke-miterlimit="10" cx="448.258" cy="339.103" rx="4.552" ry="4.092"/>
<ellipse fill="none" stroke="#010101" stroke-width="2" stroke-miterlimit="10" cx="436.02" cy="344.812" rx="4.451" ry="3.902"/>
</svg>
