<?xml version="1.0" encoding="utf-8"?>
<!-- Generator: Adobe Illustrator 16.0.0, SVG Export Plug-In . SVG Version: 6.00 Build 0)  -->
<!DOCTYPE svg PUBLIC "-//W3C//DTD SVG 1.1//EN" "http://www.w3.org/Graphics/SVG/1.1/DTD/svg11.dtd">
<svg version="1.1" id="Layer_1" xmlns="http://www.w3.org/2000/svg" xmlns:xlink="http://www.w3.org/1999/xlink" x="0px" y="0px"
	 width="552px" height="859px" viewBox="0 0 552 859" enable-background="new 0 0 552 859" xml:space="preserve">
<rect x="0" fill="#FFFFFF" stroke="#000000" stroke-miterlimit="10" width="552" height="859"/>
<path fill="none" stroke="#000000" stroke-width="2" stroke-miterlimit="10" d="M73.293,196.05c0,0-15.829-109.997,96.732-133.306
	c8.794-1.457,109.043-26.224,142.459,101.982c0,0,1.726,5.79,2.248,8.065"/>
<path fill="none" stroke="#000000" stroke-width="2" stroke-miterlimit="10" d="M322.159,179.386c0,0-65.092-67.681-171.15-31.415
	c-14.18,6.283-95.963,42.887-86.729,79.765c0,0-3.958-39.335,114.1-61.189c15.499-2.185,75.847-16.39,127.621,2.731L322.159,179.386
	z"/>
<polyline fill="none" stroke="#000000" stroke-width="2" stroke-miterlimit="10" points="162.976,144.22 152.438,77.312 
	192.857,71.484 204.322,136.285 "/>
<path fill="none" stroke="#000000" stroke-width="2" stroke-miterlimit="10" d="M293.141,166.272c0,0-0.99,27.318,4.286,28.684
	c6.266-2.458,11.872-12.597,17.478-12.446c1.979,0.153,33.308-7.496,24.733,23.646c-1.648,3.824-8.244,25.951-33.637,15.57
	c-0.989,5.19-11.872,55.727-74.858,74.302c-10.223,2.731-83.762,28.409-137.184-36.058"/>
<g>
	<path d="M63.556,254.324c0,0-0.186-0.392-0.421-1.113c-0.233-0.721-0.511-1.775-0.644-3.092c-0.056-0.659-0.096-1.385-0.023-2.162
		c0.074-0.775,0.21-1.614,0.552-2.451c0.328-0.833,0.869-1.695,1.659-2.332c0.784-0.644,1.751-1.053,2.714-1.249
		c0.963-0.131,1.923-0.148,2.812-0.007l0.668,0.09l0.637,0.16c0.424,0.1,0.835,0.212,1.225,0.355c0.8,0.237,1.52,0.578,2.205,0.884
		c0.682,0.312,1.292,0.667,1.863,0.977c0.556,0.334,1.054,0.658,1.493,0.946c0.442,0.281,0.799,0.575,1.103,0.796
		c0.6,0.457,0.931,0.733,0.931,0.733s-0.415-0.13-1.12-0.383c-0.697-0.253-1.693-0.615-2.888-1.049
		c-0.596-0.195-1.24-0.405-1.923-0.628c-0.684-0.197-1.401-0.41-2.141-0.58c-0.369-0.103-0.746-0.171-1.126-0.227
		c-0.381-0.071-0.763-0.124-1.143-0.154c-0.768-0.105-1.521-0.05-2.235,0.055c-1.418,0.24-2.511,1.082-3.13,2.334
		c-0.624,1.243-0.857,2.668-0.988,3.889c-0.104,1.23-0.121,2.29-0.109,3.032C63.533,253.892,63.556,254.324,63.556,254.324z"/>
</g>
<path fill="none" stroke="#000000" stroke-width="2" stroke-miterlimit="10" d="M316.444,225.188c0,0-14.262,23.397-26.477,31.275"
	/>
<g>
	<path d="M197.177,192.771c0,0,1,0.925,2.627,2.666c1.605,1.758,3.912,4.275,6.378,7.551c1.236,1.634,2.533,3.442,3.793,5.434
		c1.263,1.989,2.526,4.143,3.626,6.49c1.096,2.344,2.102,4.86,2.692,7.571c0.578,2.694,0.836,5.614,0.155,8.472
		c-0.207,0.703-0.375,1.417-0.704,2.079c-0.155,0.333-0.276,0.682-0.46,0.999l-0.569,0.942c-0.198,0.332-0.349,0.568-0.565,0.872
		c-0.21,0.302-0.422,0.581-0.637,0.86c-0.433,0.555-0.893,1.083-1.366,1.595c-1.901,2.038-4.186,3.676-6.641,4.749
		c-2.451,1.095-5.094,1.488-7.522,1.35c-2.445-0.102-4.664-0.782-6.582-1.585c-1.933-0.795-3.556-1.802-4.927-2.759
		c-0.691-0.473-1.32-0.937-1.878-1.396c-0.573-0.439-1.082-0.862-1.524-1.264c-0.915-0.768-1.566-1.445-2.02-1.893
		c-0.453-0.448-0.695-0.688-0.695-0.688s0.267,0.211,0.767,0.606c0.495,0.4,1.231,0.975,2.19,1.669
		c0.47,0.36,1.006,0.736,1.606,1.121c0.585,0.405,1.24,0.809,1.953,1.214c1.417,0.819,3.066,1.656,4.943,2.317
		c1.873,0.651,3.98,1.157,6.215,1.164c2.228,0.028,4.566-0.438,6.752-1.465c2.196-1.012,4.206-2.587,5.949-4.457
		c0.871-0.964,1.651-1.925,2.328-3.074l0.476-0.8c0.155-0.269,0.25-0.569,0.38-0.851c0.279-0.559,0.408-1.177,0.588-1.776
		c0.61-2.443,0.42-5.083-0.097-7.595c-0.539-2.52-1.391-4.962-2.404-7.249c-2.03-4.582-4.523-8.613-6.753-11.991
		c-2.254-3.368-4.271-6.098-5.741-7.961C198.049,193.816,197.177,192.771,197.177,192.771z"/>
</g>
<g>
	<path d="M170.905,262.338c0,0,0.205,0.202,0.608,0.556c0.397,0.361,1.009,0.857,1.78,1.491c1.548,1.261,3.872,2.927,6.82,4.613
		c1.472,0.846,3.112,1.675,4.891,2.434c1.769,0.786,3.709,1.415,5.727,1.977c2.023,0.565,4.169,0.859,6.345,1.093
		c1.094,0.022,2.196,0.158,3.302,0.08l1.662-0.056l1.656-0.186c1.111-0.069,2.192-0.357,3.286-0.531
		c1.077-0.258,2.146-0.545,3.195-0.861c0.517-0.186,1.032-0.37,1.544-0.554c0.514-0.181,1.033-0.34,1.52-0.575
		c0.978-0.455,1.988-0.816,2.906-1.331c0.922-0.507,1.854-0.961,2.724-1.485c0.865-0.536,1.71-1.061,2.534-1.571
		c1.563-1.148,3.11-2.156,4.4-3.27c0.662-0.537,1.297-1.052,1.9-1.542c0.58-0.52,1.129-1.013,1.646-1.477
		c0.518-0.465,1.003-0.9,1.451-1.302c0.436-0.416,0.817-0.816,1.171-1.169c1.415-1.415,2.249-2.21,2.249-2.21
		s-0.697,0.908-1.961,2.474c-0.32,0.388-0.664,0.828-1.059,1.288c-0.41,0.448-0.853,0.932-1.326,1.449
		c-0.475,0.519-0.98,1.071-1.513,1.652c-0.574,0.542-1.178,1.112-1.808,1.707c-1.229,1.229-2.731,2.37-4.288,3.62
		c-0.822,0.569-1.666,1.155-2.529,1.753c-0.866,0.597-1.832,1.082-2.771,1.643c-1.925,1.044-3.998,1.989-6.189,2.736
		c-1.103,0.345-2.229,0.66-3.366,0.944c-1.156,0.198-2.299,0.512-3.478,0.597l-1.759,0.178l-1.765,0.042
		c-1.174,0.068-2.341-0.082-3.499-0.121c-2.304-0.253-4.551-0.682-6.654-1.324c-2.103-0.635-4.083-1.413-5.871-2.315
		c-0.911-0.418-1.75-0.914-2.576-1.362c-0.796-0.501-1.584-0.951-2.296-1.452c-2.903-1.924-5.031-3.898-6.476-5.296
		c-0.722-0.703-1.244-1.299-1.599-1.705S170.905,262.338,170.905,262.338z"/>
</g>
<path fill="none" stroke="#000000" stroke-width="2" stroke-miterlimit="10" d="M158.323,300.47l-5.885,2.888
	c0,0-105.582,46.392-101.597,91.555c0.467,6.556,4.216,60.46,21.688,68.474c8.678,1.458,26.266,0.73,36.818-5.098
	c0,0,1.524-1.869,2.687-2.208"/>
<path fill="none" stroke="#000000" stroke-width="2" stroke-miterlimit="10" d="M139.094,309.739c0,0,7.629,52.171-3.363,73.956
	c-3.077,8.673-7.474,35.261-3.077,44.73l0.683,2.758"/>
<path fill="none" stroke="#000000" stroke-width="2" stroke-miterlimit="10" d="M167.107,302.08l0.391,1.277l6.925,63.695
	c0,0,58.369,4.098,86.4-9.015c0-8.195-8.886-70.092-8.886-70.092"/>
<path fill="none" stroke="#000000" stroke-width="2" stroke-miterlimit="10" d="M260.823,283.044c0,0,30.338,6.975,106.185-68.966
	c7.255-4.371,27.041-23.493,34.296-11.473l1.776,3.96"/>
<path fill="none" stroke="#000000" stroke-width="2" stroke-miterlimit="10" d="M392.072,208.068c0,0,17.147,52.084,52.763,57.729
	c0,0-42.646,64.649-128.391,99.069"/>
<path fill="none" stroke="#000000" stroke-width="2" stroke-miterlimit="10" d="M433.622,172.557
	c-14.511-34.966-22.424-16.937-25.063-9.836s-0.66,18.578,0,22.949c-5.276,15.844-9.007,39.519-9.007,39.519
	s-74.918,65.283-117.049,78.17"/>
<path fill="none" stroke="#000000" stroke-width="2" stroke-miterlimit="10" d="M433.622,166.272c0,0,51.443-51.627,23.084,7.923
	c0,6.556-5.058,20.578,13.851,5.281c5.714-2.185,35.393-24.585,11.871,17.665c-2.419,5.463-14.18,18.849,4.287,14.478
	c7.914,0.546,35.285-0.321-3.958,23.195c-6.924,3.302-9.232,2.482-17.807,11.224c-3.957,4.097-17.878,17.351-37.134,13.045"/>
<path fill="none" stroke="#000000" stroke-width="2" stroke-miterlimit="10" d="M436.92,202.72c0,0-1.061,22.831-9.104,29.388"/>
<g>
	<path d="M311.951,202.605c0,0,0.133-0.334,0.465-0.869c0.16-0.273,0.38-0.584,0.646-0.937c0.277-0.339,0.587-0.736,0.983-1.112
		c0.199-0.189,0.406-0.387,0.62-0.591c0.221-0.2,0.479-0.368,0.73-0.563c0.493-0.404,1.103-0.714,1.721-1.051
		c0.663-0.241,1.322-0.598,2.076-0.708c0.371-0.065,0.739-0.189,1.122-0.203l1.155-0.041c0.388-0.033,0.766,0.053,1.145,0.105
		c0.378,0.057,0.755,0.12,1.123,0.194c0.703,0.248,1.405,0.49,2.034,0.791c0.61,0.341,1.18,0.705,1.713,1.042
		c0.49,0.396,0.927,0.8,1.327,1.166c0.198,0.185,0.396,0.353,0.567,0.528c0.154,0.193,0.3,0.377,0.438,0.549
		c0.276,0.34,0.501,0.649,0.688,0.899c0.368,0.504,0.56,0.8,0.56,0.8s-0.316-0.182-0.837-0.515c-0.259-0.168-0.574-0.367-0.916-0.61
		c-0.173-0.119-0.356-0.246-0.549-0.38c-0.205-0.113-0.421-0.232-0.646-0.357c-0.449-0.245-0.925-0.515-1.415-0.809
		c-0.53-0.217-1.084-0.437-1.635-0.698c-0.567-0.214-1.185-0.314-1.775-0.518c-0.308-0.038-0.617-0.076-0.928-0.114
		c-0.31-0.038-0.619-0.111-0.932-0.073l-0.935,0.015c-0.312,0.006-0.615,0.09-0.922,0.129c-0.619,0.058-1.2,0.282-1.784,0.43
		c-0.546,0.255-1.126,0.409-1.617,0.697c-0.511,0.249-0.981,0.517-1.416,0.78c-0.857,0.537-1.566,1.04-2.046,1.418
		C312.222,202.367,311.951,202.605,311.951,202.605z"/>
</g>
<path fill="none" stroke="#000000" stroke-width="2" stroke-miterlimit="10" d="M278.017,280.069c0,0,6.989,61.852,38.428,84.797
	c1.758,6.556,18.906,50.263,18.906,50.263l1.937,3.956"/>
<ellipse fill="none" stroke="#000000" stroke-width="2" stroke-miterlimit="10" cx="136.829" cy="213.896" rx="5.936" ry="11.291"/>
<ellipse fill="none" stroke="#000000" stroke-width="2" stroke-miterlimit="10" cx="248.126" cy="200.01" rx="5.441" ry="11.063"/>
<path fill="none" stroke="#000000" stroke-width="2" stroke-miterlimit="10" d="M105.221,328.892c0,0,26.199,26.274,33.851,45.193"
	/>
<path fill="none" stroke="#000000" stroke-width="2" stroke-miterlimit="10" d="M70.928,355.32c0,0,15.582-3.565,59.869,43.419"/>
<path fill="none" stroke="#000000" stroke-width="2" stroke-miterlimit="10" d="M51.437,402.126c0,0,24.076,16.243,79.796,5.335"/>
<path fill="none" stroke="#000000" stroke-width="2" stroke-miterlimit="10" d="M61.925,450.424c0,0,39.948-3.606,51.161-9.616"/>
<path fill="none" stroke="#000000" stroke-width="2" stroke-miterlimit="10" d="M91.335,463.434c0,0-29.034-67.972-9.248-92.011
	c5.936-6.01,46.035-38.79,56.985-39.882"/>
<path fill="none" stroke="#000000" stroke-width="2" stroke-miterlimit="10" d="M116.384,432.066c0,0-25.595-39.476,19.849-57.981"
	/>
<path fill="none" stroke="#000000" stroke-width="2" stroke-miterlimit="10" d="M190.252,303.357c0,0,3.521,47.966,6.158,64.299"/>
<path fill="none" stroke="#000000" stroke-width="2" stroke-miterlimit="10" d="M231.143,296.029c0,0,4.837,61.377,9.233,68.113"/>
<path fill="none" stroke="#000000" stroke-width="2" stroke-miterlimit="10" d="M170.992,335.506c0,0,40.174,6.039,86.437-7.704"/>
<path fill="none" stroke="#000000" stroke-width="2" stroke-miterlimit="10" d="M297.556,270.76c0,0,23.837,72.995,43.563,80.728"/>
<path fill="none" stroke="#000000" stroke-width="2" stroke-miterlimit="10" d="M326.551,254.324c0,0,37.813,74.837,50.125,73.478"
	/>
<path fill="none" stroke="#000000" stroke-width="2" stroke-miterlimit="10" d="M355.622,225.188c0,0,24.368,68.109,60.965,70.841"
	/>
<path fill="none" stroke="#000000" stroke-width="2" stroke-miterlimit="10" d="M418.453,254.324c0,0-54.043,60.717-120.897,88.271"
	/>
<path fill="none" stroke="#000000" stroke-width="2" stroke-miterlimit="10" d="M88.244,463.758l0.438,1.635
	c0,0,3.627,22.673,20.116,26.635c0,0,3.5,1.138,6.697,0"/>
<path fill="none" stroke="#000000" stroke-width="2" stroke-miterlimit="10" d="M100.861,488.13c0,0-1.625,34.628,24.756,16.053"/>
<path fill="none" stroke="#000000" stroke-width="2" stroke-miterlimit="10" d="M150.773,443.823l-1.413-3.016l-4.287-7.375
	c0,0-42.582-12.566-31.845,18.028l0.729,3.047"/>
<path fill="none" stroke="#000000" stroke-width="2" stroke-miterlimit="10" d="M132.652,455.741l-17.587-1.457
	c0,0-4.503-0.001-3.571,6.191c0.054,1.093,4.89,38.42,4.89,38.42s0.22,4.012,7.475,4.741c7.255,0.729,15.214,0.729,15.214,0.729
	L132.652,455.741z"/>
<path fill="none" stroke="#000000" stroke-width="2" stroke-miterlimit="10" d="M149.21,478.299l0.59,1.709
	c0,0,5.525,25.156-9.672,24.904"/>
<path fill="none" stroke="#000000" stroke-width="2" stroke-miterlimit="10" d="M153.317,444.359l-0.885-0.188l-10.162-2.135
	l2.803,34.829l9.069,3.142l-1.705-35.103l1.705-1.503c0,0-7.09-51.765,0-52.494c7.09-0.729,7.09-0.729,7.09-0.729
	s6.816-1.366,6.266,53.221c0.769,2.869,2.968,38.198,2.968,38.198l-2.968,2.915l2.968,41.522c0,0-11.122-0.42-9.737-37.907
	l0.147-3.289"/>
<path fill="none" stroke="#000000" stroke-width="2" stroke-miterlimit="10" d="M154.307,479.529l0.782,0.952
	c3.059,5.729,8.609,4.838,11.927,3.277l1.894-0.632"/>
<path fill="none" stroke="#000000" stroke-width="2" stroke-miterlimit="10" d="M167.498,443.401l1.484,0.001l4.123-0.682
	c0,0-10.553-63.242,2.198-65.722c6.596,1.891,11.872-2.487,12.752,13.179c0.878,4.738,4.396,43.255,2.197,51.859
	c-2.199,3.142-14.015,6.146-15.334,1.365"/>
<path fill="none" stroke="#000000" stroke-width="2" stroke-miterlimit="10" d="M172.812,440.89l0.952,4.726l2.638,35.075
	c0,0-5.688,4.814-5.936,0.91"/>
<path fill="none" stroke="#000000" stroke-width="2" stroke-miterlimit="10" d="M176.402,480.69
	c0.764,10.153,17.148,2.204,17.148,2.204l-0.077-0.953l-3.221-39.904h12.037h2.418"/>
<path fill="none" stroke="#000000" stroke-width="2" stroke-miterlimit="10" d="M191.999,483.576l2.65,58.487
	c0,0-11.105,9.053-14.677-56.208"/>
<polyline fill="none" stroke="#000000" stroke-width="2" stroke-miterlimit="10" points="193.472,481.941 205.586,480.69 
	208.696,480.09 "/>
<path fill="none" stroke="#000000" stroke-width="2" stroke-miterlimit="10" d="M210.477,491.07c0,0-8.464-48.441-4.891-55.543
	c5.332-0.911,51.279-3.461,51.279-3.461s7.914,0.001,7.914,5.828c-0.218,3.278,3.079,43.069,3.079,42.113
	c0-0.957,3.076,7.966-2.419,9.424c-3.737,1.275-46.409,4.226-49.026,4.553C214.215,494.261,210.698,492.351,210.477,491.07z"/>
<path fill="none" stroke="#000000" stroke-width="2" stroke-miterlimit="10" d="M221.689,447.547l27.701-1.647l2.858,31.148
	l-28.58,1.663c0,0-3.078-12.953-3.518-30.982L221.689,447.547z"/>
<polyline fill="none" stroke="#000000" stroke-width="2" stroke-miterlimit="10" points="264.78,437.895 276.322,437.895 
	279.949,475.5 268.715,476.593 "/>
<path fill="none" stroke="#000000" stroke-width="2" stroke-miterlimit="10" d="M276.322,437.895c0,0,17.807,4.006,20.446-3.097
	c1.648,11.2,2.968,37.97,2.968,37.97s-14.51,9.563-19.786,3.825l-0.524-1.041"/>
<path fill="none" stroke="#000000" stroke-width="2" stroke-miterlimit="10" d="M296.608,474.599c0,0,7.425,46.793,0,48.979
	c-7.095-2.732-10.231,11.746-14.104-44.253v-1.197"/>
<path fill="none" stroke="#000000" stroke-width="2" stroke-miterlimit="10" d="M278.324,438.276l-0.308-1.293
	c0,0-6.806-31.142,4.406-31.278l18.797-3.278c0,0,6.76-2.732,6.925,5.19c0.164,7.102,0.164,5.053,0.164,7.102
	s-1.153,3.141-4.945,3.688c-3.793,0.546-11.225,3.141-11.225,3.141v12.292v4.528"/>
<path fill="none" stroke="#000000" stroke-width="2" stroke-miterlimit="10" d="M303.693,401.977v-1.234l-3.519-23.493
	c0,0-27.372-4.448-27.372,14.933c0,2.55,3.607,1.822,3.607,1.822l8.595-0.364l4.616,1.275l0.222,8.149l-0.095,1.362"/>
<path fill="none" stroke="#000000" stroke-width="2" stroke-miterlimit="10" d="M299.908,470.583h10.051l-3.275-39.706
	c0,0-8.268,7.472-9.916,3.921"/>
<polyline fill="none" stroke="#000000" stroke-width="2" stroke-miterlimit="10" points="292.139,426.876 308.309,424.691 
	306.684,418.408 "/>
<path fill="none" stroke="#000000" stroke-width="2" stroke-miterlimit="10" d="M308.309,424.691c0,0,34.075-22.49,51.224,16.117
	c-10.111,4.734-31.659,8.013-31.659,8.013S313.365,436.256,308.309,424.691z"/>
<path fill="none" stroke="#000000" stroke-width="2" stroke-miterlimit="10" d="M351.99,443.568c0,0,10.18,40.164-11.364,44.561
	c-5.716,1.119-21.983,3.896-21.983,3.896s-9.849,1.174-11.959-8.451c-2.991-6.345-2.991-12.991-2.991-12.991"/>
<path fill="none" stroke="#000000" stroke-width="2" stroke-miterlimit="10" d="M139.043,504.139l1.084,2.229
	c0,0,4.498,31.688,5.326,31.688c0.829,0,7.314,25.131,2.753,30.96c3.792,9.106,11.157,22.946,5.936,41.521
	c1.374,14.206-0.833,0,1.81,19.669v2.222"/>
<path fill="none" stroke="#000000" stroke-width="2" stroke-miterlimit="10" d="M223.229,549.71c0,0,9.232-2.185,22.864,2.185
	c2.199,1.459,1.759,14.57,1.759,25.497c1.319,10.562,0.439,14.933,4.396,24.402c2.199,4.371-4.396,28.045,0,36.422
	c0,0-16.708,10.928-53.643-8.012c-15.389-3.642-23.304-7.569-64.195,11.148c-3.957,6.334-22.424,11.069-10.113,45.671
	c4.396,3.643,8.794,6.191,19.786,6.191c12.311,1.094,78.706,8.013,111.683-8.378c2.198-1.82,69.911,18.576,140.7,2.915
	c0.878-8.742,13.567-59.733-52.135-68.838c0,0-1.507-1.457,0-6.192c-5.968-8.378-3.267-14.933-3.72-22.946
	c3.943-9.834,3.973-14.205,3.534-18.939c-3.958-4.007-3.52-21.126-3.52-28.346c1.759-21.788,0-54.36,0-54.36"/>
<path fill="none" stroke="#000000" stroke-width="2" stroke-miterlimit="10" d="M344.333,618.914c0,0-11.18-5.829-47.676,11.29
	c-9.672,2.914-30.777,14.934-41.331,9.47c0,0-1.298-1.377-3.26-1.348"/>
<path fill="none" stroke="#000000" stroke-width="2" stroke-miterlimit="10" d="M255.327,642.588c0,0-3.507,30.596,3.743,40.065"/>
<path fill="none" stroke="#000000" stroke-width="2" stroke-miterlimit="10" d="M254.642,664.815c0,0,89.884,19.947,143.335,4.323"
	/>
<path fill="none" stroke="#000000" stroke-width="2" stroke-miterlimit="10" d="M254.477,667.174c0,0-32.156,15.702-133.492,7.941"
	/>
<line fill="none" stroke="#000000" stroke-width="2" stroke-miterlimit="10" x1="73.266" y1="195.855" x2="73.739" y2="198.329"/>
<path fill="none" stroke="#000000" stroke-width="2" stroke-miterlimit="10" d="M83.51,200.095l-0.433,2.51
	c0,0,0.77,19.395,4.507,30.868c-0.22,1.639-31.218-21.581-36.495,10.654c-0.66,5.736-1.319,18.029,16.818,26.224
	c4.287,0,17.148,4.097,24.073-13.659l2.088,3.41"/>
<path fill="none" stroke="#000000" stroke-width="2" stroke-miterlimit="10" d="M86.197,266.026c0,0,10.495,15.538,35.95,19.31"/>
</svg>
