<?xml version="1.0" encoding="utf-8"?>
<!-- Generator: Adobe Illustrator 16.0.0, SVG Export Plug-In . SVG Version: 6.00 Build 0)  -->
<!DOCTYPE svg PUBLIC "-//W3C//DTD SVG 1.1//EN" "http://www.w3.org/Graphics/SVG/1.1/DTD/svg11.dtd">
<svg version="1.1" id="Layer_1" xmlns="http://www.w3.org/2000/svg" xmlns:xlink="http://www.w3.org/1999/xlink" x="0px" y="0px"
	 width="552px" height="859px" viewBox="0 0 552 859" enable-background="new 0 0 552 859" xml:space="preserve">
<rect fill="#FFFFFF" stroke="#000000" stroke-miterlimit="10" width="552" height="859"/>
<ellipse fill="none" stroke="#010101" stroke-width="2" stroke-miterlimit="10" cx="236.953" cy="204.699" rx="19.207" ry="26.615"/>
<ellipse fill="#010101" cx="233.81" cy="214.104" rx="7.684" ry="12.243"/>
<ellipse fill="#FFFFFF" stroke="#010101" stroke-width="2" stroke-miterlimit="10" cx="234.683" cy="214.813" rx="4.017" ry="4.791"/>
<ellipse fill="none" stroke="#010101" stroke-width="2" stroke-miterlimit="10" cx="312.011" cy="207.209" rx="19.208" ry="26.615"/>
<ellipse fill="#010101" cx="314.744" cy="214.813" rx="7.684" ry="12.243"/>
<ellipse fill="#FFFFFF" stroke="#010101" stroke-width="2" stroke-miterlimit="10" cx="316.027" cy="214.813" rx="4.016" ry="4.791"/>
<path fill="none" stroke="#010101" stroke-width="2" stroke-miterlimit="10" d="M397.014,195.118
	c-26.541,12.775-32.596-37.852-35.389-48.262c0,12.776-12.572,9.937-17.229,9.937c1.396-30.281-62.859,9.463-68.912,11.829
	c-4.655-3.312-1.862-14.194,0-18.926c-48.891,18.926-69.379-0.947-75.896-6.625c-4.19,40.218-28.287,59.499-28.287,59.499
	s-9.429-30.636-14.085-36.788c-3.259-10.882-7.449-54.412,30.731-74.284c-1.862-6.625-0.233-17.269-16.064-18.216
	c6.52-4.495,28.637-17.033,45.864,4.731c3.259-13.012,2.561-32.884,23.049-32.175c-0.233,7.097-7.218,22.001,9.545,24.131
	c6.52,0.473,39.647,1.182,65.688-3.549c12.071-0.473,58.169-3.212,83.312,57.775C396.547,139.759,391.31,186.838,397.014,195.118"/>
<path fill="none" stroke="#010101" stroke-width="2" stroke-miterlimit="10" d="M396.494,194.195c0,0,22.637,3.762,23.568,27.42
	c-2.563,13.72-7.322,26.732-23.568,28.861c-1.344,4.731-21.6,72.748-116.937,80.91c-24.096-0.355-79.272,2.129-111.401-75.941
	c-11.873-9.227-19.323-15.497-18.624-40.632c2.095-7.157,2.793-14.727,21.768-12.243"/>
<path fill="none" stroke="#010101" stroke-width="2" stroke-miterlimit="10" d="M169.786,214.104c0,0-5.12,20.997-3.259,28.803
	c-6.984-5.678-13.735-15.141-9.545-24.84C161.405,212.625,164.431,213.216,169.786,214.104z"/>
<g>
	<path fill="#010101" d="M261.049,253.671c0,0,0.379,0.336,1.061,0.896c0.673,0.569,1.683,1.324,2.912,2.188
		c1.228,0.865,2.727,1.778,4.4,2.585c0.83,0.421,1.727,0.757,2.636,1.084c0.919,0.295,1.869,0.548,2.833,0.669
		c0.96,0.124,1.936,0.18,2.876,0.051c0.945-0.089,1.848-0.346,2.693-0.666c0.827-0.367,1.609-0.778,2.289-1.276
		c0.693-0.48,1.269-1.041,1.808-1.552c0.475-0.571,0.979-1.044,1.328-1.545c0.366-0.487,0.712-0.898,0.935-1.278
		c0.489-0.736,0.77-1.156,0.77-1.156s-0.219,0.457-0.603,1.256c-0.182,0.408-0.48,0.857-0.797,1.393
		c-0.297,0.55-0.753,1.09-1.215,1.707c-0.521,0.568-1.082,1.194-1.782,1.754c-0.684,0.575-1.491,1.088-2.386,1.506
		c-0.908,0.375-1.889,0.715-2.925,0.815c-1.03,0.151-2.09,0.105-3.127-0.02c-2.076-0.302-4.039-1.044-5.731-1.96
		c-1.708-0.896-3.146-1.972-4.34-2.92c-1.195-0.951-2.085-1.863-2.706-2.494C261.364,254.068,261.049,253.671,261.049,253.671z"/>
</g>
<ellipse fill="none" stroke="#010101" stroke-width="2" stroke-miterlimit="10" cx="275.192" cy="293.238" rx="14.144" ry="10.114"/>
<g>
	<path fill="#010101" d="M206.92,180.595c0,0,0.428-0.684,1.256-1.826c0.839-1.132,2.038-2.759,3.639-4.578
		c1.603-1.813,3.529-3.896,5.81-5.906c1.144-1,2.358-2,3.649-2.943c1.286-0.952,2.648-1.847,4.065-2.656
		c0.706-0.408,1.454-0.744,2.18-1.11c0.758-0.3,1.484-0.668,2.257-0.907c0.382-0.129,0.762-0.259,1.141-0.387
		c0.382-0.118,0.773-0.202,1.156-0.303c0.761-0.223,1.543-0.315,2.304-0.441c0.763-0.106,1.527-0.125,2.267-0.153
		c0.742,0.064,1.473,0.048,2.169,0.178c1.399,0.209,2.693,0.572,3.824,1.047c0.554,0.264,1.116,0.452,1.59,0.748
		c0.475,0.291,0.925,0.566,1.349,0.826c0.803,0.578,1.477,1.118,2.02,1.568c1.005,0.991,1.58,1.558,1.58,1.558
		s-0.62-0.512-1.704-1.407c-0.568-0.408-1.27-0.894-2.094-1.403c-0.43-0.224-0.888-0.461-1.37-0.712
		c-0.478-0.256-1.028-0.422-1.574-0.652c-1.11-0.411-2.367-0.705-3.709-0.848c-0.668-0.096-1.369-0.048-2.073-0.082
		c-0.706,0.069-1.432,0.073-2.159,0.192c-0.726,0.132-1.47,0.228-2.199,0.454c-0.366,0.103-0.739,0.188-1.105,0.306
		c-0.363,0.129-0.728,0.259-1.094,0.389c-0.74,0.239-1.439,0.607-2.167,0.906c-0.7,0.365-1.417,0.702-2.101,1.105
		c-1.389,0.766-2.732,1.622-4.006,2.538c-1.28,0.907-2.488,1.874-3.629,2.844c-1.127,0.986-2.223,1.935-3.215,2.89
		c-1.004,0.942-1.915,1.873-2.749,2.74c-1.656,1.745-2.999,3.239-3.9,4.32C207.419,179.962,206.92,180.595,206.92,180.595z"/>
</g>
<g>
	<path fill="#010101" d="M290.384,170.193c0,0,0.657-0.552,1.908-1.384c1.261-0.81,3.083-1.966,5.443-3.022
		c1.17-0.55,2.479-1.049,3.877-1.547c1.411-0.454,2.912-0.924,4.514-1.206c1.593-0.308,3.264-0.528,4.973-0.583
		c1.709-0.102,3.45,0.032,5.179,0.225c1.715,0.296,3.426,0.657,5.034,1.251c0.402,0.146,0.812,0.269,1.203,0.431
		c0.389,0.17,0.775,0.339,1.159,0.508c0.781,0.311,1.495,0.734,2.215,1.113c1.424,0.787,2.725,1.68,3.879,2.616
		c0.291,0.23,0.578,0.457,0.861,0.681c0.268,0.243,0.53,0.482,0.788,0.717c0.506,0.48,1.038,0.899,1.469,1.383
		c0.893,0.936,1.719,1.784,2.349,2.624c0.655,0.818,1.243,1.515,1.655,2.144c0.851,1.234,1.337,1.94,1.337,1.94
		s-0.542-0.662-1.491-1.82c-0.449-0.598-1.08-1.252-1.78-2.019c-0.68-0.787-1.554-1.569-2.459-2.464
		c-0.443-0.459-0.984-0.85-1.499-1.301c-0.263-0.22-0.529-0.444-0.801-0.671c-0.286-0.208-0.576-0.418-0.871-0.632
		c-1.164-0.871-2.471-1.677-3.854-2.437c-0.704-0.357-1.401-0.761-2.162-1.051c-0.373-0.158-0.75-0.317-1.128-0.477
		c-0.381-0.152-0.778-0.265-1.169-0.401c-1.562-0.556-3.22-0.877-4.876-1.146c-1.666-0.207-3.348-0.36-5.006-0.283
		c-1.659,0.031-3.288,0.224-4.847,0.503c-1.561,0.271-3.048,0.654-4.451,1.046c-1.391,0.435-2.7,0.874-3.876,1.37
		c-2.363,0.959-4.266,1.934-5.563,2.672C291.094,169.711,290.384,170.193,290.384,170.193z"/>
</g>
<line fill="none" stroke="#010101" stroke-miterlimit="10" x1="224.206" y1="169.214" x2="228.048" y2="175.246"/>
<line fill="none" stroke="#010101" stroke-miterlimit="10" x1="232.238" y1="165.31" x2="233.81" y2="172.229"/>
<line fill="none" stroke="#010101" stroke-miterlimit="10" x1="238.699" y1="165.31" x2="238.699" y2="172.229"/>
<line fill="none" stroke="#010101" stroke-miterlimit="10" x1="245.858" y1="168.771" x2="243.239" y2="174.004"/>
<line fill="none" stroke="#010101" stroke-miterlimit="10" x1="217.746" y1="173.117" x2="222.81" y2="178.084"/>
<line fill="none" stroke="#010101" stroke-miterlimit="10" x1="212.856" y1="179.327" x2="217.746" y2="183.763"/>
<line fill="none" stroke="#010101" stroke-miterlimit="10" x1="299.23" y1="171.387" x2="303.654" y2="178.084"/>
<line fill="none" stroke="#010101" stroke-miterlimit="10" x1="307.062" y1="168.771" x2="308.194" y2="176.311"/>
<line fill="none" stroke="#010101" stroke-miterlimit="10" x1="314.305" y1="168.771" x2="312.908" y2="176.311"/>
<line fill="none" stroke="#010101" stroke-miterlimit="10" x1="321.465" y1="171.387" x2="319.719" y2="178.084"/>
<line fill="none" stroke="#010101" stroke-miterlimit="10" x1="329.672" y1="176.311" x2="325.48" y2="181.456"/>
<line fill="none" stroke="#010101" stroke-miterlimit="10" x1="291.432" y1="174.736" x2="296.845" y2="180.595"/>
<path fill="none" stroke="#010101" stroke-width="2" stroke-miterlimit="10" d="M394.451,207.209c0,0,3.492,19.138,1.746,30.493
	c5.064-1.242,16.764-6.743,15.715-19.163C410.166,210.555,405.977,207.411,394.451,207.209z"/>
<path fill="none" stroke="#010101" stroke-width="2" stroke-miterlimit="10" d="M258.27,330.528l9.764,96.671
	c0,0-18.857,141.946-24.445,157.56c-9.079,0.71-74.034,6.388-88.702-22.712c2.096-12.775,39.113-129.879,39.113-139.106
	c-6.286,2.839-16.064,4.968-17.461,9.937c-5.588-1.42-41.208-16.325-35.621-48.262c6.984-9.937,65.106-65.602,80.397-64.738"/>
<path fill="none" stroke="#010101" stroke-width="2" stroke-miterlimit="10" d="M233.509,325.178c0,0-22.049,42.759-13.668,45.952
	c8.032,1.065,17.811,5.323,17.811,5.323l-11.873,15.614c0,0,36.889,36.225,42.017,36.922"/>
<path fill="none" stroke="#010101" stroke-width="2" stroke-miterlimit="10" d="M301.773,328.178l-18.839,100.811
	c0,0,29.333,138.026,29.333,149.382c6.52,1.892,68.914-16.088,72.639-28.39c-0.932-11.354-31.662-152.59-33.758-169.625
	c4.889,0.709,24.445,9.936,27.238,14.195c6.984-2.839,48.193-30.519,35.621-45.422c-12.572-10.647-54.329-33.78-74.657-33.924"/>
<polyline fill="none" stroke="#010101" stroke-width="2" stroke-miterlimit="10" points="324.229,321.809 337.18,357.646 
	315.527,369.711 326.354,388.164 282.935,428.989 "/>
<path fill="none" stroke="#010101" stroke-width="2" stroke-miterlimit="10" d="M388.297,388.607c0,0,58.42,38.668,72.855,42.319
	c0.465,4.126-1.279,21.842-1.279,21.842l25.842,3.059l0.706-8.248"/>
<path fill="none" stroke="#010101" stroke-width="2" stroke-miterlimit="10" d="M414.729,362.112c0,0,29.661,21.794,38.042,28.181
	c6.984,3.874,9.777,0.266,15.365-5.335c3.58-5.063,25.494-3.536,31.779,1.077c1.746,5.678-2.392,4.968-4.485,6.742
	c0,0-8.845,1.893-14.548-0.355c0,0-6.579,12.302-14.027,14.432"/>
<path fill="none" stroke="#010101" stroke-width="2" stroke-miterlimit="10" d="M463.598,427.199"/>
<path fill="none" stroke="#010101" stroke-width="2" stroke-miterlimit="10" d="M468.137,383.373"/>
<path fill="none" stroke="#010101" stroke-width="2" stroke-miterlimit="10" d="M485.715,455.825"/>
<ellipse fill="none" stroke="#010101" stroke-width="2" stroke-miterlimit="10" cx="461.152" cy="527.98" rx="46.098" ry="45.777"/>
<path fill="none" stroke="#010101" stroke-width="2" stroke-miterlimit="10" d="M498.287,413.36c0,0,6.344-6.034-1.164-8.872
	c-7.857-2.661-21.129-0.887-20.43,4.436c1.223,3.371,3.508,3.903,7.691,4.436c-4.373,0.177-16.945,6.032-2.104,10.646
	c-5.064,0-15.191,8.338-2.27,11.177c-3.842,0.71-16.006,6.565,5.703,12.42c7.217,0,13.504-8.339,6.52-11
	c3.143,0.177,8.031-9.208,1.221-11.169c3.842-0.542,9.953-7.461,1.223-9.945C496.074,414.424,498.287,413.36,498.287,413.36z"/>
<path fill="none" stroke="#010101" stroke-width="2" stroke-miterlimit="10" d="M498.019,384.958"/>
<path fill="none" stroke="#010101" stroke-width="2" stroke-miterlimit="10" d="M469.573,381.214"/>
<line fill="none" stroke="#010101" stroke-width="2" stroke-miterlimit="10" x1="492.768" y1="403.521" x2="493.721" y2="393.073"/>
<path fill="none" stroke="#010101" stroke-width="2" stroke-miterlimit="10" d="M482.281,487.285l2.104-31.617l-23.232-2.75
	l-4.311,29.484C471.041,482.604,482.281,487.285,482.281,487.285z"/>
<path fill="none" stroke="#010101" stroke-width="2" stroke-miterlimit="10" d="M141.019,398.217c0,0-24.547,33.951-28.039,38.918
	c-3.842,4.969-11.873,11.001-20.255,0c-3.93-4.881-8.642-9.573-10.505-9.573"/>
<path fill="none" stroke="#010101" stroke-width="2" stroke-miterlimit="10" d="M164.402,427.323c0,0-53.983,50.266-55.146,59.73"/>
<path fill="none" stroke="#010101" stroke-width="2" stroke-miterlimit="10" d="M71.073,461.029c0,0,17.461-8.991,22.35-1.656
	c-1.396,5.914-9.545,8.295-11.175,9.824c5.354-1.78,15.831-6.025,16.763,0c-2.561,4.369-8.382,9.339-12.106,10.521
	c7.449-3.313,15.365-6.15,17.228,0c-2.096,4.022-9.778,8.043-13.037,10.172c3.726-2.365,12.571-5.204,11.175,0
	c-1.862,5.206-9.08,13.959-11.291,13.249c0,0,2.794,10.646,6.286,16.678c13.619,11.357,22.699-3.192,20.953-12.42
	c-4.889-10.646-41.906-92.974-41.906-92.974c-1.749-3.891-10.128-3.076-14.552-0.946c-5.587,4.021-5.005,11.237-5.005,11.237
	L71.073,461.029c-3.027,4.731,3.259,10.882,3.259,10.882c-0.233,3.313,3.726,8.99,5.588,11.119c-0.466,4.259,0.698,7.335,4.19,9.7
	c-0.698,7.097,6.868,10.409,6.868,10.409"/>
<path fill="none" stroke="#010101" stroke-width="2" stroke-miterlimit="10" d="M182.998,513.253c0,0,22.176,18.453,37.367,12.954
	c-1.572,6.564-0.873,44.357-29.16,40.276c-11.874-2.839-23.049-7.274-19.207-22.534
	C175.315,532.238,182.998,513.253,182.998,513.253z"/>
<path fill="none" stroke="#010101" stroke-width="2" stroke-miterlimit="10" d="M248.784,559.416c0,0,53.433-0.438,58.807-9.669"/>
<path fill="none" stroke="#010101" stroke-width="2" stroke-miterlimit="10" d="M171.229,576.86c0,0-11.104,34.868-11.453,38.417
	c2.794,3.549,68.098,17.033,114.195,13.13c23.397,0,96.734-1.521,107.561-25.424c-1.746-8.288-12.942-35.433-13.631-40.666"/>
<path fill="none" stroke="#010101" stroke-width="2" stroke-miterlimit="10" d="M193.064,623.445c0,0,0.812,20.221,0,25.189
	c-5.352,2.838-48.655,20.227-25.956,42.583c11.874,2.483,68.099,6.032,76.131-4.612c2.793-8.163,0-25.551-5.588-33.003
	c0.35-6.388,0.36-25.047,0.36-25.047"/>
<path fill="none" stroke="#010101" stroke-width="2" stroke-miterlimit="10" d="M191.298,649.497c0,0,36.575,6.943,46.354,4.105"/>
<path fill="none" stroke="#010101" stroke-width="2" stroke-miterlimit="10" d="M311.687,626.985c0,0,0,23.548,2.444,24.905
	c-1.746,2.422-15.017,36.133,3.842,38.973c11.174,1.064,71.59,10.29,70.543-13.485c-1.746-6.387-13.271-22.586-28.986-25.487
	c-1.047-7.16-1.147-33.017-1.147-33.017"/>
<path fill="none" stroke="#010101" stroke-width="2" stroke-miterlimit="10" d="M314.131,651.891c0,0,41.906,5.029,45.398,0"/>
<ellipse fill="none" stroke="#010101" stroke-width="2" stroke-miterlimit="10" cx="258.604" cy="448.047" rx="3.842" ry="4.72"/>
<ellipse fill="none" stroke="#010101" stroke-width="2" stroke-miterlimit="10" cx="252.82" cy="475.461" rx="4.038" ry="4.258"/>
<ellipse fill="none" stroke="#010101" stroke-width="2" stroke-miterlimit="10" cx="248.903" cy="505.091" rx="3.917" ry="5.855"/>
<ellipse fill="none" stroke="#010101" stroke-width="2" stroke-miterlimit="10" cx="242.017" cy="535.066" rx="5.238" ry="4.958"/>
<ellipse fill="none" stroke="#010101" stroke-width="2" stroke-miterlimit="10" cx="239.048" cy="562.935" rx="4.365" ry="4.969"/>
<line fill="none" stroke="#010101" stroke-width="2" stroke-miterlimit="10" x1="289.161" y1="444.941" x2="298.241" y2="444.941"/>
<line fill="none" stroke="#010101" stroke-width="2" stroke-miterlimit="10" x1="293.701" y1="472.09" x2="303.829" y2="472.09"/>
<line fill="none" stroke="#010101" stroke-width="2" stroke-miterlimit="10" x1="301.384" y1="500.479" x2="309.067" y2="500.479"/>
<line fill="none" stroke="#010101" stroke-width="2" stroke-miterlimit="10" x1="307.591" y1="527.626" x2="313.258" y2="527.626"/>
<path fill="none" stroke="#010101" stroke-width="2" stroke-miterlimit="10" d="M311.861,556.369c0.698,0,7.857,0,7.857,0"/>
<path fill="none" stroke="#010101" stroke-width="2" stroke-miterlimit="10" d="M463.598,388.607c0,0-0.438-21.469,7.015-24.574
	c6.954-0.237,19.864-0.472,22.553,3.076c2.92,3.786,2.541,14.501,1.503,16.594"/>
<line fill="none" stroke="#010101" stroke-width="2" stroke-miterlimit="10" x1="468.137" y1="406.854" x2="461.152" y2="430.925"/>
<path fill="none" stroke="#010101" stroke-width="2" stroke-miterlimit="10" d="M56.833,424.914c0,0,4.578,1.813,11.446-0.907
	c4.424-1.421,8.535-7.762,7.702-10.15"/>
</svg>
