<?xml version="1.0" encoding="utf-8"?>
<!-- Generator: Adobe Illustrator 16.0.0, SVG Export Plug-In . SVG Version: 6.00 Build 0)  -->
<!DOCTYPE svg PUBLIC "-//W3C//DTD SVG 1.1//EN" "http://www.w3.org/Graphics/SVG/1.1/DTD/svg11.dtd">
<svg version="1.1" id="Layer_1" xmlns="http://www.w3.org/2000/svg" xmlns:xlink="http://www.w3.org/1999/xlink" x="0px" y="0px"
	 width="552px" height="859px" viewBox="0 0 552 859" enable-background="new 0 0 552 859" xml:space="preserve">
<rect fill="#FFFFFF" stroke="#000000" stroke-miterlimit="10" width="552" height="859"/>
<path fill="none" stroke="#010101" stroke-width="2" stroke-miterlimit="10" d="M103.833,149.408"/>
<path fill="none" stroke="#010101" stroke-width="2" stroke-miterlimit="10" d="M103.833,149.408c0,0,155.96-9.283,210.927,2.321"/>
<path fill="none" stroke="#010101" stroke-width="2" stroke-miterlimit="10" d="M364.59,183.054
	c-4.913-21.348-49.826-31.327-49.826-31.327c-43.795-84.468-93.4-79.363-105.018-79.363
	c-70.161-1.855-105.912,77.042-105.912,77.042c-52.285,13.923-55.86,32.022-55.86,32.022c-7.337,9.929,46.027,12.068,46.027,12.068"
	/>
<path fill="none" stroke="#010101" stroke-width="2" stroke-miterlimit="10" d="M47.431,182.435c0,0,74.724-6.575,151.589-7.502
	c16.535,0.929,160.221,4.525,164.369,6.832c4.147,2.306-0.083,10.457-41.979,11.732"/>
<path fill="none" stroke="#010101" stroke-width="2" stroke-miterlimit="10" d="M99.215,178.736c0,0-10.576,13.6-2.532,36.051
	c2.681,12.183,2.158,19.318,2.532,26.977c3.5-0.232,14.003,3.018,20.93-15.779c0.894-7.658,5.362-27.846,9.384-35.505
	c2.236,6.266,6.48,14.157,17.876,12.068c0-2.785-1.117-22.045,34.186-7.425c13.407,5.569,21.897,10.675,29.495,16.708
	c3.353-1.856,4.022-11.602-1.34-19.493c-0.447-2.553,47.817,18.912,75.636-8.123c0.671,1.855,2.346,35.969,26.813,59.986
	c1.675-2.002,0.335-15.2,4.357-27.266c2.459-7.194,4.975-28.09,1.368-37.946"/>
<path fill="none" stroke="#010101" stroke-width="2" stroke-miterlimit="10" d="M313.702,253.251c0,0,4.692,19.492,5.194,29.761
	c3.854-2.437,12.902-9.224,9.385-22.625C326.438,254.295,326.605,247.159,313.702,253.251z"/>
<path fill="none" stroke="#010101" stroke-width="2" stroke-miterlimit="10" d="M312.193,244.201c0,0,22.456-9.573,24.132,15.837
	c-0.335,8.876-4.692,26.976-18.1,31.327c-1.006,3.829-20.893,78.956-108.033,80.813c-12.066-0.464-87.143-5.57-110.38-77.507
	c-3.798-0.464-21.227-2.844-23.237-27.702c-0.335-6.062,4.392-24.162,22.642-25.207"/>
<path fill="none" stroke="#010101" stroke-width="2" stroke-miterlimit="10" d="M98.693,252.903c0,0-2.011,25.062,2.012,30.108
	c-3.688,0.174-18.1-0.234-16.423-16.041C84.952,260.909,88.304,253.251,98.693,252.903z"/>
<ellipse fill="#FFFFFF" stroke="#010101" stroke-width="2" stroke-miterlimit="10" cx="178.359" cy="249.771" rx="17.932" ry="25.758"/>
<ellipse fill="none" stroke="#010101" stroke-width="2" stroke-miterlimit="10" cx="250.355" cy="246.464" rx="18.601" ry="25.932"/>
<path fill="#010101" d="M249.784,235.665c3.537-0.451,7.1,5.061,7.957,12.312c0.857,7.25-1.314,13.494-4.851,13.944
	c-3.536,0.451-7.098-5.061-7.956-12.311C244.076,242.359,246.248,236.117,249.784,235.665z"/>
<ellipse fill="#FFFFFF" stroke="#010101" stroke-width="2" stroke-miterlimit="10" cx="250.774" cy="251.858" rx="3.603" ry="5.395"/>
<path fill="#010101" d="M176.244,239.771c3.609-0.452,7.18,4.738,7.973,11.59c0.794,6.852-1.49,12.772-5.101,13.223
	c-3.61,0.451-7.179-4.738-7.973-11.59C170.35,246.143,172.633,240.222,176.244,239.771z"/>
<ellipse fill="#FDFEFF" stroke="#010101" stroke-width="2" stroke-miterlimit="10" cx="178.519" cy="255.164" rx="3.408" ry="5.049"/>
<g>
	<path fill="#010101" d="M237.004,206.26c0,0,0.693-0.473,2.023-1.101c1.325-0.632,3.293-1.412,5.775-1.976
		c1.242-0.263,2.606-0.515,4.071-0.605c1.461-0.091,3.021-0.138,4.622,0.056c1.6,0.162,3.254,0.448,4.873,0.965
		c1.636,0.464,3.21,1.187,4.755,1.949c1.498,0.852,2.95,1.784,4.261,2.849c0.656,0.531,1.313,1.051,1.887,1.646
		c0.592,0.573,1.188,1.129,1.704,1.739c1.103,1.158,2.01,2.406,2.875,3.574c0.809,1.208,1.578,2.345,2.166,3.465
		c0.305,0.553,0.616,1.071,0.876,1.583c0.246,0.519,0.479,1.011,0.697,1.474c0.217,0.462,0.42,0.895,0.607,1.294
		c0.162,0.411,0.313,0.788,0.447,1.129c0.52,1.366,0.816,2.147,0.816,2.147s-0.427-0.717-1.173-1.971
		c-0.351-0.636-0.819-1.384-1.369-2.231c-0.27-0.425-0.557-0.877-0.86-1.354c-0.322-0.462-0.66-0.949-1.013-1.457
		c-0.682-1.03-1.535-2.058-2.384-3.177c-0.915-1.066-1.875-2.19-2.959-3.258c-0.516-0.561-1.104-1.063-1.687-1.581
		c-0.57-0.535-1.203-1.004-1.821-1.5c-1.244-0.986-2.614-1.83-4.014-2.608c-1.425-0.726-2.876-1.421-4.389-1.871
		c-0.742-0.27-1.51-0.426-2.253-0.645c-0.76-0.143-1.504-0.338-2.254-0.418c-2.988-0.451-5.849-0.351-8.283-0.068
		c-2.432,0.315-4.443,0.802-5.831,1.22C237.776,205.936,237.004,206.26,237.004,206.26z"/>
</g>
<g>
	<path fill="#010101" d="M146.733,230.625c0,0,0.401-0.819,1.215-2.192c0.815-1.371,2.042-3.3,3.708-5.48
		c0.825-1.097,1.761-2.255,2.807-3.435c1.043-1.182,2.18-2.402,3.443-3.58c1.26-1.18,2.598-2.373,4.064-3.457
		c0.719-0.56,1.497-1.058,2.253-1.589c0.798-0.473,1.561-1.007,2.395-1.431l1.241-0.648c0.42-0.204,0.854-0.382,1.278-0.573
		c0.841-0.402,1.736-0.68,2.604-0.996c1.763-0.562,3.567-0.928,5.333-1.05c0.441-0.028,0.879-0.056,1.313-0.083
		c0.434-0.011,0.866,0.025,1.291,0.043c0.424,0.03,0.846,0.023,1.257,0.084c0.411,0.064,0.816,0.128,1.216,0.191
		c0.804,0.093,1.557,0.326,2.286,0.528c0.738,0.177,1.409,0.471,2.056,0.734c0.323,0.131,0.639,0.26,0.948,0.386
		c0.3,0.143,0.584,0.305,0.863,0.456c0.552,0.311,1.087,0.582,1.563,0.878c0.921,0.646,1.741,1.175,2.354,1.69
		c1.199,1.055,1.884,1.657,1.884,1.657s-0.768-0.484-2.111-1.331c-0.667-0.421-1.546-0.817-2.496-1.347
		c-0.492-0.233-1.038-0.434-1.598-0.671c-0.283-0.111-0.564-0.245-0.863-0.355c-0.304-0.092-0.616-0.187-0.934-0.284
		c-0.635-0.194-1.287-0.416-1.995-0.517c-0.699-0.129-1.409-0.315-2.164-0.347c-0.374-0.035-0.752-0.069-1.136-0.105
		c-0.383-0.033-0.774,0.002-1.167-0.001c-0.393,0.013-0.79-0.002-1.189,0.02c-0.399,0.042-0.801,0.083-1.208,0.126
		c-0.815,0.044-1.622,0.278-2.447,0.423c-0.413,0.077-0.813,0.229-1.223,0.339c-0.407,0.125-0.827,0.207-1.228,0.368
		c-1.622,0.574-3.239,1.267-4.772,2.138c-0.791,0.388-1.524,0.89-2.287,1.327c-0.728,0.5-1.475,0.962-2.172,1.491
		c-1.41,1.032-2.771,2.098-4.028,3.204c-1.257,1.107-2.45,2.209-3.542,3.3c-1.084,1.096-2.104,2.146-3.011,3.147
		c-1.822,1.998-3.269,3.737-4.262,4.974C147.277,229.895,146.733,230.625,146.733,230.625z"/>
</g>
<line fill="none" stroke="#010101" stroke-miterlimit="10" x1="155.448" y1="227.378" x2="160.428" y2="230.625"/>
<line fill="none" stroke="#010101" stroke-miterlimit="10" x1="159.247" y1="220.532" x2="163.716" y2="226.449"/>
<line fill="none" stroke="#010101" stroke-miterlimit="10" x1="163.716" y1="216.616" x2="168.408" y2="222.359"/>
<line fill="none" stroke="#010101" stroke-miterlimit="10" x1="170.419" y1="212.7" x2="173.016" y2="220.532"/>
<line fill="none" stroke="#010101" stroke-miterlimit="10" x1="177.686" y1="210.699" x2="177.374" y2="219.487"/>
<line fill="none" stroke="#010101" stroke-miterlimit="10" x1="185.166" y1="211.917" x2="181.814" y2="220.532"/>
<line fill="none" stroke="#010101" stroke-miterlimit="10" x1="192.037" y1="216.224" x2="186.339" y2="224.013"/>
<line fill="none" stroke="#010101" stroke-miterlimit="10" x1="240.243" y1="209.393" x2="244.042" y2="218.095"/>
<line fill="none" stroke="#010101" stroke-miterlimit="10" x1="248.064" y1="207.42" x2="249.74" y2="216.239"/>
<line fill="none" stroke="#010101" stroke-miterlimit="10" x1="255.438" y1="208.116" x2="254.377" y2="216.239"/>
<line fill="none" stroke="#010101" stroke-miterlimit="10" x1="262.476" y1="210.901" x2="258.789" y2="218.095"/>
<line fill="none" stroke="#010101" stroke-miterlimit="10" x1="267.281" y1="214.87" x2="262.476" y2="220.532"/>
<line fill="none" stroke="#010101" stroke-miterlimit="10" x1="271.303" y1="221.111" x2="266.164" y2="224.592"/>
<line fill="none" stroke="#010101" stroke-miterlimit="10" x1="274.542" y1="227.841" x2="268.735" y2="230.162"/>
<g>
	<path fill="#010101" d="M199.913,294.672c0,0,0.374,0.391,1.052,1.032c0.676,0.643,1.668,1.527,2.9,2.5
		c0.625,0.476,1.307,0.979,2.051,1.463c0.739,0.492,1.556,0.942,2.404,1.368c0.845,0.444,1.774,0.745,2.703,1.04
		c0.938,0.275,1.914,0.412,2.888,0.459c0.97,0.003,1.953-0.026,2.886-0.284c0.476-0.08,0.92-0.278,1.381-0.398
		c0.45-0.157,0.878-0.366,1.313-0.541c0.415-0.222,0.814-0.457,1.224-0.662c0.387-0.25,0.765-0.494,1.133-0.731
		c0.699-0.534,1.397-1.012,1.972-1.545c0.297-0.258,0.581-0.505,0.851-0.741c0.258-0.251,0.503-0.489,0.734-0.713
		c0.466-0.446,0.875-0.839,1.184-1.188c0.644-0.678,1.031-1.06,1.031-1.06s-0.247,0.476-0.713,1.3
		c-0.226,0.417-0.528,0.907-0.917,1.441c-0.189,0.272-0.391,0.563-0.603,0.869c-0.239,0.287-0.491,0.588-0.753,0.902
		c-0.509,0.647-1.164,1.264-1.864,1.91c-0.373,0.302-0.755,0.613-1.146,0.931c-0.418,0.287-0.861,0.559-1.309,0.843
		c-0.939,0.493-1.94,0.997-3.052,1.256c-1.094,0.321-2.265,0.399-3.422,0.407c-1.157-0.077-2.3-0.27-3.373-0.609
		c-1.067-0.346-2.073-0.804-2.975-1.338c-1.824-1.049-3.274-2.349-4.399-3.536c-1.124-1.194-1.92-2.297-2.433-3.092
		C200.149,295.159,199.913,294.672,199.913,294.672z"/>
</g>
<path fill="none" stroke="#010101" stroke-width="2" stroke-miterlimit="10" d="M177.374,325.767c0,0,43.991,14.387,72.367,0
	c1.034,0.494-12.736,27.383-34.632,26.687C205.052,352.221,186.339,351.991,177.374,325.767z"/>
<path fill="none" stroke="#010101" stroke-width="2" stroke-miterlimit="10" d="M177.374,325.767"/>
<path fill="none" stroke="#010101" stroke-width="2" stroke-miterlimit="10" d="M98.011,294.405c0,0-32.833,37.54-15.07,58.063
	c6.368,6.252,25.872,20.24,35.863,4.163c3.017-8.702,5.091-13.286,4.724-21.263"/>
<path fill="none" stroke="#010101" stroke-width="2" stroke-miterlimit="10" d="M294.356,335.05c0,0,0.073,24.714,19.346,20.188
	c11.897-2.784,31.337-11.138,24.969-32.719c-2.346-6.613-9.074-20.625-18.95-31.719"/>
<path fill="none" stroke="#010101" stroke-width="2" stroke-miterlimit="10" d="M383.918,414.238
	c-1.211-3.195-3.142-7.091,1.676-7.309c1.074-0.049,2.156,0.056,3.242,0.242c2.105,0.362,4.208,1.026,6.217,1.453
	c2.164,0.461,4.811,0.326,6.587,1.962c0.927,0.858,2.464,2.366,3.232,3.434c1.621,2.268,2.245,7.284-1.307,7.884
	c-0.705,0.118-1.515-0.043-2.203,0.046c0.296,2.807,2.761,4.869,2.123,7.987c-0.307,1.49-1.229,2.615-2.635,3.096
	c-0.669,0.229-3.017,0.365-3.373,0.896c-0.822,1.236,1.295,2.857,1.732,3.938c0.396,0.978,1.063,3.351,0.797,4.39
	c-0.344,1.336-1.666,1.772-2.894,2.272c-1.42,0.577-2.205,1.394-3.46,2.113c0.719,1.982,1.792,2.475,1.657,4.848
	c-0.1,1.822-0.508,2.804-1.848,3.989c-2.97,2.628-5,0.759-7.916-0.658c-1.601-0.778-2.689-1.057-3.893-2.635
	c-1.117-1.468-1.852-2.862-3.255-4.009c-2.239-1.829-5.363-4.611-6.544-7.314c-0.608-1.39-0.426-2.763,0.529-3.982
	c1.451-1.848,2.593-2.003,4.81-2.136c0.326-1.545-1.505-2.002-2.332-2.939c-1.019-1.155-1.315-2.491-1.17-4.125
	c0.129-1.42,0.486-3.341,1.718-4.086c1.001-0.6,3.485-0.601,4.384,0.205c-0.638-2.3-3.477-3.06-2.749-6.257
	c0.554-2.438,4.979-4.335,6.872-2.611"/>
<line fill="none" stroke="#010101" stroke-width="2" stroke-miterlimit="10" x1="428.272" y1="296.528" x2="388.836" y2="407.172"/>
<line fill="none" stroke="#010101" stroke-width="2" stroke-miterlimit="10" x1="403.435" y1="412.351" x2="441.232" y2="303.542"/>
<path fill="none" stroke="#010101" stroke-width="2" stroke-miterlimit="10" d="M375.587,445.707l-13.12,38.671
	c0,0-0.236,20.535,13.12,6.266c3.974-9.052,12.33-34.591,12.33-34.591"/>
<polygon fill="none" stroke="#010101" stroke-width="2" stroke-miterlimit="10" points="482.455,343.056 490.835,317.646 
	503.571,313.469 495.527,339.117 "/>
<path fill="none" stroke="#010101" stroke-width="2" stroke-miterlimit="10" d="M482.455,343.056c0,0-44.241-56.737-87.477-54.301
	c-7.709,0.348-50.165,4.062-65.023,9.166c8.825-4.757,65.358-36.315,109.601-27.266c8.378,3.133,46.587,21.929,64.016,42.815"/>
<path fill="none" stroke="#010101" stroke-width="2" stroke-miterlimit="10" d="M329.955,297.92c0,0,66.699-36.664,106.248-19.608
	c10.391,6.266,40.556,26.455,54.632,39.333"/>
<path fill="none" stroke="#010101" stroke-width="2" stroke-miterlimit="10" d="M394.57,391.078c0,0-4.51-2.424-17.021,12.428
	c-4.692-1.855-40.22-19.956-40.22-19.956"/>
<path fill="none" stroke="#010101" stroke-width="2" stroke-miterlimit="10" d="M372.297,441.728c0,0-2.527-4.574-6.346-6.198
	c-3.819-2.089-46.497-18.563-46.497-18.563"/>
<path fill="none" stroke="#010101" stroke-width="2" stroke-miterlimit="10" d="M275.212,410.003c0,0,32.43,13.46,41.927,11.602
	c1.866-1.856,13.71-21.118,15.723-28.079c2.01-4.874,6.48-14.62,4.469-22.509c-3.576-2.553-43.793-17.609-62.338-18.552"/>
<polyline fill="none" stroke="#010101" stroke-width="2" stroke-miterlimit="10" points="283.466,345.894 287.279,348.277 
	287.279,354.302 "/>
<path fill="none" stroke="#010101" stroke-width="2" stroke-miterlimit="10" d="M149.825,355.572c0,0-48.672,8.252-66.549,51.415
	c-1.117,1.625,12.737,24.365,37.539,34.112c1.564-0.696,24.802-22.741,27.037-24.598"/>
<polyline fill="none" stroke="#010101" stroke-width="2" stroke-miterlimit="10" points="139.483,349.125 135.562,352.468 
	135.562,359.668 "/>
<path fill="none" stroke="#010101" stroke-width="2" stroke-miterlimit="10" d="M152.479,356.993c0,0-2.617,66.237-9.768,93.62
	c-3.576,14.852-14.747,72.864-14.747,72.864l10.782,3.888c0,0,16.926-71.134,19.607-87.865c2.011-10.468,7.605-70.972,6.483-76.921"
	/>
<path fill="none" stroke="#010101" stroke-width="2" stroke-miterlimit="10" d="M260.62,360.84c0,0,3.979,79.678,11.688,100.564
	c5.698,24.364,10.725,58.825,13.072,65.96c5.027-1.565,12.066-3.307,12.066-3.307s-15.713-69.915-18.414-84.559
	c-2.702-14.644-9.164-80.565-6.771-85.197"/>
<path fill="none" stroke="#010101" stroke-width="2" stroke-miterlimit="10" d="M295.99,417.609c0,0,7.154,77.092,6.706,95.659
	c0.893,8.818-1.117,16.246-10.724,16.709c-6.483,0.927-10.056,0-10.056,0"/>
<path fill="none" stroke="#010101" stroke-width="2" stroke-miterlimit="10" d="M279.338,496.628l2.578,53.77
	c0,0-30.517,17.635-75.476,8.815c-18.593-2.783-52.11-5.104-63.729-3.711c-0.781-4.641,1.862-52.887,3.762-61.153"/>
<path fill="none" stroke="#010101" stroke-width="2" stroke-miterlimit="10" d="M143.355,530.388c0,0-17.179,3.998-21.201-8.068
	c-0.67-9.746,4.22-81.913,4.457-86.208"/>
<path fill="none" stroke="#010101" stroke-width="2" stroke-miterlimit="10" d="M87.022,414.413c0,0-13.801,49.775-14.471,54.648
	c-0.67,4.873-9.049,11.487-10.39,11.836c-1.341,0.348-16.759,16.011-11.563,21.581c2.346,1.739,9.72-1.29,13.406-8.129
	c1.174,0.993-9.552,26.925-4.86,30.232c2.682,1.566,6.202,1.218,14.916-20.364c1.005,0.696-11.898,28.552-0.67,26.806
	c3.687-0.525,9.216-15.666,11.898-22.976c1.508,0.174-10.44,23.503,1.735,22.976c3.627-1.569,7.482-0.003,11.839-34.811
	c1.173,0.868,9.385,13.399,14.748,5.046c1.508-2.088-1.173-10.964-12.234-16.88c0.167-3.134,15.038-32.846,15.144-44.879"/>
<path fill="none" stroke="#010101" stroke-width="2" stroke-miterlimit="10" d="M179.58,677.793v-3.017
	c0,0,2.764-66.831,32.662-95.373c6.439,6.961,28.781,37.824,30.569,98.158c6.258,2.32,22.792,2.32,33.072-1.856
	c8.267-2.785,15.863-3.945,22.12-3.481c0-3.48-1.563-73.384-23.012-118.606"/>
<path fill="none" stroke="#010101" stroke-width="2" stroke-miterlimit="10" d="M244.891,678.163c0,0-17.94,34.438,22.279,33.047
	c21.673,0.696,48.265,2.32,53.18-6.962c0.894-4.408-0.296-19.11-23.05-32.063"/>
<path fill="none" stroke="#010101" stroke-width="2" stroke-miterlimit="10" d="M124.836,671.993c0,0-29.158,23.668-16.422,35.503
	c9.719,3.83,67.033,7.311,73.401-3.133c4.022-4.872,3.24-18.68-2.235-26.57c-6.257,3.018-18.546,1.624-24.578,0
	C148.968,676.171,131.316,672.805,124.836,671.993c-5.808-51.052,24.125-116.868,24.125-116.868"/>
</svg>
