<?xml version="1.0" encoding="utf-8"?>
<!-- Generator: Adobe Illustrator 16.0.0, SVG Export Plug-In . SVG Version: 6.00 Build 0)  -->
<!DOCTYPE svg PUBLIC "-//W3C//DTD SVG 1.1//EN" "http://www.w3.org/Graphics/SVG/1.1/DTD/svg11.dtd">
<svg version="1.1" id="Layer_1" xmlns="http://www.w3.org/2000/svg" xmlns:xlink="http://www.w3.org/1999/xlink" x="0px" y="0px"
	 width="552px" height="859px" viewBox="0 0 552 859" enable-background="new 0 0 552 859" xml:space="preserve">
<rect x="0" fill="#FFFFFF" stroke="#000000" stroke-miterlimit="10" width="552" height="859"/>
<path fill="none" stroke="#000000" stroke-width="2" stroke-miterlimit="10" d="M116.877,236.879c0,0-70.521-31.463-43.93-62.924
	c12.716-15.306,92.485-73.129,95.954-77.381c8.667-3.828,26.008-19.558,31.21-24.236c5.203-4.677,90.463-45.918,132.948,12.755
	c14.74,14.03,55.492,55.484,114.452,83.545c0,8.291-19.942,35.714-52.891,54.847C375.545,236.878,198.963,324.89,116.877,236.879z"
	/>
<path fill="none" stroke="#000000" stroke-width="2" stroke-miterlimit="10" d="M100.684,228.229c0,0,63.299-55.764,148.271-57.677
	c17.341-0.638,53.758-7.653,107.516,7.653c19.074,6.377,47.48,24.691,55.819,33.392"/>
<path fill="none" stroke="#000000" stroke-width="2" stroke-miterlimit="10" d="M116.877,236.879c0,0,53.177-44.006,127.743-45.919
	c27.746-1.913,100.579-16.582,150,32.525"/>
<path fill="none" stroke="#000000" stroke-width="2" stroke-miterlimit="10" d="M122.619,242.61c0,0-28.288,104.812,70.557,116.291
	c23.698,2.125,127.746,13.18,191.328-40.391c8.671-7.229,23.989-45.914,15.607-71.853c0-9.779-5.36-19.133-8.461-21.259"/>
<path fill="none" stroke="#000000" stroke-width="2" stroke-miterlimit="10" d="M401.519,252.199l1.021,0.409
	c0,0,53.421,33.388-3.694,36.464"/>
<path fill="none" stroke="#000000" stroke-width="2" stroke-miterlimit="10" d="M118.869,267.065c0,0-41.403,28.336,3.155,34.789"/>
<ellipse fill="none" stroke="#000000" stroke-width="2" stroke-miterlimit="10" cx="180.168" cy="288.536" rx="7.804" ry="7.015"/>
<ellipse fill="none" stroke="#000000" stroke-width="2" stroke-miterlimit="10" cx="337.683" cy="282.295" rx="7.516" ry="6.778"/>
<path fill="none" stroke="#000000" stroke-width="2" stroke-miterlimit="10" d="M212.249,328.714c0,0,21.967,17.433,68.787,10.204
	c14.452-2.551,27.169-8.928,29.48-18.282c4.046-0.425,7.516,3.031,4.625,10.019c-3.469,6.139-25.435,20.169-68.787,18.042
	c-13.873-2.126-28.323-6.802-39.885-17.432C205.892,328.29,202.49,323.44,212.249,328.714z"/>
<polyline fill="none" stroke="#000000" stroke-width="2" stroke-miterlimit="10" points="218.175,361.28 263.696,416.406 
	309.65,355.5 332.625,385.952 305.314,397.272 313.985,416.406 260.705,432.668 214.273,420.231 218.609,398.548 190.863,389.62 
	211.672,361.28 "/>
<path fill="none" stroke="#000000" stroke-width="2" stroke-miterlimit="10" d="M209.071,361.28l-70.521,37.587l-45.377,58.249
	L79.3,493.681c0,0-35.259,25.51,0,55.271c10.405,2.551,20.759,11.905,39.569-17.007c8.409,4.677,42.947,18.069,2.628-27.849
	c-10.838-2.87-40.751-8.61-40.751-8.61l-2.844-1.057"/>
<path fill="none" stroke="#000000" stroke-width="2" stroke-miterlimit="10" d="M466.007,348.914v2.334
	c-1.733,19.983-22.544,50.596-30.634,55.698c-50.291,46.768-91.041,6.589-91.041,6.589l20.809,130.101l-17.919,8.796l-66.187,10.976
	l-17.051-32.101l-18.498,30.612l-71.099-9.487c0,0-3.468-1.78-10.405-6.245c8.67-31.249,18.208-123.724,18.208-123.724
	c0,5.74-17.341,24.234-23.41,31.25c-7.37,12.755-37.284,50.383-37.284,50.383"/>
<path fill="none" stroke="#000000" stroke-width="2" stroke-miterlimit="10" d="M311.867,358.442c0,0,40.847,24.27,65.124,22.143
	c6.937-4.677,44.509-40.816,44.509-40.816l1.24-1.127"/>
<line fill="none" stroke="#000000" stroke-width="2" stroke-miterlimit="10" x1="322.86" y1="364.401" x2="398.789" y2="361.28"/>
<path fill="none" stroke="#000000" stroke-width="2" stroke-miterlimit="10" d="M466.007,348.914c0,0,42.197-29.553,12.138-49.537
	c-11.559-6.802-31.213-8.078-41.618,13.606c-9.825-4.677-31.792-8.929-15.026,24.66C427.281,342.745,445.49,350.831,466.007,348.914
	z"/>
<polyline fill="none" stroke="#000000" stroke-width="2" stroke-miterlimit="10" points="177.089,552.794 189.706,659.07 
	335.369,662.046 347.222,552.433 "/>
<line fill="none" stroke="#000000" stroke-width="2" stroke-miterlimit="10" x1="264.852" y1="568.935" x2="264.852" y2="699.886"/>
<path fill="none" stroke="#000000" stroke-width="2" stroke-miterlimit="10" d="M189.706,659.07c0,0-45.664,20.727-46.531,40.815
	c9.104,0.319,247.111,0,247.111,0s-17.053-21.47-35.983-29.655c-9.104-1.595-12.719-2.339-18.933-8.185"/>
<ellipse fill="none" stroke="#000000" stroke-width="2" stroke-miterlimit="10" cx="261.961" cy="448.429" rx="9.105" ry="8.426"/>
<ellipse fill="none" stroke="#000000" stroke-width="2" stroke-miterlimit="10" cx="261.961" cy="487.355" rx="9.105" ry="7.494"/>
<ellipse fill="none" stroke="#000000" stroke-width="2" stroke-miterlimit="10" cx="262.647" cy="520.667" rx="7.803" ry="7.653"/>
<polygon fill="none" stroke="#000000" stroke-width="2" stroke-miterlimit="10" points="255.749,79.99 265.864,106.776 
	302.713,106.776 273.233,125.59 284.071,153.332 257.231,137.707 229.013,155.245 237.25,127.185 208.204,109.327 244.187,108.371 
	"/>
</svg>
