<?xml version="1.0" encoding="utf-8"?>
<!-- Generator: Adobe Illustrator 16.0.0, SVG Export Plug-In . SVG Version: 6.00 Build 0)  -->
<!DOCTYPE svg PUBLIC "-//W3C//DTD SVG 1.1//EN" "http://www.w3.org/Graphics/SVG/1.1/DTD/svg11.dtd">
<svg version="1.1" id="Layer_1" xmlns="http://www.w3.org/2000/svg" xmlns:xlink="http://www.w3.org/1999/xlink" x="0px" y="0px"
	 width="552px" height="859px" viewBox="0 0 552 859" enable-background="new 0 0 552 859" xml:space="preserve">
<rect fill="#FFFFFF" stroke="#000000" stroke-miterlimit="10" width="552" height="859"/>
<ellipse fill="none" stroke="#010101" stroke-width="2" stroke-miterlimit="10" cx="304.046" cy="228.462" rx="21.248" ry="28.706"/>
<ellipse fill="none" stroke="#010101" stroke-width="2" stroke-miterlimit="10" cx="217.071" cy="228.462" rx="21.249" ry="28.706"/>
<ellipse fill="#010101" cx="305.914" cy="230.346" rx="8.484" ry="13.773"/>
<ellipse fill="#FFFFFF" cx="307.665" cy="226.867" rx="3.621" ry="6.815"/>
<ellipse fill="#010101" cx="218.548" cy="231.846" rx="8.484" ry="13.774"/>
<ellipse fill="#FFFFFF" cx="220.69" cy="228.462" rx="3.62" ry="6.814"/>
<g>
	<path fill="#010101" d="M187.839,210.63c0,0,0.309-0.853,1.016-2.279c0.72-1.415,1.827-3.417,3.474-5.614
		c0.815-1.105,1.769-2.254,2.857-3.402c1.11-1.125,2.303-2.31,3.706-3.342c1.381-1.052,2.885-2.069,4.548-2.864
		c1.637-0.845,3.422-1.462,5.237-1.938c0.921-0.19,1.837-0.404,2.772-0.478c0.465-0.045,0.927-0.125,1.392-0.14
		c0.465-0.011,0.928-0.022,1.39-0.034c0.924-0.063,1.834,0.089,2.734,0.139c0.896,0.095,1.767,0.284,2.628,0.42
		c0.848,0.199,1.675,0.423,2.481,0.646c0.795,0.257,1.553,0.562,2.299,0.83c0.75,0.258,1.428,0.63,2.106,0.932
		c0.335,0.16,0.664,0.317,0.987,0.472c0.311,0.176,0.616,0.35,0.915,0.519c0.594,0.342,1.163,0.67,1.705,0.982
		c0.528,0.332,1.006,0.683,1.466,0.993c0.923,0.617,1.704,1.182,2.31,1.699c1.223,1.009,1.922,1.585,1.922,1.585
		s-0.78-0.457-2.146-1.256c-0.664-0.425-1.514-0.865-2.481-1.373c-0.485-0.251-0.99-0.54-1.541-0.803
		c-0.555-0.253-1.138-0.52-1.747-0.798c-0.304-0.138-0.614-0.278-0.93-0.422c-0.325-0.121-0.656-0.244-0.993-0.368
		c-0.678-0.233-1.346-0.562-2.081-0.756c-0.729-0.208-1.469-0.453-2.237-0.647c-0.773-0.164-1.563-0.332-2.367-0.503
		c-0.813-0.093-1.635-0.24-2.471-0.295c-0.419-0.017-0.84-0.034-1.264-0.05c-0.423-0.035-0.847-0.041-1.273-0.011l-1.283,0.047
		c-0.429,0.018-0.853,0.1-1.281,0.146c-0.86,0.076-1.7,0.291-2.545,0.47c-1.675,0.418-3.331,0.961-4.862,1.729
		c-0.784,0.345-1.511,0.79-2.256,1.183c-0.709,0.454-1.438,0.864-2.094,1.361c-1.354,0.936-2.571,1.976-3.705,2.988
		c-1.104,1.044-2.126,2.066-3.015,3.064c-1.784,1.993-3.116,3.804-4.02,5.093C188.3,209.848,187.839,210.63,187.839,210.63z"/>
</g>
<g>
	<path fill="#010101" d="M279.372,199.756c0,0,0.533-0.77,1.643-1.979c0.555-0.604,1.253-1.316,2.1-2.089
		c0.855-0.761,1.832-1.617,2.987-2.437c1.141-0.837,2.426-1.691,3.867-2.458c1.424-0.796,3.003-1.511,4.69-2.109
		c1.686-0.605,3.492-1.065,5.356-1.377c1.872-0.239,3.796-0.426,5.719-0.308c1.925,0.067,3.823,0.407,5.666,0.806
		c0.906,0.26,1.814,0.491,2.685,0.797c0.857,0.337,1.722,0.628,2.537,0.993c0.805,0.387,1.611,0.734,2.369,1.134
		c0.741,0.428,1.466,0.846,2.172,1.253c1.359,0.891,2.657,1.715,3.739,2.626c0.551,0.439,1.079,0.86,1.582,1.261
		c0.473,0.433,0.922,0.845,1.344,1.231c0.85,0.763,1.562,1.456,2.109,2.067c1.107,1.201,1.74,1.887,1.74,1.887
		s-0.73-0.579-2.008-1.592c-0.617-0.527-1.416-1.107-2.328-1.771c-0.454-0.332-0.938-0.685-1.448-1.057
		c-0.526-0.346-1.079-0.71-1.657-1.09c-0.569-0.389-1.174-0.776-1.828-1.128c-0.647-0.361-1.292-0.776-1.988-1.139
		c-0.702-0.349-1.424-0.707-2.161-1.072c-0.754-0.321-1.525-0.648-2.309-0.982c-0.789-0.318-1.619-0.56-2.441-0.85
		c-0.835-0.25-1.695-0.443-2.549-0.688c-1.737-0.351-3.518-0.646-5.314-0.689c-1.794-0.136-3.593,0.021-5.35,0.219
		c-1.746,0.286-3.468,0.609-5.083,1.135c-1.611,0.523-3.161,1.089-4.572,1.77c-1.42,0.66-2.729,1.37-3.905,2.082
		c-2.355,1.425-4.197,2.83-5.448,3.861C280.033,199.095,279.372,199.756,279.372,199.756z"/>
</g>
<ellipse fill="none" stroke="#010101" stroke-width="2" stroke-miterlimit="10" cx="258.279" cy="113.422" rx="11.442" ry="10.221"/>
<g>
	<path fill="#010101" d="M244.19,271.231c0,0,0.411,0.441,1.155,1.173c0.74,0.734,1.824,1.752,3.17,2.891
		c1.35,1.136,2.987,2.369,4.843,3.468c0.931,0.542,1.921,1.042,2.953,1.455c1.025,0.433,2.106,0.75,3.199,0.93
		c1.088,0.24,2.196,0.241,3.277,0.191c1.07-0.14,2.141-0.277,3.12-0.66c0.246-0.089,0.497-0.158,0.734-0.261
		c0.236-0.107,0.469-0.214,0.7-0.319c0.476-0.187,0.908-0.442,1.331-0.689c0.213-0.123,0.423-0.243,0.63-0.362
		c0.196-0.138,0.39-0.274,0.581-0.407c0.378-0.271,0.777-0.495,1.103-0.787c0.671-0.556,1.317-1.045,1.826-1.552
		c0.524-0.491,1.005-0.906,1.352-1.293c0.727-0.747,1.162-1.169,1.162-1.169s-0.297,0.519-0.852,1.418
		c-0.266,0.459-0.645,0.976-1.098,1.561c-0.426,0.608-0.994,1.224-1.626,1.893c-0.299,0.351-0.684,0.645-1.047,0.988
		c-0.188,0.165-0.38,0.332-0.574,0.502c-0.211,0.151-0.425,0.305-0.643,0.46c-0.435,0.314-0.881,0.639-1.388,0.9
		c-0.488,0.294-1.008,0.554-1.567,0.764c-1.089,0.48-2.31,0.778-3.562,0.936c-1.256,0.088-2.555,0.104-3.809-0.146
		c-1.254-0.232-2.469-0.619-3.597-1.12c-1.146-0.47-2.17-1.118-3.142-1.747c-0.966-0.641-1.828-1.35-2.612-2.048
		c-0.787-0.697-1.48-1.405-2.087-2.083c-1.224-1.349-2.107-2.579-2.682-3.463C244.463,271.768,244.19,271.231,244.19,271.231z"/>
</g>
<path fill="none" stroke="#010101" stroke-width="2" stroke-miterlimit="10" d="M227.033,299.356c0,0,26.655,17.977,77.013,0
	c-3.503,6.38-12.53,26.097-44.287,26.966c-6.851-0.579-28.71-4.058-32.726-25.226C227.033,299.356,227.033,299.356,227.033,299.356z
	"/>
<path fill="none" stroke="#010101" stroke-width="2" stroke-miterlimit="10" d="M286.533,171.195c0,0-22.687,11.018-20.994,13.918
	c-2.667-4.058-5.47-8.699-3.291-12.178"/>
<path fill="none" stroke="#010101" stroke-width="2" stroke-miterlimit="10" d="M156.767,162.14c-0.58,0.603-0.53,1.951-0.53,1.951
	s-1.557,43.059,3.969,47.843c0,0-33.391-4.205-30.277,27.692c2.49,13.338,10.584,25.516,21.17,25.516
	c2.49,4.641,26.775,88.728,124.225,83.508c14.631-1.16,103.678-3.77,124.848-93.221c0,0,27.864,3.479,30.899-31.968
	c-0.935-7.829-10.741-30.881-33.157-13.917c0.7,4.131-1.401,11.525-1.401,11.525s-24.751,9.134-31.99-28.923
	c-1.868-9.352-6.305-25.443-9.807-26.966c-2.569,3.697-9.107,10.222-15.412,8.699c0-3.263-0.467-9.786-3.97-9.786"/>
<path fill="none" stroke="#010101" stroke-width="2" stroke-miterlimit="10" d="M179.121,171.195c0,0-6.693,29.285-18.914,40.74"/>
<path fill="none" stroke="#010101" stroke-width="2" stroke-miterlimit="10" d="M157.326,220.054c0,0-9.023,8.832-4.048,35.23
	C148.61,252.963,119.655,221.648,157.326,220.054z"/>
<path fill="none" stroke="#010101" stroke-width="2" stroke-miterlimit="10" d="M367.559,147.023
	c-13.389,22.326-111.226,27.072-150.488,26.491c-84.095-2.319-61.922-25.226-61.922-25.226s61.645-17.976,114.572-17.688
	c18.681,0,58.926-0.241,88.502,10.196"/>
<path fill="none" stroke="#010101" stroke-width="2" stroke-miterlimit="10" d="M366.562,139.688
	c3.876,1.317,6.445,3.848,5.739,5.654c-0.708,1.805-4.424,2.201-8.3,0.884c-3.877-1.317-6.446-3.849-5.739-5.655
	C358.969,138.766,362.685,138.371,366.562,139.688z"/>
<path fill="none" stroke="#010101" stroke-width="2" stroke-miterlimit="10" d="M372.322,145.361c0,0,32.831,18.004,36.568,20.324
	c3.734-2.32,23.039-22.042,10.896-35.087c-12.141-9.856-32.067-22.614-32.067-22.614s-16.424-6.524-20.161-16.31
	c-3.735-8.264-30.75-55.02-106.091-44.581c-36.58,5.654-63.667,16.527-76.743,33.055c-4.203,6.958-8.406,13.918-24.518,20.877
	c-11.909,8.264-42.156,23.573-5.058,47.263"/>
<path fill="none" stroke="#010101" stroke-width="2" stroke-miterlimit="10" d="M267.604,107.514c0,0,45.781-1.776,49.518,0
	c2.101,3.516,1.401,5.038,0,7.213c-1.401,2.174-3.503,5.219-3.036,6.742c-2.567-0.436-47.644-0.891-47.644-0.891"/>
<path fill="none" stroke="#010101" stroke-width="2" stroke-miterlimit="10" d="M248.838,107.649c0,0-38.195,2.728-52.438,5.772
	c0.467,2.609-0.701,5.219,1.868,6.524c2.569,1.304,1.869,3.262,2.102,5.219c2.101,0.652,50.868-3.697,50.868-3.697"/>
<path fill="none" stroke="#010101" stroke-width="2" stroke-miterlimit="10" d="M408.891,165.687c0,0-6.072,36.994,0,38.25"/>
<path fill="none" stroke="#010101" stroke-width="2" stroke-miterlimit="10" d="M188.714,321.573c0,0-23.447,0.035-24.693,0
	c-1.246-0.034-11.054,3.589,3.269,7.794c6.071,0.725,25.841,0.246,30.823-0.531"/>
<path fill="none" stroke="#010101" stroke-width="2" stroke-miterlimit="10" d="M358.39,321.633c0,0,20.844,10.127,22.947,11.866
	c2.101,2.175,4.669,7.177-7.706,5.654c-7.239-1.957-20.567-9.29-24.646-11.169"/>
<path fill="none" stroke="#010101" stroke-width="2" stroke-miterlimit="10" d="M277.815,348.882l16.812,28.473
	c0,0,40.697-23.45,40.584-42.172"/>
<path fill="none" stroke="#010101" stroke-width="2" stroke-miterlimit="10" d="M272.834,348.882l-15.878,28.473
	c0,0-33.63-16.685-39.542-37.917"/>
<path fill="none" stroke="#010101" stroke-width="2" stroke-miterlimit="10" d="M159.59,324.366
	c-1.019,0-37.445-6.741-50.988-31.967c-6.772,2.609-28.487,14.787-33.858,22.399c3.036,4.784,24.985,59.369,110.448,71.547
	c3.736,19.137,12.609,93.365,12.921,134.54c-1.246,22.036-5.449,55.527-6.85,69.443c-2.335,18.704-7.472,54.804-6.071,65.242
	c-3.735,3.043-54.016,39.289-0.155,40.74c31.445-0.58,79.704,11.018,59.777-32.476c1.556-2.029,1.672-1.795,1.672-1.795
	s-8.21-59.389,34.132-98.241c8.718,12.177,29.267,49.294,35.493,98.585c1.246,1.018,1.246,1.018,1.246,1.018
	s-22.416,32.856,21.795,33.897c20.547,0.749,104.3,1.329,36.738-40.136c-0.316-6.667-6.23-88.146-8.098-118.88
	c-0.624-19.717-2.568-130.192-1.754-140.63c6.11,7.249,20.81,26.966,35.721,83.798c7.126-0.871,38.182-5.616,40.518-7.139
	c-0.935-2.285-9.553-96.074-60.077-135.805"/>
<polyline fill="none" stroke="#010101" stroke-width="2" stroke-miterlimit="10" points="262.735,366.992 268.32,374.602 
	254.309,462.023 277.815,514.216 301.944,459.413 283.73,375.471 287.271,364.893 "/>
<rect x="304.98" y="394.39" fill="none" stroke="#010101" stroke-width="2" stroke-miterlimit="10" width="42.265" height="7.394"/>
<rect x="254.309" y="521.393" fill="none" stroke="#010101" stroke-width="2" stroke-miterlimit="10" width="46.467" height="18.267"/>
<rect x="214.613" y="521.393" fill="none" stroke="#010101" stroke-width="2" stroke-miterlimit="10" width="9.107" height="17.18"/>
<polygon fill="none" stroke="#010101" stroke-width="2" stroke-miterlimit="10" points="339.072,539.659 330.665,539.659 
	330.665,521.393 339.072,521.393 339.072,522.807 "/>
<path fill="none" stroke="#010101" stroke-width="2" stroke-miterlimit="10" d="M367.371,520.96
	c-3.9,0.542-24.797,2.172-28.299,1.847"/>
<path fill="none" stroke="#010101" stroke-width="2" stroke-miterlimit="10" d="M367.371,533.354c0,0-22.229,2.502-28.299,2.067"/>
<path fill="none" stroke="#010101" stroke-width="2" stroke-miterlimit="10" d="M300.776,535.47c0,0,26.621,0.921,29.889,0"/>
<path fill="none" stroke="#010101" stroke-width="2" stroke-miterlimit="10" d="M300.776,523.784c0,0,26.621,1.087,29.889,0"/>
<polygon fill="none" stroke="#010101" stroke-width="2" stroke-miterlimit="10" points="261.314,524.945 261.314,528.279 
	273.145,528.279 273.145,531.903 261.314,532.629 261.314,535.88 295.095,535.88 295.095,525.253 "/>
<path fill="none" stroke="#010101" stroke-width="2" stroke-miterlimit="10" d="M223.72,522.479c0,0,18.681,1.305,30.589,0.546"/>
<path fill="none" stroke="#010101" stroke-width="2" stroke-miterlimit="10" d="M223.72,534.876c0,0,24.868,1.572,30.589,1.004"/>
<path fill="none" stroke="#010101" stroke-width="2" stroke-miterlimit="10" d="M198.109,520.415c0,0,9.966,2.193,16.504,2.454"/>
<path fill="none" stroke="#010101" stroke-width="2" stroke-miterlimit="10" d="M197.334,531.94c0,0,5.604,2.649,17.279,3.501"/>
<path fill="none" stroke="#010101" stroke-width="2" stroke-miterlimit="10" d="M317.356,663.401c0,0,25.527,0.576,35.024-3.19
	c8.56-2.899,16.659-3.484,23.508-3.048"/>
<path fill="none" stroke="#010101" stroke-width="2" stroke-miterlimit="10" d="M185.191,655.57c0,0,25.219,3.915,33.003,7.828
	c9.807,2.319,22.104,2.759,26.62,0.437"/>
<path fill="none" stroke="#010101" stroke-width="2" stroke-miterlimit="10" d="M401.762,481.451c0,0-16.224,8.409-11.553,15.802
	c3.035,2.61,11.266-0.924,15-4.186"/>
<path fill="none" stroke="#010101" stroke-width="2" stroke-miterlimit="10" d="M405.209,492.252c0,0-1.224,40.013,10.219,36.752
	c5.604-3.262,4.903-14.57,4.203-22.617c1.634,9.568,4.203,26.531,10.974,24.14c4.204-2.393,1.869-19.355,1.402-26.531
	c3.502,12.178,5.604,27.4,13.776,22.834c2.335-3.263-2.102-24.626-3.502-31.885c1.635-0.953,10.975,16.444,15.879,10.138
	c2.101-4.133-4.244-13.401-17.535-30.187"/>
<path fill="none" stroke="#010101" stroke-width="2" stroke-miterlimit="10" d="M395.419,459.334c0,0,40.67-3.843,43.025-7.825"/>
<path fill="none" stroke="#010101" stroke-width="2" stroke-miterlimit="10" d="M398.035,467.981c0,0,34.052-2.269,41.948-8.082"/>
<path fill="none" stroke="#010101" stroke-width="2" stroke-miterlimit="10" d="M399.586,473.408c0,0,35.923-2.561,41.352-7.68"/>
<path fill="none" stroke="#010101" stroke-width="2" stroke-miterlimit="10" d="M76.522,312.692c0,0-37.505-7.898-30.033-18.99
	c3.502-1.74,9.107-2.392,17.513,3.262c-4.67-6.741-22.884-22.181-14.711-28.923c3.035,0.218,10.508,5.001,19.615,15.005
	c2.568-0.435-20.549-20.442-10.976-23.486c4.437-0.436,19.849,14.788,23.118,16.745c-0.468-2.175-15.412-18.758-7.472-19.817
	c5.604,0.463,9.807-1.712,24.985,25.689c1.167-3.262,9.106-15.006,14.243-10.003c3.036,4.784-4.48,16.56-5.918,20.948"/>
<path fill="none" stroke="#010101" stroke-width="2" stroke-miterlimit="10" d="M112.61,298.555c0,0-28.107,11.888-34.192,23.019"/>
<path fill="none" stroke="#010101" stroke-width="2" stroke-miterlimit="10" d="M117.034,303.539c0,0-25.346,11.702-34.869,24.128"
	/>
<path fill="none" stroke="#010101" stroke-width="2" stroke-miterlimit="10" d="M123.378,308.978c0,0-29.905,13.693-36.271,25.595"
	/>
<path fill="none" stroke="#010101" stroke-width="2" stroke-miterlimit="10" d="M407.537,218.072c0,0,1.819,16.044-3.785,26.047
	C410.524,243.25,438.646,211.599,407.537,218.072z"/>
</svg>
