<?xml version="1.0" encoding="utf-8"?>
<!-- Generator: Adobe Illustrator 16.0.0, SVG Export Plug-In . SVG Version: 6.00 Build 0)  -->
<!DOCTYPE svg PUBLIC "-//W3C//DTD SVG 1.1//EN" "http://www.w3.org/Graphics/SVG/1.1/DTD/svg11.dtd">
<svg version="1.1" id="Layer_1" xmlns="http://www.w3.org/2000/svg" xmlns:xlink="http://www.w3.org/1999/xlink" x="0px" y="0px"
	 width="552px" height="859px" viewBox="0 0 552 859" enable-background="new 0 0 552 859" xml:space="preserve">
<rect fill="#FFFFFF" stroke="#000000" stroke-miterlimit="10" width="552" height="859"/>
<path fill="none" stroke="#010101" stroke-width="2" stroke-miterlimit="10" d="M299.375,206.729
	c10.334,1.301,17.155,14.661,15.236,29.841c-1.921,15.179-11.855,26.43-22.188,25.129c-10.335-1.301-17.156-14.662-15.235-29.84
	C279.106,216.678,289.042,205.428,299.375,206.729z"/>
<path fill="#010101" d="M300.493,222.352c3.705,1.073,5.14,7.336,3.204,13.991s-6.508,11.179-10.213,10.105
	c-3.706-1.072-5.14-7.336-3.205-13.99C292.216,225.804,296.787,221.279,300.493,222.352z"/>
<path fill="#FFFFFF" d="M300.899,230.207c1.582,0.538,1.992,3.534,0.913,6.693c-1.078,3.158-3.235,5.282-4.817,4.745
	c-1.584-0.539-1.992-3.535-0.914-6.693C297.16,231.793,299.317,229.669,300.899,230.207z"/>
<path fill="none" stroke="#010101" stroke-width="2" stroke-miterlimit="10" d="M223.703,202.611
	c10.334,1.301,17.155,14.661,15.235,29.841c-1.919,15.18-11.854,26.431-22.188,25.129c-10.335-1.301-17.155-14.662-15.236-29.842
	C203.434,212.56,213.37,201.31,223.703,202.611z"/>
<path fill="#010101" d="M225.336,217.779c3.791,0.715,5.819,6.813,4.53,13.621c-1.289,6.808-5.407,11.749-9.198,11.034
	c-3.792-0.715-5.819-6.813-4.529-13.621C217.427,222.006,221.544,217.065,225.336,217.779z"/>
<path fill="#FFFFFF" d="M227.56,227.109c1.583,0.539,1.992,3.534,0.913,6.692c-1.078,3.159-3.235,5.283-4.817,4.745
	c-1.584-0.538-1.992-3.535-0.914-6.692C223.82,228.696,225.978,226.571,227.56,227.109z"/>
<g>
	<path fill="#010101" d="M192.421,205.472c0,0,1.354-2.638,4.266-5.998c0.733-0.832,1.535-1.732,2.461-2.608
		c0.911-0.892,1.91-1.799,3.006-2.665c1.099-0.861,2.254-1.737,3.513-2.504c0.618-0.402,1.278-0.748,1.92-1.127
		c0.669-0.333,1.323-0.703,2.012-1.006c0.69-0.301,1.377-0.605,2.088-0.848c0.699-0.273,1.413-0.495,2.126-0.701
		c1.42-0.438,2.871-0.668,4.269-0.863c0.703-0.072,1.397-0.123,2.074-0.164c0.679,0.006,1.343,0.011,1.99,0.017
		c0.643,0.054,1.268,0.106,1.872,0.157c0.602,0.068,1.175,0.197,1.727,0.287c1.103,0.188,2.085,0.501,2.949,0.756
		c0.851,0.31,1.595,0.558,2.183,0.828c1.173,0.548,1.825,0.875,1.825,0.875s-0.709-0.181-1.951-0.497
		c-0.614-0.165-1.385-0.271-2.242-0.463c-0.43-0.09-0.9-0.124-1.387-0.193c-0.488-0.063-0.995-0.152-1.534-0.168
		c-1.07-0.098-2.23-0.099-3.45-0.088c-0.608,0.044-1.233,0.088-1.871,0.134c-0.633,0.086-1.279,0.174-1.937,0.263
		c-1.306,0.234-2.636,0.559-3.965,0.97c-1.333,0.396-2.65,0.925-3.938,1.518c-0.653,0.274-1.278,0.616-1.916,0.92
		c-0.615,0.351-1.247,0.667-1.841,1.042c-1.201,0.723-2.368,1.47-3.457,2.257c-1.082,0.794-2.125,1.576-3.073,2.371
		c-0.955,0.787-1.829,1.569-2.635,2.297C194.325,203.223,192.421,205.472,192.421,205.472z"/>
</g>
<g>
	<path fill="#010101" d="M279.273,193.16c0,0,0.741-0.452,2.136-1.058c1.393-0.604,3.441-1.372,6.007-1.934
		c1.28-0.287,2.688-0.537,4.195-0.661c1.504-0.155,3.107-0.188,4.764-0.099c1.655,0.101,3.367,0.317,5.072,0.714
		c1.695,0.427,3.408,0.944,5.033,1.677c1.641,0.699,3.175,1.618,4.639,2.573c0.726,0.487,1.401,1.033,2.082,1.55
		c0.639,0.567,1.27,1.128,1.89,1.679c0.574,0.596,1.139,1.181,1.691,1.754c0.519,0.603,1.001,1.212,1.482,1.793
		c0.491,0.574,0.881,1.198,1.297,1.771c0.409,0.578,0.792,1.143,1.115,1.714c0.335,0.562,0.655,1.1,0.96,1.612
		c0.295,0.518,0.528,1.034,0.771,1.504c0.483,0.943,0.882,1.772,1.154,2.483c0.563,1.406,0.884,2.209,0.884,2.209
		s-0.45-0.737-1.237-2.026c-0.367-0.657-0.887-1.41-1.462-2.281c-0.554-0.885-1.257-1.827-2.018-2.853
		c-0.364-0.524-0.788-1.036-1.235-1.557c-0.453-0.516-0.858-1.099-1.372-1.616c-0.498-0.526-1.011-1.067-1.534-1.62
		c-0.552-0.52-1.116-1.051-1.689-1.592c-0.607-0.498-1.226-1.003-1.852-1.515c-0.667-0.454-1.315-0.95-1.999-1.404
		c-1.386-0.876-2.831-1.715-4.37-2.349c-1.508-0.707-3.102-1.209-4.685-1.632c-1.596-0.378-3.188-0.691-4.753-0.837
		c-1.564-0.131-3.09-0.222-4.54-0.167c-1.449,0.035-2.823,0.144-4.087,0.302c-2.53,0.316-4.621,0.792-6.072,1.181
		C280.087,192.86,279.273,193.16,279.273,193.16z"/>
</g>
<path fill="none" stroke="#010101" stroke-width="2" stroke-miterlimit="10" d="M385.345,181.912
	c-4.89,4.646-8.74,42.61-10.602,45.098c-18.396,5.273-25.382-31.759-28.408-47.557c-11.177,13.707-16.301,11.848-18.629,8.296
	c-6.286-27.481-52.856-2.954-62.404,5.643c-11.408,9.989-7.451-1.163-2.561-17.192c-27.244,21.605-67.759,1.394-77.539-8.364
	c0,32.06-27.243,54.354-27.243,54.354s-2.794-40.415-5.239-49.127c0,0,24.1-47.741,118.054-39.726
	c12.225,0,74.164,1.51,116.076,50.297l29.571-51.204c0,0-33.299-90.51-162.762-84.004c-35.392,1.858-93.14,13.009-126.67,55.757
	c4.656,15.797,25.73,68.881,25.73,68.881"/>
<ellipse fill="none" stroke="#010101" stroke-width="2" stroke-miterlimit="10" cx="270.949" cy="91.345" rx="42.787" ry="35.719"/>
<polygon fill="none" stroke="#010101" stroke-width="2" stroke-miterlimit="10" points="262.392,64.338 279.273,65.384 
	279.273,83.853 295.573,83.853 295.573,101.277 279.273,101.277 279.273,116.61 262.392,116.61 262.392,100.58 244.579,100.231 
	244.579,81.762 262.392,81.762 "/>
<path fill="none" stroke="#010101" stroke-width="2" stroke-miterlimit="10" d="M157.959,222.19c0,0-32.133-3.458-26.894,24.412
	c5.588,15.673,11.526,24.037,19.21,26.825c2.445,6.271,24.685,60.983,69.972,72.134c20.839,5.574,68.341,16.726,112.349-17.425
	c11.875-5.576,37.722-25.09,39.119-49.483c4.423-0.697,27.943-6.04,24.916-29.737c-2.096-11.151-6.057-23.37-21.891-21.906"/>
<path fill="none" stroke="#010101" stroke-width="2" stroke-miterlimit="10" d="M374.859,236.486c0,0,1.046,22.768-1.166,30.202
	c5.588,0.464,15.136-4.297,14.088-16.727C385.918,241.829,382.777,236.253,374.859,236.486z"/>
<g>
	<path fill="#010101" d="M242.483,276.91c0,0,1.558,1.212,3.89,2.926c1.173,0.849,2.544,1.822,4.054,2.766
		c0.747,0.485,1.553,0.922,2.358,1.37c0.811,0.439,1.652,0.842,2.511,1.159c0.847,0.365,1.719,0.591,2.576,0.769
		c0.856,0.113,1.7,0.208,2.493,0.088c0.779-0.136,1.538-0.33,2.176-0.719c0.16-0.095,0.33-0.171,0.479-0.277
		c0.146-0.113,0.29-0.224,0.432-0.333c0.304-0.197,0.544-0.459,0.788-0.7c0.257-0.229,0.463-0.489,0.658-0.743
		c0.194-0.252,0.414-0.472,0.562-0.721c0.296-0.493,0.623-0.899,0.812-1.277c0.406-0.742,0.661-1.172,0.661-1.172
		s-0.093,0.479-0.294,1.326c-0.092,0.427-0.298,0.915-0.508,1.492c-0.099,0.292-0.276,0.571-0.426,0.886
		c-0.152,0.316-0.339,0.633-0.579,0.941c-0.228,0.316-0.453,0.658-0.768,0.954c-0.291,0.317-0.618,0.621-1.008,0.879
		c-0.734,0.573-1.676,0.974-2.675,1.197c-1.007,0.211-2.066,0.226-3.104,0.085c-1.021-0.181-2.047-0.428-2.999-0.813
		c-0.957-0.381-1.863-0.844-2.724-1.337c-0.864-0.49-1.659-1.053-2.411-1.605c-1.503-1.113-2.782-2.288-3.811-3.352
		C243.551,278.581,242.483,276.91,242.483,276.91z"/>
</g>
<path fill="none" stroke="#010101" stroke-width="2" stroke-miterlimit="10" d="M261.063,305.95
	c13.5,1.637,23.812,8.152,23.033,14.552c-0.779,6.401-12.355,10.262-25.855,8.626c-13.5-1.636-23.812-8.151-23.033-14.552
	C235.986,308.176,247.563,304.314,261.063,305.95z"/>
<path fill="none" stroke="#010101" stroke-width="2" stroke-miterlimit="10" d="M155.34,232.809c0,0-6.637,14.59-4.541,30.684
	c-5.763-4.704-13.622-14.222-10.304-24.884C144.337,231.259,150.799,230.003,155.34,232.809z"/>
<path fill="none" stroke="#010101" stroke-width="2" stroke-miterlimit="10" d="M147.521,272.144c0,0-32.407,44.376-15.409,52.973
	c12.574,5.809,33.558,5.49,44.256-8.407"/>
<path fill="none" stroke="#010101" stroke-width="2" stroke-miterlimit="10" d="M382.78,274.957c0,0,29.102,35.488,16.527,42.592
	c-9.081,5.71-35.115,13.096-47.77-2.62"/>
<path fill="none" stroke="#010101" stroke-width="2" stroke-miterlimit="10" d="M233.872,348.803c0,0,7.913,11.741,20.836,12.438
	c12.923,0.697,32.054-0.352,33.142-12.024"/>
<path fill="none" stroke="#010101" stroke-width="2" stroke-miterlimit="10" d="M210.69,342.448c0,0-10.818,36.566,40.176,30.642
	c15.368-1.046,16.067,0.602,25.147,0.649c8.733,0.048,52.108-11.256,34.086-31.914"/>
<ellipse fill="none" stroke="#010101" stroke-width="2" stroke-miterlimit="10" cx="263.09" cy="392.43" rx="5.938" ry="5.401"/>
<ellipse fill="none" stroke="#010101" stroke-width="2" stroke-miterlimit="10" cx="263.963" cy="431.285" rx="5.064" ry="5.576"/>
<ellipse fill="none" stroke="#010101" stroke-width="2" stroke-miterlimit="10" cx="263.963" cy="467.527" rx="5.064" ry="6.273"/>
<ellipse fill="none" stroke="#010101" stroke-width="2" stroke-miterlimit="10" cx="263.963" cy="506.208" rx="5.064" ry="6.273"/>
<ellipse fill="none" stroke="#010101" stroke-width="2" stroke-miterlimit="10" cx="266.758" cy="544.019" rx="5.763" ry="6.099"/>
<ellipse fill="none" stroke="#010101" stroke-width="2" stroke-miterlimit="10" cx="266.758" cy="580.782" rx="5.763" ry="6.621"/>
<path fill="none" stroke="#010101" stroke-width="2" stroke-miterlimit="10" d="M197.183,335.299c0,0-43.523,31.518-66.696,33.609
	c0.928,17.772,9.187,55.756,33.349,67.953c4.951-2.788,22.415-12.197,24.51-18.121c-3.493,16.03-19.333,156.814-24.51,168.663
	c10.889,4.182,130.34,37.636,209.277-6.62c-2.096-9.41-27.244-97.923-36.324-162.74c2.793,4.879,7.685,12.313,21.188-1.394
	c7.915-7.202,28.173-26.484,28.173-26.484s-27.034-51.575-61.367-56.454"/>
<path fill="none" stroke="#010101" stroke-width="2" stroke-miterlimit="10" d="M134.364,392.43c0,0-29.844,13.765-44.164,1.917
	c-4.89-3.833-12.574-11.151-16.417-7.318c-2.444,5.576-1.397,6.621,6.636,15.682c-8.731,1.394-35.801,9.06-34.578,17.772
	c2.445,4.007,13.098,2.613,23.925-1.394c1.746,0-28.466,10.455-23.052,19.341c2.445,2.09,14.32,2.787,26.894-6.622
	c0.698,0.697-22.703,13.068-20.607,18.993c2.271,3.135,6.112,5.227,31.609-9.409c-1.572,3.31-4.541,31.712,13.622,1.917
	c3.493-6.099,6.986-16.728,18.512-17.425c7.509-0.349,23.106-0.961,30.851-3.617"/>
<path fill="none" stroke="#010101" stroke-width="2" stroke-miterlimit="10" d="M354.877,419.553c0,0,20.331,43.56,38.959,16.845
	c9.313-12.313,41.212-60.402,40.514-69.928"/>
<path fill="none" stroke="#010101" stroke-width="2" stroke-miterlimit="10" d="M398.024,338.708l0.585-4.996
	c0,0,5.935-1.509,13.387,7.318c3.728,5.459,5.823,7.319,4.076,14.869c-1.746-0.117-4.076-1.394-4.076-1.394
	S398.609,338.475,398.024,338.708c-5.355,6.969,8.034,19.282,9.082,21.49c-1.63,8.596-16.998,30.433-19.093,32.292
	c-2.096,1.858-6.387,1.974-6.387,1.974"/>
<line fill="none" stroke="#010101" stroke-width="2" stroke-miterlimit="10" x1="409.85" y1="338.717" x2="420.399" y2="326.619"/>
<line fill="none" stroke="#010101" stroke-width="2" stroke-miterlimit="10" x1="413.123" y1="342.653" x2="425.051" y2="329.581"/>
<path fill="none" stroke="#010101" stroke-width="2" stroke-miterlimit="10" d="M429.346,356.247c0,0-4.309,12.198,7.334,9.293
	c5.121-2.788,12.806-9.874,12.806-9.874s5.472-8.829-1.63-11.5C442.85,347.419,429.346,356.247,429.346,356.247z"/>
<path fill="none" stroke="#010101" stroke-width="2" stroke-miterlimit="10" d="M429.346,356.247c0,0-9.55-2.089-3.379-9.524
	c5.008-4.996,16.883-12.313,16.883-12.313s10.129,0.464,5.006,9.757"/>
<path fill="none" stroke="#010101" stroke-width="2" stroke-miterlimit="10" d="M443.665,334.409
	c1.049-3.311,1.397-2.091,0.698-11.151c-1.57-15.333-22.702-1.743-22.702-1.743s-6.112,6.796,5.764,8.538
	c6.111-2.961,10.764-5.638,9.172,8.429"/>
<path fill="none" stroke="#010101" stroke-width="2" stroke-miterlimit="10" d="M426.201,310.451c0,0-22.552,3.398-10.447,9.583
	C417.906,318.378,426.201,310.451,426.201,310.451z"/>
<polyline fill="none" stroke="#010101" stroke-width="2" stroke-miterlimit="10" points="411.882,317.623 428.564,335.396 
	429.285,332.085 433.188,328.021 "/>
<polyline fill="none" stroke="#010101" stroke-width="2" stroke-miterlimit="10" points="426.201,310.451 449.301,288.874 
	461.828,302.349 443.596,320.035 "/>
<line fill="none" stroke="#010101" stroke-width="2" stroke-miterlimit="10" x1="455.72" y1="295.778" x2="477.078" y2="274.238"/>
<path fill="none" stroke="#010101" stroke-width="2" stroke-miterlimit="10" d="M290.684,534.783c0,0,50.644-2.439,52.391-13.591
	c1.396,10.105,15.368,42.516,0,55.06c-9.43,7.667-43.31,18.47-48.898-2.091C289.984,563.708,288.938,543.494,290.684,534.783z"/>
<path fill="none" stroke="#010101" stroke-width="2" stroke-miterlimit="10" d="M187.997,521.192c0,0,31.085,16.378,54.836,13.939
	c1.048,10.454,2.445,55.448-17.464,50.899c-16.416-1.066-35.276-3.855-40.167-11.87
	C180.313,566.146,185.202,529.207,187.997,521.192z"/>
<path fill="none" stroke="#010101" stroke-width="2" stroke-miterlimit="10" d="M188.835,594.095l-2.002,41.864
	c0,0-60.542,32.06-13.506,41.817c29.804,5.343,88.136,4.305,57.281-38.565c0.465-11.383,5.835-37.542,5.835-37.542"/>
<path fill="none" stroke="#010101" stroke-width="2" stroke-miterlimit="10" d="M186.833,635.959c0,0,19.85,8.188,43.775,3.252"/>
<path fill="none" stroke="#010101" stroke-width="2" stroke-miterlimit="10" d="M298.824,602.196c0,0,1.639,29.232,7.926,34.867
	c-1.397,4.24-22.587,38.158,9.08,40.945c21.421,0,105.813,4.998,34.395-40.945c2.161-15.277-1.555-35.702-3.887-44.539"/>
<path fill="none" stroke="#010101" stroke-width="2" stroke-miterlimit="10" d="M306.75,637.063c0,0,36.132,4.356,43.475,0"/>
</svg>
