<?xml version="1.0" encoding="utf-8"?>
<!-- Generator: Adobe Illustrator 16.0.0, SVG Export Plug-In . SVG Version: 6.00 Build 0)  -->
<!DOCTYPE svg PUBLIC "-//W3C//DTD SVG 1.1//EN" "http://www.w3.org/Graphics/SVG/1.1/DTD/svg11.dtd">
<svg version="1.1" id="Layer_1" xmlns="http://www.w3.org/2000/svg" xmlns:xlink="http://www.w3.org/1999/xlink" x="0px" y="0px"
	 width="552px" height="859px" viewBox="0 0 552 859" enable-background="new 0 0 552 859" xml:space="preserve">
<rect x="0" fill="#FFFFFF" stroke="#000000" stroke-miterlimit="10" width="552" height="859"/>
<ellipse fill="none" stroke="#000000" stroke-width="2" stroke-miterlimit="10" cx="251.094" cy="233.056" rx="107.044" ry="89.5"/>
<line fill="none" stroke="#000000" stroke-width="2" stroke-miterlimit="10" x1="323.273" y1="105.681" x2="323.273" y2="166.965"/>
<ellipse fill="none" stroke="#000000" stroke-width="2" stroke-miterlimit="10" cx="323.273" cy="92.681" rx="15.194" ry="13"/>
<path fill="none" stroke="#000000" stroke-width="2" stroke-miterlimit="10" d="M164.328,285.482c0,0-62.742,5.198-46.167,52.198"/>
<path fill="none" stroke="#000000" stroke-width="2" stroke-miterlimit="10" d="M176.092,296.909c0,0-98.676,49.271-55.859,68.271
	c14.503,8,23.481,16.5,34.531,13l2.939-1"/>
<path fill="none" stroke="#000000" stroke-width="2" stroke-miterlimit="10" d="M112.326,359.827c0,0-51.486,41.854-7.287,65.354
	c18.646,5,32.459,10,47.652,4l2.326-1.314"/>
<path fill="none" stroke="#000000" stroke-width="2" stroke-miterlimit="10" d="M176.583,297.313l-0.491,1.867
	c0,0-33.068,99-17.184,151c8.287,25.5,31.768,66.5,72.514,69c19.337-0.5,90.471,9,116.023-20c7.597-9,33.149-30.111,28.315-103.307
	c-2.072-10.693,3.014-57.066-39.931-108.131"/>
<path fill="none" stroke="#000000" stroke-width="2" stroke-miterlimit="10" d="M208.336,315.122c0,0-2.467,47.059,39.661,48.059
	c21.409-3.5,37.838,4.063,29.967-43.469"/>
<path fill="none" stroke="#000000" stroke-width="2" stroke-miterlimit="10" d="M193.774,308.651c0,0-7.362,59.029,50.365,66.529
	c13.526-1,26.364,2,35.829-9.5c8.085-12,22.449-33.615,13.887-50.559"/>
<path fill="none" stroke="#000000" stroke-width="2" stroke-miterlimit="10" d="M164.328,347.181c0,0,6.607,4.617,40.648,6.809"/>
<path fill="none" stroke="#000000" stroke-width="2" stroke-miterlimit="10" d="M287.398,353.989c0,0,39.713-2.365,78.539-14.836"/>
<path fill="none" stroke="#000000" stroke-width="2" stroke-miterlimit="10" d="M337.861,285.482c0,0,94.53,43.492,68.978,74.345
	c-10.36,6.354-13.49,10.354-32.299,10.854"/>
<path fill="none" stroke="#000000" stroke-width="2" stroke-miterlimit="10" d="M341.618,280.833c0,0,59.778-18.858,45.694,34.289"
	/>
<path fill="none" stroke="#000000" stroke-width="2" stroke-miterlimit="10" d="M410.006,354.615l1.214,0.997
	c0,0,79.7,64.568-34.855,64.068"/>
<path fill="none" stroke="#000000" stroke-width="2" stroke-miterlimit="10" d="M434.471,405.987c0,0,4.71,53.193,3.73,57.193
	c-0.977,4-2.358,15.5-18.933,18s-35.394,6-42.905-15.5c-2.212-22.188,4.844-45.923,6.303-45.997"/>
<path fill="none" stroke="#000000" stroke-width="2" stroke-miterlimit="10" d="M156.21,438.233c0,0,76.227,34.554,218.33,0"/>
<path fill="none" stroke="#000000" stroke-width="2" stroke-miterlimit="10" d="M92.891,415.896l1.098,6.285
	c0,0,7.597,47.5,6.216,49.5c-1.382,2-42.127,42-24.862,61.5c4.834,8.5,5.525,15.5,18.646,21.5c9.669,3.5,21.446,7.5,25.917-3.5
	c0.097-4.999,3.781-4.999-8.881-15.166"/>
<path fill="none" stroke="#000000" stroke-width="2" stroke-miterlimit="10" d="M143.719,431.538c0,0,1.837,27.643,3.678,32.31
	c-2.762,4.333-0.461,11.333-17.496,9c-13.353,1-27.625,0.464-27.625,0.464l-3.208-0.345"/>
<path fill="none" stroke="#000000" stroke-width="2" stroke-miterlimit="10" d="M133.354,494.181c0,0,26.714,16,15.429,30.25
	c-9.903,7.25-26.479,16-35.456-1.5c-3.453-10.5-6.906-28.75-6.906-28.75"/>
<path fill="none" stroke="#000000" stroke-width="2" stroke-miterlimit="10" d="M150.719,521.178l0.846,1.004
	c0,0,15.861,18.666-11.764,23.166l-1.892,0.315"/>
<path fill="none" stroke="#000000" stroke-width="2" stroke-miterlimit="10" d="M136.117,533.151c0,0,10.848,21.529-15.64,21.529
	h-2.612"/>
<path fill="none" stroke="#000000" stroke-width="2" stroke-miterlimit="10" d="M148.783,508.48c0,0,19.165,2.8,44.685,0
	c0,0,14.127,50.95,9.121,55.7c-4.489,2-19.739,18-15.136,36c-3.684,3-21.639,3.001-13.813,41.667c-8.287,2-46.042,7.334-41.437,63
	c8.288,2.666,90.701,14,143.647-3.667c-0.461-13.333-6.446-91.001,0-107.667c3.223-7.333,9.669-23.333,9.669-23.333
	s-11.972-11.998,0-47.999"/>
<path fill="none" stroke="#000000" stroke-width="2" stroke-miterlimit="10" d="M386.386,479.356c0,0-30.827,40.324-10.022,49.824
	c7.684,1.5,21.516,7.305,24.949-19.456"/>
<path fill="none" stroke="#000000" stroke-width="2" stroke-miterlimit="10" d="M401.313,508.48c0,0-14.025,50.7,9.907,54.7
	c14.265,0,19.789-1.529,23.242-19.265c0-7.735-3.453-21.734-3.453-21.734"/>
<path fill="none" stroke="#000000" stroke-width="2" stroke-miterlimit="10" d="M434.462,472.912c0,0,47.233,35.769,18.782,50.769"
	/>
<path fill="none" stroke="#000000" stroke-width="2" stroke-miterlimit="10" d="M202.589,564.181c0,0,16.204,13.363,80.186,1.349"/>
<path fill="none" stroke="#000000" stroke-width="2" stroke-miterlimit="10" d="M187.453,600.181c0,0,44.495,26.434,88.775-7.533"/>
<g>
	<path d="M169.612,651.681c0,0,0.625-0.199,1.755-0.424c0.564-0.103,1.253-0.235,2.049-0.325c0.796-0.099,1.698-0.2,2.685-0.235
		c0.988-0.079,2.059-0.058,3.195-0.054c1.13,0.064,2.334,0.075,3.563,0.243c1.23,0.15,2.509,0.281,3.781,0.569
		c1.286,0.224,2.566,0.565,3.847,0.907c1.289,0.317,2.514,0.837,3.751,1.245c0.623,0.195,1.209,0.471,1.792,0.735
		c0.582,0.263,1.157,0.522,1.722,0.777c1.138,0.492,2.151,1.151,3.147,1.688c1.008,0.521,1.87,1.17,2.685,1.728
		c0.805,0.573,1.572,1.051,2.172,1.588c0.607,0.522,1.136,0.979,1.572,1.354c0.861,0.758,1.337,1.203,1.337,1.203
		s-0.582-0.313-1.571-0.882c-0.489-0.288-1.083-0.638-1.765-1.04c-0.664-0.424-1.495-0.771-2.338-1.239
		c-0.863-0.438-1.767-0.961-2.788-1.39c-1.016-0.434-2.047-0.97-3.168-1.401c-1.125-0.421-2.264-0.908-3.457-1.307
		c-1.202-0.372-2.39-0.851-3.637-1.137c-1.228-0.352-2.456-0.704-3.693-0.941c-0.617-0.12-1.22-0.29-1.827-0.397
		c-0.608-0.108-1.208-0.215-1.799-0.32c-1.182-0.21-2.337-0.34-3.43-0.5c-1.098-0.087-2.137-0.241-3.102-0.287
		C172.235,651.551,169.612,651.681,169.612,651.681z"/>
</g>
<path fill="none" stroke="#000000" stroke-width="2" stroke-miterlimit="10" d="M285.416,522.495l0.262-0.674
	c0.734,0.141-0.157,1.859-0.157,1.859s8.097,26.816,0,46.5c4.604,4.667,3.597,4.667,3.597,4.667s-8.07,16.833,0.093,23.083
	c10.579,6,47.527,20,76.533-8.5c1.727-6.25,7.597-11-11.396-28c-1.381-0.5,16.786-44.91,4.594-76.33"/>
<path fill="none" stroke="#000000" stroke-width="2" stroke-miterlimit="10" d="M289.212,597.931c0,0,2.753,45.25,0.912,103.25
	c11.97,2,60.313,4.666,75.967,6.333c17.037-1,45.581,0.333,66.3-11c2.762-3.667,9.669-39-20.258-59.333
	c-10.131-2.667-17.671-5.667-35.769-4.667"/>
<g>
	<path d="M380.94,641.681c0,0-0.582,0.114-1.584,0.352c-1.003,0.233-2.427,0.58-4.113,1.046c-0.846,0.224-1.751,0.502-2.708,0.785
		c-0.962,0.266-1.945,0.65-2.985,0.957c-1.021,0.374-2.08,0.741-3.138,1.156c-1.057,0.423-2.141,0.822-3.179,1.327l-1.586,0.688
		c-0.513,0.258-1.023,0.515-1.53,0.77c-0.502,0.265-1.019,0.494-1.508,0.758c-0.485,0.271-0.965,0.54-1.437,0.805
		c-0.956,0.512-1.844,1.063-2.682,1.599c-0.423,0.264-0.834,0.521-1.232,0.769c-0.393,0.255-0.754,0.528-1.111,0.776
		c-0.716,0.503-1.373,0.963-1.955,1.371c-0.559,0.443-1.046,0.829-1.447,1.147c-0.815,0.63-1.3,0.981-1.3,0.981
		s0.359-0.466,1.021-1.266c0.337-0.397,0.746-0.88,1.215-1.433c0.499-0.524,1.095-1.084,1.747-1.697
		c0.329-0.303,0.661-0.635,1.025-0.95c0.381-0.297,0.773-0.604,1.178-0.92c0.406-0.314,0.823-0.639,1.25-0.97
		c0.427-0.333,0.909-0.601,1.375-0.913c0.942-0.607,1.909-1.254,2.969-1.771c0.521-0.275,1.046-0.552,1.573-0.83l1.63-0.744
		c1.087-0.501,2.217-0.894,3.316-1.308c1.099-0.421,2.227-0.693,3.292-1.027c1.085-0.27,2.13-0.543,3.139-0.72
		c1.002-0.207,1.957-0.357,2.843-0.463c1.767-0.242,3.254-0.305,4.291-0.317C380.348,641.628,380.94,641.681,380.94,641.681z"/>
</g>
<path fill="none" stroke="#000000" stroke-width="2" stroke-miterlimit="10" d="M365.746,589.431c0,0,19.049-0.582,10.618,46.751"/>
<polyline fill="none" stroke="#000000" stroke-width="2" stroke-miterlimit="10" points="364.365,510.181 368.508,510.181 
	370.141,510.181 "/>
<path fill="none" stroke="#000000" stroke-width="2" stroke-miterlimit="10" d="M214.156,191.681c0,0,66.375-3,73.242-3
	c6.869,0,33.69-0.5,39.272,29c0.056,18,0,32.5,0,32.5s-3.791,26.309-30.184,27.404c-17.412,0.096-82.331,0-82.331,0
	s-26.934,5.096-35.221-21.404c-3.454-26-2.844-42-2.844-42S184.46,187.681,214.156,191.681z"/>
<ellipse fill="none" stroke="#000000" stroke-width="2" stroke-miterlimit="10" cx="244.888" cy="245.255" rx="16.92" ry="11.926"/>
<ellipse fill="none" stroke="#000000" stroke-width="2" stroke-miterlimit="10" cx="277.865" cy="223.556" rx="4.316" ry="5.875"/>
<ellipse fill="none" stroke="#000000" stroke-width="2" stroke-miterlimit="10" cx="215.193" cy="225.994" rx="5.179" ry="7.063"/>
<g>
	<path d="M284.599,257.181c0,0,0.023,0.318-0.032,0.918c-0.033,0.298-0.062,0.671-0.162,1.097c-0.046,0.214-0.086,0.448-0.146,0.692
		c-0.078,0.239-0.161,0.493-0.248,0.762c-0.148,0.551-0.448,1.103-0.721,1.733c-0.301,0.614-0.712,1.235-1.128,1.913
		c-0.506,0.605-0.971,1.332-1.609,1.956c-0.646,0.61-1.275,1.331-2.087,1.881c-0.782,0.59-1.582,1.238-2.517,1.729
		c-0.908,0.539-1.853,1.097-2.895,1.504c-2.026,0.966-4.282,1.669-6.63,2.292c-1.187,0.259-2.393,0.522-3.613,0.789
		c-1.229,0.208-2.481,0.35-3.743,0.514c-0.631,0.074-1.263,0.173-1.899,0.228c-0.637,0.036-1.276,0.072-1.917,0.108
		c-1.281,0.071-2.567,0.144-3.853,0.216c-2.533,0.003-5.031,0.188-7.55,0.336c-2.506,0.166-4.997,0.24-7.415,0.23
		c-4.822-0.035-9.445-0.682-13.042-2.351c-1.795-0.82-3.288-1.893-4.417-3.018c-1.139-1.119-1.931-2.27-2.461-3.266
		c-0.289-0.486-0.489-0.949-0.652-1.354c-0.18-0.398-0.301-0.748-0.388-1.036c-0.185-0.569-0.283-0.873-0.283-0.873
		s0.134,0.29,0.384,0.832c0.118,0.273,0.278,0.604,0.502,0.973c0.211,0.375,0.448,0.807,0.769,1.256
		c0.599,0.921,1.459,1.956,2.628,2.917c1.165,0.964,2.641,1.835,4.364,2.512c1.731,0.663,3.71,1.098,5.831,1.369
		c2.125,0.265,4.399,0.305,6.755,0.278c2.359-0.041,4.8-0.23,7.298-0.396c2.485-0.168,5.071-0.385,7.635-0.408
		c1.258-0.059,2.517-0.119,3.77-0.178l1.876-0.087c0.621-0.047,1.235-0.139,1.85-0.206c1.226-0.157,2.451-0.264,3.65-0.429
		c1.188-0.225,2.36-0.447,3.514-0.666c1.16-0.202,2.238-0.608,3.335-0.875c1.106-0.251,2.108-0.702,3.112-1.075
		c0.492-0.207,1.012-0.348,1.463-0.6c0.461-0.236,0.916-0.468,1.363-0.697c0.926-0.411,1.712-0.975,2.49-1.487
		c1.55-1.037,2.775-2.235,3.79-3.367c0.447-0.607,0.896-1.168,1.235-1.731c0.312-0.578,0.653-1.09,0.841-1.607
		c0.226-0.502,0.405-0.96,0.525-1.372c0.148-0.405,0.218-0.764,0.286-1.054C284.584,257.503,284.599,257.181,284.599,257.181z"/>
</g>
<g>
	<path d="M275.315,253.681c0,0,0.226,0.146,0.62,0.344c0.203,0.093,0.44,0.204,0.719,0.311c0.27,0.119,0.6,0.198,0.931,0.309
		c0.349,0.081,0.715,0.167,1.109,0.22c0.384,0.087,0.813,0.053,1.23,0.11c0.435-0.024,0.869,0.004,1.321-0.066
		c0.449-0.04,0.905-0.084,1.361-0.194c0.46-0.057,0.913-0.184,1.364-0.303c0.228-0.055,0.453-0.109,0.676-0.163
		c0.221-0.071,0.438-0.142,0.653-0.212c0.424-0.154,0.863-0.236,1.253-0.402c0.392-0.154,0.776-0.278,1.136-0.392
		c0.361-0.108,0.676-0.25,0.971-0.35c0.288-0.111,0.552-0.191,0.768-0.262c0.435-0.136,0.697-0.2,0.697-0.2
		s-0.167,0.203-0.482,0.535c-0.16,0.164-0.353,0.368-0.588,0.583s-0.485,0.485-0.812,0.7c-0.314,0.234-0.66,0.486-1.041,0.73
		c-0.367,0.267-0.801,0.478-1.25,0.694c-0.444,0.223-0.91,0.454-1.425,0.597c-0.499,0.18-1.02,0.328-1.563,0.412
		c-0.271,0.043-0.537,0.098-0.81,0.129c-0.275,0.011-0.55,0.022-0.821,0.033c-0.541,0.051-1.086-0.082-1.599-0.123
		c-0.513-0.116-1.006-0.222-1.445-0.425c-0.451-0.158-0.841-0.398-1.189-0.617c-0.689-0.464-1.153-0.974-1.425-1.356
		C275.406,253.931,275.315,253.681,275.315,253.681z"/>
</g>
<g>
	<path d="M218.3,259.514c0,0,0.109,0.214,0.165,0.643c0.025,0.213,0.034,0.478-0.007,0.782c-0.05,0.297-0.111,0.653-0.28,0.997
		c-0.134,0.367-0.368,0.716-0.633,1.074c-0.287,0.334-0.609,0.682-0.997,0.953c-0.369,0.318-0.802,0.52-1.235,0.757
		c-0.438,0.216-0.904,0.354-1.363,0.525c-0.467,0.112-0.935,0.214-1.397,0.299c-0.461,0.071-0.917,0.086-1.357,0.116
		c-0.879,0.052-1.691-0.059-2.381-0.136c-1.375-0.243-2.254-0.592-2.254-0.592c0,0,0.913-0.324,2.225-0.556
		c0.326-0.083,0.677-0.169,1.047-0.241c0.369-0.073,0.76-0.132,1.149-0.236c0.391-0.084,0.794-0.171,1.205-0.26
		c0.396-0.118,0.803-0.209,1.205-0.313c0.381-0.137,0.781-0.245,1.15-0.383c0.35-0.164,0.737-0.274,1.043-0.463
		c0.34-0.156,0.623-0.35,0.906-0.536c0.253-0.205,0.529-0.39,0.72-0.614c0.214-0.211,0.376-0.435,0.53-0.642
		c0.132-0.215,0.256-0.412,0.334-0.588C218.239,259.75,218.3,259.514,218.3,259.514z"/>
</g>
<path fill="none" stroke="#000000" stroke-width="2" stroke-miterlimit="10" d="M146.215,466.493l1.183,0.938
	c0,0,19.337,18.417-4.603,31.75l-1.641,0.764"/>
<path fill="none" stroke="#000000" stroke-width="2" stroke-miterlimit="10" d="M287.916,562.189l2.208,0.991
	c0,0,43.558,8.872,64.367-3.229"/>
<path fill="none" stroke="#000000" stroke-width="2" stroke-miterlimit="10" d="M446.893,505.057c0,0,20.613,42.657-12.431,47.124
	l-2.27,0.271"/>
</svg>
