<?xml version="1.0" encoding="utf-8"?>
<!-- Generator: Adobe Illustrator 16.0.0, SVG Export Plug-In . SVG Version: 6.00 Build 0)  -->
<!DOCTYPE svg PUBLIC "-//W3C//DTD SVG 1.1//EN" "http://www.w3.org/Graphics/SVG/1.1/DTD/svg11.dtd">
<svg version="1.1" id="Layer_1" xmlns="http://www.w3.org/2000/svg" xmlns:xlink="http://www.w3.org/1999/xlink" x="0px" y="0px"
	 width="552px" height="859px" viewBox="0 0 552 859" enable-background="new 0 0 552 859" xml:space="preserve">
<rect fill="#FFFFFF" stroke="#000000" stroke-miterlimit="10" width="552" height="859"/>
<ellipse fill="none" stroke="#010101" stroke-width="2" stroke-miterlimit="10" cx="286.854" cy="195.049" rx="25.015" ry="27.432"/>
<path fill="none" stroke="#010101" stroke-width="2" stroke-miterlimit="10" d="M185.844,171.761
	c13.795-0.6,25.774,11.18,26.754,26.309c0.981,15.13-9.407,27.881-23.203,28.481c-13.795,0.599-25.774-11.18-26.755-26.31
	C161.661,185.111,172.049,172.36,185.844,171.761z"/>
<path fill="none" stroke="#010101" stroke-width="2" stroke-miterlimit="10" d="M281.031,192.787
	c5.367-0.208,10.056,5.445,10.473,12.628c0.417,7.184-3.595,13.176-8.962,13.384c-5.365,0.209-10.055-5.445-10.471-12.627
	C271.652,198.989,275.666,192.996,281.031,192.787z"/>
<ellipse fill="none" stroke="#010101" stroke-width="2" stroke-miterlimit="10" cx="282.09" cy="211.094" rx="5.944" ry="6.194"/>
<path fill="none" stroke="#010101" stroke-width="2" stroke-miterlimit="10" d="M183.462,196.485
	c5.367-0.208,10.056,5.445,10.474,12.628c0.416,7.183-3.596,13.175-8.962,13.384c-5.367,0.209-10.055-5.444-10.473-12.627
	C174.084,202.687,178.096,196.695,183.462,196.485z"/>
<ellipse fill="none" stroke="#010101" stroke-width="2" stroke-miterlimit="10" cx="184.217" cy="215.665" rx="5.944" ry="6.194"/>
<g>
	<path fill="#010101" d="M223.183,240.549c0,0,2.185,1.124,5.502,2.576c0.833,0.356,1.736,0.734,2.695,1.114
		c0.957,0.387,1.986,0.735,3.038,1.114c1.061,0.354,2.167,0.679,3.293,0.974c1.124,0.313,2.282,0.529,3.44,0.711
		c1.156,0.167,2.32,0.302,3.458,0.285c1.142,0.017,2.25-0.085,3.312-0.259c1.047-0.226,2.055-0.489,2.957-0.889
		c0.445-0.209,0.897-0.386,1.288-0.642c0.401-0.238,0.813-0.44,1.149-0.719c0.723-0.496,1.312-1.051,1.851-1.54
		c0.494-0.526,0.929-0.998,1.274-1.398c0.634-0.842,1.022-1.328,1.022-1.328s-0.234,0.56-0.689,1.547
		c-0.261,0.471-0.594,1.044-1.023,1.675c-0.237,0.301-0.49,0.622-0.756,0.959c-0.26,0.348-0.62,0.631-0.953,0.975
		c-0.69,0.656-1.532,1.289-2.507,1.813c-0.469,0.303-1.013,0.478-1.541,0.73c-0.539,0.22-1.117,0.368-1.697,0.538
		c-1.175,0.251-2.413,0.485-3.669,0.47c-1.258,0.04-2.523-0.078-3.775-0.24c-1.241-0.219-2.473-0.476-3.651-0.828
		c-1.189-0.321-2.312-0.77-3.396-1.188c-2.152-0.886-4.067-1.899-5.645-2.858C224.992,242.229,223.183,240.549,223.183,240.549z"/>
</g>
<path fill="none" stroke="#010101" stroke-width="2" stroke-miterlimit="10" d="M197.706,270.131c0,0,51.88,12.894,81.064,0
	C275.064,276.578,241.248,325.122,197.706,270.131z"/>
<g>
	<path fill="#010101" d="M210.059,158.252c0,0-0.986-0.554-2.795-1.313c-0.899-0.389-2.012-0.813-3.305-1.234
		c-1.29-0.433-2.777-0.811-4.396-1.195c-1.626-0.364-3.408-0.632-5.293-0.846c-1.892-0.156-3.891-0.236-5.951-0.137
		c-2.058,0.11-4.176,0.357-6.286,0.819c-2.122,0.406-4.216,1.088-6.271,1.852c-2.038,0.814-4.047,1.719-5.919,2.815
		c-0.938,0.544-1.877,1.07-2.754,1.677c-0.892,0.583-1.78,1.15-2.592,1.797c-1.681,1.217-3.204,2.533-4.656,3.775
		c-1.378,1.322-2.738,2.523-3.87,3.759c-0.581,0.605-1.138,1.185-1.667,1.735c-0.508,0.573-0.99,1.116-1.443,1.626
		c-0.454,0.512-0.879,0.99-1.272,1.433c-0.371,0.461-0.712,0.884-1.02,1.267c-1.234,1.531-1.965,2.394-1.965,2.394
		s0.584-0.961,1.652-2.625c0.27-0.414,0.569-0.873,0.894-1.372c0.349-0.483,0.727-1.005,1.13-1.563
		c0.405-0.56,0.835-1.155,1.289-1.782c0.475-0.611,1.01-1.225,1.55-1.883c1.054-1.34,2.346-2.66,3.697-4.076
		c1.417-1.347,2.904-2.791,4.612-4.09c0.818-0.694,1.719-1.311,2.625-1.945c0.886-0.664,1.852-1.233,2.828-1.804
		c1.939-1.161,4.031-2.136,6.163-3.007c2.166-0.782,4.374-1.472,6.609-1.878c2.221-0.476,4.461-0.622,6.613-0.683
		c2.159-0.054,4.237,0.155,6.187,0.416c1.946,0.308,3.76,0.721,5.399,1.216c3.283,0.981,5.847,2.241,7.582,3.188
		c0.873,0.467,1.52,0.905,1.962,1.195C209.835,158.08,210.059,158.252,210.059,158.252z"/>
</g>
<g>
	<path fill="#010101" d="M268.732,152.621c0,0,0.214-0.147,0.633-0.397c0.423-0.241,1.039-0.615,1.872-0.99
		c0.828-0.383,1.85-0.825,3.057-1.24c1.204-0.427,2.59-0.848,4.14-1.151c1.543-0.333,3.246-0.574,5.062-0.664
		c1.813-0.123,3.739-0.066,5.717,0.143c1.977,0.214,4.003,0.602,6.016,1.167c2,0.599,4.005,1.314,5.92,2.223l1.43,0.693
		c0.469,0.244,0.923,0.514,1.384,0.77c0.457,0.262,0.922,0.509,1.368,0.783l1.314,0.85c0.889,0.542,1.712,1.162,2.521,1.78
		c0.826,0.594,1.595,1.239,2.342,1.883c0.757,0.632,1.497,1.257,2.161,1.935c0.671,0.668,1.366,1.282,1.97,1.951
		c0.61,0.661,1.204,1.303,1.778,1.925c0.573,0.622,1.063,1.278,1.567,1.877c0.488,0.612,0.985,1.174,1.404,1.751
		c0.415,0.58,0.809,1.129,1.178,1.646c0.369,0.516,0.715,0.998,1.033,1.444c0.299,0.46,0.572,0.884,0.82,1.266
		c0.982,1.532,1.518,2.419,1.518,2.419s-0.683-0.788-1.831-2.188c-0.285-0.351-0.602-0.739-0.945-1.162
		c-0.364-0.406-0.757-0.846-1.177-1.315c-0.834-0.943-1.779-1.999-2.86-3.101c-1.045-1.137-2.265-2.276-3.532-3.498
		c-0.625-0.621-1.338-1.179-2.026-1.792c-0.349-0.302-0.701-0.606-1.057-0.914c-0.369-0.291-0.741-0.585-1.117-0.881
		c-0.745-0.6-1.51-1.199-2.326-1.744c-0.805-0.564-1.61-1.143-2.467-1.659l-1.271-0.803c-0.432-0.259-0.88-0.489-1.32-0.735
		c-0.444-0.239-0.882-0.494-1.333-0.722l-1.371-0.648c-1.818-0.889-3.719-1.59-5.616-2.183c-1.91-0.543-3.813-1.021-5.693-1.275
		c-1.877-0.245-3.71-0.422-5.454-0.399c-1.743,0.002-3.398,0.103-4.915,0.304c-3.037,0.382-5.538,1.034-7.241,1.624
		C269.671,152.167,268.732,152.621,268.732,152.621z"/>
</g>
<line fill="none" stroke="#010101" stroke-miterlimit="10" x1="272.038" y1="157.114" x2="277.226" y2="165.332"/>
<line fill="none" stroke="#010101" stroke-miterlimit="10" x1="282.09" y1="153.827" x2="284.019" y2="163.056"/>
<line fill="none" stroke="#010101" stroke-miterlimit="10" x1="292.354" y1="154.838" x2="290.35" y2="163.562"/>
<line fill="none" stroke="#010101" stroke-miterlimit="10" x1="301.467" y1="158.441" x2="296.835" y2="165.332"/>
<line fill="none" stroke="#010101" stroke-miterlimit="10" x1="307.952" y1="162.423" x2="301.467" y2="167.617"/>
<line fill="none" stroke="#010101" stroke-miterlimit="10" x1="314.438" y1="168.745" x2="307.952" y2="172.41"/>
<line fill="none" stroke="#010101" stroke-miterlimit="10" x1="318.144" y1="176.203" x2="310.113" y2="177.468"/>
<line fill="none" stroke="#010101" stroke-miterlimit="10" x1="206.97" y1="163.562" x2="199.711" y2="170.577"/>
<line fill="none" stroke="#010101" stroke-miterlimit="10" x1="197.396" y1="158.441" x2="193.227" y2="167.617"/>
<line fill="none" stroke="#010101" stroke-miterlimit="10" x1="187.619" y1="157.873" x2="187.619" y2="166.469"/>
<path fill="none" stroke="#010101" stroke-miterlimit="10" d="M177.632,159.2c0.464-0.189,4.169,8.417,4.169,8.417"/>
<line fill="none" stroke="#010101" stroke-miterlimit="10" x1="168.985" y1="163.406" x2="174.47" y2="168.745"/>
<path fill="none" stroke="#010101" stroke-miterlimit="10" d="M162.576,167.617c0.234,0.116,6.41,4.794,6.41,4.794"/>
<line fill="none" stroke="#010101" stroke-miterlimit="10" x1="157.095" y1="174.054" x2="164.199" y2="177.468"/>
<path fill="none" stroke="#010101" stroke-width="2" stroke-miterlimit="10" d="M79.429,183.536c0,0,26.56,5.058,30.882-21.744
	c4.942-25.03,9.265-29.329,11.117-31.352c2.471,3.034,12.662,14.412,23.162,11.883c0.617-3.034-1.234-19.974,37.212-11.883
	c17.449,4.298,41.537,14.412,51.418,20.48c2.163-1.264,2.163-10.114-0.617-14.918c-2.779-4.804-8.028-6.32,6.176-3.792
	c14.205,2.527,67.321,11.125,79.365-0.505c7.411-5.814,14.204-9.355,14.204-9.355s13.895,55.37,36.439,62.955
	c0,0,3.093-31.352,8.032-51.073c3.085-20.226,7.41-57.646-58.676-69.782c-41.381-7.08-69.483-11.377-129.086-9.861
	c-8.029,0.759-24.087-2.78-5.249-20.732c-12.971-0.253-42.307,8.09-42,28.57c-8.955-7.585-19.765-18.458-49.411-11.378
	c6.485,1.012,22.544,9.103,19.765,23.768c-3.706,2.78-43.233,26.294-37.984,65.484C76.65,164.319,79.737,176.709,79.429,183.536z"/>
<path fill="none" stroke="#010101" stroke-width="2" stroke-miterlimit="10" d="M79.429,183.536c0,0-36.904,5.563-28.565,33.753
	c6.484,14.917,20.381,23.26,30.572,21.364c2.78,9.102,28.928,61.06,106.184,78.884c13.792,3.414,106.437,13.423,156.002-34.438
	c10.653-8.417,29.646-30.983,33.12-45.584c3.011-0.759,27.563-11.567,23.856-39.063c-0.926-4.362-4.326-18.899-31.811-13.148"/>
<path fill="none" stroke="#010101" stroke-width="2" stroke-miterlimit="10" d="M370.024,193.712c0,0,7.177,19.729,6.253,33.943
	c7.645-5.31,20.383-13.843,15.981-26.548C389.48,194.28,379.521,189.729,370.024,193.712z"/>
<path fill="none" stroke="#010101" stroke-width="2" stroke-miterlimit="10" d="M79.12,195.165c0,0-4.169,24.903,1.853,32.741
	c-6.022,0.506-22.079-5.396-21.462-18.436C60.437,199.969,70.782,191.247,79.12,195.165z"/>
<path fill="none" stroke="#010101" stroke-width="2" stroke-miterlimit="10" d="M128.227,292.444c0,0-29.035,19.276-18.227,40.515
	c8.955,9.355,25.014,7.585,23.161-6.573c-0.617-9.607,4.949-18.163,18.379-20.964"/>
<path fill="none" stroke="#010101" stroke-width="2" stroke-miterlimit="10" d="M317.438,301.672c0,0,31.741,8.28,6.728,41.275
	c-13.433,14.411-32.889,40.201-66.704,16.687c-23.625-10.62-78.432-42.856-105.921-15.55c-7.569,10.24-12.504,29.33,0,61.186
	c-2.011,1.771-10.966,0.253-2.32,17.951c2.162,5.309,10.19,26.798,25.323,24.018c8.338-0.758,13.896-5.308,13.896-28.316
	c-0.617-10.114,0.927-15.17-11.117-16.94c-1.543-4.804-20.691-48.291,0.617-49.05c9.881,0,32.735,5.056,76.278,28.824
	c13.587,5.056,47.863,13.906,68.558-6.068c11.731-9.102,34.589-30.845,34.897-51.073c-0.312-11.631-4.318-26.056-20.998-35.404"/>
<ellipse fill="none" stroke="#010101" stroke-width="2" stroke-miterlimit="10" cx="338.602" cy="304.01" rx="9.651" ry="6.447"/>
<ellipse fill="none" stroke="#010101" stroke-width="2" stroke-miterlimit="10" cx="345.857" cy="322.214" rx="8.417" ry="7.08"/>
<path fill="none" stroke="#010101" stroke-width="2" stroke-miterlimit="10" d="M342.075,331.569c3.753,0,6.797,2.688,6.797,6.004
	s-3.044,6.004-6.797,6.004c-3.751,0-6.792-2.688-6.792-6.004S338.324,331.569,342.075,331.569z"/>
<ellipse fill="none" stroke="#010101" stroke-width="2" stroke-miterlimit="10" cx="333.17" cy="351.834" rx="8.232" ry="6.23"/>
<ellipse fill="none" stroke="#010101" stroke-width="2" stroke-miterlimit="10" cx="319.146" cy="363.932" rx="7.644" ry="5.184"/>
<ellipse fill="none" stroke="#010101" stroke-width="2" stroke-miterlimit="10" cx="298.445" cy="377.545" rx="13.5" ry="5.647"/>
<path fill="none" stroke="#010101" stroke-width="2" stroke-miterlimit="10" d="M306.407,366.966c1.876,0,3.398,1.104,3.398,2.465
	c0,1.361-1.522,2.465-3.398,2.465c-1.874,0-3.395-1.104-3.395-2.465C303.013,368.069,304.533,366.966,306.407,366.966z"/>
<ellipse fill="none" stroke="#010101" stroke-width="2" stroke-miterlimit="10" cx="270.354" cy="373.287" rx="8.106" ry="5.563"/>
<ellipse fill="none" stroke="#010101" stroke-width="2" stroke-miterlimit="10" cx="282.86" cy="382.642" rx="4.401" ry="2.781"/>
<ellipse fill="none" stroke="#010101" stroke-width="2" stroke-miterlimit="10" cx="251.207" cy="366.903" rx="7.18" ry="8.154"/>
<ellipse fill="none" stroke="#010101" stroke-width="2" stroke-miterlimit="10" cx="232.679" cy="354.261" rx="6.716" ry="4.994"/>
<ellipse fill="none" stroke="#010101" stroke-width="2" stroke-miterlimit="10" cx="236.538" cy="365.229" rx="5.791" ry="4.204"/>
<ellipse fill="none" stroke="#010101" stroke-width="2" stroke-miterlimit="10" cx="213.069" cy="352.871" rx="10.576" ry="6.384"/>
<ellipse fill="none" stroke="#010101" stroke-width="2" stroke-miterlimit="10" cx="198.604" cy="343.159" rx="8.62" ry="4.392"/>
<ellipse fill="none" stroke="#010101" stroke-width="2" stroke-miterlimit="10" cx="180.951" cy="340.167" rx="6.871" ry="4.298"/>
<ellipse fill="none" stroke="#010101" stroke-width="2" stroke-miterlimit="10" cx="190.371" cy="349.679" rx="4.401" ry="3.192"/>
<ellipse fill="none" stroke="#010101" stroke-width="2" stroke-miterlimit="10" cx="171.765" cy="348.047" rx="6.176" ry="4.888"/>
<ellipse fill="none" stroke="#010101" stroke-width="2" stroke-miterlimit="10" cx="158.794" cy="348.015" rx="4.942" ry="4.856"/>
<ellipse fill="none" stroke="#010101" stroke-width="2" stroke-miterlimit="10" cx="153.621" cy="357.327" rx="5.79" ry="4.457"/>
<ellipse fill="none" stroke="#010101" stroke-width="2" stroke-miterlimit="10" cx="162.115" cy="368.42" rx="4.247" ry="5.878"/>
<ellipse fill="none" stroke="#010101" stroke-width="2" stroke-miterlimit="10" cx="164.545" cy="356.474" rx="2.432" ry="2.781"/>
<ellipse fill="none" stroke="#010101" stroke-width="2" stroke-miterlimit="10" cx="150.61" cy="370.127" rx="5.559" ry="6.701"/>
<ellipse fill="none" stroke="#010101" stroke-width="2" stroke-miterlimit="10" cx="163.812" cy="380.872" rx="5.018" ry="4.551"/>
<ellipse fill="none" stroke="#010101" stroke-width="2" stroke-miterlimit="10" cx="152.541" cy="383.463" rx="5.327" ry="5.12"/>
<ellipse fill="none" stroke="#010101" stroke-width="2" stroke-miterlimit="10" cx="162.847" cy="393.451" rx="10.309" ry="5.625"/>
<ellipse fill="none" stroke="#010101" stroke-width="2" stroke-miterlimit="10" cx="165.82" cy="340.668" rx="4.71" ry="1.899"/>
<ellipse fill="none" stroke="#010101" stroke-width="2" stroke-miterlimit="10" cx="131.927" cy="301.873" rx="5.327" ry="5.804"/>
<ellipse fill="none" stroke="#010101" stroke-width="2" stroke-miterlimit="10" cx="121.239" cy="314.229" rx="8.325" ry="6.552"/>
<ellipse fill="none" stroke="#010101" stroke-width="2" stroke-miterlimit="10" cx="122.523" cy="329.483" rx="7.041" ry="5.499"/>
<path fill="none" stroke="#010101" stroke-width="2" stroke-miterlimit="10" d="M107.59,323.22c0,0-51.014,31.737-52.25,53.101
	c4.632,6.194,25.656,15.809,60.141,22.755c4.091-4.424,17.68-18.204,17.68-18.204s5.559,28.95,5.559,42.35"/>
<path fill="none" stroke="#010101" stroke-width="2" stroke-miterlimit="10" d="M111.447,398.238c0,0-3.298,24.226,37.773,24.984"/>
<path fill="none" stroke="#010101" stroke-width="2" stroke-miterlimit="10" d="M63.84,382.642c0,0-25.145,38.558,58.683,70.92
	c-1.713,6.574-2.949,20.101,4.926,21.238c4.632-0.252,8.184-2.908,7.412-15.17c5.868,4.425,35.515,21.109,42.617,15.17
	c2.47-3.034,4.015-10.112-19.455-16.813c5.868,1.896,27.33,10.999,33.352,6.826c1.853-1.516,3.089-10.618-22.389-16.054
	c5.712,1.77,24.087,6.7,27.947,2.275c1.853-2.78,0.581-7.924-11.599-10.976"/>
<path fill="none" stroke="#010101" stroke-width="2" stroke-miterlimit="10" d="M154.315,409.064c0,0,16.367-4.805,21.772-2.276
	c-0.309,2.782-1.236,5.182-2.007,7.964c-0.773,3.034-0.773,10.24,2.007,14.601c2.007,4.994,6.332,9.543-2.163,11.947
	c-4.478,0.633-9.418,0-9.418,0s-2.318,0.252-0.695-6.068c0.695-4.677,2.395-14.536-2.857-19.214
	C158.948,413.995,153.389,410.519,154.315,409.064z"/>
<path fill="none" stroke="#010101" stroke-width="2" stroke-miterlimit="10" d="M153.733,415.817
	c1.169-0.273,2.573,0.812,3.134,2.423c0.563,1.612,0.071,3.138-1.099,3.412c-1.169,0.274-2.573-0.81-3.133-2.422
	C152.072,417.618,152.564,416.091,153.733,415.817z"/>
<path fill="none" stroke="#010101" stroke-width="2" stroke-miterlimit="10" d="M179.712,414.704
	c1.185-0.219,2.522,0.969,2.987,2.653c0.465,1.686-0.12,3.229-1.305,3.449c-1.184,0.219-2.521-0.969-2.985-2.655
	C177.943,416.467,178.526,414.923,179.712,414.704z"/>
<path fill="none" stroke="#010101" stroke-width="2" stroke-miterlimit="10" d="M177.94,315.056c0,0-12.558,15.411-10.499,19.927"/>
<polyline fill="none" stroke="#010101" stroke-width="2" stroke-miterlimit="10" points="188.692,354.261 182.873,359.255 
	232.679,410.729 259.238,383.463 "/>
<line fill="none" stroke="#010101" stroke-width="2" stroke-miterlimit="10" x1="218.975" y1="320.674" x2="227.449" y2="345.602"/>
<line fill="none" stroke="#010101" stroke-width="2" stroke-miterlimit="10" x1="250.786" y1="319.678" x2="242.329" y2="352.424"/>
<path fill="none" stroke="#010101" stroke-width="2" stroke-miterlimit="10" d="M289.308,312.681c0,0,13.705,16.359,13.705,24.893
	c-6.178,1.455-38.294,4.994-38.294,4.994l18.144,13.906l-9.091,11.251"/>
<path fill="none" stroke="#010101" stroke-width="2" stroke-miterlimit="10" d="M357.188,318.773c0,0,39.535,25.439,43.787,34.098
	c1.475,4.108-11.495,17.003-14.738,20.416c-3.242,3.414-16.675,18.204-16.675,21.996c-2.781,1.138-29.996-15.549-36.827-19.436
	c-1.508,5.214-5.753,95.159,8.667,146.737c-11.522,2.024-71.434,2.024-110.962,6.575c-19.765,1.012-81.28,2.529-101.478-6.573
	c-2.592-4.045,11.921-48.989,9.759-60.396"/>
<path fill="none" stroke="#010101" stroke-width="2" stroke-miterlimit="10" d="M134.43,524.534l-15.936,48.238
	c0,0,16.213,21.239,104.689,19.722c0,0,126.46-6.067,130.629-12.137c1.853-3.792-4.524-46.434-18.013-57.159"/>
<path fill="none" stroke="#010101" stroke-width="2" stroke-miterlimit="10" d="M139.41,583.776v52.585c0,0-99.678,42.477,0,45.005
	c37.296-0.505,91.197,9.057,58.212-41.465c-0.534-8.596,9.959-31.634,7.493-47.422"/>
<path fill="none" stroke="#010101" stroke-width="2" stroke-miterlimit="10" d="M139.41,636.361c0,0,10.417,8.852,58.212,3.54"/>
<path fill="none" stroke="#010101" stroke-width="2" stroke-miterlimit="10" d="M262.222,590.326l12.071,47.3
	c0,0-41.073,48.867,22.234,44.155c36.132,1.86,144.522-0.487,35.205-42.803c-1.543-19.305-7.138-53.407-7.138-53.407"/>
<path fill="none" stroke="#010101" stroke-width="2" stroke-miterlimit="10" d="M274.291,637.626c0,0,16.056,4.984,57.438,1.355"/>
<path fill="none" stroke="#010101" stroke-width="2" stroke-miterlimit="10" d="M373.883,387.689c0,0,51.73,32.739,56.053,36.663
	c2.161,5.064,15.826,37.869,23.701,26.871c2.548-3.225-1.157-13.085-3.938-15.55c6.022,3.603,29.184,23.893,34.511,16.118
	c1.39-3.982-10.655-16.876-18.992-22.186c3.243-0.569,23.856,21.618,30.804,12.895c2.549-3.983-11.117-14.747-21.771-21.88
	c2.085-2.582,20.613,17.139,26.867,7.278c4.169-6.448-16.907-18.773-33.12-25.6c7.179-2.465,16.675-7.206,12.507-12.515
	c-4.632-4.172-22.698,2.844-25.709,5.689c-4.864-3.414-44.475-35.713-55.936-36.724"/>
</svg>
