<?xml version="1.0" encoding="utf-8"?>
<!-- Generator: Adobe Illustrator 16.0.2, SVG Export Plug-In . SVG Version: 6.00 Build 0)  -->
<!DOCTYPE svg PUBLIC "-//W3C//DTD SVG 1.1//EN" "http://www.w3.org/Graphics/SVG/1.1/DTD/svg11.dtd">
<svg version="1.1" id="Layer_1" xmlns="http://www.w3.org/2000/svg" xmlns:xlink="http://www.w3.org/1999/xlink" x="0px" y="0px"
	 width="552px" height="859px" viewBox="0 0 552 859" enable-background="new 0 0 552 859" xml:space="preserve">
<rect fill="#FFFFFF" stroke="#000000" stroke-miterlimit="10" width="552" height="859"/>
<path fill="none" stroke="#000000" stroke-width="2" stroke-miterlimit="10" d="M257.333,260c0,0,14.001-70,84.667-70.667
	c18,0.667,54-2,68,30.667c6,2.667,28.666,7.333,16.666,66c-8.666,2-64.666,7.333-109.334-2.667c-0.666-8-0.998-30.333-0.998-30.333
	L307,281.333C307,281.333,260.666,270,257.333,260z"/>
<path fill="none" stroke="#000000" stroke-width="2" stroke-miterlimit="10" d="M257.333,262c0,0-26.833,52.5,12.167,104
	c8.5,10,29.95,35.5,74.226,27.5C366.5,387.5,395,377,408,353.5"/>
<polyline fill="none" stroke="#000000" stroke-width="2" stroke-miterlimit="10" points="426.665,286 426.665,291.5 
	426.665,293.751 "/>
<path fill="none" stroke="#000000" stroke-width="2" stroke-miterlimit="10" d="M405.5,297.75c0,0,25-17.25,35,12.75
	c0.5,17.5,1.235,21.5-10.383,37.5c-9.117,5-21.617,11.5-30.617-3.5"/>
<g>
	<path d="M430.117,311.5c-0.924-0.438-1.906-0.703-2.882-0.913c-0.499-0.055-0.983-0.175-1.481-0.181
		c-0.495-0.035-0.986-0.064-1.479-0.016l-0.732,0.039l-0.724,0.12l-0.719,0.119l-0.697,0.21l-0.694,0.208
		c-0.229,0.078-0.444,0.196-0.665,0.292c-0.433,0.219-0.902,0.344-1.301,0.631l-1.234,0.757l-1.131,0.916l-0.563,0.457l-0.514,0.523
		l-1.024,1.042c-0.323,0.366-0.61,0.769-0.918,1.151c-0.301,0.389-0.611,0.766-0.9,1.164l-1.616,2.485l-0.648-1.462
		c0.223,0.042,0.561,0.06,0.881,0.074l1.014,0.029c0.691,0.013,1.4,0.045,2.115,0.115c1.425,0.145,2.917,0.389,4.337,1.141
		c0.352,0.19,0.697,0.409,1.012,0.682c0.319,0.262,0.608,0.579,0.853,0.923c0.249,0.34,0.45,0.717,0.599,1.104
		c0.15,0.385,0.262,0.786,0.315,1.18c0.076,0.396,0.079,0.787,0.087,1.173c-0.012,0.383-0.029,0.765-0.088,1.133
		c-0.095,0.745-0.298,1.446-0.505,2.138l-0.038,0.127l-0.058,0.08c-0.667,0.949-1.351,1.888-2.092,2.784
		c-0.371,0.448-0.755,0.887-1.15,1.316c-0.399,0.425-0.8,0.851-1.234,1.246c-0.428,0.399-0.882,0.777-1.362,1.123
		c-0.238,0.175-0.478,0.347-0.739,0.493c-0.249,0.162-0.515,0.299-0.795,0.413c-0.265,0.136-0.563,0.21-0.852,0.292
		c-0.291,0.069-0.604,0.1-0.9,0.091l-0.447-0.063c-0.146-0.025-0.281-0.105-0.42-0.155c-0.287-0.082-0.487-0.326-0.723-0.479
		c0.267,0.114,0.486,0.309,0.773,0.336c0.137,0.023,0.266,0.075,0.401,0.074l0.407-0.016c0.267-0.036,0.532-0.1,0.781-0.2
		c0.248-0.114,0.496-0.212,0.722-0.375c0.235-0.138,0.456-0.298,0.67-0.475c0.223-0.16,0.426-0.348,0.628-0.539
		c0.406-0.374,0.789-0.78,1.148-1.208c0.731-0.841,1.414-1.734,2.042-2.667c0.633-0.93,1.249-1.872,1.827-2.84l-0.096,0.208
		c0.146-0.635,0.274-1.273,0.32-1.897c0.039-0.313,0.037-0.62,0.035-0.923c-0.021-0.298-0.032-0.6-0.102-0.876
		c-0.05-0.285-0.141-0.55-0.249-0.797c-0.107-0.25-0.243-0.48-0.409-0.686c-0.162-0.209-0.35-0.401-0.568-0.563
		c-0.207-0.174-0.447-0.323-0.701-0.456c-1.025-0.534-2.308-0.759-3.605-0.866c-0.654-0.052-1.319-0.076-2.002-0.105l-1.047-0.044
		c-0.365-0.024-0.717-0.037-1.17-0.125l-1.442-0.279l0.794-1.184l1.749-2.611c0.314-0.42,0.676-0.81,1.012-1.215
		c0.348-0.397,0.671-0.812,1.037-1.192l1.162-1.089l0.581-0.542c0.207-0.167,0.43-0.318,0.646-0.473l1.311-0.917l1.423-0.747
		c0.458-0.275,0.994-0.402,1.49-0.596c0.255-0.082,0.502-0.186,0.762-0.248l0.788-0.158l0.784-0.155l0.798-0.057l0.794-0.05
		l0.793,0.052c0.529,0.014,1.048,0.107,1.563,0.207c0.52,0.066,1.013,0.266,1.513,0.399c0.483,0.193,0.975,0.358,1.432,0.604
		C429.259,310.935,429.701,311.206,430.117,311.5z"/>
</g>
<g>
	<path d="M323.75,353.791c0,0,0.136,0.353,0.411,0.937c0.261,0.588,0.674,1.405,1.198,2.338c0.275,0.46,0.568,0.956,0.917,1.449
		c0.313,0.517,0.753,0.977,1.133,1.497c0.205,0.248,0.448,0.468,0.672,0.708c0.227,0.239,0.456,0.478,0.722,0.678
		c0.253,0.213,0.508,0.428,0.766,0.644c0.271,0.191,0.563,0.358,0.842,0.541c0.532,0.416,1.187,0.604,1.769,0.916
		c0.61,0.249,1.253,0.402,1.859,0.609c0.64,0.108,1.258,0.212,1.844,0.312c0.594,0.083,1.172,0.055,1.707,0.104
		c0.536,0.031,1.035,0.07,1.476,0.023c0.439-0.029,0.83-0.034,1.154-0.043c0.648-0.012,1.032-0.002,1.032-0.002
		s-0.337,0.153-0.949,0.392c-0.307,0.116-0.681,0.264-1.118,0.41c-0.22,0.068-0.448,0.171-0.701,0.225
		c-0.257,0.045-0.524,0.092-0.806,0.142c-0.563,0.081-1.179,0.242-1.843,0.244c-0.663-0.014-1.376,0.004-2.105-0.07
		c-0.717-0.171-1.493-0.25-2.229-0.525c-0.719-0.314-1.495-0.558-2.146-1.035c-0.332-0.223-0.676-0.433-0.994-0.668
		c-0.294-0.267-0.587-0.533-0.877-0.796c-0.305-0.251-0.548-0.551-0.78-0.853c-0.233-0.301-0.484-0.583-0.689-0.886
		c-0.395-0.618-0.773-1.215-1.029-1.829c-0.306-0.59-0.496-1.187-0.674-1.73c-0.337-1.095-0.482-2.033-0.531-2.692
		C323.72,354.167,323.75,353.791,323.75,353.791z"/>
</g>
<g>
	<path d="M329.016,362.872c0,0-0.047,0.722-0.332,1.958c-0.279,1.234-0.804,2.987-1.774,4.962c-0.498,0.978-1.07,2.035-1.823,3.06
		c-0.746,1.024-1.583,2.092-2.62,3.035c-1.017,0.957-2.146,1.886-3.428,2.625c-1.257,0.781-2.645,1.375-4.051,1.884
		c-1.432,0.439-2.891,0.796-4.346,0.955c-0.361,0.045-0.725,0.09-1.084,0.134c-0.36,0.012-0.721,0.024-1.077,0.036
		c-0.356,0.011-0.712,0.021-1.063,0.032c-0.351-0.014-0.699-0.028-1.044-0.042c-0.69-0.024-1.368-0.045-2.023-0.15
		c-0.654-0.095-1.303-0.137-1.916-0.271c-0.615-0.121-1.213-0.238-1.791-0.351c-0.576-0.124-1.119-0.298-1.646-0.435
		c-1.057-0.261-1.994-0.604-2.822-0.904c-0.836-0.276-1.543-0.575-2.119-0.836c-1.156-0.507-1.805-0.813-1.805-0.813
		s0.709,0.148,1.928,0.435c0.606,0.156,1.35,0.317,2.203,0.478c0.852,0.171,1.807,0.371,2.859,0.518
		c1.045,0.188,2.188,0.298,3.386,0.428c0.599,0.081,1.22,0.068,1.849,0.108c0.632,0.04,1.271,0.049,1.925,0.032
		c0.324-0.002,0.653-0.005,0.983-0.008c0.329-0.026,0.659-0.053,0.992-0.08s0.667-0.054,1.003-0.082l1.002-0.142
		c1.347-0.166,2.674-0.523,3.974-0.938c1.286-0.444,2.557-0.959,3.707-1.651c1.165-0.661,2.256-1.42,3.227-2.263
		c0.982-0.83,1.846-1.739,2.622-2.642c0.771-0.909,1.422-1.838,2.005-2.713c1.129-1.774,1.908-3.375,2.395-4.522
		C328.803,363.563,329.016,362.872,329.016,362.872z"/>
</g>
<path fill="none" stroke="#000000" stroke-width="2" stroke-miterlimit="10" d="M301.839,390.512c0,0,1.191,22.738,27.177,21.488
	c7.984-0.5,23.734-3.476,27.484-21.488"/>
<polyline fill="none" stroke="#000000" stroke-width="2" stroke-miterlimit="10" points="381.16,379.152 440.73,418.25 
	416.25,473.5 404.25,471.5 402.75,518.25 255.25,521 256.5,470.5 238.25,481.5 230,420.75 282.443,379.152 "/>
<polyline fill="none" stroke="#000000" stroke-width="2" stroke-miterlimit="10" points="266,521 266,565.75 329.75,567.25 
	332.75,553.75 335.365,566 400,565.75 395.983,518.376 "/>
<polyline fill="none" stroke="#000000" stroke-width="2" stroke-miterlimit="10" points="280.504,566.091 280.504,600.5 
	280.504,601.75 "/>
<polyline fill="none" stroke="#000000" stroke-width="2" stroke-miterlimit="10" points="311.5,567.25 303.5,600.5 303.084,601.75 
	"/>
<polyline fill="none" stroke="#000000" stroke-width="2" stroke-miterlimit="10" points="277.75,619.526 277.75,618.25 
	277.75,601.75 303.5,601.75 304.75,617 304.75,618.694 "/>
<line fill="none" stroke="#000000" stroke-width="2" stroke-miterlimit="10" x1="349.75" y1="566.091" x2="359.25" y2="597.5"/>
<line fill="none" stroke="#000000" stroke-width="2" stroke-miterlimit="10" x1="383.5" y1="565.813" x2="384.5" y2="597.5"/>
<polyline fill="none" stroke="#000000" stroke-width="2" stroke-miterlimit="10" points="359.25,615.5 358.25,597.5 386.25,597.5 
	387.5,615.5 "/>
<path fill="none" stroke="#000000" stroke-width="2" stroke-miterlimit="10" d="M264.75,647.5c0,0,1.25-29.5,23.75-32
	c6.25,0.75,24.25-4.25,28.75,30.25"/>
<polygon fill="none" stroke="#000000" stroke-width="2" stroke-miterlimit="10" points="263.25,647.5 320.25,646 320.25,663.5 
	263.25,665.5 "/>
<path fill="none" stroke="#000000" stroke-width="2" stroke-miterlimit="10" d="M346.5,644.5c0,0-3-30.25,26.375-32.25
	c5.625,1,22.375-3.5,29.875,30.25"/>
<polygon fill="none" stroke="#000000" stroke-width="2" stroke-miterlimit="10" points="344.25,644.5 405,642.75 405,660.25 
	344.25,662.25 "/>
<path fill="none" stroke="#000000" stroke-width="2" stroke-miterlimit="10" d="M439.232,421.631c0,0,13.019-1.131,15.519,36.869
	c1.5,11.5,4.5,45.5,6.5,49c2.25,2.25,10.75,9,15.75,19.5c1.75,4.75,3.75,14.25-7,20.25c-3.75,3.25-16.5,7-19.75,2.5"/>
<path fill="none" stroke="#000000" stroke-width="2" stroke-miterlimit="10" d="M421.319,462.059L439.232,513
	c0,0-7.771,12,1.498,19.75"/>
<path fill="none" stroke="#000000" stroke-width="2" stroke-miterlimit="10" d="M442.5,545.75c0,0-8.5,4.25-5.5,13.75
	c0,3.25-0.75,9.25-4.75,12c-3-0.25-3.75-2.25-3.75-2.25c4.5-2.75,4.5-9.25,3.75-12.5c-2-9.75,10.25-15.5,10.25-15.5
	C446.375,541.438,442.5,545.75,442.5,545.75z"/>
<path fill="none" stroke="#000000" stroke-width="2" stroke-miterlimit="10" d="M432.493,562.249l-8.993-6.999
	c0,0-15.25,26.25-16.25,31s-4,11,10,5.75c12.5-6,33-17.378,33-17.378l-13.821-10.081"/>
<path fill="none" stroke="#000000" stroke-width="2" stroke-miterlimit="10" d="M436.641,545.329l-0.141-0.662
	c0,0-1.668-10.75,4.582-11.5c0,0,17.729-3.084,10.418,15.083c-1.25,1.5-10.496,8.476-12.729,0.632"/>
<path fill="none" stroke="#000000" stroke-width="2" stroke-miterlimit="10" d="M469.127,515.303c0,0,9.873-7.945,15.373,0
	c1.75,4.697,2.78,12.447-6.109,15.697"/>
<path fill="none" stroke="#000000" stroke-width="2" stroke-miterlimit="10" d="M230,427.333c0,0-26,12-41.667,26
	c-10.667,3.333-39.667,20.167-30,29.917c3.333-1.25,2.292,0,2.292,0"/>
<polygon fill="none" stroke="#000000" stroke-width="2" stroke-miterlimit="10" points="160.125,476.625 195.375,469.75 199,496.5 
	163.625,503.125 160.125,477.125 "/>
<path fill="none" stroke="#000000" stroke-width="2" stroke-miterlimit="10" d="M196.967,481.5c0,0,6.283-6.5,10.533-6.875
	c4.25-1.625,28.042-13.063,28.042-13.063"/>
<polygon fill="none" stroke="#000000" stroke-width="2" stroke-miterlimit="10" points="91.75,519.5 151.75,517 154,553 94,555 "/>
<polygon fill="none" stroke="#000000" stroke-width="2" stroke-miterlimit="10" points="156.391,556 218,553.5 219.75,589.25 
	157.75,592.25 156.391,557 "/>
<polygon fill="none" stroke="#000000" stroke-width="2" stroke-miterlimit="10" points="93.5,557.75 154,556.25 155.25,592.25 
	95,592.25 "/>
<polygon fill="none" stroke="#000000" stroke-width="2" stroke-miterlimit="10" points="158,594.5 218.75,592.25 219.75,628.375 
	158,630.5 "/>
<polygon fill="none" stroke="#000000" stroke-width="2" stroke-miterlimit="10" points="94.75,596 155.25,595 156.391,630.5 
	96.75,631.5 "/>
<polygon fill="none" stroke="#000000" stroke-width="2" stroke-miterlimit="10" points="67.75,633 124.375,633 126.75,669.5 
	69.5,668 "/>
<polygon fill="none" stroke="#000000" stroke-width="2" stroke-miterlimit="10" points="128,633 188.07,631.5 188.875,667 128,668 
	"/>
<polygon fill="none" stroke="#000000" stroke-width="2" stroke-miterlimit="10" points="190.5,631.5 251.5,628.375 253.5,664.25 
	191.5,665.5 "/>
<ellipse fill="none" stroke="#000000" stroke-width="2" stroke-miterlimit="10" cx="188.563" cy="484.188" rx="3.563" ry="4.063"/>
<ellipse fill="none" stroke="#000000" stroke-width="2" stroke-miterlimit="10" cx="172.313" cy="487.25" rx="3.813" ry="4"/>
<ellipse fill="none" stroke="#000000" stroke-width="2" stroke-miterlimit="10" cx="295.529" cy="339.997" rx="11.584" ry="10"/>
<ellipse fill="none" stroke="#000000" stroke-width="2" stroke-miterlimit="10" cx="334.416" cy="317" rx="14.918" ry="9.5"/>
<ellipse fill="none" stroke="#000000" stroke-width="2" stroke-miterlimit="10" cx="334.502" cy="317.022" rx="7.778" ry="7.5"/>
<ellipse fill="none" stroke="#000000" stroke-width="2" stroke-miterlimit="10" cx="274.917" cy="301.824" rx="13.75" ry="9.009"/>
<ellipse fill="none" stroke="#000000" stroke-width="2" stroke-miterlimit="10" cx="275.771" cy="302.261" rx="6.271" ry="7.261"/>
<path fill="none" stroke="#000000" stroke-width="2" stroke-miterlimit="10" d="M272.75,275.667c0,0,7.25-2,18.25,5
	c1.833,1.667,2.5,4-1,3.333c-2.333-0.667-13-5.333-17.25-5C270.167,277.833,268,277.167,272.75,275.667z"/>
<path fill="none" stroke="#000000" stroke-width="2" stroke-miterlimit="10" d="M329,291.5c0,0,9.666-0.87,17.666,1.315
	c2.666,1.185,6,4.019-1.166,4.352c-3.168-0.5-11.334-2.333-15.668-1.333C328.166,295.5,323.332,294.667,329,291.5z"/>
</svg>
